<svg width="782" height="392" xmlns="http://www.w3.org/2000/svg">
  <style>
    .axis { font: 10px sans-serif; fill: #8b949e; }
    .label { font: 10px sans-serif; paint-order: stroke; stroke: #0d1117; stroke-width: 3px; }
    .panel { font: bold 12px sans-serif; fill: #c9d1d9; }
    .title { font: bold 14px sans-serif; fill: #c9d1d9; }
  </style>
  <rect width="100%" height="100%" fill="#0d1117"/>
  <text x="46" y="16" class="panel">heating (INC)</text>
  <line x1="46" y1="139" x2="722" y2="139" stroke="#21262d"/>
  <text x="40" y="142" text-anchor="end" class="axis">6h</text>
  <line x1="46" y1="108.9" x2="722" y2="108.9" stroke="#21262d"/>
  <text x="40" y="111.9" text-anchor="end" class="axis">1d</text>
  <line x1="46" y1="85" x2="722" y2="85" stroke="#21262d"/>
  <text x="40" y="88" text-anchor="end" class="axis">3d</text>
  <line x1="46" y1="66.7" x2="722" y2="66.7" stroke="#21262d"/>
  <text x="40" y="69.7" text-anchor="end" class="axis">1w</text>
  <line x1="46" y1="35.1" x2="722" y2="35.1" stroke="#21262d"/>
  <text x="40" y="38.1" text-anchor="end" class="axis">30d</text>
  <text x="58.1" y="168" text-anchor="middle" class="axis">2022</text>
  <text x="202.9" y="168" text-anchor="middle" class="axis">2023</text>
  <text x="347.8" y="168" text-anchor="middle" class="axis">2024</text>
  <text x="492.6" y="168" text-anchor="middle" class="axis">2025</text>
  <text x="637.5" y="168" text-anchor="middle" class="axis">2026</text>
  <polyline points="46,69.3 58.1,79.3 70.1,74.3 82.2,78.8" fill="none" stroke-width="1.5" stroke="#f2b491"/>
  <polyline points="178.8,56.9 190.9,69.3 202.9,78.1 215,81.2 227.1,75.7 239.1,90.5" fill="none" stroke-width="1.5" stroke="#f2b491"/>
  <polyline points="311.6,43.7 323.6,69 335.7,74 347.8,70.6 359.9,76.2 371.9,77.5" fill="none" stroke-width="1.5" stroke="#f2b491"/>
  <polyline points="456.4,62.2 468.5,64.5 480.6,74.1 492.6,68.8 504.7,84.4 516.8,66.4 528.9,63.6" fill="none" stroke-width="1.5" stroke="#f2b491"/>
  <polyline points="601.3,63.8 613.4,62.6 625.4,74.9 637.5,54.3 649.6,76.5 661.6,71.5 673.7,82.3" fill="none" stroke-width="1.5" stroke="#f2b491"/>
  <circle cx="46" cy="69.3" r="3" stroke="#0d1117" stroke-width="1.5" fill="#f2b491"><title>2021-12: heating p99 149h (1040 episodes)</title></circle>
  <circle cx="58.1" cy="79.3" r="3" stroke="#0d1117" stroke-width="1.5" fill="#f2b491"><title>2022-01: heating p99 94h (1813 episodes)</title></circle>
  <circle cx="70.1" cy="74.3" r="3" stroke="#0d1117" stroke-width="1.5" fill="#f2b491"><title>2022-02: heating p99 118h (1951 episodes)</title></circle>
  <circle cx="82.2" cy="78.8" r="3" stroke="#0d1117" stroke-width="1.5" fill="#f2b491"><title>2022-03: heating p99 96h (1618 episodes)</title></circle>
  <circle cx="178.8" cy="56.9" r="3" stroke="#0d1117" stroke-width="1.5" fill="#f2b491"><title>2022-11: heating p99 264h (2759 episodes)</title></circle>
  <circle cx="190.9" cy="69.3" r="3" stroke="#0d1117" stroke-width="1.5" fill="#f2b491"><title>2022-12: heating p99 149h (1480 episodes)</title></circle>
  <circle cx="202.9" cy="78.1" r="3" stroke="#0d1117" stroke-width="1.5" fill="#f2b491"><title>2023-01: heating p99 99h (929 episodes)</title></circle>
  <circle cx="215" cy="81.2" r="3" stroke="#0d1117" stroke-width="1.5" fill="#f2b491"><title>2023-02: heating p99 86h (1424 episodes)</title></circle>
  <circle cx="227.1" cy="75.7" r="3" stroke="#0d1117" stroke-width="1.5" fill="#f2b491"><title>2023-03: heating p99 111h (1180 episodes)</title></circle>
  <circle cx="239.1" cy="90.5" r="3" stroke="#0d1117" stroke-width="1.5" fill="#f2b491"><title>2023-04: heating p99 56h (425 episodes)</title></circle>
  <circle cx="311.6" cy="43.7" r="3" stroke="#0d1117" stroke-width="1.5" fill="#f2b491"><title>2023-10: heating p99 484h (191 episodes)</title></circle>
  <circle cx="323.6" cy="69" r="3" stroke="#0d1117" stroke-width="1.5" fill="#f2b491"><title>2023-11: heating p99 151h (2257 episodes)</title></circle>
  <circle cx="335.7" cy="74" r="3" stroke="#0d1117" stroke-width="1.5" fill="#f2b491"><title>2023-12: heating p99 120h (2141 episodes)</title></circle>
  <circle cx="347.8" cy="70.6" r="3" stroke="#0d1117" stroke-width="1.5" fill="#f2b491"><title>2024-01: heating p99 140h (1390 episodes)</title></circle>
  <circle cx="359.9" cy="76.2" r="3" stroke="#0d1117" stroke-width="1.5" fill="#f2b491"><title>2024-02: heating p99 108h (1256 episodes)</title></circle>
  <circle cx="371.9" cy="77.5" r="3" stroke="#0d1117" stroke-width="1.5" fill="#f2b491"><title>2024-03: heating p99 102h (768 episodes)</title></circle>
  <circle cx="456.4" cy="62.2" r="3" stroke="#0d1117" stroke-width="1.5" fill="#f2b491"><title>2024-10: heating p99 206h (813 episodes)</title></circle>
  <circle cx="468.5" cy="64.5" r="3" stroke="#0d1117" stroke-width="1.5" fill="#f2b491"><title>2024-11: heating p99 186h (1912 episodes)</title></circle>
  <circle cx="480.6" cy="74.1" r="3" stroke="#0d1117" stroke-width="1.5" fill="#f2b491"><title>2024-12: heating p99 119h (1187 episodes)</title></circle>
  <circle cx="492.6" cy="68.8" r="3" stroke="#0d1117" stroke-width="1.5" fill="#f2b491"><title>2025-01: heating p99 152h (1628 episodes)</title></circle>
  <circle cx="504.7" cy="84.4" r="3" stroke="#0d1117" stroke-width="1.5" fill="#f2b491"><title>2025-02: heating p99 74h (1134 episodes)</title></circle>
  <circle cx="516.8" cy="66.4" r="3" stroke="#0d1117" stroke-width="1.5" fill="#f2b491"><title>2025-03: heating p99 170h (1584 episodes)</title></circle>
  <circle cx="528.9" cy="63.6" r="3" stroke="#0d1117" stroke-width="1.5" fill="#f2b491"><title>2025-04: heating p99 193h (835 episodes)</title></circle>
  <circle cx="601.3" cy="63.8" r="3" stroke="#0d1117" stroke-width="1.5" fill="#f2b491"><title>2025-10: heating p99 192h (842 episodes)</title></circle>
  <circle cx="613.4" cy="62.6" r="3" stroke="#0d1117" stroke-width="1.5" fill="#f2b491"><title>2025-11: heating p99 203h (1111 episodes)</title></circle>
  <circle cx="625.4" cy="74.9" r="3" stroke="#0d1117" stroke-width="1.5" fill="#f2b491"><title>2025-12: heating p99 115h (1214 episodes)</title></circle>
  <circle cx="637.5" cy="54.3" r="3" stroke="#0d1117" stroke-width="1.5" fill="#f2b491"><title>2026-01: heating p99 297h (1836 episodes)</title></circle>
  <circle cx="649.6" cy="76.5" r="3" stroke="#0d1117" stroke-width="1.5" fill="#f2b491"><title>2026-02: heating p99 107h (1413 episodes)</title></circle>
  <circle cx="661.6" cy="71.5" r="3" stroke="#0d1117" stroke-width="1.5" fill="#f2b491"><title>2026-03: heating p99 134h (1792 episodes)</title></circle>
  <circle cx="673.7" cy="82.3" r="3" stroke="#0d1117" stroke-width="1.5" fill="#f2b491"><title>2026-04: heating p99 82h (305 episodes)</title></circle>
  <polyline points="46,97.8 58.1,96.2 70.1,87.9 82.2,94.3" fill="none" stroke-width="1.5" stroke="#e8875c"/>
  <polyline points="178.8,95.2 190.9,95.2 202.9,92.5 215,95.2 227.1,92.1 239.1,95.2" fill="none" stroke-width="1.5" stroke="#e8875c"/>
  <polyline points="311.6,82.2 323.6,93 335.7,88.6 347.8,95.2 359.9,89 371.9,85" fill="none" stroke-width="1.5" stroke="#e8875c"/>
  <polyline points="456.4,82.2 468.5,81.2 480.6,89.7 492.6,78.4 504.7,99.5 516.8,83.3 528.9,84.2" fill="none" stroke-width="1.5" stroke="#e8875c"/>
  <polyline points="601.3,87.6 613.4,79.3 625.4,95.7 637.5,58.6 649.6,86.2 661.6,85 673.7,92.8" fill="none" stroke-width="1.5" stroke="#e8875c"/>
  <circle cx="46" cy="97.8" r="3" stroke="#0d1117" stroke-width="1.5" fill="#e8875c"><title>2021-12: heating p90 40h (1040 episodes)</title></circle>
  <circle cx="58.1" cy="96.2" r="3" stroke="#0d1117" stroke-width="1.5" fill="#e8875c"><title>2022-01: heating p90 43h (1813 episodes)</title></circle>
  <circle cx="70.1" cy="87.9" r="3" stroke="#0d1117" stroke-width="1.5" fill="#e8875c"><title>2022-02: heating p90 63h (1951 episodes)</title></circle>
  <circle cx="82.2" cy="94.3" r="3" stroke="#0d1117" stroke-width="1.5" fill="#e8875c"><title>2022-03: heating p90 47h (1618 episodes)</title></circle>
  <circle cx="178.8" cy="95.2" r="3" stroke="#0d1117" stroke-width="1.5" fill="#e8875c"><title>2022-11: heating p90 45h (2759 episodes)</title></circle>
  <circle cx="190.9" cy="95.2" r="3" stroke="#0d1117" stroke-width="1.5" fill="#e8875c"><title>2022-12: heating p90 45h (1480 episodes)</title></circle>
  <circle cx="202.9" cy="92.5" r="3" stroke="#0d1117" stroke-width="1.5" fill="#e8875c"><title>2023-01: heating p90 51h (929 episodes)</title></circle>
  <circle cx="215" cy="95.2" r="3" stroke="#0d1117" stroke-width="1.5" fill="#e8875c"><title>2023-02: heating p90 45h (1424 episodes)</title></circle>
  <circle cx="227.1" cy="92.1" r="3" stroke="#0d1117" stroke-width="1.5" fill="#e8875c"><title>2023-03: heating p90 52h (1180 episodes)</title></circle>
  <circle cx="239.1" cy="95.2" r="3" stroke="#0d1117" stroke-width="1.5" fill="#e8875c"><title>2023-04: heating p90 45h (425 episodes)</title></circle>
  <circle cx="311.6" cy="82.2" r="3" stroke="#0d1117" stroke-width="1.5" fill="#e8875c"><title>2023-10: heating p90 82h (191 episodes)</title></circle>
  <circle cx="323.6" cy="93" r="3" stroke="#0d1117" stroke-width="1.5" fill="#e8875c"><title>2023-11: heating p90 50h (2257 episodes)</title></circle>
  <circle cx="335.7" cy="88.6" r="3" stroke="#0d1117" stroke-width="1.5" fill="#e8875c"><title>2023-12: heating p90 61h (2141 episodes)</title></circle>
  <circle cx="347.8" cy="95.2" r="3" stroke="#0d1117" stroke-width="1.5" fill="#e8875c"><title>2024-01: heating p90 45h (1390 episodes)</title></circle>
  <circle cx="359.9" cy="89" r="3" stroke="#0d1117" stroke-width="1.5" fill="#e8875c"><title>2024-02: heating p90 60h (1256 episodes)</title></circle>
  <circle cx="371.9" cy="85" r="3" stroke="#0d1117" stroke-width="1.5" fill="#e8875c"><title>2024-03: heating p90 72h (768 episodes)</title></circle>
  <circle cx="456.4" cy="82.2" r="3" stroke="#0d1117" stroke-width="1.5" fill="#e8875c"><title>2024-10: heating p90 82h (813 episodes)</title></circle>
  <circle cx="468.5" cy="81.2" r="3" stroke="#0d1117" stroke-width="1.5" fill="#e8875c"><title>2024-11: heating p90 86h (1912 episodes)</title></circle>
  <circle cx="480.6" cy="89.7" r="3" stroke="#0d1117" stroke-width="1.5" fill="#e8875c"><title>2024-12: heating p90 58h (1187 episodes)</title></circle>
  <circle cx="492.6" cy="78.4" r="3" stroke="#0d1117" stroke-width="1.5" fill="#e8875c"><title>2025-01: heating p90 98h (1628 episodes)</title></circle>
  <circle cx="504.7" cy="99.5" r="3" stroke="#0d1117" stroke-width="1.5" fill="#e8875c"><title>2025-02: heating p90 37h (1134 episodes)</title></circle>
  <circle cx="516.8" cy="83.3" r="3" stroke="#0d1117" stroke-width="1.5" fill="#e8875c"><title>2025-03: heating p90 78h (1584 episodes)</title></circle>
  <circle cx="528.9" cy="84.2" r="3" stroke="#0d1117" stroke-width="1.5" fill="#e8875c"><title>2025-04: heating p90 75h (835 episodes)</title></circle>
  <circle cx="601.3" cy="87.6" r="3" stroke="#0d1117" stroke-width="1.5" fill="#e8875c"><title>2025-10: heating p90 64h (842 episodes)</title></circle>
  <circle cx="613.4" cy="79.3" r="3" stroke="#0d1117" stroke-width="1.5" fill="#e8875c"><title>2025-11: heating p90 94h (1111 episodes)</title></circle>
  <circle cx="625.4" cy="95.7" r="3" stroke="#0d1117" stroke-width="1.5" fill="#e8875c"><title>2025-12: heating p90 44h (1214 episodes)</title></circle>
  <circle cx="637.5" cy="58.6" r="3" stroke="#0d1117" stroke-width="1.5" fill="#e8875c"><title>2026-01: heating p90 243h (1836 episodes)</title></circle>
  <circle cx="649.6" cy="86.2" r="3" stroke="#0d1117" stroke-width="1.5" fill="#e8875c"><title>2026-02: heating p90 68h (1413 episodes)</title></circle>
  <circle cx="661.6" cy="85" r="3" stroke="#0d1117" stroke-width="1.5" fill="#e8875c"><title>2026-03: heating p90 72h (1792 episodes)</title></circle>
  <circle cx="673.7" cy="92.8" r="3" stroke="#0d1117" stroke-width="1.5" fill="#e8875c"><title>2026-04: heating p90 50h (305 episodes)</title></circle>
  <polyline points="46,123.9 58.1,127.9 70.1,117.7 82.2,127.9" fill="none" stroke-width="2" stroke="#d95926"/>
  <polyline points="178.8,130.2 190.9,127.9 202.9,125.8 215,130.2 227.1,130.2 239.1,132.7" fill="none" stroke-width="2" stroke="#d95926"/>
  <polyline points="311.6,100.1 323.6,123.9 335.7,120.6 347.8,127.9 359.9,122.2 371.9,122.2" fill="none" stroke-width="2" stroke="#d95926"/>
  <polyline points="456.4,111.8 468.5,123.9 480.6,123.9 492.6,132.7 504.7,125.8 516.8,120.6 528.9,120.6" fill="none" stroke-width="2" stroke="#d95926"/>
  <polyline points="601.3,123.9 613.4,123.9 625.4,130.2 637.5,119.6 649.6,120.6 661.6,123.9 673.7,123.4" fill="none" stroke-width="2" stroke="#d95926"/>
  <circle cx="46" cy="123.9" r="3" stroke="#0d1117" stroke-width="1.5" fill="#d95926"><title>2021-12: heating p50 12h (1040 episodes)</title></circle>
  <circle cx="58.1" cy="127.9" r="3" stroke="#0d1117" stroke-width="1.5" fill="#d95926"><title>2022-01: heating p50 10h (1813 episodes)</title></circle>
  <circle cx="70.1" cy="117.7" r="3" stroke="#0d1117" stroke-width="1.5" fill="#d95926"><title>2022-02: heating p50 16h (1951 episodes)</title></circle>
  <circle cx="82.2" cy="127.9" r="3" stroke="#0d1117" stroke-width="1.5" fill="#d95926"><title>2022-03: heating p50 10h (1618 episodes)</title></circle>
  <circle cx="178.8" cy="130.2" r="3" stroke="#0d1117" stroke-width="1.5" fill="#d95926"><title>2022-11: heating p50 9h (2759 episodes)</title></circle>
  <circle cx="190.9" cy="127.9" r="3" stroke="#0d1117" stroke-width="1.5" fill="#d95926"><title>2022-12: heating p50 10h (1480 episodes)</title></circle>
  <circle cx="202.9" cy="125.8" r="3" stroke="#0d1117" stroke-width="1.5" fill="#d95926"><title>2023-01: heating p50 11h (929 episodes)</title></circle>
  <circle cx="215" cy="130.2" r="3" stroke="#0d1117" stroke-width="1.5" fill="#d95926"><title>2023-02: heating p50 9h (1424 episodes)</title></circle>
  <circle cx="227.1" cy="130.2" r="3" stroke="#0d1117" stroke-width="1.5" fill="#d95926"><title>2023-03: heating p50 9h (1180 episodes)</title></circle>
  <circle cx="239.1" cy="132.7" r="3" stroke="#0d1117" stroke-width="1.5" fill="#d95926"><title>2023-04: heating p50 8h (425 episodes)</title></circle>
  <circle cx="311.6" cy="100.1" r="3" stroke="#0d1117" stroke-width="1.5" fill="#d95926"><title>2023-10: heating p50 36h (191 episodes)</title></circle>
  <circle cx="323.6" cy="123.9" r="3" stroke="#0d1117" stroke-width="1.5" fill="#d95926"><title>2023-11: heating p50 12h (2257 episodes)</title></circle>
  <circle cx="335.7" cy="120.6" r="3" stroke="#0d1117" stroke-width="1.5" fill="#d95926"><title>2023-12: heating p50 14h (2141 episodes)</title></circle>
  <circle cx="347.8" cy="127.9" r="3" stroke="#0d1117" stroke-width="1.5" fill="#d95926"><title>2024-01: heating p50 10h (1390 episodes)</title></circle>
  <circle cx="359.9" cy="122.2" r="3" stroke="#0d1117" stroke-width="1.5" fill="#d95926"><title>2024-02: heating p50 13h (1256 episodes)</title></circle>
  <circle cx="371.9" cy="122.2" r="3" stroke="#0d1117" stroke-width="1.5" fill="#d95926"><title>2024-03: heating p50 13h (768 episodes)</title></circle>
  <circle cx="456.4" cy="111.8" r="3" stroke="#0d1117" stroke-width="1.5" fill="#d95926"><title>2024-10: heating p50 21h (813 episodes)</title></circle>
  <circle cx="468.5" cy="123.9" r="3" stroke="#0d1117" stroke-width="1.5" fill="#d95926"><title>2024-11: heating p50 12h (1912 episodes)</title></circle>
  <circle cx="480.6" cy="123.9" r="3" stroke="#0d1117" stroke-width="1.5" fill="#d95926"><title>2024-12: heating p50 12h (1187 episodes)</title></circle>
  <circle cx="492.6" cy="132.7" r="3" stroke="#0d1117" stroke-width="1.5" fill="#d95926"><title>2025-01: heating p50 8h (1628 episodes)</title></circle>
  <circle cx="504.7" cy="125.8" r="3" stroke="#0d1117" stroke-width="1.5" fill="#d95926"><title>2025-02: heating p50 11h (1134 episodes)</title></circle>
  <circle cx="516.8" cy="120.6" r="3" stroke="#0d1117" stroke-width="1.5" fill="#d95926"><title>2025-03: heating p50 14h (1584 episodes)</title></circle>
  <circle cx="528.9" cy="120.6" r="3" stroke="#0d1117" stroke-width="1.5" fill="#d95926"><title>2025-04: heating p50 14h (835 episodes)</title></circle>
  <circle cx="601.3" cy="123.9" r="3" stroke="#0d1117" stroke-width="1.5" fill="#d95926"><title>2025-10: heating p50 12h (842 episodes)</title></circle>
  <circle cx="613.4" cy="123.9" r="3" stroke="#0d1117" stroke-width="1.5" fill="#d95926"><title>2025-11: heating p50 12h (1111 episodes)</title></circle>
  <circle cx="625.4" cy="130.2" r="3" stroke="#0d1117" stroke-width="1.5" fill="#d95926"><title>2025-12: heating p50 9h (1214 episodes)</title></circle>
  <circle cx="637.5" cy="119.6" r="3" stroke="#0d1117" stroke-width="1.5" fill="#d95926"><title>2026-01: heating p50 15h (1836 episodes)</title></circle>
  <circle cx="649.6" cy="120.6" r="3" stroke="#0d1117" stroke-width="1.5" fill="#d95926"><title>2026-02: heating p50 14h (1413 episodes)</title></circle>
  <circle cx="661.6" cy="123.9" r="3" stroke="#0d1117" stroke-width="1.5" fill="#d95926"><title>2026-03: heating p50 12h (1792 episodes)</title></circle>
  <circle cx="673.7" cy="123.4" r="3" stroke="#0d1117" stroke-width="1.5" fill="#d95926"><title>2026-04: heating p50 12h (305 episodes)</title></circle>
  <text x="681.7" y="85.3" class="label" fill="#f2b491">p99</text>
  <text x="681.7" y="96.3" class="label" fill="#e8875c">p90</text>
  <text x="681.7" y="126.4" class="label" fill="#d95926">p50</text>
  <text x="46" y="192" class="panel">hot water (ACC)</text>
  <line x1="46" y1="315" x2="722" y2="315" stroke="#21262d"/>
  <text x="40" y="318" text-anchor="end" class="axis">6h</text>
  <line x1="46" y1="284.9" x2="722" y2="284.9" stroke="#21262d"/>
  <text x="40" y="287.9" text-anchor="end" class="axis">1d</text>
  <line x1="46" y1="261" x2="722" y2="261" stroke="#21262d"/>
  <text x="40" y="264" text-anchor="end" class="axis">3d</text>
  <line x1="46" y1="242.7" x2="722" y2="242.7" stroke="#21262d"/>
  <text x="40" y="245.7" text-anchor="end" class="axis">1w</text>
  <line x1="46" y1="211.1" x2="722" y2="211.1" stroke="#21262d"/>
  <text x="40" y="214.1" text-anchor="end" class="axis">30d</text>
  <text x="58.1" y="344" text-anchor="middle" class="axis">2022</text>
  <text x="202.9" y="344" text-anchor="middle" class="axis">2023</text>
  <text x="347.8" y="344" text-anchor="middle" class="axis">2024</text>
  <text x="492.6" y="344" text-anchor="middle" class="axis">2025</text>
  <text x="637.5" y="344" text-anchor="middle" class="axis">2026</text>
  <polyline points="46,265 58.1,257.2 70.1,252.7 82.2,256.2 94.3,241.4 106.4,252.2 118.4,231.9 130.5,206 142.6,220.8 154.6,243.3 166.7,246.9 178.8,243.1 190.9,254.1 202.9,257.7 215,258.5 227.1,253.1 239.1,234.6 251.2,241.2 263.3,226.1 275.4,224.7 287.4,210 299.5,239.5 311.6,246.6 323.6,252.4 335.7,252 347.8,265 359.9,256 371.9,253.7 384,240.6 396.1,248.1 408.1,248.9 420.2,238.3 432.3,226.4 444.4,237 456.4,235.8 468.5,245.9 480.6,253.3 492.6,245.9 504.7,266.9 516.8,250.5 528.9,242.4 540.9,228.7 553,232.4 565.1,232.6 577.1,219.8 589.2,232.3 601.3,244.1 613.4,239.5 625.4,256 637.5,232.1 649.6,255.7 661.6,246.8 673.7,233.8 685.8,234.3 697.9,230.4 709.9,221.4 722,262.8" fill="none" stroke-width="1.5" stroke="#a6c8f3"/>
  <circle cx="46" cy="265" r="3" stroke="#0d1117" stroke-width="1.5" fill="#a6c8f3"><title>2021-12: hot water p99 60h (619 episodes)</title></circle>
  <circle cx="58.1" cy="257.2" r="3" stroke="#0d1117" stroke-width="1.5" fill="#a6c8f3"><title>2022-01: hot water p99 86h (1478 episodes)</title></circle>
  <circle cx="70.1" cy="252.7" r="3" stroke="#0d1117" stroke-width="1.5" fill="#a6c8f3"><title>2022-02: hot water p99 106h (1642 episodes)</title></circle>
  <circle cx="82.2" cy="256.2" r="3" stroke="#0d1117" stroke-width="1.5" fill="#a6c8f3"><title>2022-03: hot water p99 90h (1441 episodes)</title></circle>
  <circle cx="94.3" cy="241.4" r="3" stroke="#0d1117" stroke-width="1.5" fill="#a6c8f3"><title>2022-04: hot water p99 178h (1725 episodes)</title></circle>
  <circle cx="106.4" cy="252.2" r="3" stroke="#0d1117" stroke-width="1.5" fill="#a6c8f3"><title>2022-05: hot water p99 108h (1636 episodes)</title></circle>
  <circle cx="118.4" cy="231.9" r="3" stroke="#0d1117" stroke-width="1.5" fill="#a6c8f3"><title>2022-06: hot water p99 276h (1221 episodes)</title></circle>
  <circle cx="130.5" cy="206" r="3" stroke="#0d1117" stroke-width="1.5" fill="#a6c8f3"><title>2022-07: hot water p99 912h (1670 episodes)</title></circle>
  <circle cx="142.6" cy="220.8" r="3" stroke="#0d1117" stroke-width="1.5" fill="#a6c8f3"><title>2022-08: hot water p99 461h (1204 episodes)</title></circle>
  <circle cx="154.6" cy="243.3" r="3" stroke="#0d1117" stroke-width="1.5" fill="#a6c8f3"><title>2022-09: hot water p99 163h (2409 episodes)</title></circle>
  <circle cx="166.7" cy="246.9" r="3" stroke="#0d1117" stroke-width="1.5" fill="#a6c8f3"><title>2022-10: hot water p99 138h (2541 episodes)</title></circle>
  <circle cx="178.8" cy="243.1" r="3" stroke="#0d1117" stroke-width="1.5" fill="#a6c8f3"><title>2022-11: hot water p99 165h (2889 episodes)</title></circle>
  <circle cx="190.9" cy="254.1" r="3" stroke="#0d1117" stroke-width="1.5" fill="#a6c8f3"><title>2022-12: hot water p99 99h (1166 episodes)</title></circle>
  <circle cx="202.9" cy="257.7" r="3" stroke="#0d1117" stroke-width="1.5" fill="#a6c8f3"><title>2023-01: hot water p99 84h (951 episodes)</title></circle>
  <circle cx="215" cy="258.5" r="3" stroke="#0d1117" stroke-width="1.5" fill="#a6c8f3"><title>2023-02: hot water p99 81h (1508 episodes)</title></circle>
  <circle cx="227.1" cy="253.1" r="3" stroke="#0d1117" stroke-width="1.5" fill="#a6c8f3"><title>2023-03: hot water p99 104h (1462 episodes)</title></circle>
  <circle cx="239.1" cy="234.6" r="3" stroke="#0d1117" stroke-width="1.5" fill="#a6c8f3"><title>2023-04: hot water p99 244h (1303 episodes)</title></circle>
  <circle cx="251.2" cy="241.2" r="3" stroke="#0d1117" stroke-width="1.5" fill="#a6c8f3"><title>2023-05: hot water p99 180h (3031 episodes)</title></circle>
  <circle cx="263.3" cy="226.1" r="3" stroke="#0d1117" stroke-width="1.5" fill="#a6c8f3"><title>2023-06: hot water p99 361h (1861 episodes)</title></circle>
  <circle cx="275.4" cy="224.7" r="3" stroke="#0d1117" stroke-width="1.5" fill="#a6c8f3"><title>2023-07: hot water p99 385h (1627 episodes)</title></circle>
  <circle cx="287.4" cy="210" r="3" stroke="#0d1117" stroke-width="1.5" fill="#a6c8f3"><title>2023-08: hot water p99 757h (1256 episodes)</title></circle>
  <circle cx="299.5" cy="239.5" r="3" stroke="#0d1117" stroke-width="1.5" fill="#a6c8f3"><title>2023-09: hot water p99 194h (1664 episodes)</title></circle>
  <circle cx="311.6" cy="246.6" r="3" stroke="#0d1117" stroke-width="1.5" fill="#a6c8f3"><title>2023-10: hot water p99 140h (1822 episodes)</title></circle>
  <circle cx="323.6" cy="252.4" r="3" stroke="#0d1117" stroke-width="1.5" fill="#a6c8f3"><title>2023-11: hot water p99 107h (2224 episodes)</title></circle>
  <circle cx="335.7" cy="252" r="3" stroke="#0d1117" stroke-width="1.5" fill="#a6c8f3"><title>2023-12: hot water p99 109h (2006 episodes)</title></circle>
  <circle cx="347.8" cy="265" r="3" stroke="#0d1117" stroke-width="1.5" fill="#a6c8f3"><title>2024-01: hot water p99 60h (1174 episodes)</title></circle>
  <circle cx="359.9" cy="256" r="3" stroke="#0d1117" stroke-width="1.5" fill="#a6c8f3"><title>2024-02: hot water p99 91h (1471 episodes)</title></circle>
  <circle cx="371.9" cy="253.7" r="3" stroke="#0d1117" stroke-width="1.5" fill="#a6c8f3"><title>2024-03: hot water p99 101h (1047 episodes)</title></circle>
  <circle cx="384" cy="240.6" r="3" stroke="#0d1117" stroke-width="1.5" fill="#a6c8f3"><title>2024-04: hot water p99 185h (2547 episodes)</title></circle>
  <circle cx="396.1" cy="248.1" r="3" stroke="#0d1117" stroke-width="1.5" fill="#a6c8f3"><title>2024-05: hot water p99 131h (2329 episodes)</title></circle>
  <circle cx="408.1" cy="248.9" r="3" stroke="#0d1117" stroke-width="1.5" fill="#a6c8f3"><title>2024-06: hot water p99 126h (1299 episodes)</title></circle>
  <circle cx="420.2" cy="238.3" r="3" stroke="#0d1117" stroke-width="1.5" fill="#a6c8f3"><title>2024-07: hot water p99 205h (1439 episodes)</title></circle>
  <circle cx="432.3" cy="226.4" r="3" stroke="#0d1117" stroke-width="1.5" fill="#a6c8f3"><title>2024-08: hot water p99 356h (2456 episodes)</title></circle>
  <circle cx="444.4" cy="237" r="3" stroke="#0d1117" stroke-width="1.5" fill="#a6c8f3"><title>2024-09: hot water p99 218h (1813 episodes)</title></circle>
  <circle cx="456.4" cy="235.8" r="3" stroke="#0d1117" stroke-width="1.5" fill="#a6c8f3"><title>2024-10: hot water p99 231h (2143 episodes)</title></circle>
  <circle cx="468.5" cy="245.9" r="3" stroke="#0d1117" stroke-width="1.5" fill="#a6c8f3"><title>2024-11: hot water p99 145h (1742 episodes)</title></circle>
  <circle cx="480.6" cy="253.3" r="3" stroke="#0d1117" stroke-width="1.5" fill="#a6c8f3"><title>2024-12: hot water p99 103h (1160 episodes)</title></circle>
  <circle cx="492.6" cy="245.9" r="3" stroke="#0d1117" stroke-width="1.5" fill="#a6c8f3"><title>2025-01: hot water p99 145h (1413 episodes)</title></circle>
  <circle cx="504.7" cy="266.9" r="3" stroke="#0d1117" stroke-width="1.5" fill="#a6c8f3"><title>2025-02: hot water p99 55h (1164 episodes)</title></circle>
  <circle cx="516.8" cy="250.5" r="3" stroke="#0d1117" stroke-width="1.5" fill="#a6c8f3"><title>2025-03: hot water p99 117h (1660 episodes)</title></circle>
  <circle cx="528.9" cy="242.4" r="3" stroke="#0d1117" stroke-width="1.5" fill="#a6c8f3"><title>2025-04: hot water p99 170h (1407 episodes)</title></circle>
  <circle cx="540.9" cy="228.7" r="3" stroke="#0d1117" stroke-width="1.5" fill="#a6c8f3"><title>2025-05: hot water p99 319h (1759 episodes)</title></circle>
  <circle cx="553" cy="232.4" r="3" stroke="#0d1117" stroke-width="1.5" fill="#a6c8f3"><title>2025-06: hot water p99 270h (1704 episodes)</title></circle>
  <circle cx="565.1" cy="232.6" r="3" stroke="#0d1117" stroke-width="1.5" fill="#a6c8f3"><title>2025-07: hot water p99 267h (1214 episodes)</title></circle>
  <circle cx="577.1" cy="219.8" r="3" stroke="#0d1117" stroke-width="1.5" fill="#a6c8f3"><title>2025-08: hot water p99 481h (1551 episodes)</title></circle>
  <circle cx="589.2" cy="232.3" r="3" stroke="#0d1117" stroke-width="1.5" fill="#a6c8f3"><title>2025-09: hot water p99 271h (1896 episodes)</title></circle>
  <circle cx="601.3" cy="244.1" r="3" stroke="#0d1117" stroke-width="1.5" fill="#a6c8f3"><title>2025-10: hot water p99 157h (2271 episodes)</title></circle>
  <circle cx="613.4" cy="239.5" r="3" stroke="#0d1117" stroke-width="1.5" fill="#a6c8f3"><title>2025-11: hot water p99 194h (1135 episodes)</title></circle>
  <circle cx="625.4" cy="256" r="3" stroke="#0d1117" stroke-width="1.5" fill="#a6c8f3"><title>2025-12: hot water p99 91h (950 episodes)</title></circle>
  <circle cx="637.5" cy="232.1" r="3" stroke="#0d1117" stroke-width="1.5" fill="#a6c8f3"><title>2026-01: hot water p99 273h (1617 episodes)</title></circle>
  <circle cx="649.6" cy="255.7" r="3" stroke="#0d1117" stroke-width="1.5" fill="#a6c8f3"><title>2026-02: hot water p99 92h (1246 episodes)</title></circle>
  <circle cx="661.6" cy="246.8" r="3" stroke="#0d1117" stroke-width="1.5" fill="#a6c8f3"><title>2026-03: hot water p99 139h (1693 episodes)</title></circle>
  <circle cx="673.7" cy="233.8" r="3" fill="#0d1117" stroke-width="2" stroke="#a6c8f3"><title>2026-04: hot water p99 253h (1936 episodes, provisional)</title></circle>
  <circle cx="685.8" cy="234.3" r="3" stroke="#0d1117" stroke-width="1.5" fill="#a6c8f3"><title>2026-05: hot water p99 247h (2592 episodes)</title></circle>
  <circle cx="697.9" cy="230.4" r="3" stroke="#0d1117" stroke-width="1.5" fill="#a6c8f3"><title>2026-06: hot water p99 296h (1306 episodes)</title></circle>
  <circle cx="709.9" cy="221.4" r="3" fill="#0d1117" stroke-width="2" stroke="#a6c8f3"><title>2026-07: hot water p99 447h (1277 episodes, provisional)</title></circle>
  <circle cx="722" cy="262.8" r="3" fill="#0d1117" stroke-width="2" stroke="#a6c8f3"><title>2026-08: hot water p99 66h (157 episodes, provisional)</title></circle>
  <polyline points="46,279.3 58.1,279.3 70.1,264.3 82.2,272.2 94.3,265 106.4,268.1 118.4,251.8 130.5,237.7 142.6,261 154.6,271.7 166.7,260.2 178.8,275.5 190.9,276.1 202.9,273.8 215,274.9 227.1,269 239.1,262.6 251.2,250.3 263.3,266.5 275.4,257.4 287.4,219.1 299.5,261 311.6,269.8 323.6,271.2 335.7,267.3 347.8,273.3 359.9,265 371.9,266.9 384,265 396.1,259.3 408.1,262.6 420.2,252 432.3,248.2 444.4,262.9 456.4,262 468.5,263.9 480.6,267.7 492.6,254.6 504.7,275.5 516.8,265.4 528.9,265.4 540.9,257.4 553,252.4 565.1,250.3 577.1,229.3 589.2,252.7 601.3,267.7 613.4,257.7 625.4,271.7 637.5,234.6 649.6,262.2 661.6,261.4 673.7,260.1 685.8,257.2 697.9,241.4 709.9,230.2 722,272.3" fill="none" stroke-width="1.5" stroke="#6fa6ec"/>
  <circle cx="46" cy="279.3" r="3" stroke="#0d1117" stroke-width="1.5" fill="#6fa6ec"><title>2021-12: hot water p90 31h (619 episodes)</title></circle>
  <circle cx="58.1" cy="279.3" r="3" stroke="#0d1117" stroke-width="1.5" fill="#6fa6ec"><title>2022-01: hot water p90 31h (1478 episodes)</title></circle>
  <circle cx="70.1" cy="264.3" r="3" stroke="#0d1117" stroke-width="1.5" fill="#6fa6ec"><title>2022-02: hot water p90 62h (1642 episodes)</title></circle>
  <circle cx="82.2" cy="272.2" r="3" stroke="#0d1117" stroke-width="1.5" fill="#6fa6ec"><title>2022-03: hot water p90 43h (1441 episodes)</title></circle>
  <circle cx="94.3" cy="265" r="3" stroke="#0d1117" stroke-width="1.5" fill="#6fa6ec"><title>2022-04: hot water p90 60h (1725 episodes)</title></circle>
  <circle cx="106.4" cy="268.1" r="3" stroke="#0d1117" stroke-width="1.5" fill="#6fa6ec"><title>2022-05: hot water p90 52h (1636 episodes)</title></circle>
  <circle cx="118.4" cy="251.8" r="3" stroke="#0d1117" stroke-width="1.5" fill="#6fa6ec"><title>2022-06: hot water p90 110h (1221 episodes)</title></circle>
  <circle cx="130.5" cy="237.7" r="3" stroke="#0d1117" stroke-width="1.5" fill="#6fa6ec"><title>2022-07: hot water p90 211h (1670 episodes)</title></circle>
  <circle cx="142.6" cy="261" r="3" stroke="#0d1117" stroke-width="1.5" fill="#6fa6ec"><title>2022-08: hot water p90 72h (1204 episodes)</title></circle>
  <circle cx="154.6" cy="271.7" r="3" stroke="#0d1117" stroke-width="1.5" fill="#6fa6ec"><title>2022-09: hot water p90 44h (2409 episodes)</title></circle>
  <circle cx="166.7" cy="260.2" r="3" stroke="#0d1117" stroke-width="1.5" fill="#6fa6ec"><title>2022-10: hot water p90 75h (2541 episodes)</title></circle>
  <circle cx="178.8" cy="275.5" r="3" stroke="#0d1117" stroke-width="1.5" fill="#6fa6ec"><title>2022-11: hot water p90 37h (2889 episodes)</title></circle>
  <circle cx="190.9" cy="276.1" r="3" stroke="#0d1117" stroke-width="1.5" fill="#6fa6ec"><title>2022-12: hot water p90 36h (1166 episodes)</title></circle>
  <circle cx="202.9" cy="273.8" r="3" stroke="#0d1117" stroke-width="1.5" fill="#6fa6ec"><title>2023-01: hot water p90 40h (951 episodes)</title></circle>
  <circle cx="215" cy="274.9" r="3" stroke="#0d1117" stroke-width="1.5" fill="#6fa6ec"><title>2023-02: hot water p90 38h (1508 episodes)</title></circle>
  <circle cx="227.1" cy="269" r="3" stroke="#0d1117" stroke-width="1.5" fill="#6fa6ec"><title>2023-03: hot water p90 50h (1462 episodes)</title></circle>
  <circle cx="239.1" cy="262.6" r="3" stroke="#0d1117" stroke-width="1.5" fill="#6fa6ec"><title>2023-04: hot water p90 67h (1303 episodes)</title></circle>
  <circle cx="251.2" cy="250.3" r="3" stroke="#0d1117" stroke-width="1.5" fill="#6fa6ec"><title>2023-05: hot water p90 118h (3031 episodes)</title></circle>
  <circle cx="263.3" cy="266.5" r="3" stroke="#0d1117" stroke-width="1.5" fill="#6fa6ec"><title>2023-06: hot water p90 56h (1861 episodes)</title></circle>
  <circle cx="275.4" cy="257.4" r="3" stroke="#0d1117" stroke-width="1.5" fill="#6fa6ec"><title>2023-07: hot water p90 85h (1627 episodes)</title></circle>
  <circle cx="287.4" cy="219.1" r="3" stroke="#0d1117" stroke-width="1.5" fill="#6fa6ec"><title>2023-08: hot water p90 497h (1256 episodes)</title></circle>
  <circle cx="299.5" cy="261" r="3" stroke="#0d1117" stroke-width="1.5" fill="#6fa6ec"><title>2023-09: hot water p90 72h (1664 episodes)</title></circle>
  <circle cx="311.6" cy="269.8" r="3" stroke="#0d1117" stroke-width="1.5" fill="#6fa6ec"><title>2023-10: hot water p90 48h (1822 episodes)</title></circle>
  <circle cx="323.6" cy="271.2" r="3" stroke="#0d1117" stroke-width="1.5" fill="#6fa6ec"><title>2023-11: hot water p90 45h (2224 episodes)</title></circle>
  <circle cx="335.7" cy="267.3" r="3" stroke="#0d1117" stroke-width="1.5" fill="#6fa6ec"><title>2023-12: hot water p90 54h (2006 episodes)</title></circle>
  <circle cx="347.8" cy="273.3" r="3" stroke="#0d1117" stroke-width="1.5" fill="#6fa6ec"><title>2024-01: hot water p90 41h (1174 episodes)</title></circle>
  <circle cx="359.9" cy="265" r="3" stroke="#0d1117" stroke-width="1.5" fill="#6fa6ec"><title>2024-02: hot water p90 60h (1471 episodes)</title></circle>
  <circle cx="371.9" cy="266.9" r="3" stroke="#0d1117" stroke-width="1.5" fill="#6fa6ec"><title>2024-03: hot water p90 55h (1047 episodes)</title></circle>
  <circle cx="384" cy="265" r="3" stroke="#0d1117" stroke-width="1.5" fill="#6fa6ec"><title>2024-04: hot water p90 60h (2547 episodes)</title></circle>
  <circle cx="396.1" cy="259.3" r="3" stroke="#0d1117" stroke-width="1.5" fill="#6fa6ec"><title>2024-05: hot water p90 78h (2329 episodes)</title></circle>
  <circle cx="408.1" cy="262.6" r="3" stroke="#0d1117" stroke-width="1.5" fill="#6fa6ec"><title>2024-06: hot water p90 67h (1299 episodes)</title></circle>
  <circle cx="420.2" cy="252" r="3" stroke="#0d1117" stroke-width="1.5" fill="#6fa6ec"><title>2024-07: hot water p90 109h (1439 episodes)</title></circle>
  <circle cx="432.3" cy="248.2" r="3" stroke="#0d1117" stroke-width="1.5" fill="#6fa6ec"><title>2024-08: hot water p90 130h (2456 episodes)</title></circle>
  <circle cx="444.4" cy="262.9" r="3" stroke="#0d1117" stroke-width="1.5" fill="#6fa6ec"><title>2024-09: hot water p90 66h (1813 episodes)</title></circle>
  <circle cx="456.4" cy="262" r="3" stroke="#0d1117" stroke-width="1.5" fill="#6fa6ec"><title>2024-10: hot water p90 69h (2143 episodes)</title></circle>
  <circle cx="468.5" cy="263.9" r="3" stroke="#0d1117" stroke-width="1.5" fill="#6fa6ec"><title>2024-11: hot water p90 63h (1742 episodes)</title></circle>
  <circle cx="480.6" cy="267.7" r="3" stroke="#0d1117" stroke-width="1.5" fill="#6fa6ec"><title>2024-12: hot water p90 53h (1160 episodes)</title></circle>
  <circle cx="492.6" cy="254.6" r="3" stroke="#0d1117" stroke-width="1.5" fill="#6fa6ec"><title>2025-01: hot water p90 97h (1413 episodes)</title></circle>
  <circle cx="504.7" cy="275.5" r="3" stroke="#0d1117" stroke-width="1.5" fill="#6fa6ec"><title>2025-02: hot water p90 37h (1164 episodes)</title></circle>
  <circle cx="516.8" cy="265.4" r="3" stroke="#0d1117" stroke-width="1.5" fill="#6fa6ec"><title>2025-03: hot water p90 59h (1660 episodes)</title></circle>
  <circle cx="528.9" cy="265.4" r="3" stroke="#0d1117" stroke-width="1.5" fill="#6fa6ec"><title>2025-04: hot water p90 59h (1407 episodes)</title></circle>
  <circle cx="540.9" cy="257.4" r="3" stroke="#0d1117" stroke-width="1.5" fill="#6fa6ec"><title>2025-05: hot water p90 85h (1759 episodes)</title></circle>
  <circle cx="553" cy="252.4" r="3" stroke="#0d1117" stroke-width="1.5" fill="#6fa6ec"><title>2025-06: hot water p90 107h (1704 episodes)</title></circle>
  <circle cx="565.1" cy="250.3" r="3" stroke="#0d1117" stroke-width="1.5" fill="#6fa6ec"><title>2025-07: hot water p90 118h (1214 episodes)</title></circle>
  <circle cx="577.1" cy="229.3" r="3" stroke="#0d1117" stroke-width="1.5" fill="#6fa6ec"><title>2025-08: hot water p90 311h (1551 episodes)</title></circle>
  <circle cx="589.2" cy="252.7" r="3" stroke="#0d1117" stroke-width="1.5" fill="#6fa6ec"><title>2025-09: hot water p90 106h (1896 episodes)</title></circle>
  <circle cx="601.3" cy="267.7" r="3" stroke="#0d1117" stroke-width="1.5" fill="#6fa6ec"><title>2025-10: hot water p90 53h (2271 episodes)</title></circle>
  <circle cx="613.4" cy="257.7" r="3" stroke="#0d1117" stroke-width="1.5" fill="#6fa6ec"><title>2025-11: hot water p90 84h (1135 episodes)</title></circle>
  <circle cx="625.4" cy="271.7" r="3" stroke="#0d1117" stroke-width="1.5" fill="#6fa6ec"><title>2025-12: hot water p90 44h (950 episodes)</title></circle>
  <circle cx="637.5" cy="234.6" r="3" stroke="#0d1117" stroke-width="1.5" fill="#6fa6ec"><title>2026-01: hot water p90 244h (1617 episodes)</title></circle>
  <circle cx="649.6" cy="262.2" r="3" stroke="#0d1117" stroke-width="1.5" fill="#6fa6ec"><title>2026-02: hot water p90 68h (1246 episodes)</title></circle>
  <circle cx="661.6" cy="261.4" r="3" stroke="#0d1117" stroke-width="1.5" fill="#6fa6ec"><title>2026-03: hot water p90 71h (1693 episodes)</title></circle>
  <circle cx="673.7" cy="260.1" r="3" fill="#0d1117" stroke-width="2" stroke="#6fa6ec"><title>2026-04: hot water p90 75h (1936 episodes, provisional)</title></circle>
  <circle cx="685.8" cy="257.2" r="3" stroke="#0d1117" stroke-width="1.5" fill="#6fa6ec"><title>2026-05: hot water p90 86h (2592 episodes)</title></circle>
  <circle cx="697.9" cy="241.4" r="3" stroke="#0d1117" stroke-width="1.5" fill="#6fa6ec"><title>2026-06: hot water p90 178h (1306 episodes)</title></circle>
  <circle cx="709.9" cy="230.2" r="3" fill="#0d1117" stroke-width="2" stroke="#6fa6ec"><title>2026-07: hot water p90 299h (1277 episodes, provisional)</title></circle>
  <circle cx="722" cy="272.3" r="3" fill="#0d1117" stroke-width="2" stroke="#6fa6ec"><title>2026-08: hot water p90 43h (157 episodes, provisional)</title></circle>
  <polyline points="46,308.7 58.1,308.7 70.1,301.8 82.2,315 94.3,311.6 106.4,323.8 118.4,306.2 130.5,278 142.6,303.9 154.6,323.8 166.7,315 178.8,315 190.9,315 202.9,315 215,315 227.1,315 239.1,315 251.2,308.7 263.3,315 275.4,303.9 287.4,278.6 299.5,315 311.6,318.9 323.6,308.7 335.7,301.8 347.8,315 359.9,308.7 371.9,311.6 384,311.6 396.1,318.9 408.1,306.2 420.2,298.2 432.3,298.2 444.4,318.9 456.4,308.7 468.5,306.2 480.6,308.7 492.6,308.7 504.7,308.7 516.8,306.2 528.9,311.6 540.9,318.9 553,298.2 565.1,301.8 577.1,283.1 589.2,308.7 601.3,311.6 613.4,308.7 625.4,315 637.5,298.8 649.6,301.5 661.6,306.5 673.7,301.1 685.8,320.2 697.9,304.6 709.9,289.2 722,315.9" fill="none" stroke-width="2" stroke="#3987e5"/>
  <circle cx="46" cy="308.7" r="3" stroke="#0d1117" stroke-width="1.5" fill="#3987e5"><title>2021-12: hot water p50 8h (619 episodes)</title></circle>
  <circle cx="58.1" cy="308.7" r="3" stroke="#0d1117" stroke-width="1.5" fill="#3987e5"><title>2022-01: hot water p50 8h (1478 episodes)</title></circle>
  <circle cx="70.1" cy="301.8" r="3" stroke="#0d1117" stroke-width="1.5" fill="#3987e5"><title>2022-02: hot water p50 11h (1642 episodes)</title></circle>
  <circle cx="82.2" cy="315" r="3" stroke="#0d1117" stroke-width="1.5" fill="#3987e5"><title>2022-03: hot water p50 6h (1441 episodes)</title></circle>
  <circle cx="94.3" cy="311.6" r="3" stroke="#0d1117" stroke-width="1.5" fill="#3987e5"><title>2022-04: hot water p50 7h (1725 episodes)</title></circle>
  <circle cx="106.4" cy="323.8" r="3" stroke="#0d1117" stroke-width="1.5" fill="#3987e5"><title>2022-05: hot water p50 4h (1636 episodes)</title></circle>
  <circle cx="118.4" cy="306.2" r="3" stroke="#0d1117" stroke-width="1.5" fill="#3987e5"><title>2022-06: hot water p50 9h (1221 episodes)</title></circle>
  <circle cx="130.5" cy="278" r="3" stroke="#0d1117" stroke-width="1.5" fill="#3987e5"><title>2022-07: hot water p50 33h (1670 episodes)</title></circle>
  <circle cx="142.6" cy="303.9" r="3" stroke="#0d1117" stroke-width="1.5" fill="#3987e5"><title>2022-08: hot water p50 10h (1204 episodes)</title></circle>
  <circle cx="154.6" cy="323.8" r="3" stroke="#0d1117" stroke-width="1.5" fill="#3987e5"><title>2022-09: hot water p50 4h (2409 episodes)</title></circle>
  <circle cx="166.7" cy="315" r="3" stroke="#0d1117" stroke-width="1.5" fill="#3987e5"><title>2022-10: hot water p50 6h (2541 episodes)</title></circle>
  <circle cx="178.8" cy="315" r="3" stroke="#0d1117" stroke-width="1.5" fill="#3987e5"><title>2022-11: hot water p50 6h (2889 episodes)</title></circle>
  <circle cx="190.9" cy="315" r="3" stroke="#0d1117" stroke-width="1.5" fill="#3987e5"><title>2022-12: hot water p50 6h (1166 episodes)</title></circle>
  <circle cx="202.9" cy="315" r="3" stroke="#0d1117" stroke-width="1.5" fill="#3987e5"><title>2023-01: hot water p50 6h (951 episodes)</title></circle>
  <circle cx="215" cy="315" r="3" stroke="#0d1117" stroke-width="1.5" fill="#3987e5"><title>2023-02: hot water p50 6h (1508 episodes)</title></circle>
  <circle cx="227.1" cy="315" r="3" stroke="#0d1117" stroke-width="1.5" fill="#3987e5"><title>2023-03: hot water p50 6h (1462 episodes)</title></circle>
  <circle cx="239.1" cy="315" r="3" stroke="#0d1117" stroke-width="1.5" fill="#3987e5"><title>2023-04: hot water p50 6h (1303 episodes)</title></circle>
  <circle cx="251.2" cy="308.7" r="3" stroke="#0d1117" stroke-width="1.5" fill="#3987e5"><title>2023-05: hot water p50 8h (3031 episodes)</title></circle>
  <circle cx="263.3" cy="315" r="3" stroke="#0d1117" stroke-width="1.5" fill="#3987e5"><title>2023-06: hot water p50 6h (1861 episodes)</title></circle>
  <circle cx="275.4" cy="303.9" r="3" stroke="#0d1117" stroke-width="1.5" fill="#3987e5"><title>2023-07: hot water p50 10h (1627 episodes)</title></circle>
  <circle cx="287.4" cy="278.6" r="3" stroke="#0d1117" stroke-width="1.5" fill="#3987e5"><title>2023-08: hot water p50 32h (1256 episodes)</title></circle>
  <circle cx="299.5" cy="315" r="3" stroke="#0d1117" stroke-width="1.5" fill="#3987e5"><title>2023-09: hot water p50 6h (1664 episodes)</title></circle>
  <circle cx="311.6" cy="318.9" r="3" stroke="#0d1117" stroke-width="1.5" fill="#3987e5"><title>2023-10: hot water p50 5h (1822 episodes)</title></circle>
  <circle cx="323.6" cy="308.7" r="3" stroke="#0d1117" stroke-width="1.5" fill="#3987e5"><title>2023-11: hot water p50 8h (2224 episodes)</title></circle>
  <circle cx="335.7" cy="301.8" r="3" stroke="#0d1117" stroke-width="1.5" fill="#3987e5"><title>2023-12: hot water p50 11h (2006 episodes)</title></circle>
  <circle cx="347.8" cy="315" r="3" stroke="#0d1117" stroke-width="1.5" fill="#3987e5"><title>2024-01: hot water p50 6h (1174 episodes)</title></circle>
  <circle cx="359.9" cy="308.7" r="3" stroke="#0d1117" stroke-width="1.5" fill="#3987e5"><title>2024-02: hot water p50 8h (1471 episodes)</title></circle>
  <circle cx="371.9" cy="311.6" r="3" stroke="#0d1117" stroke-width="1.5" fill="#3987e5"><title>2024-03: hot water p50 7h (1047 episodes)</title></circle>
  <circle cx="384" cy="311.6" r="3" stroke="#0d1117" stroke-width="1.5" fill="#3987e5"><title>2024-04: hot water p50 7h (2547 episodes)</title></circle>
  <circle cx="396.1" cy="318.9" r="3" stroke="#0d1117" stroke-width="1.5" fill="#3987e5"><title>2024-05: hot water p50 5h (2329 episodes)</title></circle>
  <circle cx="408.1" cy="306.2" r="3" stroke="#0d1117" stroke-width="1.5" fill="#3987e5"><title>2024-06: hot water p50 9h (1299 episodes)</title></circle>
  <circle cx="420.2" cy="298.2" r="3" stroke="#0d1117" stroke-width="1.5" fill="#3987e5"><title>2024-07: hot water p50 13h (1439 episodes)</title></circle>
  <circle cx="432.3" cy="298.2" r="3" stroke="#0d1117" stroke-width="1.5" fill="#3987e5"><title>2024-08: hot water p50 13h (2456 episodes)</title></circle>
  <circle cx="444.4" cy="318.9" r="3" stroke="#0d1117" stroke-width="1.5" fill="#3987e5"><title>2024-09: hot water p50 5h (1813 episodes)</title></circle>
  <circle cx="456.4" cy="308.7" r="3" stroke="#0d1117" stroke-width="1.5" fill="#3987e5"><title>2024-10: hot water p50 8h (2143 episodes)</title></circle>
  <circle cx="468.5" cy="306.2" r="3" stroke="#0d1117" stroke-width="1.5" fill="#3987e5"><title>2024-11: hot water p50 9h (1742 episodes)</title></circle>
  <circle cx="480.6" cy="308.7" r="3" stroke="#0d1117" stroke-width="1.5" fill="#3987e5"><title>2024-12: hot water p50 8h (1160 episodes)</title></circle>
  <circle cx="492.6" cy="308.7" r="3" stroke="#0d1117" stroke-width="1.5" fill="#3987e5"><title>2025-01: hot water p50 8h (1413 episodes)</title></circle>
  <circle cx="504.7" cy="308.7" r="3" stroke="#0d1117" stroke-width="1.5" fill="#3987e5"><title>2025-02: hot water p50 8h (1164 episodes)</title></circle>
  <circle cx="516.8" cy="306.2" r="3" stroke="#0d1117" stroke-width="1.5" fill="#3987e5"><title>2025-03: hot water p50 9h (1660 episodes)</title></circle>
  <circle cx="528.9" cy="311.6" r="3" stroke="#0d1117" stroke-width="1.5" fill="#3987e5"><title>2025-04: hot water p50 7h (1407 episodes)</title></circle>
  <circle cx="540.9" cy="318.9" r="3" stroke="#0d1117" stroke-width="1.5" fill="#3987e5"><title>2025-05: hot water p50 5h (1759 episodes)</title></circle>
  <circle cx="553" cy="298.2" r="3" stroke="#0d1117" stroke-width="1.5" fill="#3987e5"><title>2025-06: hot water p50 13h (1704 episodes)</title></circle>
  <circle cx="565.1" cy="301.8" r="3" stroke="#0d1117" stroke-width="1.5" fill="#3987e5"><title>2025-07: hot water p50 11h (1214 episodes)</title></circle>
  <circle cx="577.1" cy="283.1" r="3" stroke="#0d1117" stroke-width="1.5" fill="#3987e5"><title>2025-08: hot water p50 26h (1551 episodes)</title></circle>
  <circle cx="589.2" cy="308.7" r="3" stroke="#0d1117" stroke-width="1.5" fill="#3987e5"><title>2025-09: hot water p50 8h (1896 episodes)</title></circle>
  <circle cx="601.3" cy="311.6" r="3" stroke="#0d1117" stroke-width="1.5" fill="#3987e5"><title>2025-10: hot water p50 7h (2271 episodes)</title></circle>
  <circle cx="613.4" cy="308.7" r="3" stroke="#0d1117" stroke-width="1.5" fill="#3987e5"><title>2025-11: hot water p50 8h (1135 episodes)</title></circle>
  <circle cx="625.4" cy="315" r="3" stroke="#0d1117" stroke-width="1.5" fill="#3987e5"><title>2025-12: hot water p50 6h (950 episodes)</title></circle>
  <circle cx="637.5" cy="298.8" r="3" stroke="#0d1117" stroke-width="1.5" fill="#3987e5"><title>2026-01: hot water p50 13h (1617 episodes)</title></circle>
  <circle cx="649.6" cy="301.5" r="3" stroke="#0d1117" stroke-width="1.5" fill="#3987e5"><title>2026-02: hot water p50 11h (1246 episodes)</title></circle>
  <circle cx="661.6" cy="306.5" r="3" stroke="#0d1117" stroke-width="1.5" fill="#3987e5"><title>2026-03: hot water p50 9h (1693 episodes)</title></circle>
  <circle cx="673.7" cy="301.1" r="3" fill="#0d1117" stroke-width="2" stroke="#3987e5"><title>2026-04: hot water p50 11h (1936 episodes, provisional)</title></circle>
  <circle cx="685.8" cy="320.2" r="3" stroke="#0d1117" stroke-width="1.5" fill="#3987e5"><title>2026-05: hot water p50 5h (2592 episodes)</title></circle>
  <circle cx="697.9" cy="304.6" r="3" stroke="#0d1117" stroke-width="1.5" fill="#3987e5"><title>2026-06: hot water p50 10h (1306 episodes)</title></circle>
  <circle cx="709.9" cy="289.2" r="3" fill="#0d1117" stroke-width="2" stroke="#3987e5"><title>2026-07: hot water p50 20h (1277 episodes, provisional)</title></circle>
  <circle cx="722" cy="315.9" r="3" fill="#0d1117" stroke-width="2" stroke="#3987e5"><title>2026-08: hot water p50 6h (157 episodes, provisional)</title></circle>
  <text x="730" y="265.8" class="label" fill="#a6c8f3">p99</text>
  <text x="730" y="276.8" class="label" fill="#6fa6ec">p90</text>
  <text x="730" y="318.9" class="label" fill="#3987e5">p50</text>
  <circle cx="652" cy="13" r="3" fill="#0d1117" stroke-width="2" stroke="#8b949e"/>
  <text x="661" y="16" class="axis">provisional</text>
  <text x="46" y="384" class="title">How long outages last: median, p90 and p99 by month begun</text>
</svg>