<svg width="782" height="148" xmlns="http://www.w3.org/2000/svg">
  <style>
    .month { font: 10px sans-serif; fill: #8b949e; }
    .day { font: 10px sans-serif; fill: #8b949e; }
    .title { font: bold 14px sans-serif; fill: #c9d1d9; }
    .legend { font: 10px sans-serif; fill: #8b949e; }
  </style>
  <rect width="100%" height="100%" fill="#0d1117"/>
  <text x="0" y="29" class="day">Mon</text>
  <text x="0" y="57" class="day">Wed</text>
  <text x="0" y="85" class="day">Fri</text>
  <text x="0" y="113" class="day">Sun</text>
  <text x="30" y="15" class="month">Jan</text>
  <text x="100" y="15" class="month">Feb</text>
  <text x="156" y="15" class="month">Mar</text>
  <text x="212" y="15" class="month">Apr</text>
  <text x="282" y="15" class="month">May</text>
  <text x="338" y="15" class="month">Jun</text>
  <text x="394" y="15" class="month">Jul</text>
  <text x="464" y="15" class="month">Aug</text>
  <text x="520" y="15" class="month">Sep</text>
  <text x="576" y="15" class="month">Oct</text>
  <text x="646" y="15" class="month">Nov</text>
  <text x="702" y="15" class="month">Dec</text>
  <rect x="30" y="48" width="11" height="11" fill="#feedd3" rx="2"><title>2025-01-01: 15 active episodes</title></rect>
  <rect x="30" y="62" width="11" height="11" fill="#feeed5" rx="2"><title>2025-01-02: 9 active episodes</title></rect>
  <rect x="30" y="76" width="11" height="11" fill="#ffebce" rx="2"><title>2025-01-03: 26 active episodes</title></rect>
  <rect x="30" y="90" width="11" height="11" fill="#fef0d8" rx="2"><title>2025-01-04: 3 active episodes</title></rect>
  <rect x="30" y="104" width="11" height="11" fill="#fef0d8" rx="2"><title>2025-01-05: 3 active episodes</title></rect>
  <rect x="44" y="20" width="11" height="11" fill="#fef0d9" rx="2"><title>2025-01-06: 1 active episode</title></rect>
  <rect x="44" y="34" width="11" height="11" fill="#484f58" rx="2"><title>2025-01-07: no data</title></rect>
  <rect x="44" y="48" width="11" height="11" fill="#ffe8c9" rx="2"><title>2025-01-08: 37 active episodes</title></rect>
  <rect x="44" y="62" width="11" height="11" fill="#ffe3be" rx="2"><title>2025-01-09: 61 active episodes</title></rect>
  <rect x="44" y="76" width="11" height="11" fill="#ffe6c3" rx="2"><title>2025-01-10: 49 active episodes</title></rect>
  <rect x="44" y="90" width="11" height="11" fill="#feecd1" rx="2"><title>2025-01-11: 19 active episodes</title></rect>
  <rect x="44" y="104" width="11" height="11" fill="#fef0d9" rx="2"><title>2025-01-12: 2 active episodes</title></rect>
  <rect x="58" y="20" width="11" height="11" fill="#ffe4be" rx="2"><title>2025-01-13: 60 active episodes</title></rect>
  <rect x="58" y="34" width="11" height="11" fill="#ffe3bd" rx="2"><title>2025-01-14: 62 active episodes</title></rect>
  <rect x="58" y="48" width="11" height="11" fill="#ffdfb4" rx="2"><title>2025-01-15: 82 active episodes</title></rect>
  <rect x="58" y="62" width="11" height="11" fill="#fed7a2" rx="2"><title>2025-01-16: 122 active episodes</title></rect>
  <rect x="58" y="76" width="11" height="11" fill="#ffe4be" rx="2"><title>2025-01-17: 60 active episodes</title></rect>
  <rect x="58" y="90" width="11" height="11" fill="#feedd3" rx="2"><title>2025-01-18: 15 active episodes</title></rect>
  <rect x="58" y="104" width="11" height="11" fill="#ffd8a6" rx="2"><title>2025-01-19: 114 active episodes</title></rect>
  <rect x="72" y="20" width="11" height="11" fill="#feb779" rx="2"><title>2025-01-20: 234 active episodes</title></rect>
  <rect x="72" y="34" width="11" height="11" fill="#feac70" rx="2"><title>2025-01-21: 266 active episodes</title></rect>
  <rect x="72" y="48" width="11" height="11" fill="#fead71" rx="2"><title>2025-01-22: 263 active episodes</title></rect>
  <rect x="72" y="62" width="11" height="11" fill="#feba7b" rx="2"><title>2025-01-23: 226 active episodes</title></rect>
  <rect x="72" y="76" width="11" height="11" fill="#ffd9a6" rx="2"><title>2025-01-24: 112 active episodes</title></rect>
  <rect x="72" y="90" width="11" height="11" fill="#ffdeb2" rx="2"><title>2025-01-25: 87 active episodes</title></rect>
  <rect x="72" y="104" width="11" height="11" fill="#ffebcf" rx="2"><title>2025-01-26: 23 active episodes</title></rect>
  <rect x="86" y="20" width="11" height="11" fill="#febf80" rx="2"><title>2025-01-27: 211 active episodes</title></rect>
  <rect x="86" y="34" width="11" height="11" fill="#fdcc8b" rx="2"><title>2025-01-28: 173 active episodes</title></rect>
  <rect x="86" y="48" width="11" height="11" fill="#fdcd8b" rx="2"><title>2025-01-29: 172 active episodes</title></rect>
  <rect x="86" y="62" width="11" height="11" fill="#feaf72" rx="2"><title>2025-01-30: 258 active episodes</title></rect>
  <rect x="86" y="76" width="11" height="11" fill="#fed094" rx="2"><title>2025-01-31: 153 active episodes</title></rect>
  <rect x="86" y="90" width="11" height="11" fill="#ffeacc" rx="2"><title>2025-02-01: 30 active episodes</title></rect>
  <rect x="86" y="104" width="11" height="11" fill="#ffeacd" rx="2"><title>2025-02-02: 28 active episodes</title></rect>
  <rect x="100" y="20" width="11" height="11" fill="#ffdaa9" rx="2"><title>2025-02-03: 106 active episodes</title></rect>
  <rect x="100" y="34" width="11" height="11" fill="#ffe8c8" rx="2"><title>2025-02-04: 38 active episodes</title></rect>
  <rect x="100" y="48" width="11" height="11" fill="#ffe7c5" rx="2"><title>2025-02-05: 45 active episodes</title></rect>
  <rect x="100" y="62" width="11" height="11" fill="#ffe6c4" rx="2"><title>2025-02-06: 48 active episodes</title></rect>
  <rect x="100" y="76" width="11" height="11" fill="#ffe8c7" rx="2"><title>2025-02-07: 41 active episodes</title></rect>
  <rect x="100" y="90" width="11" height="11" fill="#ffdaa8" rx="2"><title>2025-02-08: 108 active episodes</title></rect>
  <rect x="100" y="104" width="11" height="11" fill="#ffddaf" rx="2"><title>2025-02-09: 93 active episodes</title></rect>
  <rect x="114" y="20" width="11" height="11" fill="#ffe0b5" rx="2"><title>2025-02-10: 79 active episodes</title></rect>
  <rect x="114" y="34" width="11" height="11" fill="#ffe6c3" rx="2"><title>2025-02-11: 50 active episodes</title></rect>
  <rect x="114" y="48" width="11" height="11" fill="#ffe4c0" rx="2"><title>2025-02-12: 56 active episodes</title></rect>
  <rect x="114" y="62" width="11" height="11" fill="#ffe1b8" rx="2"><title>2025-02-13: 74 active episodes</title></rect>
  <rect x="114" y="76" width="11" height="11" fill="#ffe1b8" rx="2"><title>2025-02-14: 73 active episodes</title></rect>
  <rect x="114" y="90" width="11" height="11" fill="#ffebce" rx="2"><title>2025-02-15: 25 active episodes</title></rect>
  <rect x="114" y="104" width="11" height="11" fill="#fef0d9" rx="2"><title>2025-02-16: 1 active episode</title></rect>
  <rect x="128" y="20" width="11" height="11" fill="#ffdaaa" rx="2"><title>2025-02-17: 105 active episodes</title></rect>
  <rect x="128" y="34" width="11" height="11" fill="#fed6a1" rx="2"><title>2025-02-18: 124 active episodes</title></rect>
  <rect x="128" y="48" width="11" height="11" fill="#feaf72" rx="2"><title>2025-02-19: 258 active episodes</title></rect>
  <rect x="128" y="62" width="11" height="11" fill="#fed49b" rx="2"><title>2025-02-20: 137 active episodes</title></rect>
  <rect x="128" y="76" width="11" height="11" fill="#ffe8c8" rx="2"><title>2025-02-21: 39 active episodes</title></rect>
  <rect x="128" y="90" width="11" height="11" fill="#feecd1" rx="2"><title>2025-02-22: 19 active episodes</title></rect>
  <rect x="128" y="104" width="11" height="11" fill="#feecd1" rx="2"><title>2025-02-23: 19 active episodes</title></rect>
  <rect x="142" y="20" width="11" height="11" fill="#ffebcf" rx="2"><title>2025-02-24: 23 active episodes</title></rect>
  <rect x="142" y="34" width="11" height="11" fill="#ffe8c9" rx="2"><title>2025-02-25: 37 active episodes</title></rect>
  <rect x="142" y="48" width="11" height="11" fill="#ffe6c4" rx="2"><title>2025-02-26: 47 active episodes</title></rect>
  <rect x="142" y="62" width="11" height="11" fill="#ffe5c2" rx="2"><title>2025-02-27: 52 active episodes</title></rect>
  <rect x="142" y="76" width="11" height="11" fill="#ffeacc" rx="2"><title>2025-02-28: 30 active episodes</title></rect>
  <rect x="142" y="90" width="11" height="11" fill="#ffeacb" rx="2"><title>2025-03-01: 32 active episodes</title></rect>
  <rect x="142" y="104" width="11" height="11" fill="#feecd0" rx="2"><title>2025-03-02: 20 active episodes</title></rect>
  <rect x="156" y="20" width="11" height="11" fill="#fed297" rx="2"><title>2025-03-03: 146 active episodes</title></rect>
  <rect x="156" y="34" width="11" height="11" fill="#fed093" rx="2"><title>2025-03-04: 154 active episodes</title></rect>
  <rect x="156" y="48" width="11" height="11" fill="#fed093" rx="2"><title>2025-03-05: 155 active episodes</title></rect>
  <rect x="156" y="62" width="11" height="11" fill="#fdcd8b" rx="2"><title>2025-03-06: 172 active episodes</title></rect>
  <rect x="156" y="76" width="11" height="11" fill="#fed7a2" rx="2"><title>2025-03-07: 122 active episodes</title></rect>
  <rect x="156" y="90" width="11" height="11" fill="#ffe8c9" rx="2"><title>2025-03-08: 37 active episodes</title></rect>
  <rect x="156" y="104" width="11" height="11" fill="#ffebce" rx="2"><title>2025-03-09: 25 active episodes</title></rect>
  <rect x="170" y="20" width="11" height="11" fill="#ffdaaa" rx="2"><title>2025-03-10: 105 active episodes</title></rect>
  <rect x="170" y="34" width="11" height="11" fill="#ffe9ca" rx="2"><title>2025-03-11: 33 active episodes</title></rect>
  <rect x="170" y="48" width="11" height="11" fill="#fecf92" rx="2"><title>2025-03-12: 158 active episodes</title></rect>
  <rect x="170" y="62" width="11" height="11" fill="#fed195" rx="2"><title>2025-03-13: 150 active episodes</title></rect>
  <rect x="170" y="76" width="11" height="11" fill="#fed59d" rx="2"><title>2025-03-14: 132 active episodes</title></rect>
  <rect x="170" y="90" width="11" height="11" fill="#ffeacb" rx="2"><title>2025-03-15: 32 active episodes</title></rect>
  <rect x="170" y="104" width="11" height="11" fill="#feecd1" rx="2"><title>2025-03-16: 18 active episodes</title></rect>
  <rect x="184" y="20" width="11" height="11" fill="#ffddb0" rx="2"><title>2025-03-17: 91 active episodes</title></rect>
  <rect x="184" y="34" width="11" height="11" fill="#fed6a1" rx="2"><title>2025-03-18: 125 active episodes</title></rect>
  <rect x="184" y="48" width="11" height="11" fill="#ffd8a5" rx="2"><title>2025-03-19: 115 active episodes</title></rect>
  <rect x="184" y="62" width="11" height="11" fill="#ffdaaa" rx="2"><title>2025-03-20: 105 active episodes</title></rect>
  <rect x="184" y="76" width="11" height="11" fill="#ffe3be" rx="2"><title>2025-03-21: 61 active episodes</title></rect>
  <rect x="184" y="90" width="11" height="11" fill="#ffebcf" rx="2"><title>2025-03-22: 23 active episodes</title></rect>
  <rect x="184" y="104" width="11" height="11" fill="#feedd2" rx="2"><title>2025-03-23: 16 active episodes</title></rect>
  <rect x="198" y="20" width="11" height="11" fill="#ffdbac" rx="2"><title>2025-03-24: 100 active episodes</title></rect>
  <rect x="198" y="34" width="11" height="11" fill="#ffd9a7" rx="2"><title>2025-03-25: 110 active episodes</title></rect>
  <rect x="198" y="48" width="11" height="11" fill="#ffd9a6" rx="2"><title>2025-03-26: 112 active episodes</title></rect>
  <rect x="198" y="62" width="11" height="11" fill="#ffe0b5" rx="2"><title>2025-03-27: 79 active episodes</title></rect>
  <rect x="198" y="76" width="11" height="11" fill="#ffe1b8" rx="2"><title>2025-03-28: 74 active episodes</title></rect>
  <rect x="198" y="90" width="11" height="11" fill="#ffe1b9" rx="2"><title>2025-03-29: 71 active episodes</title></rect>
  <rect x="198" y="104" width="11" height="11" fill="#ffe0b6" rx="2"><title>2025-03-30: 78 active episodes</title></rect>
  <rect x="212" y="20" width="11" height="11" fill="#fecf91" rx="2"><title>2025-03-31: 159 active episodes</title></rect>
  <rect x="212" y="34" width="11" height="11" fill="#fdcd8c" rx="2"><title>2025-04-01: 171 active episodes</title></rect>
  <rect x="212" y="48" width="11" height="11" fill="#fecf91" rx="2"><title>2025-04-02: 160 active episodes</title></rect>
  <rect x="212" y="62" width="11" height="11" fill="#fdce8f" rx="2"><title>2025-04-03: 165 active episodes</title></rect>
  <rect x="212" y="76" width="11" height="11" fill="#fed398" rx="2"><title>2025-04-04: 143 active episodes</title></rect>
  <rect x="212" y="90" width="11" height="11" fill="#ffe9ca" rx="2"><title>2025-04-05: 33 active episodes</title></rect>
  <rect x="212" y="104" width="11" height="11" fill="#ffebcf" rx="2"><title>2025-04-06: 23 active episodes</title></rect>
  <rect x="226" y="20" width="11" height="11" fill="#ffe4c0" rx="2"><title>2025-04-07: 56 active episodes</title></rect>
  <rect x="226" y="34" width="11" height="11" fill="#fed399" rx="2"><title>2025-04-08: 142 active episodes</title></rect>
  <rect x="226" y="48" width="11" height="11" fill="#fed094" rx="2"><title>2025-04-09: 153 active episodes</title></rect>
  <rect x="226" y="62" width="11" height="11" fill="#fed399" rx="2"><title>2025-04-10: 142 active episodes</title></rect>
  <rect x="226" y="76" width="11" height="11" fill="#fed298" rx="2"><title>2025-04-11: 145 active episodes</title></rect>
  <rect x="226" y="90" width="11" height="11" fill="#ffe4bf" rx="2"><title>2025-04-12: 57 active episodes</title></rect>
  <rect x="226" y="104" width="11" height="11" fill="#ffe7c6" rx="2"><title>2025-04-13: 43 active episodes</title></rect>
  <rect x="240" y="20" width="11" height="11" fill="#fed7a2" rx="2"><title>2025-04-14: 122 active episodes</title></rect>
  <rect x="240" y="34" width="11" height="11" fill="#ffdbaa" rx="2"><title>2025-04-15: 104 active episodes</title></rect>
  <rect x="240" y="48" width="11" height="11" fill="#ffdbac" rx="2"><title>2025-04-16: 100 active episodes</title></rect>
  <rect x="240" y="62" width="11" height="11" fill="#ffddb0" rx="2"><title>2025-04-17: 90 active episodes</title></rect>
  <rect x="240" y="76" width="11" height="11" fill="#feefd7" rx="2"><title>2025-04-18: 5 active episodes</title></rect>
  <rect x="240" y="90" width="11" height="11" fill="#feefd7" rx="2"><title>2025-04-19: 5 active episodes</title></rect>
  <rect x="240" y="104" width="11" height="11" fill="#484f58" rx="2"><title>2025-04-20: no data</title></rect>
  <rect x="254" y="20" width="11" height="11" fill="#fef0d9" rx="2"><title>2025-04-21: 1 active episode</title></rect>
  <rect x="254" y="34" width="11" height="11" fill="#ffe5c0" rx="2"><title>2025-04-22: 55 active episodes</title></rect>
  <rect x="254" y="48" width="11" height="11" fill="#fdcb89" rx="2"><title>2025-04-23: 179 active episodes</title></rect>
  <rect x="254" y="62" width="11" height="11" fill="#fdc483" rx="2"><title>2025-04-24: 198 active episodes</title></rect>
  <rect x="254" y="76" width="11" height="11" fill="#fed49b" rx="2"><title>2025-04-25: 137 active episodes</title></rect>
  <rect x="254" y="90" width="11" height="11" fill="#ffeacc" rx="2"><title>2025-04-26: 29 active episodes</title></rect>
  <rect x="254" y="104" width="11" height="11" fill="#ffe2ba" rx="2"><title>2025-04-27: 69 active episodes</title></rect>
  <rect x="268" y="20" width="11" height="11" fill="#ffdbaa" rx="2"><title>2025-04-28: 104 active episodes</title></rect>
  <rect x="268" y="34" width="11" height="11" fill="#fed7a2" rx="2"><title>2025-04-29: 122 active episodes</title></rect>
  <rect x="268" y="48" width="11" height="11" fill="#ffdeb1" rx="2"><title>2025-04-30: 88 active episodes</title></rect>
  <rect x="268" y="62" width="11" height="11" fill="#ffebcd" rx="2"><title>2025-05-01: 27 active episodes</title></rect>
  <rect x="268" y="76" width="11" height="11" fill="#feecd1" rx="2"><title>2025-05-02: 19 active episodes</title></rect>
  <rect x="268" y="90" width="11" height="11" fill="#ffebce" rx="2"><title>2025-05-03: 25 active episodes</title></rect>
  <rect x="268" y="104" width="11" height="11" fill="#ffebcd" rx="2"><title>2025-05-04: 27 active episodes</title></rect>
  <rect x="282" y="20" width="11" height="11" fill="#ffdfb5" rx="2"><title>2025-05-05: 81 active episodes</title></rect>
  <rect x="282" y="34" width="11" height="11" fill="#ffd9a6" rx="2"><title>2025-05-06: 112 active episodes</title></rect>
  <rect x="282" y="48" width="11" height="11" fill="#ffdaaa" rx="2"><title>2025-05-07: 105 active episodes</title></rect>
  <rect x="282" y="62" width="11" height="11" fill="#ffe0b5" rx="2"><title>2025-05-08: 80 active episodes</title></rect>
  <rect x="282" y="76" width="11" height="11" fill="#ffe4bf" rx="2"><title>2025-05-09: 57 active episodes</title></rect>
  <rect x="282" y="90" width="11" height="11" fill="#ffe5c2" rx="2"><title>2025-05-10: 52 active episodes</title></rect>
  <rect x="282" y="104" width="11" height="11" fill="#ffdbaa" rx="2"><title>2025-05-11: 104 active episodes</title></rect>
  <rect x="296" y="20" width="11" height="11" fill="#fed49c" rx="2"><title>2025-05-12: 135 active episodes</title></rect>
  <rect x="296" y="34" width="11" height="11" fill="#fed49c" rx="2"><title>2025-05-13: 136 active episodes</title></rect>
  <rect x="296" y="48" width="11" height="11" fill="#ffdcae" rx="2"><title>2025-05-14: 95 active episodes</title></rect>
  <rect x="296" y="62" width="11" height="11" fill="#ffdcae" rx="2"><title>2025-05-15: 95 active episodes</title></rect>
  <rect x="296" y="76" width="11" height="11" fill="#ffdfb4" rx="2"><title>2025-05-16: 83 active episodes</title></rect>
  <rect x="296" y="90" width="11" height="11" fill="#ffdfb4" rx="2"><title>2025-05-17: 82 active episodes</title></rect>
  <rect x="296" y="104" width="11" height="11" fill="#ffe3bd" rx="2"><title>2025-05-18: 63 active episodes</title></rect>
  <rect x="310" y="20" width="11" height="11" fill="#fed297" rx="2"><title>2025-05-19: 147 active episodes</title></rect>
  <rect x="310" y="34" width="11" height="11" fill="#febc7d" rx="2"><title>2025-05-20: 220 active episodes</title></rect>
  <rect x="310" y="48" width="11" height="11" fill="#feac70" rx="2"><title>2025-05-21: 265 active episodes</title></rect>
  <rect x="310" y="62" width="11" height="11" fill="#fdce8e" rx="2"><title>2025-05-22: 167 active episodes</title></rect>
  <rect x="310" y="76" width="11" height="11" fill="#ffddb0" rx="2"><title>2025-05-23: 90 active episodes</title></rect>
  <rect x="310" y="90" width="11" height="11" fill="#ffe8c8" rx="2"><title>2025-05-24: 38 active episodes</title></rect>
  <rect x="310" y="104" width="11" height="11" fill="#ffe2ba" rx="2"><title>2025-05-25: 68 active episodes</title></rect>
  <rect x="324" y="20" width="11" height="11" fill="#feb073" rx="2"><title>2025-05-26: 254 active episodes</title></rect>
  <rect x="324" y="34" width="11" height="11" fill="#feaa6f" rx="2"><title>2025-05-27: 271 active episodes</title></rect>
  <rect x="324" y="48" width="11" height="11" fill="#febb7c" rx="2"><title>2025-05-28: 222 active episodes</title></rect>
  <rect x="324" y="62" width="11" height="11" fill="#fec080" rx="2"><title>2025-05-29: 210 active episodes</title></rect>
  <rect x="324" y="76" width="11" height="11" fill="#fed298" rx="2"><title>2025-05-30: 144 active episodes</title></rect>
  <rect x="324" y="90" width="11" height="11" fill="#ffd9a7" rx="2"><title>2025-05-31: 111 active episodes</title></rect>
  <rect x="324" y="104" width="11" height="11" fill="#fdcb89" rx="2"><title>2025-06-01: 178 active episodes</title></rect>
  <rect x="338" y="20" width="11" height="11" fill="#fc905b" rx="2"><title>2025-06-02: 340 active episodes</title></rect>
  <rect x="338" y="34" width="11" height="11" fill="#feb376" rx="2"><title>2025-06-03: 245 active episodes</title></rect>
  <rect x="338" y="48" width="11" height="11" fill="#feb073" rx="2"><title>2025-06-04: 255 active episodes</title></rect>
  <rect x="338" y="62" width="11" height="11" fill="#fdcd8c" rx="2"><title>2025-06-05: 171 active episodes</title></rect>
  <rect x="338" y="76" width="11" height="11" fill="#ffd8a5" rx="2"><title>2025-06-06: 115 active episodes</title></rect>
  <rect x="338" y="90" width="11" height="11" fill="#ffdcae" rx="2"><title>2025-06-07: 95 active episodes</title></rect>
  <rect x="338" y="104" width="11" height="11" fill="#ffe4be" rx="2"><title>2025-06-08: 60 active episodes</title></rect>
  <rect x="352" y="20" width="11" height="11" fill="#ffd9a7" rx="2"><title>2025-06-09: 111 active episodes</title></rect>
  <rect x="352" y="34" width="11" height="11" fill="#fdcf90" rx="2"><title>2025-06-10: 162 active episodes</title></rect>
  <rect x="352" y="48" width="11" height="11" fill="#feb779" rx="2"><title>2025-06-11: 235 active episodes</title></rect>
  <rect x="352" y="62" width="11" height="11" fill="#fec282" rx="2"><title>2025-06-12: 204 active episodes</title></rect>
  <rect x="352" y="76" width="11" height="11" fill="#fed6a0" rx="2"><title>2025-06-13: 126 active episodes</title></rect>
  <rect x="352" y="90" width="11" height="11" fill="#ffdbab" rx="2"><title>2025-06-14: 103 active episodes</title></rect>
  <rect x="352" y="104" width="11" height="11" fill="#ffdcad" rx="2"><title>2025-06-15: 98 active episodes</title></rect>
  <rect x="366" y="20" width="11" height="11" fill="#feba7c" rx="2"><title>2025-06-16: 225 active episodes</title></rect>
  <rect x="366" y="34" width="11" height="11" fill="#fdca88" rx="2"><title>2025-06-17: 182 active episodes</title></rect>
  <rect x="366" y="48" width="11" height="11" fill="#fec181" rx="2"><title>2025-06-18: 207 active episodes</title></rect>
  <rect x="366" y="62" width="11" height="11" fill="#fdc786" rx="2"><title>2025-06-19: 189 active episodes</title></rect>
  <rect x="366" y="76" width="11" height="11" fill="#fed59d" rx="2"><title>2025-06-20: 132 active episodes</title></rect>
  <rect x="366" y="90" width="11" height="11" fill="#ffd8a6" rx="2"><title>2025-06-21: 114 active episodes</title></rect>
  <rect x="366" y="104" width="11" height="11" fill="#fed6a1" rx="2"><title>2025-06-22: 124 active episodes</title></rect>
  <rect x="380" y="20" width="11" height="11" fill="#fea46a" rx="2"><title>2025-06-23: 288 active episodes</title></rect>
  <rect x="380" y="34" width="11" height="11" fill="#fea56b" rx="2"><title>2025-06-24: 284 active episodes</title></rect>
  <rect x="380" y="48" width="11" height="11" fill="#fea66b" rx="2"><title>2025-06-25: 283 active episodes</title></rect>
  <rect x="380" y="62" width="11" height="11" fill="#feb476" rx="2"><title>2025-06-26: 243 active episodes</title></rect>
  <rect x="380" y="76" width="11" height="11" fill="#ffddaf" rx="2"><title>2025-06-27: 94 active episodes</title></rect>
  <rect x="380" y="90" width="11" height="11" fill="#ffeccf" rx="2"><title>2025-06-28: 22 active episodes</title></rect>
  <rect x="380" y="104" width="11" height="11" fill="#feeed5" rx="2"><title>2025-06-29: 9 active episodes</title></rect>
  <rect x="394" y="20" width="11" height="11" fill="#ffe4bf" rx="2"><title>2025-06-30: 57 active episodes</title></rect>
  <rect x="394" y="34" width="11" height="11" fill="#fdc685" rx="2"><title>2025-07-01: 191 active episodes</title></rect>
  <rect x="394" y="48" width="11" height="11" fill="#ffdbab" rx="2"><title>2025-07-02: 102 active episodes</title></rect>
  <rect x="394" y="62" width="11" height="11" fill="#ffdaa9" rx="2"><title>2025-07-03: 106 active episodes</title></rect>
  <rect x="394" y="76" width="11" height="11" fill="#ffe0b6" rx="2"><title>2025-07-04: 77 active episodes</title></rect>
  <rect x="394" y="90" width="11" height="11" fill="#ffe8c8" rx="2"><title>2025-07-05: 38 active episodes</title></rect>
  <rect x="394" y="104" width="11" height="11" fill="#ffebcf" rx="2"><title>2025-07-06: 23 active episodes</title></rect>
  <rect x="408" y="20" width="11" height="11" fill="#ffd8a5" rx="2"><title>2025-07-07: 115 active episodes</title></rect>
  <rect x="408" y="34" width="11" height="11" fill="#ffdaa9" rx="2"><title>2025-07-08: 106 active episodes</title></rect>
  <rect x="408" y="48" width="11" height="11" fill="#fed195" rx="2"><title>2025-07-09: 151 active episodes</title></rect>
  <rect x="408" y="62" width="11" height="11" fill="#ffddb0" rx="2"><title>2025-07-10: 91 active episodes</title></rect>
  <rect x="408" y="76" width="11" height="11" fill="#ffe3bd" rx="2"><title>2025-07-11: 63 active episodes</title></rect>
  <rect x="408" y="90" width="11" height="11" fill="#ffe8c7" rx="2"><title>2025-07-12: 41 active episodes</title></rect>
  <rect x="408" y="104" width="11" height="11" fill="#feedd2" rx="2"><title>2025-07-13: 17 active episodes</title></rect>
  <rect x="422" y="20" width="11" height="11" fill="#ffdbaa" rx="2"><title>2025-07-14: 104 active episodes</title></rect>
  <rect x="422" y="34" width="11" height="11" fill="#ffdaa9" rx="2"><title>2025-07-15: 107 active episodes</title></rect>
  <rect x="422" y="48" width="11" height="11" fill="#ffdaa8" rx="2"><title>2025-07-16: 109 active episodes</title></rect>
  <rect x="422" y="62" width="11" height="11" fill="#ffdbab" rx="2"><title>2025-07-17: 102 active episodes</title></rect>
  <rect x="422" y="76" width="11" height="11" fill="#ffe2ba" rx="2"><title>2025-07-18: 68 active episodes</title></rect>
  <rect x="422" y="90" width="11" height="11" fill="#feedd3" rx="2"><title>2025-07-19: 15 active episodes</title></rect>
  <rect x="422" y="104" width="11" height="11" fill="#feefd8" rx="2"><title>2025-07-20: 4 active episodes</title></rect>
  <rect x="436" y="20" width="11" height="11" fill="#fed59d" rx="2"><title>2025-07-21: 132 active episodes</title></rect>
  <rect x="436" y="34" width="11" height="11" fill="#fdcd8c" rx="2"><title>2025-07-22: 171 active episodes</title></rect>
  <rect x="436" y="48" width="11" height="11" fill="#fdc987" rx="2"><title>2025-07-23: 184 active episodes</title></rect>
  <rect x="436" y="62" width="11" height="11" fill="#fec483" rx="2"><title>2025-07-24: 199 active episodes</title></rect>
  <rect x="436" y="76" width="11" height="11" fill="#fdce8e" rx="2"><title>2025-07-25: 167 active episodes</title></rect>
  <rect x="436" y="90" width="11" height="11" fill="#ffddb0" rx="2"><title>2025-07-26: 91 active episodes</title></rect>
  <rect x="436" y="104" width="11" height="11" fill="#ffe4bf" rx="2"><title>2025-07-27: 57 active episodes</title></rect>
  <rect x="450" y="20" width="11" height="11" fill="#ffddaf" rx="2"><title>2025-07-28: 94 active episodes</title></rect>
  <rect x="450" y="34" width="11" height="11" fill="#fed59e" rx="2"><title>2025-07-29: 130 active episodes</title></rect>
  <rect x="450" y="48" width="11" height="11" fill="#fdcd8b" rx="2"><title>2025-07-30: 172 active episodes</title></rect>
  <rect x="450" y="62" width="11" height="11" fill="#fdcd8c" rx="2"><title>2025-07-31: 171 active episodes</title></rect>
  <rect x="450" y="76" width="11" height="11" fill="#ffd9a7" rx="2"><title>2025-08-01: 111 active episodes</title></rect>
  <rect x="450" y="90" width="11" height="11" fill="#ffe2ba" rx="2"><title>2025-08-02: 68 active episodes</title></rect>
  <rect x="450" y="104" width="11" height="11" fill="#ffebcd" rx="2"><title>2025-08-03: 27 active episodes</title></rect>
  <rect x="464" y="20" width="11" height="11" fill="#ffe3bd" rx="2"><title>2025-08-04: 62 active episodes</title></rect>
  <rect x="464" y="34" width="11" height="11" fill="#ffdaa8" rx="2"><title>2025-08-05: 109 active episodes</title></rect>
  <rect x="464" y="48" width="11" height="11" fill="#ffdcae" rx="2"><title>2025-08-06: 95 active episodes</title></rect>
  <rect x="464" y="62" width="11" height="11" fill="#ffdbab" rx="2"><title>2025-08-07: 101 active episodes</title></rect>
  <rect x="464" y="76" width="11" height="11" fill="#ffe0b5" rx="2"><title>2025-08-08: 79 active episodes</title></rect>
  <rect x="464" y="90" width="11" height="11" fill="#feedd2" rx="2"><title>2025-08-09: 16 active episodes</title></rect>
  <rect x="464" y="104" width="11" height="11" fill="#feeed4" rx="2"><title>2025-08-10: 11 active episodes</title></rect>
  <rect x="478" y="20" width="11" height="11" fill="#fea56b" rx="2"><title>2025-08-11: 284 active episodes</title></rect>
  <rect x="478" y="34" width="11" height="11" fill="#f06f43" rx="2"><title>2025-08-12: 412 active episodes</title></rect>
  <rect x="478" y="48" width="11" height="11" fill="#fd9a63" rx="2"><title>2025-08-13: 314 active episodes</title></rect>
  <rect x="478" y="62" width="11" height="11" fill="#fd9b63" rx="2"><title>2025-08-14: 312 active episodes</title></rect>
  <rect x="478" y="76" width="11" height="11" fill="#feb073" rx="2"><title>2025-08-15: 254 active episodes</title></rect>
  <rect x="478" y="90" width="11" height="11" fill="#feb779" rx="2"><title>2025-08-16: 234 active episodes</title></rect>
  <rect x="478" y="104" width="11" height="11" fill="#f27447" rx="2"><title>2025-08-17: 402 active episodes</title></rect>
  <rect x="492" y="20" width="11" height="11" fill="#ed6a40" rx="2"><title>2025-08-18: 422 active episodes</title></rect>
  <rect x="492" y="34" width="11" height="11" fill="#ea623b" rx="2"><title>2025-08-19: 438 active episodes</title></rect>
  <rect x="492" y="48" width="11" height="11" fill="#eb633b" rx="2"><title>2025-08-20: 436 active episodes</title></rect>
  <rect x="492" y="62" width="11" height="11" fill="#ee6b40" rx="2"><title>2025-08-21: 421 active episodes</title></rect>
  <rect x="492" y="76" width="11" height="11" fill="#f4794b" rx="2"><title>2025-08-22: 391 active episodes</title></rect>
  <rect x="492" y="90" width="11" height="11" fill="#fd9660" rx="2"><title>2025-08-23: 324 active episodes</title></rect>
  <rect x="492" y="104" width="11" height="11" fill="#fd9f66" rx="2"><title>2025-08-24: 301 active episodes</title></rect>
  <rect x="506" y="20" width="11" height="11" fill="#fd955e" rx="2"><title>2025-08-25: 329 active episodes</title></rect>
  <rect x="506" y="34" width="11" height="11" fill="#fd9f66" rx="2"><title>2025-08-26: 301 active episodes</title></rect>
  <rect x="506" y="48" width="11" height="11" fill="#fea76c" rx="2"><title>2025-08-27: 280 active episodes</title></rect>
  <rect x="506" y="62" width="11" height="11" fill="#feaf73" rx="2"><title>2025-08-28: 256 active episodes</title></rect>
  <rect x="506" y="76" width="11" height="11" fill="#feb577" rx="2"><title>2025-08-29: 241 active episodes</title></rect>
  <rect x="506" y="90" width="11" height="11" fill="#feb477" rx="2"><title>2025-08-30: 242 active episodes</title></rect>
  <rect x="506" y="104" width="11" height="11" fill="#ffd8a4" rx="2"><title>2025-08-31: 117 active episodes</title></rect>
  <rect x="520" y="20" width="11" height="11" fill="#fdc887" rx="2"><title>2025-09-01: 186 active episodes</title></rect>
  <rect x="520" y="34" width="11" height="11" fill="#fdc887" rx="2"><title>2025-09-02: 187 active episodes</title></rect>
  <rect x="520" y="48" width="11" height="11" fill="#fdc887" rx="2"><title>2025-09-03: 185 active episodes</title></rect>
  <rect x="520" y="62" width="11" height="11" fill="#fed093" rx="2"><title>2025-09-04: 155 active episodes</title></rect>
  <rect x="520" y="76" width="11" height="11" fill="#ffdcac" rx="2"><title>2025-09-05: 99 active episodes</title></rect>
  <rect x="520" y="90" width="11" height="11" fill="#ffe7c4" rx="2"><title>2025-09-06: 46 active episodes</title></rect>
  <rect x="520" y="104" width="11" height="11" fill="#ffe4be" rx="2"><title>2025-09-07: 60 active episodes</title></rect>
  <rect x="534" y="20" width="11" height="11" fill="#fed195" rx="2"><title>2025-09-08: 151 active episodes</title></rect>
  <rect x="534" y="34" width="11" height="11" fill="#fed59e" rx="2"><title>2025-09-09: 131 active episodes</title></rect>
  <rect x="534" y="48" width="11" height="11" fill="#fed49c" rx="2"><title>2025-09-10: 135 active episodes</title></rect>
  <rect x="534" y="62" width="11" height="11" fill="#fed7a1" rx="2"><title>2025-09-11: 123 active episodes</title></rect>
  <rect x="534" y="76" width="11" height="11" fill="#ffdbac" rx="2"><title>2025-09-12: 100 active episodes</title></rect>
  <rect x="534" y="90" width="11" height="11" fill="#ffe5c0" rx="2"><title>2025-09-13: 55 active episodes</title></rect>
  <rect x="534" y="104" width="11" height="11" fill="#ffe1b8" rx="2"><title>2025-09-14: 74 active episodes</title></rect>
  <rect x="548" y="20" width="11" height="11" fill="#ffd8a4" rx="2"><title>2025-09-15: 118 active episodes</title></rect>
  <rect x="548" y="34" width="11" height="11" fill="#fea86d" rx="2"><title>2025-09-16: 275 active episodes</title></rect>
  <rect x="548" y="48" width="11" height="11" fill="#feaf73" rx="2"><title>2025-09-17: 257 active episodes</title></rect>
  <rect x="548" y="62" width="11" height="11" fill="#fead71" rx="2"><title>2025-09-18: 263 active episodes</title></rect>
  <rect x="548" y="76" width="11" height="11" fill="#feaa6f" rx="2"><title>2025-09-19: 271 active episodes</title></rect>
  <rect x="548" y="90" width="11" height="11" fill="#fdce8e" rx="2"><title>2025-09-20: 167 active episodes</title></rect>
  <rect x="548" y="104" width="11" height="11" fill="#fec282" rx="2"><title>2025-09-21: 203 active episodes</title></rect>
  <rect x="562" y="20" width="11" height="11" fill="#feb97a" rx="2"><title>2025-09-22: 229 active episodes</title></rect>
  <rect x="562" y="34" width="11" height="11" fill="#fdc887" rx="2"><title>2025-09-23: 185 active episodes</title></rect>
  <rect x="562" y="48" width="11" height="11" fill="#fdc887" rx="2"><title>2025-09-24: 187 active episodes</title></rect>
  <rect x="562" y="62" width="11" height="11" fill="#fdc988" rx="2"><title>2025-09-25: 183 active episodes</title></rect>
  <rect x="562" y="76" width="11" height="11" fill="#ffd9a6" rx="2"><title>2025-09-26: 113 active episodes</title></rect>
  <rect x="562" y="90" width="11" height="11" fill="#ffe3bd" rx="2"><title>2025-09-27: 62 active episodes</title></rect>
  <rect x="562" y="104" width="11" height="11" fill="#ffe1b7" rx="2"><title>2025-09-28: 75 active episodes</title></rect>
  <rect x="576" y="20" width="11" height="11" fill="#febb7c" rx="2"><title>2025-09-29: 224 active episodes</title></rect>
  <rect x="576" y="34" width="11" height="11" fill="#feb577" rx="2"><title>2025-09-30: 240 active episodes</title></rect>
  <rect x="576" y="48" width="11" height="11" fill="#fdcc8a" rx="2"><title>2025-10-01: 174 active episodes</title></rect>
  <rect x="576" y="62" width="11" height="11" fill="#fed195" rx="2"><title>2025-10-02: 150 active episodes</title></rect>
  <rect x="576" y="76" width="11" height="11" fill="#fed39a" rx="2"><title>2025-10-03: 139 active episodes</title></rect>
  <rect x="576" y="90" width="11" height="11" fill="#ffe2bb" rx="2"><title>2025-10-04: 67 active episodes</title></rect>
  <rect x="576" y="104" width="11" height="11" fill="#ffd8a5" rx="2"><title>2025-10-05: 115 active episodes</title></rect>
  <rect x="590" y="20" width="11" height="11" fill="#ffd8a4" rx="2"><title>2025-10-06: 118 active episodes</title></rect>
  <rect x="590" y="34" width="11" height="11" fill="#fed194" rx="2"><title>2025-10-07: 152 active episodes</title></rect>
  <rect x="590" y="48" width="11" height="11" fill="#fdcc8a" rx="2"><title>2025-10-08: 176 active episodes</title></rect>
  <rect x="590" y="62" width="11" height="11" fill="#fda168" rx="2"><title>2025-10-09: 294 active episodes</title></rect>
  <rect x="590" y="76" width="11" height="11" fill="#fea66c" rx="2"><title>2025-10-10: 282 active episodes</title></rect>
  <rect x="590" y="90" width="11" height="11" fill="#fdcd8d" rx="2"><title>2025-10-11: 169 active episodes</title></rect>
  <rect x="590" y="104" width="11" height="11" fill="#fed195" rx="2"><title>2025-10-12: 150 active episodes</title></rect>
  <rect x="604" y="20" width="11" height="11" fill="#feb678" rx="2"><title>2025-10-13: 238 active episodes</title></rect>
  <rect x="604" y="34" width="11" height="11" fill="#fed39a" rx="2"><title>2025-10-14: 139 active episodes</title></rect>
  <rect x="604" y="48" width="11" height="11" fill="#fdc786" rx="2"><title>2025-10-15: 190 active episodes</title></rect>
  <rect x="604" y="62" width="11" height="11" fill="#fed6a1" rx="2"><title>2025-10-16: 124 active episodes</title></rect>
  <rect x="604" y="76" width="11" height="11" fill="#ffdbab" rx="2"><title>2025-10-17: 103 active episodes</title></rect>
  <rect x="604" y="90" width="11" height="11" fill="#ffdbaa" rx="2"><title>2025-10-18: 104 active episodes</title></rect>
  <rect x="604" y="104" width="11" height="11" fill="#ffe7c5" rx="2"><title>2025-10-19: 45 active episodes</title></rect>
  <rect x="618" y="20" width="11" height="11" fill="#ffddb0" rx="2"><title>2025-10-20: 90 active episodes</title></rect>
  <rect x="618" y="34" width="11" height="11" fill="#ffd8a5" rx="2"><title>2025-10-21: 115 active episodes</title></rect>
  <rect x="618" y="48" width="11" height="11" fill="#ffd8a5" rx="2"><title>2025-10-22: 116 active episodes</title></rect>
  <rect x="618" y="62" width="11" height="11" fill="#ffddb0" rx="2"><title>2025-10-23: 91 active episodes</title></rect>
  <rect x="618" y="76" width="11" height="11" fill="#ffdeb1" rx="2"><title>2025-10-24: 89 active episodes</title></rect>
  <rect x="618" y="90" width="11" height="11" fill="#ffe3bd" rx="2"><title>2025-10-25: 63 active episodes</title></rect>
  <rect x="618" y="104" width="11" height="11" fill="#ffe6c3" rx="2"><title>2025-10-26: 50 active episodes</title></rect>
  <rect x="632" y="20" width="11" height="11" fill="#fdc988" rx="2"><title>2025-10-27: 183 active episodes</title></rect>
  <rect x="632" y="34" width="11" height="11" fill="#fdc786" rx="2"><title>2025-10-28: 189 active episodes</title></rect>
  <rect x="632" y="48" width="11" height="11" fill="#ffdbab" rx="2"><title>2025-10-29: 101 active episodes</title></rect>
  <rect x="632" y="62" width="11" height="11" fill="#ffdbab" rx="2"><title>2025-10-30: 102 active episodes</title></rect>
  <rect x="632" y="76" width="11" height="11" fill="#ffe3bd" rx="2"><title>2025-10-31: 62 active episodes</title></rect>
  <rect x="632" y="90" width="11" height="11" fill="#ffe9c9" rx="2"><title>2025-11-01: 36 active episodes</title></rect>
  <rect x="632" y="104" width="11" height="11" fill="#feecd0" rx="2"><title>2025-11-02: 21 active episodes</title></rect>
  <rect x="646" y="20" width="11" height="11" fill="#ffdfb4" rx="2"><title>2025-11-03: 82 active episodes</title></rect>
  <rect x="646" y="34" width="11" height="11" fill="#fed49c" rx="2"><title>2025-11-04: 135 active episodes</title></rect>
  <rect x="646" y="48" width="11" height="11" fill="#ffd7a2" rx="2"><title>2025-11-05: 121 active episodes</title></rect>
  <rect x="646" y="62" width="11" height="11" fill="#ffd8a4" rx="2"><title>2025-11-06: 117 active episodes</title></rect>
  <rect x="646" y="76" width="11" height="11" fill="#ffdbab" rx="2"><title>2025-11-07: 101 active episodes</title></rect>
  <rect x="646" y="90" width="11" height="11" fill="#ffe9ca" rx="2"><title>2025-11-08: 33 active episodes</title></rect>
  <rect x="646" y="104" width="11" height="11" fill="#ffe9c9" rx="2"><title>2025-11-09: 35 active episodes</title></rect>
  <rect x="660" y="20" width="11" height="11" fill="#ffdcae" rx="2"><title>2025-11-10: 95 active episodes</title></rect>
  <rect x="660" y="34" width="11" height="11" fill="#fdcf90" rx="2"><title>2025-11-11: 161 active episodes</title></rect>
  <rect x="660" y="48" width="11" height="11" fill="#fdce8e" rx="2"><title>2025-11-12: 167 active episodes</title></rect>
  <rect x="660" y="62" width="11" height="11" fill="#ffdaa9" rx="2"><title>2025-11-13: 107 active episodes</title></rect>
  <rect x="660" y="76" width="11" height="11" fill="#ffddb0" rx="2"><title>2025-11-14: 91 active episodes</title></rect>
  <rect x="660" y="90" width="11" height="11" fill="#ffe9ca" rx="2"><title>2025-11-15: 33 active episodes</title></rect>
  <rect x="660" y="104" width="11" height="11" fill="#feecd1" rx="2"><title>2025-11-16: 18 active episodes</title></rect>
  <rect x="674" y="20" width="11" height="11" fill="#ffe1b9" rx="2"><title>2025-11-17: 72 active episodes</title></rect>
  <rect x="674" y="34" width="11" height="11" fill="#fed195" rx="2"><title>2025-11-18: 151 active episodes</title></rect>
  <rect x="674" y="48" width="11" height="11" fill="#fdce8f" rx="2"><title>2025-11-19: 165 active episodes</title></rect>
  <rect x="674" y="62" width="11" height="11" fill="#ffddaf" rx="2"><title>2025-11-20: 93 active episodes</title></rect>
  <rect x="674" y="76" width="11" height="11" fill="#ffddaf" rx="2"><title>2025-11-21: 94 active episodes</title></rect>
  <rect x="674" y="90" width="11" height="11" fill="#feecd1" rx="2"><title>2025-11-22: 19 active episodes</title></rect>
  <rect x="674" y="104" width="11" height="11" fill="#feefd7" rx="2"><title>2025-11-23: 6 active episodes</title></rect>
  <rect x="688" y="20" width="11" height="11" fill="#ffdfb4" rx="2"><title>2025-11-24: 82 active episodes</title></rect>
  <rect x="688" y="34" width="11" height="11" fill="#ffdcae" rx="2"><title>2025-11-25: 96 active episodes</title></rect>
  <rect x="688" y="48" width="11" height="11" fill="#ffdcae" rx="2"><title>2025-11-26: 95 active episodes</title></rect>
  <rect x="688" y="62" width="11" height="11" fill="#ffdfb3" rx="2"><title>2025-11-27: 84 active episodes</title></rect>
  <rect x="688" y="76" width="11" height="11" fill="#ffebce" rx="2"><title>2025-11-28: 24 active episodes</title></rect>
  <rect x="688" y="90" width="11" height="11" fill="#fef0d8" rx="2"><title>2025-11-29: 3 active episodes</title></rect>
  <rect x="688" y="104" width="11" height="11" fill="#fef0d9" rx="2"><title>2025-11-30: 1 active episode</title></rect>
  <rect x="702" y="20" width="11" height="11" fill="#fef0d8" rx="2"><title>2025-12-01: 3 active episodes</title></rect>
  <rect x="702" y="34" width="11" height="11" fill="#feedd3" rx="2"><title>2025-12-02: 15 active episodes</title></rect>
  <rect x="702" y="48" width="11" height="11" fill="#feecd1" rx="2"><title>2025-12-03: 19 active episodes</title></rect>
  <rect x="702" y="62" width="11" height="11" fill="#feecd1" rx="2"><title>2025-12-04: 19 active episodes</title></rect>
  <rect x="702" y="76" width="11" height="11" fill="#ffebcf" rx="2"><title>2025-12-05: 23 active episodes</title></rect>
  <rect x="702" y="90" width="11" height="11" fill="#feefd6" rx="2"><title>2025-12-06: 7 active episodes</title></rect>
  <rect x="702" y="104" width="11" height="11" fill="#feefd6" rx="2"><title>2025-12-07: 7 active episodes</title></rect>
  <rect x="716" y="20" width="11" height="11" fill="#ffd8a6" rx="2"><title>2025-12-08: 114 active episodes</title></rect>
  <rect x="716" y="34" width="11" height="11" fill="#fed49b" rx="2"><title>2025-12-09: 137 active episodes</title></rect>
  <rect x="716" y="48" width="11" height="11" fill="#fed094" rx="2"><title>2025-12-10: 153 active episodes</title></rect>
  <rect x="716" y="62" width="11" height="11" fill="#ffdaa8" rx="2"><title>2025-12-11: 109 active episodes</title></rect>
  <rect x="716" y="76" width="11" height="11" fill="#ffe1b8" rx="2"><title>2025-12-12: 73 active episodes</title></rect>
  <rect x="716" y="90" width="11" height="11" fill="#ffebce" rx="2"><title>2025-12-13: 26 active episodes</title></rect>
  <rect x="716" y="104" width="11" height="11" fill="#feefd8" rx="2"><title>2025-12-14: 4 active episodes</title></rect>
  <rect x="730" y="20" width="11" height="11" fill="#fed094" rx="2"><title>2025-12-15: 153 active episodes</title></rect>
  <rect x="730" y="34" width="11" height="11" fill="#ffe4c0" rx="2"><title>2025-12-16: 56 active episodes</title></rect>
  <rect x="730" y="48" width="11" height="11" fill="#ffe8c7" rx="2"><title>2025-12-17: 40 active episodes</title></rect>
  <rect x="730" y="62" width="11" height="11" fill="#ffe5c1" rx="2"><title>2025-12-18: 54 active episodes</title></rect>
  <rect x="730" y="76" width="11" height="11" fill="#ffe3be" rx="2"><title>2025-12-19: 61 active episodes</title></rect>
  <rect x="730" y="90" width="11" height="11" fill="#feefd8" rx="2"><title>2025-12-20: 4 active episodes</title></rect>
  <rect x="730" y="104" width="11" height="11" fill="#feedd3" rx="2"><title>2025-12-21: 14 active episodes</title></rect>
  <rect x="744" y="20" width="11" height="11" fill="#ffe7c5" rx="2"><title>2025-12-22: 45 active episodes</title></rect>
  <rect x="744" y="34" width="11" height="11" fill="#ffe6c3" rx="2"><title>2025-12-23: 50 active episodes</title></rect>
  <rect x="744" y="48" width="11" height="11" fill="#ffe8c9" rx="2"><title>2025-12-24: 37 active episodes</title></rect>
  <rect x="744" y="62" width="11" height="11" fill="#feefd7" rx="2"><title>2025-12-25: 6 active episodes</title></rect>
  <rect x="744" y="76" width="11" height="11" fill="#fef0d9" rx="2"><title>2025-12-26: 2 active episodes</title></rect>
  <rect x="744" y="90" width="11" height="11" fill="#ffe7c5" rx="2"><title>2025-12-27: 45 active episodes</title></rect>
  <rect x="744" y="104" width="11" height="11" fill="#feecd0" rx="2"><title>2025-12-28: 21 active episodes</title></rect>
  <rect x="758" y="20" width="11" height="11" fill="#ffebcf" rx="2"><title>2025-12-29: 23 active episodes</title></rect>
  <rect x="758" y="34" width="11" height="11" fill="#ffe6c2" rx="2"><title>2025-12-30: 51 active episodes</title></rect>
  <rect x="758" y="48" width="11" height="11" fill="#ffdfb5" rx="2"><title>2025-12-31: 81 active episodes</title></rect>
  <text x="30" y="133" class="title">2025 - 18125 hot water episodes</text>
  <defs>
    <linearGradient id="legend-gradient" x1="0" y1="0" x2="1" y2="0">
      <stop offset="0%" stop-color="#fef0d9"/>
      <stop offset="33.33333333333333%" stop-color="#fdcc8a"/>
      <stop offset="66.66666666666666%" stop-color="#fc8d59"/>
      <stop offset="100%" stop-color="#d7301f"/>
    </linearGradient>
  </defs>
  <text x="560" y="133" class="legend">No data</text>
  <rect x="602" y="123" width="11" height="11" fill="#484f58" rx="2"/>
  <text x="632" y="133" class="legend">Less</text>
  <rect x="662" y="123" width="11" height="11" fill="#161b22" rx="2"/>
  <rect x="676" y="123" width="53" height="11" fill="url(#legend-gradient)" rx="2"/>
  <text x="737" y="133" class="legend">More</text>
</svg>