<svg width="782" height="148" xmlns="http://www.w3.org/2000/svg">
  <style>
    .month { font: 10px sans-serif; fill: #8b949e; }
    .day { font: 10px sans-serif; fill: #8b949e; }
    .title { font: bold 14px sans-serif; fill: #c9d1d9; }
    .legend { font: 10px sans-serif; fill: #8b949e; }
  </style>
  <rect width="100%" height="100%" fill="#0d1117"/>
  <text x="0" y="29" class="day">Mon</text>
  <text x="0" y="57" class="day">Wed</text>
  <text x="0" y="85" class="day">Fri</text>
  <text x="0" y="113" class="day">Sun</text>
  <text x="30" y="15" class="month">Jan</text>
  <text x="100" y="15" class="month">Feb</text>
  <text x="156" y="15" class="month">Mar</text>
  <text x="212" y="15" class="month">Apr</text>
  <text x="282" y="15" class="month">May</text>
  <text x="338" y="15" class="month">Jun</text>
  <text x="394" y="15" class="month">Jul</text>
  <text x="464" y="15" class="month">Aug</text>
  <text x="520" y="15" class="month">Sep</text>
  <text x="576" y="15" class="month">Oct</text>
  <text x="646" y="15" class="month">Nov</text>
  <text x="702" y="15" class="month">Dec</text>
  <rect x="30" y="104" width="11" height="11" fill="#161b22" rx="2"><title>2023-01-01: 0 active episodes</title></rect>
  <rect x="44" y="20" width="11" height="11" fill="#fef0d9" rx="2"><title>2023-01-02: 1 active episode</title></rect>
  <rect x="44" y="34" width="11" height="11" fill="#fee4be" rx="2"><title>2023-01-03: 60 active episodes</title></rect>
  <rect x="44" y="48" width="11" height="11" fill="#fdddb0" rx="2"><title>2023-01-04: 91 active episodes</title></rect>
  <rect x="44" y="62" width="11" height="11" fill="#fee0b7" rx="2"><title>2023-01-05: 76 active episodes</title></rect>
  <rect x="44" y="76" width="11" height="11" fill="#fee6c4" rx="2"><title>2023-01-06: 48 active episodes</title></rect>
  <rect x="44" y="90" width="11" height="11" fill="#feebce" rx="2"><title>2023-01-07: 26 active episodes</title></rect>
  <rect x="44" y="104" width="11" height="11" fill="#feefd8" rx="2"><title>2023-01-08: 4 active episodes</title></rect>
  <rect x="58" y="20" width="11" height="11" fill="#fedeb2" rx="2"><title>2023-01-09: 88 active episodes</title></rect>
  <rect x="58" y="34" width="11" height="11" fill="#fee3bd" rx="2"><title>2023-01-10: 63 active episodes</title></rect>
  <rect x="58" y="48" width="11" height="11" fill="#fee0b7" rx="2"><title>2023-01-11: 76 active episodes</title></rect>
  <rect x="58" y="62" width="11" height="11" fill="#fee0b5" rx="2"><title>2023-01-12: 80 active episodes</title></rect>
  <rect x="58" y="76" width="11" height="11" fill="#fee1b8" rx="2"><title>2023-01-13: 73 active episodes</title></rect>
  <rect x="58" y="90" width="11" height="11" fill="#feeacc" rx="2"><title>2023-01-14: 30 active episodes</title></rect>
  <rect x="58" y="104" width="11" height="11" fill="#feecd1" rx="2"><title>2023-01-15: 18 active episodes</title></rect>
  <rect x="72" y="20" width="11" height="11" fill="#fee6c3" rx="2"><title>2023-01-16: 50 active episodes</title></rect>
  <rect x="72" y="34" width="11" height="11" fill="#fee4bf" rx="2"><title>2023-01-17: 58 active episodes</title></rect>
  <rect x="72" y="48" width="11" height="11" fill="#fee0b5" rx="2"><title>2023-01-18: 80 active episodes</title></rect>
  <rect x="72" y="62" width="11" height="11" fill="#fdddb0" rx="2"><title>2023-01-19: 92 active episodes</title></rect>
  <rect x="72" y="76" width="11" height="11" fill="#fee3bd" rx="2"><title>2023-01-20: 62 active episodes</title></rect>
  <rect x="72" y="90" width="11" height="11" fill="#feeed4" rx="2"><title>2023-01-21: 13 active episodes</title></rect>
  <rect x="72" y="104" width="11" height="11" fill="#fef0d8" rx="2"><title>2023-01-22: 3 active episodes</title></rect>
  <rect x="86" y="20" width="11" height="11" fill="#feefd8" rx="2"><title>2023-01-23: 4 active episodes</title></rect>
  <rect x="86" y="34" width="11" height="11" fill="#feeed4" rx="2"><title>2023-01-24: 12 active episodes</title></rect>
  <rect x="86" y="48" width="11" height="11" fill="#fee6c4" rx="2"><title>2023-01-25: 47 active episodes</title></rect>
  <rect x="86" y="62" width="11" height="11" fill="#fee0b7" rx="2"><title>2023-01-26: 76 active episodes</title></rect>
  <rect x="86" y="76" width="11" height="11" fill="#fee3bd" rx="2"><title>2023-01-27: 63 active episodes</title></rect>
  <rect x="86" y="90" width="11" height="11" fill="#feefd6" rx="2"><title>2023-01-28: 8 active episodes</title></rect>
  <rect x="86" y="104" width="11" height="11" fill="#feefd7" rx="2"><title>2023-01-29: 6 active episodes</title></rect>
  <rect x="100" y="20" width="11" height="11" fill="#fee8c7" rx="2"><title>2023-01-30: 40 active episodes</title></rect>
  <rect x="100" y="34" width="11" height="11" fill="#fee0b6" rx="2"><title>2023-01-31: 77 active episodes</title></rect>
  <rect x="100" y="48" width="11" height="11" fill="#fedeb2" rx="2"><title>2023-02-01: 87 active episodes</title></rect>
  <rect x="100" y="62" width="11" height="11" fill="#fee5c0" rx="2"><title>2023-02-02: 56 active episodes</title></rect>
  <rect x="100" y="76" width="11" height="11" fill="#fee4bf" rx="2"><title>2023-02-03: 59 active episodes</title></rect>
  <rect x="100" y="90" width="11" height="11" fill="#feedd2" rx="2"><title>2023-02-04: 16 active episodes</title></rect>
  <rect x="100" y="104" width="11" height="11" fill="#feefd7" rx="2"><title>2023-02-05: 6 active episodes</title></rect>
  <rect x="114" y="20" width="11" height="11" fill="#fee7c5" rx="2"><title>2023-02-06: 46 active episodes</title></rect>
  <rect x="114" y="34" width="11" height="11" fill="#fee5c1" rx="2"><title>2023-02-07: 54 active episodes</title></rect>
  <rect x="114" y="48" width="11" height="11" fill="#fee3bc" rx="2"><title>2023-02-08: 64 active episodes</title></rect>
  <rect x="114" y="62" width="11" height="11" fill="#fee9c9" rx="2"><title>2023-02-09: 37 active episodes</title></rect>
  <rect x="114" y="76" width="11" height="11" fill="#feebce" rx="2"><title>2023-02-10: 25 active episodes</title></rect>
  <rect x="114" y="90" width="11" height="11" fill="#feefd7" rx="2"><title>2023-02-11: 5 active episodes</title></rect>
  <rect x="114" y="104" width="11" height="11" fill="#fef0d9" rx="2"><title>2023-02-12: 1 active episode</title></rect>
  <rect x="128" y="20" width="11" height="11" fill="#fdba7c" rx="2"><title>2023-02-13: 226 active episodes</title></rect>
  <rect x="128" y="34" width="11" height="11" fill="#fdc988" rx="2"><title>2023-02-14: 182 active episodes</title></rect>
  <rect x="128" y="48" width="11" height="11" fill="#fdd49c" rx="2"><title>2023-02-15: 135 active episodes</title></rect>
  <rect x="128" y="62" width="11" height="11" fill="#fdd298" rx="2"><title>2023-02-16: 144 active episodes</title></rect>
  <rect x="128" y="76" width="11" height="11" fill="#fdddaf" rx="2"><title>2023-02-17: 94 active episodes</title></rect>
  <rect x="128" y="90" width="11" height="11" fill="#feeacd" rx="2"><title>2023-02-18: 28 active episodes</title></rect>
  <rect x="128" y="104" width="11" height="11" fill="#feecd0" rx="2"><title>2023-02-19: 20 active episodes</title></rect>
  <rect x="142" y="20" width="11" height="11" fill="#fdd7a1" rx="2"><title>2023-02-20: 124 active episodes</title></rect>
  <rect x="142" y="34" width="11" height="11" fill="#fdd39a" rx="2"><title>2023-02-21: 139 active episodes</title></rect>
  <rect x="142" y="48" width="11" height="11" fill="#fdd8a4" rx="2"><title>2023-02-22: 118 active episodes</title></rect>
  <rect x="142" y="62" width="11" height="11" fill="#fddcad" rx="2"><title>2023-02-23: 99 active episodes</title></rect>
  <rect x="142" y="76" width="11" height="11" fill="#fee2bb" rx="2"><title>2023-02-24: 67 active episodes</title></rect>
  <rect x="142" y="90" width="11" height="11" fill="#feecd1" rx="2"><title>2023-02-25: 19 active episodes</title></rect>
  <rect x="142" y="104" width="11" height="11" fill="#fee6c3" rx="2"><title>2023-02-26: 49 active episodes</title></rect>
  <rect x="156" y="20" width="11" height="11" fill="#fddbac" rx="2"><title>2023-02-27: 101 active episodes</title></rect>
  <rect x="156" y="34" width="11" height="11" fill="#fdd6a0" rx="2"><title>2023-02-28: 126 active episodes</title></rect>
  <rect x="156" y="48" width="11" height="11" fill="#fee1b7" rx="2"><title>2023-03-01: 75 active episodes</title></rect>
  <rect x="156" y="62" width="11" height="11" fill="#fdddb0" rx="2"><title>2023-03-02: 91 active episodes</title></rect>
  <rect x="156" y="76" width="11" height="11" fill="#fee7c6" rx="2"><title>2023-03-03: 43 active episodes</title></rect>
  <rect x="156" y="90" width="11" height="11" fill="#fef0d9" rx="2"><title>2023-03-04: 2 active episodes</title></rect>
  <rect x="156" y="104" width="11" height="11" fill="#feefd7" rx="2"><title>2023-03-05: 5 active episodes</title></rect>
  <rect x="170" y="20" width="11" height="11" fill="#fee5c1" rx="2"><title>2023-03-06: 54 active episodes</title></rect>
  <rect x="170" y="34" width="11" height="11" fill="#fee1b7" rx="2"><title>2023-03-07: 75 active episodes</title></rect>
  <rect x="170" y="48" width="11" height="11" fill="#fedeb2" rx="2"><title>2023-03-08: 86 active episodes</title></rect>
  <rect x="170" y="62" width="11" height="11" fill="#fddcad" rx="2"><title>2023-03-09: 97 active episodes</title></rect>
  <rect x="170" y="76" width="11" height="11" fill="#fee2ba" rx="2"><title>2023-03-10: 69 active episodes</title></rect>
  <rect x="170" y="90" width="11" height="11" fill="#feefd7" rx="2"><title>2023-03-11: 6 active episodes</title></rect>
  <rect x="170" y="104" width="11" height="11" fill="#feeed5" rx="2"><title>2023-03-12: 10 active episodes</title></rect>
  <rect x="184" y="20" width="11" height="11" fill="#fddcad" rx="2"><title>2023-03-13: 97 active episodes</title></rect>
  <rect x="184" y="34" width="11" height="11" fill="#fddaa8" rx="2"><title>2023-03-14: 108 active episodes</title></rect>
  <rect x="184" y="48" width="11" height="11" fill="#fdd7a3" rx="2"><title>2023-03-15: 121 active episodes</title></rect>
  <rect x="184" y="62" width="11" height="11" fill="#fdd8a4" rx="2"><title>2023-03-16: 117 active episodes</title></rect>
  <rect x="184" y="76" width="11" height="11" fill="#fddaa9" rx="2"><title>2023-03-17: 106 active episodes</title></rect>
  <rect x="184" y="90" width="11" height="11" fill="#feedd3" rx="2"><title>2023-03-18: 15 active episodes</title></rect>
  <rect x="184" y="104" width="11" height="11" fill="#feeed4" rx="2"><title>2023-03-19: 11 active episodes</title></rect>
  <rect x="198" y="20" width="11" height="11" fill="#fddbaa" rx="2"><title>2023-03-20: 104 active episodes</title></rect>
  <rect x="198" y="34" width="11" height="11" fill="#fdd49c" rx="2"><title>2023-03-21: 136 active episodes</title></rect>
  <rect x="198" y="48" width="11" height="11" fill="#fdd69f" rx="2"><title>2023-03-22: 128 active episodes</title></rect>
  <rect x="198" y="62" width="11" height="11" fill="#fdcf91" rx="2"><title>2023-03-23: 159 active episodes</title></rect>
  <rect x="198" y="76" width="11" height="11" fill="#fedfb4" rx="2"><title>2023-03-24: 82 active episodes</title></rect>
  <rect x="198" y="90" width="11" height="11" fill="#feedd2" rx="2"><title>2023-03-25: 17 active episodes</title></rect>
  <rect x="198" y="104" width="11" height="11" fill="#fef0d8" rx="2"><title>2023-03-26: 3 active episodes</title></rect>
  <rect x="212" y="20" width="11" height="11" fill="#fedfb3" rx="2"><title>2023-03-27: 84 active episodes</title></rect>
  <rect x="212" y="34" width="11" height="11" fill="#fddcae" rx="2"><title>2023-03-28: 96 active episodes</title></rect>
  <rect x="212" y="48" width="11" height="11" fill="#fedfb3" rx="2"><title>2023-03-29: 84 active episodes</title></rect>
  <rect x="212" y="62" width="11" height="11" fill="#fdd298" rx="2"><title>2023-03-30: 144 active episodes</title></rect>
  <rect x="212" y="76" width="11" height="11" fill="#fddbaa" rx="2"><title>2023-03-31: 104 active episodes</title></rect>
  <rect x="212" y="90" width="11" height="11" fill="#feeed5" rx="2"><title>2023-04-01: 9 active episodes</title></rect>
  <rect x="212" y="104" width="11" height="11" fill="#feedd2" rx="2"><title>2023-04-02: 17 active episodes</title></rect>
  <rect x="226" y="20" width="11" height="11" fill="#fee4be" rx="2"><title>2023-04-03: 61 active episodes</title></rect>
  <rect x="226" y="34" width="11" height="11" fill="#fedfb3" rx="2"><title>2023-04-04: 84 active episodes</title></rect>
  <rect x="226" y="48" width="11" height="11" fill="#fee8c6" rx="2"><title>2023-04-05: 42 active episodes</title></rect>
  <rect x="226" y="62" width="11" height="11" fill="#fedfb3" rx="2"><title>2023-04-06: 85 active episodes</title></rect>
  <rect x="226" y="76" width="11" height="11" fill="#fee3bd" rx="2"><title>2023-04-07: 62 active episodes</title></rect>
  <rect x="226" y="90" width="11" height="11" fill="#feeed5" rx="2"><title>2023-04-08: 10 active episodes</title></rect>
  <rect x="226" y="104" width="11" height="11" fill="#feefd7" rx="2"><title>2023-04-09: 6 active episodes</title></rect>
  <rect x="240" y="20" width="11" height="11" fill="#fee2b9" rx="2"><title>2023-04-10: 71 active episodes</title></rect>
  <rect x="240" y="34" width="11" height="11" fill="#fee3bd" rx="2"><title>2023-04-11: 63 active episodes</title></rect>
  <rect x="240" y="48" width="11" height="11" fill="#fee3bd" rx="2"><title>2023-04-12: 63 active episodes</title></rect>
  <rect x="240" y="62" width="11" height="11" fill="#feeed4" rx="2"><title>2023-04-13: 11 active episodes</title></rect>
  <rect x="240" y="76" width="11" height="11" fill="#484f58" rx="2"><title>2023-04-14: no data</title></rect>
  <rect x="240" y="90" width="11" height="11" fill="#fef0d9" rx="2"><title>2023-04-15: 1 active episode</title></rect>
  <rect x="240" y="104" width="11" height="11" fill="#161b22" rx="2"><title>2023-04-16: 0 active episodes</title></rect>
  <rect x="254" y="20" width="11" height="11" fill="#484f58" rx="2"><title>2023-04-17: no data</title></rect>
  <rect x="254" y="34" width="11" height="11" fill="#fdddaf" rx="2"><title>2023-04-18: 94 active episodes</title></rect>
  <rect x="254" y="48" width="11" height="11" fill="#fddaaa" rx="2"><title>2023-04-19: 105 active episodes</title></rect>
  <rect x="254" y="62" width="11" height="11" fill="#fdba7c" rx="2"><title>2023-04-20: 225 active episodes</title></rect>
  <rect x="254" y="76" width="11" height="11" fill="#fdc685" rx="2"><title>2023-04-21: 192 active episodes</title></rect>
  <rect x="254" y="90" width="11" height="11" fill="#fdd8a4" rx="2"><title>2023-04-22: 117 active episodes</title></rect>
  <rect x="254" y="104" width="11" height="11" fill="#fdd6a0" rx="2"><title>2023-04-23: 127 active episodes</title></rect>
  <rect x="268" y="20" width="11" height="11" fill="#fdd49b" rx="2"><title>2023-04-24: 137 active episodes</title></rect>
  <rect x="268" y="34" width="11" height="11" fill="#fdcc8a" rx="2"><title>2023-04-25: 174 active episodes</title></rect>
  <rect x="268" y="48" width="11" height="11" fill="#fdcc8a" rx="2"><title>2023-04-26: 176 active episodes</title></rect>
  <rect x="268" y="62" width="11" height="11" fill="#fdc383" rx="2"><title>2023-04-27: 199 active episodes</title></rect>
  <rect x="268" y="76" width="11" height="11" fill="#fdd49d" rx="2"><title>2023-04-28: 134 active episodes</title></rect>
  <rect x="268" y="90" width="11" height="11" fill="#fdd8a4" rx="2"><title>2023-04-29: 118 active episodes</title></rect>
  <rect x="268" y="104" width="11" height="11" fill="#fee9ca" rx="2"><title>2023-04-30: 33 active episodes</title></rect>
  <rect x="282" y="20" width="11" height="11" fill="#fee6c3" rx="2"><title>2023-05-01: 50 active episodes</title></rect>
  <rect x="282" y="34" width="11" height="11" fill="#fdc282" rx="2"><title>2023-05-02: 204 active episodes</title></rect>
  <rect x="282" y="48" width="11" height="11" fill="#df442b" rx="2"><title>2023-05-03: 486 active episodes</title></rect>
  <rect x="282" y="62" width="11" height="11" fill="#e95d3b" rx="2"><title>2023-05-04: 438 active episodes</title></rect>
  <rect x="282" y="76" width="11" height="11" fill="#e85c3a" rx="2"><title>2023-05-05: 441 active episodes</title></rect>
  <rect x="282" y="90" width="11" height="11" fill="#ef6d45" rx="2"><title>2023-05-06: 409 active episodes</title></rect>
  <rect x="282" y="104" width="11" height="11" fill="#f88353" rx="2"><title>2023-05-07: 368 active episodes</title></rect>
  <rect x="296" y="20" width="11" height="11" fill="#f57b4e" rx="2"><title>2023-05-08: 382 active episodes</title></rect>
  <rect x="296" y="34" width="11" height="11" fill="#fdcb89" rx="2"><title>2023-05-09: 178 active episodes</title></rect>
  <rect x="296" y="48" width="11" height="11" fill="#fdce8f" rx="2"><title>2023-05-10: 164 active episodes</title></rect>
  <rect x="296" y="62" width="11" height="11" fill="#fdb779" rx="2"><title>2023-05-11: 234 active episodes</title></rect>
  <rect x="296" y="76" width="11" height="11" fill="#fdd7a2" rx="2"><title>2023-05-12: 123 active episodes</title></rect>
  <rect x="296" y="90" width="11" height="11" fill="#fee4be" rx="2"><title>2023-05-13: 61 active episodes</title></rect>
  <rect x="296" y="104" width="11" height="11" fill="#fedeb2" rx="2"><title>2023-05-14: 86 active episodes</title></rect>
  <rect x="310" y="20" width="11" height="11" fill="#fc8d59" rx="2"><title>2023-05-15: 348 active episodes</title></rect>
  <rect x="310" y="34" width="11" height="11" fill="#f57b4e" rx="2"><title>2023-05-16: 382 active episodes</title></rect>
  <rect x="310" y="48" width="11" height="11" fill="#fdb477" rx="2"><title>2023-05-17: 241 active episodes</title></rect>
  <rect x="310" y="62" width="11" height="11" fill="#fdc887" rx="2"><title>2023-05-18: 186 active episodes</title></rect>
  <rect x="310" y="76" width="11" height="11" fill="#fdd296" rx="2"><title>2023-05-19: 148 active episodes</title></rect>
  <rect x="310" y="90" width="11" height="11" fill="#fdd7a2" rx="2"><title>2023-05-20: 123 active episodes</title></rect>
  <rect x="310" y="104" width="11" height="11" fill="#fdb578" rx="2"><title>2023-05-21: 239 active episodes</title></rect>
  <rect x="324" y="20" width="11" height="11" fill="#f78151" rx="2"><title>2023-05-22: 372 active episodes</title></rect>
  <rect x="324" y="34" width="11" height="11" fill="#fdb377" rx="2"><title>2023-05-23: 243 active episodes</title></rect>
  <rect x="324" y="48" width="11" height="11" fill="#fdae72" rx="2"><title>2023-05-24: 259 active episodes</title></rect>
  <rect x="324" y="62" width="11" height="11" fill="#fdb679" rx="2"><title>2023-05-25: 235 active episodes</title></rect>
  <rect x="324" y="76" width="11" height="11" fill="#fdd9a6" rx="2"><title>2023-05-26: 114 active episodes</title></rect>
  <rect x="324" y="90" width="11" height="11" fill="#fee1b9" rx="2"><title>2023-05-27: 72 active episodes</title></rect>
  <rect x="324" y="104" width="11" height="11" fill="#fee5c0" rx="2"><title>2023-05-28: 56 active episodes</title></rect>
  <rect x="338" y="20" width="11" height="11" fill="#fdd7a2" rx="2"><title>2023-05-29: 123 active episodes</title></rect>
  <rect x="338" y="34" width="11" height="11" fill="#fdcd8c" rx="2"><title>2023-05-30: 171 active episodes</title></rect>
  <rect x="338" y="48" width="11" height="11" fill="#fdcd8d" rx="2"><title>2023-05-31: 169 active episodes</title></rect>
  <rect x="338" y="62" width="11" height="11" fill="#fee5c2" rx="2"><title>2023-06-01: 52 active episodes</title></rect>
  <rect x="338" y="76" width="11" height="11" fill="#fee4c0" rx="2"><title>2023-06-02: 57 active episodes</title></rect>
  <rect x="338" y="90" width="11" height="11" fill="#fee3bd" rx="2"><title>2023-06-03: 62 active episodes</title></rect>
  <rect x="338" y="104" width="11" height="11" fill="#fee8c7" rx="2"><title>2023-06-04: 41 active episodes</title></rect>
  <rect x="352" y="20" width="11" height="11" fill="#fee5c1" rx="2"><title>2023-06-05: 53 active episodes</title></rect>
  <rect x="352" y="34" width="11" height="11" fill="#fdc484" rx="2"><title>2023-06-06: 198 active episodes</title></rect>
  <rect x="352" y="48" width="11" height="11" fill="#fca168" rx="2"><title>2023-06-07: 295 active episodes</title></rect>
  <rect x="352" y="62" width="11" height="11" fill="#fcaa6f" rx="2"><title>2023-06-08: 270 active episodes</title></rect>
  <rect x="352" y="76" width="11" height="11" fill="#fdc383" rx="2"><title>2023-06-09: 199 active episodes</title></rect>
  <rect x="352" y="90" width="11" height="11" fill="#fdd69f" rx="2"><title>2023-06-10: 129 active episodes</title></rect>
  <rect x="352" y="104" width="11" height="11" fill="#fdd7a3" rx="2"><title>2023-06-11: 120 active episodes</title></rect>
  <rect x="366" y="20" width="11" height="11" fill="#fdd69f" rx="2"><title>2023-06-12: 129 active episodes</title></rect>
  <rect x="366" y="34" width="11" height="11" fill="#fdd297" rx="2"><title>2023-06-13: 147 active episodes</title></rect>
  <rect x="366" y="48" width="11" height="11" fill="#fdcf91" rx="2"><title>2023-06-14: 160 active episodes</title></rect>
  <rect x="366" y="62" width="11" height="11" fill="#fdce8e" rx="2"><title>2023-06-15: 166 active episodes</title></rect>
  <rect x="366" y="76" width="11" height="11" fill="#fdd49c" rx="2"><title>2023-06-16: 136 active episodes</title></rect>
  <rect x="366" y="90" width="11" height="11" fill="#fdd9a7" rx="2"><title>2023-06-17: 111 active episodes</title></rect>
  <rect x="366" y="104" width="11" height="11" fill="#fdddb0" rx="2"><title>2023-06-18: 91 active episodes</title></rect>
  <rect x="380" y="20" width="11" height="11" fill="#fdd8a4" rx="2"><title>2023-06-19: 117 active episodes</title></rect>
  <rect x="380" y="34" width="11" height="11" fill="#fdddb0" rx="2"><title>2023-06-20: 92 active episodes</title></rect>
  <rect x="380" y="48" width="11" height="11" fill="#fedeb2" rx="2"><title>2023-06-21: 86 active episodes</title></rect>
  <rect x="380" y="62" width="11" height="11" fill="#fdcd8b" rx="2"><title>2023-06-22: 172 active episodes</title></rect>
  <rect x="380" y="76" width="11" height="11" fill="#fee0b6" rx="2"><title>2023-06-23: 79 active episodes</title></rect>
  <rect x="380" y="90" width="11" height="11" fill="#fee9c9" rx="2"><title>2023-06-24: 36 active episodes</title></rect>
  <rect x="380" y="104" width="11" height="11" fill="#fee7c5" rx="2"><title>2023-06-25: 46 active episodes</title></rect>
  <rect x="394" y="20" width="11" height="11" fill="#fdd49c" rx="2"><title>2023-06-26: 136 active episodes</title></rect>
  <rect x="394" y="34" width="11" height="11" fill="#fdd49c" rx="2"><title>2023-06-27: 135 active episodes</title></rect>
  <rect x="394" y="48" width="11" height="11" fill="#fdd8a5" rx="2"><title>2023-06-28: 116 active episodes</title></rect>
  <rect x="394" y="62" width="11" height="11" fill="#fee1b7" rx="2"><title>2023-06-29: 75 active episodes</title></rect>
  <rect x="394" y="76" width="11" height="11" fill="#fee1b8" rx="2"><title>2023-06-30: 74 active episodes</title></rect>
  <rect x="394" y="90" width="11" height="11" fill="#fee5c0" rx="2"><title>2023-07-01: 56 active episodes</title></rect>
  <rect x="394" y="104" width="11" height="11" fill="#fdd298" rx="2"><title>2023-07-02: 144 active episodes</title></rect>
  <rect x="408" y="20" width="11" height="11" fill="#fdd196" rx="2"><title>2023-07-03: 149 active episodes</title></rect>
  <rect x="408" y="34" width="11" height="11" fill="#fdd7a2" rx="2"><title>2023-07-04: 122 active episodes</title></rect>
  <rect x="408" y="48" width="11" height="11" fill="#fdd8a3" rx="2"><title>2023-07-05: 119 active episodes</title></rect>
  <rect x="408" y="62" width="11" height="11" fill="#fee2ba" rx="2"><title>2023-07-06: 70 active episodes</title></rect>
  <rect x="408" y="76" width="11" height="11" fill="#fee4bf" rx="2"><title>2023-07-07: 58 active episodes</title></rect>
  <rect x="408" y="90" width="11" height="11" fill="#fee8c6" rx="2"><title>2023-07-08: 42 active episodes</title></rect>
  <rect x="408" y="104" width="11" height="11" fill="#fee5c0" rx="2"><title>2023-07-09: 55 active episodes</title></rect>
  <rect x="422" y="20" width="11" height="11" fill="#fedfb3" rx="2"><title>2023-07-10: 85 active episodes</title></rect>
  <rect x="422" y="34" width="11" height="11" fill="#fdd297" rx="2"><title>2023-07-11: 146 active episodes</title></rect>
  <rect x="422" y="48" width="11" height="11" fill="#fdd298" rx="2"><title>2023-07-12: 144 active episodes</title></rect>
  <rect x="422" y="62" width="11" height="11" fill="#fdcb89" rx="2"><title>2023-07-13: 178 active episodes</title></rect>
  <rect x="422" y="76" width="11" height="11" fill="#fdc080" rx="2"><title>2023-07-14: 209 active episodes</title></rect>
  <rect x="422" y="90" width="11" height="11" fill="#fdd8a5" rx="2"><title>2023-07-15: 116 active episodes</title></rect>
  <rect x="422" y="104" width="11" height="11" fill="#fedfb3" rx="2"><title>2023-07-16: 85 active episodes</title></rect>
  <rect x="436" y="20" width="11" height="11" fill="#fca96e" rx="2"><title>2023-07-17: 273 active episodes</title></rect>
  <rect x="436" y="34" width="11" height="11" fill="#fdbb7c" rx="2"><title>2023-07-18: 223 active episodes</title></rect>
  <rect x="436" y="48" width="11" height="11" fill="#fdbc7e" rx="2"><title>2023-07-19: 219 active episodes</title></rect>
  <rect x="436" y="62" width="11" height="11" fill="#fdce8f" rx="2"><title>2023-07-20: 165 active episodes</title></rect>
  <rect x="436" y="76" width="11" height="11" fill="#fdd6a1" rx="2"><title>2023-07-21: 125 active episodes</title></rect>
  <rect x="436" y="90" width="11" height="11" fill="#fee2ba" rx="2"><title>2023-07-22: 70 active episodes</title></rect>
  <rect x="436" y="104" width="11" height="11" fill="#fee5c0" rx="2"><title>2023-07-23: 56 active episodes</title></rect>
  <rect x="450" y="20" width="11" height="11" fill="#fee0b7" rx="2"><title>2023-07-24: 76 active episodes</title></rect>
  <rect x="450" y="34" width="11" height="11" fill="#fddbab" rx="2"><title>2023-07-25: 103 active episodes</title></rect>
  <rect x="450" y="48" width="11" height="11" fill="#fdce8f" rx="2"><title>2023-07-26: 165 active episodes</title></rect>
  <rect x="450" y="62" width="11" height="11" fill="#fdcb89" rx="2"><title>2023-07-27: 178 active episodes</title></rect>
  <rect x="450" y="76" width="11" height="11" fill="#fdcc8a" rx="2"><title>2023-07-28: 176 active episodes</title></rect>
  <rect x="450" y="90" width="11" height="11" fill="#fdd399" rx="2"><title>2023-07-29: 141 active episodes</title></rect>
  <rect x="450" y="104" width="11" height="11" fill="#fee7c6" rx="2"><title>2023-07-30: 43 active episodes</title></rect>
  <rect x="464" y="20" width="11" height="11" fill="#fee1b7" rx="2"><title>2023-07-31: 75 active episodes</title></rect>
  <rect x="464" y="34" width="11" height="11" fill="#e34d31" rx="2"><title>2023-08-01: 468 active episodes</title></rect>
  <rect x="464" y="48" width="11" height="11" fill="#db3a25" rx="2"><title>2023-08-02: 504 active episodes</title></rect>
  <rect x="464" y="62" width="11" height="11" fill="#d7301f" rx="2"><title>2023-08-03: 523 active episodes</title></rect>
  <rect x="464" y="76" width="11" height="11" fill="#d73120" rx="2"><title>2023-08-04: 521 active episodes</title></rect>
  <rect x="464" y="90" width="11" height="11" fill="#ea613d" rx="2"><title>2023-08-05: 432 active episodes</title></rect>
  <rect x="464" y="104" width="11" height="11" fill="#f06f46" rx="2"><title>2023-08-06: 406 active episodes</title></rect>
  <rect x="478" y="20" width="11" height="11" fill="#fc9761" rx="2"><title>2023-08-07: 321 active episodes</title></rect>
  <rect x="478" y="34" width="11" height="11" fill="#fc9761" rx="2"><title>2023-08-08: 321 active episodes</title></rect>
  <rect x="478" y="48" width="11" height="11" fill="#fc9761" rx="2"><title>2023-08-09: 321 active episodes</title></rect>
  <rect x="478" y="62" width="11" height="11" fill="#fc9761" rx="2"><title>2023-08-10: 321 active episodes</title></rect>
  <rect x="478" y="76" width="11" height="11" fill="#fc9761" rx="2"><title>2023-08-11: 321 active episodes</title></rect>
  <rect x="478" y="90" width="11" height="11" fill="#fc9761" rx="2"><title>2023-08-12: 321 active episodes</title></rect>
  <rect x="478" y="104" width="11" height="11" fill="#fc9761" rx="2"><title>2023-08-13: 321 active episodes</title></rect>
  <rect x="492" y="20" width="11" height="11" fill="#fc9761" rx="2"><title>2023-08-14: 321 active episodes</title></rect>
  <rect x="492" y="34" width="11" height="11" fill="#fc9761" rx="2"><title>2023-08-15: 321 active episodes</title></rect>
  <rect x="492" y="48" width="11" height="11" fill="#fa8856" rx="2"><title>2023-08-16: 359 active episodes</title></rect>
  <rect x="492" y="62" width="11" height="11" fill="#fb8a57" rx="2"><title>2023-08-17: 354 active episodes</title></rect>
  <rect x="492" y="76" width="11" height="11" fill="#fa8956" rx="2"><title>2023-08-18: 357 active episodes</title></rect>
  <rect x="492" y="90" width="11" height="11" fill="#fc9660" rx="2"><title>2023-08-19: 325 active episodes</title></rect>
  <rect x="492" y="104" width="11" height="11" fill="#fc9862" rx="2"><title>2023-08-20: 318 active episodes</title></rect>
  <rect x="506" y="20" width="11" height="11" fill="#fc8e5a" rx="2"><title>2023-08-21: 346 active episodes</title></rect>
  <rect x="506" y="34" width="11" height="11" fill="#fc905b" rx="2"><title>2023-08-22: 342 active episodes</title></rect>
  <rect x="506" y="48" width="11" height="11" fill="#fdd69f" rx="2"><title>2023-08-23: 129 active episodes</title></rect>
  <rect x="506" y="62" width="11" height="11" fill="#fdd298" rx="2"><title>2023-08-24: 145 active episodes</title></rect>
  <rect x="506" y="76" width="11" height="11" fill="#fdd59e" rx="2"><title>2023-08-25: 132 active episodes</title></rect>
  <rect x="506" y="90" width="11" height="11" fill="#fee2bb" rx="2"><title>2023-08-26: 67 active episodes</title></rect>
  <rect x="506" y="104" width="11" height="11" fill="#fee5c1" rx="2"><title>2023-08-27: 53 active episodes</title></rect>
  <rect x="520" y="20" width="11" height="11" fill="#fdd6a0" rx="2"><title>2023-08-28: 126 active episodes</title></rect>
  <rect x="520" y="34" width="11" height="11" fill="#fdd49c" rx="2"><title>2023-08-29: 135 active episodes</title></rect>
  <rect x="520" y="48" width="11" height="11" fill="#fdd69f" rx="2"><title>2023-08-30: 129 active episodes</title></rect>
  <rect x="520" y="62" width="11" height="11" fill="#fdd8a4" rx="2"><title>2023-08-31: 117 active episodes</title></rect>
  <rect x="520" y="76" width="11" height="11" fill="#fdd9a7" rx="2"><title>2023-09-01: 111 active episodes</title></rect>
  <rect x="520" y="90" width="11" height="11" fill="#fee6c3" rx="2"><title>2023-09-02: 50 active episodes</title></rect>
  <rect x="520" y="104" width="11" height="11" fill="#fee6c4" rx="2"><title>2023-09-03: 47 active episodes</title></rect>
  <rect x="534" y="20" width="11" height="11" fill="#fdcc8a" rx="2"><title>2023-09-04: 174 active episodes</title></rect>
  <rect x="534" y="34" width="11" height="11" fill="#fdba7c" rx="2"><title>2023-09-05: 225 active episodes</title></rect>
  <rect x="534" y="48" width="11" height="11" fill="#fdd49c" rx="2"><title>2023-09-06: 135 active episodes</title></rect>
  <rect x="534" y="62" width="11" height="11" fill="#fddaa8" rx="2"><title>2023-09-07: 109 active episodes</title></rect>
  <rect x="534" y="76" width="11" height="11" fill="#fee3bd" rx="2"><title>2023-09-08: 62 active episodes</title></rect>
  <rect x="534" y="90" width="11" height="11" fill="#fee6c2" rx="2"><title>2023-09-09: 51 active episodes</title></rect>
  <rect x="534" y="104" width="11" height="11" fill="#fee1b9" rx="2"><title>2023-09-10: 72 active episodes</title></rect>
  <rect x="548" y="20" width="11" height="11" fill="#fddeb1" rx="2"><title>2023-09-11: 90 active episodes</title></rect>
  <rect x="548" y="34" width="11" height="11" fill="#fddbac" rx="2"><title>2023-09-12: 101 active episodes</title></rect>
  <rect x="548" y="48" width="11" height="11" fill="#fdbd7e" rx="2"><title>2023-09-13: 216 active episodes</title></rect>
  <rect x="548" y="62" width="11" height="11" fill="#fdb77a" rx="2"><title>2023-09-14: 232 active episodes</title></rect>
  <rect x="548" y="76" width="11" height="11" fill="#fdbe7f" rx="2"><title>2023-09-15: 214 active episodes</title></rect>
  <rect x="548" y="90" width="11" height="11" fill="#fdc887" rx="2"><title>2023-09-16: 186 active episodes</title></rect>
  <rect x="548" y="104" width="11" height="11" fill="#fdcd8c" rx="2"><title>2023-09-17: 171 active episodes</title></rect>
  <rect x="562" y="20" width="11" height="11" fill="#fdc585" rx="2"><title>2023-09-18: 194 active episodes</title></rect>
  <rect x="562" y="34" width="11" height="11" fill="#fdc685" rx="2"><title>2023-09-19: 191 active episodes</title></rect>
  <rect x="562" y="48" width="11" height="11" fill="#fdcb89" rx="2"><title>2023-09-20: 179 active episodes</title></rect>
  <rect x="562" y="62" width="11" height="11" fill="#fdd9a6" rx="2"><title>2023-09-21: 113 active episodes</title></rect>
  <rect x="562" y="76" width="11" height="11" fill="#fee2b9" rx="2"><title>2023-09-22: 71 active episodes</title></rect>
  <rect x="562" y="90" width="11" height="11" fill="#feeacc" rx="2"><title>2023-09-23: 30 active episodes</title></rect>
  <rect x="562" y="104" width="11" height="11" fill="#fee8c7" rx="2"><title>2023-09-24: 41 active episodes</title></rect>
  <rect x="576" y="20" width="11" height="11" fill="#fee2bb" rx="2"><title>2023-09-25: 67 active episodes</title></rect>
  <rect x="576" y="34" width="11" height="11" fill="#fedfb4" rx="2"><title>2023-09-26: 83 active episodes</title></rect>
  <rect x="576" y="48" width="11" height="11" fill="#fee1b8" rx="2"><title>2023-09-27: 73 active episodes</title></rect>
  <rect x="576" y="62" width="11" height="11" fill="#fddbab" rx="2"><title>2023-09-28: 103 active episodes</title></rect>
  <rect x="576" y="76" width="11" height="11" fill="#fee0b7" rx="2"><title>2023-09-29: 76 active episodes</title></rect>
  <rect x="576" y="90" width="11" height="11" fill="#fee7c5" rx="2"><title>2023-09-30: 44 active episodes</title></rect>
  <rect x="576" y="104" width="11" height="11" fill="#fee6c3" rx="2"><title>2023-10-01: 49 active episodes</title></rect>
  <rect x="590" y="20" width="11" height="11" fill="#fee3bc" rx="2"><title>2023-10-02: 65 active episodes</title></rect>
  <rect x="590" y="34" width="11" height="11" fill="#fdd69f" rx="2"><title>2023-10-03: 128 active episodes</title></rect>
  <rect x="590" y="48" width="11" height="11" fill="#fdcb89" rx="2"><title>2023-10-04: 178 active episodes</title></rect>
  <rect x="590" y="62" width="11" height="11" fill="#fedeb2" rx="2"><title>2023-10-05: 88 active episodes</title></rect>
  <rect x="590" y="76" width="11" height="11" fill="#fee4be" rx="2"><title>2023-10-06: 60 active episodes</title></rect>
  <rect x="590" y="90" width="11" height="11" fill="#fee8c8" rx="2"><title>2023-10-07: 39 active episodes</title></rect>
  <rect x="590" y="104" width="11" height="11" fill="#fddaa8" rx="2"><title>2023-10-08: 108 active episodes</title></rect>
  <rect x="604" y="20" width="11" height="11" fill="#fddeb1" rx="2"><title>2023-10-09: 90 active episodes</title></rect>
  <rect x="604" y="34" width="11" height="11" fill="#fddbaa" rx="2"><title>2023-10-10: 104 active episodes</title></rect>
  <rect x="604" y="48" width="11" height="11" fill="#fdd8a4" rx="2"><title>2023-10-11: 118 active episodes</title></rect>
  <rect x="604" y="62" width="11" height="11" fill="#fddbac" rx="2"><title>2023-10-12: 101 active episodes</title></rect>
  <rect x="604" y="76" width="11" height="11" fill="#fee5c1" rx="2"><title>2023-10-13: 54 active episodes</title></rect>
  <rect x="604" y="90" width="11" height="11" fill="#fee7c5" rx="2"><title>2023-10-14: 45 active episodes</title></rect>
  <rect x="604" y="104" width="11" height="11" fill="#fdd8a4" rx="2"><title>2023-10-15: 118 active episodes</title></rect>
  <rect x="618" y="20" width="11" height="11" fill="#fdd8a4" rx="2"><title>2023-10-16: 117 active episodes</title></rect>
  <rect x="618" y="34" width="11" height="11" fill="#fdd399" rx="2"><title>2023-10-17: 142 active episodes</title></rect>
  <rect x="618" y="48" width="11" height="11" fill="#fdbb7d" rx="2"><title>2023-10-18: 221 active episodes</title></rect>
  <rect x="618" y="62" width="11" height="11" fill="#fdce8e" rx="2"><title>2023-10-19: 167 active episodes</title></rect>
  <rect x="618" y="76" width="11" height="11" fill="#fddaa9" rx="2"><title>2023-10-20: 106 active episodes</title></rect>
  <rect x="618" y="90" width="11" height="11" fill="#fedfb3" rx="2"><title>2023-10-21: 84 active episodes</title></rect>
  <rect x="618" y="104" width="11" height="11" fill="#fee6c4" rx="2"><title>2023-10-22: 47 active episodes</title></rect>
  <rect x="632" y="20" width="11" height="11" fill="#fdd9a6" rx="2"><title>2023-10-23: 113 active episodes</title></rect>
  <rect x="632" y="34" width="11" height="11" fill="#fdddaf" rx="2"><title>2023-10-24: 93 active episodes</title></rect>
  <rect x="632" y="48" width="11" height="11" fill="#fddcae" rx="2"><title>2023-10-25: 96 active episodes</title></rect>
  <rect x="632" y="62" width="11" height="11" fill="#fedeb2" rx="2"><title>2023-10-26: 88 active episodes</title></rect>
  <rect x="632" y="76" width="11" height="11" fill="#fee4be" rx="2"><title>2023-10-27: 61 active episodes</title></rect>
  <rect x="632" y="90" width="11" height="11" fill="#fee9ca" rx="2"><title>2023-10-28: 34 active episodes</title></rect>
  <rect x="632" y="104" width="11" height="11" fill="#fee9ca" rx="2"><title>2023-10-29: 35 active episodes</title></rect>
  <rect x="646" y="20" width="11" height="11" fill="#fddeb1" rx="2"><title>2023-10-30: 90 active episodes</title></rect>
  <rect x="646" y="34" width="11" height="11" fill="#fedeb2" rx="2"><title>2023-10-31: 86 active episodes</title></rect>
  <rect x="646" y="48" width="11" height="11" fill="#fedfb5" rx="2"><title>2023-11-01: 81 active episodes</title></rect>
  <rect x="646" y="62" width="11" height="11" fill="#fdd6a0" rx="2"><title>2023-11-02: 127 active episodes</title></rect>
  <rect x="646" y="76" width="11" height="11" fill="#fdd8a4" rx="2"><title>2023-11-03: 117 active episodes</title></rect>
  <rect x="646" y="90" width="11" height="11" fill="#fddcad" rx="2"><title>2023-11-04: 99 active episodes</title></rect>
  <rect x="646" y="104" width="11" height="11" fill="#fee8c6" rx="2"><title>2023-11-05: 42 active episodes</title></rect>
  <rect x="660" y="20" width="11" height="11" fill="#fee0b6" rx="2"><title>2023-11-06: 79 active episodes</title></rect>
  <rect x="660" y="34" width="11" height="11" fill="#fdddae" rx="2"><title>2023-11-07: 95 active episodes</title></rect>
  <rect x="660" y="48" width="11" height="11" fill="#fddaa8" rx="2"><title>2023-11-08: 109 active episodes</title></rect>
  <rect x="660" y="62" width="11" height="11" fill="#fdd49d" rx="2"><title>2023-11-09: 134 active episodes</title></rect>
  <rect x="660" y="76" width="11" height="11" fill="#fddcad" rx="2"><title>2023-11-10: 99 active episodes</title></rect>
  <rect x="660" y="90" width="11" height="11" fill="#fee1b8" rx="2"><title>2023-11-11: 73 active episodes</title></rect>
  <rect x="660" y="104" width="11" height="11" fill="#fdd9a8" rx="2"><title>2023-11-12: 110 active episodes</title></rect>
  <rect x="674" y="20" width="11" height="11" fill="#fca169" rx="2"><title>2023-11-13: 293 active episodes</title></rect>
  <rect x="674" y="34" width="11" height="11" fill="#fc9f67" rx="2"><title>2023-11-14: 300 active episodes</title></rect>
  <rect x="674" y="48" width="11" height="11" fill="#fdcd8c" rx="2"><title>2023-11-15: 170 active episodes</title></rect>
  <rect x="674" y="62" width="11" height="11" fill="#fdcd8c" rx="2"><title>2023-11-16: 170 active episodes</title></rect>
  <rect x="674" y="76" width="11" height="11" fill="#fdd093" rx="2"><title>2023-11-17: 156 active episodes</title></rect>
  <rect x="674" y="90" width="11" height="11" fill="#feebce" rx="2"><title>2023-11-18: 26 active episodes</title></rect>
  <rect x="674" y="104" width="11" height="11" fill="#fee8c7" rx="2"><title>2023-11-19: 41 active episodes</title></rect>
  <rect x="688" y="20" width="11" height="11" fill="#fddbab" rx="2"><title>2023-11-20: 103 active episodes</title></rect>
  <rect x="688" y="34" width="11" height="11" fill="#fdc786" rx="2"><title>2023-11-21: 190 active episodes</title></rect>
  <rect x="688" y="48" width="11" height="11" fill="#fdcc8a" rx="2"><title>2023-11-22: 176 active episodes</title></rect>
  <rect x="688" y="62" width="11" height="11" fill="#fdcb89" rx="2"><title>2023-11-23: 177 active episodes</title></rect>
  <rect x="688" y="76" width="11" height="11" fill="#fdd7a3" rx="2"><title>2023-11-24: 121 active episodes</title></rect>
  <rect x="688" y="90" width="11" height="11" fill="#feecd1" rx="2"><title>2023-11-25: 18 active episodes</title></rect>
  <rect x="688" y="104" width="11" height="11" fill="#feeed4" rx="2"><title>2023-11-26: 13 active episodes</title></rect>
  <rect x="702" y="20" width="11" height="11" fill="#fdce8e" rx="2"><title>2023-11-27: 167 active episodes</title></rect>
  <rect x="702" y="34" width="11" height="11" fill="#fdc484" rx="2"><title>2023-11-28: 196 active episodes</title></rect>
  <rect x="702" y="48" width="11" height="11" fill="#fdc182" rx="2"><title>2023-11-29: 205 active episodes</title></rect>
  <rect x="702" y="62" width="11" height="11" fill="#fee6c2" rx="2"><title>2023-11-30: 51 active episodes</title></rect>
  <rect x="702" y="76" width="11" height="11" fill="#feedd3" rx="2"><title>2023-12-01: 15 active episodes</title></rect>
  <rect x="702" y="90" width="11" height="11" fill="#feefd6" rx="2"><title>2023-12-02: 7 active episodes</title></rect>
  <rect x="702" y="104" width="11" height="11" fill="#feedd3" rx="2"><title>2023-12-03: 15 active episodes</title></rect>
  <rect x="716" y="20" width="11" height="11" fill="#fdc484" rx="2"><title>2023-12-04: 198 active episodes</title></rect>
  <rect x="716" y="34" width="11" height="11" fill="#fca96e" rx="2"><title>2023-12-05: 273 active episodes</title></rect>
  <rect x="716" y="48" width="11" height="11" fill="#fc9962" rx="2"><title>2023-12-06: 316 active episodes</title></rect>
  <rect x="716" y="62" width="11" height="11" fill="#fdbd7e" rx="2"><title>2023-12-07: 216 active episodes</title></rect>
  <rect x="716" y="76" width="11" height="11" fill="#fddaa8" rx="2"><title>2023-12-08: 109 active episodes</title></rect>
  <rect x="716" y="90" width="11" height="11" fill="#feecd1" rx="2"><title>2023-12-09: 18 active episodes</title></rect>
  <rect x="716" y="104" width="11" height="11" fill="#feeed4" rx="2"><title>2023-12-10: 12 active episodes</title></rect>
  <rect x="730" y="20" width="11" height="11" fill="#fdb175" rx="2"><title>2023-12-11: 249 active episodes</title></rect>
  <rect x="730" y="34" width="11" height="11" fill="#fdba7c" rx="2"><title>2023-12-12: 224 active episodes</title></rect>
  <rect x="730" y="48" width="11" height="11" fill="#fc9660" rx="2"><title>2023-12-13: 325 active episodes</title></rect>
  <rect x="730" y="62" width="11" height="11" fill="#fca168" rx="2"><title>2023-12-14: 294 active episodes</title></rect>
  <rect x="730" y="76" width="11" height="11" fill="#fdb377" rx="2"><title>2023-12-15: 243 active episodes</title></rect>
  <rect x="730" y="90" width="11" height="11" fill="#fdddb0" rx="2"><title>2023-12-16: 92 active episodes</title></rect>
  <rect x="730" y="104" width="11" height="11" fill="#fee6c4" rx="2"><title>2023-12-17: 47 active episodes</title></rect>
  <rect x="744" y="20" width="11" height="11" fill="#fddcac" rx="2"><title>2023-12-18: 100 active episodes</title></rect>
  <rect x="744" y="34" width="11" height="11" fill="#fddcad" rx="2"><title>2023-12-19: 98 active episodes</title></rect>
  <rect x="744" y="48" width="11" height="11" fill="#fdd7a3" rx="2"><title>2023-12-20: 120 active episodes</title></rect>
  <rect x="744" y="62" width="11" height="11" fill="#fddaaa" rx="2"><title>2023-12-21: 105 active episodes</title></rect>
  <rect x="744" y="76" width="11" height="11" fill="#fdd69f" rx="2"><title>2023-12-22: 128 active episodes</title></rect>
  <rect x="744" y="90" width="11" height="11" fill="#fee8c8" rx="2"><title>2023-12-23: 39 active episodes</title></rect>
  <rect x="744" y="104" width="11" height="11" fill="#feefd7" rx="2"><title>2023-12-24: 5 active episodes</title></rect>
  <rect x="758" y="20" width="11" height="11" fill="#feefd7" rx="2"><title>2023-12-25: 6 active episodes</title></rect>
  <rect x="758" y="34" width="11" height="11" fill="#fdaf73" rx="2"><title>2023-12-26: 255 active episodes</title></rect>
  <rect x="758" y="48" width="11" height="11" fill="#fdd194" rx="2"><title>2023-12-27: 152 active episodes</title></rect>
  <rect x="758" y="62" width="11" height="11" fill="#fee3bd" rx="2"><title>2023-12-28: 62 active episodes</title></rect>
  <rect x="758" y="76" width="11" height="11" fill="#feeccf" rx="2"><title>2023-12-29: 22 active episodes</title></rect>
  <rect x="758" y="90" width="11" height="11" fill="#feefd6" rx="2"><title>2023-12-30: 7 active episodes</title></rect>
  <rect x="758" y="104" width="11" height="11" fill="#feedd3" rx="2"><title>2023-12-31: 14 active episodes</title></rect>
  <text x="30" y="133" class="title">2023 - 20715 hot water episodes</text>
  <defs>
    <linearGradient id="legend-gradient" x1="0" y1="0" x2="1" y2="0">
      <stop offset="0%" stop-color="#fef0d9"/>
      <stop offset="33.33333333333333%" stop-color="#fdcc8a"/>
      <stop offset="66.66666666666666%" stop-color="#fc8d59"/>
      <stop offset="100%" stop-color="#d7301f"/>
    </linearGradient>
  </defs>
  <text x="560" y="133" class="legend">No data</text>
  <rect x="602" y="123" width="11" height="11" fill="#484f58" rx="2"/>
  <text x="632" y="133" class="legend">Less</text>
  <rect x="662" y="123" width="11" height="11" fill="#161b22" rx="2"/>
  <rect x="676" y="123" width="53" height="11" fill="url(#legend-gradient)" rx="2"/>
  <text x="737" y="133" class="legend">More</text>
</svg>