<svg width="782" height="148" xmlns="http://www.w3.org/2000/svg">
  <style>
    .month { font: 10px sans-serif; fill: #8b949e; }
    .day { font: 10px sans-serif; fill: #8b949e; }
    .title { font: bold 14px sans-serif; fill: #c9d1d9; }
    .legend { font: 10px sans-serif; fill: #8b949e; }
  </style>
  <rect width="100%" height="100%" fill="#0d1117"/>
  <text x="0" y="29" class="day">Mon</text>
  <text x="0" y="57" class="day">Wed</text>
  <text x="0" y="85" class="day">Fri</text>
  <text x="0" y="113" class="day">Sun</text>
  <text x="30" y="15" class="month">Jan</text>
  <text x="100" y="15" class="month">Feb</text>
  <text x="156" y="15" class="month">Mar</text>
  <text x="212" y="15" class="month">Apr</text>
  <text x="282" y="15" class="month">May</text>
  <text x="338" y="15" class="month">Jun</text>
  <text x="394" y="15" class="month">Jul</text>
  <text x="464" y="15" class="month">Aug</text>
  <text x="520" y="15" class="month">Sep</text>
  <text x="576" y="15" class="month">Oct</text>
  <text x="646" y="15" class="month">Nov</text>
  <text x="702" y="15" class="month">Dec</text>
  <rect x="30" y="90" width="11" height="11" fill="#fddaa9" rx="2"><title>2022-01-01: 98 active episodes</title></rect>
  <rect x="30" y="104" width="11" height="11" fill="#fee5c0" rx="2"><title>2022-01-02: 51 active episodes</title></rect>
  <rect x="44" y="20" width="11" height="11" fill="#fdc685" rx="2"><title>2022-01-03: 177 active episodes</title></rect>
  <rect x="44" y="34" width="11" height="11" fill="#fca96e" rx="2"><title>2022-01-04: 251 active episodes</title></rect>
  <rect x="44" y="48" width="11" height="11" fill="#fc9e66" rx="2"><title>2022-01-05: 277 active episodes</title></rect>
  <rect x="44" y="62" width="11" height="11" fill="#fdad72" rx="2"><title>2022-01-06: 241 active episodes</title></rect>
  <rect x="44" y="76" width="11" height="11" fill="#fdcf90" rx="2"><title>2022-01-07: 148 active episodes</title></rect>
  <rect x="44" y="90" width="11" height="11" fill="#fdd7a3" rx="2"><title>2022-01-08: 110 active episodes</title></rect>
  <rect x="44" y="104" width="11" height="11" fill="#fdddb0" rx="2"><title>2022-01-09: 85 active episodes</title></rect>
  <rect x="58" y="20" width="11" height="11" fill="#fdd8a4" rx="2"><title>2022-01-10: 109 active episodes</title></rect>
  <rect x="58" y="34" width="11" height="11" fill="#fdd195" rx="2"><title>2022-01-11: 139 active episodes</title></rect>
  <rect x="58" y="48" width="11" height="11" fill="#fdd49b" rx="2"><title>2022-01-12: 127 active episodes</title></rect>
  <rect x="58" y="62" width="11" height="11" fill="#fee4be" rx="2"><title>2022-01-13: 56 active episodes</title></rect>
  <rect x="58" y="76" width="11" height="11" fill="#fee0b5" rx="2"><title>2022-01-14: 73 active episodes</title></rect>
  <rect x="58" y="90" width="11" height="11" fill="#fee6c3" rx="2"><title>2022-01-15: 46 active episodes</title></rect>
  <rect x="58" y="104" width="11" height="11" fill="#fee2bb" rx="2"><title>2022-01-16: 62 active episodes</title></rect>
  <rect x="72" y="20" width="11" height="11" fill="#fdd7a3" rx="2"><title>2022-01-17: 111 active episodes</title></rect>
  <rect x="72" y="34" width="11" height="11" fill="#fddaa9" rx="2"><title>2022-01-18: 98 active episodes</title></rect>
  <rect x="72" y="48" width="11" height="11" fill="#fee2bb" rx="2"><title>2022-01-19: 62 active episodes</title></rect>
  <rect x="72" y="62" width="11" height="11" fill="#fdddb0" rx="2"><title>2022-01-20: 84 active episodes</title></rect>
  <rect x="72" y="76" width="11" height="11" fill="#fddbab" rx="2"><title>2022-01-21: 95 active episodes</title></rect>
  <rect x="72" y="90" width="11" height="11" fill="#fee3bc" rx="2"><title>2022-01-22: 60 active episodes</title></rect>
  <rect x="72" y="104" width="11" height="11" fill="#fee7c6" rx="2"><title>2022-01-23: 39 active episodes</title></rect>
  <rect x="86" y="20" width="11" height="11" fill="#fee7c4" rx="2"><title>2022-01-24: 43 active episodes</title></rect>
  <rect x="86" y="34" width="11" height="11" fill="#fee2ba" rx="2"><title>2022-01-25: 64 active episodes</title></rect>
  <rect x="86" y="48" width="11" height="11" fill="#fee3bc" rx="2"><title>2022-01-26: 59 active episodes</title></rect>
  <rect x="86" y="62" width="11" height="11" fill="#fee1b8" rx="2"><title>2022-01-27: 67 active episodes</title></rect>
  <rect x="86" y="76" width="11" height="11" fill="#fdd59e" rx="2"><title>2022-01-28: 120 active episodes</title></rect>
  <rect x="86" y="90" width="11" height="11" fill="#fee4bf" rx="2"><title>2022-01-29: 53 active episodes</title></rect>
  <rect x="86" y="104" width="11" height="11" fill="#feecd0" rx="2"><title>2022-01-30: 19 active episodes</title></rect>
  <rect x="100" y="20" width="11" height="11" fill="#fddbab" rx="2"><title>2022-01-31: 95 active episodes</title></rect>
  <rect x="100" y="34" width="11" height="11" fill="#fdddb0" rx="2"><title>2022-02-01: 85 active episodes</title></rect>
  <rect x="100" y="48" width="11" height="11" fill="#fddcae" rx="2"><title>2022-02-02: 88 active episodes</title></rect>
  <rect x="100" y="62" width="11" height="11" fill="#fdddb0" rx="2"><title>2022-02-03: 85 active episodes</title></rect>
  <rect x="100" y="76" width="11" height="11" fill="#fee8c7" rx="2"><title>2022-02-04: 37 active episodes</title></rect>
  <rect x="100" y="90" width="11" height="11" fill="#feeacd" rx="2"><title>2022-02-05: 26 active episodes</title></rect>
  <rect x="100" y="104" width="11" height="11" fill="#fdb175" rx="2"><title>2022-02-06: 230 active episodes</title></rect>
  <rect x="114" y="20" width="11" height="11" fill="#fca86e" rx="2"><title>2022-02-07: 253 active episodes</title></rect>
  <rect x="114" y="34" width="11" height="11" fill="#fcac71" rx="2"><title>2022-02-08: 242 active episodes</title></rect>
  <rect x="114" y="48" width="11" height="11" fill="#fdb075" rx="2"><title>2022-02-09: 231 active episodes</title></rect>
  <rect x="114" y="62" width="11" height="11" fill="#fdc383" rx="2"><title>2022-02-10: 183 active episodes</title></rect>
  <rect x="114" y="76" width="11" height="11" fill="#fee6c3" rx="2"><title>2022-02-11: 45 active episodes</title></rect>
  <rect x="114" y="90" width="11" height="11" fill="#fee9c9" rx="2"><title>2022-02-12: 33 active episodes</title></rect>
  <rect x="114" y="104" width="11" height="11" fill="#fee4bf" rx="2"><title>2022-02-13: 53 active episodes</title></rect>
  <rect x="128" y="20" width="11" height="11" fill="#fddcad" rx="2"><title>2022-02-14: 91 active episodes</title></rect>
  <rect x="128" y="34" width="11" height="11" fill="#fc9c64" rx="2"><title>2022-02-15: 284 active episodes</title></rect>
  <rect x="128" y="48" width="11" height="11" fill="#fa8956" rx="2"><title>2022-02-16: 328 active episodes</title></rect>
  <rect x="128" y="62" width="11" height="11" fill="#fc9f67" rx="2"><title>2022-02-17: 276 active episodes</title></rect>
  <rect x="128" y="76" width="11" height="11" fill="#fdd7a3" rx="2"><title>2022-02-18: 110 active episodes</title></rect>
  <rect x="128" y="90" width="11" height="11" fill="#fdd59d" rx="2"><title>2022-02-19: 122 active episodes</title></rect>
  <rect x="128" y="104" width="11" height="11" fill="#feedd3" rx="2"><title>2022-02-20: 14 active episodes</title></rect>
  <rect x="142" y="20" width="11" height="11" fill="#fdd195" rx="2"><title>2022-02-21: 138 active episodes</title></rect>
  <rect x="142" y="34" width="11" height="11" fill="#fdc081" rx="2"><title>2022-02-22: 192 active episodes</title></rect>
  <rect x="142" y="48" width="11" height="11" fill="#fdcf91" rx="2"><title>2022-02-23: 146 active episodes</title></rect>
  <rect x="142" y="62" width="11" height="11" fill="#fdbd7e" rx="2"><title>2022-02-24: 199 active episodes</title></rect>
  <rect x="142" y="76" width="11" height="11" fill="#fdb578" rx="2"><title>2022-02-25: 220 active episodes</title></rect>
  <rect x="142" y="90" width="11" height="11" fill="#fdc584" rx="2"><title>2022-02-26: 179 active episodes</title></rect>
  <rect x="142" y="104" width="11" height="11" fill="#fdc484" rx="2"><title>2022-02-27: 182 active episodes</title></rect>
  <rect x="156" y="20" width="11" height="11" fill="#fdcc8b" rx="2"><title>2022-02-28: 159 active episodes</title></rect>
  <rect x="156" y="34" width="11" height="11" fill="#fdddaf" rx="2"><title>2022-03-01: 87 active episodes</title></rect>
  <rect x="156" y="48" width="11" height="11" fill="#fedfb4" rx="2"><title>2022-03-02: 75 active episodes</title></rect>
  <rect x="156" y="62" width="11" height="11" fill="#fee0b7" rx="2"><title>2022-03-03: 70 active episodes</title></rect>
  <rect x="156" y="76" width="11" height="11" fill="#fddbac" rx="2"><title>2022-03-04: 93 active episodes</title></rect>
  <rect x="156" y="90" width="11" height="11" fill="#fdd59e" rx="2"><title>2022-03-05: 120 active episodes</title></rect>
  <rect x="156" y="104" width="11" height="11" fill="#fdc182" rx="2"><title>2022-03-06: 188 active episodes</title></rect>
  <rect x="170" y="20" width="11" height="11" fill="#fdc686" rx="2"><title>2022-03-07: 175 active episodes</title></rect>
  <rect x="170" y="34" width="11" height="11" fill="#fddbab" rx="2"><title>2022-03-08: 95 active episodes</title></rect>
  <rect x="170" y="48" width="11" height="11" fill="#fee0b7" rx="2"><title>2022-03-09: 70 active episodes</title></rect>
  <rect x="170" y="62" width="11" height="11" fill="#fddaa9" rx="2"><title>2022-03-10: 98 active episodes</title></rect>
  <rect x="170" y="76" width="11" height="11" fill="#fee2b9" rx="2"><title>2022-03-11: 65 active episodes</title></rect>
  <rect x="170" y="90" width="11" height="11" fill="#fee3bc" rx="2"><title>2022-03-12: 59 active episodes</title></rect>
  <rect x="170" y="104" width="11" height="11" fill="#fdddb0" rx="2"><title>2022-03-13: 84 active episodes</title></rect>
  <rect x="184" y="20" width="11" height="11" fill="#fdd6a1" rx="2"><title>2022-03-14: 115 active episodes</title></rect>
  <rect x="184" y="34" width="11" height="11" fill="#fdd6a0" rx="2"><title>2022-03-15: 117 active episodes</title></rect>
  <rect x="184" y="48" width="11" height="11" fill="#fdd7a3" rx="2"><title>2022-03-16: 110 active episodes</title></rect>
  <rect x="184" y="62" width="11" height="11" fill="#fdcf90" rx="2"><title>2022-03-17: 149 active episodes</title></rect>
  <rect x="184" y="76" width="11" height="11" fill="#fdcc8a" rx="2"><title>2022-03-18: 161 active episodes</title></rect>
  <rect x="184" y="90" width="11" height="11" fill="#fddcac" rx="2"><title>2022-03-19: 92 active episodes</title></rect>
  <rect x="184" y="104" width="11" height="11" fill="#fee4bf" rx="2"><title>2022-03-20: 54 active episodes</title></rect>
  <rect x="198" y="20" width="11" height="11" fill="#fdd9a7" rx="2"><title>2022-03-21: 102 active episodes</title></rect>
  <rect x="198" y="34" width="11" height="11" fill="#fdd7a3" rx="2"><title>2022-03-22: 110 active episodes</title></rect>
  <rect x="198" y="48" width="11" height="11" fill="#fdd296" rx="2"><title>2022-03-23: 136 active episodes</title></rect>
  <rect x="198" y="62" width="11" height="11" fill="#fdce8e" rx="2"><title>2022-03-24: 152 active episodes</title></rect>
  <rect x="198" y="76" width="11" height="11" fill="#fee0b7" rx="2"><title>2022-03-25: 70 active episodes</title></rect>
  <rect x="198" y="90" width="11" height="11" fill="#fee2bb" rx="2"><title>2022-03-26: 62 active episodes</title></rect>
  <rect x="198" y="104" width="11" height="11" fill="#fee9c9" rx="2"><title>2022-03-27: 33 active episodes</title></rect>
  <rect x="212" y="20" width="11" height="11" fill="#fee3bd" rx="2"><title>2022-03-28: 57 active episodes</title></rect>
  <rect x="212" y="34" width="11" height="11" fill="#fee3bc" rx="2"><title>2022-03-29: 60 active episodes</title></rect>
  <rect x="212" y="48" width="11" height="11" fill="#fee1b9" rx="2"><title>2022-03-30: 66 active episodes</title></rect>
  <rect x="212" y="62" width="11" height="11" fill="#feeacb" rx="2"><title>2022-03-31: 29 active episodes</title></rect>
  <rect x="212" y="76" width="11" height="11" fill="#feeed4" rx="2"><title>2022-04-01: 12 active episodes</title></rect>
  <rect x="212" y="90" width="11" height="11" fill="#feefd7" rx="2"><title>2022-04-02: 6 active episodes</title></rect>
  <rect x="212" y="104" width="11" height="11" fill="#fef0d8" rx="2"><title>2022-04-03: 3 active episodes</title></rect>
  <rect x="226" y="20" width="11" height="11" fill="#feeed5" rx="2"><title>2022-04-04: 9 active episodes</title></rect>
  <rect x="226" y="34" width="11" height="11" fill="#fef0d9" rx="2"><title>2022-04-05: 1 active episode</title></rect>
  <rect x="226" y="48" width="11" height="11" fill="#161b22" rx="2"><title>2022-04-06: 0 active episodes</title></rect>
  <rect x="226" y="62" width="11" height="11" fill="#161b22" rx="2"><title>2022-04-07: 0 active episodes</title></rect>
  <rect x="226" y="76" width="11" height="11" fill="#161b22" rx="2"><title>2022-04-08: 0 active episodes</title></rect>
  <rect x="226" y="90" width="11" height="11" fill="#161b22" rx="2"><title>2022-04-09: 0 active episodes</title></rect>
  <rect x="226" y="104" width="11" height="11" fill="#161b22" rx="2"><title>2022-04-10: 0 active episodes</title></rect>
  <rect x="240" y="20" width="11" height="11" fill="#fef0d9" rx="2"><title>2022-04-11: 1 active episode</title></rect>
  <rect x="240" y="34" width="11" height="11" fill="#fef0d9" rx="2"><title>2022-04-12: 1 active episode</title></rect>
  <rect x="240" y="48" width="11" height="11" fill="#fef0d9" rx="2"><title>2022-04-13: 1 active episode</title></rect>
  <rect x="240" y="62" width="11" height="11" fill="#161b22" rx="2"><title>2022-04-14: 0 active episodes</title></rect>
  <rect x="240" y="76" width="11" height="11" fill="#161b22" rx="2"><title>2022-04-15: 0 active episodes</title></rect>
  <rect x="240" y="90" width="11" height="11" fill="#161b22" rx="2"><title>2022-04-16: 0 active episodes</title></rect>
  <rect x="240" y="104" width="11" height="11" fill="#161b22" rx="2"><title>2022-04-17: 0 active episodes</title></rect>
  <rect x="254" y="20" width="11" height="11" fill="#161b22" rx="2"><title>2022-04-18: 0 active episodes</title></rect>
  <rect x="254" y="34" width="11" height="11" fill="#161b22" rx="2"><title>2022-04-19: 0 active episodes</title></rect>
  <rect x="254" y="48" width="11" height="11" fill="#161b22" rx="2"><title>2022-04-20: 0 active episodes</title></rect>
  <rect x="254" y="62" width="11" height="11" fill="#161b22" rx="2"><title>2022-04-21: 0 active episodes</title></rect>
  <rect x="254" y="76" width="11" height="11" fill="#161b22" rx="2"><title>2022-04-22: 0 active episodes</title></rect>
  <rect x="254" y="90" width="11" height="11" fill="#161b22" rx="2"><title>2022-04-23: 0 active episodes</title></rect>
  <rect x="254" y="104" width="11" height="11" fill="#161b22" rx="2"><title>2022-04-24: 0 active episodes</title></rect>
  <rect x="268" y="20" width="11" height="11" fill="#161b22" rx="2"><title>2022-04-25: 0 active episodes</title></rect>
  <rect x="268" y="34" width="11" height="11" fill="#161b22" rx="2"><title>2022-04-26: 0 active episodes</title></rect>
  <rect x="268" y="48" width="11" height="11" fill="#161b22" rx="2"><title>2022-04-27: 0 active episodes</title></rect>
  <rect x="268" y="62" width="11" height="11" fill="#161b22" rx="2"><title>2022-04-28: 0 active episodes</title></rect>
  <rect x="268" y="76" width="11" height="11" fill="#161b22" rx="2"><title>2022-04-29: 0 active episodes</title></rect>
  <rect x="268" y="90" width="11" height="11" fill="#161b22" rx="2"><title>2022-04-30: 0 active episodes</title></rect>
  <rect x="268" y="104" width="11" height="11" fill="#161b22" rx="2"><title>2022-05-01: 0 active episodes</title></rect>
  <rect x="282" y="20" width="11" height="11" fill="#161b22" rx="2"><title>2022-05-02: 0 active episodes</title></rect>
  <rect x="282" y="34" width="11" height="11" fill="#161b22" rx="2"><title>2022-05-03: 0 active episodes</title></rect>
  <rect x="282" y="48" width="11" height="11" fill="#161b22" rx="2"><title>2022-05-04: 0 active episodes</title></rect>
  <rect x="282" y="62" width="11" height="11" fill="#161b22" rx="2"><title>2022-05-05: 0 active episodes</title></rect>
  <rect x="282" y="76" width="11" height="11" fill="#161b22" rx="2"><title>2022-05-06: 0 active episodes</title></rect>
  <rect x="282" y="90" width="11" height="11" fill="#161b22" rx="2"><title>2022-05-07: 0 active episodes</title></rect>
  <rect x="282" y="104" width="11" height="11" fill="#161b22" rx="2"><title>2022-05-08: 0 active episodes</title></rect>
  <rect x="296" y="20" width="11" height="11" fill="#161b22" rx="2"><title>2022-05-09: 0 active episodes</title></rect>
  <rect x="296" y="34" width="11" height="11" fill="#161b22" rx="2"><title>2022-05-10: 0 active episodes</title></rect>
  <rect x="296" y="48" width="11" height="11" fill="#161b22" rx="2"><title>2022-05-11: 0 active episodes</title></rect>
  <rect x="296" y="62" width="11" height="11" fill="#161b22" rx="2"><title>2022-05-12: 0 active episodes</title></rect>
  <rect x="296" y="76" width="11" height="11" fill="#161b22" rx="2"><title>2022-05-13: 0 active episodes</title></rect>
  <rect x="296" y="90" width="11" height="11" fill="#161b22" rx="2"><title>2022-05-14: 0 active episodes</title></rect>
  <rect x="296" y="104" width="11" height="11" fill="#161b22" rx="2"><title>2022-05-15: 0 active episodes</title></rect>
  <rect x="310" y="20" width="11" height="11" fill="#161b22" rx="2"><title>2022-05-16: 0 active episodes</title></rect>
  <rect x="310" y="34" width="11" height="11" fill="#161b22" rx="2"><title>2022-05-17: 0 active episodes</title></rect>
  <rect x="310" y="48" width="11" height="11" fill="#161b22" rx="2"><title>2022-05-18: 0 active episodes</title></rect>
  <rect x="310" y="62" width="11" height="11" fill="#161b22" rx="2"><title>2022-05-19: 0 active episodes</title></rect>
  <rect x="310" y="76" width="11" height="11" fill="#161b22" rx="2"><title>2022-05-20: 0 active episodes</title></rect>
  <rect x="310" y="90" width="11" height="11" fill="#161b22" rx="2"><title>2022-05-21: 0 active episodes</title></rect>
  <rect x="310" y="104" width="11" height="11" fill="#161b22" rx="2"><title>2022-05-22: 0 active episodes</title></rect>
  <rect x="324" y="20" width="11" height="11" fill="#161b22" rx="2"><title>2022-05-23: 0 active episodes</title></rect>
  <rect x="324" y="34" width="11" height="11" fill="#161b22" rx="2"><title>2022-05-24: 0 active episodes</title></rect>
  <rect x="324" y="48" width="11" height="11" fill="#161b22" rx="2"><title>2022-05-25: 0 active episodes</title></rect>
  <rect x="324" y="62" width="11" height="11" fill="#161b22" rx="2"><title>2022-05-26: 0 active episodes</title></rect>
  <rect x="324" y="76" width="11" height="11" fill="#161b22" rx="2"><title>2022-05-27: 0 active episodes</title></rect>
  <rect x="324" y="90" width="11" height="11" fill="#161b22" rx="2"><title>2022-05-28: 0 active episodes</title></rect>
  <rect x="324" y="104" width="11" height="11" fill="#161b22" rx="2"><title>2022-05-29: 0 active episodes</title></rect>
  <rect x="338" y="20" width="11" height="11" fill="#161b22" rx="2"><title>2022-05-30: 0 active episodes</title></rect>
  <rect x="338" y="34" width="11" height="11" fill="#161b22" rx="2"><title>2022-05-31: 0 active episodes</title></rect>
  <rect x="338" y="48" width="11" height="11" fill="#161b22" rx="2"><title>2022-06-01: 0 active episodes</title></rect>
  <rect x="338" y="62" width="11" height="11" fill="#161b22" rx="2"><title>2022-06-02: 0 active episodes</title></rect>
  <rect x="338" y="76" width="11" height="11" fill="#161b22" rx="2"><title>2022-06-03: 0 active episodes</title></rect>
  <rect x="338" y="90" width="11" height="11" fill="#161b22" rx="2"><title>2022-06-04: 0 active episodes</title></rect>
  <rect x="338" y="104" width="11" height="11" fill="#161b22" rx="2"><title>2022-06-05: 0 active episodes</title></rect>
  <rect x="352" y="20" width="11" height="11" fill="#161b22" rx="2"><title>2022-06-06: 0 active episodes</title></rect>
  <rect x="352" y="34" width="11" height="11" fill="#161b22" rx="2"><title>2022-06-07: 0 active episodes</title></rect>
  <rect x="352" y="48" width="11" height="11" fill="#161b22" rx="2"><title>2022-06-08: 0 active episodes</title></rect>
  <rect x="352" y="62" width="11" height="11" fill="#161b22" rx="2"><title>2022-06-09: 0 active episodes</title></rect>
  <rect x="352" y="76" width="11" height="11" fill="#161b22" rx="2"><title>2022-06-10: 0 active episodes</title></rect>
  <rect x="352" y="90" width="11" height="11" fill="#161b22" rx="2"><title>2022-06-11: 0 active episodes</title></rect>
  <rect x="352" y="104" width="11" height="11" fill="#161b22" rx="2"><title>2022-06-12: 0 active episodes</title></rect>
  <rect x="366" y="20" width="11" height="11" fill="#484f58" rx="2"><title>2022-06-13: no data</title></rect>
  <rect x="366" y="34" width="11" height="11" fill="#161b22" rx="2"><title>2022-06-14: 0 active episodes</title></rect>
  <rect x="366" y="48" width="11" height="11" fill="#161b22" rx="2"><title>2022-06-15: 0 active episodes</title></rect>
  <rect x="366" y="62" width="11" height="11" fill="#161b22" rx="2"><title>2022-06-16: 0 active episodes</title></rect>
  <rect x="366" y="76" width="11" height="11" fill="#161b22" rx="2"><title>2022-06-17: 0 active episodes</title></rect>
  <rect x="366" y="90" width="11" height="11" fill="#161b22" rx="2"><title>2022-06-18: 0 active episodes</title></rect>
  <rect x="366" y="104" width="11" height="11" fill="#161b22" rx="2"><title>2022-06-19: 0 active episodes</title></rect>
  <rect x="380" y="20" width="11" height="11" fill="#161b22" rx="2"><title>2022-06-20: 0 active episodes</title></rect>
  <rect x="380" y="34" width="11" height="11" fill="#161b22" rx="2"><title>2022-06-21: 0 active episodes</title></rect>
  <rect x="380" y="48" width="11" height="11" fill="#484f58" rx="2"><title>2022-06-22: no data</title></rect>
  <rect x="380" y="62" width="11" height="11" fill="#484f58" rx="2"><title>2022-06-23: no data</title></rect>
  <rect x="380" y="76" width="11" height="11" fill="#484f58" rx="2"><title>2022-06-24: no data</title></rect>
  <rect x="380" y="90" width="11" height="11" fill="#161b22" rx="2"><title>2022-06-25: 0 active episodes</title></rect>
  <rect x="380" y="104" width="11" height="11" fill="#161b22" rx="2"><title>2022-06-26: 0 active episodes</title></rect>
  <rect x="394" y="20" width="11" height="11" fill="#161b22" rx="2"><title>2022-06-27: 0 active episodes</title></rect>
  <rect x="394" y="34" width="11" height="11" fill="#161b22" rx="2"><title>2022-06-28: 0 active episodes</title></rect>
  <rect x="394" y="48" width="11" height="11" fill="#161b22" rx="2"><title>2022-06-29: 0 active episodes</title></rect>
  <rect x="394" y="62" width="11" height="11" fill="#161b22" rx="2"><title>2022-06-30: 0 active episodes</title></rect>
  <rect x="394" y="76" width="11" height="11" fill="#161b22" rx="2"><title>2022-07-01: 0 active episodes</title></rect>
  <rect x="394" y="90" width="11" height="11" fill="#161b22" rx="2"><title>2022-07-02: 0 active episodes</title></rect>
  <rect x="394" y="104" width="11" height="11" fill="#161b22" rx="2"><title>2022-07-03: 0 active episodes</title></rect>
  <rect x="408" y="20" width="11" height="11" fill="#161b22" rx="2"><title>2022-07-04: 0 active episodes</title></rect>
  <rect x="408" y="34" width="11" height="11" fill="#161b22" rx="2"><title>2022-07-05: 0 active episodes</title></rect>
  <rect x="408" y="48" width="11" height="11" fill="#161b22" rx="2"><title>2022-07-06: 0 active episodes</title></rect>
  <rect x="408" y="62" width="11" height="11" fill="#161b22" rx="2"><title>2022-07-07: 0 active episodes</title></rect>
  <rect x="408" y="76" width="11" height="11" fill="#161b22" rx="2"><title>2022-07-08: 0 active episodes</title></rect>
  <rect x="408" y="90" width="11" height="11" fill="#161b22" rx="2"><title>2022-07-09: 0 active episodes</title></rect>
  <rect x="408" y="104" width="11" height="11" fill="#161b22" rx="2"><title>2022-07-10: 0 active episodes</title></rect>
  <rect x="422" y="20" width="11" height="11" fill="#161b22" rx="2"><title>2022-07-11: 0 active episodes</title></rect>
  <rect x="422" y="34" width="11" height="11" fill="#161b22" rx="2"><title>2022-07-12: 0 active episodes</title></rect>
  <rect x="422" y="48" width="11" height="11" fill="#161b22" rx="2"><title>2022-07-13: 0 active episodes</title></rect>
  <rect x="422" y="62" width="11" height="11" fill="#161b22" rx="2"><title>2022-07-14: 0 active episodes</title></rect>
  <rect x="422" y="76" width="11" height="11" fill="#161b22" rx="2"><title>2022-07-15: 0 active episodes</title></rect>
  <rect x="422" y="90" width="11" height="11" fill="#161b22" rx="2"><title>2022-07-16: 0 active episodes</title></rect>
  <rect x="422" y="104" width="11" height="11" fill="#161b22" rx="2"><title>2022-07-17: 0 active episodes</title></rect>
  <rect x="436" y="20" width="11" height="11" fill="#161b22" rx="2"><title>2022-07-18: 0 active episodes</title></rect>
  <rect x="436" y="34" width="11" height="11" fill="#161b22" rx="2"><title>2022-07-19: 0 active episodes</title></rect>
  <rect x="436" y="48" width="11" height="11" fill="#161b22" rx="2"><title>2022-07-20: 0 active episodes</title></rect>
  <rect x="436" y="62" width="11" height="11" fill="#161b22" rx="2"><title>2022-07-21: 0 active episodes</title></rect>
  <rect x="436" y="76" width="11" height="11" fill="#161b22" rx="2"><title>2022-07-22: 0 active episodes</title></rect>
  <rect x="436" y="90" width="11" height="11" fill="#161b22" rx="2"><title>2022-07-23: 0 active episodes</title></rect>
  <rect x="436" y="104" width="11" height="11" fill="#161b22" rx="2"><title>2022-07-24: 0 active episodes</title></rect>
  <rect x="450" y="20" width="11" height="11" fill="#161b22" rx="2"><title>2022-07-25: 0 active episodes</title></rect>
  <rect x="450" y="34" width="11" height="11" fill="#161b22" rx="2"><title>2022-07-26: 0 active episodes</title></rect>
  <rect x="450" y="48" width="11" height="11" fill="#161b22" rx="2"><title>2022-07-27: 0 active episodes</title></rect>
  <rect x="450" y="62" width="11" height="11" fill="#161b22" rx="2"><title>2022-07-28: 0 active episodes</title></rect>
  <rect x="450" y="76" width="11" height="11" fill="#161b22" rx="2"><title>2022-07-29: 0 active episodes</title></rect>
  <rect x="450" y="90" width="11" height="11" fill="#161b22" rx="2"><title>2022-07-30: 0 active episodes</title></rect>
  <rect x="450" y="104" width="11" height="11" fill="#161b22" rx="2"><title>2022-07-31: 0 active episodes</title></rect>
  <rect x="464" y="20" width="11" height="11" fill="#161b22" rx="2"><title>2022-08-01: 0 active episodes</title></rect>
  <rect x="464" y="34" width="11" height="11" fill="#161b22" rx="2"><title>2022-08-02: 0 active episodes</title></rect>
  <rect x="464" y="48" width="11" height="11" fill="#161b22" rx="2"><title>2022-08-03: 0 active episodes</title></rect>
  <rect x="464" y="62" width="11" height="11" fill="#161b22" rx="2"><title>2022-08-04: 0 active episodes</title></rect>
  <rect x="464" y="76" width="11" height="11" fill="#161b22" rx="2"><title>2022-08-05: 0 active episodes</title></rect>
  <rect x="464" y="90" width="11" height="11" fill="#161b22" rx="2"><title>2022-08-06: 0 active episodes</title></rect>
  <rect x="464" y="104" width="11" height="11" fill="#161b22" rx="2"><title>2022-08-07: 0 active episodes</title></rect>
  <rect x="478" y="20" width="11" height="11" fill="#161b22" rx="2"><title>2022-08-08: 0 active episodes</title></rect>
  <rect x="478" y="34" width="11" height="11" fill="#161b22" rx="2"><title>2022-08-09: 0 active episodes</title></rect>
  <rect x="478" y="48" width="11" height="11" fill="#161b22" rx="2"><title>2022-08-10: 0 active episodes</title></rect>
  <rect x="478" y="62" width="11" height="11" fill="#161b22" rx="2"><title>2022-08-11: 0 active episodes</title></rect>
  <rect x="478" y="76" width="11" height="11" fill="#161b22" rx="2"><title>2022-08-12: 0 active episodes</title></rect>
  <rect x="478" y="90" width="11" height="11" fill="#161b22" rx="2"><title>2022-08-13: 0 active episodes</title></rect>
  <rect x="478" y="104" width="11" height="11" fill="#161b22" rx="2"><title>2022-08-14: 0 active episodes</title></rect>
  <rect x="492" y="20" width="11" height="11" fill="#161b22" rx="2"><title>2022-08-15: 0 active episodes</title></rect>
  <rect x="492" y="34" width="11" height="11" fill="#161b22" rx="2"><title>2022-08-16: 0 active episodes</title></rect>
  <rect x="492" y="48" width="11" height="11" fill="#161b22" rx="2"><title>2022-08-17: 0 active episodes</title></rect>
  <rect x="492" y="62" width="11" height="11" fill="#161b22" rx="2"><title>2022-08-18: 0 active episodes</title></rect>
  <rect x="492" y="76" width="11" height="11" fill="#161b22" rx="2"><title>2022-08-19: 0 active episodes</title></rect>
  <rect x="492" y="90" width="11" height="11" fill="#161b22" rx="2"><title>2022-08-20: 0 active episodes</title></rect>
  <rect x="492" y="104" width="11" height="11" fill="#161b22" rx="2"><title>2022-08-21: 0 active episodes</title></rect>
  <rect x="506" y="20" width="11" height="11" fill="#161b22" rx="2"><title>2022-08-22: 0 active episodes</title></rect>
  <rect x="506" y="34" width="11" height="11" fill="#161b22" rx="2"><title>2022-08-23: 0 active episodes</title></rect>
  <rect x="506" y="48" width="11" height="11" fill="#161b22" rx="2"><title>2022-08-24: 0 active episodes</title></rect>
  <rect x="506" y="62" width="11" height="11" fill="#161b22" rx="2"><title>2022-08-25: 0 active episodes</title></rect>
  <rect x="506" y="76" width="11" height="11" fill="#161b22" rx="2"><title>2022-08-26: 0 active episodes</title></rect>
  <rect x="506" y="90" width="11" height="11" fill="#161b22" rx="2"><title>2022-08-27: 0 active episodes</title></rect>
  <rect x="506" y="104" width="11" height="11" fill="#161b22" rx="2"><title>2022-08-28: 0 active episodes</title></rect>
  <rect x="520" y="20" width="11" height="11" fill="#161b22" rx="2"><title>2022-08-29: 0 active episodes</title></rect>
  <rect x="520" y="34" width="11" height="11" fill="#161b22" rx="2"><title>2022-08-30: 0 active episodes</title></rect>
  <rect x="520" y="48" width="11" height="11" fill="#161b22" rx="2"><title>2022-08-31: 0 active episodes</title></rect>
  <rect x="520" y="62" width="11" height="11" fill="#161b22" rx="2"><title>2022-09-01: 0 active episodes</title></rect>
  <rect x="520" y="76" width="11" height="11" fill="#161b22" rx="2"><title>2022-09-02: 0 active episodes</title></rect>
  <rect x="520" y="90" width="11" height="11" fill="#161b22" rx="2"><title>2022-09-03: 0 active episodes</title></rect>
  <rect x="520" y="104" width="11" height="11" fill="#161b22" rx="2"><title>2022-09-04: 0 active episodes</title></rect>
  <rect x="534" y="20" width="11" height="11" fill="#feebce" rx="2"><title>2022-09-05: 23 active episodes</title></rect>
  <rect x="534" y="34" width="11" height="11" fill="#161b22" rx="2"><title>2022-09-06: 0 active episodes</title></rect>
  <rect x="534" y="48" width="11" height="11" fill="#161b22" rx="2"><title>2022-09-07: 0 active episodes</title></rect>
  <rect x="534" y="62" width="11" height="11" fill="#161b22" rx="2"><title>2022-09-08: 0 active episodes</title></rect>
  <rect x="534" y="76" width="11" height="11" fill="#161b22" rx="2"><title>2022-09-09: 0 active episodes</title></rect>
  <rect x="534" y="90" width="11" height="11" fill="#161b22" rx="2"><title>2022-09-10: 0 active episodes</title></rect>
  <rect x="534" y="104" width="11" height="11" fill="#161b22" rx="2"><title>2022-09-11: 0 active episodes</title></rect>
  <rect x="548" y="20" width="11" height="11" fill="#161b22" rx="2"><title>2022-09-12: 0 active episodes</title></rect>
  <rect x="548" y="34" width="11" height="11" fill="#161b22" rx="2"><title>2022-09-13: 0 active episodes</title></rect>
  <rect x="548" y="48" width="11" height="11" fill="#161b22" rx="2"><title>2022-09-14: 0 active episodes</title></rect>
  <rect x="548" y="62" width="11" height="11" fill="#161b22" rx="2"><title>2022-09-15: 0 active episodes</title></rect>
  <rect x="548" y="76" width="11" height="11" fill="#161b22" rx="2"><title>2022-09-16: 0 active episodes</title></rect>
  <rect x="548" y="90" width="11" height="11" fill="#161b22" rx="2"><title>2022-09-17: 0 active episodes</title></rect>
  <rect x="548" y="104" width="11" height="11" fill="#161b22" rx="2"><title>2022-09-18: 0 active episodes</title></rect>
  <rect x="562" y="20" width="11" height="11" fill="#161b22" rx="2"><title>2022-09-19: 0 active episodes</title></rect>
  <rect x="562" y="34" width="11" height="11" fill="#161b22" rx="2"><title>2022-09-20: 0 active episodes</title></rect>
  <rect x="562" y="48" width="11" height="11" fill="#161b22" rx="2"><title>2022-09-21: 0 active episodes</title></rect>
  <rect x="562" y="62" width="11" height="11" fill="#161b22" rx="2"><title>2022-09-22: 0 active episodes</title></rect>
  <rect x="562" y="76" width="11" height="11" fill="#161b22" rx="2"><title>2022-09-23: 0 active episodes</title></rect>
  <rect x="562" y="90" width="11" height="11" fill="#161b22" rx="2"><title>2022-09-24: 0 active episodes</title></rect>
  <rect x="562" y="104" width="11" height="11" fill="#161b22" rx="2"><title>2022-09-25: 0 active episodes</title></rect>
  <rect x="576" y="20" width="11" height="11" fill="#161b22" rx="2"><title>2022-09-26: 0 active episodes</title></rect>
  <rect x="576" y="34" width="11" height="11" fill="#161b22" rx="2"><title>2022-09-27: 0 active episodes</title></rect>
  <rect x="576" y="48" width="11" height="11" fill="#161b22" rx="2"><title>2022-09-28: 0 active episodes</title></rect>
  <rect x="576" y="62" width="11" height="11" fill="#161b22" rx="2"><title>2022-09-29: 0 active episodes</title></rect>
  <rect x="576" y="76" width="11" height="11" fill="#161b22" rx="2"><title>2022-09-30: 0 active episodes</title></rect>
  <rect x="576" y="90" width="11" height="11" fill="#161b22" rx="2"><title>2022-10-01: 0 active episodes</title></rect>
  <rect x="576" y="104" width="11" height="11" fill="#161b22" rx="2"><title>2022-10-02: 0 active episodes</title></rect>
  <rect x="590" y="20" width="11" height="11" fill="#161b22" rx="2"><title>2022-10-03: 0 active episodes</title></rect>
  <rect x="590" y="34" width="11" height="11" fill="#161b22" rx="2"><title>2022-10-04: 0 active episodes</title></rect>
  <rect x="590" y="48" width="11" height="11" fill="#161b22" rx="2"><title>2022-10-05: 0 active episodes</title></rect>
  <rect x="590" y="62" width="11" height="11" fill="#161b22" rx="2"><title>2022-10-06: 0 active episodes</title></rect>
  <rect x="590" y="76" width="11" height="11" fill="#161b22" rx="2"><title>2022-10-07: 0 active episodes</title></rect>
  <rect x="590" y="90" width="11" height="11" fill="#161b22" rx="2"><title>2022-10-08: 0 active episodes</title></rect>
  <rect x="590" y="104" width="11" height="11" fill="#161b22" rx="2"><title>2022-10-09: 0 active episodes</title></rect>
  <rect x="604" y="20" width="11" height="11" fill="#161b22" rx="2"><title>2022-10-10: 0 active episodes</title></rect>
  <rect x="604" y="34" width="11" height="11" fill="#161b22" rx="2"><title>2022-10-11: 0 active episodes</title></rect>
  <rect x="604" y="48" width="11" height="11" fill="#161b22" rx="2"><title>2022-10-12: 0 active episodes</title></rect>
  <rect x="604" y="62" width="11" height="11" fill="#161b22" rx="2"><title>2022-10-13: 0 active episodes</title></rect>
  <rect x="604" y="76" width="11" height="11" fill="#161b22" rx="2"><title>2022-10-14: 0 active episodes</title></rect>
  <rect x="604" y="90" width="11" height="11" fill="#161b22" rx="2"><title>2022-10-15: 0 active episodes</title></rect>
  <rect x="604" y="104" width="11" height="11" fill="#161b22" rx="2"><title>2022-10-16: 0 active episodes</title></rect>
  <rect x="618" y="20" width="11" height="11" fill="#161b22" rx="2"><title>2022-10-17: 0 active episodes</title></rect>
  <rect x="618" y="34" width="11" height="11" fill="#161b22" rx="2"><title>2022-10-18: 0 active episodes</title></rect>
  <rect x="618" y="48" width="11" height="11" fill="#feeed4" rx="2"><title>2022-10-19: 11 active episodes</title></rect>
  <rect x="618" y="62" width="11" height="11" fill="#161b22" rx="2"><title>2022-10-20: 0 active episodes</title></rect>
  <rect x="618" y="76" width="11" height="11" fill="#fef0d9" rx="2"><title>2022-10-21: 1 active episode</title></rect>
  <rect x="618" y="90" width="11" height="11" fill="#161b22" rx="2"><title>2022-10-22: 0 active episodes</title></rect>
  <rect x="618" y="104" width="11" height="11" fill="#fef0d9" rx="2"><title>2022-10-23: 1 active episode</title></rect>
  <rect x="632" y="20" width="11" height="11" fill="#fef0d9" rx="2"><title>2022-10-24: 1 active episode</title></rect>
  <rect x="632" y="34" width="11" height="11" fill="#161b22" rx="2"><title>2022-10-25: 0 active episodes</title></rect>
  <rect x="632" y="48" width="11" height="11" fill="#161b22" rx="2"><title>2022-10-26: 0 active episodes</title></rect>
  <rect x="632" y="62" width="11" height="11" fill="#161b22" rx="2"><title>2022-10-27: 0 active episodes</title></rect>
  <rect x="632" y="76" width="11" height="11" fill="#fef0d9" rx="2"><title>2022-10-28: 1 active episode</title></rect>
  <rect x="632" y="90" width="11" height="11" fill="#fef0d9" rx="2"><title>2022-10-29: 1 active episode</title></rect>
  <rect x="632" y="104" width="11" height="11" fill="#161b22" rx="2"><title>2022-10-30: 0 active episodes</title></rect>
  <rect x="646" y="20" width="11" height="11" fill="#fedfb4" rx="2"><title>2022-10-31: 76 active episodes</title></rect>
  <rect x="646" y="34" width="11" height="11" fill="#fddaa9" rx="2"><title>2022-11-01: 99 active episodes</title></rect>
  <rect x="646" y="48" width="11" height="11" fill="#fdd59f" rx="2"><title>2022-11-02: 119 active episodes</title></rect>
  <rect x="646" y="62" width="11" height="11" fill="#fddcae" rx="2"><title>2022-11-03: 88 active episodes</title></rect>
  <rect x="646" y="76" width="11" height="11" fill="#fee8c7" rx="2"><title>2022-11-04: 37 active episodes</title></rect>
  <rect x="646" y="90" width="11" height="11" fill="#feedd2" rx="2"><title>2022-11-05: 15 active episodes</title></rect>
  <rect x="646" y="104" width="11" height="11" fill="#feedd2" rx="2"><title>2022-11-06: 15 active episodes</title></rect>
  <rect x="660" y="20" width="11" height="11" fill="#fdd69f" rx="2"><title>2022-11-07: 118 active episodes</title></rect>
  <rect x="660" y="34" width="11" height="11" fill="#fdcc8a" rx="2"><title>2022-11-08: 160 active episodes</title></rect>
  <rect x="660" y="48" width="11" height="11" fill="#fddcae" rx="2"><title>2022-11-09: 88 active episodes</title></rect>
  <rect x="660" y="62" width="11" height="11" fill="#fdd59f" rx="2"><title>2022-11-10: 119 active episodes</title></rect>
  <rect x="660" y="76" width="11" height="11" fill="#fdcf91" rx="2"><title>2022-11-11: 146 active episodes</title></rect>
  <rect x="660" y="90" width="11" height="11" fill="#fddeb1" rx="2"><title>2022-11-12: 82 active episodes</title></rect>
  <rect x="660" y="104" width="11" height="11" fill="#fee2b9" rx="2"><title>2022-11-13: 65 active episodes</title></rect>
  <rect x="674" y="20" width="11" height="11" fill="#fdc585" rx="2"><title>2022-11-14: 178 active episodes</title></rect>
  <rect x="674" y="34" width="11" height="11" fill="#fdc887" rx="2"><title>2022-11-15: 171 active episodes</title></rect>
  <rect x="674" y="48" width="11" height="11" fill="#fdc786" rx="2"><title>2022-11-16: 173 active episodes</title></rect>
  <rect x="674" y="62" width="11" height="11" fill="#fdbd7e" rx="2"><title>2022-11-17: 200 active episodes</title></rect>
  <rect x="674" y="76" width="11" height="11" fill="#fdd49c" rx="2"><title>2022-11-18: 124 active episodes</title></rect>
  <rect x="674" y="90" width="11" height="11" fill="#fdc786" rx="2"><title>2022-11-19: 174 active episodes</title></rect>
  <rect x="674" y="104" width="11" height="11" fill="#fdc585" rx="2"><title>2022-11-20: 178 active episodes</title></rect>
  <rect x="688" y="20" width="11" height="11" fill="#fdb275" rx="2"><title>2022-11-21: 228 active episodes</title></rect>
  <rect x="688" y="34" width="11" height="11" fill="#fc9660" rx="2"><title>2022-11-22: 297 active episodes</title></rect>
  <rect x="688" y="48" width="11" height="11" fill="#d7301f" rx="2"><title>2022-11-23: 481 active episodes</title></rect>
  <rect x="688" y="62" width="11" height="11" fill="#fc9f67" rx="2"><title>2022-11-24: 275 active episodes</title></rect>
  <rect x="688" y="76" width="11" height="11" fill="#fc9c64" rx="2"><title>2022-11-25: 284 active episodes</title></rect>
  <rect x="688" y="90" width="11" height="11" fill="#fca36a" rx="2"><title>2022-11-26: 265 active episodes</title></rect>
  <rect x="688" y="104" width="11" height="11" fill="#fdd296" rx="2"><title>2022-11-27: 136 active episodes</title></rect>
  <rect x="702" y="20" width="11" height="11" fill="#fdad72" rx="2"><title>2022-11-28: 239 active episodes</title></rect>
  <rect x="702" y="34" width="11" height="11" fill="#fdb276" rx="2"><title>2022-11-29: 226 active episodes</title></rect>
  <rect x="702" y="48" width="11" height="11" fill="#fdd298" rx="2"><title>2022-11-30: 133 active episodes</title></rect>
  <rect x="702" y="62" width="11" height="11" fill="#fdddb0" rx="2"><title>2022-12-01: 85 active episodes</title></rect>
  <rect x="702" y="76" width="11" height="11" fill="#fee2b9" rx="2"><title>2022-12-02: 65 active episodes</title></rect>
  <rect x="702" y="90" width="11" height="11" fill="#fee3bd" rx="2"><title>2022-12-03: 58 active episodes</title></rect>
  <rect x="702" y="104" width="11" height="11" fill="#fee0b7" rx="2"><title>2022-12-04: 70 active episodes</title></rect>
  <rect x="716" y="20" width="11" height="11" fill="#fdce8d" rx="2"><title>2022-12-05: 154 active episodes</title></rect>
  <rect x="716" y="34" width="11" height="11" fill="#fdce8f" rx="2"><title>2022-12-06: 150 active episodes</title></rect>
  <rect x="716" y="48" width="11" height="11" fill="#fdc786" rx="2"><title>2022-12-07: 173 active episodes</title></rect>
  <rect x="716" y="62" width="11" height="11" fill="#fdcd8d" rx="2"><title>2022-12-08: 155 active episodes</title></rect>
  <rect x="716" y="76" width="11" height="11" fill="#fdd49b" rx="2"><title>2022-12-09: 127 active episodes</title></rect>
  <rect x="716" y="90" width="11" height="11" fill="#fddcad" rx="2"><title>2022-12-10: 91 active episodes</title></rect>
  <rect x="716" y="104" width="11" height="11" fill="#fee8c7" rx="2"><title>2022-12-11: 37 active episodes</title></rect>
  <rect x="730" y="20" width="11" height="11" fill="#fee6c4" rx="2"><title>2022-12-12: 44 active episodes</title></rect>
  <rect x="730" y="34" width="11" height="11" fill="#fee5c1" rx="2"><title>2022-12-13: 49 active episodes</title></rect>
  <rect x="730" y="48" width="11" height="11" fill="#fdd39a" rx="2"><title>2022-12-14: 129 active episodes</title></rect>
  <rect x="730" y="62" width="11" height="11" fill="#fdd8a4" rx="2"><title>2022-12-15: 108 active episodes</title></rect>
  <rect x="730" y="76" width="11" height="11" fill="#fee0b6" rx="2"><title>2022-12-16: 72 active episodes</title></rect>
  <rect x="730" y="90" width="11" height="11" fill="#fee7c6" rx="2"><title>2022-12-17: 40 active episodes</title></rect>
  <rect x="730" y="104" width="11" height="11" fill="#fee6c4" rx="2"><title>2022-12-18: 44 active episodes</title></rect>
  <rect x="744" y="20" width="11" height="11" fill="#fedfb3" rx="2"><title>2022-12-19: 78 active episodes</title></rect>
  <rect x="744" y="34" width="11" height="11" fill="#fee3bb" rx="2"><title>2022-12-20: 61 active episodes</title></rect>
  <rect x="744" y="48" width="11" height="11" fill="#fedeb2" rx="2"><title>2022-12-21: 79 active episodes</title></rect>
  <rect x="744" y="62" width="11" height="11" fill="#fdd6a0" rx="2"><title>2022-12-22: 117 active episodes</title></rect>
  <rect x="744" y="76" width="11" height="11" fill="#fee2bb" rx="2"><title>2022-12-23: 62 active episodes</title></rect>
  <rect x="744" y="90" width="11" height="11" fill="#fee1b8" rx="2"><title>2022-12-24: 67 active episodes</title></rect>
  <rect x="744" y="104" width="11" height="11" fill="#fee2bb" rx="2"><title>2022-12-25: 62 active episodes</title></rect>
  <rect x="758" y="20" width="11" height="11" fill="#feedd2" rx="2"><title>2022-12-26: 15 active episodes</title></rect>
  <rect x="758" y="34" width="11" height="11" fill="#fdd49c" rx="2"><title>2022-12-27: 124 active episodes</title></rect>
  <rect x="758" y="48" width="11" height="11" fill="#fdcf91" rx="2"><title>2022-12-28: 146 active episodes</title></rect>
  <rect x="758" y="62" width="11" height="11" fill="#fddbab" rx="2"><title>2022-12-29: 94 active episodes</title></rect>
  <rect x="758" y="76" width="11" height="11" fill="#fee7c5" rx="2"><title>2022-12-30: 42 active episodes</title></rect>
  <rect x="758" y="90" width="11" height="11" fill="#fee8c7" rx="2"><title>2022-12-31: 37 active episodes</title></rect>
  <text x="30" y="133" class="title">2022 - 9836 heating episodes</text>
  <defs>
    <linearGradient id="legend-gradient" x1="0" y1="0" x2="1" y2="0">
      <stop offset="0%" stop-color="#fef0d9"/>
      <stop offset="33.33333333333333%" stop-color="#fdcc8a"/>
      <stop offset="66.66666666666666%" stop-color="#fc8d59"/>
      <stop offset="100%" stop-color="#d7301f"/>
    </linearGradient>
  </defs>
  <text x="560" y="133" class="legend">No data</text>
  <rect x="602" y="123" width="11" height="11" fill="#484f58" rx="2"/>
  <text x="632" y="133" class="legend">Less</text>
  <rect x="662" y="123" width="11" height="11" fill="#161b22" rx="2"/>
  <rect x="676" y="123" width="53" height="11" fill="url(#legend-gradient)" rx="2"/>
  <text x="737" y="133" class="legend">More</text>
</svg>