<svg width="782" height="148" xmlns="http://www.w3.org/2000/svg">
  <style>
    .month { font: 10px sans-serif; fill: #8b949e; }
    .day { font: 10px sans-serif; fill: #8b949e; }
    .title { font: bold 14px sans-serif; fill: #c9d1d9; }
    .legend { font: 10px sans-serif; fill: #8b949e; }
  </style>
  <rect width="100%" height="100%" fill="#0d1117"/>
  <text x="0" y="29" class="day">Mon</text>
  <text x="0" y="57" class="day">Wed</text>
  <text x="0" y="85" class="day">Fri</text>
  <text x="0" y="113" class="day">Sun</text>
  <text x="30" y="15" class="month">Jan</text>
  <text x="100" y="15" class="month">Feb</text>
  <text x="156" y="15" class="month">Mar</text>
  <text x="212" y="15" class="month">Apr</text>
  <text x="282" y="15" class="month">May</text>
  <text x="338" y="15" class="month">Jun</text>
  <text x="394" y="15" class="month">Jul</text>
  <text x="464" y="15" class="month">Aug</text>
  <text x="520" y="15" class="month">Sep</text>
  <text x="590" y="15" class="month">Oct</text>
  <text x="646" y="15" class="month">Nov</text>
  <text x="702" y="15" class="month">Dec</text>
  <rect x="30" y="20" width="11" height="11" fill="#ffebce" rx="2"><title>2023-12-31: 24 active episodes</title></rect>
  <rect x="30" y="34" width="11" height="11" fill="#ffebcf" rx="2"><title>2024-01-01: 21 active episodes</title></rect>
  <rect x="30" y="48" width="11" height="11" fill="#feeed5" rx="2"><title>2024-01-02: 10 active episodes</title></rect>
  <rect x="30" y="62" width="11" height="11" fill="#ffdcac" rx="2"><title>2024-01-03: 91 active episodes</title></rect>
  <rect x="30" y="76" width="11" height="11" fill="#fed297" rx="2"><title>2024-01-04: 134 active episodes</title></rect>
  <rect x="30" y="90" width="11" height="11" fill="#ffd8a4" rx="2"><title>2024-01-05: 109 active episodes</title></rect>
  <rect x="30" y="104" width="11" height="11" fill="#ffe8c7" rx="2"><title>2024-01-06: 38 active episodes</title></rect>
  <rect x="44" y="20" width="11" height="11" fill="#ffe7c6" rx="2"><title>2024-01-07: 40 active episodes</title></rect>
  <rect x="44" y="34" width="11" height="11" fill="#ffe5c2" rx="2"><title>2024-01-08: 48 active episodes</title></rect>
  <rect x="44" y="48" width="11" height="11" fill="#fecf91" rx="2"><title>2024-01-09: 146 active episodes</title></rect>
  <rect x="44" y="62" width="11" height="11" fill="#fdce8f" rx="2"><title>2024-01-10: 150 active episodes</title></rect>
  <rect x="44" y="76" width="11" height="11" fill="#ffe7c5" rx="2"><title>2024-01-11: 42 active episodes</title></rect>
  <rect x="44" y="90" width="11" height="11" fill="#ffe8c7" rx="2"><title>2024-01-12: 38 active episodes</title></rect>
  <rect x="44" y="104" width="11" height="11" fill="#feecd1" rx="2"><title>2024-01-13: 17 active episodes</title></rect>
  <rect x="58" y="20" width="11" height="11" fill="#ffe8c8" rx="2"><title>2024-01-14: 36 active episodes</title></rect>
  <rect x="58" y="34" width="11" height="11" fill="#fed195" rx="2"><title>2024-01-15: 138 active episodes</title></rect>
  <rect x="58" y="48" width="11" height="11" fill="#ffdbab" rx="2"><title>2024-01-16: 93 active episodes</title></rect>
  <rect x="58" y="62" width="11" height="11" fill="#fed297" rx="2"><title>2024-01-17: 135 active episodes</title></rect>
  <rect x="58" y="76" width="11" height="11" fill="#ffd9a7" rx="2"><title>2024-01-18: 102 active episodes</title></rect>
  <rect x="58" y="90" width="11" height="11" fill="#ffe3bc" rx="2"><title>2024-01-19: 59 active episodes</title></rect>
  <rect x="58" y="104" width="11" height="11" fill="#feedd3" rx="2"><title>2024-01-20: 13 active episodes</title></rect>
  <rect x="72" y="20" width="11" height="11" fill="#ffebcf" rx="2"><title>2024-01-21: 21 active episodes</title></rect>
  <rect x="72" y="34" width="11" height="11" fill="#ffecd0" rx="2"><title>2024-01-22: 20 active episodes</title></rect>
  <rect x="72" y="48" width="11" height="11" fill="#ffe7c5" rx="2"><title>2024-01-23: 42 active episodes</title></rect>
  <rect x="72" y="62" width="11" height="11" fill="#ffe1b8" rx="2"><title>2024-01-24: 67 active episodes</title></rect>
  <rect x="72" y="76" width="11" height="11" fill="#fdca88" rx="2"><title>2024-01-25: 167 active episodes</title></rect>
  <rect x="72" y="90" width="11" height="11" fill="#fdca89" rx="2"><title>2024-01-26: 165 active episodes</title></rect>
  <rect x="72" y="104" width="11" height="11" fill="#ffd7a3" rx="2"><title>2024-01-27: 111 active episodes</title></rect>
  <rect x="86" y="20" width="11" height="11" fill="#ffebce" rx="2"><title>2024-01-28: 24 active episodes</title></rect>
  <rect x="86" y="34" width="11" height="11" fill="#ffd9a7" rx="2"><title>2024-01-29: 102 active episodes</title></rect>
  <rect x="86" y="48" width="11" height="11" fill="#ffd7a3" rx="2"><title>2024-01-30: 110 active episodes</title></rect>
  <rect x="86" y="62" width="11" height="11" fill="#ffdeb2" rx="2"><title>2024-01-31: 80 active episodes</title></rect>
  <rect x="86" y="76" width="11" height="11" fill="#ffe2ba" rx="2"><title>2024-02-01: 64 active episodes</title></rect>
  <rect x="86" y="90" width="11" height="11" fill="#ffe6c2" rx="2"><title>2024-02-02: 47 active episodes</title></rect>
  <rect x="86" y="104" width="11" height="11" fill="#feedd3" rx="2"><title>2024-02-03: 13 active episodes</title></rect>
  <rect x="100" y="20" width="11" height="11" fill="#161b22" rx="2"><title>2024-02-04: 0 active episodes</title></rect>
  <rect x="100" y="34" width="11" height="11" fill="#ffdfb5" rx="2"><title>2024-02-05: 74 active episodes</title></rect>
  <rect x="100" y="48" width="11" height="11" fill="#ffdbaa" rx="2"><title>2024-02-06: 95 active episodes</title></rect>
  <rect x="100" y="62" width="11" height="11" fill="#fed39a" rx="2"><title>2024-02-07: 129 active episodes</title></rect>
  <rect x="100" y="76" width="11" height="11" fill="#ffe1b9" rx="2"><title>2024-02-08: 65 active episodes</title></rect>
  <rect x="100" y="90" width="11" height="11" fill="#ffe9ca" rx="2"><title>2024-02-09: 32 active episodes</title></rect>
  <rect x="100" y="104" width="11" height="11" fill="#feeed6" rx="2"><title>2024-02-10: 8 active episodes</title></rect>
  <rect x="114" y="20" width="11" height="11" fill="#161b22" rx="2"><title>2024-02-11: 0 active episodes</title></rect>
  <rect x="114" y="34" width="11" height="11" fill="#fed092" rx="2"><title>2024-02-12: 145 active episodes</title></rect>
  <rect x="114" y="48" width="11" height="11" fill="#fdca88" rx="2"><title>2024-02-13: 167 active episodes</title></rect>
  <rect x="114" y="62" width="11" height="11" fill="#feb073" rx="2"><title>2024-02-14: 234 active episodes</title></rect>
  <rect x="114" y="76" width="11" height="11" fill="#febd7e" rx="2"><title>2024-02-15: 200 active episodes</title></rect>
  <rect x="114" y="90" width="11" height="11" fill="#fdc585" rx="2"><title>2024-02-16: 178 active episodes</title></rect>
  <rect x="114" y="104" width="11" height="11" fill="#ffe3bd" rx="2"><title>2024-02-17: 57 active episodes</title></rect>
  <rect x="128" y="20" width="11" height="11" fill="#ffe8c7" rx="2"><title>2024-02-18: 37 active episodes</title></rect>
  <rect x="128" y="34" width="11" height="11" fill="#ffdbab" rx="2"><title>2024-02-19: 93 active episodes</title></rect>
  <rect x="128" y="48" width="11" height="11" fill="#ffe0b5" rx="2"><title>2024-02-20: 73 active episodes</title></rect>
  <rect x="128" y="62" width="11" height="11" fill="#fed49c" rx="2"><title>2024-02-21: 125 active episodes</title></rect>
  <rect x="128" y="76" width="11" height="11" fill="#ffdeb1" rx="2"><title>2024-02-22: 81 active episodes</title></rect>
  <rect x="128" y="90" width="11" height="11" fill="#ffdfb3" rx="2"><title>2024-02-23: 77 active episodes</title></rect>
  <rect x="128" y="104" width="11" height="11" fill="#ffe9ca" rx="2"><title>2024-02-24: 31 active episodes</title></rect>
  <rect x="142" y="20" width="11" height="11" fill="#fef0d9" rx="2"><title>2024-02-25: 1 active episode</title></rect>
  <rect x="142" y="34" width="11" height="11" fill="#ffe4bf" rx="2"><title>2024-02-26: 54 active episodes</title></rect>
  <rect x="142" y="48" width="11" height="11" fill="#ffddb0" rx="2"><title>2024-02-27: 83 active episodes</title></rect>
  <rect x="142" y="62" width="11" height="11" fill="#ffdfb3" rx="2"><title>2024-02-28: 77 active episodes</title></rect>
  <rect x="142" y="76" width="11" height="11" fill="#ffd9a7" rx="2"><title>2024-02-29: 102 active episodes</title></rect>
  <rect x="142" y="90" width="11" height="11" fill="#ffe1b9" rx="2"><title>2024-03-01: 66 active episodes</title></rect>
  <rect x="142" y="104" width="11" height="11" fill="#feedd3" rx="2"><title>2024-03-02: 14 active episodes</title></rect>
  <rect x="156" y="20" width="11" height="11" fill="#feeed5" rx="2"><title>2024-03-03: 10 active episodes</title></rect>
  <rect x="156" y="34" width="11" height="11" fill="#ffe1b8" rx="2"><title>2024-03-04: 68 active episodes</title></rect>
  <rect x="156" y="48" width="11" height="11" fill="#ffe5c0" rx="2"><title>2024-03-05: 51 active episodes</title></rect>
  <rect x="156" y="62" width="11" height="11" fill="#ffe0b6" rx="2"><title>2024-03-06: 71 active episodes</title></rect>
  <rect x="156" y="76" width="11" height="11" fill="#ffdcad" rx="2"><title>2024-03-07: 89 active episodes</title></rect>
  <rect x="156" y="90" width="11" height="11" fill="#ffe2ba" rx="2"><title>2024-03-08: 64 active episodes</title></rect>
  <rect x="156" y="104" width="11" height="11" fill="#feefd7" rx="2"><title>2024-03-09: 5 active episodes</title></rect>
  <rect x="170" y="20" width="11" height="11" fill="#fef0d9" rx="2"><title>2024-03-10: 1 active episode</title></rect>
  <rect x="170" y="34" width="11" height="11" fill="#feeed6" rx="2"><title>2024-03-11: 8 active episodes</title></rect>
  <rect x="170" y="48" width="11" height="11" fill="#ffe2ba" rx="2"><title>2024-03-12: 64 active episodes</title></rect>
  <rect x="170" y="62" width="11" height="11" fill="#ffe0b6" rx="2"><title>2024-03-13: 71 active episodes</title></rect>
  <rect x="170" y="76" width="11" height="11" fill="#ffe6c3" rx="2"><title>2024-03-14: 46 active episodes</title></rect>
  <rect x="170" y="90" width="11" height="11" fill="#ffebcd" rx="2"><title>2024-03-15: 25 active episodes</title></rect>
  <rect x="170" y="104" width="11" height="11" fill="#fef0d8" rx="2"><title>2024-03-16: 3 active episodes</title></rect>
  <rect x="184" y="20" width="11" height="11" fill="#fef0d8" rx="2"><title>2024-03-17: 3 active episodes</title></rect>
  <rect x="184" y="34" width="11" height="11" fill="#ffddb0" rx="2"><title>2024-03-18: 83 active episodes</title></rect>
  <rect x="184" y="48" width="11" height="11" fill="#ffdaa9" rx="2"><title>2024-03-19: 98 active episodes</title></rect>
  <rect x="184" y="62" width="11" height="11" fill="#fed196" rx="2"><title>2024-03-20: 137 active episodes</title></rect>
  <rect x="184" y="76" width="11" height="11" fill="#ffd9a7" rx="2"><title>2024-03-21: 101 active episodes</title></rect>
  <rect x="184" y="90" width="11" height="11" fill="#ffe1b7" rx="2"><title>2024-03-22: 69 active episodes</title></rect>
  <rect x="184" y="104" width="11" height="11" fill="#feeed5" rx="2"><title>2024-03-23: 9 active episodes</title></rect>
  <rect x="198" y="20" width="11" height="11" fill="#feefd6" rx="2"><title>2024-03-24: 7 active episodes</title></rect>
  <rect x="198" y="34" width="11" height="11" fill="#feeed5" rx="2"><title>2024-03-25: 9 active episodes</title></rect>
  <rect x="198" y="48" width="11" height="11" fill="#ffd9a6" rx="2"><title>2024-03-26: 104 active episodes</title></rect>
  <rect x="198" y="62" width="11" height="11" fill="#fed49b" rx="2"><title>2024-03-27: 126 active episodes</title></rect>
  <rect x="198" y="76" width="11" height="11" fill="#fed6a1" rx="2"><title>2024-03-28: 115 active episodes</title></rect>
  <rect x="198" y="90" width="11" height="11" fill="#ffdcae" rx="2"><title>2024-03-29: 88 active episodes</title></rect>
  <rect x="198" y="104" width="11" height="11" fill="#fef0d9" rx="2"><title>2024-03-30: 1 active episode</title></rect>
  <rect x="198" y="20" width="11" height="11" fill="#161b22" rx="2"><title>2024-03-31: 0 active episodes</title></rect>
  <rect x="212" y="34" width="11" height="11" fill="#feedd2" rx="2"><title>2024-04-01: 16 active episodes</title></rect>
  <rect x="212" y="48" width="11" height="11" fill="#161b22" rx="2"><title>2024-04-02: 0 active episodes</title></rect>
  <rect x="212" y="62" width="11" height="11" fill="#161b22" rx="2"><title>2024-04-03: 0 active episodes</title></rect>
  <rect x="212" y="76" width="11" height="11" fill="#fef0d9" rx="2"><title>2024-04-04: 2 active episodes</title></rect>
  <rect x="212" y="90" width="11" height="11" fill="#fef0d9" rx="2"><title>2024-04-05: 2 active episodes</title></rect>
  <rect x="212" y="104" width="11" height="11" fill="#161b22" rx="2"><title>2024-04-06: 0 active episodes</title></rect>
  <rect x="212" y="20" width="11" height="11" fill="#161b22" rx="2"><title>2024-04-07: 0 active episodes</title></rect>
  <rect x="226" y="34" width="11" height="11" fill="#feefd7" rx="2"><title>2024-04-08: 6 active episodes</title></rect>
  <rect x="226" y="48" width="11" height="11" fill="#161b22" rx="2"><title>2024-04-09: 0 active episodes</title></rect>
  <rect x="226" y="62" width="11" height="11" fill="#161b22" rx="2"><title>2024-04-10: 0 active episodes</title></rect>
  <rect x="226" y="76" width="11" height="11" fill="#161b22" rx="2"><title>2024-04-11: 0 active episodes</title></rect>
  <rect x="226" y="90" width="11" height="11" fill="#161b22" rx="2"><title>2024-04-12: 0 active episodes</title></rect>
  <rect x="226" y="104" width="11" height="11" fill="#161b22" rx="2"><title>2024-04-13: 0 active episodes</title></rect>
  <rect x="226" y="20" width="11" height="11" fill="#161b22" rx="2"><title>2024-04-14: 0 active episodes</title></rect>
  <rect x="240" y="34" width="11" height="11" fill="#161b22" rx="2"><title>2024-04-15: 0 active episodes</title></rect>
  <rect x="240" y="48" width="11" height="11" fill="#161b22" rx="2"><title>2024-04-16: 0 active episodes</title></rect>
  <rect x="240" y="62" width="11" height="11" fill="#161b22" rx="2"><title>2024-04-17: 0 active episodes</title></rect>
  <rect x="240" y="76" width="11" height="11" fill="#161b22" rx="2"><title>2024-04-18: 0 active episodes</title></rect>
  <rect x="240" y="90" width="11" height="11" fill="#161b22" rx="2"><title>2024-04-19: 0 active episodes</title></rect>
  <rect x="240" y="104" width="11" height="11" fill="#feefd7" rx="2"><title>2024-04-20: 6 active episodes</title></rect>
  <rect x="240" y="20" width="11" height="11" fill="#161b22" rx="2"><title>2024-04-21: 0 active episodes</title></rect>
  <rect x="254" y="34" width="11" height="11" fill="#161b22" rx="2"><title>2024-04-22: 0 active episodes</title></rect>
  <rect x="254" y="48" width="11" height="11" fill="#161b22" rx="2"><title>2024-04-23: 0 active episodes</title></rect>
  <rect x="254" y="62" width="11" height="11" fill="#161b22" rx="2"><title>2024-04-24: 0 active episodes</title></rect>
  <rect x="254" y="76" width="11" height="11" fill="#161b22" rx="2"><title>2024-04-25: 0 active episodes</title></rect>
  <rect x="254" y="90" width="11" height="11" fill="#161b22" rx="2"><title>2024-04-26: 0 active episodes</title></rect>
  <rect x="254" y="104" width="11" height="11" fill="#161b22" rx="2"><title>2024-04-27: 0 active episodes</title></rect>
  <rect x="254" y="20" width="11" height="11" fill="#161b22" rx="2"><title>2024-04-28: 0 active episodes</title></rect>
  <rect x="268" y="34" width="11" height="11" fill="#161b22" rx="2"><title>2024-04-29: 0 active episodes</title></rect>
  <rect x="268" y="48" width="11" height="11" fill="#161b22" rx="2"><title>2024-04-30: 0 active episodes</title></rect>
  <rect x="268" y="62" width="11" height="11" fill="#161b22" rx="2"><title>2024-05-01: 0 active episodes</title></rect>
  <rect x="268" y="76" width="11" height="11" fill="#161b22" rx="2"><title>2024-05-02: 0 active episodes</title></rect>
  <rect x="268" y="90" width="11" height="11" fill="#161b22" rx="2"><title>2024-05-03: 0 active episodes</title></rect>
  <rect x="268" y="104" width="11" height="11" fill="#161b22" rx="2"><title>2024-05-04: 0 active episodes</title></rect>
  <rect x="268" y="20" width="11" height="11" fill="#161b22" rx="2"><title>2024-05-05: 0 active episodes</title></rect>
  <rect x="282" y="34" width="11" height="11" fill="#161b22" rx="2"><title>2024-05-06: 0 active episodes</title></rect>
  <rect x="282" y="48" width="11" height="11" fill="#161b22" rx="2"><title>2024-05-07: 0 active episodes</title></rect>
  <rect x="282" y="62" width="11" height="11" fill="#161b22" rx="2"><title>2024-05-08: 0 active episodes</title></rect>
  <rect x="282" y="76" width="11" height="11" fill="#161b22" rx="2"><title>2024-05-09: 0 active episodes</title></rect>
  <rect x="282" y="90" width="11" height="11" fill="#161b22" rx="2"><title>2024-05-10: 0 active episodes</title></rect>
  <rect x="282" y="104" width="11" height="11" fill="#161b22" rx="2"><title>2024-05-11: 0 active episodes</title></rect>
  <rect x="282" y="20" width="11" height="11" fill="#161b22" rx="2"><title>2024-05-12: 0 active episodes</title></rect>
  <rect x="296" y="34" width="11" height="11" fill="#161b22" rx="2"><title>2024-05-13: 0 active episodes</title></rect>
  <rect x="296" y="48" width="11" height="11" fill="#161b22" rx="2"><title>2024-05-14: 0 active episodes</title></rect>
  <rect x="296" y="62" width="11" height="11" fill="#161b22" rx="2"><title>2024-05-15: 0 active episodes</title></rect>
  <rect x="296" y="76" width="11" height="11" fill="#161b22" rx="2"><title>2024-05-16: 0 active episodes</title></rect>
  <rect x="296" y="90" width="11" height="11" fill="#161b22" rx="2"><title>2024-05-17: 0 active episodes</title></rect>
  <rect x="296" y="104" width="11" height="11" fill="#161b22" rx="2"><title>2024-05-18: 0 active episodes</title></rect>
  <rect x="296" y="20" width="11" height="11" fill="#161b22" rx="2"><title>2024-05-19: 0 active episodes</title></rect>
  <rect x="310" y="34" width="11" height="11" fill="#161b22" rx="2"><title>2024-05-20: 0 active episodes</title></rect>
  <rect x="310" y="48" width="11" height="11" fill="#161b22" rx="2"><title>2024-05-21: 0 active episodes</title></rect>
  <rect x="310" y="62" width="11" height="11" fill="#161b22" rx="2"><title>2024-05-22: 0 active episodes</title></rect>
  <rect x="310" y="76" width="11" height="11" fill="#161b22" rx="2"><title>2024-05-23: 0 active episodes</title></rect>
  <rect x="310" y="90" width="11" height="11" fill="#161b22" rx="2"><title>2024-05-24: 0 active episodes</title></rect>
  <rect x="310" y="104" width="11" height="11" fill="#161b22" rx="2"><title>2024-05-25: 0 active episodes</title></rect>
  <rect x="310" y="20" width="11" height="11" fill="#161b22" rx="2"><title>2024-05-26: 0 active episodes</title></rect>
  <rect x="324" y="34" width="11" height="11" fill="#161b22" rx="2"><title>2024-05-27: 0 active episodes</title></rect>
  <rect x="324" y="48" width="11" height="11" fill="#161b22" rx="2"><title>2024-05-28: 0 active episodes</title></rect>
  <rect x="324" y="62" width="11" height="11" fill="#161b22" rx="2"><title>2024-05-29: 0 active episodes</title></rect>
  <rect x="324" y="76" width="11" height="11" fill="#161b22" rx="2"><title>2024-05-30: 0 active episodes</title></rect>
  <rect x="324" y="90" width="11" height="11" fill="#161b22" rx="2"><title>2024-05-31: 0 active episodes</title></rect>
  <rect x="324" y="104" width="11" height="11" fill="#161b22" rx="2"><title>2024-06-01: 0 active episodes</title></rect>
  <rect x="324" y="20" width="11" height="11" fill="#161b22" rx="2"><title>2024-06-02: 0 active episodes</title></rect>
  <rect x="338" y="34" width="11" height="11" fill="#161b22" rx="2"><title>2024-06-03: 0 active episodes</title></rect>
  <rect x="338" y="48" width="11" height="11" fill="#161b22" rx="2"><title>2024-06-04: 0 active episodes</title></rect>
  <rect x="338" y="62" width="11" height="11" fill="#161b22" rx="2"><title>2024-06-05: 0 active episodes</title></rect>
  <rect x="338" y="76" width="11" height="11" fill="#161b22" rx="2"><title>2024-06-06: 0 active episodes</title></rect>
  <rect x="338" y="90" width="11" height="11" fill="#161b22" rx="2"><title>2024-06-07: 0 active episodes</title></rect>
  <rect x="338" y="104" width="11" height="11" fill="#161b22" rx="2"><title>2024-06-08: 0 active episodes</title></rect>
  <rect x="338" y="20" width="11" height="11" fill="#161b22" rx="2"><title>2024-06-09: 0 active episodes</title></rect>
  <rect x="352" y="34" width="11" height="11" fill="#161b22" rx="2"><title>2024-06-10: 0 active episodes</title></rect>
  <rect x="352" y="48" width="11" height="11" fill="#161b22" rx="2"><title>2024-06-11: 0 active episodes</title></rect>
  <rect x="352" y="62" width="11" height="11" fill="#161b22" rx="2"><title>2024-06-12: 0 active episodes</title></rect>
  <rect x="352" y="76" width="11" height="11" fill="#161b22" rx="2"><title>2024-06-13: 0 active episodes</title></rect>
  <rect x="352" y="90" width="11" height="11" fill="#161b22" rx="2"><title>2024-06-14: 0 active episodes</title></rect>
  <rect x="352" y="104" width="11" height="11" fill="#fef0d9" rx="2"><title>2024-06-15: 1 active episode</title></rect>
  <rect x="352" y="20" width="11" height="11" fill="#161b22" rx="2"><title>2024-06-16: 0 active episodes</title></rect>
  <rect x="366" y="34" width="11" height="11" fill="#161b22" rx="2"><title>2024-06-17: 0 active episodes</title></rect>
  <rect x="366" y="48" width="11" height="11" fill="#161b22" rx="2"><title>2024-06-18: 0 active episodes</title></rect>
  <rect x="366" y="62" width="11" height="11" fill="#161b22" rx="2"><title>2024-06-19: 0 active episodes</title></rect>
  <rect x="366" y="76" width="11" height="11" fill="#161b22" rx="2"><title>2024-06-20: 0 active episodes</title></rect>
  <rect x="366" y="90" width="11" height="11" fill="#161b22" rx="2"><title>2024-06-21: 0 active episodes</title></rect>
  <rect x="366" y="104" width="11" height="11" fill="#161b22" rx="2"><title>2024-06-22: 0 active episodes</title></rect>
  <rect x="366" y="20" width="11" height="11" fill="#161b22" rx="2"><title>2024-06-23: 0 active episodes</title></rect>
  <rect x="380" y="34" width="11" height="11" fill="#161b22" rx="2"><title>2024-06-24: 0 active episodes</title></rect>
  <rect x="380" y="48" width="11" height="11" fill="#161b22" rx="2"><title>2024-06-25: 0 active episodes</title></rect>
  <rect x="380" y="62" width="11" height="11" fill="#161b22" rx="2"><title>2024-06-26: 0 active episodes</title></rect>
  <rect x="380" y="76" width="11" height="11" fill="#161b22" rx="2"><title>2024-06-27: 0 active episodes</title></rect>
  <rect x="380" y="90" width="11" height="11" fill="#161b22" rx="2"><title>2024-06-28: 0 active episodes</title></rect>
  <rect x="380" y="104" width="11" height="11" fill="#161b22" rx="2"><title>2024-06-29: 0 active episodes</title></rect>
  <rect x="380" y="20" width="11" height="11" fill="#161b22" rx="2"><title>2024-06-30: 0 active episodes</title></rect>
  <rect x="394" y="34" width="11" height="11" fill="#161b22" rx="2"><title>2024-07-01: 0 active episodes</title></rect>
  <rect x="394" y="48" width="11" height="11" fill="#161b22" rx="2"><title>2024-07-02: 0 active episodes</title></rect>
  <rect x="394" y="62" width="11" height="11" fill="#161b22" rx="2"><title>2024-07-03: 0 active episodes</title></rect>
  <rect x="394" y="76" width="11" height="11" fill="#fef0d9" rx="2"><title>2024-07-04: 2 active episodes</title></rect>
  <rect x="394" y="90" width="11" height="11" fill="#161b22" rx="2"><title>2024-07-05: 0 active episodes</title></rect>
  <rect x="394" y="104" width="11" height="11" fill="#161b22" rx="2"><title>2024-07-06: 0 active episodes</title></rect>
  <rect x="394" y="20" width="11" height="11" fill="#161b22" rx="2"><title>2024-07-07: 0 active episodes</title></rect>
  <rect x="408" y="34" width="11" height="11" fill="#161b22" rx="2"><title>2024-07-08: 0 active episodes</title></rect>
  <rect x="408" y="48" width="11" height="11" fill="#161b22" rx="2"><title>2024-07-09: 0 active episodes</title></rect>
  <rect x="408" y="62" width="11" height="11" fill="#161b22" rx="2"><title>2024-07-10: 0 active episodes</title></rect>
  <rect x="408" y="76" width="11" height="11" fill="#161b22" rx="2"><title>2024-07-11: 0 active episodes</title></rect>
  <rect x="408" y="90" width="11" height="11" fill="#161b22" rx="2"><title>2024-07-12: 0 active episodes</title></rect>
  <rect x="408" y="104" width="11" height="11" fill="#161b22" rx="2"><title>2024-07-13: 0 active episodes</title></rect>
  <rect x="408" y="20" width="11" height="11" fill="#161b22" rx="2"><title>2024-07-14: 0 active episodes</title></rect>
  <rect x="422" y="34" width="11" height="11" fill="#161b22" rx="2"><title>2024-07-15: 0 active episodes</title></rect>
  <rect x="422" y="48" width="11" height="11" fill="#fef0d9" rx="2"><title>2024-07-16: 2 active episodes</title></rect>
  <rect x="422" y="62" width="11" height="11" fill="#161b22" rx="2"><title>2024-07-17: 0 active episodes</title></rect>
  <rect x="422" y="76" width="11" height="11" fill="#161b22" rx="2"><title>2024-07-18: 0 active episodes</title></rect>
  <rect x="422" y="90" width="11" height="11" fill="#161b22" rx="2"><title>2024-07-19: 0 active episodes</title></rect>
  <rect x="422" y="104" width="11" height="11" fill="#161b22" rx="2"><title>2024-07-20: 0 active episodes</title></rect>
  <rect x="422" y="20" width="11" height="11" fill="#484f58" rx="2"><title>2024-07-21: no data</title></rect>
  <rect x="436" y="34" width="11" height="11" fill="#161b22" rx="2"><title>2024-07-22: 0 active episodes</title></rect>
  <rect x="436" y="48" width="11" height="11" fill="#161b22" rx="2"><title>2024-07-23: 0 active episodes</title></rect>
  <rect x="436" y="62" width="11" height="11" fill="#161b22" rx="2"><title>2024-07-24: 0 active episodes</title></rect>
  <rect x="436" y="76" width="11" height="11" fill="#161b22" rx="2"><title>2024-07-25: 0 active episodes</title></rect>
  <rect x="436" y="90" width="11" height="11" fill="#161b22" rx="2"><title>2024-07-26: 0 active episodes</title></rect>
  <rect x="436" y="104" width="11" height="11" fill="#161b22" rx="2"><title>2024-07-27: 0 active episodes</title></rect>
  <rect x="436" y="20" width="11" height="11" fill="#161b22" rx="2"><title>2024-07-28: 0 active episodes</title></rect>
  <rect x="450" y="34" width="11" height="11" fill="#161b22" rx="2"><title>2024-07-29: 0 active episodes</title></rect>
  <rect x="450" y="48" width="11" height="11" fill="#161b22" rx="2"><title>2024-07-30: 0 active episodes</title></rect>
  <rect x="450" y="62" width="11" height="11" fill="#161b22" rx="2"><title>2024-07-31: 0 active episodes</title></rect>
  <rect x="450" y="76" width="11" height="11" fill="#161b22" rx="2"><title>2024-08-01: 0 active episodes</title></rect>
  <rect x="450" y="90" width="11" height="11" fill="#161b22" rx="2"><title>2024-08-02: 0 active episodes</title></rect>
  <rect x="450" y="104" width="11" height="11" fill="#161b22" rx="2"><title>2024-08-03: 0 active episodes</title></rect>
  <rect x="450" y="20" width="11" height="11" fill="#161b22" rx="2"><title>2024-08-04: 0 active episodes</title></rect>
  <rect x="464" y="34" width="11" height="11" fill="#161b22" rx="2"><title>2024-08-05: 0 active episodes</title></rect>
  <rect x="464" y="48" width="11" height="11" fill="#161b22" rx="2"><title>2024-08-06: 0 active episodes</title></rect>
  <rect x="464" y="62" width="11" height="11" fill="#161b22" rx="2"><title>2024-08-07: 0 active episodes</title></rect>
  <rect x="464" y="76" width="11" height="11" fill="#161b22" rx="2"><title>2024-08-08: 0 active episodes</title></rect>
  <rect x="464" y="90" width="11" height="11" fill="#161b22" rx="2"><title>2024-08-09: 0 active episodes</title></rect>
  <rect x="464" y="104" width="11" height="11" fill="#161b22" rx="2"><title>2024-08-10: 0 active episodes</title></rect>
  <rect x="464" y="20" width="11" height="11" fill="#161b22" rx="2"><title>2024-08-11: 0 active episodes</title></rect>
  <rect x="478" y="34" width="11" height="11" fill="#161b22" rx="2"><title>2024-08-12: 0 active episodes</title></rect>
  <rect x="478" y="48" width="11" height="11" fill="#161b22" rx="2"><title>2024-08-13: 0 active episodes</title></rect>
  <rect x="478" y="62" width="11" height="11" fill="#161b22" rx="2"><title>2024-08-14: 0 active episodes</title></rect>
  <rect x="478" y="76" width="11" height="11" fill="#161b22" rx="2"><title>2024-08-15: 0 active episodes</title></rect>
  <rect x="478" y="90" width="11" height="11" fill="#161b22" rx="2"><title>2024-08-16: 0 active episodes</title></rect>
  <rect x="478" y="104" width="11" height="11" fill="#161b22" rx="2"><title>2024-08-17: 0 active episodes</title></rect>
  <rect x="478" y="20" width="11" height="11" fill="#161b22" rx="2"><title>2024-08-18: 0 active episodes</title></rect>
  <rect x="492" y="34" width="11" height="11" fill="#161b22" rx="2"><title>2024-08-19: 0 active episodes</title></rect>
  <rect x="492" y="48" width="11" height="11" fill="#161b22" rx="2"><title>2024-08-20: 0 active episodes</title></rect>
  <rect x="492" y="62" width="11" height="11" fill="#161b22" rx="2"><title>2024-08-21: 0 active episodes</title></rect>
  <rect x="492" y="76" width="11" height="11" fill="#161b22" rx="2"><title>2024-08-22: 0 active episodes</title></rect>
  <rect x="492" y="90" width="11" height="11" fill="#161b22" rx="2"><title>2024-08-23: 0 active episodes</title></rect>
  <rect x="492" y="104" width="11" height="11" fill="#fef0d9" rx="2"><title>2024-08-24: 2 active episodes</title></rect>
  <rect x="492" y="20" width="11" height="11" fill="#fef0d8" rx="2"><title>2024-08-25: 3 active episodes</title></rect>
  <rect x="506" y="34" width="11" height="11" fill="#161b22" rx="2"><title>2024-08-26: 0 active episodes</title></rect>
  <rect x="506" y="48" width="11" height="11" fill="#161b22" rx="2"><title>2024-08-27: 0 active episodes</title></rect>
  <rect x="506" y="62" width="11" height="11" fill="#161b22" rx="2"><title>2024-08-28: 0 active episodes</title></rect>
  <rect x="506" y="76" width="11" height="11" fill="#161b22" rx="2"><title>2024-08-29: 0 active episodes</title></rect>
  <rect x="506" y="90" width="11" height="11" fill="#161b22" rx="2"><title>2024-08-30: 0 active episodes</title></rect>
  <rect x="506" y="104" width="11" height="11" fill="#ffe9cb" rx="2"><title>2024-08-31: 30 active episodes</title></rect>
  <rect x="506" y="20" width="11" height="11" fill="#161b22" rx="2"><title>2024-09-01: 0 active episodes</title></rect>
  <rect x="520" y="34" width="11" height="11" fill="#161b22" rx="2"><title>2024-09-02: 0 active episodes</title></rect>
  <rect x="520" y="48" width="11" height="11" fill="#161b22" rx="2"><title>2024-09-03: 0 active episodes</title></rect>
  <rect x="520" y="62" width="11" height="11" fill="#161b22" rx="2"><title>2024-09-04: 0 active episodes</title></rect>
  <rect x="520" y="76" width="11" height="11" fill="#161b22" rx="2"><title>2024-09-05: 0 active episodes</title></rect>
  <rect x="520" y="90" width="11" height="11" fill="#161b22" rx="2"><title>2024-09-06: 0 active episodes</title></rect>
  <rect x="520" y="104" width="11" height="11" fill="#161b22" rx="2"><title>2024-09-07: 0 active episodes</title></rect>
  <rect x="520" y="20" width="11" height="11" fill="#161b22" rx="2"><title>2024-09-08: 0 active episodes</title></rect>
  <rect x="534" y="34" width="11" height="11" fill="#161b22" rx="2"><title>2024-09-09: 0 active episodes</title></rect>
  <rect x="534" y="48" width="11" height="11" fill="#161b22" rx="2"><title>2024-09-10: 0 active episodes</title></rect>
  <rect x="534" y="62" width="11" height="11" fill="#161b22" rx="2"><title>2024-09-11: 0 active episodes</title></rect>
  <rect x="534" y="76" width="11" height="11" fill="#161b22" rx="2"><title>2024-09-12: 0 active episodes</title></rect>
  <rect x="534" y="90" width="11" height="11" fill="#161b22" rx="2"><title>2024-09-13: 0 active episodes</title></rect>
  <rect x="534" y="104" width="11" height="11" fill="#161b22" rx="2"><title>2024-09-14: 0 active episodes</title></rect>
  <rect x="534" y="20" width="11" height="11" fill="#161b22" rx="2"><title>2024-09-15: 0 active episodes</title></rect>
  <rect x="548" y="34" width="11" height="11" fill="#161b22" rx="2"><title>2024-09-16: 0 active episodes</title></rect>
  <rect x="548" y="48" width="11" height="11" fill="#161b22" rx="2"><title>2024-09-17: 0 active episodes</title></rect>
  <rect x="548" y="62" width="11" height="11" fill="#161b22" rx="2"><title>2024-09-18: 0 active episodes</title></rect>
  <rect x="548" y="76" width="11" height="11" fill="#161b22" rx="2"><title>2024-09-19: 0 active episodes</title></rect>
  <rect x="548" y="90" width="11" height="11" fill="#161b22" rx="2"><title>2024-09-20: 0 active episodes</title></rect>
  <rect x="548" y="104" width="11" height="11" fill="#161b22" rx="2"><title>2024-09-21: 0 active episodes</title></rect>
  <rect x="548" y="20" width="11" height="11" fill="#161b22" rx="2"><title>2024-09-22: 0 active episodes</title></rect>
  <rect x="562" y="34" width="11" height="11" fill="#161b22" rx="2"><title>2024-09-23: 0 active episodes</title></rect>
  <rect x="562" y="48" width="11" height="11" fill="#161b22" rx="2"><title>2024-09-24: 0 active episodes</title></rect>
  <rect x="562" y="62" width="11" height="11" fill="#161b22" rx="2"><title>2024-09-25: 0 active episodes</title></rect>
  <rect x="562" y="76" width="11" height="11" fill="#161b22" rx="2"><title>2024-09-26: 0 active episodes</title></rect>
  <rect x="562" y="90" width="11" height="11" fill="#161b22" rx="2"><title>2024-09-27: 0 active episodes</title></rect>
  <rect x="562" y="104" width="11" height="11" fill="#161b22" rx="2"><title>2024-09-28: 0 active episodes</title></rect>
  <rect x="562" y="20" width="11" height="11" fill="#161b22" rx="2"><title>2024-09-29: 0 active episodes</title></rect>
  <rect x="576" y="34" width="11" height="11" fill="#161b22" rx="2"><title>2024-09-30: 0 active episodes</title></rect>
  <rect x="576" y="48" width="11" height="11" fill="#161b22" rx="2"><title>2024-10-01: 0 active episodes</title></rect>
  <rect x="576" y="62" width="11" height="11" fill="#161b22" rx="2"><title>2024-10-02: 0 active episodes</title></rect>
  <rect x="576" y="76" width="11" height="11" fill="#161b22" rx="2"><title>2024-10-03: 0 active episodes</title></rect>
  <rect x="576" y="90" width="11" height="11" fill="#161b22" rx="2"><title>2024-10-04: 0 active episodes</title></rect>
  <rect x="576" y="104" width="11" height="11" fill="#161b22" rx="2"><title>2024-10-05: 0 active episodes</title></rect>
  <rect x="576" y="20" width="11" height="11" fill="#161b22" rx="2"><title>2024-10-06: 0 active episodes</title></rect>
  <rect x="590" y="34" width="11" height="11" fill="#161b22" rx="2"><title>2024-10-07: 0 active episodes</title></rect>
  <rect x="590" y="48" width="11" height="11" fill="#161b22" rx="2"><title>2024-10-08: 0 active episodes</title></rect>
  <rect x="590" y="62" width="11" height="11" fill="#161b22" rx="2"><title>2024-10-09: 0 active episodes</title></rect>
  <rect x="590" y="76" width="11" height="11" fill="#484f58" rx="2"><title>2024-10-10: no data</title></rect>
  <rect x="590" y="90" width="11" height="11" fill="#484f58" rx="2"><title>2024-10-11: no data</title></rect>
  <rect x="590" y="104" width="11" height="11" fill="#484f58" rx="2"><title>2024-10-12: no data</title></rect>
  <rect x="590" y="20" width="11" height="11" fill="#161b22" rx="2"><title>2024-10-13: 0 active episodes</title></rect>
  <rect x="604" y="34" width="11" height="11" fill="#161b22" rx="2"><title>2024-10-14: 0 active episodes</title></rect>
  <rect x="604" y="48" width="11" height="11" fill="#161b22" rx="2"><title>2024-10-15: 0 active episodes</title></rect>
  <rect x="604" y="62" width="11" height="11" fill="#161b22" rx="2"><title>2024-10-16: 0 active episodes</title></rect>
  <rect x="604" y="76" width="11" height="11" fill="#161b22" rx="2"><title>2024-10-17: 0 active episodes</title></rect>
  <rect x="604" y="90" width="11" height="11" fill="#161b22" rx="2"><title>2024-10-18: 0 active episodes</title></rect>
  <rect x="604" y="104" width="11" height="11" fill="#161b22" rx="2"><title>2024-10-19: 0 active episodes</title></rect>
  <rect x="604" y="20" width="11" height="11" fill="#161b22" rx="2"><title>2024-10-20: 0 active episodes</title></rect>
  <rect x="618" y="34" width="11" height="11" fill="#ffeacd" rx="2"><title>2024-10-21: 26 active episodes</title></rect>
  <rect x="618" y="48" width="11" height="11" fill="#ffe9cb" rx="2"><title>2024-10-22: 30 active episodes</title></rect>
  <rect x="618" y="62" width="11" height="11" fill="#fdce8e" rx="2"><title>2024-10-23: 152 active episodes</title></rect>
  <rect x="618" y="76" width="11" height="11" fill="#febd7e" rx="2"><title>2024-10-24: 200 active episodes</title></rect>
  <rect x="618" y="90" width="11" height="11" fill="#fdca88" rx="2"><title>2024-10-25: 166 active episodes</title></rect>
  <rect x="618" y="104" width="11" height="11" fill="#fed59e" rx="2"><title>2024-10-26: 121 active episodes</title></rect>
  <rect x="632" y="20" width="11" height="11" fill="#ffe0b6" rx="2"><title>2024-10-27: 71 active episodes</title></rect>
  <rect x="632" y="34" width="11" height="11" fill="#febe7e" rx="2"><title>2024-10-28: 198 active episodes</title></rect>
  <rect x="632" y="48" width="11" height="11" fill="#febc7d" rx="2"><title>2024-10-29: 202 active episodes</title></rect>
  <rect x="632" y="62" width="11" height="11" fill="#fa8754" rx="2"><title>2024-10-30: 333 active episodes</title></rect>
  <rect x="632" y="76" width="11" height="11" fill="#fea76d" rx="2"><title>2024-10-31: 256 active episodes</title></rect>
  <rect x="632" y="90" width="11" height="11" fill="#fea56b" rx="2"><title>2024-11-01: 261 active episodes</title></rect>
  <rect x="632" y="104" width="11" height="11" fill="#ffddaf" rx="2"><title>2024-11-02: 86 active episodes</title></rect>
  <rect x="646" y="20" width="11" height="11" fill="#ffddaf" rx="2"><title>2024-11-03: 86 active episodes</title></rect>
  <rect x="646" y="34" width="11" height="11" fill="#fed399" rx="2"><title>2024-11-04: 131 active episodes</title></rect>
  <rect x="646" y="48" width="11" height="11" fill="#ffd7a2" rx="2"><title>2024-11-05: 112 active episodes</title></rect>
  <rect x="646" y="62" width="11" height="11" fill="#fed195" rx="2"><title>2024-11-06: 139 active episodes</title></rect>
  <rect x="646" y="76" width="11" height="11" fill="#fed6a1" rx="2"><title>2024-11-07: 115 active episodes</title></rect>
  <rect x="646" y="90" width="11" height="11" fill="#ffe2bb" rx="2"><title>2024-11-08: 62 active episodes</title></rect>
  <rect x="646" y="104" width="11" height="11" fill="#ffe4be" rx="2"><title>2024-11-09: 55 active episodes</title></rect>
  <rect x="660" y="20" width="11" height="11" fill="#ffe4bf" rx="2"><title>2024-11-10: 53 active episodes</title></rect>
  <rect x="660" y="34" width="11" height="11" fill="#ffe5c1" rx="2"><title>2024-11-11: 49 active episodes</title></rect>
  <rect x="660" y="48" width="11" height="11" fill="#ffe6c2" rx="2"><title>2024-11-12: 47 active episodes</title></rect>
  <rect x="660" y="62" width="11" height="11" fill="#f27548" rx="2"><title>2024-11-13: 367 active episodes</title></rect>
  <rect x="660" y="76" width="11" height="11" fill="#fec181" rx="2"><title>2024-11-14: 191 active episodes</title></rect>
  <rect x="660" y="90" width="11" height="11" fill="#fed59e" rx="2"><title>2024-11-15: 120 active episodes</title></rect>
  <rect x="660" y="104" width="11" height="11" fill="#ffddb0" rx="2"><title>2024-11-16: 84 active episodes</title></rect>
  <rect x="674" y="20" width="11" height="11" fill="#febf7f" rx="2"><title>2024-11-17: 196 active episodes</title></rect>
  <rect x="674" y="34" width="11" height="11" fill="#fdcd8b" rx="2"><title>2024-11-18: 158 active episodes</title></rect>
  <rect x="674" y="48" width="11" height="11" fill="#ffddaf" rx="2"><title>2024-11-19: 85 active episodes</title></rect>
  <rect x="674" y="62" width="11" height="11" fill="#ffe0b6" rx="2"><title>2024-11-20: 72 active episodes</title></rect>
  <rect x="674" y="76" width="11" height="11" fill="#ffe4c0" rx="2"><title>2024-11-21: 52 active episodes</title></rect>
  <rect x="674" y="90" width="11" height="11" fill="#ffe3bd" rx="2"><title>2024-11-22: 57 active episodes</title></rect>
  <rect x="674" y="104" width="11" height="11" fill="#feecd1" rx="2"><title>2024-11-23: 17 active episodes</title></rect>
  <rect x="688" y="20" width="11" height="11" fill="#feecd1" rx="2"><title>2024-11-24: 17 active episodes</title></rect>
  <rect x="688" y="34" width="11" height="11" fill="#fed7a2" rx="2"><title>2024-11-25: 113 active episodes</title></rect>
  <rect x="688" y="48" width="11" height="11" fill="#fdce8f" rx="2"><title>2024-11-26: 150 active episodes</title></rect>
  <rect x="688" y="62" width="11" height="11" fill="#fec382" rx="2"><title>2024-11-27: 185 active episodes</title></rect>
  <rect x="688" y="76" width="11" height="11" fill="#feb97b" rx="2"><title>2024-11-28: 210 active episodes</title></rect>
  <rect x="688" y="90" width="11" height="11" fill="#fda268" rx="2"><title>2024-11-29: 270 active episodes</title></rect>
  <rect x="688" y="104" width="11" height="11" fill="#feb87a" rx="2"><title>2024-11-30: 213 active episodes</title></rect>
  <rect x="702" y="20" width="11" height="11" fill="#feb174" rx="2"><title>2024-12-01: 231 active episodes</title></rect>
  <rect x="702" y="34" width="11" height="11" fill="#fda369" rx="2"><title>2024-12-02: 267 active episodes</title></rect>
  <rect x="702" y="48" width="11" height="11" fill="#feb376" rx="2"><title>2024-12-03: 226 active episodes</title></rect>
  <rect x="702" y="62" width="11" height="11" fill="#febb7c" rx="2"><title>2024-12-04: 206 active episodes</title></rect>
  <rect x="702" y="76" width="11" height="11" fill="#fdcf90" rx="2"><title>2024-12-05: 149 active episodes</title></rect>
  <rect x="702" y="90" width="11" height="11" fill="#fed298" rx="2"><title>2024-12-06: 133 active episodes</title></rect>
  <rect x="702" y="104" width="11" height="11" fill="#ffdfb4" rx="2"><title>2024-12-07: 76 active episodes</title></rect>
  <rect x="716" y="20" width="11" height="11" fill="#ffe2ba" rx="2"><title>2024-12-08: 63 active episodes</title></rect>
  <rect x="716" y="34" width="11" height="11" fill="#fdc987" rx="2"><title>2024-12-09: 169 active episodes</title></rect>
  <rect x="716" y="48" width="11" height="11" fill="#fed399" rx="2"><title>2024-12-10: 131 active episodes</title></rect>
  <rect x="716" y="62" width="11" height="11" fill="#fed298" rx="2"><title>2024-12-11: 133 active episodes</title></rect>
  <rect x="716" y="76" width="11" height="11" fill="#ffd9a6" rx="2"><title>2024-12-12: 104 active episodes</title></rect>
  <rect x="716" y="90" width="11" height="11" fill="#fed59f" rx="2"><title>2024-12-13: 119 active episodes</title></rect>
  <rect x="716" y="104" width="11" height="11" fill="#ffebce" rx="2"><title>2024-12-14: 23 active episodes</title></rect>
  <rect x="730" y="20" width="11" height="11" fill="#feefd7" rx="2"><title>2024-12-15: 5 active episodes</title></rect>
  <rect x="730" y="34" width="11" height="11" fill="#ffd7a3" rx="2"><title>2024-12-16: 111 active episodes</title></rect>
  <rect x="730" y="48" width="11" height="11" fill="#fecf91" rx="2"><title>2024-12-17: 147 active episodes</title></rect>
  <rect x="730" y="62" width="11" height="11" fill="#fed196" rx="2"><title>2024-12-18: 137 active episodes</title></rect>
  <rect x="730" y="76" width="11" height="11" fill="#ffe1b8" rx="2"><title>2024-12-19: 67 active episodes</title></rect>
  <rect x="730" y="90" width="11" height="11" fill="#ffddb0" rx="2"><title>2024-12-20: 84 active episodes</title></rect>
  <rect x="730" y="104" width="11" height="11" fill="#feedd2" rx="2"><title>2024-12-21: 16 active episodes</title></rect>
  <rect x="744" y="20" width="11" height="11" fill="#feedd2" rx="2"><title>2024-12-22: 15 active episodes</title></rect>
  <rect x="744" y="34" width="11" height="11" fill="#feecd0" rx="2"><title>2024-12-23: 19 active episodes</title></rect>
  <rect x="744" y="48" width="11" height="11" fill="#feecd1" rx="2"><title>2024-12-24: 17 active episodes</title></rect>
  <rect x="744" y="62" width="11" height="11" fill="#feedd2" rx="2"><title>2024-12-25: 15 active episodes</title></rect>
  <rect x="744" y="76" width="11" height="11" fill="#feefd7" rx="2"><title>2024-12-26: 6 active episodes</title></rect>
  <rect x="744" y="90" width="11" height="11" fill="#feefd8" rx="2"><title>2024-12-27: 4 active episodes</title></rect>
  <rect x="744" y="104" width="11" height="11" fill="#fef0d9" rx="2"><title>2024-12-28: 2 active episodes</title></rect>
  <rect x="758" y="20" width="11" height="11" fill="#ffe9cb" rx="2"><title>2024-12-29: 30 active episodes</title></rect>
  <rect x="758" y="34" width="11" height="11" fill="#ffecd0" rx="2"><title>2024-12-30: 20 active episodes</title></rect>
  <text x="30" y="133" class="title">2024 - 7406 heating episodes</text>
  <defs>
    <linearGradient id="legend-gradient" x1="0" y1="0" x2="1" y2="0">
      <stop offset="0%" stop-color="#fef0d9"/>
      <stop offset="33.33333333333333%" stop-color="#fdcc8a"/>
      <stop offset="66.66666666666666%" stop-color="#fc8d59"/>
      <stop offset="100%" stop-color="#d7301f"/>
    </linearGradient>
  </defs>
  <text x="560" y="133" class="legend">No data</text>
  <rect x="602" y="123" width="11" height="11" fill="#484f58" rx="2"/>
  <text x="632" y="133" class="legend">Less</text>
  <rect x="662" y="123" width="11" height="11" fill="#161b22" rx="2"/>
  <rect x="676" y="123" width="53" height="11" fill="url(#legend-gradient)" rx="2"/>
  <text x="737" y="133" class="legend">More</text>
</svg>