<svg width="782" height="148" xmlns="http://www.w3.org/2000/svg">
  <style>
    .month { font: 10px sans-serif; fill: #8b949e; }
    .day { font: 10px sans-serif; fill: #8b949e; }
    .title { font: bold 14px sans-serif; fill: #c9d1d9; }
    .legend { font: 10px sans-serif; fill: #8b949e; }
  </style>
  <rect width="100%" height="100%" fill="#0d1117"/>
  <text x="0" y="29" class="day">Mon</text>
  <text x="0" y="57" class="day">Wed</text>
  <text x="0" y="85" class="day">Fri</text>
  <text x="0" y="113" class="day">Sun</text>
  <text x="30" y="15" class="month">Jan</text>
  <text x="100" y="15" class="month">Feb</text>
  <text x="156" y="15" class="month">Mar</text>
  <text x="212" y="15" class="month">Apr</text>
  <text x="282" y="15" class="month">May</text>
  <text x="338" y="15" class="month">Jun</text>
  <text x="394" y="15" class="month">Jul</text>
  <text x="464" y="15" class="month">Aug</text>
  <text x="520" y="15" class="month">Sep</text>
  <text x="576" y="15" class="month">Oct</text>
  <text x="646" y="15" class="month">Nov</text>
  <text x="702" y="15" class="month">Dec</text>
  <rect x="30" y="62" width="11" height="11" fill="#fee8c8" rx="2"><title>2026-01-01: 36 active episodes</title></rect>
  <rect x="30" y="76" width="11" height="11" fill="#feeed4" rx="2"><title>2026-01-02: 12 active episodes</title></rect>
  <rect x="30" y="90" width="11" height="11" fill="#feeed4" rx="2"><title>2026-01-03: 12 active episodes</title></rect>
  <rect x="30" y="104" width="11" height="11" fill="#fb8b58" rx="2"><title>2026-01-04: 324 active episodes</title></rect>
  <rect x="44" y="20" width="11" height="11" fill="#fc9761" rx="2"><title>2026-01-05: 295 active episodes</title></rect>
  <rect x="44" y="34" width="11" height="11" fill="#fc9761" rx="2"><title>2026-01-06: 296 active episodes</title></rect>
  <rect x="44" y="48" width="11" height="11" fill="#fc9861" rx="2"><title>2026-01-07: 294 active episodes</title></rect>
  <rect x="44" y="62" width="11" height="11" fill="#f88252" rx="2"><title>2026-01-08: 340 active episodes</title></rect>
  <rect x="44" y="76" width="11" height="11" fill="#f3774c" rx="2"><title>2026-01-09: 358 active episodes</title></rect>
  <rect x="44" y="90" width="11" height="11" fill="#f57c4e" rx="2"><title>2026-01-10: 350 active episodes</title></rect>
  <rect x="44" y="104" width="11" height="11" fill="#f47a4d" rx="2"><title>2026-01-11: 354 active episodes</title></rect>
  <rect x="58" y="20" width="11" height="11" fill="#f17148" rx="2"><title>2026-01-12: 369 active episodes</title></rect>
  <rect x="58" y="34" width="11" height="11" fill="#ea5f3c" rx="2"><title>2026-01-13: 401 active episodes</title></rect>
  <rect x="58" y="48" width="11" height="11" fill="#e75838" rx="2"><title>2026-01-14: 413 active episodes</title></rect>
  <rect x="58" y="62" width="11" height="11" fill="#fdb87a" rx="2"><title>2026-01-15: 213 active episodes</title></rect>
  <rect x="58" y="76" width="11" height="11" fill="#fdb477" rx="2"><title>2026-01-16: 222 active episodes</title></rect>
  <rect x="58" y="90" width="11" height="11" fill="#fca46b" rx="2"><title>2026-01-17: 263 active episodes</title></rect>
  <rect x="58" y="104" width="11" height="11" fill="#fdd398" rx="2"><title>2026-01-18: 132 active episodes</title></rect>
  <rect x="72" y="20" width="11" height="11" fill="#fdc887" rx="2"><title>2026-01-19: 170 active episodes</title></rect>
  <rect x="72" y="34" width="11" height="11" fill="#fdc282" rx="2"><title>2026-01-20: 186 active episodes</title></rect>
  <rect x="72" y="48" width="11" height="11" fill="#fdbd7e" rx="2"><title>2026-01-21: 200 active episodes</title></rect>
  <rect x="72" y="62" width="11" height="11" fill="#fdcd8d" rx="2"><title>2026-01-22: 155 active episodes</title></rect>
  <rect x="72" y="76" width="11" height="11" fill="#fdd8a5" rx="2"><title>2026-01-23: 106 active episodes</title></rect>
  <rect x="72" y="90" width="11" height="11" fill="#fddcad" rx="2"><title>2026-01-24: 90 active episodes</title></rect>
  <rect x="72" y="104" width="11" height="11" fill="#fdd8a4" rx="2"><title>2026-01-25: 109 active episodes</title></rect>
  <rect x="86" y="20" width="11" height="11" fill="#fc915c" rx="2"><title>2026-01-26: 311 active episodes</title></rect>
  <rect x="86" y="34" width="11" height="11" fill="#fc9660" rx="2"><title>2026-01-27: 297 active episodes</title></rect>
  <rect x="86" y="48" width="11" height="11" fill="#fdc081" rx="2"><title>2026-01-28: 192 active episodes</title></rect>
  <rect x="86" y="62" width="11" height="11" fill="#fdce8d" rx="2"><title>2026-01-29: 154 active episodes</title></rect>
  <rect x="86" y="76" width="11" height="11" fill="#fdd59e" rx="2"><title>2026-01-30: 121 active episodes</title></rect>
  <rect x="86" y="90" width="11" height="11" fill="#fee4be" rx="2"><title>2026-01-31: 55 active episodes</title></rect>
  <rect x="86" y="104" width="11" height="11" fill="#fee2bb" rx="2"><title>2026-02-01: 62 active episodes</title></rect>
  <rect x="100" y="20" width="11" height="11" fill="#fedfb3" rx="2"><title>2026-02-02: 77 active episodes</title></rect>
  <rect x="100" y="34" width="11" height="11" fill="#fee0b7" rx="2"><title>2026-02-03: 70 active episodes</title></rect>
  <rect x="100" y="48" width="11" height="11" fill="#f27349" rx="2"><title>2026-02-04: 365 active episodes</title></rect>
  <rect x="100" y="62" width="11" height="11" fill="#f57c4e" rx="2"><title>2026-02-05: 351 active episodes</title></rect>
  <rect x="100" y="76" width="11" height="11" fill="#f98554" rx="2"><title>2026-02-06: 335 active episodes</title></rect>
  <rect x="100" y="90" width="11" height="11" fill="#fc935e" rx="2"><title>2026-02-07: 305 active episodes</title></rect>
  <rect x="100" y="104" width="11" height="11" fill="#fee2bb" rx="2"><title>2026-02-08: 62 active episodes</title></rect>
  <rect x="114" y="20" width="11" height="11" fill="#fee7c5" rx="2"><title>2026-02-09: 42 active episodes</title></rect>
  <rect x="114" y="34" width="11" height="11" fill="#fee4bf" rx="2"><title>2026-02-10: 53 active episodes</title></rect>
  <rect x="114" y="48" width="11" height="11" fill="#fee4be" rx="2"><title>2026-02-11: 56 active episodes</title></rect>
  <rect x="114" y="62" width="11" height="11" fill="#fee3bd" rx="2"><title>2026-02-12: 58 active episodes</title></rect>
  <rect x="114" y="76" width="11" height="11" fill="#fee5c1" rx="2"><title>2026-02-13: 49 active episodes</title></rect>
  <rect x="114" y="90" width="11" height="11" fill="#feecd0" rx="2"><title>2026-02-14: 20 active episodes</title></rect>
  <rect x="114" y="104" width="11" height="11" fill="#feeed5" rx="2"><title>2026-02-15: 9 active episodes</title></rect>
  <rect x="128" y="20" width="11" height="11" fill="#fdd59d" rx="2"><title>2026-02-16: 122 active episodes</title></rect>
  <rect x="128" y="34" width="11" height="11" fill="#fdd296" rx="2"><title>2026-02-17: 136 active episodes</title></rect>
  <rect x="128" y="48" width="11" height="11" fill="#fdcf91" rx="2"><title>2026-02-18: 146 active episodes</title></rect>
  <rect x="128" y="62" width="11" height="11" fill="#fdc887" rx="2"><title>2026-02-19: 172 active episodes</title></rect>
  <rect x="128" y="76" width="11" height="11" fill="#fdd195" rx="2"><title>2026-02-20: 139 active episodes</title></rect>
  <rect x="128" y="90" width="11" height="11" fill="#fee5c1" rx="2"><title>2026-02-21: 50 active episodes</title></rect>
  <rect x="128" y="104" width="11" height="11" fill="#fee7c4" rx="2"><title>2026-02-22: 43 active episodes</title></rect>
  <rect x="142" y="20" width="11" height="11" fill="#fddbab" rx="2"><title>2026-02-23: 95 active episodes</title></rect>
  <rect x="142" y="34" width="11" height="11" fill="#fdd8a5" rx="2"><title>2026-02-24: 107 active episodes</title></rect>
  <rect x="142" y="48" width="11" height="11" fill="#fdd195" rx="2"><title>2026-02-25: 138 active episodes</title></rect>
  <rect x="142" y="62" width="11" height="11" fill="#fee4be" rx="2"><title>2026-02-26: 56 active episodes</title></rect>
  <rect x="142" y="76" width="11" height="11" fill="#fee7c6" rx="2"><title>2026-02-27: 40 active episodes</title></rect>
  <rect x="142" y="90" width="11" height="11" fill="#fee9ca" rx="2"><title>2026-02-28: 32 active episodes</title></rect>
  <rect x="142" y="104" width="11" height="11" fill="#fee7c4" rx="2"><title>2026-03-01: 43 active episodes</title></rect>
  <rect x="156" y="20" width="11" height="11" fill="#fdc786" rx="2"><title>2026-03-02: 173 active episodes</title></rect>
  <rect x="156" y="34" width="11" height="11" fill="#fdb97c" rx="2"><title>2026-03-03: 208 active episodes</title></rect>
  <rect x="156" y="48" width="11" height="11" fill="#fdc484" rx="2"><title>2026-03-04: 181 active episodes</title></rect>
  <rect x="156" y="62" width="11" height="11" fill="#fdc887" rx="2"><title>2026-03-05: 172 active episodes</title></rect>
  <rect x="156" y="76" width="11" height="11" fill="#fdcd8b" rx="2"><title>2026-03-06: 158 active episodes</title></rect>
  <rect x="156" y="90" width="11" height="11" fill="#fedfb3" rx="2"><title>2026-03-07: 78 active episodes</title></rect>
  <rect x="156" y="104" width="11" height="11" fill="#fee9cb" rx="2"><title>2026-03-08: 30 active episodes</title></rect>
  <rect x="170" y="20" width="11" height="11" fill="#fdd9a7" rx="2"><title>2026-03-09: 103 active episodes</title></rect>
  <rect x="170" y="34" width="11" height="11" fill="#fdd8a4" rx="2"><title>2026-03-10: 109 active episodes</title></rect>
  <rect x="170" y="48" width="11" height="11" fill="#fddaa9" rx="2"><title>2026-03-11: 98 active episodes</title></rect>
  <rect x="170" y="62" width="11" height="11" fill="#fdd6a0" rx="2"><title>2026-03-12: 117 active episodes</title></rect>
  <rect x="170" y="76" width="11" height="11" fill="#fddbac" rx="2"><title>2026-03-13: 93 active episodes</title></rect>
  <rect x="170" y="90" width="11" height="11" fill="#fedfb4" rx="2"><title>2026-03-14: 76 active episodes</title></rect>
  <rect x="170" y="104" width="11" height="11" fill="#fee5c1" rx="2"><title>2026-03-15: 49 active episodes</title></rect>
  <rect x="184" y="20" width="11" height="11" fill="#fdcf91" rx="2"><title>2026-03-16: 146 active episodes</title></rect>
  <rect x="184" y="34" width="11" height="11" fill="#fdc584" rx="2"><title>2026-03-17: 180 active episodes</title></rect>
  <rect x="184" y="48" width="11" height="11" fill="#fdc181" rx="2"><title>2026-03-18: 190 active episodes</title></rect>
  <rect x="184" y="62" width="11" height="11" fill="#fdb679" rx="2"><title>2026-03-19: 217 active episodes</title></rect>
  <rect x="184" y="76" width="11" height="11" fill="#fdd093" rx="2"><title>2026-03-20: 143 active episodes</title></rect>
  <rect x="184" y="90" width="11" height="11" fill="#fee7c6" rx="2"><title>2026-03-21: 39 active episodes</title></rect>
  <rect x="184" y="104" width="11" height="11" fill="#fee4bf" rx="2"><title>2026-03-22: 53 active episodes</title></rect>
  <rect x="198" y="20" width="11" height="11" fill="#fdd092" rx="2"><title>2026-03-23: 145 active episodes</title></rect>
  <rect x="198" y="34" width="11" height="11" fill="#fdd9a7" rx="2"><title>2026-03-24: 103 active episodes</title></rect>
  <rect x="198" y="48" width="11" height="11" fill="#fdd6a1" rx="2"><title>2026-03-25: 115 active episodes</title></rect>
  <rect x="198" y="62" width="11" height="11" fill="#fdd8a5" rx="2"><title>2026-03-26: 106 active episodes</title></rect>
  <rect x="198" y="76" width="11" height="11" fill="#fdddaf" rx="2"><title>2026-03-27: 86 active episodes</title></rect>
  <rect x="198" y="90" width="11" height="11" fill="#fee7c6" rx="2"><title>2026-03-28: 40 active episodes</title></rect>
  <rect x="198" y="104" width="11" height="11" fill="#fee7c5" rx="2"><title>2026-03-29: 42 active episodes</title></rect>
  <rect x="212" y="20" width="11" height="11" fill="#fedeb2" rx="2"><title>2026-03-30: 79 active episodes</title></rect>
  <rect x="212" y="34" width="11" height="11" fill="#fdd8a5" rx="2"><title>2026-03-31: 106 active episodes</title></rect>
  <rect x="212" y="48" width="11" height="11" fill="#fdd59d" rx="2"><title>2026-04-01: 123 active episodes</title></rect>
  <rect x="212" y="62" width="11" height="11" fill="#fdd49c" rx="2"><title>2026-04-02: 124 active episodes</title></rect>
  <rect x="212" y="76" width="11" height="11" fill="#fdd7a2" rx="2"><title>2026-04-03: 112 active episodes</title></rect>
  <rect x="212" y="90" width="11" height="11" fill="#fedfb4" rx="2"><title>2026-04-04: 75 active episodes</title></rect>
  <rect x="212" y="104" width="11" height="11" fill="#fee8c7" rx="2"><title>2026-04-05: 38 active episodes</title></rect>
  <rect x="226" y="20" width="11" height="11" fill="#fee5c1" rx="2"><title>2026-04-06: 49 active episodes</title></rect>
  <rect x="226" y="34" width="11" height="11" fill="#fedfb4" rx="2"><title>2026-04-07: 76 active episodes</title></rect>
  <rect x="226" y="48" width="11" height="11" fill="#fee5c1" rx="2"><title>2026-04-08: 49 active episodes</title></rect>
  <rect x="226" y="62" width="11" height="11" fill="#fee4be" rx="2"><title>2026-04-09: 56 active episodes</title></rect>
  <rect x="226" y="76" width="11" height="11" fill="#fee5c1" rx="2"><title>2026-04-10: 49 active episodes</title></rect>
  <rect x="226" y="90" width="11" height="11" fill="#feecd0" rx="2"><title>2026-04-11: 19 active episodes</title></rect>
  <rect x="226" y="104" width="11" height="11" fill="#feefd7" rx="2"><title>2026-04-12: 6 active episodes</title></rect>
  <rect x="240" y="20" width="11" height="11" fill="#feefd6" rx="2"><title>2026-04-13: 7 active episodes</title></rect>
  <rect x="240" y="34" width="11" height="11" fill="#fee7c5" rx="2"><title>2026-04-14: 41 active episodes</title></rect>
  <rect x="240" y="48" width="11" height="11" fill="#fee6c3" rx="2"><title>2026-04-15: 45 active episodes</title></rect>
  <rect x="240" y="62" width="11" height="11" fill="#161b22" rx="2"><title>2026-04-16: 0 active episodes</title></rect>
  <rect x="240" y="76" width="11" height="11" fill="#161b22" rx="2"><title>2026-04-17: 0 active episodes</title></rect>
  <rect x="240" y="90" width="11" height="11" fill="#161b22" rx="2"><title>2026-04-18: 0 active episodes</title></rect>
  <rect x="240" y="104" width="11" height="11" fill="#161b22" rx="2"><title>2026-04-19: 0 active episodes</title></rect>
  <rect x="254" y="20" width="11" height="11" fill="#161b22" rx="2"><title>2026-04-20: 0 active episodes</title></rect>
  <rect x="254" y="34" width="11" height="11" fill="#161b22" rx="2"><title>2026-04-21: 0 active episodes</title></rect>
  <rect x="254" y="48" width="11" height="11" fill="#161b22" rx="2"><title>2026-04-22: 0 active episodes</title></rect>
  <rect x="254" y="62" width="11" height="11" fill="#161b22" rx="2"><title>2026-04-23: 0 active episodes</title></rect>
  <rect x="254" y="76" width="11" height="11" fill="#161b22" rx="2"><title>2026-04-24: 0 active episodes</title></rect>
  <rect x="254" y="90" width="11" height="11" fill="#161b22" rx="2"><title>2026-04-25: 0 active episodes</title></rect>
  <rect x="254" y="104" width="11" height="11" fill="#161b22" rx="2"><title>2026-04-26: 0 active episodes</title></rect>
  <rect x="268" y="20" width="11" height="11" fill="#161b22" rx="2"><title>2026-04-27: 0 active episodes</title></rect>
  <rect x="268" y="34" width="11" height="11" fill="#161b22" rx="2"><title>2026-04-28: 0 active episodes</title></rect>
  <rect x="268" y="48" width="11" height="11" fill="#161b22" rx="2"><title>2026-04-29: 0 active episodes</title></rect>
  <rect x="268" y="62" width="11" height="11" fill="#161b22" rx="2"><title>2026-04-30: 0 active episodes</title></rect>
  <rect x="268" y="76" width="11" height="11" fill="#161b22" rx="2"><title>2026-05-01: 0 active episodes</title></rect>
  <rect x="268" y="90" width="11" height="11" fill="#161b22" rx="2"><title>2026-05-02: 0 active episodes</title></rect>
  <rect x="268" y="104" width="11" height="11" fill="#161b22" rx="2"><title>2026-05-03: 0 active episodes</title></rect>
  <rect x="282" y="20" width="11" height="11" fill="#161b22" rx="2"><title>2026-05-04: 0 active episodes</title></rect>
  <rect x="282" y="34" width="11" height="11" fill="#161b22" rx="2"><title>2026-05-05: 0 active episodes</title></rect>
  <rect x="282" y="48" width="11" height="11" fill="#161b22" rx="2"><title>2026-05-06: 0 active episodes</title></rect>
  <rect x="282" y="62" width="11" height="11" fill="#161b22" rx="2"><title>2026-05-07: 0 active episodes</title></rect>
  <rect x="282" y="76" width="11" height="11" fill="#161b22" rx="2"><title>2026-05-08: 0 active episodes</title></rect>
  <rect x="282" y="90" width="11" height="11" fill="#161b22" rx="2"><title>2026-05-09: 0 active episodes</title></rect>
  <rect x="282" y="104" width="11" height="11" fill="#161b22" rx="2"><title>2026-05-10: 0 active episodes</title></rect>
  <rect x="296" y="20" width="11" height="11" fill="#161b22" rx="2"><title>2026-05-11: 0 active episodes</title></rect>
  <rect x="296" y="34" width="11" height="11" fill="#161b22" rx="2"><title>2026-05-12: 0 active episodes</title></rect>
  <rect x="296" y="48" width="11" height="11" fill="#161b22" rx="2"><title>2026-05-13: 0 active episodes</title></rect>
  <rect x="296" y="62" width="11" height="11" fill="#161b22" rx="2"><title>2026-05-14: 0 active episodes</title></rect>
  <rect x="296" y="76" width="11" height="11" fill="#161b22" rx="2"><title>2026-05-15: 0 active episodes</title></rect>
  <rect x="296" y="90" width="11" height="11" fill="#161b22" rx="2"><title>2026-05-16: 0 active episodes</title></rect>
  <rect x="296" y="104" width="11" height="11" fill="#161b22" rx="2"><title>2026-05-17: 0 active episodes</title></rect>
  <rect x="310" y="20" width="11" height="11" fill="#161b22" rx="2"><title>2026-05-18: 0 active episodes</title></rect>
  <rect x="310" y="34" width="11" height="11" fill="#161b22" rx="2"><title>2026-05-19: 0 active episodes</title></rect>
  <rect x="310" y="48" width="11" height="11" fill="#161b22" rx="2"><title>2026-05-20: 0 active episodes</title></rect>
  <rect x="310" y="62" width="11" height="11" fill="#161b22" rx="2"><title>2026-05-21: 0 active episodes</title></rect>
  <rect x="310" y="76" width="11" height="11" fill="#161b22" rx="2"><title>2026-05-22: 0 active episodes</title></rect>
  <rect x="310" y="90" width="11" height="11" fill="#161b22" rx="2"><title>2026-05-23: 0 active episodes</title></rect>
  <rect x="310" y="104" width="11" height="11" fill="#161b22" rx="2"><title>2026-05-24: 0 active episodes</title></rect>
  <rect x="324" y="20" width="11" height="11" fill="#161b22" rx="2"><title>2026-05-25: 0 active episodes</title></rect>
  <rect x="324" y="34" width="11" height="11" fill="#161b22" rx="2"><title>2026-05-26: 0 active episodes</title></rect>
  <rect x="324" y="48" width="11" height="11" fill="#161b22" rx="2"><title>2026-05-27: 0 active episodes</title></rect>
  <rect x="324" y="62" width="11" height="11" fill="#161b22" rx="2"><title>2026-05-28: 0 active episodes</title></rect>
  <rect x="324" y="76" width="11" height="11" fill="#161b22" rx="2"><title>2026-05-29: 0 active episodes</title></rect>
  <rect x="324" y="90" width="11" height="11" fill="#161b22" rx="2"><title>2026-05-30: 0 active episodes</title></rect>
  <rect x="324" y="104" width="11" height="11" fill="#484f58" rx="2"><title>2026-05-31: no data</title></rect>
  <rect x="338" y="20" width="11" height="11" fill="#161b22" rx="2"><title>2026-06-01: 0 active episodes</title></rect>
  <rect x="338" y="34" width="11" height="11" fill="#161b22" rx="2"><title>2026-06-02: 0 active episodes</title></rect>
  <rect x="338" y="48" width="11" height="11" fill="#161b22" rx="2"><title>2026-06-03: 0 active episodes</title></rect>
  <rect x="338" y="62" width="11" height="11" fill="#161b22" rx="2"><title>2026-06-04: 0 active episodes</title></rect>
  <rect x="338" y="76" width="11" height="11" fill="#161b22" rx="2"><title>2026-06-05: 0 active episodes</title></rect>
  <rect x="338" y="90" width="11" height="11" fill="#161b22" rx="2"><title>2026-06-06: 0 active episodes</title></rect>
  <rect x="338" y="104" width="11" height="11" fill="#fef0d8" rx="2"><title>2026-06-07: 3 active episodes</title></rect>
  <rect x="352" y="20" width="11" height="11" fill="#161b22" rx="2"><title>2026-06-08: 0 active episodes</title></rect>
  <rect x="352" y="34" width="11" height="11" fill="#161b22" rx="2"><title>2026-06-09: 0 active episodes</title></rect>
  <rect x="352" y="48" width="11" height="11" fill="#161b22" rx="2"><title>2026-06-10: 0 active episodes</title></rect>
  <rect x="352" y="62" width="11" height="11" fill="#feeed5" rx="2"><title>2026-06-11: 9 active episodes</title></rect>
  <rect x="352" y="76" width="11" height="11" fill="#161b22" rx="2"><title>2026-06-12: 0 active episodes</title></rect>
  <rect x="352" y="90" width="11" height="11" fill="#161b22" rx="2"><title>2026-06-13: 0 active episodes</title></rect>
  <rect x="352" y="104" width="11" height="11" fill="#161b22" rx="2"><title>2026-06-14: 0 active episodes</title></rect>
  <rect x="366" y="20" width="11" height="11" fill="#161b22" rx="2"><title>2026-06-15: 0 active episodes</title></rect>
  <rect x="366" y="34" width="11" height="11" fill="#161b22" rx="2"><title>2026-06-16: 0 active episodes</title></rect>
  <rect x="366" y="48" width="11" height="11" fill="#161b22" rx="2"><title>2026-06-17: 0 active episodes</title></rect>
  <rect x="366" y="62" width="11" height="11" fill="#161b22" rx="2"><title>2026-06-18: 0 active episodes</title></rect>
  <rect x="366" y="76" width="11" height="11" fill="#161b22" rx="2"><title>2026-06-19: 0 active episodes</title></rect>
  <rect x="366" y="90" width="11" height="11" fill="#161b22" rx="2"><title>2026-06-20: 0 active episodes</title></rect>
  <rect x="366" y="104" width="11" height="11" fill="#161b22" rx="2"><title>2026-06-21: 0 active episodes</title></rect>
  <rect x="380" y="20" width="11" height="11" fill="#161b22" rx="2"><title>2026-06-22: 0 active episodes</title></rect>
  <rect x="380" y="34" width="11" height="11" fill="#161b22" rx="2"><title>2026-06-23: 0 active episodes</title></rect>
  <rect x="380" y="48" width="11" height="11" fill="#161b22" rx="2"><title>2026-06-24: 0 active episodes</title></rect>
  <rect x="380" y="62" width="11" height="11" fill="#161b22" rx="2"><title>2026-06-25: 0 active episodes</title></rect>
  <rect x="380" y="76" width="11" height="11" fill="#161b22" rx="2"><title>2026-06-26: 0 active episodes</title></rect>
  <rect x="380" y="90" width="11" height="11" fill="#161b22" rx="2"><title>2026-06-27: 0 active episodes</title></rect>
  <rect x="380" y="104" width="11" height="11" fill="#484f58" rx="2"><title>2026-06-28: no data</title></rect>
  <rect x="394" y="20" width="11" height="11" fill="#161b22" rx="2"><title>2026-06-29: 0 active episodes</title></rect>
  <rect x="394" y="34" width="11" height="11" fill="#161b22" rx="2"><title>2026-06-30: 0 active episodes</title></rect>
  <rect x="394" y="48" width="11" height="11" fill="#161b22" rx="2"><title>2026-07-01: 0 active episodes</title></rect>
  <rect x="394" y="62" width="11" height="11" fill="#161b22" rx="2"><title>2026-07-02: 0 active episodes</title></rect>
  <rect x="394" y="76" width="11" height="11" fill="#161b22" rx="2"><title>2026-07-03: 0 active episodes</title></rect>
  <rect x="394" y="90" width="11" height="11" fill="#161b22" rx="2"><title>2026-07-04: 0 active episodes</title></rect>
  <rect x="394" y="104" width="11" height="11" fill="#161b22" rx="2"><title>2026-07-05: 0 active episodes</title></rect>
  <rect x="408" y="20" width="11" height="11" fill="#161b22" rx="2"><title>2026-07-06: 0 active episodes</title></rect>
  <rect x="408" y="34" width="11" height="11" fill="#161b22" rx="2"><title>2026-07-07: 0 active episodes</title></rect>
  <rect x="408" y="48" width="11" height="11" fill="#161b22" rx="2"><title>2026-07-08: 0 active episodes</title></rect>
  <rect x="408" y="62" width="11" height="11" fill="#161b22" rx="2"><title>2026-07-09: 0 active episodes</title></rect>
  <rect x="408" y="76" width="11" height="11" fill="#161b22" rx="2"><title>2026-07-10: 0 active episodes</title></rect>
  <rect x="408" y="90" width="11" height="11" fill="#161b22" rx="2"><title>2026-07-11: 0 active episodes</title></rect>
  <rect x="408" y="104" width="11" height="11" fill="#161b22" rx="2"><title>2026-07-12: 0 active episodes</title></rect>
  <rect x="422" y="20" width="11" height="11" fill="#161b22" rx="2"><title>2026-07-13: 0 active episodes</title></rect>
  <rect x="422" y="34" width="11" height="11" fill="#161b22" rx="2"><title>2026-07-14: 0 active episodes</title></rect>
  <rect x="422" y="48" width="11" height="11" fill="#161b22" rx="2"><title>2026-07-15: 0 active episodes</title></rect>
  <rect x="422" y="62" width="11" height="11" fill="#161b22" rx="2"><title>2026-07-16: 0 active episodes</title></rect>
  <rect x="422" y="76" width="11" height="11" fill="#161b22" rx="2"><title>2026-07-17: 0 active episodes</title></rect>
  <rect x="422" y="90" width="11" height="11" fill="#161b22" rx="2"><title>2026-07-18: 0 active episodes</title></rect>
  <rect x="422" y="104" width="11" height="11" fill="#484f58" rx="2"><title>2026-07-19: no data</title></rect>
  <rect x="436" y="20" width="11" height="11" fill="#484f58" rx="2"><title>2026-07-20: no data</title></rect>
  <rect x="436" y="34" width="11" height="11" fill="#484f58" rx="2"><title>2026-07-21: no data</title></rect>
  <rect x="436" y="48" width="11" height="11" fill="#484f58" rx="2"><title>2026-07-22: no data</title></rect>
  <rect x="436" y="62" width="11" height="11" fill="#484f58" rx="2"><title>2026-07-23: no data</title></rect>
  <rect x="436" y="76" width="11" height="11" fill="#484f58" rx="2"><title>2026-07-24: no data</title></rect>
  <rect x="436" y="90" width="11" height="11" fill="#484f58" rx="2"><title>2026-07-25: no data</title></rect>
  <rect x="436" y="104" width="11" height="11" fill="#484f58" rx="2"><title>2026-07-26: no data</title></rect>
  <rect x="450" y="20" width="11" height="11" fill="#484f58" rx="2"><title>2026-07-27: no data</title></rect>
  <rect x="450" y="34" width="11" height="11" fill="#484f58" rx="2"><title>2026-07-28: no data</title></rect>
  <rect x="450" y="48" width="11" height="11" fill="#484f58" rx="2"><title>2026-07-29: no data</title></rect>
  <rect x="450" y="62" width="11" height="11" fill="#484f58" rx="2"><title>2026-07-30: no data</title></rect>
  <rect x="450" y="76" width="11" height="11" fill="#484f58" rx="2"><title>2026-07-31: no data</title></rect>
  <rect x="450" y="90" width="11" height="11" fill="#484f58" rx="2"><title>2026-08-01: no data</title></rect>
  <rect x="450" y="104" width="11" height="11" fill="#484f58" rx="2"><title>2026-08-02: no data</title></rect>
  <rect x="464" y="20" width="11" height="11" fill="#484f58" rx="2"><title>2026-08-03: no data</title></rect>
  <rect x="464" y="34" width="11" height="11" fill="#484f58" rx="2"><title>2026-08-04: no data</title></rect>
  <rect x="464" y="48" width="11" height="11" fill="#484f58" rx="2"><title>2026-08-05: no data</title></rect>
  <rect x="464" y="62" width="11" height="11" fill="#484f58" rx="2"><title>2026-08-06: no data</title></rect>
  <rect x="464" y="76" width="11" height="11" fill="#484f58" rx="2"><title>2026-08-07: no data</title></rect>
  <rect x="464" y="90" width="11" height="11" fill="#484f58" rx="2"><title>2026-08-08: no data</title></rect>
  <rect x="464" y="104" width="11" height="11" fill="#484f58" rx="2"><title>2026-08-09: no data</title></rect>
  <rect x="478" y="20" width="11" height="11" fill="#484f58" rx="2"><title>2026-08-10: no data</title></rect>
  <rect x="478" y="34" width="11" height="11" fill="#484f58" rx="2"><title>2026-08-11: no data</title></rect>
  <rect x="478" y="48" width="11" height="11" fill="#484f58" rx="2"><title>2026-08-12: no data</title></rect>
  <rect x="478" y="62" width="11" height="11" fill="#484f58" rx="2"><title>2026-08-13: no data</title></rect>
  <rect x="478" y="76" width="11" height="11" fill="#484f58" rx="2"><title>2026-08-14: no data</title></rect>
  <rect x="478" y="90" width="11" height="11" fill="#484f58" rx="2"><title>2026-08-15: no data</title></rect>
  <rect x="478" y="104" width="11" height="11" fill="#484f58" rx="2"><title>2026-08-16: no data</title></rect>
  <rect x="492" y="20" width="11" height="11" fill="#484f58" rx="2"><title>2026-08-17: no data</title></rect>
  <rect x="492" y="34" width="11" height="11" fill="#484f58" rx="2"><title>2026-08-18: no data</title></rect>
  <rect x="492" y="48" width="11" height="11" fill="#484f58" rx="2"><title>2026-08-19: no data</title></rect>
  <rect x="492" y="62" width="11" height="11" fill="#484f58" rx="2"><title>2026-08-20: no data</title></rect>
  <rect x="492" y="76" width="11" height="11" fill="#484f58" rx="2"><title>2026-08-21: no data</title></rect>
  <rect x="492" y="90" width="11" height="11" fill="#484f58" rx="2"><title>2026-08-22: no data</title></rect>
  <rect x="492" y="104" width="11" height="11" fill="#484f58" rx="2"><title>2026-08-23: no data</title></rect>
  <rect x="506" y="20" width="11" height="11" fill="#484f58" rx="2"><title>2026-08-24: no data</title></rect>
  <rect x="506" y="34" width="11" height="11" fill="#484f58" rx="2"><title>2026-08-25: no data</title></rect>
  <rect x="506" y="48" width="11" height="11" fill="#484f58" rx="2"><title>2026-08-26: no data</title></rect>
  <rect x="506" y="62" width="11" height="11" fill="#484f58" rx="2"><title>2026-08-27: no data</title></rect>
  <rect x="506" y="76" width="11" height="11" fill="#484f58" rx="2"><title>2026-08-28: no data</title></rect>
  <rect x="506" y="90" width="11" height="11" fill="#484f58" rx="2"><title>2026-08-29: no data</title></rect>
  <rect x="506" y="104" width="11" height="11" fill="#484f58" rx="2"><title>2026-08-30: no data</title></rect>
  <rect x="520" y="20" width="11" height="11" fill="#484f58" rx="2"><title>2026-08-31: no data</title></rect>
  <rect x="520" y="34" width="11" height="11" fill="#484f58" rx="2"><title>2026-09-01: no data</title></rect>
  <rect x="520" y="48" width="11" height="11" fill="#484f58" rx="2"><title>2026-09-02: no data</title></rect>
  <rect x="520" y="62" width="11" height="11" fill="#484f58" rx="2"><title>2026-09-03: no data</title></rect>
  <rect x="520" y="76" width="11" height="11" fill="#484f58" rx="2"><title>2026-09-04: no data</title></rect>
  <rect x="520" y="90" width="11" height="11" fill="#484f58" rx="2"><title>2026-09-05: no data</title></rect>
  <rect x="520" y="104" width="11" height="11" fill="#484f58" rx="2"><title>2026-09-06: no data</title></rect>
  <rect x="534" y="20" width="11" height="11" fill="#484f58" rx="2"><title>2026-09-07: no data</title></rect>
  <rect x="534" y="34" width="11" height="11" fill="#484f58" rx="2"><title>2026-09-08: no data</title></rect>
  <rect x="534" y="48" width="11" height="11" fill="#484f58" rx="2"><title>2026-09-09: no data</title></rect>
  <rect x="534" y="62" width="11" height="11" fill="#484f58" rx="2"><title>2026-09-10: no data</title></rect>
  <rect x="534" y="76" width="11" height="11" fill="#484f58" rx="2"><title>2026-09-11: no data</title></rect>
  <rect x="534" y="90" width="11" height="11" fill="#484f58" rx="2"><title>2026-09-12: no data</title></rect>
  <rect x="534" y="104" width="11" height="11" fill="#484f58" rx="2"><title>2026-09-13: no data</title></rect>
  <rect x="548" y="20" width="11" height="11" fill="#484f58" rx="2"><title>2026-09-14: no data</title></rect>
  <rect x="548" y="34" width="11" height="11" fill="#484f58" rx="2"><title>2026-09-15: no data</title></rect>
  <rect x="548" y="48" width="11" height="11" fill="#484f58" rx="2"><title>2026-09-16: no data</title></rect>
  <rect x="548" y="62" width="11" height="11" fill="#484f58" rx="2"><title>2026-09-17: no data</title></rect>
  <rect x="548" y="76" width="11" height="11" fill="#484f58" rx="2"><title>2026-09-18: no data</title></rect>
  <rect x="548" y="90" width="11" height="11" fill="#484f58" rx="2"><title>2026-09-19: no data</title></rect>
  <rect x="548" y="104" width="11" height="11" fill="#484f58" rx="2"><title>2026-09-20: no data</title></rect>
  <rect x="562" y="20" width="11" height="11" fill="#484f58" rx="2"><title>2026-09-21: no data</title></rect>
  <rect x="562" y="34" width="11" height="11" fill="#484f58" rx="2"><title>2026-09-22: no data</title></rect>
  <rect x="562" y="48" width="11" height="11" fill="#484f58" rx="2"><title>2026-09-23: no data</title></rect>
  <rect x="562" y="62" width="11" height="11" fill="#484f58" rx="2"><title>2026-09-24: no data</title></rect>
  <rect x="562" y="76" width="11" height="11" fill="#484f58" rx="2"><title>2026-09-25: no data</title></rect>
  <rect x="562" y="90" width="11" height="11" fill="#484f58" rx="2"><title>2026-09-26: no data</title></rect>
  <rect x="562" y="104" width="11" height="11" fill="#484f58" rx="2"><title>2026-09-27: no data</title></rect>
  <rect x="576" y="20" width="11" height="11" fill="#484f58" rx="2"><title>2026-09-28: no data</title></rect>
  <rect x="576" y="34" width="11" height="11" fill="#484f58" rx="2"><title>2026-09-29: no data</title></rect>
  <rect x="576" y="48" width="11" height="11" fill="#484f58" rx="2"><title>2026-09-30: no data</title></rect>
  <rect x="576" y="62" width="11" height="11" fill="#484f58" rx="2"><title>2026-10-01: no data</title></rect>
  <rect x="576" y="76" width="11" height="11" fill="#484f58" rx="2"><title>2026-10-02: no data</title></rect>
  <rect x="576" y="90" width="11" height="11" fill="#484f58" rx="2"><title>2026-10-03: no data</title></rect>
  <rect x="576" y="104" width="11" height="11" fill="#484f58" rx="2"><title>2026-10-04: no data</title></rect>
  <rect x="590" y="20" width="11" height="11" fill="#484f58" rx="2"><title>2026-10-05: no data</title></rect>
  <rect x="590" y="34" width="11" height="11" fill="#484f58" rx="2"><title>2026-10-06: no data</title></rect>
  <rect x="590" y="48" width="11" height="11" fill="#484f58" rx="2"><title>2026-10-07: no data</title></rect>
  <rect x="590" y="62" width="11" height="11" fill="#484f58" rx="2"><title>2026-10-08: no data</title></rect>
  <rect x="590" y="76" width="11" height="11" fill="#484f58" rx="2"><title>2026-10-09: no data</title></rect>
  <rect x="590" y="90" width="11" height="11" fill="#484f58" rx="2"><title>2026-10-10: no data</title></rect>
  <rect x="590" y="104" width="11" height="11" fill="#484f58" rx="2"><title>2026-10-11: no data</title></rect>
  <rect x="604" y="20" width="11" height="11" fill="#484f58" rx="2"><title>2026-10-12: no data</title></rect>
  <rect x="604" y="34" width="11" height="11" fill="#484f58" rx="2"><title>2026-10-13: no data</title></rect>
  <rect x="604" y="48" width="11" height="11" fill="#484f58" rx="2"><title>2026-10-14: no data</title></rect>
  <rect x="604" y="62" width="11" height="11" fill="#484f58" rx="2"><title>2026-10-15: no data</title></rect>
  <rect x="604" y="76" width="11" height="11" fill="#484f58" rx="2"><title>2026-10-16: no data</title></rect>
  <rect x="604" y="90" width="11" height="11" fill="#484f58" rx="2"><title>2026-10-17: no data</title></rect>
  <rect x="604" y="104" width="11" height="11" fill="#484f58" rx="2"><title>2026-10-18: no data</title></rect>
  <rect x="618" y="20" width="11" height="11" fill="#484f58" rx="2"><title>2026-10-19: no data</title></rect>
  <rect x="618" y="34" width="11" height="11" fill="#484f58" rx="2"><title>2026-10-20: no data</title></rect>
  <rect x="618" y="48" width="11" height="11" fill="#484f58" rx="2"><title>2026-10-21: no data</title></rect>
  <rect x="618" y="62" width="11" height="11" fill="#484f58" rx="2"><title>2026-10-22: no data</title></rect>
  <rect x="618" y="76" width="11" height="11" fill="#484f58" rx="2"><title>2026-10-23: no data</title></rect>
  <rect x="618" y="90" width="11" height="11" fill="#484f58" rx="2"><title>2026-10-24: no data</title></rect>
  <rect x="618" y="104" width="11" height="11" fill="#484f58" rx="2"><title>2026-10-25: no data</title></rect>
  <rect x="632" y="20" width="11" height="11" fill="#484f58" rx="2"><title>2026-10-26: no data</title></rect>
  <rect x="632" y="34" width="11" height="11" fill="#484f58" rx="2"><title>2026-10-27: no data</title></rect>
  <rect x="632" y="48" width="11" height="11" fill="#484f58" rx="2"><title>2026-10-28: no data</title></rect>
  <rect x="632" y="62" width="11" height="11" fill="#484f58" rx="2"><title>2026-10-29: no data</title></rect>
  <rect x="632" y="76" width="11" height="11" fill="#484f58" rx="2"><title>2026-10-30: no data</title></rect>
  <rect x="632" y="90" width="11" height="11" fill="#484f58" rx="2"><title>2026-10-31: no data</title></rect>
  <rect x="632" y="104" width="11" height="11" fill="#484f58" rx="2"><title>2026-11-01: no data</title></rect>
  <rect x="646" y="20" width="11" height="11" fill="#484f58" rx="2"><title>2026-11-02: no data</title></rect>
  <rect x="646" y="34" width="11" height="11" fill="#484f58" rx="2"><title>2026-11-03: no data</title></rect>
  <rect x="646" y="48" width="11" height="11" fill="#484f58" rx="2"><title>2026-11-04: no data</title></rect>
  <rect x="646" y="62" width="11" height="11" fill="#484f58" rx="2"><title>2026-11-05: no data</title></rect>
  <rect x="646" y="76" width="11" height="11" fill="#484f58" rx="2"><title>2026-11-06: no data</title></rect>
  <rect x="646" y="90" width="11" height="11" fill="#484f58" rx="2"><title>2026-11-07: no data</title></rect>
  <rect x="646" y="104" width="11" height="11" fill="#484f58" rx="2"><title>2026-11-08: no data</title></rect>
  <rect x="660" y="20" width="11" height="11" fill="#484f58" rx="2"><title>2026-11-09: no data</title></rect>
  <rect x="660" y="34" width="11" height="11" fill="#484f58" rx="2"><title>2026-11-10: no data</title></rect>
  <rect x="660" y="48" width="11" height="11" fill="#484f58" rx="2"><title>2026-11-11: no data</title></rect>
  <rect x="660" y="62" width="11" height="11" fill="#484f58" rx="2"><title>2026-11-12: no data</title></rect>
  <rect x="660" y="76" width="11" height="11" fill="#484f58" rx="2"><title>2026-11-13: no data</title></rect>
  <rect x="660" y="90" width="11" height="11" fill="#484f58" rx="2"><title>2026-11-14: no data</title></rect>
  <rect x="660" y="104" width="11" height="11" fill="#484f58" rx="2"><title>2026-11-15: no data</title></rect>
  <rect x="674" y="20" width="11" height="11" fill="#484f58" rx="2"><title>2026-11-16: no data</title></rect>
  <rect x="674" y="34" width="11" height="11" fill="#484f58" rx="2"><title>2026-11-17: no data</title></rect>
  <rect x="674" y="48" width="11" height="11" fill="#484f58" rx="2"><title>2026-11-18: no data</title></rect>
  <rect x="674" y="62" width="11" height="11" fill="#484f58" rx="2"><title>2026-11-19: no data</title></rect>
  <rect x="674" y="76" width="11" height="11" fill="#484f58" rx="2"><title>2026-11-20: no data</title></rect>
  <rect x="674" y="90" width="11" height="11" fill="#484f58" rx="2"><title>2026-11-21: no data</title></rect>
  <rect x="674" y="104" width="11" height="11" fill="#484f58" rx="2"><title>2026-11-22: no data</title></rect>
  <rect x="688" y="20" width="11" height="11" fill="#484f58" rx="2"><title>2026-11-23: no data</title></rect>
  <rect x="688" y="34" width="11" height="11" fill="#484f58" rx="2"><title>2026-11-24: no data</title></rect>
  <rect x="688" y="48" width="11" height="11" fill="#484f58" rx="2"><title>2026-11-25: no data</title></rect>
  <rect x="688" y="62" width="11" height="11" fill="#484f58" rx="2"><title>2026-11-26: no data</title></rect>
  <rect x="688" y="76" width="11" height="11" fill="#484f58" rx="2"><title>2026-11-27: no data</title></rect>
  <rect x="688" y="90" width="11" height="11" fill="#484f58" rx="2"><title>2026-11-28: no data</title></rect>
  <rect x="688" y="104" width="11" height="11" fill="#484f58" rx="2"><title>2026-11-29: no data</title></rect>
  <rect x="702" y="20" width="11" height="11" fill="#484f58" rx="2"><title>2026-11-30: no data</title></rect>
  <rect x="702" y="34" width="11" height="11" fill="#484f58" rx="2"><title>2026-12-01: no data</title></rect>
  <rect x="702" y="48" width="11" height="11" fill="#484f58" rx="2"><title>2026-12-02: no data</title></rect>
  <rect x="702" y="62" width="11" height="11" fill="#484f58" rx="2"><title>2026-12-03: no data</title></rect>
  <rect x="702" y="76" width="11" height="11" fill="#484f58" rx="2"><title>2026-12-04: no data</title></rect>
  <rect x="702" y="90" width="11" height="11" fill="#484f58" rx="2"><title>2026-12-05: no data</title></rect>
  <rect x="702" y="104" width="11" height="11" fill="#484f58" rx="2"><title>2026-12-06: no data</title></rect>
  <rect x="716" y="20" width="11" height="11" fill="#484f58" rx="2"><title>2026-12-07: no data</title></rect>
  <rect x="716" y="34" width="11" height="11" fill="#484f58" rx="2"><title>2026-12-08: no data</title></rect>
  <rect x="716" y="48" width="11" height="11" fill="#484f58" rx="2"><title>2026-12-09: no data</title></rect>
  <rect x="716" y="62" width="11" height="11" fill="#484f58" rx="2"><title>2026-12-10: no data</title></rect>
  <rect x="716" y="76" width="11" height="11" fill="#484f58" rx="2"><title>2026-12-11: no data</title></rect>
  <rect x="716" y="90" width="11" height="11" fill="#484f58" rx="2"><title>2026-12-12: no data</title></rect>
  <rect x="716" y="104" width="11" height="11" fill="#484f58" rx="2"><title>2026-12-13: no data</title></rect>
  <rect x="730" y="20" width="11" height="11" fill="#484f58" rx="2"><title>2026-12-14: no data</title></rect>
  <rect x="730" y="34" width="11" height="11" fill="#484f58" rx="2"><title>2026-12-15: no data</title></rect>
  <rect x="730" y="48" width="11" height="11" fill="#484f58" rx="2"><title>2026-12-16: no data</title></rect>
  <rect x="730" y="62" width="11" height="11" fill="#484f58" rx="2"><title>2026-12-17: no data</title></rect>
  <rect x="730" y="76" width="11" height="11" fill="#484f58" rx="2"><title>2026-12-18: no data</title></rect>
  <rect x="730" y="90" width="11" height="11" fill="#484f58" rx="2"><title>2026-12-19: no data</title></rect>
  <rect x="730" y="104" width="11" height="11" fill="#484f58" rx="2"><title>2026-12-20: no data</title></rect>
  <rect x="744" y="20" width="11" height="11" fill="#484f58" rx="2"><title>2026-12-21: no data</title></rect>
  <rect x="744" y="34" width="11" height="11" fill="#484f58" rx="2"><title>2026-12-22: no data</title></rect>
  <rect x="744" y="48" width="11" height="11" fill="#484f58" rx="2"><title>2026-12-23: no data</title></rect>
  <rect x="744" y="62" width="11" height="11" fill="#484f58" rx="2"><title>2026-12-24: no data</title></rect>
  <rect x="744" y="76" width="11" height="11" fill="#484f58" rx="2"><title>2026-12-25: no data</title></rect>
  <rect x="744" y="90" width="11" height="11" fill="#484f58" rx="2"><title>2026-12-26: no data</title></rect>
  <rect x="744" y="104" width="11" height="11" fill="#484f58" rx="2"><title>2026-12-27: no data</title></rect>
  <rect x="758" y="20" width="11" height="11" fill="#484f58" rx="2"><title>2026-12-28: no data</title></rect>
  <rect x="758" y="34" width="11" height="11" fill="#484f58" rx="2"><title>2026-12-29: no data</title></rect>
  <rect x="758" y="48" width="11" height="11" fill="#484f58" rx="2"><title>2026-12-30: no data</title></rect>
  <rect x="758" y="62" width="11" height="11" fill="#484f58" rx="2"><title>2026-12-31: no data</title></rect>
  <text x="30" y="133" class="title">2026 - 5388 heating episodes</text>
  <defs>
    <linearGradient id="legend-gradient" x1="0" y1="0" x2="1" y2="0">
      <stop offset="0%" stop-color="#fef0d9"/>
      <stop offset="33.33333333333333%" stop-color="#fdcc8a"/>
      <stop offset="66.66666666666666%" stop-color="#fc8d59"/>
      <stop offset="100%" stop-color="#d7301f"/>
    </linearGradient>
  </defs>
  <text x="560" y="133" class="legend">No data</text>
  <rect x="602" y="123" width="11" height="11" fill="#484f58" rx="2"/>
  <text x="632" y="133" class="legend">Less</text>
  <rect x="662" y="123" width="11" height="11" fill="#161b22" rx="2"/>
  <rect x="676" y="123" width="53" height="11" fill="url(#legend-gradient)" rx="2"/>
  <text x="737" y="133" class="legend">More</text>
</svg>