<svg width="782" height="148" xmlns="http://www.w3.org/2000/svg">
  <style>
    .month { font: 10px sans-serif; fill: #8b949e; }
    .day { font: 10px sans-serif; fill: #8b949e; }
    .title { font: bold 14px sans-serif; fill: #c9d1d9; }
    .legend { font: 10px sans-serif; fill: #8b949e; }
  </style>
  <rect width="100%" height="100%" fill="#0d1117"/>
  <text x="0" y="29" class="day">Mon</text>
  <text x="0" y="57" class="day">Wed</text>
  <text x="0" y="85" class="day">Fri</text>
  <text x="0" y="113" class="day">Sun</text>
  <text x="30" y="15" class="month">Jan</text>
  <text x="100" y="15" class="month">Feb</text>
  <text x="156" y="15" class="month">Mar</text>
  <text x="212" y="15" class="month">Apr</text>
  <text x="282" y="15" class="month">May</text>
  <text x="338" y="15" class="month">Jun</text>
  <text x="394" y="15" class="month">Jul</text>
  <text x="464" y="15" class="month">Aug</text>
  <text x="520" y="15" class="month">Sep</text>
  <text x="576" y="15" class="month">Oct</text>
  <text x="646" y="15" class="month">Nov</text>
  <text x="702" y="15" class="month">Dec</text>
  <rect x="30" y="62" width="11" height="11" fill="#feedd2" rx="2"><title>2026-01-01: 16 active episodes</title></rect>
  <rect x="30" y="76" width="11" height="11" fill="#fef0d9" rx="2"><title>2026-01-02: 1 active episode</title></rect>
  <rect x="30" y="90" width="11" height="11" fill="#feefd8" rx="2"><title>2026-01-03: 4 active episodes</title></rect>
  <rect x="30" y="104" width="11" height="11" fill="#fda369" rx="2"><title>2026-01-04: 291 active episodes</title></rect>
  <rect x="44" y="20" width="11" height="11" fill="#fea46a" rx="2"><title>2026-01-05: 286 active episodes</title></rect>
  <rect x="44" y="34" width="11" height="11" fill="#fea46a" rx="2"><title>2026-01-06: 286 active episodes</title></rect>
  <rect x="44" y="48" width="11" height="11" fill="#fea56b" rx="2"><title>2026-01-07: 285 active episodes</title></rect>
  <rect x="44" y="62" width="11" height="11" fill="#fc8f5b" rx="2"><title>2026-01-08: 343 active episodes</title></rect>
  <rect x="44" y="76" width="11" height="11" fill="#fa8856" rx="2"><title>2026-01-09: 359 active episodes</title></rect>
  <rect x="44" y="90" width="11" height="11" fill="#fc8d59" rx="2"><title>2026-01-10: 349 active episodes</title></rect>
  <rect x="44" y="104" width="11" height="11" fill="#fb8a57" rx="2"><title>2026-01-11: 356 active episodes</title></rect>
  <rect x="58" y="20" width="11" height="11" fill="#f98653" rx="2"><title>2026-01-12: 365 active episodes</title></rect>
  <rect x="58" y="34" width="11" height="11" fill="#f27447" rx="2"><title>2026-01-13: 402 active episodes</title></rect>
  <rect x="58" y="48" width="11" height="11" fill="#f27447" rx="2"><title>2026-01-14: 401 active episodes</title></rect>
  <rect x="58" y="62" width="11" height="11" fill="#fed298" rx="2"><title>2026-01-15: 145 active episodes</title></rect>
  <rect x="58" y="76" width="11" height="11" fill="#fed49b" rx="2"><title>2026-01-16: 137 active episodes</title></rect>
  <rect x="58" y="90" width="11" height="11" fill="#fdcd8b" rx="2"><title>2026-01-17: 172 active episodes</title></rect>
  <rect x="58" y="104" width="11" height="11" fill="#ffe2ba" rx="2"><title>2026-01-18: 69 active episodes</title></rect>
  <rect x="72" y="20" width="11" height="11" fill="#ffdfb5" rx="2"><title>2026-01-19: 81 active episodes</title></rect>
  <rect x="72" y="34" width="11" height="11" fill="#ffdaa9" rx="2"><title>2026-01-20: 106 active episodes</title></rect>
  <rect x="72" y="48" width="11" height="11" fill="#fed6a0" rx="2"><title>2026-01-21: 127 active episodes</title></rect>
  <rect x="72" y="62" width="11" height="11" fill="#ffdaa9" rx="2"><title>2026-01-22: 107 active episodes</title></rect>
  <rect x="72" y="76" width="11" height="11" fill="#ffe3bc" rx="2"><title>2026-01-23: 65 active episodes</title></rect>
  <rect x="72" y="90" width="11" height="11" fill="#ffe7c6" rx="2"><title>2026-01-24: 43 active episodes</title></rect>
  <rect x="72" y="104" width="11" height="11" fill="#ffdeb2" rx="2"><title>2026-01-25: 87 active episodes</title></rect>
  <rect x="86" y="20" width="11" height="11" fill="#feab6f" rx="2"><title>2026-01-26: 268 active episodes</title></rect>
  <rect x="86" y="34" width="11" height="11" fill="#feb87a" rx="2"><title>2026-01-27: 232 active episodes</title></rect>
  <rect x="86" y="48" width="11" height="11" fill="#ffd7a3" rx="2"><title>2026-01-28: 120 active episodes</title></rect>
  <rect x="86" y="62" width="11" height="11" fill="#ffd7a3" rx="2"><title>2026-01-29: 119 active episodes</title></rect>
  <rect x="86" y="76" width="11" height="11" fill="#ffdfb3" rx="2"><title>2026-01-30: 84 active episodes</title></rect>
  <rect x="86" y="90" width="11" height="11" fill="#ffeacb" rx="2"><title>2026-01-31: 31 active episodes</title></rect>
  <rect x="86" y="104" width="11" height="11" fill="#ffe8c8" rx="2"><title>2026-02-01: 38 active episodes</title></rect>
  <rect x="100" y="20" width="11" height="11" fill="#ffe6c3" rx="2"><title>2026-02-02: 50 active episodes</title></rect>
  <rect x="100" y="34" width="11" height="11" fill="#ffe7c6" rx="2"><title>2026-02-03: 42 active episodes</title></rect>
  <rect x="100" y="48" width="11" height="11" fill="#fc8f5a" rx="2"><title>2026-02-04: 344 active episodes</title></rect>
  <rect x="100" y="62" width="11" height="11" fill="#fb8b58" rx="2"><title>2026-02-05: 353 active episodes</title></rect>
  <rect x="100" y="76" width="11" height="11" fill="#fc925c" rx="2"><title>2026-02-06: 337 active episodes</title></rect>
  <rect x="100" y="90" width="11" height="11" fill="#fd9e65" rx="2"><title>2026-02-07: 304 active episodes</title></rect>
  <rect x="100" y="104" width="11" height="11" fill="#ffeacb" rx="2"><title>2026-02-08: 31 active episodes</title></rect>
  <rect x="114" y="20" width="11" height="11" fill="#ffe6c2" rx="2"><title>2026-02-09: 51 active episodes</title></rect>
  <rect x="114" y="34" width="11" height="11" fill="#ffe1b9" rx="2"><title>2026-02-10: 72 active episodes</title></rect>
  <rect x="114" y="48" width="11" height="11" fill="#ffe2bb" rx="2"><title>2026-02-11: 66 active episodes</title></rect>
  <rect x="114" y="62" width="11" height="11" fill="#ffe2bb" rx="2"><title>2026-02-12: 66 active episodes</title></rect>
  <rect x="114" y="76" width="11" height="11" fill="#ffe7c5" rx="2"><title>2026-02-13: 45 active episodes</title></rect>
  <rect x="114" y="90" width="11" height="11" fill="#feeed5" rx="2"><title>2026-02-14: 10 active episodes</title></rect>
  <rect x="114" y="104" width="11" height="11" fill="#feefd6" rx="2"><title>2026-02-15: 8 active episodes</title></rect>
  <rect x="128" y="20" width="11" height="11" fill="#ffdaa8" rx="2"><title>2026-02-16: 108 active episodes</title></rect>
  <rect x="128" y="34" width="11" height="11" fill="#fed6a0" rx="2"><title>2026-02-17: 126 active episodes</title></rect>
  <rect x="128" y="48" width="11" height="11" fill="#ffdcad" rx="2"><title>2026-02-18: 98 active episodes</title></rect>
  <rect x="128" y="62" width="11" height="11" fill="#ffe3bd" rx="2"><title>2026-02-19: 62 active episodes</title></rect>
  <rect x="128" y="76" width="11" height="11" fill="#ffeacb" rx="2"><title>2026-02-20: 32 active episodes</title></rect>
  <rect x="128" y="90" width="11" height="11" fill="#ffeccf" rx="2"><title>2026-02-21: 22 active episodes</title></rect>
  <rect x="128" y="104" width="11" height="11" fill="#feecd1" rx="2"><title>2026-02-22: 19 active episodes</title></rect>
  <rect x="142" y="20" width="11" height="11" fill="#ffe1b9" rx="2"><title>2026-02-23: 71 active episodes</title></rect>
  <rect x="142" y="34" width="11" height="11" fill="#ffdeb1" rx="2"><title>2026-02-24: 88 active episodes</title></rect>
  <rect x="142" y="48" width="11" height="11" fill="#ffd8a4" rx="2"><title>2026-02-25: 118 active episodes</title></rect>
  <rect x="142" y="62" width="11" height="11" fill="#ffe3bd" rx="2"><title>2026-02-26: 63 active episodes</title></rect>
  <rect x="142" y="76" width="11" height="11" fill="#ffe8c7" rx="2"><title>2026-02-27: 41 active episodes</title></rect>
  <rect x="142" y="90" width="11" height="11" fill="#ffebce" rx="2"><title>2026-02-28: 24 active episodes</title></rect>
  <rect x="142" y="104" width="11" height="11" fill="#feedd3" rx="2"><title>2026-03-01: 15 active episodes</title></rect>
  <rect x="156" y="20" width="11" height="11" fill="#ffdaa8" rx="2"><title>2026-03-02: 109 active episodes</title></rect>
  <rect x="156" y="34" width="11" height="11" fill="#fed298" rx="2"><title>2026-03-03: 145 active episodes</title></rect>
  <rect x="156" y="48" width="11" height="11" fill="#fed59d" rx="2"><title>2026-03-04: 133 active episodes</title></rect>
  <rect x="156" y="62" width="11" height="11" fill="#fed39a" rx="2"><title>2026-03-05: 139 active episodes</title></rect>
  <rect x="156" y="76" width="11" height="11" fill="#fed59f" rx="2"><title>2026-03-06: 129 active episodes</title></rect>
  <rect x="156" y="90" width="11" height="11" fill="#ffe2ba" rx="2"><title>2026-03-07: 69 active episodes</title></rect>
  <rect x="156" y="104" width="11" height="11" fill="#ffeccf" rx="2"><title>2026-03-08: 22 active episodes</title></rect>
  <rect x="170" y="20" width="11" height="11" fill="#ffdaa9" rx="2"><title>2026-03-09: 107 active episodes</title></rect>
  <rect x="170" y="34" width="11" height="11" fill="#fed7a1" rx="2"><title>2026-03-10: 123 active episodes</title></rect>
  <rect x="170" y="48" width="11" height="11" fill="#ffddb0" rx="2"><title>2026-03-11: 92 active episodes</title></rect>
  <rect x="170" y="62" width="11" height="11" fill="#ffdcac" rx="2"><title>2026-03-12: 99 active episodes</title></rect>
  <rect x="170" y="76" width="11" height="11" fill="#ffdfb4" rx="2"><title>2026-03-13: 82 active episodes</title></rect>
  <rect x="170" y="90" width="11" height="11" fill="#ffe6c2" rx="2"><title>2026-03-14: 51 active episodes</title></rect>
  <rect x="170" y="104" width="11" height="11" fill="#ffe7c4" rx="2"><title>2026-03-15: 46 active episodes</title></rect>
  <rect x="184" y="20" width="11" height="11" fill="#fed49b" rx="2"><title>2026-03-16: 138 active episodes</title></rect>
  <rect x="184" y="34" width="11" height="11" fill="#fdcb89" rx="2"><title>2026-03-17: 179 active episodes</title></rect>
  <rect x="184" y="48" width="11" height="11" fill="#fdc887" rx="2"><title>2026-03-18: 187 active episodes</title></rect>
  <rect x="184" y="62" width="11" height="11" fill="#fec080" rx="2"><title>2026-03-19: 209 active episodes</title></rect>
  <rect x="184" y="76" width="11" height="11" fill="#ffdaa8" rx="2"><title>2026-03-20: 109 active episodes</title></rect>
  <rect x="184" y="90" width="11" height="11" fill="#feecd0" rx="2"><title>2026-03-21: 21 active episodes</title></rect>
  <rect x="184" y="104" width="11" height="11" fill="#ffeacd" rx="2"><title>2026-03-22: 28 active episodes</title></rect>
  <rect x="198" y="20" width="11" height="11" fill="#ffd7a3" rx="2"><title>2026-03-23: 119 active episodes</title></rect>
  <rect x="198" y="34" width="11" height="11" fill="#ffdcad" rx="2"><title>2026-03-24: 97 active episodes</title></rect>
  <rect x="198" y="48" width="11" height="11" fill="#fed399" rx="2"><title>2026-03-25: 141 active episodes</title></rect>
  <rect x="198" y="62" width="11" height="11" fill="#ffdbab" rx="2"><title>2026-03-26: 101 active episodes</title></rect>
  <rect x="198" y="76" width="11" height="11" fill="#ffe2ba" rx="2"><title>2026-03-27: 68 active episodes</title></rect>
  <rect x="198" y="90" width="11" height="11" fill="#feecd1" rx="2"><title>2026-03-28: 18 active episodes</title></rect>
  <rect x="198" y="104" width="11" height="11" fill="#ffebce" rx="2"><title>2026-03-29: 24 active episodes</title></rect>
  <rect x="212" y="20" width="11" height="11" fill="#ffe2ba" rx="2"><title>2026-03-30: 68 active episodes</title></rect>
  <rect x="212" y="34" width="11" height="11" fill="#ffd8a4" rx="2"><title>2026-03-31: 117 active episodes</title></rect>
  <rect x="212" y="48" width="11" height="11" fill="#fed69f" rx="2"><title>2026-04-01: 128 active episodes</title></rect>
  <rect x="212" y="62" width="11" height="11" fill="#ffd8a4" rx="2"><title>2026-04-02: 117 active episodes</title></rect>
  <rect x="212" y="76" width="11" height="11" fill="#ffdbab" rx="2"><title>2026-04-03: 103 active episodes</title></rect>
  <rect x="212" y="90" width="11" height="11" fill="#ffe7c4" rx="2"><title>2026-04-04: 46 active episodes</title></rect>
  <rect x="212" y="104" width="11" height="11" fill="#feecd0" rx="2"><title>2026-04-05: 21 active episodes</title></rect>
  <rect x="226" y="20" width="11" height="11" fill="#ffe4bf" rx="2"><title>2026-04-06: 57 active episodes</title></rect>
  <rect x="226" y="34" width="11" height="11" fill="#ffe0b6" rx="2"><title>2026-04-07: 78 active episodes</title></rect>
  <rect x="226" y="48" width="11" height="11" fill="#ffe4bf" rx="2"><title>2026-04-08: 57 active episodes</title></rect>
  <rect x="226" y="62" width="11" height="11" fill="#ffe8c9" rx="2"><title>2026-04-09: 37 active episodes</title></rect>
  <rect x="226" y="76" width="11" height="11" fill="#feecd0" rx="2"><title>2026-04-10: 21 active episodes</title></rect>
  <rect x="226" y="90" width="11" height="11" fill="#feeed5" rx="2"><title>2026-04-11: 10 active episodes</title></rect>
  <rect x="226" y="104" width="11" height="11" fill="#feefd6" rx="2"><title>2026-04-12: 7 active episodes</title></rect>
  <rect x="240" y="20" width="11" height="11" fill="#feefd6" rx="2"><title>2026-04-13: 7 active episodes</title></rect>
  <rect x="240" y="34" width="11" height="11" fill="#ffe6c3" rx="2"><title>2026-04-14: 50 active episodes</title></rect>
  <rect x="240" y="48" width="11" height="11" fill="#fc915c" rx="2"><title>2026-04-15: 339 active episodes</title></rect>
  <rect x="240" y="62" width="11" height="11" fill="#f57d4d" rx="2"><title>2026-04-16: 383 active episodes</title></rect>
  <rect x="240" y="76" width="11" height="11" fill="#feba7b" rx="2"><title>2026-04-17: 227 active episodes</title></rect>
  <rect x="240" y="90" width="11" height="11" fill="#ffd7a3" rx="2"><title>2026-04-18: 120 active episodes</title></rect>
  <rect x="240" y="104" width="11" height="11" fill="#fed093" rx="2"><title>2026-04-19: 155 active episodes</title></rect>
  <rect x="254" y="20" width="11" height="11" fill="#febe7e" rx="2"><title>2026-04-20: 216 active episodes</title></rect>
  <rect x="254" y="34" width="11" height="11" fill="#f98654" rx="2"><title>2026-04-21: 364 active episodes</title></rect>
  <rect x="254" y="48" width="11" height="11" fill="#fed297" rx="2"><title>2026-04-22: 146 active episodes</title></rect>
  <rect x="254" y="62" width="11" height="11" fill="#fed194" rx="2"><title>2026-04-23: 152 active episodes</title></rect>
  <rect x="254" y="76" width="11" height="11" fill="#fed49d" rx="2"><title>2026-04-24: 134 active episodes</title></rect>
  <rect x="254" y="90" width="11" height="11" fill="#ffdfb5" rx="2"><title>2026-04-25: 81 active episodes</title></rect>
  <rect x="254" y="104" width="11" height="11" fill="#fed6a1" rx="2"><title>2026-04-26: 124 active episodes</title></rect>
  <rect x="268" y="20" width="11" height="11" fill="#fec483" rx="2"><title>2026-04-27: 199 active episodes</title></rect>
  <rect x="268" y="34" width="11" height="11" fill="#febf80" rx="2"><title>2026-04-28: 211 active episodes</title></rect>
  <rect x="268" y="48" width="11" height="11" fill="#fec282" rx="2"><title>2026-04-29: 203 active episodes</title></rect>
  <rect x="268" y="62" width="11" height="11" fill="#fdcc8b" rx="2"><title>2026-04-30: 173 active episodes</title></rect>
  <rect x="268" y="76" width="11" height="11" fill="#fd9f66" rx="2"><title>2026-05-01: 302 active episodes</title></rect>
  <rect x="268" y="90" width="11" height="11" fill="#fdce8f" rx="2"><title>2026-05-02: 163 active episodes</title></rect>
  <rect x="268" y="104" width="11" height="11" fill="#fd9a63" rx="2"><title>2026-05-03: 313 active episodes</title></rect>
  <rect x="282" y="20" width="11" height="11" fill="#fd9c64" rx="2"><title>2026-05-04: 308 active episodes</title></rect>
  <rect x="282" y="34" width="11" height="11" fill="#f78150" rx="2"><title>2026-05-05: 375 active episodes</title></rect>
  <rect x="282" y="48" width="11" height="11" fill="#fc925d" rx="2"><title>2026-05-06: 335 active episodes</title></rect>
  <rect x="282" y="62" width="11" height="11" fill="#fda269" rx="2"><title>2026-05-07: 292 active episodes</title></rect>
  <rect x="282" y="76" width="11" height="11" fill="#febf7f" rx="2"><title>2026-05-08: 213 active episodes</title></rect>
  <rect x="282" y="90" width="11" height="11" fill="#fecf91" rx="2"><title>2026-05-09: 159 active episodes</title></rect>
  <rect x="282" y="104" width="11" height="11" fill="#fdc786" rx="2"><title>2026-05-10: 189 active episodes</title></rect>
  <rect x="296" y="20" width="11" height="11" fill="#feb376" rx="2"><title>2026-05-11: 245 active episodes</title></rect>
  <rect x="296" y="34" width="11" height="11" fill="#feb376" rx="2"><title>2026-05-12: 246 active episodes</title></rect>
  <rect x="296" y="48" width="11" height="11" fill="#fea76c" rx="2"><title>2026-05-13: 279 active episodes</title></rect>
  <rect x="296" y="62" width="11" height="11" fill="#fc8f5a" rx="2"><title>2026-05-14: 344 active episodes</title></rect>
  <rect x="296" y="76" width="11" height="11" fill="#fea66b" rx="2"><title>2026-05-15: 283 active episodes</title></rect>
  <rect x="296" y="90" width="11" height="11" fill="#ffdbab" rx="2"><title>2026-05-16: 101 active episodes</title></rect>
  <rect x="296" y="104" width="11" height="11" fill="#fed49c" rx="2"><title>2026-05-17: 135 active episodes</title></rect>
  <rect x="310" y="20" width="11" height="11" fill="#fed093" rx="2"><title>2026-05-18: 155 active episodes</title></rect>
  <rect x="310" y="34" width="11" height="11" fill="#fed59f" rx="2"><title>2026-05-19: 129 active episodes</title></rect>
  <rect x="310" y="48" width="11" height="11" fill="#ffd8a5" rx="2"><title>2026-05-20: 116 active episodes</title></rect>
  <rect x="310" y="62" width="11" height="11" fill="#ffddaf" rx="2"><title>2026-05-21: 93 active episodes</title></rect>
  <rect x="310" y="76" width="11" height="11" fill="#ffe2b9" rx="2"><title>2026-05-22: 70 active episodes</title></rect>
  <rect x="310" y="90" width="11" height="11" fill="#ffebcf" rx="2"><title>2026-05-23: 23 active episodes</title></rect>
  <rect x="310" y="104" width="11" height="11" fill="#ffe6c2" rx="2"><title>2026-05-24: 51 active episodes</title></rect>
  <rect x="324" y="20" width="11" height="11" fill="#fdcf90" rx="2"><title>2026-05-25: 162 active episodes</title></rect>
  <rect x="324" y="34" width="11" height="11" fill="#fed195" rx="2"><title>2026-05-26: 150 active episodes</title></rect>
  <rect x="324" y="48" width="11" height="11" fill="#fdcc8a" rx="2"><title>2026-05-27: 174 active episodes</title></rect>
  <rect x="324" y="62" width="11" height="11" fill="#febd7e" rx="2"><title>2026-05-28: 217 active episodes</title></rect>
  <rect x="324" y="76" width="11" height="11" fill="#ffdaa9" rx="2"><title>2026-05-29: 107 active episodes</title></rect>
  <rect x="324" y="90" width="11" height="11" fill="#feecd0" rx="2"><title>2026-05-30: 20 active episodes</title></rect>
  <rect x="324" y="104" width="11" height="11" fill="#feecd0" rx="2"><title>2026-05-31: 20 active episodes</title></rect>
  <rect x="338" y="20" width="11" height="11" fill="#ffe8c7" rx="2"><title>2026-06-01: 41 active episodes</title></rect>
  <rect x="338" y="34" width="11" height="11" fill="#ffdcad" rx="2"><title>2026-06-02: 98 active episodes</title></rect>
  <rect x="338" y="48" width="11" height="11" fill="#fed6a0" rx="2"><title>2026-06-03: 126 active episodes</title></rect>
  <rect x="338" y="62" width="11" height="11" fill="#ffd8a4" rx="2"><title>2026-06-04: 118 active episodes</title></rect>
  <rect x="338" y="76" width="11" height="11" fill="#ffdcae" rx="2"><title>2026-06-05: 96 active episodes</title></rect>
  <rect x="338" y="90" width="11" height="11" fill="#ffebce" rx="2"><title>2026-06-06: 24 active episodes</title></rect>
  <rect x="338" y="104" width="11" height="11" fill="#ffe2ba" rx="2"><title>2026-06-07: 69 active episodes</title></rect>
  <rect x="352" y="20" width="11" height="11" fill="#fed195" rx="2"><title>2026-06-08: 151 active episodes</title></rect>
  <rect x="352" y="34" width="11" height="11" fill="#fed398" rx="2"><title>2026-06-09: 143 active episodes</title></rect>
  <rect x="352" y="48" width="11" height="11" fill="#fed093" rx="2"><title>2026-06-10: 156 active episodes</title></rect>
  <rect x="352" y="62" width="11" height="11" fill="#fecf91" rx="2"><title>2026-06-11: 160 active episodes</title></rect>
  <rect x="352" y="76" width="11" height="11" fill="#fed49c" rx="2"><title>2026-06-12: 136 active episodes</title></rect>
  <rect x="352" y="90" width="11" height="11" fill="#ffd8a4" rx="2"><title>2026-06-13: 118 active episodes</title></rect>
  <rect x="352" y="104" width="11" height="11" fill="#ffddaf" rx="2"><title>2026-06-14: 93 active episodes</title></rect>
  <rect x="366" y="20" width="11" height="11" fill="#fed6a0" rx="2"><title>2026-06-15: 127 active episodes</title></rect>
  <rect x="366" y="34" width="11" height="11" fill="#ffd9a6" rx="2"><title>2026-06-16: 112 active episodes</title></rect>
  <rect x="366" y="48" width="11" height="11" fill="#ffdaa9" rx="2"><title>2026-06-17: 107 active episodes</title></rect>
  <rect x="366" y="62" width="11" height="11" fill="#ffdfb4" rx="2"><title>2026-06-18: 82 active episodes</title></rect>
  <rect x="366" y="76" width="11" height="11" fill="#ffe4be" rx="2"><title>2026-06-19: 60 active episodes</title></rect>
  <rect x="366" y="90" width="11" height="11" fill="#feedd3" rx="2"><title>2026-06-20: 15 active episodes</title></rect>
  <rect x="366" y="104" width="11" height="11" fill="#ffe6c3" rx="2"><title>2026-06-21: 49 active episodes</title></rect>
  <rect x="380" y="20" width="11" height="11" fill="#febe7e" rx="2"><title>2026-06-22: 216 active episodes</title></rect>
  <rect x="380" y="34" width="11" height="11" fill="#feb97b" rx="2"><title>2026-06-23: 228 active episodes</title></rect>
  <rect x="380" y="48" width="11" height="11" fill="#feba7b" rx="2"><title>2026-06-24: 226 active episodes</title></rect>
  <rect x="380" y="62" width="11" height="11" fill="#febf7f" rx="2"><title>2026-06-25: 212 active episodes</title></rect>
  <rect x="380" y="76" width="11" height="11" fill="#fdc685" rx="2"><title>2026-06-26: 193 active episodes</title></rect>
  <rect x="380" y="90" width="11" height="11" fill="#fed39a" rx="2"><title>2026-06-27: 139 active episodes</title></rect>
  <rect x="380" y="104" width="11" height="11" fill="#fed49b" rx="2"><title>2026-06-28: 137 active episodes</title></rect>
  <rect x="394" y="20" width="11" height="11" fill="#fdcd8d" rx="2"><title>2026-06-29: 168 active episodes</title></rect>
  <rect x="394" y="34" width="11" height="11" fill="#fdce8e" rx="2"><title>2026-06-30: 167 active episodes</title></rect>
  <rect x="394" y="48" width="11" height="11" fill="#feb97a" rx="2"><title>2026-07-01: 229 active episodes</title></rect>
  <rect x="394" y="62" width="11" height="11" fill="#feba7b" rx="2"><title>2026-07-02: 226 active episodes</title></rect>
  <rect x="394" y="76" width="11" height="11" fill="#fecf91" rx="2"><title>2026-07-03: 159 active episodes</title></rect>
  <rect x="394" y="90" width="11" height="11" fill="#ffe4bf" rx="2"><title>2026-07-04: 57 active episodes</title></rect>
  <rect x="394" y="104" width="11" height="11" fill="#ffe4bf" rx="2"><title>2026-07-05: 58 active episodes</title></rect>
  <rect x="408" y="20" width="11" height="11" fill="#ffdcac" rx="2"><title>2026-07-06: 99 active episodes</title></rect>
  <rect x="408" y="34" width="11" height="11" fill="#ffddb0" rx="2"><title>2026-07-07: 90 active episodes</title></rect>
  <rect x="408" y="48" width="11" height="11" fill="#ffe0b5" rx="2"><title>2026-07-08: 79 active episodes</title></rect>
  <rect x="408" y="62" width="11" height="11" fill="#ffdfb4" rx="2"><title>2026-07-09: 82 active episodes</title></rect>
  <rect x="408" y="76" width="11" height="11" fill="#ffe1b8" rx="2"><title>2026-07-10: 74 active episodes</title></rect>
  <rect x="408" y="90" width="11" height="11" fill="#feecd0" rx="2"><title>2026-07-11: 20 active episodes</title></rect>
  <rect x="408" y="104" width="11" height="11" fill="#ffebcf" rx="2"><title>2026-07-12: 23 active episodes</title></rect>
  <rect x="422" y="20" width="11" height="11" fill="#fdce8e" rx="2"><title>2026-07-13: 166 active episodes</title></rect>
  <rect x="422" y="34" width="11" height="11" fill="#fecf91" rx="2"><title>2026-07-14: 160 active episodes</title></rect>
  <rect x="422" y="48" width="11" height="11" fill="#fdcc8a" rx="2"><title>2026-07-15: 175 active episodes</title></rect>
  <rect x="422" y="62" width="11" height="11" fill="#fed59e" rx="2"><title>2026-07-16: 131 active episodes</title></rect>
  <rect x="422" y="76" width="11" height="11" fill="#ffd8a4" rx="2"><title>2026-07-17: 118 active episodes</title></rect>
  <rect x="422" y="90" width="11" height="11" fill="#ffe1b7" rx="2"><title>2026-07-18: 75 active episodes</title></rect>
  <rect x="422" y="104" width="11" height="11" fill="#ffe8c9" rx="2"><title>2026-07-19: 37 active episodes</title></rect>
  <rect x="436" y="20" width="11" height="11" fill="#feb678" rx="2"><title>2026-07-20: 238 active episodes</title></rect>
  <rect x="436" y="34" width="11" height="11" fill="#feb577" rx="2"><title>2026-07-21: 240 active episodes</title></rect>
  <rect x="436" y="48" width="11" height="11" fill="#febb7c" rx="2"><title>2026-07-22: 224 active episodes</title></rect>
  <rect x="436" y="62" width="11" height="11" fill="#484f58" rx="2"><title>2026-07-23: no data</title></rect>
  <rect x="436" y="76" width="11" height="11" fill="#484f58" rx="2"><title>2026-07-24: no data</title></rect>
  <rect x="436" y="90" width="11" height="11" fill="#484f58" rx="2"><title>2026-07-25: no data</title></rect>
  <rect x="436" y="104" width="11" height="11" fill="#484f58" rx="2"><title>2026-07-26: no data</title></rect>
  <rect x="450" y="20" width="11" height="11" fill="#484f58" rx="2"><title>2026-07-27: no data</title></rect>
  <rect x="450" y="34" width="11" height="11" fill="#484f58" rx="2"><title>2026-07-28: no data</title></rect>
  <rect x="450" y="48" width="11" height="11" fill="#484f58" rx="2"><title>2026-07-29: no data</title></rect>
  <rect x="450" y="62" width="11" height="11" fill="#484f58" rx="2"><title>2026-07-30: no data</title></rect>
  <rect x="450" y="76" width="11" height="11" fill="#484f58" rx="2"><title>2026-07-31: no data</title></rect>
  <rect x="450" y="90" width="11" height="11" fill="#484f58" rx="2"><title>2026-08-01: no data</title></rect>
  <rect x="450" y="104" width="11" height="11" fill="#484f58" rx="2"><title>2026-08-02: no data</title></rect>
  <rect x="464" y="20" width="11" height="11" fill="#484f58" rx="2"><title>2026-08-03: no data</title></rect>
  <rect x="464" y="34" width="11" height="11" fill="#484f58" rx="2"><title>2026-08-04: no data</title></rect>
  <rect x="464" y="48" width="11" height="11" fill="#484f58" rx="2"><title>2026-08-05: no data</title></rect>
  <rect x="464" y="62" width="11" height="11" fill="#484f58" rx="2"><title>2026-08-06: no data</title></rect>
  <rect x="464" y="76" width="11" height="11" fill="#484f58" rx="2"><title>2026-08-07: no data</title></rect>
  <rect x="464" y="90" width="11" height="11" fill="#484f58" rx="2"><title>2026-08-08: no data</title></rect>
  <rect x="464" y="104" width="11" height="11" fill="#484f58" rx="2"><title>2026-08-09: no data</title></rect>
  <rect x="478" y="20" width="11" height="11" fill="#484f58" rx="2"><title>2026-08-10: no data</title></rect>
  <rect x="478" y="34" width="11" height="11" fill="#484f58" rx="2"><title>2026-08-11: no data</title></rect>
  <rect x="478" y="48" width="11" height="11" fill="#484f58" rx="2"><title>2026-08-12: no data</title></rect>
  <rect x="478" y="62" width="11" height="11" fill="#484f58" rx="2"><title>2026-08-13: no data</title></rect>
  <rect x="478" y="76" width="11" height="11" fill="#484f58" rx="2"><title>2026-08-14: no data</title></rect>
  <rect x="478" y="90" width="11" height="11" fill="#484f58" rx="2"><title>2026-08-15: no data</title></rect>
  <rect x="478" y="104" width="11" height="11" fill="#484f58" rx="2"><title>2026-08-16: no data</title></rect>
  <rect x="492" y="20" width="11" height="11" fill="#484f58" rx="2"><title>2026-08-17: no data</title></rect>
  <rect x="492" y="34" width="11" height="11" fill="#484f58" rx="2"><title>2026-08-18: no data</title></rect>
  <rect x="492" y="48" width="11" height="11" fill="#484f58" rx="2"><title>2026-08-19: no data</title></rect>
  <rect x="492" y="62" width="11" height="11" fill="#484f58" rx="2"><title>2026-08-20: no data</title></rect>
  <rect x="492" y="76" width="11" height="11" fill="#484f58" rx="2"><title>2026-08-21: no data</title></rect>
  <rect x="492" y="90" width="11" height="11" fill="#484f58" rx="2"><title>2026-08-22: no data</title></rect>
  <rect x="492" y="104" width="11" height="11" fill="#484f58" rx="2"><title>2026-08-23: no data</title></rect>
  <rect x="506" y="20" width="11" height="11" fill="#484f58" rx="2"><title>2026-08-24: no data</title></rect>
  <rect x="506" y="34" width="11" height="11" fill="#484f58" rx="2"><title>2026-08-25: no data</title></rect>
  <rect x="506" y="48" width="11" height="11" fill="#484f58" rx="2"><title>2026-08-26: no data</title></rect>
  <rect x="506" y="62" width="11" height="11" fill="#484f58" rx="2"><title>2026-08-27: no data</title></rect>
  <rect x="506" y="76" width="11" height="11" fill="#484f58" rx="2"><title>2026-08-28: no data</title></rect>
  <rect x="506" y="90" width="11" height="11" fill="#484f58" rx="2"><title>2026-08-29: no data</title></rect>
  <rect x="506" y="104" width="11" height="11" fill="#484f58" rx="2"><title>2026-08-30: no data</title></rect>
  <rect x="520" y="20" width="11" height="11" fill="#484f58" rx="2"><title>2026-08-31: no data</title></rect>
  <rect x="520" y="34" width="11" height="11" fill="#484f58" rx="2"><title>2026-09-01: no data</title></rect>
  <rect x="520" y="48" width="11" height="11" fill="#484f58" rx="2"><title>2026-09-02: no data</title></rect>
  <rect x="520" y="62" width="11" height="11" fill="#484f58" rx="2"><title>2026-09-03: no data</title></rect>
  <rect x="520" y="76" width="11" height="11" fill="#484f58" rx="2"><title>2026-09-04: no data</title></rect>
  <rect x="520" y="90" width="11" height="11" fill="#484f58" rx="2"><title>2026-09-05: no data</title></rect>
  <rect x="520" y="104" width="11" height="11" fill="#484f58" rx="2"><title>2026-09-06: no data</title></rect>
  <rect x="534" y="20" width="11" height="11" fill="#484f58" rx="2"><title>2026-09-07: no data</title></rect>
  <rect x="534" y="34" width="11" height="11" fill="#484f58" rx="2"><title>2026-09-08: no data</title></rect>
  <rect x="534" y="48" width="11" height="11" fill="#484f58" rx="2"><title>2026-09-09: no data</title></rect>
  <rect x="534" y="62" width="11" height="11" fill="#484f58" rx="2"><title>2026-09-10: no data</title></rect>
  <rect x="534" y="76" width="11" height="11" fill="#484f58" rx="2"><title>2026-09-11: no data</title></rect>
  <rect x="534" y="90" width="11" height="11" fill="#484f58" rx="2"><title>2026-09-12: no data</title></rect>
  <rect x="534" y="104" width="11" height="11" fill="#484f58" rx="2"><title>2026-09-13: no data</title></rect>
  <rect x="548" y="20" width="11" height="11" fill="#484f58" rx="2"><title>2026-09-14: no data</title></rect>
  <rect x="548" y="34" width="11" height="11" fill="#484f58" rx="2"><title>2026-09-15: no data</title></rect>
  <rect x="548" y="48" width="11" height="11" fill="#484f58" rx="2"><title>2026-09-16: no data</title></rect>
  <rect x="548" y="62" width="11" height="11" fill="#484f58" rx="2"><title>2026-09-17: no data</title></rect>
  <rect x="548" y="76" width="11" height="11" fill="#484f58" rx="2"><title>2026-09-18: no data</title></rect>
  <rect x="548" y="90" width="11" height="11" fill="#484f58" rx="2"><title>2026-09-19: no data</title></rect>
  <rect x="548" y="104" width="11" height="11" fill="#484f58" rx="2"><title>2026-09-20: no data</title></rect>
  <rect x="562" y="20" width="11" height="11" fill="#484f58" rx="2"><title>2026-09-21: no data</title></rect>
  <rect x="562" y="34" width="11" height="11" fill="#484f58" rx="2"><title>2026-09-22: no data</title></rect>
  <rect x="562" y="48" width="11" height="11" fill="#484f58" rx="2"><title>2026-09-23: no data</title></rect>
  <rect x="562" y="62" width="11" height="11" fill="#484f58" rx="2"><title>2026-09-24: no data</title></rect>
  <rect x="562" y="76" width="11" height="11" fill="#484f58" rx="2"><title>2026-09-25: no data</title></rect>
  <rect x="562" y="90" width="11" height="11" fill="#484f58" rx="2"><title>2026-09-26: no data</title></rect>
  <rect x="562" y="104" width="11" height="11" fill="#484f58" rx="2"><title>2026-09-27: no data</title></rect>
  <rect x="576" y="20" width="11" height="11" fill="#484f58" rx="2"><title>2026-09-28: no data</title></rect>
  <rect x="576" y="34" width="11" height="11" fill="#484f58" rx="2"><title>2026-09-29: no data</title></rect>
  <rect x="576" y="48" width="11" height="11" fill="#484f58" rx="2"><title>2026-09-30: no data</title></rect>
  <rect x="576" y="62" width="11" height="11" fill="#484f58" rx="2"><title>2026-10-01: no data</title></rect>
  <rect x="576" y="76" width="11" height="11" fill="#484f58" rx="2"><title>2026-10-02: no data</title></rect>
  <rect x="576" y="90" width="11" height="11" fill="#484f58" rx="2"><title>2026-10-03: no data</title></rect>
  <rect x="576" y="104" width="11" height="11" fill="#484f58" rx="2"><title>2026-10-04: no data</title></rect>
  <rect x="590" y="20" width="11" height="11" fill="#484f58" rx="2"><title>2026-10-05: no data</title></rect>
  <rect x="590" y="34" width="11" height="11" fill="#484f58" rx="2"><title>2026-10-06: no data</title></rect>
  <rect x="590" y="48" width="11" height="11" fill="#484f58" rx="2"><title>2026-10-07: no data</title></rect>
  <rect x="590" y="62" width="11" height="11" fill="#484f58" rx="2"><title>2026-10-08: no data</title></rect>
  <rect x="590" y="76" width="11" height="11" fill="#484f58" rx="2"><title>2026-10-09: no data</title></rect>
  <rect x="590" y="90" width="11" height="11" fill="#484f58" rx="2"><title>2026-10-10: no data</title></rect>
  <rect x="590" y="104" width="11" height="11" fill="#484f58" rx="2"><title>2026-10-11: no data</title></rect>
  <rect x="604" y="20" width="11" height="11" fill="#484f58" rx="2"><title>2026-10-12: no data</title></rect>
  <rect x="604" y="34" width="11" height="11" fill="#484f58" rx="2"><title>2026-10-13: no data</title></rect>
  <rect x="604" y="48" width="11" height="11" fill="#484f58" rx="2"><title>2026-10-14: no data</title></rect>
  <rect x="604" y="62" width="11" height="11" fill="#484f58" rx="2"><title>2026-10-15: no data</title></rect>
  <rect x="604" y="76" width="11" height="11" fill="#484f58" rx="2"><title>2026-10-16: no data</title></rect>
  <rect x="604" y="90" width="11" height="11" fill="#484f58" rx="2"><title>2026-10-17: no data</title></rect>
  <rect x="604" y="104" width="11" height="11" fill="#484f58" rx="2"><title>2026-10-18: no data</title></rect>
  <rect x="618" y="20" width="11" height="11" fill="#484f58" rx="2"><title>2026-10-19: no data</title></rect>
  <rect x="618" y="34" width="11" height="11" fill="#484f58" rx="2"><title>2026-10-20: no data</title></rect>
  <rect x="618" y="48" width="11" height="11" fill="#484f58" rx="2"><title>2026-10-21: no data</title></rect>
  <rect x="618" y="62" width="11" height="11" fill="#484f58" rx="2"><title>2026-10-22: no data</title></rect>
  <rect x="618" y="76" width="11" height="11" fill="#484f58" rx="2"><title>2026-10-23: no data</title></rect>
  <rect x="618" y="90" width="11" height="11" fill="#484f58" rx="2"><title>2026-10-24: no data</title></rect>
  <rect x="618" y="104" width="11" height="11" fill="#484f58" rx="2"><title>2026-10-25: no data</title></rect>
  <rect x="632" y="20" width="11" height="11" fill="#484f58" rx="2"><title>2026-10-26: no data</title></rect>
  <rect x="632" y="34" width="11" height="11" fill="#484f58" rx="2"><title>2026-10-27: no data</title></rect>
  <rect x="632" y="48" width="11" height="11" fill="#484f58" rx="2"><title>2026-10-28: no data</title></rect>
  <rect x="632" y="62" width="11" height="11" fill="#484f58" rx="2"><title>2026-10-29: no data</title></rect>
  <rect x="632" y="76" width="11" height="11" fill="#484f58" rx="2"><title>2026-10-30: no data</title></rect>
  <rect x="632" y="90" width="11" height="11" fill="#484f58" rx="2"><title>2026-10-31: no data</title></rect>
  <rect x="632" y="104" width="11" height="11" fill="#484f58" rx="2"><title>2026-11-01: no data</title></rect>
  <rect x="646" y="20" width="11" height="11" fill="#484f58" rx="2"><title>2026-11-02: no data</title></rect>
  <rect x="646" y="34" width="11" height="11" fill="#484f58" rx="2"><title>2026-11-03: no data</title></rect>
  <rect x="646" y="48" width="11" height="11" fill="#484f58" rx="2"><title>2026-11-04: no data</title></rect>
  <rect x="646" y="62" width="11" height="11" fill="#484f58" rx="2"><title>2026-11-05: no data</title></rect>
  <rect x="646" y="76" width="11" height="11" fill="#484f58" rx="2"><title>2026-11-06: no data</title></rect>
  <rect x="646" y="90" width="11" height="11" fill="#484f58" rx="2"><title>2026-11-07: no data</title></rect>
  <rect x="646" y="104" width="11" height="11" fill="#484f58" rx="2"><title>2026-11-08: no data</title></rect>
  <rect x="660" y="20" width="11" height="11" fill="#484f58" rx="2"><title>2026-11-09: no data</title></rect>
  <rect x="660" y="34" width="11" height="11" fill="#484f58" rx="2"><title>2026-11-10: no data</title></rect>
  <rect x="660" y="48" width="11" height="11" fill="#484f58" rx="2"><title>2026-11-11: no data</title></rect>
  <rect x="660" y="62" width="11" height="11" fill="#484f58" rx="2"><title>2026-11-12: no data</title></rect>
  <rect x="660" y="76" width="11" height="11" fill="#484f58" rx="2"><title>2026-11-13: no data</title></rect>
  <rect x="660" y="90" width="11" height="11" fill="#484f58" rx="2"><title>2026-11-14: no data</title></rect>
  <rect x="660" y="104" width="11" height="11" fill="#484f58" rx="2"><title>2026-11-15: no data</title></rect>
  <rect x="674" y="20" width="11" height="11" fill="#484f58" rx="2"><title>2026-11-16: no data</title></rect>
  <rect x="674" y="34" width="11" height="11" fill="#484f58" rx="2"><title>2026-11-17: no data</title></rect>
  <rect x="674" y="48" width="11" height="11" fill="#484f58" rx="2"><title>2026-11-18: no data</title></rect>
  <rect x="674" y="62" width="11" height="11" fill="#484f58" rx="2"><title>2026-11-19: no data</title></rect>
  <rect x="674" y="76" width="11" height="11" fill="#484f58" rx="2"><title>2026-11-20: no data</title></rect>
  <rect x="674" y="90" width="11" height="11" fill="#484f58" rx="2"><title>2026-11-21: no data</title></rect>
  <rect x="674" y="104" width="11" height="11" fill="#484f58" rx="2"><title>2026-11-22: no data</title></rect>
  <rect x="688" y="20" width="11" height="11" fill="#484f58" rx="2"><title>2026-11-23: no data</title></rect>
  <rect x="688" y="34" width="11" height="11" fill="#484f58" rx="2"><title>2026-11-24: no data</title></rect>
  <rect x="688" y="48" width="11" height="11" fill="#484f58" rx="2"><title>2026-11-25: no data</title></rect>
  <rect x="688" y="62" width="11" height="11" fill="#484f58" rx="2"><title>2026-11-26: no data</title></rect>
  <rect x="688" y="76" width="11" height="11" fill="#484f58" rx="2"><title>2026-11-27: no data</title></rect>
  <rect x="688" y="90" width="11" height="11" fill="#484f58" rx="2"><title>2026-11-28: no data</title></rect>
  <rect x="688" y="104" width="11" height="11" fill="#484f58" rx="2"><title>2026-11-29: no data</title></rect>
  <rect x="702" y="20" width="11" height="11" fill="#484f58" rx="2"><title>2026-11-30: no data</title></rect>
  <rect x="702" y="34" width="11" height="11" fill="#484f58" rx="2"><title>2026-12-01: no data</title></rect>
  <rect x="702" y="48" width="11" height="11" fill="#484f58" rx="2"><title>2026-12-02: no data</title></rect>
  <rect x="702" y="62" width="11" height="11" fill="#484f58" rx="2"><title>2026-12-03: no data</title></rect>
  <rect x="702" y="76" width="11" height="11" fill="#484f58" rx="2"><title>2026-12-04: no data</title></rect>
  <rect x="702" y="90" width="11" height="11" fill="#484f58" rx="2"><title>2026-12-05: no data</title></rect>
  <rect x="702" y="104" width="11" height="11" fill="#484f58" rx="2"><title>2026-12-06: no data</title></rect>
  <rect x="716" y="20" width="11" height="11" fill="#484f58" rx="2"><title>2026-12-07: no data</title></rect>
  <rect x="716" y="34" width="11" height="11" fill="#484f58" rx="2"><title>2026-12-08: no data</title></rect>
  <rect x="716" y="48" width="11" height="11" fill="#484f58" rx="2"><title>2026-12-09: no data</title></rect>
  <rect x="716" y="62" width="11" height="11" fill="#484f58" rx="2"><title>2026-12-10: no data</title></rect>
  <rect x="716" y="76" width="11" height="11" fill="#484f58" rx="2"><title>2026-12-11: no data</title></rect>
  <rect x="716" y="90" width="11" height="11" fill="#484f58" rx="2"><title>2026-12-12: no data</title></rect>
  <rect x="716" y="104" width="11" height="11" fill="#484f58" rx="2"><title>2026-12-13: no data</title></rect>
  <rect x="730" y="20" width="11" height="11" fill="#484f58" rx="2"><title>2026-12-14: no data</title></rect>
  <rect x="730" y="34" width="11" height="11" fill="#484f58" rx="2"><title>2026-12-15: no data</title></rect>
  <rect x="730" y="48" width="11" height="11" fill="#484f58" rx="2"><title>2026-12-16: no data</title></rect>
  <rect x="730" y="62" width="11" height="11" fill="#484f58" rx="2"><title>2026-12-17: no data</title></rect>
  <rect x="730" y="76" width="11" height="11" fill="#484f58" rx="2"><title>2026-12-18: no data</title></rect>
  <rect x="730" y="90" width="11" height="11" fill="#484f58" rx="2"><title>2026-12-19: no data</title></rect>
  <rect x="730" y="104" width="11" height="11" fill="#484f58" rx="2"><title>2026-12-20: no data</title></rect>
  <rect x="744" y="20" width="11" height="11" fill="#484f58" rx="2"><title>2026-12-21: no data</title></rect>
  <rect x="744" y="34" width="11" height="11" fill="#484f58" rx="2"><title>2026-12-22: no data</title></rect>
  <rect x="744" y="48" width="11" height="11" fill="#484f58" rx="2"><title>2026-12-23: no data</title></rect>
  <rect x="744" y="62" width="11" height="11" fill="#484f58" rx="2"><title>2026-12-24: no data</title></rect>
  <rect x="744" y="76" width="11" height="11" fill="#484f58" rx="2"><title>2026-12-25: no data</title></rect>
  <rect x="744" y="90" width="11" height="11" fill="#484f58" rx="2"><title>2026-12-26: no data</title></rect>
  <rect x="744" y="104" width="11" height="11" fill="#484f58" rx="2"><title>2026-12-27: no data</title></rect>
  <rect x="758" y="20" width="11" height="11" fill="#484f58" rx="2"><title>2026-12-28: no data</title></rect>
  <rect x="758" y="34" width="11" height="11" fill="#484f58" rx="2"><title>2026-12-29: no data</title></rect>
  <rect x="758" y="48" width="11" height="11" fill="#484f58" rx="2"><title>2026-12-30: no data</title></rect>
  <rect x="758" y="62" width="11" height="11" fill="#484f58" rx="2"><title>2026-12-31: no data</title></rect>
  <text x="30" y="133" class="title">2026 - 11311 hot water episodes</text>
  <defs>
    <linearGradient id="legend-gradient" x1="0" y1="0" x2="1" y2="0">
      <stop offset="0%" stop-color="#fef0d9"/>
      <stop offset="33.33333333333333%" stop-color="#fdcc8a"/>
      <stop offset="66.66666666666666%" stop-color="#fc8d59"/>
      <stop offset="100%" stop-color="#d7301f"/>
    </linearGradient>
  </defs>
  <text x="560" y="133" class="legend">No data</text>
  <rect x="602" y="123" width="11" height="11" fill="#484f58" rx="2"/>
  <text x="632" y="133" class="legend">Less</text>
  <rect x="662" y="123" width="11" height="11" fill="#161b22" rx="2"/>
  <rect x="676" y="123" width="53" height="11" fill="url(#legend-gradient)" rx="2"/>
  <text x="737" y="133" class="legend">More</text>
</svg>