<svg width="782" height="148" xmlns="http://www.w3.org/2000/svg">
  <style>
    .month { font: 10px sans-serif; fill: #8b949e; }
    .day { font: 10px sans-serif; fill: #8b949e; }
    .title { font: bold 14px sans-serif; fill: #c9d1d9; }
    .legend { font: 10px sans-serif; fill: #8b949e; }
  </style>
  <rect width="100%" height="100%" fill="#0d1117"/>
  <text x="0" y="29" class="day">Mon</text>
  <text x="0" y="57" class="day">Wed</text>
  <text x="0" y="85" class="day">Fri</text>
  <text x="0" y="113" class="day">Sun</text>
  <text x="30" y="15" class="month">Jan</text>
  <text x="100" y="15" class="month">Feb</text>
  <text x="156" y="15" class="month">Mar</text>
  <text x="212" y="15" class="month">Apr</text>
  <text x="282" y="15" class="month">May</text>
  <text x="338" y="15" class="month">Jun</text>
  <text x="394" y="15" class="month">Jul</text>
  <text x="464" y="15" class="month">Aug</text>
  <text x="520" y="15" class="month">Sep</text>
  <text x="576" y="15" class="month">Oct</text>
  <text x="646" y="15" class="month">Nov</text>
  <text x="702" y="15" class="month">Dec</text>
  <rect x="30" y="48" width="11" height="11" fill="#ffe0b6" rx="2"><title>2025-01-01: 71 active episodes</title></rect>
  <rect x="30" y="62" width="11" height="11" fill="#ffe1b8" rx="2"><title>2025-01-02: 67 active episodes</title></rect>
  <rect x="30" y="76" width="11" height="11" fill="#ffdeb1" rx="2"><title>2025-01-03: 82 active episodes</title></rect>
  <rect x="30" y="90" width="11" height="11" fill="#ffe2ba" rx="2"><title>2025-01-04: 64 active episodes</title></rect>
  <rect x="30" y="104" width="11" height="11" fill="#fef0d9" rx="2"><title>2025-01-05: 1 active episode</title></rect>
  <rect x="44" y="20" width="11" height="11" fill="#161b22" rx="2"><title>2025-01-06: 0 active episodes</title></rect>
  <rect x="44" y="34" width="11" height="11" fill="#484f58" rx="2"><title>2025-01-07: no data</title></rect>
  <rect x="44" y="48" width="11" height="11" fill="#ffe8c8" rx="2"><title>2025-01-08: 36 active episodes</title></rect>
  <rect x="44" y="62" width="11" height="11" fill="#ffe6c3" rx="2"><title>2025-01-09: 45 active episodes</title></rect>
  <rect x="44" y="76" width="11" height="11" fill="#ffe1b9" rx="2"><title>2025-01-10: 66 active episodes</title></rect>
  <rect x="44" y="90" width="11" height="11" fill="#ffebcf" rx="2"><title>2025-01-11: 21 active episodes</title></rect>
  <rect x="44" y="104" width="11" height="11" fill="#feefd8" rx="2"><title>2025-01-12: 4 active episodes</title></rect>
  <rect x="58" y="20" width="11" height="11" fill="#ffe6c2" rx="2"><title>2025-01-13: 47 active episodes</title></rect>
  <rect x="58" y="34" width="11" height="11" fill="#fed297" rx="2"><title>2025-01-14: 135 active episodes</title></rect>
  <rect x="58" y="48" width="11" height="11" fill="#ffe0b6" rx="2"><title>2025-01-15: 72 active episodes</title></rect>
  <rect x="58" y="62" width="11" height="11" fill="#fed399" rx="2"><title>2025-01-16: 130 active episodes</title></rect>
  <rect x="58" y="76" width="11" height="11" fill="#ffe0b7" rx="2"><title>2025-01-17: 70 active episodes</title></rect>
  <rect x="58" y="90" width="11" height="11" fill="#ffe6c4" rx="2"><title>2025-01-18: 44 active episodes</title></rect>
  <rect x="58" y="104" width="11" height="11" fill="#fdcc8b" rx="2"><title>2025-01-19: 159 active episodes</title></rect>
  <rect x="72" y="20" width="11" height="11" fill="#fda168" rx="2"><title>2025-01-20: 272 active episodes</title></rect>
  <rect x="72" y="34" width="11" height="11" fill="#fea369" rx="2"><title>2025-01-21: 266 active episodes</title></rect>
  <rect x="72" y="48" width="11" height="11" fill="#fd9760" rx="2"><title>2025-01-22: 296 active episodes</title></rect>
  <rect x="72" y="62" width="11" height="11" fill="#fda168" rx="2"><title>2025-01-23: 272 active episodes</title></rect>
  <rect x="72" y="76" width="11" height="11" fill="#fed6a0" rx="2"><title>2025-01-24: 117 active episodes</title></rect>
  <rect x="72" y="90" width="11" height="11" fill="#ffdbab" rx="2"><title>2025-01-25: 93 active episodes</title></rect>
  <rect x="72" y="104" width="11" height="11" fill="#ffebce" rx="2"><title>2025-01-26: 23 active episodes</title></rect>
  <rect x="86" y="20" width="11" height="11" fill="#febb7c" rx="2"><title>2025-01-27: 206 active episodes</title></rect>
  <rect x="86" y="34" width="11" height="11" fill="#fdc887" rx="2"><title>2025-01-28: 172 active episodes</title></rect>
  <rect x="86" y="48" width="11" height="11" fill="#fdcd8b" rx="2"><title>2025-01-29: 158 active episodes</title></rect>
  <rect x="86" y="62" width="11" height="11" fill="#feac70" rx="2"><title>2025-01-30: 245 active episodes</title></rect>
  <rect x="86" y="76" width="11" height="11" fill="#fdce8f" rx="2"><title>2025-01-31: 151 active episodes</title></rect>
  <rect x="86" y="90" width="11" height="11" fill="#ffe6c2" rx="2"><title>2025-02-01: 47 active episodes</title></rect>
  <rect x="86" y="104" width="11" height="11" fill="#ffe9cb" rx="2"><title>2025-02-02: 30 active episodes</title></rect>
  <rect x="100" y="20" width="11" height="11" fill="#ffdaa9" rx="2"><title>2025-02-03: 97 active episodes</title></rect>
  <rect x="100" y="34" width="11" height="11" fill="#ffe6c3" rx="2"><title>2025-02-04: 45 active episodes</title></rect>
  <rect x="100" y="48" width="11" height="11" fill="#ffe9ca" rx="2"><title>2025-02-05: 32 active episodes</title></rect>
  <rect x="100" y="62" width="11" height="11" fill="#ffe6c2" rx="2"><title>2025-02-06: 47 active episodes</title></rect>
  <rect x="100" y="76" width="11" height="11" fill="#ffe5c2" rx="2"><title>2025-02-07: 48 active episodes</title></rect>
  <rect x="100" y="90" width="11" height="11" fill="#fed297" rx="2"><title>2025-02-08: 134 active episodes</title></rect>
  <rect x="100" y="104" width="11" height="11" fill="#fed298" rx="2"><title>2025-02-09: 133 active episodes</title></rect>
  <rect x="114" y="20" width="11" height="11" fill="#fed6a0" rx="2"><title>2025-02-10: 117 active episodes</title></rect>
  <rect x="114" y="34" width="11" height="11" fill="#ffdfb4" rx="2"><title>2025-02-11: 75 active episodes</title></rect>
  <rect x="114" y="48" width="11" height="11" fill="#ffe6c3" rx="2"><title>2025-02-12: 45 active episodes</title></rect>
  <rect x="114" y="62" width="11" height="11" fill="#ffe0b7" rx="2"><title>2025-02-13: 70 active episodes</title></rect>
  <rect x="114" y="76" width="11" height="11" fill="#ffe1b9" rx="2"><title>2025-02-14: 65 active episodes</title></rect>
  <rect x="114" y="90" width="11" height="11" fill="#ffe8c8" rx="2"><title>2025-02-15: 35 active episodes</title></rect>
  <rect x="114" y="104" width="11" height="11" fill="#feedd4" rx="2"><title>2025-02-16: 12 active episodes</title></rect>
  <rect x="128" y="20" width="11" height="11" fill="#ffd8a4" rx="2"><title>2025-02-17: 108 active episodes</title></rect>
  <rect x="128" y="34" width="11" height="11" fill="#fed39a" rx="2"><title>2025-02-18: 129 active episodes</title></rect>
  <rect x="128" y="48" width="11" height="11" fill="#fea76d" rx="2"><title>2025-02-19: 256 active episodes</title></rect>
  <rect x="128" y="62" width="11" height="11" fill="#fed297" rx="2"><title>2025-02-20: 134 active episodes</title></rect>
  <rect x="128" y="76" width="11" height="11" fill="#ffe7c6" rx="2"><title>2025-02-21: 40 active episodes</title></rect>
  <rect x="128" y="90" width="11" height="11" fill="#ffeacb" rx="2"><title>2025-02-22: 29 active episodes</title></rect>
  <rect x="128" y="104" width="11" height="11" fill="#ffe5c1" rx="2"><title>2025-02-23: 49 active episodes</title></rect>
  <rect x="142" y="20" width="11" height="11" fill="#ffe6c4" rx="2"><title>2025-02-24: 43 active episodes</title></rect>
  <rect x="142" y="34" width="11" height="11" fill="#ffebce" rx="2"><title>2025-02-25: 23 active episodes</title></rect>
  <rect x="142" y="48" width="11" height="11" fill="#ffe8c9" rx="2"><title>2025-02-26: 34 active episodes</title></rect>
  <rect x="142" y="62" width="11" height="11" fill="#ffe7c5" rx="2"><title>2025-02-27: 41 active episodes</title></rect>
  <rect x="142" y="76" width="11" height="11" fill="#ffeacd" rx="2"><title>2025-02-28: 26 active episodes</title></rect>
  <rect x="142" y="90" width="11" height="11" fill="#ffe4c0" rx="2"><title>2025-03-01: 52 active episodes</title></rect>
  <rect x="142" y="104" width="11" height="11" fill="#ffe3bd" rx="2"><title>2025-03-02: 58 active episodes</title></rect>
  <rect x="156" y="20" width="11" height="11" fill="#feba7c" rx="2"><title>2025-03-03: 207 active episodes</title></rect>
  <rect x="156" y="34" width="11" height="11" fill="#fec382" rx="2"><title>2025-03-04: 185 active episodes</title></rect>
  <rect x="156" y="48" width="11" height="11" fill="#fdce8f" rx="2"><title>2025-03-05: 150 active episodes</title></rect>
  <rect x="156" y="62" width="11" height="11" fill="#fec080" rx="2"><title>2025-03-06: 192 active episodes</title></rect>
  <rect x="156" y="76" width="11" height="11" fill="#fed296" rx="2"><title>2025-03-07: 136 active episodes</title></rect>
  <rect x="156" y="90" width="11" height="11" fill="#ffe7c6" rx="2"><title>2025-03-08: 40 active episodes</title></rect>
  <rect x="156" y="104" width="11" height="11" fill="#ffe9ca" rx="2"><title>2025-03-09: 31 active episodes</title></rect>
  <rect x="170" y="20" width="11" height="11" fill="#ffdbaa" rx="2"><title>2025-03-10: 95 active episodes</title></rect>
  <rect x="170" y="34" width="11" height="11" fill="#ffe8c7" rx="2"><title>2025-03-11: 38 active episodes</title></rect>
  <rect x="170" y="48" width="11" height="11" fill="#fed094" rx="2"><title>2025-03-12: 141 active episodes</title></rect>
  <rect x="170" y="62" width="11" height="11" fill="#fed093" rx="2"><title>2025-03-13: 143 active episodes</title></rect>
  <rect x="170" y="76" width="11" height="11" fill="#fed49c" rx="2"><title>2025-03-14: 125 active episodes</title></rect>
  <rect x="170" y="90" width="11" height="11" fill="#ffe5c1" rx="2"><title>2025-03-15: 49 active episodes</title></rect>
  <rect x="170" y="104" width="11" height="11" fill="#feeed5" rx="2"><title>2025-03-16: 9 active episodes</title></rect>
  <rect x="184" y="20" width="11" height="11" fill="#ffdaa8" rx="2"><title>2025-03-17: 100 active episodes</title></rect>
  <rect x="184" y="34" width="11" height="11" fill="#fed194" rx="2"><title>2025-03-18: 140 active episodes</title></rect>
  <rect x="184" y="48" width="11" height="11" fill="#fdcc8b" rx="2"><title>2025-03-19: 159 active episodes</title></rect>
  <rect x="184" y="62" width="11" height="11" fill="#fed196" rx="2"><title>2025-03-20: 137 active episodes</title></rect>
  <rect x="184" y="76" width="11" height="11" fill="#ffdfb5" rx="2"><title>2025-03-21: 74 active episodes</title></rect>
  <rect x="184" y="90" width="11" height="11" fill="#ffe0b6" rx="2"><title>2025-03-22: 72 active episodes</title></rect>
  <rect x="184" y="104" width="11" height="11" fill="#ffe6c2" rx="2"><title>2025-03-23: 47 active episodes</title></rect>
  <rect x="198" y="20" width="11" height="11" fill="#fed59d" rx="2"><title>2025-03-24: 122 active episodes</title></rect>
  <rect x="198" y="34" width="11" height="11" fill="#ffdaaa" rx="2"><title>2025-03-25: 96 active episodes</title></rect>
  <rect x="198" y="48" width="11" height="11" fill="#ffddaf" rx="2"><title>2025-03-26: 85 active episodes</title></rect>
  <rect x="198" y="62" width="11" height="11" fill="#ffe0b6" rx="2"><title>2025-03-27: 71 active episodes</title></rect>
  <rect x="198" y="76" width="11" height="11" fill="#ffe2ba" rx="2"><title>2025-03-28: 63 active episodes</title></rect>
  <rect x="198" y="90" width="11" height="11" fill="#ffddae" rx="2"><title>2025-03-29: 87 active episodes</title></rect>
  <rect x="198" y="104" width="11" height="11" fill="#ffd7a3" rx="2"><title>2025-03-30: 111 active episodes</title></rect>
  <rect x="212" y="20" width="11" height="11" fill="#fdca88" rx="2"><title>2025-03-31: 166 active episodes</title></rect>
  <rect x="212" y="34" width="11" height="11" fill="#fdce8e" rx="2"><title>2025-04-01: 153 active episodes</title></rect>
  <rect x="212" y="48" width="11" height="11" fill="#fdcd8b" rx="2"><title>2025-04-02: 158 active episodes</title></rect>
  <rect x="212" y="62" width="11" height="11" fill="#fecf91" rx="2"><title>2025-04-03: 146 active episodes</title></rect>
  <rect x="212" y="76" width="11" height="11" fill="#fed298" rx="2"><title>2025-04-04: 133 active episodes</title></rect>
  <rect x="212" y="90" width="11" height="11" fill="#ffe7c5" rx="2"><title>2025-04-05: 41 active episodes</title></rect>
  <rect x="212" y="104" width="11" height="11" fill="#ffe4bf" rx="2"><title>2025-04-06: 53 active episodes</title></rect>
  <rect x="226" y="20" width="11" height="11" fill="#ffdbaa" rx="2"><title>2025-04-07: 95 active episodes</title></rect>
  <rect x="226" y="34" width="11" height="11" fill="#fdcf90" rx="2"><title>2025-04-08: 148 active episodes</title></rect>
  <rect x="226" y="48" width="11" height="11" fill="#fdcb89" rx="2"><title>2025-04-09: 163 active episodes</title></rect>
  <rect x="226" y="62" width="11" height="11" fill="#fecf91" rx="2"><title>2025-04-10: 147 active episodes</title></rect>
  <rect x="226" y="76" width="11" height="11" fill="#fec383" rx="2"><title>2025-04-11: 184 active episodes</title></rect>
  <rect x="226" y="90" width="11" height="11" fill="#ffdbab" rx="2"><title>2025-04-12: 93 active episodes</title></rect>
  <rect x="226" y="104" width="11" height="11" fill="#ffdfb3" rx="2"><title>2025-04-13: 78 active episodes</title></rect>
  <rect x="240" y="20" width="11" height="11" fill="#fdce8f" rx="2"><title>2025-04-14: 151 active episodes</title></rect>
  <rect x="240" y="34" width="11" height="11" fill="#fed195" rx="2"><title>2025-04-15: 139 active episodes</title></rect>
  <rect x="240" y="48" width="11" height="11" fill="#fed6a1" rx="2"><title>2025-04-16: 114 active episodes</title></rect>
  <rect x="240" y="62" width="11" height="11" fill="#ffdcad" rx="2"><title>2025-04-17: 90 active episodes</title></rect>
  <rect x="240" y="76" width="11" height="11" fill="#fef0d9" rx="2"><title>2025-04-18: 2 active episodes</title></rect>
  <rect x="240" y="90" width="11" height="11" fill="#fef0d9" rx="2"><title>2025-04-19: 2 active episodes</title></rect>
  <rect x="240" y="104" width="11" height="11" fill="#484f58" rx="2"><title>2025-04-20: no data</title></rect>
  <rect x="254" y="20" width="11" height="11" fill="#161b22" rx="2"><title>2025-04-21: 0 active episodes</title></rect>
  <rect x="254" y="34" width="11" height="11" fill="#161b22" rx="2"><title>2025-04-22: 0 active episodes</title></rect>
  <rect x="254" y="48" width="11" height="11" fill="#161b22" rx="2"><title>2025-04-23: 0 active episodes</title></rect>
  <rect x="254" y="62" width="11" height="11" fill="#fef0d9" rx="2"><title>2025-04-24: 1 active episode</title></rect>
  <rect x="254" y="76" width="11" height="11" fill="#161b22" rx="2"><title>2025-04-25: 0 active episodes</title></rect>
  <rect x="254" y="90" width="11" height="11" fill="#161b22" rx="2"><title>2025-04-26: 0 active episodes</title></rect>
  <rect x="254" y="104" width="11" height="11" fill="#161b22" rx="2"><title>2025-04-27: 0 active episodes</title></rect>
  <rect x="268" y="20" width="11" height="11" fill="#161b22" rx="2"><title>2025-04-28: 0 active episodes</title></rect>
  <rect x="268" y="34" width="11" height="11" fill="#feefd8" rx="2"><title>2025-04-29: 4 active episodes</title></rect>
  <rect x="268" y="48" width="11" height="11" fill="#161b22" rx="2"><title>2025-04-30: 0 active episodes</title></rect>
  <rect x="268" y="62" width="11" height="11" fill="#161b22" rx="2"><title>2025-05-01: 0 active episodes</title></rect>
  <rect x="268" y="76" width="11" height="11" fill="#161b22" rx="2"><title>2025-05-02: 0 active episodes</title></rect>
  <rect x="268" y="90" width="11" height="11" fill="#161b22" rx="2"><title>2025-05-03: 0 active episodes</title></rect>
  <rect x="268" y="104" width="11" height="11" fill="#161b22" rx="2"><title>2025-05-04: 0 active episodes</title></rect>
  <rect x="282" y="20" width="11" height="11" fill="#161b22" rx="2"><title>2025-05-05: 0 active episodes</title></rect>
  <rect x="282" y="34" width="11" height="11" fill="#161b22" rx="2"><title>2025-05-06: 0 active episodes</title></rect>
  <rect x="282" y="48" width="11" height="11" fill="#161b22" rx="2"><title>2025-05-07: 0 active episodes</title></rect>
  <rect x="282" y="62" width="11" height="11" fill="#161b22" rx="2"><title>2025-05-08: 0 active episodes</title></rect>
  <rect x="282" y="76" width="11" height="11" fill="#161b22" rx="2"><title>2025-05-09: 0 active episodes</title></rect>
  <rect x="282" y="90" width="11" height="11" fill="#161b22" rx="2"><title>2025-05-10: 0 active episodes</title></rect>
  <rect x="282" y="104" width="11" height="11" fill="#161b22" rx="2"><title>2025-05-11: 0 active episodes</title></rect>
  <rect x="296" y="20" width="11" height="11" fill="#161b22" rx="2"><title>2025-05-12: 0 active episodes</title></rect>
  <rect x="296" y="34" width="11" height="11" fill="#161b22" rx="2"><title>2025-05-13: 0 active episodes</title></rect>
  <rect x="296" y="48" width="11" height="11" fill="#161b22" rx="2"><title>2025-05-14: 0 active episodes</title></rect>
  <rect x="296" y="62" width="11" height="11" fill="#161b22" rx="2"><title>2025-05-15: 0 active episodes</title></rect>
  <rect x="296" y="76" width="11" height="11" fill="#161b22" rx="2"><title>2025-05-16: 0 active episodes</title></rect>
  <rect x="296" y="90" width="11" height="11" fill="#161b22" rx="2"><title>2025-05-17: 0 active episodes</title></rect>
  <rect x="296" y="104" width="11" height="11" fill="#161b22" rx="2"><title>2025-05-18: 0 active episodes</title></rect>
  <rect x="310" y="20" width="11" height="11" fill="#161b22" rx="2"><title>2025-05-19: 0 active episodes</title></rect>
  <rect x="310" y="34" width="11" height="11" fill="#161b22" rx="2"><title>2025-05-20: 0 active episodes</title></rect>
  <rect x="310" y="48" width="11" height="11" fill="#161b22" rx="2"><title>2025-05-21: 0 active episodes</title></rect>
  <rect x="310" y="62" width="11" height="11" fill="#fef0d9" rx="2"><title>2025-05-22: 2 active episodes</title></rect>
  <rect x="310" y="76" width="11" height="11" fill="#161b22" rx="2"><title>2025-05-23: 0 active episodes</title></rect>
  <rect x="310" y="90" width="11" height="11" fill="#161b22" rx="2"><title>2025-05-24: 0 active episodes</title></rect>
  <rect x="310" y="104" width="11" height="11" fill="#161b22" rx="2"><title>2025-05-25: 0 active episodes</title></rect>
  <rect x="324" y="20" width="11" height="11" fill="#161b22" rx="2"><title>2025-05-26: 0 active episodes</title></rect>
  <rect x="324" y="34" width="11" height="11" fill="#161b22" rx="2"><title>2025-05-27: 0 active episodes</title></rect>
  <rect x="324" y="48" width="11" height="11" fill="#161b22" rx="2"><title>2025-05-28: 0 active episodes</title></rect>
  <rect x="324" y="62" width="11" height="11" fill="#161b22" rx="2"><title>2025-05-29: 0 active episodes</title></rect>
  <rect x="324" y="76" width="11" height="11" fill="#161b22" rx="2"><title>2025-05-30: 0 active episodes</title></rect>
  <rect x="324" y="90" width="11" height="11" fill="#161b22" rx="2"><title>2025-05-31: 0 active episodes</title></rect>
  <rect x="324" y="104" width="11" height="11" fill="#161b22" rx="2"><title>2025-06-01: 0 active episodes</title></rect>
  <rect x="338" y="20" width="11" height="11" fill="#161b22" rx="2"><title>2025-06-02: 0 active episodes</title></rect>
  <rect x="338" y="34" width="11" height="11" fill="#161b22" rx="2"><title>2025-06-03: 0 active episodes</title></rect>
  <rect x="338" y="48" width="11" height="11" fill="#161b22" rx="2"><title>2025-06-04: 0 active episodes</title></rect>
  <rect x="338" y="62" width="11" height="11" fill="#161b22" rx="2"><title>2025-06-05: 0 active episodes</title></rect>
  <rect x="338" y="76" width="11" height="11" fill="#161b22" rx="2"><title>2025-06-06: 0 active episodes</title></rect>
  <rect x="338" y="90" width="11" height="11" fill="#fef0d9" rx="2"><title>2025-06-07: 1 active episode</title></rect>
  <rect x="338" y="104" width="11" height="11" fill="#161b22" rx="2"><title>2025-06-08: 0 active episodes</title></rect>
  <rect x="352" y="20" width="11" height="11" fill="#161b22" rx="2"><title>2025-06-09: 0 active episodes</title></rect>
  <rect x="352" y="34" width="11" height="11" fill="#161b22" rx="2"><title>2025-06-10: 0 active episodes</title></rect>
  <rect x="352" y="48" width="11" height="11" fill="#161b22" rx="2"><title>2025-06-11: 0 active episodes</title></rect>
  <rect x="352" y="62" width="11" height="11" fill="#161b22" rx="2"><title>2025-06-12: 0 active episodes</title></rect>
  <rect x="352" y="76" width="11" height="11" fill="#161b22" rx="2"><title>2025-06-13: 0 active episodes</title></rect>
  <rect x="352" y="90" width="11" height="11" fill="#161b22" rx="2"><title>2025-06-14: 0 active episodes</title></rect>
  <rect x="352" y="104" width="11" height="11" fill="#161b22" rx="2"><title>2025-06-15: 0 active episodes</title></rect>
  <rect x="366" y="20" width="11" height="11" fill="#161b22" rx="2"><title>2025-06-16: 0 active episodes</title></rect>
  <rect x="366" y="34" width="11" height="11" fill="#161b22" rx="2"><title>2025-06-17: 0 active episodes</title></rect>
  <rect x="366" y="48" width="11" height="11" fill="#161b22" rx="2"><title>2025-06-18: 0 active episodes</title></rect>
  <rect x="366" y="62" width="11" height="11" fill="#161b22" rx="2"><title>2025-06-19: 0 active episodes</title></rect>
  <rect x="366" y="76" width="11" height="11" fill="#161b22" rx="2"><title>2025-06-20: 0 active episodes</title></rect>
  <rect x="366" y="90" width="11" height="11" fill="#161b22" rx="2"><title>2025-06-21: 0 active episodes</title></rect>
  <rect x="366" y="104" width="11" height="11" fill="#161b22" rx="2"><title>2025-06-22: 0 active episodes</title></rect>
  <rect x="380" y="20" width="11" height="11" fill="#161b22" rx="2"><title>2025-06-23: 0 active episodes</title></rect>
  <rect x="380" y="34" width="11" height="11" fill="#161b22" rx="2"><title>2025-06-24: 0 active episodes</title></rect>
  <rect x="380" y="48" width="11" height="11" fill="#161b22" rx="2"><title>2025-06-25: 0 active episodes</title></rect>
  <rect x="380" y="62" width="11" height="11" fill="#161b22" rx="2"><title>2025-06-26: 0 active episodes</title></rect>
  <rect x="380" y="76" width="11" height="11" fill="#161b22" rx="2"><title>2025-06-27: 0 active episodes</title></rect>
  <rect x="380" y="90" width="11" height="11" fill="#161b22" rx="2"><title>2025-06-28: 0 active episodes</title></rect>
  <rect x="380" y="104" width="11" height="11" fill="#161b22" rx="2"><title>2025-06-29: 0 active episodes</title></rect>
  <rect x="394" y="20" width="11" height="11" fill="#161b22" rx="2"><title>2025-06-30: 0 active episodes</title></rect>
  <rect x="394" y="34" width="11" height="11" fill="#161b22" rx="2"><title>2025-07-01: 0 active episodes</title></rect>
  <rect x="394" y="48" width="11" height="11" fill="#161b22" rx="2"><title>2025-07-02: 0 active episodes</title></rect>
  <rect x="394" y="62" width="11" height="11" fill="#161b22" rx="2"><title>2025-07-03: 0 active episodes</title></rect>
  <rect x="394" y="76" width="11" height="11" fill="#161b22" rx="2"><title>2025-07-04: 0 active episodes</title></rect>
  <rect x="394" y="90" width="11" height="11" fill="#161b22" rx="2"><title>2025-07-05: 0 active episodes</title></rect>
  <rect x="394" y="104" width="11" height="11" fill="#161b22" rx="2"><title>2025-07-06: 0 active episodes</title></rect>
  <rect x="408" y="20" width="11" height="11" fill="#161b22" rx="2"><title>2025-07-07: 0 active episodes</title></rect>
  <rect x="408" y="34" width="11" height="11" fill="#161b22" rx="2"><title>2025-07-08: 0 active episodes</title></rect>
  <rect x="408" y="48" width="11" height="11" fill="#161b22" rx="2"><title>2025-07-09: 0 active episodes</title></rect>
  <rect x="408" y="62" width="11" height="11" fill="#161b22" rx="2"><title>2025-07-10: 0 active episodes</title></rect>
  <rect x="408" y="76" width="11" height="11" fill="#161b22" rx="2"><title>2025-07-11: 0 active episodes</title></rect>
  <rect x="408" y="90" width="11" height="11" fill="#161b22" rx="2"><title>2025-07-12: 0 active episodes</title></rect>
  <rect x="408" y="104" width="11" height="11" fill="#161b22" rx="2"><title>2025-07-13: 0 active episodes</title></rect>
  <rect x="422" y="20" width="11" height="11" fill="#161b22" rx="2"><title>2025-07-14: 0 active episodes</title></rect>
  <rect x="422" y="34" width="11" height="11" fill="#161b22" rx="2"><title>2025-07-15: 0 active episodes</title></rect>
  <rect x="422" y="48" width="11" height="11" fill="#161b22" rx="2"><title>2025-07-16: 0 active episodes</title></rect>
  <rect x="422" y="62" width="11" height="11" fill="#161b22" rx="2"><title>2025-07-17: 0 active episodes</title></rect>
  <rect x="422" y="76" width="11" height="11" fill="#161b22" rx="2"><title>2025-07-18: 0 active episodes</title></rect>
  <rect x="422" y="90" width="11" height="11" fill="#161b22" rx="2"><title>2025-07-19: 0 active episodes</title></rect>
  <rect x="422" y="104" width="11" height="11" fill="#161b22" rx="2"><title>2025-07-20: 0 active episodes</title></rect>
  <rect x="436" y="20" width="11" height="11" fill="#161b22" rx="2"><title>2025-07-21: 0 active episodes</title></rect>
  <rect x="436" y="34" width="11" height="11" fill="#161b22" rx="2"><title>2025-07-22: 0 active episodes</title></rect>
  <rect x="436" y="48" width="11" height="11" fill="#161b22" rx="2"><title>2025-07-23: 0 active episodes</title></rect>
  <rect x="436" y="62" width="11" height="11" fill="#161b22" rx="2"><title>2025-07-24: 0 active episodes</title></rect>
  <rect x="436" y="76" width="11" height="11" fill="#161b22" rx="2"><title>2025-07-25: 0 active episodes</title></rect>
  <rect x="436" y="90" width="11" height="11" fill="#161b22" rx="2"><title>2025-07-26: 0 active episodes</title></rect>
  <rect x="436" y="104" width="11" height="11" fill="#161b22" rx="2"><title>2025-07-27: 0 active episodes</title></rect>
  <rect x="450" y="20" width="11" height="11" fill="#161b22" rx="2"><title>2025-07-28: 0 active episodes</title></rect>
  <rect x="450" y="34" width="11" height="11" fill="#161b22" rx="2"><title>2025-07-29: 0 active episodes</title></rect>
  <rect x="450" y="48" width="11" height="11" fill="#161b22" rx="2"><title>2025-07-30: 0 active episodes</title></rect>
  <rect x="450" y="62" width="11" height="11" fill="#161b22" rx="2"><title>2025-07-31: 0 active episodes</title></rect>
  <rect x="450" y="76" width="11" height="11" fill="#161b22" rx="2"><title>2025-08-01: 0 active episodes</title></rect>
  <rect x="450" y="90" width="11" height="11" fill="#161b22" rx="2"><title>2025-08-02: 0 active episodes</title></rect>
  <rect x="450" y="104" width="11" height="11" fill="#161b22" rx="2"><title>2025-08-03: 0 active episodes</title></rect>
  <rect x="464" y="20" width="11" height="11" fill="#161b22" rx="2"><title>2025-08-04: 0 active episodes</title></rect>
  <rect x="464" y="34" width="11" height="11" fill="#161b22" rx="2"><title>2025-08-05: 0 active episodes</title></rect>
  <rect x="464" y="48" width="11" height="11" fill="#161b22" rx="2"><title>2025-08-06: 0 active episodes</title></rect>
  <rect x="464" y="62" width="11" height="11" fill="#161b22" rx="2"><title>2025-08-07: 0 active episodes</title></rect>
  <rect x="464" y="76" width="11" height="11" fill="#161b22" rx="2"><title>2025-08-08: 0 active episodes</title></rect>
  <rect x="464" y="90" width="11" height="11" fill="#161b22" rx="2"><title>2025-08-09: 0 active episodes</title></rect>
  <rect x="464" y="104" width="11" height="11" fill="#161b22" rx="2"><title>2025-08-10: 0 active episodes</title></rect>
  <rect x="478" y="20" width="11" height="11" fill="#161b22" rx="2"><title>2025-08-11: 0 active episodes</title></rect>
  <rect x="478" y="34" width="11" height="11" fill="#161b22" rx="2"><title>2025-08-12: 0 active episodes</title></rect>
  <rect x="478" y="48" width="11" height="11" fill="#161b22" rx="2"><title>2025-08-13: 0 active episodes</title></rect>
  <rect x="478" y="62" width="11" height="11" fill="#161b22" rx="2"><title>2025-08-14: 0 active episodes</title></rect>
  <rect x="478" y="76" width="11" height="11" fill="#161b22" rx="2"><title>2025-08-15: 0 active episodes</title></rect>
  <rect x="478" y="90" width="11" height="11" fill="#161b22" rx="2"><title>2025-08-16: 0 active episodes</title></rect>
  <rect x="478" y="104" width="11" height="11" fill="#161b22" rx="2"><title>2025-08-17: 0 active episodes</title></rect>
  <rect x="492" y="20" width="11" height="11" fill="#161b22" rx="2"><title>2025-08-18: 0 active episodes</title></rect>
  <rect x="492" y="34" width="11" height="11" fill="#161b22" rx="2"><title>2025-08-19: 0 active episodes</title></rect>
  <rect x="492" y="48" width="11" height="11" fill="#161b22" rx="2"><title>2025-08-20: 0 active episodes</title></rect>
  <rect x="492" y="62" width="11" height="11" fill="#161b22" rx="2"><title>2025-08-21: 0 active episodes</title></rect>
  <rect x="492" y="76" width="11" height="11" fill="#161b22" rx="2"><title>2025-08-22: 0 active episodes</title></rect>
  <rect x="492" y="90" width="11" height="11" fill="#161b22" rx="2"><title>2025-08-23: 0 active episodes</title></rect>
  <rect x="492" y="104" width="11" height="11" fill="#161b22" rx="2"><title>2025-08-24: 0 active episodes</title></rect>
  <rect x="506" y="20" width="11" height="11" fill="#161b22" rx="2"><title>2025-08-25: 0 active episodes</title></rect>
  <rect x="506" y="34" width="11" height="11" fill="#161b22" rx="2"><title>2025-08-26: 0 active episodes</title></rect>
  <rect x="506" y="48" width="11" height="11" fill="#161b22" rx="2"><title>2025-08-27: 0 active episodes</title></rect>
  <rect x="506" y="62" width="11" height="11" fill="#161b22" rx="2"><title>2025-08-28: 0 active episodes</title></rect>
  <rect x="506" y="76" width="11" height="11" fill="#161b22" rx="2"><title>2025-08-29: 0 active episodes</title></rect>
  <rect x="506" y="90" width="11" height="11" fill="#161b22" rx="2"><title>2025-08-30: 0 active episodes</title></rect>
  <rect x="506" y="104" width="11" height="11" fill="#161b22" rx="2"><title>2025-08-31: 0 active episodes</title></rect>
  <rect x="520" y="20" width="11" height="11" fill="#161b22" rx="2"><title>2025-09-01: 0 active episodes</title></rect>
  <rect x="520" y="34" width="11" height="11" fill="#161b22" rx="2"><title>2025-09-02: 0 active episodes</title></rect>
  <rect x="520" y="48" width="11" height="11" fill="#161b22" rx="2"><title>2025-09-03: 0 active episodes</title></rect>
  <rect x="520" y="62" width="11" height="11" fill="#161b22" rx="2"><title>2025-09-04: 0 active episodes</title></rect>
  <rect x="520" y="76" width="11" height="11" fill="#161b22" rx="2"><title>2025-09-05: 0 active episodes</title></rect>
  <rect x="520" y="90" width="11" height="11" fill="#161b22" rx="2"><title>2025-09-06: 0 active episodes</title></rect>
  <rect x="520" y="104" width="11" height="11" fill="#161b22" rx="2"><title>2025-09-07: 0 active episodes</title></rect>
  <rect x="534" y="20" width="11" height="11" fill="#161b22" rx="2"><title>2025-09-08: 0 active episodes</title></rect>
  <rect x="534" y="34" width="11" height="11" fill="#161b22" rx="2"><title>2025-09-09: 0 active episodes</title></rect>
  <rect x="534" y="48" width="11" height="11" fill="#161b22" rx="2"><title>2025-09-10: 0 active episodes</title></rect>
  <rect x="534" y="62" width="11" height="11" fill="#161b22" rx="2"><title>2025-09-11: 0 active episodes</title></rect>
  <rect x="534" y="76" width="11" height="11" fill="#161b22" rx="2"><title>2025-09-12: 0 active episodes</title></rect>
  <rect x="534" y="90" width="11" height="11" fill="#161b22" rx="2"><title>2025-09-13: 0 active episodes</title></rect>
  <rect x="534" y="104" width="11" height="11" fill="#161b22" rx="2"><title>2025-09-14: 0 active episodes</title></rect>
  <rect x="548" y="20" width="11" height="11" fill="#161b22" rx="2"><title>2025-09-15: 0 active episodes</title></rect>
  <rect x="548" y="34" width="11" height="11" fill="#161b22" rx="2"><title>2025-09-16: 0 active episodes</title></rect>
  <rect x="548" y="48" width="11" height="11" fill="#161b22" rx="2"><title>2025-09-17: 0 active episodes</title></rect>
  <rect x="548" y="62" width="11" height="11" fill="#161b22" rx="2"><title>2025-09-18: 0 active episodes</title></rect>
  <rect x="548" y="76" width="11" height="11" fill="#161b22" rx="2"><title>2025-09-19: 0 active episodes</title></rect>
  <rect x="548" y="90" width="11" height="11" fill="#161b22" rx="2"><title>2025-09-20: 0 active episodes</title></rect>
  <rect x="548" y="104" width="11" height="11" fill="#161b22" rx="2"><title>2025-09-21: 0 active episodes</title></rect>
  <rect x="562" y="20" width="11" height="11" fill="#161b22" rx="2"><title>2025-09-22: 0 active episodes</title></rect>
  <rect x="562" y="34" width="11" height="11" fill="#161b22" rx="2"><title>2025-09-23: 0 active episodes</title></rect>
  <rect x="562" y="48" width="11" height="11" fill="#161b22" rx="2"><title>2025-09-24: 0 active episodes</title></rect>
  <rect x="562" y="62" width="11" height="11" fill="#161b22" rx="2"><title>2025-09-25: 0 active episodes</title></rect>
  <rect x="562" y="76" width="11" height="11" fill="#161b22" rx="2"><title>2025-09-26: 0 active episodes</title></rect>
  <rect x="562" y="90" width="11" height="11" fill="#161b22" rx="2"><title>2025-09-27: 0 active episodes</title></rect>
  <rect x="562" y="104" width="11" height="11" fill="#161b22" rx="2"><title>2025-09-28: 0 active episodes</title></rect>
  <rect x="576" y="20" width="11" height="11" fill="#161b22" rx="2"><title>2025-09-29: 0 active episodes</title></rect>
  <rect x="576" y="34" width="11" height="11" fill="#161b22" rx="2"><title>2025-09-30: 0 active episodes</title></rect>
  <rect x="576" y="48" width="11" height="11" fill="#161b22" rx="2"><title>2025-10-01: 0 active episodes</title></rect>
  <rect x="576" y="62" width="11" height="11" fill="#161b22" rx="2"><title>2025-10-02: 0 active episodes</title></rect>
  <rect x="576" y="76" width="11" height="11" fill="#161b22" rx="2"><title>2025-10-03: 0 active episodes</title></rect>
  <rect x="576" y="90" width="11" height="11" fill="#fef0d9" rx="2"><title>2025-10-04: 1 active episode</title></rect>
  <rect x="576" y="104" width="11" height="11" fill="#161b22" rx="2"><title>2025-10-05: 0 active episodes</title></rect>
  <rect x="590" y="20" width="11" height="11" fill="#161b22" rx="2"><title>2025-10-06: 0 active episodes</title></rect>
  <rect x="590" y="34" width="11" height="11" fill="#fef0d9" rx="2"><title>2025-10-07: 2 active episodes</title></rect>
  <rect x="590" y="48" width="11" height="11" fill="#ffecd0" rx="2"><title>2025-10-08: 20 active episodes</title></rect>
  <rect x="590" y="62" width="11" height="11" fill="#ffe9cb" rx="2"><title>2025-10-09: 30 active episodes</title></rect>
  <rect x="590" y="76" width="11" height="11" fill="#feefd7" rx="2"><title>2025-10-10: 5 active episodes</title></rect>
  <rect x="590" y="90" width="11" height="11" fill="#feefd8" rx="2"><title>2025-10-11: 4 active episodes</title></rect>
  <rect x="590" y="104" width="11" height="11" fill="#fef0d9" rx="2"><title>2025-10-12: 1 active episode</title></rect>
  <rect x="604" y="20" width="11" height="11" fill="#ffe9c9" rx="2"><title>2025-10-13: 33 active episodes</title></rect>
  <rect x="604" y="34" width="11" height="11" fill="#feefd7" rx="2"><title>2025-10-14: 6 active episodes</title></rect>
  <rect x="604" y="48" width="11" height="11" fill="#ffebcf" rx="2"><title>2025-10-15: 22 active episodes</title></rect>
  <rect x="604" y="62" width="11" height="11" fill="#ffe8c7" rx="2"><title>2025-10-16: 37 active episodes</title></rect>
  <rect x="604" y="76" width="11" height="11" fill="#ffebce" rx="2"><title>2025-10-17: 24 active episodes</title></rect>
  <rect x="604" y="90" width="11" height="11" fill="#feecd1" rx="2"><title>2025-10-18: 18 active episodes</title></rect>
  <rect x="604" y="104" width="11" height="11" fill="#feedd2" rx="2"><title>2025-10-19: 16 active episodes</title></rect>
  <rect x="618" y="20" width="11" height="11" fill="#ffdeb1" rx="2"><title>2025-10-20: 82 active episodes</title></rect>
  <rect x="618" y="34" width="11" height="11" fill="#fed59e" rx="2"><title>2025-10-21: 120 active episodes</title></rect>
  <rect x="618" y="48" width="11" height="11" fill="#fed298" rx="2"><title>2025-10-22: 132 active episodes</title></rect>
  <rect x="618" y="62" width="11" height="11" fill="#fed6a1" rx="2"><title>2025-10-23: 115 active episodes</title></rect>
  <rect x="618" y="76" width="11" height="11" fill="#ffddaf" rx="2"><title>2025-10-24: 86 active episodes</title></rect>
  <rect x="618" y="90" width="11" height="11" fill="#ffdeb1" rx="2"><title>2025-10-25: 81 active episodes</title></rect>
  <rect x="618" y="104" width="11" height="11" fill="#ffdfb5" rx="2"><title>2025-10-26: 74 active episodes</title></rect>
  <rect x="632" y="20" width="11" height="11" fill="#fec282" rx="2"><title>2025-10-27: 188 active episodes</title></rect>
  <rect x="632" y="34" width="11" height="11" fill="#feb375" rx="2"><title>2025-10-28: 227 active episodes</title></rect>
  <rect x="632" y="48" width="11" height="11" fill="#fdcf90" rx="2"><title>2025-10-29: 148 active episodes</title></rect>
  <rect x="632" y="62" width="11" height="11" fill="#ffd9a7" rx="2"><title>2025-10-30: 101 active episodes</title></rect>
  <rect x="632" y="76" width="11" height="11" fill="#ffe0b7" rx="2"><title>2025-10-31: 70 active episodes</title></rect>
  <rect x="632" y="90" width="11" height="11" fill="#ffe6c2" rx="2"><title>2025-11-01: 47 active episodes</title></rect>
  <rect x="632" y="104" width="11" height="11" fill="#ffe7c6" rx="2"><title>2025-11-02: 40 active episodes</title></rect>
  <rect x="646" y="20" width="11" height="11" fill="#ffddb0" rx="2"><title>2025-11-03: 84 active episodes</title></rect>
  <rect x="646" y="34" width="11" height="11" fill="#fed49b" rx="2"><title>2025-11-04: 126 active episodes</title></rect>
  <rect x="646" y="48" width="11" height="11" fill="#fed49d" rx="2"><title>2025-11-05: 123 active episodes</title></rect>
  <rect x="646" y="62" width="11" height="11" fill="#fed59e" rx="2"><title>2025-11-06: 120 active episodes</title></rect>
  <rect x="646" y="76" width="11" height="11" fill="#fed6a1" rx="2"><title>2025-11-07: 114 active episodes</title></rect>
  <rect x="646" y="90" width="11" height="11" fill="#ffe5c1" rx="2"><title>2025-11-08: 49 active episodes</title></rect>
  <rect x="646" y="104" width="11" height="11" fill="#ffe6c2" rx="2"><title>2025-11-09: 47 active episodes</title></rect>
  <rect x="660" y="20" width="11" height="11" fill="#ffdaaa" rx="2"><title>2025-11-10: 96 active episodes</title></rect>
  <rect x="660" y="34" width="11" height="11" fill="#fdc887" rx="2"><title>2025-11-11: 171 active episodes</title></rect>
  <rect x="660" y="48" width="11" height="11" fill="#fdc685" rx="2"><title>2025-11-12: 177 active episodes</title></rect>
  <rect x="660" y="62" width="11" height="11" fill="#ffd8a6" rx="2"><title>2025-11-13: 105 active episodes</title></rect>
  <rect x="660" y="76" width="11" height="11" fill="#ffd9a6" rx="2"><title>2025-11-14: 103 active episodes</title></rect>
  <rect x="660" y="90" width="11" height="11" fill="#ffe5c1" rx="2"><title>2025-11-15: 50 active episodes</title></rect>
  <rect x="660" y="104" width="11" height="11" fill="#ffe9c9" rx="2"><title>2025-11-16: 33 active episodes</title></rect>
  <rect x="674" y="20" width="11" height="11" fill="#ffdcac" rx="2"><title>2025-11-17: 91 active episodes</title></rect>
  <rect x="674" y="34" width="11" height="11" fill="#fed092" rx="2"><title>2025-11-18: 145 active episodes</title></rect>
  <rect x="674" y="48" width="11" height="11" fill="#fdc988" rx="2"><title>2025-11-19: 168 active episodes</title></rect>
  <rect x="674" y="62" width="11" height="11" fill="#fed6a1" rx="2"><title>2025-11-20: 114 active episodes</title></rect>
  <rect x="674" y="76" width="11" height="11" fill="#ffd8a4" rx="2"><title>2025-11-21: 108 active episodes</title></rect>
  <rect x="674" y="90" width="11" height="11" fill="#ffebce" rx="2"><title>2025-11-22: 24 active episodes</title></rect>
  <rect x="674" y="104" width="11" height="11" fill="#feeed6" rx="2"><title>2025-11-23: 8 active episodes</title></rect>
  <rect x="688" y="20" width="11" height="11" fill="#fed49b" rx="2"><title>2025-11-24: 126 active episodes</title></rect>
  <rect x="688" y="34" width="11" height="11" fill="#fecf91" rx="2"><title>2025-11-25: 146 active episodes</title></rect>
  <rect x="688" y="48" width="11" height="11" fill="#ffd8a5" rx="2"><title>2025-11-26: 107 active episodes</title></rect>
  <rect x="688" y="62" width="11" height="11" fill="#ffdeb2" rx="2"><title>2025-11-27: 80 active episodes</title></rect>
  <rect x="688" y="76" width="11" height="11" fill="#ffe9ca" rx="2"><title>2025-11-28: 32 active episodes</title></rect>
  <rect x="688" y="90" width="11" height="11" fill="#fef0d8" rx="2"><title>2025-11-29: 3 active episodes</title></rect>
  <rect x="688" y="104" width="11" height="11" fill="#fef0d9" rx="2"><title>2025-11-30: 1 active episode</title></rect>
  <rect x="702" y="20" width="11" height="11" fill="#feefd8" rx="2"><title>2025-12-01: 4 active episodes</title></rect>
  <rect x="702" y="34" width="11" height="11" fill="#feecd1" rx="2"><title>2025-12-02: 17 active episodes</title></rect>
  <rect x="702" y="48" width="11" height="11" fill="#feecd0" rx="2"><title>2025-12-03: 19 active episodes</title></rect>
  <rect x="702" y="62" width="11" height="11" fill="#ffecd0" rx="2"><title>2025-12-04: 20 active episodes</title></rect>
  <rect x="702" y="76" width="11" height="11" fill="#ffecd0" rx="2"><title>2025-12-05: 20 active episodes</title></rect>
  <rect x="702" y="90" width="11" height="11" fill="#feefd6" rx="2"><title>2025-12-06: 7 active episodes</title></rect>
  <rect x="702" y="104" width="11" height="11" fill="#feeed6" rx="2"><title>2025-12-07: 8 active episodes</title></rect>
  <rect x="716" y="20" width="11" height="11" fill="#fed69f" rx="2"><title>2025-12-08: 118 active episodes</title></rect>
  <rect x="716" y="34" width="11" height="11" fill="#fecf91" rx="2"><title>2025-12-09: 146 active episodes</title></rect>
  <rect x="716" y="48" width="11" height="11" fill="#fdce8e" rx="2"><title>2025-12-10: 152 active episodes</title></rect>
  <rect x="716" y="62" width="11" height="11" fill="#ffd7a3" rx="2"><title>2025-12-11: 110 active episodes</title></rect>
  <rect x="716" y="76" width="11" height="11" fill="#ffd9a7" rx="2"><title>2025-12-12: 102 active episodes</title></rect>
  <rect x="716" y="90" width="11" height="11" fill="#ffe6c3" rx="2"><title>2025-12-13: 45 active episodes</title></rect>
  <rect x="716" y="104" width="11" height="11" fill="#ffeacd" rx="2"><title>2025-12-14: 26 active episodes</title></rect>
  <rect x="730" y="20" width="11" height="11" fill="#fdc585" rx="2"><title>2025-12-15: 178 active episodes</title></rect>
  <rect x="730" y="34" width="11" height="11" fill="#ffd9a7" rx="2"><title>2025-12-16: 102 active episodes</title></rect>
  <rect x="730" y="48" width="11" height="11" fill="#ffe2bb" rx="2"><title>2025-12-17: 61 active episodes</title></rect>
  <rect x="730" y="62" width="11" height="11" fill="#ffdfb4" rx="2"><title>2025-12-18: 76 active episodes</title></rect>
  <rect x="730" y="76" width="11" height="11" fill="#ffe3bc" rx="2"><title>2025-12-19: 59 active episodes</title></rect>
  <rect x="730" y="90" width="11" height="11" fill="#ffebcf" rx="2"><title>2025-12-20: 22 active episodes</title></rect>
  <rect x="730" y="104" width="11" height="11" fill="#ffecd0" rx="2"><title>2025-12-21: 20 active episodes</title></rect>
  <rect x="744" y="20" width="11" height="11" fill="#ffe6c3" rx="2"><title>2025-12-22: 45 active episodes</title></rect>
  <rect x="744" y="34" width="11" height="11" fill="#ffe4bf" rx="2"><title>2025-12-23: 54 active episodes</title></rect>
  <rect x="744" y="48" width="11" height="11" fill="#ffe3be" rx="2"><title>2025-12-24: 56 active episodes</title></rect>
  <rect x="744" y="62" width="11" height="11" fill="#ffebcf" rx="2"><title>2025-12-25: 21 active episodes</title></rect>
  <rect x="744" y="76" width="11" height="11" fill="#ffebce" rx="2"><title>2025-12-26: 24 active episodes</title></rect>
  <rect x="744" y="90" width="11" height="11" fill="#fed39a" rx="2"><title>2025-12-27: 128 active episodes</title></rect>
  <rect x="744" y="104" width="11" height="11" fill="#ffe3bc" rx="2"><title>2025-12-28: 59 active episodes</title></rect>
  <rect x="758" y="20" width="11" height="11" fill="#ffe4c0" rx="2"><title>2025-12-29: 52 active episodes</title></rect>
  <rect x="758" y="34" width="11" height="11" fill="#ffdeb1" rx="2"><title>2025-12-30: 81 active episodes</title></rect>
  <rect x="758" y="48" width="11" height="11" fill="#fed49c" rx="2"><title>2025-12-31: 125 active episodes</title></rect>
  <text x="30" y="133" class="title">2025 - 8352 heating episodes</text>
  <defs>
    <linearGradient id="legend-gradient" x1="0" y1="0" x2="1" y2="0">
      <stop offset="0%" stop-color="#fef0d9"/>
      <stop offset="33.33333333333333%" stop-color="#fdcc8a"/>
      <stop offset="66.66666666666666%" stop-color="#fc8d59"/>
      <stop offset="100%" stop-color="#d7301f"/>
    </linearGradient>
  </defs>
  <text x="560" y="133" class="legend">No data</text>
  <rect x="602" y="123" width="11" height="11" fill="#484f58" rx="2"/>
  <text x="632" y="133" class="legend">Less</text>
  <rect x="662" y="123" width="11" height="11" fill="#161b22" rx="2"/>
  <rect x="676" y="123" width="53" height="11" fill="url(#legend-gradient)" rx="2"/>
  <text x="737" y="133" class="legend">More</text>
</svg>