<svg width="782" height="148" xmlns="http://www.w3.org/2000/svg">
  <style>
    .month { font: 10px sans-serif; fill: #8b949e; }
    .day { font: 10px sans-serif; fill: #8b949e; }
    .title { font: bold 14px sans-serif; fill: #c9d1d9; }
    .legend { font: 10px sans-serif; fill: #8b949e; }
  </style>
  <rect width="100%" height="100%" fill="#0d1117"/>
  <text x="0" y="29" class="day">Mon</text>
  <text x="0" y="57" class="day">Wed</text>
  <text x="0" y="85" class="day">Fri</text>
  <text x="0" y="113" class="day">Sun</text>
  <text x="30" y="15" class="month">Jan</text>
  <text x="100" y="15" class="month">Feb</text>
  <text x="156" y="15" class="month">Mar</text>
  <text x="212" y="15" class="month">Apr</text>
  <text x="282" y="15" class="month">May</text>
  <text x="338" y="15" class="month">Jun</text>
  <text x="394" y="15" class="month">Jul</text>
  <text x="464" y="15" class="month">Aug</text>
  <text x="520" y="15" class="month">Sep</text>
  <text x="590" y="15" class="month">Oct</text>
  <text x="646" y="15" class="month">Nov</text>
  <text x="702" y="15" class="month">Dec</text>
  <rect x="30" y="20" width="11" height="11" fill="#feedd3" rx="2"><title>2023-12-31: 14 active episodes</title></rect>
  <rect x="30" y="34" width="11" height="11" fill="#feeed5" rx="2"><title>2024-01-01: 9 active episodes</title></rect>
  <rect x="30" y="48" width="11" height="11" fill="#feefd7" rx="2"><title>2024-01-02: 5 active episodes</title></rect>
  <rect x="30" y="62" width="11" height="11" fill="#ffe2ba" rx="2"><title>2024-01-03: 69 active episodes</title></rect>
  <rect x="30" y="76" width="11" height="11" fill="#ffd8a6" rx="2"><title>2024-01-04: 114 active episodes</title></rect>
  <rect x="30" y="90" width="11" height="11" fill="#ffe0b5" rx="2"><title>2024-01-05: 79 active episodes</title></rect>
  <rect x="30" y="104" width="11" height="11" fill="#feeed4" rx="2"><title>2024-01-06: 12 active episodes</title></rect>
  <rect x="44" y="20" width="11" height="11" fill="#feefd6" rx="2"><title>2024-01-07: 7 active episodes</title></rect>
  <rect x="44" y="34" width="11" height="11" fill="#ffeacc" rx="2"><title>2024-01-08: 30 active episodes</title></rect>
  <rect x="44" y="48" width="11" height="11" fill="#fed39a" rx="2"><title>2024-01-09: 139 active episodes</title></rect>
  <rect x="44" y="62" width="11" height="11" fill="#fed196" rx="2"><title>2024-01-10: 149 active episodes</title></rect>
  <rect x="44" y="76" width="11" height="11" fill="#ffeacb" rx="2"><title>2024-01-11: 32 active episodes</title></rect>
  <rect x="44" y="90" width="11" height="11" fill="#feecd0" rx="2"><title>2024-01-12: 21 active episodes</title></rect>
  <rect x="44" y="104" width="11" height="11" fill="#fef0d9" rx="2"><title>2024-01-13: 1 active episode</title></rect>
  <rect x="58" y="20" width="11" height="11" fill="#feedd2" rx="2"><title>2024-01-14: 16 active episodes</title></rect>
  <rect x="58" y="34" width="11" height="11" fill="#ffdbab" rx="2"><title>2024-01-15: 101 active episodes</title></rect>
  <rect x="58" y="48" width="11" height="11" fill="#ffe1b8" rx="2"><title>2024-01-16: 73 active episodes</title></rect>
  <rect x="58" y="62" width="11" height="11" fill="#ffddaf" rx="2"><title>2024-01-17: 93 active episodes</title></rect>
  <rect x="58" y="76" width="11" height="11" fill="#ffdcad" rx="2"><title>2024-01-18: 98 active episodes</title></rect>
  <rect x="58" y="90" width="11" height="11" fill="#ffe4be" rx="2"><title>2024-01-19: 59 active episodes</title></rect>
  <rect x="58" y="104" width="11" height="11" fill="#161b22" rx="2"><title>2024-01-20: 0 active episodes</title></rect>
  <rect x="72" y="20" width="11" height="11" fill="#feefd7" rx="2"><title>2024-01-21: 6 active episodes</title></rect>
  <rect x="72" y="34" width="11" height="11" fill="#feedd2" rx="2"><title>2024-01-22: 16 active episodes</title></rect>
  <rect x="72" y="48" width="11" height="11" fill="#ffebce" rx="2"><title>2024-01-23: 25 active episodes</title></rect>
  <rect x="72" y="62" width="11" height="11" fill="#ffeacc" rx="2"><title>2024-01-24: 29 active episodes</title></rect>
  <rect x="72" y="76" width="11" height="11" fill="#ffd7a3" rx="2"><title>2024-01-25: 119 active episodes</title></rect>
  <rect x="72" y="90" width="11" height="11" fill="#fed59f" rx="2"><title>2024-01-26: 129 active episodes</title></rect>
  <rect x="72" y="104" width="11" height="11" fill="#ffeacc" rx="2"><title>2024-01-27: 29 active episodes</title></rect>
  <rect x="86" y="20" width="11" height="11" fill="#feeed4" rx="2"><title>2024-01-28: 11 active episodes</title></rect>
  <rect x="86" y="34" width="11" height="11" fill="#ffdbac" rx="2"><title>2024-01-29: 100 active episodes</title></rect>
  <rect x="86" y="48" width="11" height="11" fill="#ffddb0" rx="2"><title>2024-01-30: 91 active episodes</title></rect>
  <rect x="86" y="62" width="11" height="11" fill="#ffe2b9" rx="2"><title>2024-01-31: 70 active episodes</title></rect>
  <rect x="86" y="76" width="11" height="11" fill="#ffe2ba" rx="2"><title>2024-02-01: 68 active episodes</title></rect>
  <rect x="86" y="90" width="11" height="11" fill="#ffe4be" rx="2"><title>2024-02-02: 60 active episodes</title></rect>
  <rect x="86" y="104" width="11" height="11" fill="#feefd7" rx="2"><title>2024-02-03: 5 active episodes</title></rect>
  <rect x="100" y="20" width="11" height="11" fill="#161b22" rx="2"><title>2024-02-04: 0 active episodes</title></rect>
  <rect x="100" y="34" width="11" height="11" fill="#ffddaf" rx="2"><title>2024-02-05: 94 active episodes</title></rect>
  <rect x="100" y="48" width="11" height="11" fill="#fed6a1" rx="2"><title>2024-02-06: 124 active episodes</title></rect>
  <rect x="100" y="62" width="11" height="11" fill="#fed39a" rx="2"><title>2024-02-07: 139 active episodes</title></rect>
  <rect x="100" y="76" width="11" height="11" fill="#ffdfb5" rx="2"><title>2024-02-08: 81 active episodes</title></rect>
  <rect x="100" y="90" width="11" height="11" fill="#ffe7c5" rx="2"><title>2024-02-09: 45 active episodes</title></rect>
  <rect x="100" y="104" width="11" height="11" fill="#feeed4" rx="2"><title>2024-02-10: 11 active episodes</title></rect>
  <rect x="114" y="20" width="11" height="11" fill="#fef0d9" rx="2"><title>2024-02-11: 2 active episodes</title></rect>
  <rect x="114" y="34" width="11" height="11" fill="#fdcd8d" rx="2"><title>2024-02-12: 168 active episodes</title></rect>
  <rect x="114" y="48" width="11" height="11" fill="#fdcc8a" rx="2"><title>2024-02-13: 176 active episodes</title></rect>
  <rect x="114" y="62" width="11" height="11" fill="#feb577" rx="2"><title>2024-02-14: 241 active episodes</title></rect>
  <rect x="114" y="76" width="11" height="11" fill="#fdc685" rx="2"><title>2024-02-15: 191 active episodes</title></rect>
  <rect x="114" y="90" width="11" height="11" fill="#fed196" rx="2"><title>2024-02-16: 149 active episodes</title></rect>
  <rect x="114" y="104" width="11" height="11" fill="#feedd4" rx="2"><title>2024-02-17: 13 active episodes</title></rect>
  <rect x="128" y="20" width="11" height="11" fill="#feedd2" rx="2"><title>2024-02-18: 17 active episodes</title></rect>
  <rect x="128" y="34" width="11" height="11" fill="#ffddaf" rx="2"><title>2024-02-19: 94 active episodes</title></rect>
  <rect x="128" y="48" width="11" height="11" fill="#ffe0b5" rx="2"><title>2024-02-20: 79 active episodes</title></rect>
  <rect x="128" y="62" width="11" height="11" fill="#fed194" rx="2"><title>2024-02-21: 152 active episodes</title></rect>
  <rect x="128" y="76" width="11" height="11" fill="#ffddb0" rx="2"><title>2024-02-22: 91 active episodes</title></rect>
  <rect x="128" y="90" width="11" height="11" fill="#ffdeb1" rx="2"><title>2024-02-23: 88 active episodes</title></rect>
  <rect x="128" y="104" width="11" height="11" fill="#ffeacb" rx="2"><title>2024-02-24: 31 active episodes</title></rect>
  <rect x="142" y="20" width="11" height="11" fill="#fef0d9" rx="2"><title>2024-02-25: 2 active episodes</title></rect>
  <rect x="142" y="34" width="11" height="11" fill="#ffe2bb" rx="2"><title>2024-02-26: 67 active episodes</title></rect>
  <rect x="142" y="48" width="11" height="11" fill="#ffddb0" rx="2"><title>2024-02-27: 92 active episodes</title></rect>
  <rect x="142" y="62" width="11" height="11" fill="#ffdeb1" rx="2"><title>2024-02-28: 89 active episodes</title></rect>
  <rect x="142" y="76" width="11" height="11" fill="#ffdaa8" rx="2"><title>2024-02-29: 108 active episodes</title></rect>
  <rect x="142" y="90" width="11" height="11" fill="#ffe1b8" rx="2"><title>2024-03-01: 74 active episodes</title></rect>
  <rect x="142" y="104" width="11" height="11" fill="#feeed4" rx="2"><title>2024-03-02: 12 active episodes</title></rect>
  <rect x="156" y="20" width="11" height="11" fill="#feeed5" rx="2"><title>2024-03-03: 10 active episodes</title></rect>
  <rect x="156" y="34" width="11" height="11" fill="#ffe0b5" rx="2"><title>2024-03-04: 80 active episodes</title></rect>
  <rect x="156" y="48" width="11" height="11" fill="#ffe1b9" rx="2"><title>2024-03-05: 71 active episodes</title></rect>
  <rect x="156" y="62" width="11" height="11" fill="#ffe0b5" rx="2"><title>2024-03-06: 80 active episodes</title></rect>
  <rect x="156" y="76" width="11" height="11" fill="#ffdeb3" rx="2"><title>2024-03-07: 85 active episodes</title></rect>
  <rect x="156" y="90" width="11" height="11" fill="#ffe3bc" rx="2"><title>2024-03-08: 65 active episodes</title></rect>
  <rect x="156" y="104" width="11" height="11" fill="#feefd6" rx="2"><title>2024-03-09: 7 active episodes</title></rect>
  <rect x="170" y="20" width="11" height="11" fill="#fef0d8" rx="2"><title>2024-03-10: 3 active episodes</title></rect>
  <rect x="170" y="34" width="11" height="11" fill="#feecd1" rx="2"><title>2024-03-11: 19 active episodes</title></rect>
  <rect x="170" y="48" width="11" height="11" fill="#ffdfb4" rx="2"><title>2024-03-12: 83 active episodes</title></rect>
  <rect x="170" y="62" width="11" height="11" fill="#ffddb0" rx="2"><title>2024-03-13: 90 active episodes</title></rect>
  <rect x="170" y="76" width="11" height="11" fill="#ffe3bc" rx="2"><title>2024-03-14: 64 active episodes</title></rect>
  <rect x="170" y="90" width="11" height="11" fill="#ffe8c8" rx="2"><title>2024-03-15: 38 active episodes</title></rect>
  <rect x="170" y="104" width="11" height="11" fill="#fef0d9" rx="2"><title>2024-03-16: 2 active episodes</title></rect>
  <rect x="184" y="20" width="11" height="11" fill="#feefd8" rx="2"><title>2024-03-17: 4 active episodes</title></rect>
  <rect x="184" y="34" width="11" height="11" fill="#ffdcae" rx="2"><title>2024-03-18: 95 active episodes</title></rect>
  <rect x="184" y="48" width="11" height="11" fill="#ffdaa9" rx="2"><title>2024-03-19: 106 active episodes</title></rect>
  <rect x="184" y="62" width="11" height="11" fill="#fed195" rx="2"><title>2024-03-20: 150 active episodes</title></rect>
  <rect x="184" y="76" width="11" height="11" fill="#ffd7a3" rx="2"><title>2024-03-21: 119 active episodes</title></rect>
  <rect x="184" y="90" width="11" height="11" fill="#ffe2ba" rx="2"><title>2024-03-22: 68 active episodes</title></rect>
  <rect x="184" y="104" width="11" height="11" fill="#161b22" rx="2"><title>2024-03-23: 0 active episodes</title></rect>
  <rect x="198" y="20" width="11" height="11" fill="#feefd6" rx="2"><title>2024-03-24: 7 active episodes</title></rect>
  <rect x="198" y="34" width="11" height="11" fill="#ffebcf" rx="2"><title>2024-03-25: 23 active episodes</title></rect>
  <rect x="198" y="48" width="11" height="11" fill="#ffdbaa" rx="2"><title>2024-03-26: 104 active episodes</title></rect>
  <rect x="198" y="62" width="11" height="11" fill="#fed69f" rx="2"><title>2024-03-27: 128 active episodes</title></rect>
  <rect x="198" y="76" width="11" height="11" fill="#fed59f" rx="2"><title>2024-03-28: 129 active episodes</title></rect>
  <rect x="198" y="90" width="11" height="11" fill="#ffdcad" rx="2"><title>2024-03-29: 97 active episodes</title></rect>
  <rect x="198" y="104" width="11" height="11" fill="#feeed4" rx="2"><title>2024-03-30: 11 active episodes</title></rect>
  <rect x="198" y="20" width="11" height="11" fill="#fef0d9" rx="2"><title>2024-03-31: 1 active episode</title></rect>
  <rect x="212" y="34" width="11" height="11" fill="#fed59e" rx="2"><title>2024-04-01: 130 active episodes</title></rect>
  <rect x="212" y="48" width="11" height="11" fill="#fec282" rx="2"><title>2024-04-02: 204 active episodes</title></rect>
  <rect x="212" y="62" width="11" height="11" fill="#fed094" rx="2"><title>2024-04-03: 153 active episodes</title></rect>
  <rect x="212" y="76" width="11" height="11" fill="#fdc786" rx="2"><title>2024-04-04: 189 active episodes</title></rect>
  <rect x="212" y="90" width="11" height="11" fill="#ffdaa9" rx="2"><title>2024-04-05: 106 active episodes</title></rect>
  <rect x="212" y="104" width="11" height="11" fill="#ffe2ba" rx="2"><title>2024-04-06: 68 active episodes</title></rect>
  <rect x="212" y="20" width="11" height="11" fill="#ffdaaa" rx="2"><title>2024-04-07: 105 active episodes</title></rect>
  <rect x="226" y="34" width="11" height="11" fill="#fdce8f" rx="2"><title>2024-04-08: 165 active episodes</title></rect>
  <rect x="226" y="48" width="11" height="11" fill="#ffdaaa" rx="2"><title>2024-04-09: 105 active episodes</title></rect>
  <rect x="226" y="62" width="11" height="11" fill="#fdcd8c" rx="2"><title>2024-04-10: 171 active episodes</title></rect>
  <rect x="226" y="76" width="11" height="11" fill="#fdcf90" rx="2"><title>2024-04-11: 161 active episodes</title></rect>
  <rect x="226" y="90" width="11" height="11" fill="#fec282" rx="2"><title>2024-04-12: 202 active episodes</title></rect>
  <rect x="226" y="104" width="11" height="11" fill="#fdcd8b" rx="2"><title>2024-04-13: 172 active episodes</title></rect>
  <rect x="226" y="20" width="11" height="11" fill="#fdc786" rx="2"><title>2024-04-14: 190 active episodes</title></rect>
  <rect x="240" y="34" width="11" height="11" fill="#fed59d" rx="2"><title>2024-04-15: 133 active episodes</title></rect>
  <rect x="240" y="48" width="11" height="11" fill="#ffd7a2" rx="2"><title>2024-04-16: 121 active episodes</title></rect>
  <rect x="240" y="62" width="11" height="11" fill="#ffd9a7" rx="2"><title>2024-04-17: 111 active episodes</title></rect>
  <rect x="240" y="76" width="11" height="11" fill="#febe7f" rx="2"><title>2024-04-18: 214 active episodes</title></rect>
  <rect x="240" y="90" width="11" height="11" fill="#fed093" rx="2"><title>2024-04-19: 156 active episodes</title></rect>
  <rect x="240" y="104" width="11" height="11" fill="#ffd9a6" rx="2"><title>2024-04-20: 113 active episodes</title></rect>
  <rect x="240" y="20" width="11" height="11" fill="#fdc786" rx="2"><title>2024-04-21: 188 active episodes</title></rect>
  <rect x="254" y="34" width="11" height="11" fill="#fdc585" rx="2"><title>2024-04-22: 194 active episodes</title></rect>
  <rect x="254" y="48" width="11" height="11" fill="#fc8d59" rx="2"><title>2024-04-23: 350 active episodes</title></rect>
  <rect x="254" y="62" width="11" height="11" fill="#fb8a57" rx="2"><title>2024-04-24: 356 active episodes</title></rect>
  <rect x="254" y="76" width="11" height="11" fill="#fdc988" rx="2"><title>2024-04-25: 183 active episodes</title></rect>
  <rect x="254" y="90" width="11" height="11" fill="#febf80" rx="2"><title>2024-04-26: 211 active episodes</title></rect>
  <rect x="254" y="104" width="11" height="11" fill="#fed093" rx="2"><title>2024-04-27: 154 active episodes</title></rect>
  <rect x="254" y="20" width="11" height="11" fill="#ffe3bc" rx="2"><title>2024-04-28: 64 active episodes</title></rect>
  <rect x="268" y="34" width="11" height="11" fill="#fdcd8d" rx="2"><title>2024-04-29: 168 active episodes</title></rect>
  <rect x="268" y="48" width="11" height="11" fill="#fed59f" rx="2"><title>2024-04-30: 129 active episodes</title></rect>
  <rect x="268" y="62" width="11" height="11" fill="#ffe4c0" rx="2"><title>2024-05-01: 56 active episodes</title></rect>
  <rect x="268" y="76" width="11" height="11" fill="#feeed4" rx="2"><title>2024-05-02: 11 active episodes</title></rect>
  <rect x="268" y="90" width="11" height="11" fill="#feefd7" rx="2"><title>2024-05-03: 6 active episodes</title></rect>
  <rect x="268" y="104" width="11" height="11" fill="#ffe7c5" rx="2"><title>2024-05-04: 44 active episodes</title></rect>
  <rect x="268" y="20" width="11" height="11" fill="#ffe9ca" rx="2"><title>2024-05-05: 33 active episodes</title></rect>
  <rect x="282" y="34" width="11" height="11" fill="#ffe9ca" rx="2"><title>2024-05-06: 34 active episodes</title></rect>
  <rect x="282" y="48" width="11" height="11" fill="#fec080" rx="2"><title>2024-05-07: 208 active episodes</title></rect>
  <rect x="282" y="62" width="11" height="11" fill="#fdc685" rx="2"><title>2024-05-08: 191 active episodes</title></rect>
  <rect x="282" y="76" width="11" height="11" fill="#fed196" rx="2"><title>2024-05-09: 149 active episodes</title></rect>
  <rect x="282" y="90" width="11" height="11" fill="#ffd9a7" rx="2"><title>2024-05-10: 110 active episodes</title></rect>
  <rect x="282" y="104" width="11" height="11" fill="#ffd9a6" rx="2"><title>2024-05-11: 112 active episodes</title></rect>
  <rect x="282" y="20" width="11" height="11" fill="#ffdeb2" rx="2"><title>2024-05-12: 87 active episodes</title></rect>
  <rect x="296" y="34" width="11" height="11" fill="#febc7d" rx="2"><title>2024-05-13: 219 active episodes</title></rect>
  <rect x="296" y="48" width="11" height="11" fill="#feb678" rx="2"><title>2024-05-14: 237 active episodes</title></rect>
  <rect x="296" y="62" width="11" height="11" fill="#feb376" rx="2"><title>2024-05-15: 246 active episodes</title></rect>
  <rect x="296" y="76" width="11" height="11" fill="#feb275" rx="2"><title>2024-05-16: 248 active episodes</title></rect>
  <rect x="296" y="90" width="11" height="11" fill="#fed6a1" rx="2"><title>2024-05-17: 125 active episodes</title></rect>
  <rect x="296" y="104" width="11" height="11" fill="#fed297" rx="2"><title>2024-05-18: 147 active episodes</title></rect>
  <rect x="296" y="20" width="11" height="11" fill="#fdcf90" rx="2"><title>2024-05-19: 162 active episodes</title></rect>
  <rect x="310" y="34" width="11" height="11" fill="#feaa6f" rx="2"><title>2024-05-20: 270 active episodes</title></rect>
  <rect x="310" y="48" width="11" height="11" fill="#febc7d" rx="2"><title>2024-05-21: 219 active episodes</title></rect>
  <rect x="310" y="62" width="11" height="11" fill="#febe7e" rx="2"><title>2024-05-22: 216 active episodes</title></rect>
  <rect x="310" y="76" width="11" height="11" fill="#fec282" rx="2"><title>2024-05-23: 204 active episodes</title></rect>
  <rect x="310" y="90" width="11" height="11" fill="#fdc483" rx="2"><title>2024-05-24: 198 active episodes</title></rect>
  <rect x="310" y="104" width="11" height="11" fill="#fed6a1" rx="2"><title>2024-05-25: 124 active episodes</title></rect>
  <rect x="310" y="20" width="11" height="11" fill="#ffe5c2" rx="2"><title>2024-05-26: 52 active episodes</title></rect>
  <rect x="324" y="34" width="11" height="11" fill="#ffd9a6" rx="2"><title>2024-05-27: 113 active episodes</title></rect>
  <rect x="324" y="48" width="11" height="11" fill="#ffddb0" rx="2"><title>2024-05-28: 91 active episodes</title></rect>
  <rect x="324" y="62" width="11" height="11" fill="#ffdcac" rx="2"><title>2024-05-29: 99 active episodes</title></rect>
  <rect x="324" y="76" width="11" height="11" fill="#fed59f" rx="2"><title>2024-05-30: 129 active episodes</title></rect>
  <rect x="324" y="90" width="11" height="11" fill="#ffe3bc" rx="2"><title>2024-05-31: 64 active episodes</title></rect>
  <rect x="324" y="104" width="11" height="11" fill="#ffeccf" rx="2"><title>2024-06-01: 22 active episodes</title></rect>
  <rect x="324" y="20" width="11" height="11" fill="#ffebcd" rx="2"><title>2024-06-02: 27 active episodes</title></rect>
  <rect x="338" y="34" width="11" height="11" fill="#fdc483" rx="2"><title>2024-06-03: 198 active episodes</title></rect>
  <rect x="338" y="48" width="11" height="11" fill="#febf7f" rx="2"><title>2024-06-04: 212 active episodes</title></rect>
  <rect x="338" y="62" width="11" height="11" fill="#ffd7a3" rx="2"><title>2024-06-05: 120 active episodes</title></rect>
  <rect x="338" y="76" width="11" height="11" fill="#ffdbab" rx="2"><title>2024-06-06: 103 active episodes</title></rect>
  <rect x="338" y="90" width="11" height="11" fill="#ffddb0" rx="2"><title>2024-06-07: 91 active episodes</title></rect>
  <rect x="338" y="104" width="11" height="11" fill="#ffe9ca" rx="2"><title>2024-06-08: 34 active episodes</title></rect>
  <rect x="338" y="20" width="11" height="11" fill="#feedd3" rx="2"><title>2024-06-09: 14 active episodes</title></rect>
  <rect x="352" y="34" width="11" height="11" fill="#ffe1b9" rx="2"><title>2024-06-10: 72 active episodes</title></rect>
  <rect x="352" y="48" width="11" height="11" fill="#ffdbab" rx="2"><title>2024-06-11: 103 active episodes</title></rect>
  <rect x="352" y="62" width="11" height="11" fill="#ffdeb1" rx="2"><title>2024-06-12: 88 active episodes</title></rect>
  <rect x="352" y="76" width="11" height="11" fill="#ffe0b6" rx="2"><title>2024-06-13: 77 active episodes</title></rect>
  <rect x="352" y="90" width="11" height="11" fill="#ffe3bc" rx="2"><title>2024-06-14: 64 active episodes</title></rect>
  <rect x="352" y="104" width="11" height="11" fill="#ffe9ca" rx="2"><title>2024-06-15: 34 active episodes</title></rect>
  <rect x="352" y="20" width="11" height="11" fill="#feedd3" rx="2"><title>2024-06-16: 15 active episodes</title></rect>
  <rect x="366" y="34" width="11" height="11" fill="#fdcb89" rx="2"><title>2024-06-17: 178 active episodes</title></rect>
  <rect x="366" y="48" width="11" height="11" fill="#fdc484" rx="2"><title>2024-06-18: 197 active episodes</title></rect>
  <rect x="366" y="62" width="11" height="11" fill="#fdc887" rx="2"><title>2024-06-19: 186 active episodes</title></rect>
  <rect x="366" y="76" width="11" height="11" fill="#fdce8e" rx="2"><title>2024-06-20: 167 active episodes</title></rect>
  <rect x="366" y="90" width="11" height="11" fill="#ffdfb4" rx="2"><title>2024-06-21: 82 active episodes</title></rect>
  <rect x="366" y="104" width="11" height="11" fill="#feefd6" rx="2"><title>2024-06-22: 8 active episodes</title></rect>
  <rect x="366" y="20" width="11" height="11" fill="#feefd6" rx="2"><title>2024-06-23: 7 active episodes</title></rect>
  <rect x="380" y="34" width="11" height="11" fill="#feefd7" rx="2"><title>2024-06-24: 6 active episodes</title></rect>
  <rect x="380" y="48" width="11" height="11" fill="#ffe1b8" rx="2"><title>2024-06-25: 73 active episodes</title></rect>
  <rect x="380" y="62" width="11" height="11" fill="#ffd9a6" rx="2"><title>2024-06-26: 112 active episodes</title></rect>
  <rect x="380" y="76" width="11" height="11" fill="#ffddaf" rx="2"><title>2024-06-27: 94 active episodes</title></rect>
  <rect x="380" y="90" width="11" height="11" fill="#ffe1b9" rx="2"><title>2024-06-28: 71 active episodes</title></rect>
  <rect x="380" y="104" width="11" height="11" fill="#feecd0" rx="2"><title>2024-06-29: 21 active episodes</title></rect>
  <rect x="380" y="20" width="11" height="11" fill="#feeed4" rx="2"><title>2024-06-30: 11 active episodes</title></rect>
  <rect x="394" y="34" width="11" height="11" fill="#feb073" rx="2"><title>2024-07-01: 255 active episodes</title></rect>
  <rect x="394" y="48" width="11" height="11" fill="#fea96e" rx="2"><title>2024-07-02: 272 active episodes</title></rect>
  <rect x="394" y="62" width="11" height="11" fill="#feac70" rx="2"><title>2024-07-03: 266 active episodes</title></rect>
  <rect x="394" y="76" width="11" height="11" fill="#fea66c" rx="2"><title>2024-07-04: 282 active episodes</title></rect>
  <rect x="394" y="90" width="11" height="11" fill="#fdc685" rx="2"><title>2024-07-05: 193 active episodes</title></rect>
  <rect x="394" y="104" width="11" height="11" fill="#ffdaa9" rx="2"><title>2024-07-06: 106 active episodes</title></rect>
  <rect x="394" y="20" width="11" height="11" fill="#feecd0" rx="2"><title>2024-07-07: 21 active episodes</title></rect>
  <rect x="408" y="34" width="11" height="11" fill="#fec282" rx="2"><title>2024-07-08: 202 active episodes</title></rect>
  <rect x="408" y="48" width="11" height="11" fill="#feaf72" rx="2"><title>2024-07-09: 258 active episodes</title></rect>
  <rect x="408" y="62" width="11" height="11" fill="#fdc786" rx="2"><title>2024-07-10: 189 active episodes</title></rect>
  <rect x="408" y="76" width="11" height="11" fill="#fdca89" rx="2"><title>2024-07-11: 180 active episodes</title></rect>
  <rect x="408" y="90" width="11" height="11" fill="#fed59d" rx="2"><title>2024-07-12: 132 active episodes</title></rect>
  <rect x="408" y="104" width="11" height="11" fill="#ffe9c9" rx="2"><title>2024-07-13: 35 active episodes</title></rect>
  <rect x="408" y="20" width="11" height="11" fill="#feedd2" rx="2"><title>2024-07-14: 16 active episodes</title></rect>
  <rect x="422" y="34" width="11" height="11" fill="#ffe0b7" rx="2"><title>2024-07-15: 76 active episodes</title></rect>
  <rect x="422" y="48" width="11" height="11" fill="#ffe2b9" rx="2"><title>2024-07-16: 70 active episodes</title></rect>
  <rect x="422" y="62" width="11" height="11" fill="#ffe0b7" rx="2"><title>2024-07-17: 76 active episodes</title></rect>
  <rect x="422" y="76" width="11" height="11" fill="#ffe1b8" rx="2"><title>2024-07-18: 73 active episodes</title></rect>
  <rect x="422" y="90" width="11" height="11" fill="#ffe8c7" rx="2"><title>2024-07-19: 40 active episodes</title></rect>
  <rect x="422" y="104" width="11" height="11" fill="#feefd6" rx="2"><title>2024-07-20: 8 active episodes</title></rect>
  <rect x="422" y="20" width="11" height="11" fill="#fef0d8" rx="2"><title>2024-07-21: 3 active episodes</title></rect>
  <rect x="436" y="34" width="11" height="11" fill="#fed6a1" rx="2"><title>2024-07-22: 124 active episodes</title></rect>
  <rect x="436" y="48" width="11" height="11" fill="#fdce8f" rx="2"><title>2024-07-23: 164 active episodes</title></rect>
  <rect x="436" y="62" width="11" height="11" fill="#fdce8f" rx="2"><title>2024-07-24: 163 active episodes</title></rect>
  <rect x="436" y="76" width="11" height="11" fill="#fdcc8a" rx="2"><title>2024-07-25: 175 active episodes</title></rect>
  <rect x="436" y="90" width="11" height="11" fill="#ffe0b6" rx="2"><title>2024-07-26: 78 active episodes</title></rect>
  <rect x="436" y="104" width="11" height="11" fill="#feecd1" rx="2"><title>2024-07-27: 18 active episodes</title></rect>
  <rect x="436" y="20" width="11" height="11" fill="#ffe9c9" rx="2"><title>2024-07-28: 36 active episodes</title></rect>
  <rect x="450" y="34" width="11" height="11" fill="#ffdcae" rx="2"><title>2024-07-29: 96 active episodes</title></rect>
  <rect x="450" y="48" width="11" height="11" fill="#ffdcae" rx="2"><title>2024-07-30: 95 active episodes</title></rect>
  <rect x="450" y="62" width="11" height="11" fill="#ffdbab" rx="2"><title>2024-07-31: 103 active episodes</title></rect>
  <rect x="450" y="76" width="11" height="11" fill="#fed297" rx="2"><title>2024-08-01: 146 active episodes</title></rect>
  <rect x="450" y="90" width="11" height="11" fill="#fed094" rx="2"><title>2024-08-02: 153 active episodes</title></rect>
  <rect x="450" y="104" width="11" height="11" fill="#ffd9a6" rx="2"><title>2024-08-03: 113 active episodes</title></rect>
  <rect x="450" y="20" width="11" height="11" fill="#ffe8c8" rx="2"><title>2024-08-04: 38 active episodes</title></rect>
  <rect x="464" y="34" width="11" height="11" fill="#fdce8f" rx="2"><title>2024-08-05: 163 active episodes</title></rect>
  <rect x="464" y="48" width="11" height="11" fill="#fdc887" rx="2"><title>2024-08-06: 186 active episodes</title></rect>
  <rect x="464" y="62" width="11" height="11" fill="#fed297" rx="2"><title>2024-08-07: 147 active episodes</title></rect>
  <rect x="464" y="76" width="11" height="11" fill="#fdcc8a" rx="2"><title>2024-08-08: 175 active episodes</title></rect>
  <rect x="464" y="90" width="11" height="11" fill="#fed296" rx="2"><title>2024-08-09: 148 active episodes</title></rect>
  <rect x="464" y="104" width="11" height="11" fill="#ffd8a5" rx="2"><title>2024-08-10: 115 active episodes</title></rect>
  <rect x="464" y="20" width="11" height="11" fill="#ffdaa8" rx="2"><title>2024-08-11: 108 active episodes</title></rect>
  <rect x="478" y="34" width="11" height="11" fill="#fea66c" rx="2"><title>2024-08-12: 281 active episodes</title></rect>
  <rect x="478" y="48" width="11" height="11" fill="#febc7d" rx="2"><title>2024-08-13: 221 active episodes</title></rect>
  <rect x="478" y="62" width="11" height="11" fill="#fec181" rx="2"><title>2024-08-14: 205 active episodes</title></rect>
  <rect x="478" y="76" width="11" height="11" fill="#fed6a1" rx="2"><title>2024-08-15: 125 active episodes</title></rect>
  <rect x="478" y="90" width="11" height="11" fill="#fed49b" rx="2"><title>2024-08-16: 138 active episodes</title></rect>
  <rect x="478" y="104" width="11" height="11" fill="#fecf91" rx="2"><title>2024-08-17: 159 active episodes</title></rect>
  <rect x="478" y="20" width="11" height="11" fill="#ffdcad" rx="2"><title>2024-08-18: 97 active episodes</title></rect>
  <rect x="492" y="34" width="11" height="11" fill="#fea46a" rx="2"><title>2024-08-19: 286 active episodes</title></rect>
  <rect x="492" y="48" width="11" height="11" fill="#ef6d42" rx="2"><title>2024-08-20: 415 active episodes</title></rect>
  <rect x="492" y="62" width="11" height="11" fill="#fd945e" rx="2"><title>2024-08-21: 331 active episodes</title></rect>
  <rect x="492" y="76" width="11" height="11" fill="#feaf73" rx="2"><title>2024-08-22: 256 active episodes</title></rect>
  <rect x="492" y="90" width="11" height="11" fill="#feb577" rx="2"><title>2024-08-23: 240 active episodes</title></rect>
  <rect x="492" y="104" width="11" height="11" fill="#febf80" rx="2"><title>2024-08-24: 211 active episodes</title></rect>
  <rect x="492" y="20" width="11" height="11" fill="#fdc887" rx="2"><title>2024-08-25: 185 active episodes</title></rect>
  <rect x="506" y="34" width="11" height="11" fill="#f27447" rx="2"><title>2024-08-26: 402 active episodes</title></rect>
  <rect x="506" y="48" width="11" height="11" fill="#eb643c" rx="2"><title>2024-08-27: 434 active episodes</title></rect>
  <rect x="506" y="62" width="11" height="11" fill="#fd9e66" rx="2"><title>2024-08-28: 303 active episodes</title></rect>
  <rect x="506" y="76" width="11" height="11" fill="#e45331" rx="2"><title>2024-08-29: 467 active episodes</title></rect>
  <rect x="506" y="90" width="11" height="11" fill="#f06f44" rx="2"><title>2024-08-30: 411 active episodes</title></rect>
  <rect x="506" y="104" width="11" height="11" fill="#fd935d" rx="2"><title>2024-08-31: 333 active episodes</title></rect>
  <rect x="506" y="20" width="11" height="11" fill="#febe7f" rx="2"><title>2024-09-01: 214 active episodes</title></rect>
  <rect x="520" y="34" width="11" height="11" fill="#feaf72" rx="2"><title>2024-09-02: 258 active episodes</title></rect>
  <rect x="520" y="48" width="11" height="11" fill="#fdc887" rx="2"><title>2024-09-03: 187 active episodes</title></rect>
  <rect x="520" y="62" width="11" height="11" fill="#febc7d" rx="2"><title>2024-09-04: 221 active episodes</title></rect>
  <rect x="520" y="76" width="11" height="11" fill="#fdc685" rx="2"><title>2024-09-05: 192 active episodes</title></rect>
  <rect x="520" y="90" width="11" height="11" fill="#fed297" rx="2"><title>2024-09-06: 146 active episodes</title></rect>
  <rect x="520" y="104" width="11" height="11" fill="#fed7a1" rx="2"><title>2024-09-07: 123 active episodes</title></rect>
  <rect x="520" y="20" width="11" height="11" fill="#ffdaaa" rx="2"><title>2024-09-08: 105 active episodes</title></rect>
  <rect x="534" y="34" width="11" height="11" fill="#ffdaa9" rx="2"><title>2024-09-09: 107 active episodes</title></rect>
  <rect x="534" y="48" width="11" height="11" fill="#ffd8a4" rx="2"><title>2024-09-10: 118 active episodes</title></rect>
  <rect x="534" y="62" width="11" height="11" fill="#ffd9a6" rx="2"><title>2024-09-11: 112 active episodes</title></rect>
  <rect x="534" y="76" width="11" height="11" fill="#fed194" rx="2"><title>2024-09-12: 152 active episodes</title></rect>
  <rect x="534" y="90" width="11" height="11" fill="#ffdfb5" rx="2"><title>2024-09-13: 81 active episodes</title></rect>
  <rect x="534" y="104" width="11" height="11" fill="#ffe8c8" rx="2"><title>2024-09-14: 38 active episodes</title></rect>
  <rect x="534" y="20" width="11" height="11" fill="#ffe3bc" rx="2"><title>2024-09-15: 64 active episodes</title></rect>
  <rect x="548" y="34" width="11" height="11" fill="#ffe1b9" rx="2"><title>2024-09-16: 71 active episodes</title></rect>
  <rect x="548" y="48" width="11" height="11" fill="#ffdeb1" rx="2"><title>2024-09-17: 89 active episodes</title></rect>
  <rect x="548" y="62" width="11" height="11" fill="#ffdbab" rx="2"><title>2024-09-18: 101 active episodes</title></rect>
  <rect x="548" y="76" width="11" height="11" fill="#ffddb0" rx="2"><title>2024-09-19: 91 active episodes</title></rect>
  <rect x="548" y="90" width="11" height="11" fill="#ffe1b9" rx="2"><title>2024-09-20: 71 active episodes</title></rect>
  <rect x="548" y="104" width="11" height="11" fill="#ffe8c9" rx="2"><title>2024-09-21: 37 active episodes</title></rect>
  <rect x="548" y="20" width="11" height="11" fill="#ffe0b5" rx="2"><title>2024-09-22: 79 active episodes</title></rect>
  <rect x="562" y="34" width="11" height="11" fill="#fed49c" rx="2"><title>2024-09-23: 135 active episodes</title></rect>
  <rect x="562" y="48" width="11" height="11" fill="#fed59f" rx="2"><title>2024-09-24: 129 active episodes</title></rect>
  <rect x="562" y="62" width="11" height="11" fill="#fdce8e" rx="2"><title>2024-09-25: 167 active episodes</title></rect>
  <rect x="562" y="76" width="11" height="11" fill="#feb87a" rx="2"><title>2024-09-26: 232 active episodes</title></rect>
  <rect x="562" y="90" width="11" height="11" fill="#fed6a1" rx="2"><title>2024-09-27: 125 active episodes</title></rect>
  <rect x="562" y="104" width="11" height="11" fill="#ffdaa8" rx="2"><title>2024-09-28: 108 active episodes</title></rect>
  <rect x="562" y="20" width="11" height="11" fill="#ffe2bb" rx="2"><title>2024-09-29: 67 active episodes</title></rect>
  <rect x="576" y="34" width="11" height="11" fill="#ffe3be" rx="2"><title>2024-09-30: 61 active episodes</title></rect>
  <rect x="576" y="48" width="11" height="11" fill="#ffddb0" rx="2"><title>2024-10-01: 92 active episodes</title></rect>
  <rect x="576" y="62" width="11" height="11" fill="#fed39a" rx="2"><title>2024-10-02: 139 active episodes</title></rect>
  <rect x="576" y="76" width="11" height="11" fill="#fed298" rx="2"><title>2024-10-03: 145 active episodes</title></rect>
  <rect x="576" y="90" width="11" height="11" fill="#ffdaaa" rx="2"><title>2024-10-04: 105 active episodes</title></rect>
  <rect x="576" y="104" width="11" height="11" fill="#ffe7c6" rx="2"><title>2024-10-05: 42 active episodes</title></rect>
  <rect x="576" y="20" width="11" height="11" fill="#ffe4bf" rx="2"><title>2024-10-06: 58 active episodes</title></rect>
  <rect x="590" y="34" width="11" height="11" fill="#ffd7a3" rx="2"><title>2024-10-07: 119 active episodes</title></rect>
  <rect x="590" y="48" width="11" height="11" fill="#fed59d" rx="2"><title>2024-10-08: 132 active episodes</title></rect>
  <rect x="590" y="62" width="11" height="11" fill="#ffddb0" rx="2"><title>2024-10-09: 92 active episodes</title></rect>
  <rect x="590" y="76" width="11" height="11" fill="#feecd0" rx="2"><title>2024-10-10: 21 active episodes</title></rect>
  <rect x="590" y="90" width="11" height="11" fill="#feecd0" rx="2"><title>2024-10-11: 21 active episodes</title></rect>
  <rect x="590" y="104" width="11" height="11" fill="#feecd0" rx="2"><title>2024-10-12: 21 active episodes</title></rect>
  <rect x="590" y="20" width="11" height="11" fill="#ffdaa8" rx="2"><title>2024-10-13: 108 active episodes</title></rect>
  <rect x="604" y="34" width="11" height="11" fill="#ffdcae" rx="2"><title>2024-10-14: 95 active episodes</title></rect>
  <rect x="604" y="48" width="11" height="11" fill="#fed49b" rx="2"><title>2024-10-15: 138 active episodes</title></rect>
  <rect x="604" y="62" width="11" height="11" fill="#fdcb89" rx="2"><title>2024-10-16: 179 active episodes</title></rect>
  <rect x="604" y="76" width="11" height="11" fill="#fed195" rx="2"><title>2024-10-17: 151 active episodes</title></rect>
  <rect x="604" y="90" width="11" height="11" fill="#ffdbab" rx="2"><title>2024-10-18: 101 active episodes</title></rect>
  <rect x="604" y="104" width="11" height="11" fill="#ffe5c2" rx="2"><title>2024-10-19: 52 active episodes</title></rect>
  <rect x="604" y="20" width="11" height="11" fill="#ffd7a3" rx="2"><title>2024-10-20: 120 active episodes</title></rect>
  <rect x="618" y="34" width="11" height="11" fill="#fdce8e" rx="2"><title>2024-10-21: 167 active episodes</title></rect>
  <rect x="618" y="48" width="11" height="11" fill="#fdc887" rx="2"><title>2024-10-22: 186 active episodes</title></rect>
  <rect x="618" y="62" width="11" height="11" fill="#feb073" rx="2"><title>2024-10-23: 255 active episodes</title></rect>
  <rect x="618" y="76" width="11" height="11" fill="#febb7c" rx="2"><title>2024-10-24: 222 active episodes</title></rect>
  <rect x="618" y="90" width="11" height="11" fill="#fed093" rx="2"><title>2024-10-25: 155 active episodes</title></rect>
  <rect x="618" y="104" width="11" height="11" fill="#ffd9a7" rx="2"><title>2024-10-26: 111 active episodes</title></rect>
  <rect x="632" y="20" width="11" height="11" fill="#ffe4be" rx="2"><title>2024-10-27: 59 active episodes</title></rect>
  <rect x="632" y="34" width="11" height="11" fill="#fec181" rx="2"><title>2024-10-28: 207 active episodes</title></rect>
  <rect x="632" y="48" width="11" height="11" fill="#febd7e" rx="2"><title>2024-10-29: 217 active episodes</title></rect>
  <rect x="632" y="62" width="11" height="11" fill="#fd9660" rx="2"><title>2024-10-30: 324 active episodes</title></rect>
  <rect x="632" y="76" width="11" height="11" fill="#fea66c" rx="2"><title>2024-10-31: 281 active episodes</title></rect>
  <rect x="632" y="90" width="11" height="11" fill="#feab70" rx="2"><title>2024-11-01: 267 active episodes</title></rect>
  <rect x="632" y="104" width="11" height="11" fill="#ffdfb3" rx="2"><title>2024-11-02: 84 active episodes</title></rect>
  <rect x="646" y="20" width="11" height="11" fill="#ffe4be" rx="2"><title>2024-11-03: 60 active episodes</title></rect>
  <rect x="646" y="34" width="11" height="11" fill="#fed59e" rx="2"><title>2024-11-04: 131 active episodes</title></rect>
  <rect x="646" y="48" width="11" height="11" fill="#ffdaaa" rx="2"><title>2024-11-05: 105 active episodes</title></rect>
  <rect x="646" y="62" width="11" height="11" fill="#fed6a0" rx="2"><title>2024-11-06: 126 active episodes</title></rect>
  <rect x="646" y="76" width="11" height="11" fill="#ffdaaa" rx="2"><title>2024-11-07: 105 active episodes</title></rect>
  <rect x="646" y="90" width="11" height="11" fill="#ffe6c2" rx="2"><title>2024-11-08: 51 active episodes</title></rect>
  <rect x="646" y="104" width="11" height="11" fill="#ffebce" rx="2"><title>2024-11-09: 26 active episodes</title></rect>
  <rect x="660" y="20" width="11" height="11" fill="#feecd1" rx="2"><title>2024-11-10: 19 active episodes</title></rect>
  <rect x="660" y="34" width="11" height="11" fill="#ffeacc" rx="2"><title>2024-11-11: 30 active episodes</title></rect>
  <rect x="660" y="48" width="11" height="11" fill="#ffeacb" rx="2"><title>2024-11-12: 31 active episodes</title></rect>
  <rect x="660" y="62" width="11" height="11" fill="#fd9e65" rx="2"><title>2024-11-13: 304 active episodes</title></rect>
  <rect x="660" y="76" width="11" height="11" fill="#fed6a0" rx="2"><title>2024-11-14: 126 active episodes</title></rect>
  <rect x="660" y="90" width="11" height="11" fill="#ffdbaa" rx="2"><title>2024-11-15: 104 active episodes</title></rect>
  <rect x="660" y="104" width="11" height="11" fill="#ffe5c0" rx="2"><title>2024-11-16: 55 active episodes</title></rect>
  <rect x="674" y="20" width="11" height="11" fill="#fed296" rx="2"><title>2024-11-17: 148 active episodes</title></rect>
  <rect x="674" y="34" width="11" height="11" fill="#ffdfb5" rx="2"><title>2024-11-18: 81 active episodes</title></rect>
  <rect x="674" y="48" width="11" height="11" fill="#ffe1b9" rx="2"><title>2024-11-19: 72 active episodes</title></rect>
  <rect x="674" y="62" width="11" height="11" fill="#ffe4bf" rx="2"><title>2024-11-20: 57 active episodes</title></rect>
  <rect x="674" y="76" width="11" height="11" fill="#ffe4c0" rx="2"><title>2024-11-21: 56 active episodes</title></rect>
  <rect x="674" y="90" width="11" height="11" fill="#ffe5c1" rx="2"><title>2024-11-22: 54 active episodes</title></rect>
  <rect x="674" y="104" width="11" height="11" fill="#feeed4" rx="2"><title>2024-11-23: 12 active episodes</title></rect>
  <rect x="688" y="20" width="11" height="11" fill="#feedd3" rx="2"><title>2024-11-24: 14 active episodes</title></rect>
  <rect x="688" y="34" width="11" height="11" fill="#ffdaa8" rx="2"><title>2024-11-25: 108 active episodes</title></rect>
  <rect x="688" y="48" width="11" height="11" fill="#fed399" rx="2"><title>2024-11-26: 141 active episodes</title></rect>
  <rect x="688" y="62" width="11" height="11" fill="#fdcd8d" rx="2"><title>2024-11-27: 168 active episodes</title></rect>
  <rect x="688" y="76" width="11" height="11" fill="#fdc786" rx="2"><title>2024-11-28: 189 active episodes</title></rect>
  <rect x="688" y="90" width="11" height="11" fill="#feb97b" rx="2"><title>2024-11-29: 228 active episodes</title></rect>
  <rect x="688" y="104" width="11" height="11" fill="#fdcb89" rx="2"><title>2024-11-30: 177 active episodes</title></rect>
  <rect x="702" y="20" width="11" height="11" fill="#febf80" rx="2"><title>2024-12-01: 211 active episodes</title></rect>
  <rect x="702" y="34" width="11" height="11" fill="#fec181" rx="2"><title>2024-12-02: 205 active episodes</title></rect>
  <rect x="702" y="48" width="11" height="11" fill="#fdcd8c" rx="2"><title>2024-12-03: 170 active episodes</title></rect>
  <rect x="702" y="62" width="11" height="11" fill="#fdc483" rx="2"><title>2024-12-04: 198 active episodes</title></rect>
  <rect x="702" y="76" width="11" height="11" fill="#fed39a" rx="2"><title>2024-12-05: 140 active episodes</title></rect>
  <rect x="702" y="90" width="11" height="11" fill="#ffd8a5" rx="2"><title>2024-12-06: 115 active episodes</title></rect>
  <rect x="702" y="104" width="11" height="11" fill="#ffe8c7" rx="2"><title>2024-12-07: 40 active episodes</title></rect>
  <rect x="716" y="20" width="11" height="11" fill="#ffebcd" rx="2"><title>2024-12-08: 27 active episodes</title></rect>
  <rect x="716" y="34" width="11" height="11" fill="#fed69f" rx="2"><title>2024-12-09: 128 active episodes</title></rect>
  <rect x="716" y="48" width="11" height="11" fill="#ffd7a2" rx="2"><title>2024-12-10: 121 active episodes</title></rect>
  <rect x="716" y="62" width="11" height="11" fill="#ffd9a6" rx="2"><title>2024-12-11: 113 active episodes</title></rect>
  <rect x="716" y="76" width="11" height="11" fill="#ffddaf" rx="2"><title>2024-12-12: 94 active episodes</title></rect>
  <rect x="716" y="90" width="11" height="11" fill="#ffd9a6" rx="2"><title>2024-12-13: 112 active episodes</title></rect>
  <rect x="716" y="104" width="11" height="11" fill="#fef0d9" rx="2"><title>2024-12-14: 2 active episodes</title></rect>
  <rect x="730" y="20" width="11" height="11" fill="#fef0d9" rx="2"><title>2024-12-15: 1 active episode</title></rect>
  <rect x="730" y="34" width="11" height="11" fill="#ffdbaa" rx="2"><title>2024-12-16: 104 active episodes</title></rect>
  <rect x="730" y="48" width="11" height="11" fill="#fed49b" rx="2"><title>2024-12-17: 137 active episodes</title></rect>
  <rect x="730" y="62" width="11" height="11" fill="#fed7a1" rx="2"><title>2024-12-18: 123 active episodes</title></rect>
  <rect x="730" y="76" width="11" height="11" fill="#ffe2ba" rx="2"><title>2024-12-19: 69 active episodes</title></rect>
  <rect x="730" y="90" width="11" height="11" fill="#ffe3bd" rx="2"><title>2024-12-20: 62 active episodes</title></rect>
  <rect x="730" y="104" width="11" height="11" fill="#feefd7" rx="2"><title>2024-12-21: 6 active episodes</title></rect>
  <rect x="744" y="20" width="11" height="11" fill="#feedd4" rx="2"><title>2024-12-22: 13 active episodes</title></rect>
  <rect x="744" y="34" width="11" height="11" fill="#feecd0" rx="2"><title>2024-12-23: 20 active episodes</title></rect>
  <rect x="744" y="48" width="11" height="11" fill="#feedd2" rx="2"><title>2024-12-24: 16 active episodes</title></rect>
  <rect x="744" y="62" width="11" height="11" fill="#fef0d8" rx="2"><title>2024-12-25: 3 active episodes</title></rect>
  <rect x="744" y="76" width="11" height="11" fill="#fef0d8" rx="2"><title>2024-12-26: 3 active episodes</title></rect>
  <rect x="744" y="90" width="11" height="11" fill="#fef0d9" rx="2"><title>2024-12-27: 2 active episodes</title></rect>
  <rect x="744" y="104" width="11" height="11" fill="#161b22" rx="2"><title>2024-12-28: 0 active episodes</title></rect>
  <rect x="758" y="20" width="11" height="11" fill="#feefd6" rx="2"><title>2024-12-29: 7 active episodes</title></rect>
  <rect x="758" y="34" width="11" height="11" fill="#feecd0" rx="2"><title>2024-12-30: 20 active episodes</title></rect>
  <text x="30" y="133" class="title">2024 - 20629 hot water episodes</text>
  <defs>
    <linearGradient id="legend-gradient" x1="0" y1="0" x2="1" y2="0">
      <stop offset="0%" stop-color="#fef0d9"/>
      <stop offset="33.33333333333333%" stop-color="#fdcc8a"/>
      <stop offset="66.66666666666666%" stop-color="#fc8d59"/>
      <stop offset="100%" stop-color="#d7301f"/>
    </linearGradient>
  </defs>
  <text x="560" y="133" class="legend">No data</text>
  <rect x="602" y="123" width="11" height="11" fill="#484f58" rx="2"/>
  <text x="632" y="133" class="legend">Less</text>
  <rect x="662" y="123" width="11" height="11" fill="#161b22" rx="2"/>
  <rect x="676" y="123" width="53" height="11" fill="url(#legend-gradient)" rx="2"/>
  <text x="737" y="133" class="legend">More</text>
</svg>