<svg width="782" height="148" xmlns="http://www.w3.org/2000/svg">
  <style>
    .month { font: 10px sans-serif; fill: #8b949e; }
    .day { font: 10px sans-serif; fill: #8b949e; }
    .title { font: bold 14px sans-serif; fill: #c9d1d9; }
    .legend { font: 10px sans-serif; fill: #8b949e; }
  </style>
  <rect width="100%" height="100%" fill="#0d1117"/>
  <text x="0" y="29" class="day">Mon</text>
  <text x="0" y="57" class="day">Wed</text>
  <text x="0" y="85" class="day">Fri</text>
  <text x="0" y="113" class="day">Sun</text>
  <text x="30" y="15" class="month">Jan</text>
  <text x="100" y="15" class="month">Feb</text>
  <text x="156" y="15" class="month">Mar</text>
  <text x="212" y="15" class="month">Apr</text>
  <text x="282" y="15" class="month">May</text>
  <text x="338" y="15" class="month">Jun</text>
  <text x="394" y="15" class="month">Jul</text>
  <text x="464" y="15" class="month">Aug</text>
  <text x="520" y="15" class="month">Sep</text>
  <text x="576" y="15" class="month">Oct</text>
  <text x="646" y="15" class="month">Nov</text>
  <text x="702" y="15" class="month">Dec</text>
  <rect x="30" y="76" width="11" height="11" fill="#484f58" rx="2"><title>2020-12-31: no data</title></rect>
  <rect x="30" y="90" width="11" height="11" fill="#484f58" rx="2"><title>2021-01-01: no data</title></rect>
  <rect x="30" y="104" width="11" height="11" fill="#484f58" rx="2"><title>2021-01-02: no data</title></rect>
  <rect x="44" y="20" width="11" height="11" fill="#484f58" rx="2"><title>2021-01-03: no data</title></rect>
  <rect x="44" y="34" width="11" height="11" fill="#484f58" rx="2"><title>2021-01-04: no data</title></rect>
  <rect x="44" y="48" width="11" height="11" fill="#484f58" rx="2"><title>2021-01-05: no data</title></rect>
  <rect x="44" y="62" width="11" height="11" fill="#484f58" rx="2"><title>2021-01-06: no data</title></rect>
  <rect x="44" y="76" width="11" height="11" fill="#484f58" rx="2"><title>2021-01-07: no data</title></rect>
  <rect x="44" y="90" width="11" height="11" fill="#484f58" rx="2"><title>2021-01-08: no data</title></rect>
  <rect x="44" y="104" width="11" height="11" fill="#484f58" rx="2"><title>2021-01-09: no data</title></rect>
  <rect x="58" y="20" width="11" height="11" fill="#484f58" rx="2"><title>2021-01-10: no data</title></rect>
  <rect x="58" y="34" width="11" height="11" fill="#484f58" rx="2"><title>2021-01-11: no data</title></rect>
  <rect x="58" y="48" width="11" height="11" fill="#484f58" rx="2"><title>2021-01-12: no data</title></rect>
  <rect x="58" y="62" width="11" height="11" fill="#484f58" rx="2"><title>2021-01-13: no data</title></rect>
  <rect x="58" y="76" width="11" height="11" fill="#484f58" rx="2"><title>2021-01-14: no data</title></rect>
  <rect x="58" y="90" width="11" height="11" fill="#484f58" rx="2"><title>2021-01-15: no data</title></rect>
  <rect x="58" y="104" width="11" height="11" fill="#484f58" rx="2"><title>2021-01-16: no data</title></rect>
  <rect x="72" y="20" width="11" height="11" fill="#484f58" rx="2"><title>2021-01-17: no data</title></rect>
  <rect x="72" y="34" width="11" height="11" fill="#484f58" rx="2"><title>2021-01-18: no data</title></rect>
  <rect x="72" y="48" width="11" height="11" fill="#484f58" rx="2"><title>2021-01-19: no data</title></rect>
  <rect x="72" y="62" width="11" height="11" fill="#484f58" rx="2"><title>2021-01-20: no data</title></rect>
  <rect x="72" y="76" width="11" height="11" fill="#484f58" rx="2"><title>2021-01-21: no data</title></rect>
  <rect x="72" y="90" width="11" height="11" fill="#484f58" rx="2"><title>2021-01-22: no data</title></rect>
  <rect x="72" y="104" width="11" height="11" fill="#484f58" rx="2"><title>2021-01-23: no data</title></rect>
  <rect x="86" y="20" width="11" height="11" fill="#484f58" rx="2"><title>2021-01-24: no data</title></rect>
  <rect x="86" y="34" width="11" height="11" fill="#484f58" rx="2"><title>2021-01-25: no data</title></rect>
  <rect x="86" y="48" width="11" height="11" fill="#484f58" rx="2"><title>2021-01-26: no data</title></rect>
  <rect x="86" y="62" width="11" height="11" fill="#484f58" rx="2"><title>2021-01-27: no data</title></rect>
  <rect x="86" y="76" width="11" height="11" fill="#484f58" rx="2"><title>2021-01-28: no data</title></rect>
  <rect x="86" y="90" width="11" height="11" fill="#484f58" rx="2"><title>2021-01-29: no data</title></rect>
  <rect x="86" y="104" width="11" height="11" fill="#484f58" rx="2"><title>2021-01-30: no data</title></rect>
  <rect x="100" y="20" width="11" height="11" fill="#484f58" rx="2"><title>2021-01-31: no data</title></rect>
  <rect x="100" y="34" width="11" height="11" fill="#484f58" rx="2"><title>2021-02-01: no data</title></rect>
  <rect x="100" y="48" width="11" height="11" fill="#484f58" rx="2"><title>2021-02-02: no data</title></rect>
  <rect x="100" y="62" width="11" height="11" fill="#484f58" rx="2"><title>2021-02-03: no data</title></rect>
  <rect x="100" y="76" width="11" height="11" fill="#484f58" rx="2"><title>2021-02-04: no data</title></rect>
  <rect x="100" y="90" width="11" height="11" fill="#484f58" rx="2"><title>2021-02-05: no data</title></rect>
  <rect x="100" y="104" width="11" height="11" fill="#484f58" rx="2"><title>2021-02-06: no data</title></rect>
  <rect x="114" y="20" width="11" height="11" fill="#484f58" rx="2"><title>2021-02-07: no data</title></rect>
  <rect x="114" y="34" width="11" height="11" fill="#484f58" rx="2"><title>2021-02-08: no data</title></rect>
  <rect x="114" y="48" width="11" height="11" fill="#484f58" rx="2"><title>2021-02-09: no data</title></rect>
  <rect x="114" y="62" width="11" height="11" fill="#484f58" rx="2"><title>2021-02-10: no data</title></rect>
  <rect x="114" y="76" width="11" height="11" fill="#484f58" rx="2"><title>2021-02-11: no data</title></rect>
  <rect x="114" y="90" width="11" height="11" fill="#484f58" rx="2"><title>2021-02-12: no data</title></rect>
  <rect x="114" y="104" width="11" height="11" fill="#484f58" rx="2"><title>2021-02-13: no data</title></rect>
  <rect x="128" y="20" width="11" height="11" fill="#484f58" rx="2"><title>2021-02-14: no data</title></rect>
  <rect x="128" y="34" width="11" height="11" fill="#484f58" rx="2"><title>2021-02-15: no data</title></rect>
  <rect x="128" y="48" width="11" height="11" fill="#484f58" rx="2"><title>2021-02-16: no data</title></rect>
  <rect x="128" y="62" width="11" height="11" fill="#484f58" rx="2"><title>2021-02-17: no data</title></rect>
  <rect x="128" y="76" width="11" height="11" fill="#484f58" rx="2"><title>2021-02-18: no data</title></rect>
  <rect x="128" y="90" width="11" height="11" fill="#484f58" rx="2"><title>2021-02-19: no data</title></rect>
  <rect x="128" y="104" width="11" height="11" fill="#484f58" rx="2"><title>2021-02-20: no data</title></rect>
  <rect x="142" y="20" width="11" height="11" fill="#484f58" rx="2"><title>2021-02-21: no data</title></rect>
  <rect x="142" y="34" width="11" height="11" fill="#484f58" rx="2"><title>2021-02-22: no data</title></rect>
  <rect x="142" y="48" width="11" height="11" fill="#484f58" rx="2"><title>2021-02-23: no data</title></rect>
  <rect x="142" y="62" width="11" height="11" fill="#484f58" rx="2"><title>2021-02-24: no data</title></rect>
  <rect x="142" y="76" width="11" height="11" fill="#484f58" rx="2"><title>2021-02-25: no data</title></rect>
  <rect x="142" y="90" width="11" height="11" fill="#484f58" rx="2"><title>2021-02-26: no data</title></rect>
  <rect x="142" y="104" width="11" height="11" fill="#484f58" rx="2"><title>2021-02-27: no data</title></rect>
  <rect x="156" y="20" width="11" height="11" fill="#484f58" rx="2"><title>2021-02-28: no data</title></rect>
  <rect x="156" y="34" width="11" height="11" fill="#484f58" rx="2"><title>2021-03-01: no data</title></rect>
  <rect x="156" y="48" width="11" height="11" fill="#484f58" rx="2"><title>2021-03-02: no data</title></rect>
  <rect x="156" y="62" width="11" height="11" fill="#484f58" rx="2"><title>2021-03-03: no data</title></rect>
  <rect x="156" y="76" width="11" height="11" fill="#484f58" rx="2"><title>2021-03-04: no data</title></rect>
  <rect x="156" y="90" width="11" height="11" fill="#484f58" rx="2"><title>2021-03-05: no data</title></rect>
  <rect x="156" y="104" width="11" height="11" fill="#484f58" rx="2"><title>2021-03-06: no data</title></rect>
  <rect x="170" y="20" width="11" height="11" fill="#484f58" rx="2"><title>2021-03-07: no data</title></rect>
  <rect x="170" y="34" width="11" height="11" fill="#484f58" rx="2"><title>2021-03-08: no data</title></rect>
  <rect x="170" y="48" width="11" height="11" fill="#484f58" rx="2"><title>2021-03-09: no data</title></rect>
  <rect x="170" y="62" width="11" height="11" fill="#484f58" rx="2"><title>2021-03-10: no data</title></rect>
  <rect x="170" y="76" width="11" height="11" fill="#484f58" rx="2"><title>2021-03-11: no data</title></rect>
  <rect x="170" y="90" width="11" height="11" fill="#484f58" rx="2"><title>2021-03-12: no data</title></rect>
  <rect x="170" y="104" width="11" height="11" fill="#484f58" rx="2"><title>2021-03-13: no data</title></rect>
  <rect x="184" y="20" width="11" height="11" fill="#484f58" rx="2"><title>2021-03-14: no data</title></rect>
  <rect x="184" y="34" width="11" height="11" fill="#484f58" rx="2"><title>2021-03-15: no data</title></rect>
  <rect x="184" y="48" width="11" height="11" fill="#484f58" rx="2"><title>2021-03-16: no data</title></rect>
  <rect x="184" y="62" width="11" height="11" fill="#484f58" rx="2"><title>2021-03-17: no data</title></rect>
  <rect x="184" y="76" width="11" height="11" fill="#484f58" rx="2"><title>2021-03-18: no data</title></rect>
  <rect x="184" y="90" width="11" height="11" fill="#484f58" rx="2"><title>2021-03-19: no data</title></rect>
  <rect x="184" y="104" width="11" height="11" fill="#484f58" rx="2"><title>2021-03-20: no data</title></rect>
  <rect x="198" y="20" width="11" height="11" fill="#484f58" rx="2"><title>2021-03-21: no data</title></rect>
  <rect x="198" y="34" width="11" height="11" fill="#484f58" rx="2"><title>2021-03-22: no data</title></rect>
  <rect x="198" y="48" width="11" height="11" fill="#484f58" rx="2"><title>2021-03-23: no data</title></rect>
  <rect x="198" y="62" width="11" height="11" fill="#484f58" rx="2"><title>2021-03-24: no data</title></rect>
  <rect x="198" y="76" width="11" height="11" fill="#484f58" rx="2"><title>2021-03-25: no data</title></rect>
  <rect x="198" y="90" width="11" height="11" fill="#484f58" rx="2"><title>2021-03-26: no data</title></rect>
  <rect x="198" y="104" width="11" height="11" fill="#484f58" rx="2"><title>2021-03-27: no data</title></rect>
  <rect x="198" y="20" width="11" height="11" fill="#484f58" rx="2"><title>2021-03-28: no data</title></rect>
  <rect x="212" y="34" width="11" height="11" fill="#484f58" rx="2"><title>2021-03-29: no data</title></rect>
  <rect x="212" y="48" width="11" height="11" fill="#484f58" rx="2"><title>2021-03-30: no data</title></rect>
  <rect x="212" y="62" width="11" height="11" fill="#484f58" rx="2"><title>2021-03-31: no data</title></rect>
  <rect x="212" y="76" width="11" height="11" fill="#484f58" rx="2"><title>2021-04-01: no data</title></rect>
  <rect x="212" y="90" width="11" height="11" fill="#484f58" rx="2"><title>2021-04-02: no data</title></rect>
  <rect x="212" y="104" width="11" height="11" fill="#484f58" rx="2"><title>2021-04-03: no data</title></rect>
  <rect x="212" y="20" width="11" height="11" fill="#484f58" rx="2"><title>2021-04-04: no data</title></rect>
  <rect x="226" y="34" width="11" height="11" fill="#484f58" rx="2"><title>2021-04-05: no data</title></rect>
  <rect x="226" y="48" width="11" height="11" fill="#484f58" rx="2"><title>2021-04-06: no data</title></rect>
  <rect x="226" y="62" width="11" height="11" fill="#484f58" rx="2"><title>2021-04-07: no data</title></rect>
  <rect x="226" y="76" width="11" height="11" fill="#484f58" rx="2"><title>2021-04-08: no data</title></rect>
  <rect x="226" y="90" width="11" height="11" fill="#484f58" rx="2"><title>2021-04-09: no data</title></rect>
  <rect x="226" y="104" width="11" height="11" fill="#484f58" rx="2"><title>2021-04-10: no data</title></rect>
  <rect x="226" y="20" width="11" height="11" fill="#484f58" rx="2"><title>2021-04-11: no data</title></rect>
  <rect x="240" y="34" width="11" height="11" fill="#484f58" rx="2"><title>2021-04-12: no data</title></rect>
  <rect x="240" y="48" width="11" height="11" fill="#484f58" rx="2"><title>2021-04-13: no data</title></rect>
  <rect x="240" y="62" width="11" height="11" fill="#484f58" rx="2"><title>2021-04-14: no data</title></rect>
  <rect x="240" y="76" width="11" height="11" fill="#484f58" rx="2"><title>2021-04-15: no data</title></rect>
  <rect x="240" y="90" width="11" height="11" fill="#484f58" rx="2"><title>2021-04-16: no data</title></rect>
  <rect x="240" y="104" width="11" height="11" fill="#484f58" rx="2"><title>2021-04-17: no data</title></rect>
  <rect x="240" y="20" width="11" height="11" fill="#484f58" rx="2"><title>2021-04-18: no data</title></rect>
  <rect x="254" y="34" width="11" height="11" fill="#484f58" rx="2"><title>2021-04-19: no data</title></rect>
  <rect x="254" y="48" width="11" height="11" fill="#484f58" rx="2"><title>2021-04-20: no data</title></rect>
  <rect x="254" y="62" width="11" height="11" fill="#484f58" rx="2"><title>2021-04-21: no data</title></rect>
  <rect x="254" y="76" width="11" height="11" fill="#484f58" rx="2"><title>2021-04-22: no data</title></rect>
  <rect x="254" y="90" width="11" height="11" fill="#484f58" rx="2"><title>2021-04-23: no data</title></rect>
  <rect x="254" y="104" width="11" height="11" fill="#484f58" rx="2"><title>2021-04-24: no data</title></rect>
  <rect x="254" y="20" width="11" height="11" fill="#484f58" rx="2"><title>2021-04-25: no data</title></rect>
  <rect x="268" y="34" width="11" height="11" fill="#484f58" rx="2"><title>2021-04-26: no data</title></rect>
  <rect x="268" y="48" width="11" height="11" fill="#484f58" rx="2"><title>2021-04-27: no data</title></rect>
  <rect x="268" y="62" width="11" height="11" fill="#484f58" rx="2"><title>2021-04-28: no data</title></rect>
  <rect x="268" y="76" width="11" height="11" fill="#484f58" rx="2"><title>2021-04-29: no data</title></rect>
  <rect x="268" y="90" width="11" height="11" fill="#484f58" rx="2"><title>2021-04-30: no data</title></rect>
  <rect x="268" y="104" width="11" height="11" fill="#484f58" rx="2"><title>2021-05-01: no data</title></rect>
  <rect x="268" y="20" width="11" height="11" fill="#484f58" rx="2"><title>2021-05-02: no data</title></rect>
  <rect x="282" y="34" width="11" height="11" fill="#484f58" rx="2"><title>2021-05-03: no data</title></rect>
  <rect x="282" y="48" width="11" height="11" fill="#484f58" rx="2"><title>2021-05-04: no data</title></rect>
  <rect x="282" y="62" width="11" height="11" fill="#484f58" rx="2"><title>2021-05-05: no data</title></rect>
  <rect x="282" y="76" width="11" height="11" fill="#484f58" rx="2"><title>2021-05-06: no data</title></rect>
  <rect x="282" y="90" width="11" height="11" fill="#484f58" rx="2"><title>2021-05-07: no data</title></rect>
  <rect x="282" y="104" width="11" height="11" fill="#484f58" rx="2"><title>2021-05-08: no data</title></rect>
  <rect x="282" y="20" width="11" height="11" fill="#484f58" rx="2"><title>2021-05-09: no data</title></rect>
  <rect x="296" y="34" width="11" height="11" fill="#484f58" rx="2"><title>2021-05-10: no data</title></rect>
  <rect x="296" y="48" width="11" height="11" fill="#484f58" rx="2"><title>2021-05-11: no data</title></rect>
  <rect x="296" y="62" width="11" height="11" fill="#484f58" rx="2"><title>2021-05-12: no data</title></rect>
  <rect x="296" y="76" width="11" height="11" fill="#484f58" rx="2"><title>2021-05-13: no data</title></rect>
  <rect x="296" y="90" width="11" height="11" fill="#484f58" rx="2"><title>2021-05-14: no data</title></rect>
  <rect x="296" y="104" width="11" height="11" fill="#484f58" rx="2"><title>2021-05-15: no data</title></rect>
  <rect x="296" y="20" width="11" height="11" fill="#484f58" rx="2"><title>2021-05-16: no data</title></rect>
  <rect x="310" y="34" width="11" height="11" fill="#484f58" rx="2"><title>2021-05-17: no data</title></rect>
  <rect x="310" y="48" width="11" height="11" fill="#484f58" rx="2"><title>2021-05-18: no data</title></rect>
  <rect x="310" y="62" width="11" height="11" fill="#484f58" rx="2"><title>2021-05-19: no data</title></rect>
  <rect x="310" y="76" width="11" height="11" fill="#484f58" rx="2"><title>2021-05-20: no data</title></rect>
  <rect x="310" y="90" width="11" height="11" fill="#484f58" rx="2"><title>2021-05-21: no data</title></rect>
  <rect x="310" y="104" width="11" height="11" fill="#484f58" rx="2"><title>2021-05-22: no data</title></rect>
  <rect x="310" y="20" width="11" height="11" fill="#484f58" rx="2"><title>2021-05-23: no data</title></rect>
  <rect x="324" y="34" width="11" height="11" fill="#484f58" rx="2"><title>2021-05-24: no data</title></rect>
  <rect x="324" y="48" width="11" height="11" fill="#484f58" rx="2"><title>2021-05-25: no data</title></rect>
  <rect x="324" y="62" width="11" height="11" fill="#484f58" rx="2"><title>2021-05-26: no data</title></rect>
  <rect x="324" y="76" width="11" height="11" fill="#484f58" rx="2"><title>2021-05-27: no data</title></rect>
  <rect x="324" y="90" width="11" height="11" fill="#484f58" rx="2"><title>2021-05-28: no data</title></rect>
  <rect x="324" y="104" width="11" height="11" fill="#484f58" rx="2"><title>2021-05-29: no data</title></rect>
  <rect x="324" y="20" width="11" height="11" fill="#484f58" rx="2"><title>2021-05-30: no data</title></rect>
  <rect x="338" y="34" width="11" height="11" fill="#484f58" rx="2"><title>2021-05-31: no data</title></rect>
  <rect x="338" y="48" width="11" height="11" fill="#484f58" rx="2"><title>2021-06-01: no data</title></rect>
  <rect x="338" y="62" width="11" height="11" fill="#484f58" rx="2"><title>2021-06-02: no data</title></rect>
  <rect x="338" y="76" width="11" height="11" fill="#484f58" rx="2"><title>2021-06-03: no data</title></rect>
  <rect x="338" y="90" width="11" height="11" fill="#484f58" rx="2"><title>2021-06-04: no data</title></rect>
  <rect x="338" y="104" width="11" height="11" fill="#484f58" rx="2"><title>2021-06-05: no data</title></rect>
  <rect x="338" y="20" width="11" height="11" fill="#484f58" rx="2"><title>2021-06-06: no data</title></rect>
  <rect x="352" y="34" width="11" height="11" fill="#484f58" rx="2"><title>2021-06-07: no data</title></rect>
  <rect x="352" y="48" width="11" height="11" fill="#484f58" rx="2"><title>2021-06-08: no data</title></rect>
  <rect x="352" y="62" width="11" height="11" fill="#484f58" rx="2"><title>2021-06-09: no data</title></rect>
  <rect x="352" y="76" width="11" height="11" fill="#484f58" rx="2"><title>2021-06-10: no data</title></rect>
  <rect x="352" y="90" width="11" height="11" fill="#484f58" rx="2"><title>2021-06-11: no data</title></rect>
  <rect x="352" y="104" width="11" height="11" fill="#484f58" rx="2"><title>2021-06-12: no data</title></rect>
  <rect x="352" y="20" width="11" height="11" fill="#484f58" rx="2"><title>2021-06-13: no data</title></rect>
  <rect x="366" y="34" width="11" height="11" fill="#484f58" rx="2"><title>2021-06-14: no data</title></rect>
  <rect x="366" y="48" width="11" height="11" fill="#484f58" rx="2"><title>2021-06-15: no data</title></rect>
  <rect x="366" y="62" width="11" height="11" fill="#484f58" rx="2"><title>2021-06-16: no data</title></rect>
  <rect x="366" y="76" width="11" height="11" fill="#484f58" rx="2"><title>2021-06-17: no data</title></rect>
  <rect x="366" y="90" width="11" height="11" fill="#484f58" rx="2"><title>2021-06-18: no data</title></rect>
  <rect x="366" y="104" width="11" height="11" fill="#484f58" rx="2"><title>2021-06-19: no data</title></rect>
  <rect x="366" y="20" width="11" height="11" fill="#484f58" rx="2"><title>2021-06-20: no data</title></rect>
  <rect x="380" y="34" width="11" height="11" fill="#484f58" rx="2"><title>2021-06-21: no data</title></rect>
  <rect x="380" y="48" width="11" height="11" fill="#484f58" rx="2"><title>2021-06-22: no data</title></rect>
  <rect x="380" y="62" width="11" height="11" fill="#484f58" rx="2"><title>2021-06-23: no data</title></rect>
  <rect x="380" y="76" width="11" height="11" fill="#484f58" rx="2"><title>2021-06-24: no data</title></rect>
  <rect x="380" y="90" width="11" height="11" fill="#484f58" rx="2"><title>2021-06-25: no data</title></rect>
  <rect x="380" y="104" width="11" height="11" fill="#484f58" rx="2"><title>2021-06-26: no data</title></rect>
  <rect x="380" y="20" width="11" height="11" fill="#484f58" rx="2"><title>2021-06-27: no data</title></rect>
  <rect x="394" y="34" width="11" height="11" fill="#484f58" rx="2"><title>2021-06-28: no data</title></rect>
  <rect x="394" y="48" width="11" height="11" fill="#484f58" rx="2"><title>2021-06-29: no data</title></rect>
  <rect x="394" y="62" width="11" height="11" fill="#484f58" rx="2"><title>2021-06-30: no data</title></rect>
  <rect x="394" y="76" width="11" height="11" fill="#484f58" rx="2"><title>2021-07-01: no data</title></rect>
  <rect x="394" y="90" width="11" height="11" fill="#484f58" rx="2"><title>2021-07-02: no data</title></rect>
  <rect x="394" y="104" width="11" height="11" fill="#484f58" rx="2"><title>2021-07-03: no data</title></rect>
  <rect x="394" y="20" width="11" height="11" fill="#484f58" rx="2"><title>2021-07-04: no data</title></rect>
  <rect x="408" y="34" width="11" height="11" fill="#484f58" rx="2"><title>2021-07-05: no data</title></rect>
  <rect x="408" y="48" width="11" height="11" fill="#484f58" rx="2"><title>2021-07-06: no data</title></rect>
  <rect x="408" y="62" width="11" height="11" fill="#484f58" rx="2"><title>2021-07-07: no data</title></rect>
  <rect x="408" y="76" width="11" height="11" fill="#484f58" rx="2"><title>2021-07-08: no data</title></rect>
  <rect x="408" y="90" width="11" height="11" fill="#484f58" rx="2"><title>2021-07-09: no data</title></rect>
  <rect x="408" y="104" width="11" height="11" fill="#484f58" rx="2"><title>2021-07-10: no data</title></rect>
  <rect x="408" y="20" width="11" height="11" fill="#484f58" rx="2"><title>2021-07-11: no data</title></rect>
  <rect x="422" y="34" width="11" height="11" fill="#484f58" rx="2"><title>2021-07-12: no data</title></rect>
  <rect x="422" y="48" width="11" height="11" fill="#484f58" rx="2"><title>2021-07-13: no data</title></rect>
  <rect x="422" y="62" width="11" height="11" fill="#484f58" rx="2"><title>2021-07-14: no data</title></rect>
  <rect x="422" y="76" width="11" height="11" fill="#484f58" rx="2"><title>2021-07-15: no data</title></rect>
  <rect x="422" y="90" width="11" height="11" fill="#484f58" rx="2"><title>2021-07-16: no data</title></rect>
  <rect x="422" y="104" width="11" height="11" fill="#484f58" rx="2"><title>2021-07-17: no data</title></rect>
  <rect x="422" y="20" width="11" height="11" fill="#484f58" rx="2"><title>2021-07-18: no data</title></rect>
  <rect x="436" y="34" width="11" height="11" fill="#484f58" rx="2"><title>2021-07-19: no data</title></rect>
  <rect x="436" y="48" width="11" height="11" fill="#484f58" rx="2"><title>2021-07-20: no data</title></rect>
  <rect x="436" y="62" width="11" height="11" fill="#484f58" rx="2"><title>2021-07-21: no data</title></rect>
  <rect x="436" y="76" width="11" height="11" fill="#484f58" rx="2"><title>2021-07-22: no data</title></rect>
  <rect x="436" y="90" width="11" height="11" fill="#484f58" rx="2"><title>2021-07-23: no data</title></rect>
  <rect x="436" y="104" width="11" height="11" fill="#484f58" rx="2"><title>2021-07-24: no data</title></rect>
  <rect x="436" y="20" width="11" height="11" fill="#484f58" rx="2"><title>2021-07-25: no data</title></rect>
  <rect x="450" y="34" width="11" height="11" fill="#484f58" rx="2"><title>2021-07-26: no data</title></rect>
  <rect x="450" y="48" width="11" height="11" fill="#484f58" rx="2"><title>2021-07-27: no data</title></rect>
  <rect x="450" y="62" width="11" height="11" fill="#484f58" rx="2"><title>2021-07-28: no data</title></rect>
  <rect x="450" y="76" width="11" height="11" fill="#484f58" rx="2"><title>2021-07-29: no data</title></rect>
  <rect x="450" y="90" width="11" height="11" fill="#484f58" rx="2"><title>2021-07-30: no data</title></rect>
  <rect x="450" y="104" width="11" height="11" fill="#484f58" rx="2"><title>2021-07-31: no data</title></rect>
  <rect x="450" y="20" width="11" height="11" fill="#484f58" rx="2"><title>2021-08-01: no data</title></rect>
  <rect x="464" y="34" width="11" height="11" fill="#484f58" rx="2"><title>2021-08-02: no data</title></rect>
  <rect x="464" y="48" width="11" height="11" fill="#484f58" rx="2"><title>2021-08-03: no data</title></rect>
  <rect x="464" y="62" width="11" height="11" fill="#484f58" rx="2"><title>2021-08-04: no data</title></rect>
  <rect x="464" y="76" width="11" height="11" fill="#484f58" rx="2"><title>2021-08-05: no data</title></rect>
  <rect x="464" y="90" width="11" height="11" fill="#484f58" rx="2"><title>2021-08-06: no data</title></rect>
  <rect x="464" y="104" width="11" height="11" fill="#484f58" rx="2"><title>2021-08-07: no data</title></rect>
  <rect x="464" y="20" width="11" height="11" fill="#484f58" rx="2"><title>2021-08-08: no data</title></rect>
  <rect x="478" y="34" width="11" height="11" fill="#484f58" rx="2"><title>2021-08-09: no data</title></rect>
  <rect x="478" y="48" width="11" height="11" fill="#484f58" rx="2"><title>2021-08-10: no data</title></rect>
  <rect x="478" y="62" width="11" height="11" fill="#484f58" rx="2"><title>2021-08-11: no data</title></rect>
  <rect x="478" y="76" width="11" height="11" fill="#484f58" rx="2"><title>2021-08-12: no data</title></rect>
  <rect x="478" y="90" width="11" height="11" fill="#484f58" rx="2"><title>2021-08-13: no data</title></rect>
  <rect x="478" y="104" width="11" height="11" fill="#484f58" rx="2"><title>2021-08-14: no data</title></rect>
  <rect x="478" y="20" width="11" height="11" fill="#484f58" rx="2"><title>2021-08-15: no data</title></rect>
  <rect x="492" y="34" width="11" height="11" fill="#484f58" rx="2"><title>2021-08-16: no data</title></rect>
  <rect x="492" y="48" width="11" height="11" fill="#484f58" rx="2"><title>2021-08-17: no data</title></rect>
  <rect x="492" y="62" width="11" height="11" fill="#484f58" rx="2"><title>2021-08-18: no data</title></rect>
  <rect x="492" y="76" width="11" height="11" fill="#484f58" rx="2"><title>2021-08-19: no data</title></rect>
  <rect x="492" y="90" width="11" height="11" fill="#484f58" rx="2"><title>2021-08-20: no data</title></rect>
  <rect x="492" y="104" width="11" height="11" fill="#484f58" rx="2"><title>2021-08-21: no data</title></rect>
  <rect x="492" y="20" width="11" height="11" fill="#484f58" rx="2"><title>2021-08-22: no data</title></rect>
  <rect x="506" y="34" width="11" height="11" fill="#484f58" rx="2"><title>2021-08-23: no data</title></rect>
  <rect x="506" y="48" width="11" height="11" fill="#484f58" rx="2"><title>2021-08-24: no data</title></rect>
  <rect x="506" y="62" width="11" height="11" fill="#484f58" rx="2"><title>2021-08-25: no data</title></rect>
  <rect x="506" y="76" width="11" height="11" fill="#484f58" rx="2"><title>2021-08-26: no data</title></rect>
  <rect x="506" y="90" width="11" height="11" fill="#484f58" rx="2"><title>2021-08-27: no data</title></rect>
  <rect x="506" y="104" width="11" height="11" fill="#484f58" rx="2"><title>2021-08-28: no data</title></rect>
  <rect x="506" y="20" width="11" height="11" fill="#484f58" rx="2"><title>2021-08-29: no data</title></rect>
  <rect x="520" y="34" width="11" height="11" fill="#484f58" rx="2"><title>2021-08-30: no data</title></rect>
  <rect x="520" y="48" width="11" height="11" fill="#484f58" rx="2"><title>2021-08-31: no data</title></rect>
  <rect x="520" y="62" width="11" height="11" fill="#484f58" rx="2"><title>2021-09-01: no data</title></rect>
  <rect x="520" y="76" width="11" height="11" fill="#484f58" rx="2"><title>2021-09-02: no data</title></rect>
  <rect x="520" y="90" width="11" height="11" fill="#484f58" rx="2"><title>2021-09-03: no data</title></rect>
  <rect x="520" y="104" width="11" height="11" fill="#484f58" rx="2"><title>2021-09-04: no data</title></rect>
  <rect x="520" y="20" width="11" height="11" fill="#484f58" rx="2"><title>2021-09-05: no data</title></rect>
  <rect x="534" y="34" width="11" height="11" fill="#484f58" rx="2"><title>2021-09-06: no data</title></rect>
  <rect x="534" y="48" width="11" height="11" fill="#484f58" rx="2"><title>2021-09-07: no data</title></rect>
  <rect x="534" y="62" width="11" height="11" fill="#484f58" rx="2"><title>2021-09-08: no data</title></rect>
  <rect x="534" y="76" width="11" height="11" fill="#484f58" rx="2"><title>2021-09-09: no data</title></rect>
  <rect x="534" y="90" width="11" height="11" fill="#484f58" rx="2"><title>2021-09-10: no data</title></rect>
  <rect x="534" y="104" width="11" height="11" fill="#484f58" rx="2"><title>2021-09-11: no data</title></rect>
  <rect x="534" y="20" width="11" height="11" fill="#484f58" rx="2"><title>2021-09-12: no data</title></rect>
  <rect x="548" y="34" width="11" height="11" fill="#484f58" rx="2"><title>2021-09-13: no data</title></rect>
  <rect x="548" y="48" width="11" height="11" fill="#484f58" rx="2"><title>2021-09-14: no data</title></rect>
  <rect x="548" y="62" width="11" height="11" fill="#484f58" rx="2"><title>2021-09-15: no data</title></rect>
  <rect x="548" y="76" width="11" height="11" fill="#484f58" rx="2"><title>2021-09-16: no data</title></rect>
  <rect x="548" y="90" width="11" height="11" fill="#484f58" rx="2"><title>2021-09-17: no data</title></rect>
  <rect x="548" y="104" width="11" height="11" fill="#484f58" rx="2"><title>2021-09-18: no data</title></rect>
  <rect x="548" y="20" width="11" height="11" fill="#484f58" rx="2"><title>2021-09-19: no data</title></rect>
  <rect x="562" y="34" width="11" height="11" fill="#484f58" rx="2"><title>2021-09-20: no data</title></rect>
  <rect x="562" y="48" width="11" height="11" fill="#484f58" rx="2"><title>2021-09-21: no data</title></rect>
  <rect x="562" y="62" width="11" height="11" fill="#484f58" rx="2"><title>2021-09-22: no data</title></rect>
  <rect x="562" y="76" width="11" height="11" fill="#484f58" rx="2"><title>2021-09-23: no data</title></rect>
  <rect x="562" y="90" width="11" height="11" fill="#484f58" rx="2"><title>2021-09-24: no data</title></rect>
  <rect x="562" y="104" width="11" height="11" fill="#484f58" rx="2"><title>2021-09-25: no data</title></rect>
  <rect x="562" y="20" width="11" height="11" fill="#484f58" rx="2"><title>2021-09-26: no data</title></rect>
  <rect x="576" y="34" width="11" height="11" fill="#484f58" rx="2"><title>2021-09-27: no data</title></rect>
  <rect x="576" y="48" width="11" height="11" fill="#484f58" rx="2"><title>2021-09-28: no data</title></rect>
  <rect x="576" y="62" width="11" height="11" fill="#484f58" rx="2"><title>2021-09-29: no data</title></rect>
  <rect x="576" y="76" width="11" height="11" fill="#484f58" rx="2"><title>2021-09-30: no data</title></rect>
  <rect x="576" y="90" width="11" height="11" fill="#484f58" rx="2"><title>2021-10-01: no data</title></rect>
  <rect x="576" y="104" width="11" height="11" fill="#484f58" rx="2"><title>2021-10-02: no data</title></rect>
  <rect x="576" y="20" width="11" height="11" fill="#484f58" rx="2"><title>2021-10-03: no data</title></rect>
  <rect x="590" y="34" width="11" height="11" fill="#484f58" rx="2"><title>2021-10-04: no data</title></rect>
  <rect x="590" y="48" width="11" height="11" fill="#484f58" rx="2"><title>2021-10-05: no data</title></rect>
  <rect x="590" y="62" width="11" height="11" fill="#484f58" rx="2"><title>2021-10-06: no data</title></rect>
  <rect x="590" y="76" width="11" height="11" fill="#484f58" rx="2"><title>2021-10-07: no data</title></rect>
  <rect x="590" y="90" width="11" height="11" fill="#484f58" rx="2"><title>2021-10-08: no data</title></rect>
  <rect x="590" y="104" width="11" height="11" fill="#484f58" rx="2"><title>2021-10-09: no data</title></rect>
  <rect x="590" y="20" width="11" height="11" fill="#484f58" rx="2"><title>2021-10-10: no data</title></rect>
  <rect x="604" y="34" width="11" height="11" fill="#484f58" rx="2"><title>2021-10-11: no data</title></rect>
  <rect x="604" y="48" width="11" height="11" fill="#484f58" rx="2"><title>2021-10-12: no data</title></rect>
  <rect x="604" y="62" width="11" height="11" fill="#484f58" rx="2"><title>2021-10-13: no data</title></rect>
  <rect x="604" y="76" width="11" height="11" fill="#484f58" rx="2"><title>2021-10-14: no data</title></rect>
  <rect x="604" y="90" width="11" height="11" fill="#484f58" rx="2"><title>2021-10-15: no data</title></rect>
  <rect x="604" y="104" width="11" height="11" fill="#484f58" rx="2"><title>2021-10-16: no data</title></rect>
  <rect x="604" y="20" width="11" height="11" fill="#484f58" rx="2"><title>2021-10-17: no data</title></rect>
  <rect x="618" y="34" width="11" height="11" fill="#484f58" rx="2"><title>2021-10-18: no data</title></rect>
  <rect x="618" y="48" width="11" height="11" fill="#484f58" rx="2"><title>2021-10-19: no data</title></rect>
  <rect x="618" y="62" width="11" height="11" fill="#484f58" rx="2"><title>2021-10-20: no data</title></rect>
  <rect x="618" y="76" width="11" height="11" fill="#484f58" rx="2"><title>2021-10-21: no data</title></rect>
  <rect x="618" y="90" width="11" height="11" fill="#484f58" rx="2"><title>2021-10-22: no data</title></rect>
  <rect x="618" y="104" width="11" height="11" fill="#484f58" rx="2"><title>2021-10-23: no data</title></rect>
  <rect x="618" y="20" width="11" height="11" fill="#484f58" rx="2"><title>2021-10-24: no data</title></rect>
  <rect x="632" y="34" width="11" height="11" fill="#484f58" rx="2"><title>2021-10-25: no data</title></rect>
  <rect x="632" y="48" width="11" height="11" fill="#484f58" rx="2"><title>2021-10-26: no data</title></rect>
  <rect x="632" y="62" width="11" height="11" fill="#484f58" rx="2"><title>2021-10-27: no data</title></rect>
  <rect x="632" y="76" width="11" height="11" fill="#484f58" rx="2"><title>2021-10-28: no data</title></rect>
  <rect x="632" y="90" width="11" height="11" fill="#484f58" rx="2"><title>2021-10-29: no data</title></rect>
  <rect x="632" y="104" width="11" height="11" fill="#484f58" rx="2"><title>2021-10-30: no data</title></rect>
  <rect x="646" y="20" width="11" height="11" fill="#484f58" rx="2"><title>2021-10-31: no data</title></rect>
  <rect x="646" y="34" width="11" height="11" fill="#484f58" rx="2"><title>2021-11-01: no data</title></rect>
  <rect x="646" y="48" width="11" height="11" fill="#484f58" rx="2"><title>2021-11-02: no data</title></rect>
  <rect x="646" y="62" width="11" height="11" fill="#484f58" rx="2"><title>2021-11-03: no data</title></rect>
  <rect x="646" y="76" width="11" height="11" fill="#484f58" rx="2"><title>2021-11-04: no data</title></rect>
  <rect x="646" y="90" width="11" height="11" fill="#484f58" rx="2"><title>2021-11-05: no data</title></rect>
  <rect x="646" y="104" width="11" height="11" fill="#484f58" rx="2"><title>2021-11-06: no data</title></rect>
  <rect x="660" y="20" width="11" height="11" fill="#484f58" rx="2"><title>2021-11-07: no data</title></rect>
  <rect x="660" y="34" width="11" height="11" fill="#484f58" rx="2"><title>2021-11-08: no data</title></rect>
  <rect x="660" y="48" width="11" height="11" fill="#484f58" rx="2"><title>2021-11-09: no data</title></rect>
  <rect x="660" y="62" width="11" height="11" fill="#484f58" rx="2"><title>2021-11-10: no data</title></rect>
  <rect x="660" y="76" width="11" height="11" fill="#484f58" rx="2"><title>2021-11-11: no data</title></rect>
  <rect x="660" y="90" width="11" height="11" fill="#484f58" rx="2"><title>2021-11-12: no data</title></rect>
  <rect x="660" y="104" width="11" height="11" fill="#484f58" rx="2"><title>2021-11-13: no data</title></rect>
  <rect x="674" y="20" width="11" height="11" fill="#484f58" rx="2"><title>2021-11-14: no data</title></rect>
  <rect x="674" y="34" width="11" height="11" fill="#484f58" rx="2"><title>2021-11-15: no data</title></rect>
  <rect x="674" y="48" width="11" height="11" fill="#484f58" rx="2"><title>2021-11-16: no data</title></rect>
  <rect x="674" y="62" width="11" height="11" fill="#484f58" rx="2"><title>2021-11-17: no data</title></rect>
  <rect x="674" y="76" width="11" height="11" fill="#484f58" rx="2"><title>2021-11-18: no data</title></rect>
  <rect x="674" y="90" width="11" height="11" fill="#484f58" rx="2"><title>2021-11-19: no data</title></rect>
  <rect x="674" y="104" width="11" height="11" fill="#484f58" rx="2"><title>2021-11-20: no data</title></rect>
  <rect x="688" y="20" width="11" height="11" fill="#484f58" rx="2"><title>2021-11-21: no data</title></rect>
  <rect x="688" y="34" width="11" height="11" fill="#484f58" rx="2"><title>2021-11-22: no data</title></rect>
  <rect x="688" y="48" width="11" height="11" fill="#484f58" rx="2"><title>2021-11-23: no data</title></rect>
  <rect x="688" y="62" width="11" height="11" fill="#484f58" rx="2"><title>2021-11-24: no data</title></rect>
  <rect x="688" y="76" width="11" height="11" fill="#484f58" rx="2"><title>2021-11-25: no data</title></rect>
  <rect x="688" y="90" width="11" height="11" fill="#484f58" rx="2"><title>2021-11-26: no data</title></rect>
  <rect x="688" y="104" width="11" height="11" fill="#484f58" rx="2"><title>2021-11-27: no data</title></rect>
  <rect x="702" y="20" width="11" height="11" fill="#484f58" rx="2"><title>2021-11-28: no data</title></rect>
  <rect x="702" y="34" width="11" height="11" fill="#484f58" rx="2"><title>2021-11-29: no data</title></rect>
  <rect x="702" y="48" width="11" height="11" fill="#484f58" rx="2"><title>2021-11-30: no data</title></rect>
  <rect x="702" y="62" width="11" height="11" fill="#484f58" rx="2"><title>2021-12-01: no data</title></rect>
  <rect x="702" y="76" width="11" height="11" fill="#484f58" rx="2"><title>2021-12-02: no data</title></rect>
  <rect x="702" y="90" width="11" height="11" fill="#484f58" rx="2"><title>2021-12-03: no data</title></rect>
  <rect x="702" y="104" width="11" height="11" fill="#484f58" rx="2"><title>2021-12-04: no data</title></rect>
  <rect x="716" y="20" width="11" height="11" fill="#484f58" rx="2"><title>2021-12-05: no data</title></rect>
  <rect x="716" y="34" width="11" height="11" fill="#484f58" rx="2"><title>2021-12-06: no data</title></rect>
  <rect x="716" y="48" width="11" height="11" fill="#484f58" rx="2"><title>2021-12-07: no data</title></rect>
  <rect x="716" y="62" width="11" height="11" fill="#484f58" rx="2"><title>2021-12-08: no data</title></rect>
  <rect x="716" y="76" width="11" height="11" fill="#484f58" rx="2"><title>2021-12-09: no data</title></rect>
  <rect x="716" y="90" width="11" height="11" fill="#484f58" rx="2"><title>2021-12-10: no data</title></rect>
  <rect x="716" y="104" width="11" height="11" fill="#484f58" rx="2"><title>2021-12-11: no data</title></rect>
  <rect x="730" y="20" width="11" height="11" fill="#484f58" rx="2"><title>2021-12-12: no data</title></rect>
  <rect x="730" y="34" width="11" height="11" fill="#484f58" rx="2"><title>2021-12-13: no data</title></rect>
  <rect x="730" y="48" width="11" height="11" fill="#484f58" rx="2"><title>2021-12-14: no data</title></rect>
  <rect x="730" y="62" width="11" height="11" fill="#484f58" rx="2"><title>2021-12-15: no data</title></rect>
  <rect x="730" y="76" width="11" height="11" fill="#484f58" rx="2"><title>2021-12-16: no data</title></rect>
  <rect x="730" y="90" width="11" height="11" fill="#484f58" rx="2"><title>2021-12-17: no data</title></rect>
  <rect x="730" y="104" width="11" height="11" fill="#484f58" rx="2"><title>2021-12-18: no data</title></rect>
  <rect x="744" y="20" width="11" height="11" fill="#feefd7" rx="2"><title>2021-12-19: 5 active episodes</title></rect>
  <rect x="744" y="34" width="11" height="11" fill="#fed7a2" rx="2"><title>2021-12-20: 122 active episodes</title></rect>
  <rect x="744" y="48" width="11" height="11" fill="#ffdeb1" rx="2"><title>2021-12-21: 88 active episodes</title></rect>
  <rect x="744" y="62" width="11" height="11" fill="#ffe0b7" rx="2"><title>2021-12-22: 76 active episodes</title></rect>
  <rect x="744" y="76" width="11" height="11" fill="#ffe2bb" rx="2"><title>2021-12-23: 67 active episodes</title></rect>
  <rect x="744" y="90" width="11" height="11" fill="#ffdfb3" rx="2"><title>2021-12-24: 84 active episodes</title></rect>
  <rect x="744" y="104" width="11" height="11" fill="#feeed5" rx="2"><title>2021-12-25: 9 active episodes</title></rect>
  <rect x="758" y="20" width="11" height="11" fill="#fef0d8" rx="2"><title>2021-12-26: 3 active episodes</title></rect>
  <rect x="758" y="34" width="11" height="11" fill="#ffe2bb" rx="2"><title>2021-12-27: 66 active episodes</title></rect>
  <rect x="758" y="48" width="11" height="11" fill="#ffdeb1" rx="2"><title>2021-12-28: 89 active episodes</title></rect>
  <rect x="758" y="62" width="11" height="11" fill="#ffdfb4" rx="2"><title>2021-12-29: 82 active episodes</title></rect>
  <rect x="758" y="76" width="11" height="11" fill="#ffe2ba" rx="2"><title>2021-12-30: 68 active episodes</title></rect>
  <text x="30" y="133" class="title">2021 - 619 hot water episodes</text>
  <defs>
    <linearGradient id="legend-gradient" x1="0" y1="0" x2="1" y2="0">
      <stop offset="0%" stop-color="#fef0d9"/>
      <stop offset="33.33333333333333%" stop-color="#fdcc8a"/>
      <stop offset="66.66666666666666%" stop-color="#fc8d59"/>
      <stop offset="100%" stop-color="#d7301f"/>
    </linearGradient>
  </defs>
  <text x="560" y="133" class="legend">No data</text>
  <rect x="602" y="123" width="11" height="11" fill="#484f58" rx="2"/>
  <text x="632" y="133" class="legend">Less</text>
  <rect x="662" y="123" width="11" height="11" fill="#161b22" rx="2"/>
  <rect x="676" y="123" width="53" height="11" fill="url(#legend-gradient)" rx="2"/>
  <text x="737" y="133" class="legend">More</text>
</svg>