<svg width="782" height="148" xmlns="http://www.w3.org/2000/svg">
  <style>
    .month { font: 10px sans-serif; fill: #8b949e; }
    .day { font: 10px sans-serif; fill: #8b949e; }
    .title { font: bold 14px sans-serif; fill: #c9d1d9; }
    .legend { font: 10px sans-serif; fill: #8b949e; }
  </style>
  <rect width="100%" height="100%" fill="#0d1117"/>
  <text x="0" y="29" class="day">Mon</text>
  <text x="0" y="57" class="day">Wed</text>
  <text x="0" y="85" class="day">Fri</text>
  <text x="0" y="113" class="day">Sun</text>
  <text x="30" y="15" class="month">Jan</text>
  <text x="100" y="15" class="month">Feb</text>
  <text x="156" y="15" class="month">Mar</text>
  <text x="212" y="15" class="month">Apr</text>
  <text x="282" y="15" class="month">May</text>
  <text x="338" y="15" class="month">Jun</text>
  <text x="394" y="15" class="month">Jul</text>
  <text x="464" y="15" class="month">Aug</text>
  <text x="520" y="15" class="month">Sep</text>
  <text x="576" y="15" class="month">Oct</text>
  <text x="646" y="15" class="month">Nov</text>
  <text x="702" y="15" class="month">Dec</text>
  <rect x="30" y="90" width="11" height="11" fill="#ffe5c1" rx="2"><title>2021-12-31: 54 active episodes</title></rect>
  <rect x="30" y="104" width="11" height="11" fill="#feedd4" rx="2"><title>2022-01-01: 13 active episodes</title></rect>
  <rect x="44" y="20" width="11" height="11" fill="#feecd1" rx="2"><title>2022-01-02: 19 active episodes</title></rect>
  <rect x="44" y="34" width="11" height="11" fill="#fed39a" rx="2"><title>2022-01-03: 140 active episodes</title></rect>
  <rect x="44" y="48" width="11" height="11" fill="#feb97a" rx="2"><title>2022-01-04: 229 active episodes</title></rect>
  <rect x="44" y="62" width="11" height="11" fill="#feba7c" rx="2"><title>2022-01-05: 225 active episodes</title></rect>
  <rect x="44" y="76" width="11" height="11" fill="#fdc685" rx="2"><title>2022-01-06: 191 active episodes</title></rect>
  <rect x="44" y="90" width="11" height="11" fill="#ffd8a6" rx="2"><title>2022-01-07: 114 active episodes</title></rect>
  <rect x="44" y="104" width="11" height="11" fill="#ffe1b8" rx="2"><title>2022-01-08: 73 active episodes</title></rect>
  <rect x="58" y="20" width="11" height="11" fill="#ffe9c9" rx="2"><title>2022-01-09: 35 active episodes</title></rect>
  <rect x="58" y="34" width="11" height="11" fill="#ffddaf" rx="2"><title>2022-01-10: 94 active episodes</title></rect>
  <rect x="58" y="48" width="11" height="11" fill="#ffd7a3" rx="2"><title>2022-01-11: 119 active episodes</title></rect>
  <rect x="58" y="62" width="11" height="11" fill="#ffe2ba" rx="2"><title>2022-01-12: 69 active episodes</title></rect>
  <rect x="58" y="76" width="11" height="11" fill="#ffe7c4" rx="2"><title>2022-01-13: 46 active episodes</title></rect>
  <rect x="58" y="90" width="11" height="11" fill="#ffe9ca" rx="2"><title>2022-01-14: 34 active episodes</title></rect>
  <rect x="58" y="104" width="11" height="11" fill="#ffebce" rx="2"><title>2022-01-15: 25 active episodes</title></rect>
  <rect x="72" y="20" width="11" height="11" fill="#ffe7c5" rx="2"><title>2022-01-16: 45 active episodes</title></rect>
  <rect x="72" y="34" width="11" height="11" fill="#ffdeb3" rx="2"><title>2022-01-17: 85 active episodes</title></rect>
  <rect x="72" y="48" width="11" height="11" fill="#ffdeb3" rx="2"><title>2022-01-18: 85 active episodes</title></rect>
  <rect x="72" y="62" width="11" height="11" fill="#ffe8c7" rx="2"><title>2022-01-19: 40 active episodes</title></rect>
  <rect x="72" y="76" width="11" height="11" fill="#ffe0b7" rx="2"><title>2022-01-20: 76 active episodes</title></rect>
  <rect x="72" y="90" width="11" height="11" fill="#ffdeb1" rx="2"><title>2022-01-21: 89 active episodes</title></rect>
  <rect x="72" y="104" width="11" height="11" fill="#ffe7c4" rx="2"><title>2022-01-22: 46 active episodes</title></rect>
  <rect x="86" y="20" width="11" height="11" fill="#feecd0" rx="2"><title>2022-01-23: 21 active episodes</title></rect>
  <rect x="86" y="34" width="11" height="11" fill="#feedd3" rx="2"><title>2022-01-24: 15 active episodes</title></rect>
  <rect x="86" y="48" width="11" height="11" fill="#ffe9c9" rx="2"><title>2022-01-25: 36 active episodes</title></rect>
  <rect x="86" y="62" width="11" height="11" fill="#ffe6c4" rx="2"><title>2022-01-26: 47 active episodes</title></rect>
  <rect x="86" y="76" width="11" height="11" fill="#ffe2bb" rx="2"><title>2022-01-27: 67 active episodes</title></rect>
  <rect x="86" y="90" width="11" height="11" fill="#ffe1b9" rx="2"><title>2022-01-28: 71 active episodes</title></rect>
  <rect x="86" y="104" width="11" height="11" fill="#feeed5" rx="2"><title>2022-01-29: 9 active episodes</title></rect>
  <rect x="100" y="20" width="11" height="11" fill="#feecd0" rx="2"><title>2022-01-30: 20 active episodes</title></rect>
  <rect x="100" y="34" width="11" height="11" fill="#ffddb0" rx="2"><title>2022-01-31: 90 active episodes</title></rect>
  <rect x="100" y="48" width="11" height="11" fill="#ffdfb3" rx="2"><title>2022-02-01: 84 active episodes</title></rect>
  <rect x="100" y="62" width="11" height="11" fill="#ffdeb1" rx="2"><title>2022-02-02: 89 active episodes</title></rect>
  <rect x="100" y="76" width="11" height="11" fill="#ffe0b5" rx="2"><title>2022-02-03: 79 active episodes</title></rect>
  <rect x="100" y="90" width="11" height="11" fill="#ffe9c9" rx="2"><title>2022-02-04: 35 active episodes</title></rect>
  <rect x="100" y="104" width="11" height="11" fill="#feedd3" rx="2"><title>2022-02-05: 15 active episodes</title></rect>
  <rect x="114" y="20" width="11" height="11" fill="#feb87a" rx="2"><title>2022-02-06: 231 active episodes</title></rect>
  <rect x="114" y="34" width="11" height="11" fill="#feba7c" rx="2"><title>2022-02-07: 225 active episodes</title></rect>
  <rect x="114" y="48" width="11" height="11" fill="#fec080" rx="2"><title>2022-02-08: 210 active episodes</title></rect>
  <rect x="114" y="62" width="11" height="11" fill="#fed296" rx="2"><title>2022-02-09: 148 active episodes</title></rect>
  <rect x="114" y="76" width="11" height="11" fill="#ffe1b8" rx="2"><title>2022-02-10: 73 active episodes</title></rect>
  <rect x="114" y="90" width="11" height="11" fill="#ffe8c8" rx="2"><title>2022-02-11: 38 active episodes</title></rect>
  <rect x="114" y="104" width="11" height="11" fill="#feedd2" rx="2"><title>2022-02-12: 16 active episodes</title></rect>
  <rect x="128" y="20" width="11" height="11" fill="#feedd3" rx="2"><title>2022-02-13: 14 active episodes</title></rect>
  <rect x="128" y="34" width="11" height="11" fill="#ffe7c4" rx="2"><title>2022-02-14: 46 active episodes</title></rect>
  <rect x="128" y="48" width="11" height="11" fill="#fed49c" rx="2"><title>2022-02-15: 135 active episodes</title></rect>
  <rect x="128" y="62" width="11" height="11" fill="#fed49c" rx="2"><title>2022-02-16: 135 active episodes</title></rect>
  <rect x="128" y="76" width="11" height="11" fill="#fed298" rx="2"><title>2022-02-17: 144 active episodes</title></rect>
  <rect x="128" y="90" width="11" height="11" fill="#ffe1b8" rx="2"><title>2022-02-18: 74 active episodes</title></rect>
  <rect x="128" y="104" width="11" height="11" fill="#ffdbab" rx="2"><title>2022-02-19: 103 active episodes</title></rect>
  <rect x="142" y="20" width="11" height="11" fill="#feefd8" rx="2"><title>2022-02-20: 4 active episodes</title></rect>
  <rect x="142" y="34" width="11" height="11" fill="#fed195" rx="2"><title>2022-02-21: 151 active episodes</title></rect>
  <rect x="142" y="48" width="11" height="11" fill="#fdc887" rx="2"><title>2022-02-22: 185 active episodes</title></rect>
  <rect x="142" y="62" width="11" height="11" fill="#fed398" rx="2"><title>2022-02-23: 143 active episodes</title></rect>
  <rect x="142" y="76" width="11" height="11" fill="#fdca88" rx="2"><title>2022-02-24: 182 active episodes</title></rect>
  <rect x="142" y="90" width="11" height="11" fill="#fec181" rx="2"><title>2022-02-25: 206 active episodes</title></rect>
  <rect x="142" y="104" width="11" height="11" fill="#fed093" rx="2"><title>2022-02-26: 156 active episodes</title></rect>
  <rect x="156" y="20" width="11" height="11" fill="#fed194" rx="2"><title>2022-02-27: 152 active episodes</title></rect>
  <rect x="156" y="34" width="11" height="11" fill="#fed6a1" rx="2"><title>2022-02-28: 124 active episodes</title></rect>
  <rect x="156" y="48" width="11" height="11" fill="#ffe6c3" rx="2"><title>2022-03-01: 49 active episodes</title></rect>
  <rect x="156" y="62" width="11" height="11" fill="#ffe2bb" rx="2"><title>2022-03-02: 66 active episodes</title></rect>
  <rect x="156" y="76" width="11" height="11" fill="#ffe1b9" rx="2"><title>2022-03-03: 72 active episodes</title></rect>
  <rect x="156" y="90" width="11" height="11" fill="#ffe2ba" rx="2"><title>2022-03-04: 69 active episodes</title></rect>
  <rect x="156" y="104" width="11" height="11" fill="#ffe7c5" rx="2"><title>2022-03-05: 44 active episodes</title></rect>
  <rect x="170" y="20" width="11" height="11" fill="#ffddaf" rx="2"><title>2022-03-06: 94 active episodes</title></rect>
  <rect x="170" y="34" width="11" height="11" fill="#fed59e" rx="2"><title>2022-03-07: 131 active episodes</title></rect>
  <rect x="170" y="48" width="11" height="11" fill="#ffe7c5" rx="2"><title>2022-03-08: 45 active episodes</title></rect>
  <rect x="170" y="62" width="11" height="11" fill="#ffe3bc" rx="2"><title>2022-03-09: 64 active episodes</title></rect>
  <rect x="170" y="76" width="11" height="11" fill="#ffdaa9" rx="2"><title>2022-03-10: 107 active episodes</title></rect>
  <rect x="170" y="90" width="11" height="11" fill="#ffe8c8" rx="2"><title>2022-03-11: 39 active episodes</title></rect>
  <rect x="170" y="104" width="11" height="11" fill="#ffeacb" rx="2"><title>2022-03-12: 32 active episodes</title></rect>
  <rect x="184" y="20" width="11" height="11" fill="#ffebcd" rx="2"><title>2022-03-13: 27 active episodes</title></rect>
  <rect x="184" y="34" width="11" height="11" fill="#ffe1b9" rx="2"><title>2022-03-14: 71 active episodes</title></rect>
  <rect x="184" y="48" width="11" height="11" fill="#ffdaa8" rx="2"><title>2022-03-15: 108 active episodes</title></rect>
  <rect x="184" y="62" width="11" height="11" fill="#ffdeb2" rx="2"><title>2022-03-16: 87 active episodes</title></rect>
  <rect x="184" y="76" width="11" height="11" fill="#fed7a1" rx="2"><title>2022-03-17: 123 active episodes</title></rect>
  <rect x="184" y="90" width="11" height="11" fill="#fed298" rx="2"><title>2022-03-18: 144 active episodes</title></rect>
  <rect x="184" y="104" width="11" height="11" fill="#ffe5c0" rx="2"><title>2022-03-19: 55 active episodes</title></rect>
  <rect x="198" y="20" width="11" height="11" fill="#ffeacb" rx="2"><title>2022-03-20: 32 active episodes</title></rect>
  <rect x="198" y="34" width="11" height="11" fill="#ffe1b9" rx="2"><title>2022-03-21: 72 active episodes</title></rect>
  <rect x="198" y="48" width="11" height="11" fill="#ffdcac" rx="2"><title>2022-03-22: 99 active episodes</title></rect>
  <rect x="198" y="62" width="11" height="11" fill="#ffd7a3" rx="2"><title>2022-03-23: 119 active episodes</title></rect>
  <rect x="198" y="76" width="11" height="11" fill="#ffdaaa" rx="2"><title>2022-03-24: 105 active episodes</title></rect>
  <rect x="198" y="90" width="11" height="11" fill="#ffe8c8" rx="2"><title>2022-03-25: 38 active episodes</title></rect>
  <rect x="198" y="104" width="11" height="11" fill="#ffe9c9" rx="2"><title>2022-03-26: 35 active episodes</title></rect>
  <rect x="198" y="20" width="11" height="11" fill="#feedd3" rx="2"><title>2022-03-27: 15 active episodes</title></rect>
  <rect x="212" y="34" width="11" height="11" fill="#ffe4be" rx="2"><title>2022-03-28: 60 active episodes</title></rect>
  <rect x="212" y="48" width="11" height="11" fill="#ffe0b6" rx="2"><title>2022-03-29: 78 active episodes</title></rect>
  <rect x="212" y="62" width="11" height="11" fill="#ffe1b8" rx="2"><title>2022-03-30: 73 active episodes</title></rect>
  <rect x="212" y="76" width="11" height="11" fill="#ffe2b9" rx="2"><title>2022-03-31: 70 active episodes</title></rect>
  <rect x="212" y="90" width="11" height="11" fill="#ffe6c3" rx="2"><title>2022-04-01: 49 active episodes</title></rect>
  <rect x="212" y="104" width="11" height="11" fill="#ffeacd" rx="2"><title>2022-04-02: 28 active episodes</title></rect>
  <rect x="212" y="20" width="11" height="11" fill="#feeed5" rx="2"><title>2022-04-03: 10 active episodes</title></rect>
  <rect x="226" y="34" width="11" height="11" fill="#ffdcad" rx="2"><title>2022-04-04: 98 active episodes</title></rect>
  <rect x="226" y="48" width="11" height="11" fill="#fed296" rx="2"><title>2022-04-05: 148 active episodes</title></rect>
  <rect x="226" y="62" width="11" height="11" fill="#fea76c" rx="2"><title>2022-04-06: 280 active episodes</title></rect>
  <rect x="226" y="76" width="11" height="11" fill="#feaf72" rx="2"><title>2022-04-07: 258 active episodes</title></rect>
  <rect x="226" y="90" width="11" height="11" fill="#fdc887" rx="2"><title>2022-04-08: 185 active episodes</title></rect>
  <rect x="226" y="104" width="11" height="11" fill="#ffe0b6" rx="2"><title>2022-04-09: 77 active episodes</title></rect>
  <rect x="226" y="20" width="11" height="11" fill="#fdc887" rx="2"><title>2022-04-10: 185 active episodes</title></rect>
  <rect x="240" y="34" width="11" height="11" fill="#febd7e" rx="2"><title>2022-04-11: 218 active episodes</title></rect>
  <rect x="240" y="48" width="11" height="11" fill="#fec483" rx="2"><title>2022-04-12: 199 active episodes</title></rect>
  <rect x="240" y="62" width="11" height="11" fill="#fed093" rx="2"><title>2022-04-13: 156 active episodes</title></rect>
  <rect x="240" y="76" width="11" height="11" fill="#ffd7a3" rx="2"><title>2022-04-14: 120 active episodes</title></rect>
  <rect x="240" y="90" width="11" height="11" fill="#ffe0b5" rx="2"><title>2022-04-15: 79 active episodes</title></rect>
  <rect x="240" y="104" width="11" height="11" fill="#ffdfb4" rx="2"><title>2022-04-16: 82 active episodes</title></rect>
  <rect x="240" y="20" width="11" height="11" fill="#ffdaa9" rx="2"><title>2022-04-17: 106 active episodes</title></rect>
  <rect x="254" y="34" width="11" height="11" fill="#ffdeb1" rx="2"><title>2022-04-18: 89 active episodes</title></rect>
  <rect x="254" y="48" width="11" height="11" fill="#ffdeb2" rx="2"><title>2022-04-19: 87 active episodes</title></rect>
  <rect x="254" y="62" width="11" height="11" fill="#ffe1b9" rx="2"><title>2022-04-20: 71 active episodes</title></rect>
  <rect x="254" y="76" width="11" height="11" fill="#ffe4be" rx="2"><title>2022-04-21: 60 active episodes</title></rect>
  <rect x="254" y="90" width="11" height="11" fill="#ffe6c4" rx="2"><title>2022-04-22: 48 active episodes</title></rect>
  <rect x="254" y="104" width="11" height="11" fill="#ffeacd" rx="2"><title>2022-04-23: 28 active episodes</title></rect>
  <rect x="254" y="20" width="11" height="11" fill="#feedd3" rx="2"><title>2022-04-24: 15 active episodes</title></rect>
  <rect x="268" y="34" width="11" height="11" fill="#feedd3" rx="2"><title>2022-04-25: 15 active episodes</title></rect>
  <rect x="268" y="48" width="11" height="11" fill="#ffeacb" rx="2"><title>2022-04-26: 32 active episodes</title></rect>
  <rect x="268" y="62" width="11" height="11" fill="#fed59d" rx="2"><title>2022-04-27: 133 active episodes</title></rect>
  <rect x="268" y="76" width="11" height="11" fill="#fdc484" rx="2"><title>2022-04-28: 197 active episodes</title></rect>
  <rect x="268" y="90" width="11" height="11" fill="#ffdeb2" rx="2"><title>2022-04-29: 86 active episodes</title></rect>
  <rect x="268" y="104" width="11" height="11" fill="#ffe2ba" rx="2"><title>2022-04-30: 69 active episodes</title></rect>
  <rect x="268" y="20" width="11" height="11" fill="#ffe3bc" rx="2"><title>2022-05-01: 64 active episodes</title></rect>
  <rect x="282" y="34" width="11" height="11" fill="#ffdaa9" rx="2"><title>2022-05-02: 107 active episodes</title></rect>
  <rect x="282" y="48" width="11" height="11" fill="#fdc987" rx="2"><title>2022-05-03: 184 active episodes</title></rect>
  <rect x="282" y="62" width="11" height="11" fill="#fdc584" rx="2"><title>2022-05-04: 195 active episodes</title></rect>
  <rect x="282" y="76" width="11" height="11" fill="#fed296" rx="2"><title>2022-05-05: 148 active episodes</title></rect>
  <rect x="282" y="90" width="11" height="11" fill="#ffd9a7" rx="2"><title>2022-05-06: 110 active episodes</title></rect>
  <rect x="282" y="104" width="11" height="11" fill="#feedd2" rx="2"><title>2022-05-07: 17 active episodes</title></rect>
  <rect x="282" y="20" width="11" height="11" fill="#ffdfb4" rx="2"><title>2022-05-08: 82 active episodes</title></rect>
  <rect x="296" y="34" width="11" height="11" fill="#ffddb0" rx="2"><title>2022-05-09: 91 active episodes</title></rect>
  <rect x="296" y="48" width="11" height="11" fill="#ffe1b8" rx="2"><title>2022-05-10: 74 active episodes</title></rect>
  <rect x="296" y="62" width="11" height="11" fill="#ffe3bd" rx="2"><title>2022-05-11: 63 active episodes</title></rect>
  <rect x="296" y="76" width="11" height="11" fill="#ffe4bf" rx="2"><title>2022-05-12: 58 active episodes</title></rect>
  <rect x="296" y="90" width="11" height="11" fill="#ffe8c7" rx="2"><title>2022-05-13: 41 active episodes</title></rect>
  <rect x="296" y="104" width="11" height="11" fill="#feedd3" rx="2"><title>2022-05-14: 14 active episodes</title></rect>
  <rect x="296" y="20" width="11" height="11" fill="#ffe8c8" rx="2"><title>2022-05-15: 39 active episodes</title></rect>
  <rect x="310" y="34" width="11" height="11" fill="#ffe0b5" rx="2"><title>2022-05-16: 80 active episodes</title></rect>
  <rect x="310" y="48" width="11" height="11" fill="#ffdbaa" rx="2"><title>2022-05-17: 104 active episodes</title></rect>
  <rect x="310" y="62" width="11" height="11" fill="#ffddaf" rx="2"><title>2022-05-18: 93 active episodes</title></rect>
  <rect x="310" y="76" width="11" height="11" fill="#ffdcad" rx="2"><title>2022-05-19: 97 active episodes</title></rect>
  <rect x="310" y="90" width="11" height="11" fill="#ffddaf" rx="2"><title>2022-05-20: 93 active episodes</title></rect>
  <rect x="310" y="104" width="11" height="11" fill="#feeed5" rx="2"><title>2022-05-21: 10 active episodes</title></rect>
  <rect x="310" y="20" width="11" height="11" fill="#feedd3" rx="2"><title>2022-05-22: 15 active episodes</title></rect>
  <rect x="324" y="34" width="11" height="11" fill="#ffdfb4" rx="2"><title>2022-05-23: 83 active episodes</title></rect>
  <rect x="324" y="48" width="11" height="11" fill="#fed39a" rx="2"><title>2022-05-24: 139 active episodes</title></rect>
  <rect x="324" y="62" width="11" height="11" fill="#fed195" rx="2"><title>2022-05-25: 151 active episodes</title></rect>
  <rect x="324" y="76" width="11" height="11" fill="#ffd8a4" rx="2"><title>2022-05-26: 117 active episodes</title></rect>
  <rect x="324" y="90" width="11" height="11" fill="#ffe2ba" rx="2"><title>2022-05-27: 69 active episodes</title></rect>
  <rect x="324" y="104" width="11" height="11" fill="#ffebcf" rx="2"><title>2022-05-28: 23 active episodes</title></rect>
  <rect x="324" y="20" width="11" height="11" fill="#feecd1" rx="2"><title>2022-05-29: 18 active episodes</title></rect>
  <rect x="338" y="34" width="11" height="11" fill="#ffddb0" rx="2"><title>2022-05-30: 90 active episodes</title></rect>
  <rect x="338" y="48" width="11" height="11" fill="#ffddaf" rx="2"><title>2022-05-31: 93 active episodes</title></rect>
  <rect x="338" y="62" width="11" height="11" fill="#ffebce" rx="2"><title>2022-06-01: 26 active episodes</title></rect>
  <rect x="338" y="76" width="11" height="11" fill="#ffe4be" rx="2"><title>2022-06-02: 60 active episodes</title></rect>
  <rect x="338" y="90" width="11" height="11" fill="#ffe4be" rx="2"><title>2022-06-03: 59 active episodes</title></rect>
  <rect x="338" y="104" width="11" height="11" fill="#feecd0" rx="2"><title>2022-06-04: 21 active episodes</title></rect>
  <rect x="338" y="20" width="11" height="11" fill="#ffeacc" rx="2"><title>2022-06-05: 30 active episodes</title></rect>
  <rect x="352" y="34" width="11" height="11" fill="#ffdaaa" rx="2"><title>2022-06-06: 105 active episodes</title></rect>
  <rect x="352" y="48" width="11" height="11" fill="#ffd8a4" rx="2"><title>2022-06-07: 118 active episodes</title></rect>
  <rect x="352" y="62" width="11" height="11" fill="#fed59d" rx="2"><title>2022-06-08: 133 active episodes</title></rect>
  <rect x="352" y="76" width="11" height="11" fill="#ffddb0" rx="2"><title>2022-06-09: 90 active episodes</title></rect>
  <rect x="352" y="90" width="11" height="11" fill="#ffe4be" rx="2"><title>2022-06-10: 60 active episodes</title></rect>
  <rect x="352" y="104" width="11" height="11" fill="#ffebce" rx="2"><title>2022-06-11: 25 active episodes</title></rect>
  <rect x="352" y="20" width="11" height="11" fill="#feeed4" rx="2"><title>2022-06-12: 12 active episodes</title></rect>
  <rect x="366" y="34" width="11" height="11" fill="#feefd6" rx="2"><title>2022-06-13: 7 active episodes</title></rect>
  <rect x="366" y="48" width="11" height="11" fill="#fed093" rx="2"><title>2022-06-14: 156 active episodes</title></rect>
  <rect x="366" y="62" width="11" height="11" fill="#fed59e" rx="2"><title>2022-06-15: 131 active episodes</title></rect>
  <rect x="366" y="76" width="11" height="11" fill="#fea66c" rx="2"><title>2022-06-16: 281 active episodes</title></rect>
  <rect x="366" y="90" width="11" height="11" fill="#feb779" rx="2"><title>2022-06-17: 235 active episodes</title></rect>
  <rect x="366" y="104" width="11" height="11" fill="#ffddb0" rx="2"><title>2022-06-18: 90 active episodes</title></rect>
  <rect x="366" y="20" width="11" height="11" fill="#ffdaa8" rx="2"><title>2022-06-19: 108 active episodes</title></rect>
  <rect x="380" y="34" width="11" height="11" fill="#fec282" rx="2"><title>2022-06-20: 202 active episodes</title></rect>
  <rect x="380" y="48" width="11" height="11" fill="#fed094" rx="2"><title>2022-06-21: 153 active episodes</title></rect>
  <rect x="380" y="62" width="11" height="11" fill="#ffe1b8" rx="2"><title>2022-06-22: 73 active episodes</title></rect>
  <rect x="380" y="76" width="11" height="11" fill="#ffe1b8" rx="2"><title>2022-06-23: 73 active episodes</title></rect>
  <rect x="380" y="90" width="11" height="11" fill="#ffe1b8" rx="2"><title>2022-06-24: 73 active episodes</title></rect>
  <rect x="380" y="104" width="11" height="11" fill="#ffd8a4" rx="2"><title>2022-06-25: 118 active episodes</title></rect>
  <rect x="380" y="20" width="11" height="11" fill="#ffe3bc" rx="2"><title>2022-06-26: 64 active episodes</title></rect>
  <rect x="394" y="34" width="11" height="11" fill="#ffe2ba" rx="2"><title>2022-06-27: 68 active episodes</title></rect>
  <rect x="394" y="48" width="11" height="11" fill="#ffd7a2" rx="2"><title>2022-06-28: 121 active episodes</title></rect>
  <rect x="394" y="62" width="11" height="11" fill="#ffdfb4" rx="2"><title>2022-06-29: 83 active episodes</title></rect>
  <rect x="394" y="76" width="11" height="11" fill="#ffdcae" rx="2"><title>2022-06-30: 95 active episodes</title></rect>
  <rect x="394" y="90" width="11" height="11" fill="#ffdaa8" rx="2"><title>2022-07-01: 109 active episodes</title></rect>
  <rect x="394" y="104" width="11" height="11" fill="#ffe6c4" rx="2"><title>2022-07-02: 47 active episodes</title></rect>
  <rect x="394" y="20" width="11" height="11" fill="#ffe9ca" rx="2"><title>2022-07-03: 34 active episodes</title></rect>
  <rect x="408" y="34" width="11" height="11" fill="#e85e38" rx="2"><title>2022-07-04: 446 active episodes</title></rect>
  <rect x="408" y="48" width="11" height="11" fill="#da3a23" rx="2"><title>2022-07-05: 509 active episodes</title></rect>
  <rect x="408" y="62" width="11" height="11" fill="#e45331" rx="2"><title>2022-07-06: 467 active episodes</title></rect>
  <rect x="408" y="76" width="11" height="11" fill="#d7301f" rx="2"><title>2022-07-07: 523 active episodes</title></rect>
  <rect x="408" y="90" width="11" height="11" fill="#f27548" rx="2"><title>2022-07-08: 399 active episodes</title></rect>
  <rect x="408" y="104" width="11" height="11" fill="#fea46a" rx="2"><title>2022-07-09: 287 active episodes</title></rect>
  <rect x="408" y="20" width="11" height="11" fill="#fdc685" rx="2"><title>2022-07-10: 191 active episodes</title></rect>
  <rect x="422" y="34" width="11" height="11" fill="#feb476" rx="2"><title>2022-07-11: 243 active episodes</title></rect>
  <rect x="422" y="48" width="11" height="11" fill="#fea76c" rx="2"><title>2022-07-12: 280 active episodes</title></rect>
  <rect x="422" y="62" width="11" height="11" fill="#fda067" rx="2"><title>2022-07-13: 299 active episodes</title></rect>
  <rect x="422" y="76" width="11" height="11" fill="#fea56b" rx="2"><title>2022-07-14: 285 active episodes</title></rect>
  <rect x="422" y="90" width="11" height="11" fill="#fea96e" rx="2"><title>2022-07-15: 273 active episodes</title></rect>
  <rect x="422" y="104" width="11" height="11" fill="#feb174" rx="2"><title>2022-07-16: 251 active episodes</title></rect>
  <rect x="422" y="20" width="11" height="11" fill="#feb174" rx="2"><title>2022-07-17: 250 active episodes</title></rect>
  <rect x="436" y="34" width="11" height="11" fill="#fc905b" rx="2"><title>2022-07-18: 342 active episodes</title></rect>
  <rect x="436" y="48" width="11" height="11" fill="#feaa6f" rx="2"><title>2022-07-19: 271 active episodes</title></rect>
  <rect x="436" y="62" width="11" height="11" fill="#fea86d" rx="2"><title>2022-07-20: 276 active episodes</title></rect>
  <rect x="436" y="76" width="11" height="11" fill="#fd9c64" rx="2"><title>2022-07-21: 309 active episodes</title></rect>
  <rect x="436" y="90" width="11" height="11" fill="#feb678" rx="2"><title>2022-07-22: 238 active episodes</title></rect>
  <rect x="436" y="104" width="11" height="11" fill="#fdc584" rx="2"><title>2022-07-23: 195 active episodes</title></rect>
  <rect x="436" y="20" width="11" height="11" fill="#fed093" rx="2"><title>2022-07-24: 155 active episodes</title></rect>
  <rect x="450" y="34" width="11" height="11" fill="#fdcc8a" rx="2"><title>2022-07-25: 174 active episodes</title></rect>
  <rect x="450" y="48" width="11" height="11" fill="#fdc585" rx="2"><title>2022-07-26: 194 active episodes</title></rect>
  <rect x="450" y="62" width="11" height="11" fill="#fdce8e" rx="2"><title>2022-07-27: 167 active episodes</title></rect>
  <rect x="450" y="76" width="11" height="11" fill="#fed092" rx="2"><title>2022-07-28: 157 active episodes</title></rect>
  <rect x="450" y="90" width="11" height="11" fill="#fed59e" rx="2"><title>2022-07-29: 131 active episodes</title></rect>
  <rect x="450" y="104" width="11" height="11" fill="#ffdcac" rx="2"><title>2022-07-30: 99 active episodes</title></rect>
  <rect x="450" y="20" width="11" height="11" fill="#ffe1b7" rx="2"><title>2022-07-31: 75 active episodes</title></rect>
  <rect x="464" y="34" width="11" height="11" fill="#fed59d" rx="2"><title>2022-08-01: 132 active episodes</title></rect>
  <rect x="464" y="48" width="11" height="11" fill="#fed49c" rx="2"><title>2022-08-02: 135 active episodes</title></rect>
  <rect x="464" y="62" width="11" height="11" fill="#fed49c" rx="2"><title>2022-08-03: 135 active episodes</title></rect>
  <rect x="464" y="76" width="11" height="11" fill="#fdcb89" rx="2"><title>2022-08-04: 177 active episodes</title></rect>
  <rect x="464" y="90" width="11" height="11" fill="#fdcd8b" rx="2"><title>2022-08-05: 172 active episodes</title></rect>
  <rect x="464" y="104" width="11" height="11" fill="#ffdbab" rx="2"><title>2022-08-06: 103 active episodes</title></rect>
  <rect x="464" y="20" width="11" height="11" fill="#ffdaaa" rx="2"><title>2022-08-07: 105 active episodes</title></rect>
  <rect x="478" y="34" width="11" height="11" fill="#fed6a0" rx="2"><title>2022-08-08: 127 active episodes</title></rect>
  <rect x="478" y="48" width="11" height="11" fill="#fdcd8c" rx="2"><title>2022-08-09: 171 active episodes</title></rect>
  <rect x="478" y="62" width="11" height="11" fill="#fdce8e" rx="2"><title>2022-08-10: 167 active episodes</title></rect>
  <rect x="478" y="76" width="11" height="11" fill="#fdcc8a" rx="2"><title>2022-08-11: 175 active episodes</title></rect>
  <rect x="478" y="90" width="11" height="11" fill="#ffd8a4" rx="2"><title>2022-08-12: 118 active episodes</title></rect>
  <rect x="478" y="104" width="11" height="11" fill="#ffe0b6" rx="2"><title>2022-08-13: 77 active episodes</title></rect>
  <rect x="478" y="20" width="11" height="11" fill="#ffe3be" rx="2"><title>2022-08-14: 61 active episodes</title></rect>
  <rect x="492" y="34" width="11" height="11" fill="#ffe3bc" rx="2"><title>2022-08-15: 64 active episodes</title></rect>
  <rect x="492" y="48" width="11" height="11" fill="#fed49b" rx="2"><title>2022-08-16: 138 active episodes</title></rect>
  <rect x="492" y="62" width="11" height="11" fill="#feb578" rx="2"><title>2022-08-17: 239 active episodes</title></rect>
  <rect x="492" y="76" width="11" height="11" fill="#feba7b" rx="2"><title>2022-08-18: 226 active episodes</title></rect>
  <rect x="492" y="90" width="11" height="11" fill="#fdc585" rx="2"><title>2022-08-19: 194 active episodes</title></rect>
  <rect x="492" y="104" width="11" height="11" fill="#ffe8c7" rx="2"><title>2022-08-20: 41 active episodes</title></rect>
  <rect x="492" y="20" width="11" height="11" fill="#ffe8c8" rx="2"><title>2022-08-21: 39 active episodes</title></rect>
  <rect x="506" y="34" width="11" height="11" fill="#ffdfb3" rx="2"><title>2022-08-22: 84 active episodes</title></rect>
  <rect x="506" y="48" width="11" height="11" fill="#fed49c" rx="2"><title>2022-08-23: 135 active episodes</title></rect>
  <rect x="506" y="62" width="11" height="11" fill="#ffd8a6" rx="2"><title>2022-08-24: 114 active episodes</title></rect>
  <rect x="506" y="76" width="11" height="11" fill="#fdce8e" rx="2"><title>2022-08-25: 167 active episodes</title></rect>
  <rect x="506" y="90" width="11" height="11" fill="#ffdcae" rx="2"><title>2022-08-26: 95 active episodes</title></rect>
  <rect x="506" y="104" width="11" height="11" fill="#ffeacb" rx="2"><title>2022-08-27: 32 active episodes</title></rect>
  <rect x="506" y="20" width="11" height="11" fill="#ffe9c9" rx="2"><title>2022-08-28: 35 active episodes</title></rect>
  <rect x="520" y="34" width="11" height="11" fill="#ffe3bd" rx="2"><title>2022-08-29: 63 active episodes</title></rect>
  <rect x="520" y="48" width="11" height="11" fill="#ffdfb4" rx="2"><title>2022-08-30: 82 active episodes</title></rect>
  <rect x="520" y="62" width="11" height="11" fill="#ffe2b9" rx="2"><title>2022-08-31: 70 active episodes</title></rect>
  <rect x="520" y="76" width="11" height="11" fill="#ffe0b5" rx="2"><title>2022-09-01: 80 active episodes</title></rect>
  <rect x="520" y="90" width="11" height="11" fill="#ffdfb5" rx="2"><title>2022-09-02: 81 active episodes</title></rect>
  <rect x="520" y="104" width="11" height="11" fill="#ffebcd" rx="2"><title>2022-09-03: 27 active episodes</title></rect>
  <rect x="520" y="20" width="11" height="11" fill="#ffdbab" rx="2"><title>2022-09-04: 102 active episodes</title></rect>
  <rect x="534" y="34" width="11" height="11" fill="#fec282" rx="2"><title>2022-09-05: 203 active episodes</title></rect>
  <rect x="534" y="48" width="11" height="11" fill="#feaa6f" rx="2"><title>2022-09-06: 271 active episodes</title></rect>
  <rect x="534" y="62" width="11" height="11" fill="#feb678" rx="2"><title>2022-09-07: 236 active episodes</title></rect>
  <rect x="534" y="76" width="11" height="11" fill="#ed683f" rx="2"><title>2022-09-08: 426 active episodes</title></rect>
  <rect x="534" y="90" width="11" height="11" fill="#feba7b" rx="2"><title>2022-09-09: 226 active episodes</title></rect>
  <rect x="534" y="104" width="11" height="11" fill="#fed093" rx="2"><title>2022-09-10: 155 active episodes</title></rect>
  <rect x="534" y="20" width="11" height="11" fill="#fecf91" rx="2"><title>2022-09-11: 160 active episodes</title></rect>
  <rect x="548" y="34" width="11" height="11" fill="#fed69f" rx="2"><title>2022-09-12: 128 active episodes</title></rect>
  <rect x="548" y="48" width="11" height="11" fill="#fdca88" rx="2"><title>2022-09-13: 182 active episodes</title></rect>
  <rect x="548" y="62" width="11" height="11" fill="#fdcd8b" rx="2"><title>2022-09-14: 172 active episodes</title></rect>
  <rect x="548" y="76" width="11" height="11" fill="#fed49b" rx="2"><title>2022-09-15: 137 active episodes</title></rect>
  <rect x="548" y="90" width="11" height="11" fill="#ffe3bd" rx="2"><title>2022-09-16: 63 active episodes</title></rect>
  <rect x="548" y="104" width="11" height="11" fill="#ffeccf" rx="2"><title>2022-09-17: 22 active episodes</title></rect>
  <rect x="548" y="20" width="11" height="11" fill="#feecd0" rx="2"><title>2022-09-18: 20 active episodes</title></rect>
  <rect x="562" y="34" width="11" height="11" fill="#fed6a1" rx="2"><title>2022-09-19: 124 active episodes</title></rect>
  <rect x="562" y="48" width="11" height="11" fill="#ffdaa9" rx="2"><title>2022-09-20: 107 active episodes</title></rect>
  <rect x="562" y="62" width="11" height="11" fill="#ffddaf" rx="2"><title>2022-09-21: 93 active episodes</title></rect>
  <rect x="562" y="76" width="11" height="11" fill="#ffe0b6" rx="2"><title>2022-09-22: 78 active episodes</title></rect>
  <rect x="562" y="90" width="11" height="11" fill="#ffe5c1" rx="2"><title>2022-09-23: 54 active episodes</title></rect>
  <rect x="562" y="104" width="11" height="11" fill="#feedd3" rx="2"><title>2022-09-24: 15 active episodes</title></rect>
  <rect x="562" y="20" width="11" height="11" fill="#ffdbab" rx="2"><title>2022-09-25: 101 active episodes</title></rect>
  <rect x="576" y="34" width="11" height="11" fill="#fec181" rx="2"><title>2022-09-26: 206 active episodes</title></rect>
  <rect x="576" y="48" width="11" height="11" fill="#fdcc8a" rx="2"><title>2022-09-27: 176 active episodes</title></rect>
  <rect x="576" y="62" width="11" height="11" fill="#fdce8f" rx="2"><title>2022-09-28: 164 active episodes</title></rect>
  <rect x="576" y="76" width="11" height="11" fill="#fed297" rx="2"><title>2022-09-29: 146 active episodes</title></rect>
  <rect x="576" y="90" width="11" height="11" fill="#ffdcae" rx="2"><title>2022-09-30: 95 active episodes</title></rect>
  <rect x="576" y="104" width="11" height="11" fill="#ffeacb" rx="2"><title>2022-10-01: 31 active episodes</title></rect>
  <rect x="576" y="20" width="11" height="11" fill="#ffeacb" rx="2"><title>2022-10-02: 32 active episodes</title></rect>
  <rect x="590" y="34" width="11" height="11" fill="#fed6a0" rx="2"><title>2022-10-03: 126 active episodes</title></rect>
  <rect x="590" y="48" width="11" height="11" fill="#fdce8f" rx="2"><title>2022-10-04: 163 active episodes</title></rect>
  <rect x="590" y="62" width="11" height="11" fill="#fdc987" rx="2"><title>2022-10-05: 184 active episodes</title></rect>
  <rect x="590" y="76" width="11" height="11" fill="#fed093" rx="2"><title>2022-10-06: 156 active episodes</title></rect>
  <rect x="590" y="90" width="11" height="11" fill="#ffdaaa" rx="2"><title>2022-10-07: 105 active episodes</title></rect>
  <rect x="590" y="104" width="11" height="11" fill="#ffe2bb" rx="2"><title>2022-10-08: 67 active episodes</title></rect>
  <rect x="590" y="20" width="11" height="11" fill="#ffe0b7" rx="2"><title>2022-10-09: 76 active episodes</title></rect>
  <rect x="604" y="34" width="11" height="11" fill="#ffdcad" rx="2"><title>2022-10-10: 98 active episodes</title></rect>
  <rect x="604" y="48" width="11" height="11" fill="#fed6a1" rx="2"><title>2022-10-11: 125 active episodes</title></rect>
  <rect x="604" y="62" width="11" height="11" fill="#fed39a" rx="2"><title>2022-10-12: 140 active episodes</title></rect>
  <rect x="604" y="76" width="11" height="11" fill="#ffdbaa" rx="2"><title>2022-10-13: 104 active episodes</title></rect>
  <rect x="604" y="90" width="11" height="11" fill="#ffdeb1" rx="2"><title>2022-10-14: 88 active episodes</title></rect>
  <rect x="604" y="104" width="11" height="11" fill="#ffe5c0" rx="2"><title>2022-10-15: 55 active episodes</title></rect>
  <rect x="604" y="20" width="11" height="11" fill="#ffe6c4" rx="2"><title>2022-10-16: 48 active episodes</title></rect>
  <rect x="618" y="34" width="11" height="11" fill="#fed59d" rx="2"><title>2022-10-17: 133 active episodes</title></rect>
  <rect x="618" y="48" width="11" height="11" fill="#fdc685" rx="2"><title>2022-10-18: 192 active episodes</title></rect>
  <rect x="618" y="62" width="11" height="11" fill="#feb87a" rx="2"><title>2022-10-19: 231 active episodes</title></rect>
  <rect x="618" y="76" width="11" height="11" fill="#febe7e" rx="2"><title>2022-10-20: 215 active episodes</title></rect>
  <rect x="618" y="90" width="11" height="11" fill="#feb577" rx="2"><title>2022-10-21: 241 active episodes</title></rect>
  <rect x="618" y="104" width="11" height="11" fill="#feb97a" rx="2"><title>2022-10-22: 230 active episodes</title></rect>
  <rect x="618" y="20" width="11" height="11" fill="#fec181" rx="2"><title>2022-10-23: 206 active episodes</title></rect>
  <rect x="632" y="34" width="11" height="11" fill="#fdcd8d" rx="2"><title>2022-10-24: 168 active episodes</title></rect>
  <rect x="632" y="48" width="11" height="11" fill="#fd9962" rx="2"><title>2022-10-25: 316 active episodes</title></rect>
  <rect x="632" y="62" width="11" height="11" fill="#fdc786" rx="2"><title>2022-10-26: 188 active episodes</title></rect>
  <rect x="632" y="76" width="11" height="11" fill="#ffddaf" rx="2"><title>2022-10-27: 93 active episodes</title></rect>
  <rect x="632" y="90" width="11" height="11" fill="#fed59e" rx="2"><title>2022-10-28: 130 active episodes</title></rect>
  <rect x="632" y="104" width="11" height="11" fill="#ffe3bc" rx="2"><title>2022-10-29: 65 active episodes</title></rect>
  <rect x="646" y="20" width="11" height="11" fill="#ffdbab" rx="2"><title>2022-10-30: 102 active episodes</title></rect>
  <rect x="646" y="34" width="11" height="11" fill="#feb97a" rx="2"><title>2022-10-31: 229 active episodes</title></rect>
  <rect x="646" y="48" width="11" height="11" fill="#febc7d" rx="2"><title>2022-11-01: 220 active episodes</title></rect>
  <rect x="646" y="62" width="11" height="11" fill="#fdc685" rx="2"><title>2022-11-02: 191 active episodes</title></rect>
  <rect x="646" y="76" width="11" height="11" fill="#fecf91" rx="2"><title>2022-11-03: 159 active episodes</title></rect>
  <rect x="646" y="90" width="11" height="11" fill="#fed59f" rx="2"><title>2022-11-04: 129 active episodes</title></rect>
  <rect x="646" y="104" width="11" height="11" fill="#ffe4c0" rx="2"><title>2022-11-05: 56 active episodes</title></rect>
  <rect x="660" y="20" width="11" height="11" fill="#ffdbab" rx="2"><title>2022-11-06: 103 active episodes</title></rect>
  <rect x="660" y="34" width="11" height="11" fill="#feb97b" rx="2"><title>2022-11-07: 228 active episodes</title></rect>
  <rect x="660" y="48" width="11" height="11" fill="#febc7d" rx="2"><title>2022-11-08: 219 active episodes</title></rect>
  <rect x="660" y="62" width="11" height="11" fill="#fed59d" rx="2"><title>2022-11-09: 133 active episodes</title></rect>
  <rect x="660" y="76" width="11" height="11" fill="#fed195" rx="2"><title>2022-11-10: 150 active episodes</title></rect>
  <rect x="660" y="90" width="11" height="11" fill="#fdcc8b" rx="2"><title>2022-11-11: 173 active episodes</title></rect>
  <rect x="660" y="104" width="11" height="11" fill="#ffdcae" rx="2"><title>2022-11-12: 95 active episodes</title></rect>
  <rect x="674" y="20" width="11" height="11" fill="#ffe3bc" rx="2"><title>2022-11-13: 65 active episodes</title></rect>
  <rect x="674" y="34" width="11" height="11" fill="#febf7f" rx="2"><title>2022-11-14: 213 active episodes</title></rect>
  <rect x="674" y="48" width="11" height="11" fill="#febd7e" rx="2"><title>2022-11-15: 218 active episodes</title></rect>
  <rect x="674" y="62" width="11" height="11" fill="#febf80" rx="2"><title>2022-11-16: 211 active episodes</title></rect>
  <rect x="674" y="76" width="11" height="11" fill="#fec181" rx="2"><title>2022-11-17: 207 active episodes</title></rect>
  <rect x="674" y="90" width="11" height="11" fill="#ffdaa8" rx="2"><title>2022-11-18: 108 active episodes</title></rect>
  <rect x="674" y="104" width="11" height="11" fill="#fec080" rx="2"><title>2022-11-19: 210 active episodes</title></rect>
  <rect x="688" y="20" width="11" height="11" fill="#ffdaa8" rx="2"><title>2022-11-20: 109 active episodes</title></rect>
  <rect x="688" y="34" width="11" height="11" fill="#ffdcae" rx="2"><title>2022-11-21: 96 active episodes</title></rect>
  <rect x="688" y="48" width="11" height="11" fill="#fdce8f" rx="2"><title>2022-11-22: 165 active episodes</title></rect>
  <rect x="688" y="62" width="11" height="11" fill="#feba7b" rx="2"><title>2022-11-23: 226 active episodes</title></rect>
  <rect x="688" y="76" width="11" height="11" fill="#fdcd8d" rx="2"><title>2022-11-24: 169 active episodes</title></rect>
  <rect x="688" y="90" width="11" height="11" fill="#fed297" rx="2"><title>2022-11-25: 147 active episodes</title></rect>
  <rect x="688" y="104" width="11" height="11" fill="#fdcd8c" rx="2"><title>2022-11-26: 171 active episodes</title></rect>
  <rect x="702" y="20" width="11" height="11" fill="#ffe5c2" rx="2"><title>2022-11-27: 52 active episodes</title></rect>
  <rect x="702" y="34" width="11" height="11" fill="#fdcd8c" rx="2"><title>2022-11-28: 170 active episodes</title></rect>
  <rect x="702" y="48" width="11" height="11" fill="#fdce8e" rx="2"><title>2022-11-29: 166 active episodes</title></rect>
  <rect x="702" y="62" width="11" height="11" fill="#ffe8c7" rx="2"><title>2022-11-30: 40 active episodes</title></rect>
  <rect x="702" y="76" width="11" height="11" fill="#ffe9c9" rx="2"><title>2022-12-01: 35 active episodes</title></rect>
  <rect x="702" y="90" width="11" height="11" fill="#ffe8c7" rx="2"><title>2022-12-02: 41 active episodes</title></rect>
  <rect x="702" y="104" width="11" height="11" fill="#ffebcd" rx="2"><title>2022-12-03: 27 active episodes</title></rect>
  <rect x="716" y="20" width="11" height="11" fill="#ffe8c8" rx="2"><title>2022-12-04: 39 active episodes</title></rect>
  <rect x="716" y="34" width="11" height="11" fill="#ffdaaa" rx="2"><title>2022-12-05: 105 active episodes</title></rect>
  <rect x="716" y="48" width="11" height="11" fill="#ffddb0" rx="2"><title>2022-12-06: 90 active episodes</title></rect>
  <rect x="716" y="62" width="11" height="11" fill="#ffd8a5" rx="2"><title>2022-12-07: 115 active episodes</title></rect>
  <rect x="716" y="76" width="11" height="11" fill="#fed49d" rx="2"><title>2022-12-08: 134 active episodes</title></rect>
  <rect x="716" y="90" width="11" height="11" fill="#ffdcae" rx="2"><title>2022-12-09: 96 active episodes</title></rect>
  <rect x="716" y="104" width="11" height="11" fill="#ffe8c8" rx="2"><title>2022-12-10: 38 active episodes</title></rect>
  <rect x="730" y="20" width="11" height="11" fill="#feedd2" rx="2"><title>2022-12-11: 16 active episodes</title></rect>
  <rect x="730" y="34" width="11" height="11" fill="#ffe7c4" rx="2"><title>2022-12-12: 46 active episodes</title></rect>
  <rect x="730" y="48" width="11" height="11" fill="#ffe3bc" rx="2"><title>2022-12-13: 64 active episodes</title></rect>
  <rect x="730" y="62" width="11" height="11" fill="#ffd8a5" rx="2"><title>2022-12-14: 116 active episodes</title></rect>
  <rect x="730" y="76" width="11" height="11" fill="#ffddaf" rx="2"><title>2022-12-15: 93 active episodes</title></rect>
  <rect x="730" y="90" width="11" height="11" fill="#ffdfb4" rx="2"><title>2022-12-16: 82 active episodes</title></rect>
  <rect x="730" y="104" width="11" height="11" fill="#ffe8c8" rx="2"><title>2022-12-17: 38 active episodes</title></rect>
  <rect x="744" y="20" width="11" height="11" fill="#ffe8c8" rx="2"><title>2022-12-18: 39 active episodes</title></rect>
  <rect x="744" y="34" width="11" height="11" fill="#ffe1b9" rx="2"><title>2022-12-19: 71 active episodes</title></rect>
  <rect x="744" y="48" width="11" height="11" fill="#ffe5c1" rx="2"><title>2022-12-20: 53 active episodes</title></rect>
  <rect x="744" y="62" width="11" height="11" fill="#ffe1b9" rx="2"><title>2022-12-21: 72 active episodes</title></rect>
  <rect x="744" y="76" width="11" height="11" fill="#ffe7c5" rx="2"><title>2022-12-22: 44 active episodes</title></rect>
  <rect x="744" y="90" width="11" height="11" fill="#feedd3" rx="2"><title>2022-12-23: 14 active episodes</title></rect>
  <rect x="744" y="104" width="11" height="11" fill="#ffe7c5" rx="2"><title>2022-12-24: 45 active episodes</title></rect>
  <rect x="758" y="20" width="11" height="11" fill="#ffe9ca" rx="2"><title>2022-12-25: 33 active episodes</title></rect>
  <rect x="758" y="34" width="11" height="11" fill="#fef0d9" rx="2"><title>2022-12-26: 2 active episodes</title></rect>
  <rect x="758" y="48" width="11" height="11" fill="#ffe4be" rx="2"><title>2022-12-27: 59 active episodes</title></rect>
  <rect x="758" y="62" width="11" height="11" fill="#ffdfb3" rx="2"><title>2022-12-28: 84 active episodes</title></rect>
  <rect x="758" y="76" width="11" height="11" fill="#ffe5c2" rx="2"><title>2022-12-29: 52 active episodes</title></rect>
  <rect x="758" y="90" width="11" height="11" fill="#feeed4" rx="2"><title>2022-12-30: 12 active episodes</title></rect>
  <text x="30" y="133" class="title">2022 - 21031 hot water episodes</text>
  <defs>
    <linearGradient id="legend-gradient" x1="0" y1="0" x2="1" y2="0">
      <stop offset="0%" stop-color="#fef0d9"/>
      <stop offset="33.33333333333333%" stop-color="#fdcc8a"/>
      <stop offset="66.66666666666666%" stop-color="#fc8d59"/>
      <stop offset="100%" stop-color="#d7301f"/>
    </linearGradient>
  </defs>
  <text x="560" y="133" class="legend">No data</text>
  <rect x="602" y="123" width="11" height="11" fill="#484f58" rx="2"/>
  <text x="632" y="133" class="legend">Less</text>
  <rect x="662" y="123" width="11" height="11" fill="#161b22" rx="2"/>
  <rect x="676" y="123" width="53" height="11" fill="url(#legend-gradient)" rx="2"/>
  <text x="737" y="133" class="legend">More</text>
</svg>