<svg width="782" height="148" xmlns="http://www.w3.org/2000/svg">
  <style>
    .month { font: 10px sans-serif; fill: #8b949e; }
    .day { font: 10px sans-serif; fill: #8b949e; }
    .title { font: bold 14px sans-serif; fill: #c9d1d9; }
    .legend { font: 10px sans-serif; fill: #8b949e; }
  </style>
  <rect width="100%" height="100%" fill="#0d1117"/>
  <text x="0" y="29" class="day">Mon</text>
  <text x="0" y="57" class="day">Wed</text>
  <text x="0" y="85" class="day">Fri</text>
  <text x="0" y="113" class="day">Sun</text>
  <text x="30" y="15" class="month">Jan</text>
  <text x="100" y="15" class="month">Feb</text>
  <text x="156" y="15" class="month">Mar</text>
  <text x="212" y="15" class="month">Apr</text>
  <text x="282" y="15" class="month">May</text>
  <text x="338" y="15" class="month">Jun</text>
  <text x="394" y="15" class="month">Jul</text>
  <text x="464" y="15" class="month">Aug</text>
  <text x="520" y="15" class="month">Sep</text>
  <text x="576" y="15" class="month">Oct</text>
  <text x="646" y="15" class="month">Nov</text>
  <text x="702" y="15" class="month">Dec</text>
  <rect x="30" y="90" width="11" height="11" fill="#fc8d59" rx="2"><title>2021-12-31: 19 commits</title></rect>
  <rect x="30" y="104" width="11" height="11" fill="#fef0d9" rx="2"><title>2022-01-01: 14 commits</title></rect>
  <rect x="44" y="20" width="11" height="11" fill="#fef0d9" rx="2"><title>2022-01-02: 9 commits</title></rect>
  <rect x="44" y="34" width="11" height="11" fill="#d7301f" rx="2"><title>2022-01-03: 20 commits</title></rect>
  <rect x="44" y="48" width="11" height="11" fill="#fc8d59" rx="2"><title>2022-01-04: 18 commits</title></rect>
  <rect x="44" y="62" width="11" height="11" fill="#d7301f" rx="2"><title>2022-01-05: 20 commits</title></rect>
  <rect x="44" y="76" width="11" height="11" fill="#d7301f" rx="2"><title>2022-01-06: 20 commits</title></rect>
  <rect x="44" y="90" width="11" height="11" fill="#fc8d59" rx="2"><title>2022-01-07: 19 commits</title></rect>
  <rect x="44" y="104" width="11" height="11" fill="#fc8d59" rx="2"><title>2022-01-08: 19 commits</title></rect>
  <rect x="58" y="20" width="11" height="11" fill="#fdcc8a" rx="2"><title>2022-01-09: 16 commits</title></rect>
  <rect x="58" y="34" width="11" height="11" fill="#fc8d59" rx="2"><title>2022-01-10: 19 commits</title></rect>
  <rect x="58" y="48" width="11" height="11" fill="#fc8d59" rx="2"><title>2022-01-11: 18 commits</title></rect>
  <rect x="58" y="62" width="11" height="11" fill="#fc8d59" rx="2"><title>2022-01-12: 19 commits</title></rect>
  <rect x="58" y="76" width="11" height="11" fill="#d7301f" rx="2"><title>2022-01-13: 20 commits</title></rect>
  <rect x="58" y="90" width="11" height="11" fill="#fc8d59" rx="2"><title>2022-01-14: 19 commits</title></rect>
  <rect x="58" y="104" width="11" height="11" fill="#fdcc8a" rx="2"><title>2022-01-15: 15 commits</title></rect>
  <rect x="72" y="20" width="11" height="11" fill="#fdcc8a" rx="2"><title>2022-01-16: 17 commits</title></rect>
  <rect x="72" y="34" width="11" height="11" fill="#fc8d59" rx="2"><title>2022-01-17: 18 commits</title></rect>
  <rect x="72" y="48" width="11" height="11" fill="#d7301f" rx="2"><title>2022-01-18: 20 commits</title></rect>
  <rect x="72" y="62" width="11" height="11" fill="#fc8d59" rx="2"><title>2022-01-19: 18 commits</title></rect>
  <rect x="72" y="76" width="11" height="11" fill="#fc8d59" rx="2"><title>2022-01-20: 19 commits</title></rect>
  <rect x="72" y="90" width="11" height="11" fill="#d7301f" rx="2"><title>2022-01-21: 20 commits</title></rect>
  <rect x="72" y="104" width="11" height="11" fill="#fef0d9" rx="2"><title>2022-01-22: 13 commits</title></rect>
  <rect x="86" y="20" width="11" height="11" fill="#fdcc8a" rx="2"><title>2022-01-23: 17 commits</title></rect>
  <rect x="86" y="34" width="11" height="11" fill="#fdcc8a" rx="2"><title>2022-01-24: 15 commits</title></rect>
  <rect x="86" y="48" width="11" height="11" fill="#d7301f" rx="2"><title>2022-01-25: 20 commits</title></rect>
  <rect x="86" y="62" width="11" height="11" fill="#d7301f" rx="2"><title>2022-01-26: 20 commits</title></rect>
  <rect x="86" y="76" width="11" height="11" fill="#fc8d59" rx="2"><title>2022-01-27: 18 commits</title></rect>
  <rect x="86" y="90" width="11" height="11" fill="#d7301f" rx="2"><title>2022-01-28: 21 commits</title></rect>
  <rect x="86" y="104" width="11" height="11" fill="#fef0d9" rx="2"><title>2022-01-29: 11 commits</title></rect>
  <rect x="100" y="20" width="11" height="11" fill="#fef0d9" rx="2"><title>2022-01-30: 14 commits</title></rect>
  <rect x="100" y="34" width="11" height="11" fill="#fdcc8a" rx="2"><title>2022-01-31: 17 commits</title></rect>
  <rect x="100" y="48" width="11" height="11" fill="#fc8d59" rx="2"><title>2022-02-01: 19 commits</title></rect>
  <rect x="100" y="62" width="11" height="11" fill="#d7301f" rx="2"><title>2022-02-02: 20 commits</title></rect>
  <rect x="100" y="76" width="11" height="11" fill="#fc8d59" rx="2"><title>2022-02-03: 18 commits</title></rect>
  <rect x="100" y="90" width="11" height="11" fill="#fdcc8a" rx="2"><title>2022-02-04: 17 commits</title></rect>
  <rect x="100" y="104" width="11" height="11" fill="#fef0d9" rx="2"><title>2022-02-05: 13 commits</title></rect>
  <rect x="114" y="20" width="11" height="11" fill="#fef0d9" rx="2"><title>2022-02-06: 12 commits</title></rect>
  <rect x="114" y="34" width="11" height="11" fill="#d7301f" rx="2"><title>2022-02-07: 21 commits</title></rect>
  <rect x="114" y="48" width="11" height="11" fill="#d7301f" rx="2"><title>2022-02-08: 20 commits</title></rect>
  <rect x="114" y="62" width="11" height="11" fill="#fc8d59" rx="2"><title>2022-02-09: 18 commits</title></rect>
  <rect x="114" y="76" width="11" height="11" fill="#d7301f" rx="2"><title>2022-02-10: 21 commits</title></rect>
  <rect x="114" y="90" width="11" height="11" fill="#fc8d59" rx="2"><title>2022-02-11: 18 commits</title></rect>
  <rect x="114" y="104" width="11" height="11" fill="#fef0d9" rx="2"><title>2022-02-12: 13 commits</title></rect>
  <rect x="128" y="20" width="11" height="11" fill="#fef0d9" rx="2"><title>2022-02-13: 14 commits</title></rect>
  <rect x="128" y="34" width="11" height="11" fill="#d7301f" rx="2"><title>2022-02-14: 20 commits</title></rect>
  <rect x="128" y="48" width="11" height="11" fill="#d7301f" rx="2"><title>2022-02-15: 21 commits</title></rect>
  <rect x="128" y="62" width="11" height="11" fill="#d7301f" rx="2"><title>2022-02-16: 21 commits</title></rect>
  <rect x="128" y="76" width="11" height="11" fill="#d7301f" rx="2"><title>2022-02-17: 20 commits</title></rect>
  <rect x="128" y="90" width="11" height="11" fill="#fc8d59" rx="2"><title>2022-02-18: 19 commits</title></rect>
  <rect x="128" y="104" width="11" height="11" fill="#fdcc8a" rx="2"><title>2022-02-19: 16 commits</title></rect>
  <rect x="142" y="20" width="11" height="11" fill="#fef0d9" rx="2"><title>2022-02-20: 8 commits</title></rect>
  <rect x="142" y="34" width="11" height="11" fill="#fc8d59" rx="2"><title>2022-02-21: 18 commits</title></rect>
  <rect x="142" y="48" width="11" height="11" fill="#d7301f" rx="2"><title>2022-02-22: 22 commits</title></rect>
  <rect x="142" y="62" width="11" height="11" fill="#fc8d59" rx="2"><title>2022-02-23: 19 commits</title></rect>
  <rect x="142" y="76" width="11" height="11" fill="#fc8d59" rx="2"><title>2022-02-24: 19 commits</title></rect>
  <rect x="142" y="90" width="11" height="11" fill="#d7301f" rx="2"><title>2022-02-25: 20 commits</title></rect>
  <rect x="142" y="104" width="11" height="11" fill="#d7301f" rx="2"><title>2022-02-26: 20 commits</title></rect>
  <rect x="156" y="20" width="11" height="11" fill="#fef0d9" rx="2"><title>2022-02-27: 14 commits</title></rect>
  <rect x="156" y="34" width="11" height="11" fill="#fc8d59" rx="2"><title>2022-02-28: 19 commits</title></rect>
  <rect x="156" y="48" width="11" height="11" fill="#fc8d59" rx="2"><title>2022-03-01: 19 commits</title></rect>
  <rect x="156" y="62" width="11" height="11" fill="#fc8d59" rx="2"><title>2022-03-02: 19 commits</title></rect>
  <rect x="156" y="76" width="11" height="11" fill="#fc8d59" rx="2"><title>2022-03-03: 18 commits</title></rect>
  <rect x="156" y="90" width="11" height="11" fill="#fc8d59" rx="2"><title>2022-03-04: 18 commits</title></rect>
  <rect x="156" y="104" width="11" height="11" fill="#fdcc8a" rx="2"><title>2022-03-05: 17 commits</title></rect>
  <rect x="170" y="20" width="11" height="11" fill="#fc8d59" rx="2"><title>2022-03-06: 18 commits</title></rect>
  <rect x="170" y="34" width="11" height="11" fill="#d7301f" rx="2"><title>2022-03-07: 21 commits</title></rect>
  <rect x="170" y="48" width="11" height="11" fill="#fdcc8a" rx="2"><title>2022-03-08: 17 commits</title></rect>
  <rect x="170" y="62" width="11" height="11" fill="#fdcc8a" rx="2"><title>2022-03-09: 16 commits</title></rect>
  <rect x="170" y="76" width="11" height="11" fill="#fc8d59" rx="2"><title>2022-03-10: 19 commits</title></rect>
  <rect x="170" y="90" width="11" height="11" fill="#fdcc8a" rx="2"><title>2022-03-11: 16 commits</title></rect>
  <rect x="170" y="104" width="11" height="11" fill="#fef0d9" rx="2"><title>2022-03-12: 14 commits</title></rect>
  <rect x="184" y="20" width="11" height="11" fill="#fef0d9" rx="2"><title>2022-03-13: 14 commits</title></rect>
  <rect x="184" y="34" width="11" height="11" fill="#fc8d59" rx="2"><title>2022-03-14: 19 commits</title></rect>
  <rect x="184" y="48" width="11" height="11" fill="#fc8d59" rx="2"><title>2022-03-15: 18 commits</title></rect>
  <rect x="184" y="62" width="11" height="11" fill="#fc8d59" rx="2"><title>2022-03-16: 19 commits</title></rect>
  <rect x="184" y="76" width="11" height="11" fill="#d7301f" rx="2"><title>2022-03-17: 21 commits</title></rect>
  <rect x="184" y="90" width="11" height="11" fill="#fc8d59" rx="2"><title>2022-03-18: 19 commits</title></rect>
  <rect x="184" y="104" width="11" height="11" fill="#fdcc8a" rx="2"><title>2022-03-19: 17 commits</title></rect>
  <rect x="198" y="20" width="11" height="11" fill="#fef0d9" rx="2"><title>2022-03-20: 14 commits</title></rect>
  <rect x="198" y="34" width="11" height="11" fill="#fdcc8a" rx="2"><title>2022-03-21: 17 commits</title></rect>
  <rect x="198" y="48" width="11" height="11" fill="#d7301f" rx="2"><title>2022-03-22: 22 commits</title></rect>
  <rect x="198" y="62" width="11" height="11" fill="#fc8d59" rx="2"><title>2022-03-23: 18 commits</title></rect>
  <rect x="198" y="76" width="11" height="11" fill="#fdcc8a" rx="2"><title>2022-03-24: 15 commits</title></rect>
  <rect x="198" y="90" width="11" height="11" fill="#fdcc8a" rx="2"><title>2022-03-25: 16 commits</title></rect>
  <rect x="198" y="104" width="11" height="11" fill="#fdcc8a" rx="2"><title>2022-03-26: 16 commits</title></rect>
  <rect x="198" y="20" width="11" height="11" fill="#fdcc8a" rx="2"><title>2022-03-27: 15 commits</title></rect>
  <rect x="212" y="34" width="11" height="11" fill="#fdcc8a" rx="2"><title>2022-03-28: 17 commits</title></rect>
  <rect x="212" y="48" width="11" height="11" fill="#fdcc8a" rx="2"><title>2022-03-29: 17 commits</title></rect>
  <rect x="212" y="62" width="11" height="11" fill="#fc8d59" rx="2"><title>2022-03-30: 18 commits</title></rect>
  <rect x="212" y="76" width="11" height="11" fill="#fc8d59" rx="2"><title>2022-03-31: 19 commits</title></rect>
  <rect x="212" y="90" width="11" height="11" fill="#fdcc8a" rx="2"><title>2022-04-01: 16 commits</title></rect>
  <rect x="212" y="104" width="11" height="11" fill="#fef0d9" rx="2"><title>2022-04-02: 13 commits</title></rect>
  <rect x="212" y="20" width="11" height="11" fill="#fef0d9" rx="2"><title>2022-04-03: 9 commits</title></rect>
  <rect x="226" y="34" width="11" height="11" fill="#fdcc8a" rx="2"><title>2022-04-04: 17 commits</title></rect>
  <rect x="226" y="48" width="11" height="11" fill="#fc8d59" rx="2"><title>2022-04-05: 19 commits</title></rect>
  <rect x="226" y="62" width="11" height="11" fill="#d7301f" rx="2"><title>2022-04-06: 20 commits</title></rect>
  <rect x="226" y="76" width="11" height="11" fill="#d7301f" rx="2"><title>2022-04-07: 20 commits</title></rect>
  <rect x="226" y="90" width="11" height="11" fill="#fc8d59" rx="2"><title>2022-04-08: 19 commits</title></rect>
  <rect x="226" y="104" width="11" height="11" fill="#fef0d9" rx="2"><title>2022-04-09: 12 commits</title></rect>
  <rect x="226" y="20" width="11" height="11" fill="#fef0d9" rx="2"><title>2022-04-10: 13 commits</title></rect>
  <rect x="240" y="34" width="11" height="11" fill="#fc8d59" rx="2"><title>2022-04-11: 18 commits</title></rect>
  <rect x="240" y="48" width="11" height="11" fill="#d7301f" rx="2"><title>2022-04-12: 20 commits</title></rect>
  <rect x="240" y="62" width="11" height="11" fill="#d7301f" rx="2"><title>2022-04-13: 21 commits</title></rect>
  <rect x="240" y="76" width="11" height="11" fill="#d7301f" rx="2"><title>2022-04-14: 20 commits</title></rect>
  <rect x="240" y="90" width="11" height="11" fill="#fdcc8a" rx="2"><title>2022-04-15: 16 commits</title></rect>
  <rect x="240" y="104" width="11" height="11" fill="#fef0d9" rx="2"><title>2022-04-16: 12 commits</title></rect>
  <rect x="240" y="20" width="11" height="11" fill="#fef0d9" rx="2"><title>2022-04-17: 12 commits</title></rect>
  <rect x="254" y="34" width="11" height="11" fill="#fdcc8a" rx="2"><title>2022-04-18: 17 commits</title></rect>
  <rect x="254" y="48" width="11" height="11" fill="#fdcc8a" rx="2"><title>2022-04-19: 17 commits</title></rect>
  <rect x="254" y="62" width="11" height="11" fill="#fef0d9" rx="2"><title>2022-04-20: 13 commits</title></rect>
  <rect x="254" y="76" width="11" height="11" fill="#fef0d9" rx="2"><title>2022-04-21: 14 commits</title></rect>
  <rect x="254" y="90" width="11" height="11" fill="#fdcc8a" rx="2"><title>2022-04-22: 16 commits</title></rect>
  <rect x="254" y="104" width="11" height="11" fill="#fef0d9" rx="2"><title>2022-04-23: 10 commits</title></rect>
  <rect x="254" y="20" width="11" height="11" fill="#fef0d9" rx="2"><title>2022-04-24: 8 commits</title></rect>
  <rect x="268" y="34" width="11" height="11" fill="#fef0d9" rx="2"><title>2022-04-25: 6 commits</title></rect>
  <rect x="268" y="48" width="11" height="11" fill="#fef0d9" rx="2"><title>2022-04-26: 10 commits</title></rect>
  <rect x="268" y="62" width="11" height="11" fill="#fdcc8a" rx="2"><title>2022-04-27: 15 commits</title></rect>
  <rect x="268" y="76" width="11" height="11" fill="#d7301f" rx="2"><title>2022-04-28: 21 commits</title></rect>
  <rect x="268" y="90" width="11" height="11" fill="#fef0d9" rx="2"><title>2022-04-29: 12 commits</title></rect>
  <rect x="268" y="104" width="11" height="11" fill="#fc8d59" rx="2"><title>2022-04-30: 18 commits</title></rect>
  <rect x="268" y="20" width="11" height="11" fill="#fef0d9" rx="2"><title>2022-05-01: 9 commits</title></rect>
  <rect x="282" y="34" width="11" height="11" fill="#fdcc8a" rx="2"><title>2022-05-02: 16 commits</title></rect>
  <rect x="282" y="48" width="11" height="11" fill="#fdcc8a" rx="2"><title>2022-05-03: 17 commits</title></rect>
  <rect x="282" y="62" width="11" height="11" fill="#fdcc8a" rx="2"><title>2022-05-04: 15 commits</title></rect>
  <rect x="282" y="76" width="11" height="11" fill="#fc8d59" rx="2"><title>2022-05-05: 19 commits</title></rect>
  <rect x="282" y="90" width="11" height="11" fill="#fef0d9" rx="2"><title>2022-05-06: 14 commits</title></rect>
  <rect x="282" y="104" width="11" height="11" fill="#fef0d9" rx="2"><title>2022-05-07: 7 commits</title></rect>
  <rect x="282" y="20" width="11" height="11" fill="#fef0d9" rx="2"><title>2022-05-08: 4 commits</title></rect>
  <rect x="296" y="34" width="11" height="11" fill="#fef0d9" rx="2"><title>2022-05-09: 14 commits</title></rect>
  <rect x="296" y="48" width="11" height="11" fill="#fef0d9" rx="2"><title>2022-05-10: 13 commits</title></rect>
  <rect x="296" y="62" width="11" height="11" fill="#fdcc8a" rx="2"><title>2022-05-11: 15 commits</title></rect>
  <rect x="296" y="76" width="11" height="11" fill="#fdcc8a" rx="2"><title>2022-05-12: 16 commits</title></rect>
  <rect x="296" y="90" width="11" height="11" fill="#fdcc8a" rx="2"><title>2022-05-13: 15 commits</title></rect>
  <rect x="296" y="104" width="11" height="11" fill="#fef0d9" rx="2"><title>2022-05-14: 3 commits</title></rect>
  <rect x="296" y="20" width="11" height="11" fill="#fef0d9" rx="2"><title>2022-05-15: 6 commits</title></rect>
  <rect x="310" y="34" width="11" height="11" fill="#fef0d9" rx="2"><title>2022-05-16: 13 commits</title></rect>
  <rect x="310" y="48" width="11" height="11" fill="#fef0d9" rx="2"><title>2022-05-17: 14 commits</title></rect>
  <rect x="310" y="62" width="11" height="11" fill="#fc8d59" rx="2"><title>2022-05-18: 18 commits</title></rect>
  <rect x="310" y="76" width="11" height="11" fill="#fef0d9" rx="2"><title>2022-05-19: 14 commits</title></rect>
  <rect x="310" y="90" width="11" height="11" fill="#fdcc8a" rx="2"><title>2022-05-20: 16 commits</title></rect>
  <rect x="310" y="104" width="11" height="11" fill="#fef0d9" rx="2"><title>2022-05-21: 5 commits</title></rect>
  <rect x="310" y="20" width="11" height="11" fill="#fef0d9" rx="2"><title>2022-05-22: 5 commits</title></rect>
  <rect x="324" y="34" width="11" height="11" fill="#fdcc8a" rx="2"><title>2022-05-23: 15 commits</title></rect>
  <rect x="324" y="48" width="11" height="11" fill="#fdcc8a" rx="2"><title>2022-05-24: 15 commits</title></rect>
  <rect x="324" y="62" width="11" height="11" fill="#fdcc8a" rx="2"><title>2022-05-25: 17 commits</title></rect>
  <rect x="324" y="76" width="11" height="11" fill="#fdcc8a" rx="2"><title>2022-05-26: 16 commits</title></rect>
  <rect x="324" y="90" width="11" height="11" fill="#fdcc8a" rx="2"><title>2022-05-27: 16 commits</title></rect>
  <rect x="324" y="104" width="11" height="11" fill="#fef0d9" rx="2"><title>2022-05-28: 11 commits</title></rect>
  <rect x="324" y="20" width="11" height="11" fill="#fef0d9" rx="2"><title>2022-05-29: 4 commits</title></rect>
  <rect x="338" y="34" width="11" height="11" fill="#fdcc8a" rx="2"><title>2022-05-30: 15 commits</title></rect>
  <rect x="338" y="48" width="11" height="11" fill="#fdcc8a" rx="2"><title>2022-05-31: 16 commits</title></rect>
  <rect x="338" y="62" width="11" height="11" fill="#fef0d9" rx="2"><title>2022-06-01: 13 commits</title></rect>
  <rect x="338" y="76" width="11" height="11" fill="#fef0d9" rx="2"><title>2022-06-02: 14 commits</title></rect>
  <rect x="338" y="90" width="11" height="11" fill="#fef0d9" rx="2"><title>2022-06-03: 14 commits</title></rect>
  <rect x="338" y="104" width="11" height="11" fill="#fef0d9" rx="2"><title>2022-06-04: 5 commits</title></rect>
  <rect x="338" y="20" width="11" height="11" fill="#fef0d9" rx="2"><title>2022-06-05: 7 commits</title></rect>
  <rect x="352" y="34" width="11" height="11" fill="#fdcc8a" rx="2"><title>2022-06-06: 16 commits</title></rect>
  <rect x="352" y="48" width="11" height="11" fill="#fdcc8a" rx="2"><title>2022-06-07: 16 commits</title></rect>
  <rect x="352" y="62" width="11" height="11" fill="#fc8d59" rx="2"><title>2022-06-08: 18 commits</title></rect>
  <rect x="352" y="76" width="11" height="11" fill="#fdcc8a" rx="2"><title>2022-06-09: 17 commits</title></rect>
  <rect x="352" y="90" width="11" height="11" fill="#fdcc8a" rx="2"><title>2022-06-10: 15 commits</title></rect>
  <rect x="352" y="104" width="11" height="11" fill="#fef0d9" rx="2"><title>2022-06-11: 11 commits</title></rect>
  <rect x="352" y="20" width="11" height="11" fill="#fef0d9" rx="2"><title>2022-06-12: 2 commits</title></rect>
  <rect x="366" y="34" width="11" height="11" fill="#161b22" rx="2"><title>2022-06-13: 0 commits</title></rect>
  <rect x="366" y="48" width="11" height="11" fill="#fef0d9" rx="2"><title>2022-06-14: 14 commits</title></rect>
  <rect x="366" y="62" width="11" height="11" fill="#fdcc8a" rx="2"><title>2022-06-15: 15 commits</title></rect>
  <rect x="366" y="76" width="11" height="11" fill="#fc8d59" rx="2"><title>2022-06-16: 19 commits</title></rect>
  <rect x="366" y="90" width="11" height="11" fill="#fc8d59" rx="2"><title>2022-06-17: 19 commits</title></rect>
  <rect x="366" y="104" width="11" height="11" fill="#fef0d9" rx="2"><title>2022-06-18: 9 commits</title></rect>
  <rect x="366" y="20" width="11" height="11" fill="#fef0d9" rx="2"><title>2022-06-19: 9 commits</title></rect>
  <rect x="380" y="34" width="11" height="11" fill="#fdcc8a" rx="2"><title>2022-06-20: 16 commits</title></rect>
  <rect x="380" y="48" width="11" height="11" fill="#fef0d9" rx="2"><title>2022-06-21: 1 commits</title></rect>
  <rect x="380" y="62" width="11" height="11" fill="#161b22" rx="2"><title>2022-06-22: 0 commits</title></rect>
  <rect x="380" y="76" width="11" height="11" fill="#161b22" rx="2"><title>2022-06-23: 0 commits</title></rect>
  <rect x="380" y="90" width="11" height="11" fill="#161b22" rx="2"><title>2022-06-24: 0 commits</title></rect>
  <rect x="380" y="104" width="11" height="11" fill="#fdcc8a" rx="2"><title>2022-06-25: 15 commits</title></rect>
  <rect x="380" y="20" width="11" height="11" fill="#fef0d9" rx="2"><title>2022-06-26: 14 commits</title></rect>
  <rect x="394" y="34" width="11" height="11" fill="#fef0d9" rx="2"><title>2022-06-27: 13 commits</title></rect>
  <rect x="394" y="48" width="11" height="11" fill="#fdcc8a" rx="2"><title>2022-06-28: 17 commits</title></rect>
  <rect x="394" y="62" width="11" height="11" fill="#fef0d9" rx="2"><title>2022-06-29: 13 commits</title></rect>
  <rect x="394" y="76" width="11" height="11" fill="#fef0d9" rx="2"><title>2022-06-30: 9 commits</title></rect>
  <rect x="394" y="90" width="11" height="11" fill="#d7301f" rx="2"><title>2022-07-01: 20 commits</title></rect>
  <rect x="394" y="104" width="11" height="11" fill="#fef0d9" rx="2"><title>2022-07-02: 11 commits</title></rect>
  <rect x="394" y="20" width="11" height="11" fill="#fef0d9" rx="2"><title>2022-07-03: 10 commits</title></rect>
  <rect x="408" y="34" width="11" height="11" fill="#fc8d59" rx="2"><title>2022-07-04: 18 commits</title></rect>
  <rect x="408" y="48" width="11" height="11" fill="#fdcc8a" rx="2"><title>2022-07-05: 15 commits</title></rect>
  <rect x="408" y="62" width="11" height="11" fill="#fdcc8a" rx="2"><title>2022-07-06: 15 commits</title></rect>
  <rect x="408" y="76" width="11" height="11" fill="#d7301f" rx="2"><title>2022-07-07: 21 commits</title></rect>
  <rect x="408" y="90" width="11" height="11" fill="#d7301f" rx="2"><title>2022-07-08: 20 commits</title></rect>
  <rect x="408" y="104" width="11" height="11" fill="#fef0d9" rx="2"><title>2022-07-09: 12 commits</title></rect>
  <rect x="408" y="20" width="11" height="11" fill="#fef0d9" rx="2"><title>2022-07-10: 11 commits</title></rect>
  <rect x="422" y="34" width="11" height="11" fill="#fdcc8a" rx="2"><title>2022-07-11: 16 commits</title></rect>
  <rect x="422" y="48" width="11" height="11" fill="#fdcc8a" rx="2"><title>2022-07-12: 17 commits</title></rect>
  <rect x="422" y="62" width="11" height="11" fill="#fc8d59" rx="2"><title>2022-07-13: 18 commits</title></rect>
  <rect x="422" y="76" width="11" height="11" fill="#fdcc8a" rx="2"><title>2022-07-14: 17 commits</title></rect>
  <rect x="422" y="90" width="11" height="11" fill="#fef0d9" rx="2"><title>2022-07-15: 14 commits</title></rect>
  <rect x="422" y="104" width="11" height="11" fill="#fef0d9" rx="2"><title>2022-07-16: 8 commits</title></rect>
  <rect x="422" y="20" width="11" height="11" fill="#fef0d9" rx="2"><title>2022-07-17: 7 commits</title></rect>
  <rect x="436" y="34" width="11" height="11" fill="#fc8d59" rx="2"><title>2022-07-18: 18 commits</title></rect>
  <rect x="436" y="48" width="11" height="11" fill="#fdcc8a" rx="2"><title>2022-07-19: 16 commits</title></rect>
  <rect x="436" y="62" width="11" height="11" fill="#fdcc8a" rx="2"><title>2022-07-20: 17 commits</title></rect>
  <rect x="436" y="76" width="11" height="11" fill="#fdcc8a" rx="2"><title>2022-07-21: 17 commits</title></rect>
  <rect x="436" y="90" width="11" height="11" fill="#fdcc8a" rx="2"><title>2022-07-22: 17 commits</title></rect>
  <rect x="436" y="104" width="11" height="11" fill="#fef0d9" rx="2"><title>2022-07-23: 13 commits</title></rect>
  <rect x="436" y="20" width="11" height="11" fill="#fef0d9" rx="2"><title>2022-07-24: 9 commits</title></rect>
  <rect x="450" y="34" width="11" height="11" fill="#fdcc8a" rx="2"><title>2022-07-25: 16 commits</title></rect>
  <rect x="450" y="48" width="11" height="11" fill="#fc8d59" rx="2"><title>2022-07-26: 18 commits</title></rect>
  <rect x="450" y="62" width="11" height="11" fill="#fdcc8a" rx="2"><title>2022-07-27: 16 commits</title></rect>
  <rect x="450" y="76" width="11" height="11" fill="#fc8d59" rx="2"><title>2022-07-28: 18 commits</title></rect>
  <rect x="450" y="90" width="11" height="11" fill="#fef0d9" rx="2"><title>2022-07-29: 14 commits</title></rect>
  <rect x="450" y="104" width="11" height="11" fill="#fef0d9" rx="2"><title>2022-07-30: 11 commits</title></rect>
  <rect x="450" y="20" width="11" height="11" fill="#fef0d9" rx="2"><title>2022-07-31: 5 commits</title></rect>
  <rect x="464" y="34" width="11" height="11" fill="#fef0d9" rx="2"><title>2022-08-01: 12 commits</title></rect>
  <rect x="464" y="48" width="11" height="11" fill="#fdcc8a" rx="2"><title>2022-08-02: 16 commits</title></rect>
  <rect x="464" y="62" width="11" height="11" fill="#fdcc8a" rx="2"><title>2022-08-03: 17 commits</title></rect>
  <rect x="464" y="76" width="11" height="11" fill="#fdcc8a" rx="2"><title>2022-08-04: 16 commits</title></rect>
  <rect x="464" y="90" width="11" height="11" fill="#fc8d59" rx="2"><title>2022-08-05: 19 commits</title></rect>
  <rect x="464" y="104" width="11" height="11" fill="#fef0d9" rx="2"><title>2022-08-06: 12 commits</title></rect>
  <rect x="464" y="20" width="11" height="11" fill="#fef0d9" rx="2"><title>2022-08-07: 6 commits</title></rect>
  <rect x="478" y="34" width="11" height="11" fill="#fdcc8a" rx="2"><title>2022-08-08: 16 commits</title></rect>
  <rect x="478" y="48" width="11" height="11" fill="#fdcc8a" rx="2"><title>2022-08-09: 17 commits</title></rect>
  <rect x="478" y="62" width="11" height="11" fill="#fef0d9" rx="2"><title>2022-08-10: 13 commits</title></rect>
  <rect x="478" y="76" width="11" height="11" fill="#fdcc8a" rx="2"><title>2022-08-11: 15 commits</title></rect>
  <rect x="478" y="90" width="11" height="11" fill="#fdcc8a" rx="2"><title>2022-08-12: 15 commits</title></rect>
  <rect x="478" y="104" width="11" height="11" fill="#fef0d9" rx="2"><title>2022-08-13: 8 commits</title></rect>
  <rect x="478" y="20" width="11" height="11" fill="#fef0d9" rx="2"><title>2022-08-14: 2 commits</title></rect>
  <rect x="492" y="34" width="11" height="11" fill="#fef0d9" rx="2"><title>2022-08-15: 6 commits</title></rect>
  <rect x="492" y="48" width="11" height="11" fill="#fef0d9" rx="2"><title>2022-08-16: 14 commits</title></rect>
  <rect x="492" y="62" width="11" height="11" fill="#fdcc8a" rx="2"><title>2022-08-17: 16 commits</title></rect>
  <rect x="492" y="76" width="11" height="11" fill="#fdcc8a" rx="2"><title>2022-08-18: 15 commits</title></rect>
  <rect x="492" y="90" width="11" height="11" fill="#fdcc8a" rx="2"><title>2022-08-19: 15 commits</title></rect>
  <rect x="492" y="104" width="11" height="11" fill="#fef0d9" rx="2"><title>2022-08-20: 5 commits</title></rect>
  <rect x="492" y="20" width="11" height="11" fill="#fef0d9" rx="2"><title>2022-08-21: 5 commits</title></rect>
  <rect x="506" y="34" width="11" height="11" fill="#fef0d9" rx="2"><title>2022-08-22: 12 commits</title></rect>
  <rect x="506" y="48" width="11" height="11" fill="#fef0d9" rx="2"><title>2022-08-23: 14 commits</title></rect>
  <rect x="506" y="62" width="11" height="11" fill="#fdcc8a" rx="2"><title>2022-08-24: 16 commits</title></rect>
  <rect x="506" y="76" width="11" height="11" fill="#fc8d59" rx="2"><title>2022-08-25: 19 commits</title></rect>
  <rect x="506" y="90" width="11" height="11" fill="#fc8d59" rx="2"><title>2022-08-26: 19 commits</title></rect>
  <rect x="506" y="104" width="11" height="11" fill="#fef0d9" rx="2"><title>2022-08-27: 4 commits</title></rect>
  <rect x="506" y="20" width="11" height="11" fill="#fef0d9" rx="2"><title>2022-08-28: 9 commits</title></rect>
  <rect x="520" y="34" width="11" height="11" fill="#fef0d9" rx="2"><title>2022-08-29: 11 commits</title></rect>
  <rect x="520" y="48" width="11" height="11" fill="#fef0d9" rx="2"><title>2022-08-30: 14 commits</title></rect>
  <rect x="520" y="62" width="11" height="11" fill="#fdcc8a" rx="2"><title>2022-08-31: 15 commits</title></rect>
  <rect x="520" y="76" width="11" height="11" fill="#fdcc8a" rx="2"><title>2022-09-01: 15 commits</title></rect>
  <rect x="520" y="90" width="11" height="11" fill="#fef0d9" rx="2"><title>2022-09-02: 14 commits</title></rect>
  <rect x="520" y="104" width="11" height="11" fill="#fef0d9" rx="2"><title>2022-09-03: 13 commits</title></rect>
  <rect x="520" y="20" width="11" height="11" fill="#fef0d9" rx="2"><title>2022-09-04: 8 commits</title></rect>
  <rect x="534" y="34" width="11" height="11" fill="#fc8d59" rx="2"><title>2022-09-05: 18 commits</title></rect>
  <rect x="534" y="48" width="11" height="11" fill="#fdcc8a" rx="2"><title>2022-09-06: 17 commits</title></rect>
  <rect x="534" y="62" width="11" height="11" fill="#fc8d59" rx="2"><title>2022-09-07: 18 commits</title></rect>
  <rect x="534" y="76" width="11" height="11" fill="#fc8d59" rx="2"><title>2022-09-08: 18 commits</title></rect>
  <rect x="534" y="90" width="11" height="11" fill="#d7301f" rx="2"><title>2022-09-09: 20 commits</title></rect>
  <rect x="534" y="104" width="11" height="11" fill="#fdcc8a" rx="2"><title>2022-09-10: 17 commits</title></rect>
  <rect x="534" y="20" width="11" height="11" fill="#fdcc8a" rx="2"><title>2022-09-11: 16 commits</title></rect>
  <rect x="548" y="34" width="11" height="11" fill="#fdcc8a" rx="2"><title>2022-09-12: 16 commits</title></rect>
  <rect x="548" y="48" width="11" height="11" fill="#fc8d59" rx="2"><title>2022-09-13: 19 commits</title></rect>
  <rect x="548" y="62" width="11" height="11" fill="#fc8d59" rx="2"><title>2022-09-14: 19 commits</title></rect>
  <rect x="548" y="76" width="11" height="11" fill="#fc8d59" rx="2"><title>2022-09-15: 18 commits</title></rect>
  <rect x="548" y="90" width="11" height="11" fill="#fef0d9" rx="2"><title>2022-09-16: 14 commits</title></rect>
  <rect x="548" y="104" width="11" height="11" fill="#fef0d9" rx="2"><title>2022-09-17: 9 commits</title></rect>
  <rect x="548" y="20" width="11" height="11" fill="#fef0d9" rx="2"><title>2022-09-18: 7 commits</title></rect>
  <rect x="562" y="34" width="11" height="11" fill="#fdcc8a" rx="2"><title>2022-09-19: 15 commits</title></rect>
  <rect x="562" y="48" width="11" height="11" fill="#fdcc8a" rx="2"><title>2022-09-20: 17 commits</title></rect>
  <rect x="562" y="62" width="11" height="11" fill="#fc8d59" rx="2"><title>2022-09-21: 19 commits</title></rect>
  <rect x="562" y="76" width="11" height="11" fill="#fc8d59" rx="2"><title>2022-09-22: 18 commits</title></rect>
  <rect x="562" y="90" width="11" height="11" fill="#fdcc8a" rx="2"><title>2022-09-23: 16 commits</title></rect>
  <rect x="562" y="104" width="11" height="11" fill="#fef0d9" rx="2"><title>2022-09-24: 8 commits</title></rect>
  <rect x="562" y="20" width="11" height="11" fill="#fef0d9" rx="2"><title>2022-09-25: 12 commits</title></rect>
  <rect x="576" y="34" width="11" height="11" fill="#fdcc8a" rx="2"><title>2022-09-26: 16 commits</title></rect>
  <rect x="576" y="48" width="11" height="11" fill="#fc8d59" rx="2"><title>2022-09-27: 19 commits</title></rect>
  <rect x="576" y="62" width="11" height="11" fill="#fdcc8a" rx="2"><title>2022-09-28: 15 commits</title></rect>
  <rect x="576" y="76" width="11" height="11" fill="#fc8d59" rx="2"><title>2022-09-29: 19 commits</title></rect>
  <rect x="576" y="90" width="11" height="11" fill="#fdcc8a" rx="2"><title>2022-09-30: 15 commits</title></rect>
  <rect x="576" y="104" width="11" height="11" fill="#fef0d9" rx="2"><title>2022-10-01: 6 commits</title></rect>
  <rect x="576" y="20" width="11" height="11" fill="#fef0d9" rx="2"><title>2022-10-02: 10 commits</title></rect>
  <rect x="590" y="34" width="11" height="11" fill="#fdcc8a" rx="2"><title>2022-10-03: 15 commits</title></rect>
  <rect x="590" y="48" width="11" height="11" fill="#fdcc8a" rx="2"><title>2022-10-04: 17 commits</title></rect>
  <rect x="590" y="62" width="11" height="11" fill="#fdcc8a" rx="2"><title>2022-10-05: 16 commits</title></rect>
  <rect x="590" y="76" width="11" height="11" fill="#fc8d59" rx="2"><title>2022-10-06: 18 commits</title></rect>
  <rect x="590" y="90" width="11" height="11" fill="#fc8d59" rx="2"><title>2022-10-07: 19 commits</title></rect>
  <rect x="590" y="104" width="11" height="11" fill="#fef0d9" rx="2"><title>2022-10-08: 13 commits</title></rect>
  <rect x="590" y="20" width="11" height="11" fill="#fef0d9" rx="2"><title>2022-10-09: 12 commits</title></rect>
  <rect x="604" y="34" width="11" height="11" fill="#fdcc8a" rx="2"><title>2022-10-10: 16 commits</title></rect>
  <rect x="604" y="48" width="11" height="11" fill="#fc8d59" rx="2"><title>2022-10-11: 18 commits</title></rect>
  <rect x="604" y="62" width="11" height="11" fill="#fc8d59" rx="2"><title>2022-10-12: 19 commits</title></rect>
  <rect x="604" y="76" width="11" height="11" fill="#fc8d59" rx="2"><title>2022-10-13: 18 commits</title></rect>
  <rect x="604" y="90" width="11" height="11" fill="#d7301f" rx="2"><title>2022-10-14: 20 commits</title></rect>
  <rect x="604" y="104" width="11" height="11" fill="#fdcc8a" rx="2"><title>2022-10-15: 17 commits</title></rect>
  <rect x="604" y="20" width="11" height="11" fill="#fef0d9" rx="2"><title>2022-10-16: 13 commits</title></rect>
  <rect x="618" y="34" width="11" height="11" fill="#fdcc8a" rx="2"><title>2022-10-17: 16 commits</title></rect>
  <rect x="618" y="48" width="11" height="11" fill="#fdcc8a" rx="2"><title>2022-10-18: 16 commits</title></rect>
  <rect x="618" y="62" width="11" height="11" fill="#d7301f" rx="2"><title>2022-10-19: 21 commits</title></rect>
  <rect x="618" y="76" width="11" height="11" fill="#fdcc8a" rx="2"><title>2022-10-20: 17 commits</title></rect>
  <rect x="618" y="90" width="11" height="11" fill="#fc8d59" rx="2"><title>2022-10-21: 19 commits</title></rect>
  <rect x="618" y="104" width="11" height="11" fill="#fc8d59" rx="2"><title>2022-10-22: 19 commits</title></rect>
  <rect x="618" y="20" width="11" height="11" fill="#fdcc8a" rx="2"><title>2022-10-23: 16 commits</title></rect>
  <rect x="632" y="34" width="11" height="11" fill="#fc8d59" rx="2"><title>2022-10-24: 18 commits</title></rect>
  <rect x="632" y="48" width="11" height="11" fill="#d7301f" rx="2"><title>2022-10-25: 21 commits</title></rect>
  <rect x="632" y="62" width="11" height="11" fill="#d7301f" rx="2"><title>2022-10-26: 21 commits</title></rect>
  <rect x="632" y="76" width="11" height="11" fill="#fdcc8a" rx="2"><title>2022-10-27: 16 commits</title></rect>
  <rect x="632" y="90" width="11" height="11" fill="#fdcc8a" rx="2"><title>2022-10-28: 16 commits</title></rect>
  <rect x="632" y="104" width="11" height="11" fill="#fc8d59" rx="2"><title>2022-10-29: 18 commits</title></rect>
  <rect x="646" y="20" width="11" height="11" fill="#fef0d9" rx="2"><title>2022-10-30: 14 commits</title></rect>
  <rect x="646" y="34" width="11" height="11" fill="#d7301f" rx="2"><title>2022-10-31: 20 commits</title></rect>
  <rect x="646" y="48" width="11" height="11" fill="#fc8d59" rx="2"><title>2022-11-01: 19 commits</title></rect>
  <rect x="646" y="62" width="11" height="11" fill="#fc8d59" rx="2"><title>2022-11-02: 19 commits</title></rect>
  <rect x="646" y="76" width="11" height="11" fill="#fc8d59" rx="2"><title>2022-11-03: 19 commits</title></rect>
  <rect x="646" y="90" width="11" height="11" fill="#fc8d59" rx="2"><title>2022-11-04: 18 commits</title></rect>
  <rect x="646" y="104" width="11" height="11" fill="#fdcc8a" rx="2"><title>2022-11-05: 15 commits</title></rect>
  <rect x="660" y="20" width="11" height="11" fill="#fef0d9" rx="2"><title>2022-11-06: 13 commits</title></rect>
  <rect x="660" y="34" width="11" height="11" fill="#fdcc8a" rx="2"><title>2022-11-07: 17 commits</title></rect>
  <rect x="660" y="48" width="11" height="11" fill="#fc8d59" rx="2"><title>2022-11-08: 19 commits</title></rect>
  <rect x="660" y="62" width="11" height="11" fill="#fdcc8a" rx="2"><title>2022-11-09: 17 commits</title></rect>
  <rect x="660" y="76" width="11" height="11" fill="#fdcc8a" rx="2"><title>2022-11-10: 17 commits</title></rect>
  <rect x="660" y="90" width="11" height="11" fill="#fc8d59" rx="2"><title>2022-11-11: 19 commits</title></rect>
  <rect x="660" y="104" width="11" height="11" fill="#d7301f" rx="2"><title>2022-11-12: 20 commits</title></rect>
  <rect x="674" y="20" width="11" height="11" fill="#fef0d9" rx="2"><title>2022-11-13: 12 commits</title></rect>
  <rect x="674" y="34" width="11" height="11" fill="#fc8d59" rx="2"><title>2022-11-14: 19 commits</title></rect>
  <rect x="674" y="48" width="11" height="11" fill="#fc8d59" rx="2"><title>2022-11-15: 19 commits</title></rect>
  <rect x="674" y="62" width="11" height="11" fill="#d7301f" rx="2"><title>2022-11-16: 20 commits</title></rect>
  <rect x="674" y="76" width="11" height="11" fill="#d7301f" rx="2"><title>2022-11-17: 20 commits</title></rect>
  <rect x="674" y="90" width="11" height="11" fill="#fc8d59" rx="2"><title>2022-11-18: 18 commits</title></rect>
  <rect x="674" y="104" width="11" height="11" fill="#fc8d59" rx="2"><title>2022-11-19: 19 commits</title></rect>
  <rect x="688" y="20" width="11" height="11" fill="#fc8d59" rx="2"><title>2022-11-20: 19 commits</title></rect>
  <rect x="688" y="34" width="11" height="11" fill="#d7301f" rx="2"><title>2022-11-21: 20 commits</title></rect>
  <rect x="688" y="48" width="11" height="11" fill="#d7301f" rx="2"><title>2022-11-22: 22 commits</title></rect>
  <rect x="688" y="62" width="11" height="11" fill="#fc8d59" rx="2"><title>2022-11-23: 18 commits</title></rect>
  <rect x="688" y="76" width="11" height="11" fill="#d7301f" rx="2"><title>2022-11-24: 20 commits</title></rect>
  <rect x="688" y="90" width="11" height="11" fill="#d7301f" rx="2"><title>2022-11-25: 21 commits</title></rect>
  <rect x="688" y="104" width="11" height="11" fill="#fc8d59" rx="2"><title>2022-11-26: 18 commits</title></rect>
  <rect x="702" y="20" width="11" height="11" fill="#fc8d59" rx="2"><title>2022-11-27: 18 commits</title></rect>
  <rect x="702" y="34" width="11" height="11" fill="#fc8d59" rx="2"><title>2022-11-28: 18 commits</title></rect>
  <rect x="702" y="48" width="11" height="11" fill="#d7301f" rx="2"><title>2022-11-29: 20 commits</title></rect>
  <rect x="702" y="62" width="11" height="11" fill="#fc8d59" rx="2"><title>2022-11-30: 18 commits</title></rect>
  <rect x="702" y="76" width="11" height="11" fill="#fef0d9" rx="2"><title>2022-12-01: 14 commits</title></rect>
  <rect x="702" y="90" width="11" height="11" fill="#fef0d9" rx="2"><title>2022-12-02: 14 commits</title></rect>
  <rect x="702" y="104" width="11" height="11" fill="#fdcc8a" rx="2"><title>2022-12-03: 17 commits</title></rect>
  <rect x="716" y="20" width="11" height="11" fill="#fdcc8a" rx="2"><title>2022-12-04: 17 commits</title></rect>
  <rect x="716" y="34" width="11" height="11" fill="#d7301f" rx="2"><title>2022-12-05: 20 commits</title></rect>
  <rect x="716" y="48" width="11" height="11" fill="#fc8d59" rx="2"><title>2022-12-06: 19 commits</title></rect>
  <rect x="716" y="62" width="11" height="11" fill="#fc8d59" rx="2"><title>2022-12-07: 18 commits</title></rect>
  <rect x="716" y="76" width="11" height="11" fill="#d7301f" rx="2"><title>2022-12-08: 21 commits</title></rect>
  <rect x="716" y="90" width="11" height="11" fill="#d7301f" rx="2"><title>2022-12-09: 20 commits</title></rect>
  <rect x="716" y="104" width="11" height="11" fill="#fc8d59" rx="2"><title>2022-12-10: 18 commits</title></rect>
  <rect x="730" y="20" width="11" height="11" fill="#fef0d9" rx="2"><title>2022-12-11: 14 commits</title></rect>
  <rect x="730" y="34" width="11" height="11" fill="#fc8d59" rx="2"><title>2022-12-12: 18 commits</title></rect>
  <rect x="730" y="48" width="11" height="11" fill="#fc8d59" rx="2"><title>2022-12-13: 18 commits</title></rect>
  <rect x="730" y="62" width="11" height="11" fill="#fc8d59" rx="2"><title>2022-12-14: 19 commits</title></rect>
  <rect x="730" y="76" width="11" height="11" fill="#d7301f" rx="2"><title>2022-12-15: 20 commits</title></rect>
  <rect x="730" y="90" width="11" height="11" fill="#fc8d59" rx="2"><title>2022-12-16: 18 commits</title></rect>
  <rect x="730" y="104" width="11" height="11" fill="#fef0d9" rx="2"><title>2022-12-17: 10 commits</title></rect>
  <rect x="744" y="20" width="11" height="11" fill="#fef0d9" rx="2"><title>2022-12-18: 12 commits</title></rect>
  <rect x="744" y="34" width="11" height="11" fill="#fc8d59" rx="2"><title>2022-12-19: 19 commits</title></rect>
  <rect x="744" y="48" width="11" height="11" fill="#d7301f" rx="2"><title>2022-12-20: 21 commits</title></rect>
  <rect x="744" y="62" width="11" height="11" fill="#d7301f" rx="2"><title>2022-12-21: 20 commits</title></rect>
  <rect x="744" y="76" width="11" height="11" fill="#fdcc8a" rx="2"><title>2022-12-22: 17 commits</title></rect>
  <rect x="744" y="90" width="11" height="11" fill="#fdcc8a" rx="2"><title>2022-12-23: 17 commits</title></rect>
  <rect x="744" y="104" width="11" height="11" fill="#fdcc8a" rx="2"><title>2022-12-24: 17 commits</title></rect>
  <rect x="758" y="20" width="11" height="11" fill="#fdcc8a" rx="2"><title>2022-12-25: 15 commits</title></rect>
  <rect x="758" y="34" width="11" height="11" fill="#fef0d9" rx="2"><title>2022-12-26: 9 commits</title></rect>
  <rect x="758" y="48" width="11" height="11" fill="#fdcc8a" rx="2"><title>2022-12-27: 16 commits</title></rect>
  <rect x="758" y="62" width="11" height="11" fill="#d7301f" rx="2"><title>2022-12-28: 20 commits</title></rect>
  <rect x="758" y="76" width="11" height="11" fill="#fc8d59" rx="2"><title>2022-12-29: 19 commits</title></rect>
  <rect x="758" y="90" width="11" height="11" fill="#fdcc8a" rx="2"><title>2022-12-30: 15 commits</title></rect>
  <text x="30" y="133" class="title">2022 - 5,669 data updates</text>
  <text x="632" y="133" class="legend">Less</text>
  <rect x="662" y="123" width="11" height="11" fill="#161b22" rx="2"/>
  <rect x="676" y="123" width="11" height="11" fill="#fef0d9" rx="2"/>
  <rect x="690" y="123" width="11" height="11" fill="#fdcc8a" rx="2"/>
  <rect x="704" y="123" width="11" height="11" fill="#fc8d59" rx="2"/>
  <rect x="718" y="123" width="11" height="11" fill="#d7301f" rx="2"/>
  <text x="737" y="133" class="legend">More</text>
</svg>