<svg width="782" height="148" xmlns="http://www.w3.org/2000/svg">
  <style>
    .month { font: 10px sans-serif; fill: #8b949e; }
    .day { font: 10px sans-serif; fill: #8b949e; }
    .title { font: bold 14px sans-serif; fill: #c9d1d9; }
    .legend { font: 10px sans-serif; fill: #8b949e; }
  </style>
  <rect width="100%" height="100%" fill="#0d1117"/>
  <text x="0" y="29" class="day">Mon</text>
  <text x="0" y="57" class="day">Wed</text>
  <text x="0" y="85" class="day">Fri</text>
  <text x="0" y="113" class="day">Sun</text>
  <text x="30" y="15" class="month">Jan</text>
  <text x="100" y="15" class="month">Feb</text>
  <text x="156" y="15" class="month">Mar</text>
  <text x="212" y="15" class="month">Apr</text>
  <text x="282" y="15" class="month">May</text>
  <text x="338" y="15" class="month">Jun</text>
  <text x="394" y="15" class="month">Jul</text>
  <text x="464" y="15" class="month">Aug</text>
  <text x="520" y="15" class="month">Sep</text>
  <text x="576" y="15" class="month">Oct</text>
  <text x="646" y="15" class="month">Nov</text>
  <text x="702" y="15" class="month">Dec</text>
  <rect x="30" y="104" width="11" height="11" fill="#fef0d9" rx="2"><title>2022-12-31: 14 commits</title></rect>
  <rect x="44" y="20" width="11" height="11" fill="#fef0d9" rx="2"><title>2023-01-01: 2 commits</title></rect>
  <rect x="44" y="34" width="11" height="11" fill="#fef0d9" rx="2"><title>2023-01-02: 2 commits</title></rect>
  <rect x="44" y="48" width="11" height="11" fill="#fef0d9" rx="2"><title>2023-01-03: 13 commits</title></rect>
  <rect x="44" y="62" width="11" height="11" fill="#fc8d59" rx="2"><title>2023-01-04: 19 commits</title></rect>
  <rect x="44" y="76" width="11" height="11" fill="#fc8d59" rx="2"><title>2023-01-05: 18 commits</title></rect>
  <rect x="44" y="90" width="11" height="11" fill="#fc8d59" rx="2"><title>2023-01-06: 18 commits</title></rect>
  <rect x="44" y="104" width="11" height="11" fill="#fef0d9" rx="2"><title>2023-01-07: 8 commits</title></rect>
  <rect x="58" y="20" width="11" height="11" fill="#fef0d9" rx="2"><title>2023-01-08: 9 commits</title></rect>
  <rect x="58" y="34" width="11" height="11" fill="#fdcc8a" rx="2"><title>2023-01-09: 16 commits</title></rect>
  <rect x="58" y="48" width="11" height="11" fill="#fc8d59" rx="2"><title>2023-01-10: 18 commits</title></rect>
  <rect x="58" y="62" width="11" height="11" fill="#d7301f" rx="2"><title>2023-01-11: 20 commits</title></rect>
  <rect x="58" y="76" width="11" height="11" fill="#fc8d59" rx="2"><title>2023-01-12: 18 commits</title></rect>
  <rect x="58" y="90" width="11" height="11" fill="#fc8d59" rx="2"><title>2023-01-13: 18 commits</title></rect>
  <rect x="58" y="104" width="11" height="11" fill="#fef0d9" rx="2"><title>2023-01-14: 12 commits</title></rect>
  <rect x="72" y="20" width="11" height="11" fill="#fdcc8a" rx="2"><title>2023-01-15: 15 commits</title></rect>
  <rect x="72" y="34" width="11" height="11" fill="#fc8d59" rx="2"><title>2023-01-16: 19 commits</title></rect>
  <rect x="72" y="48" width="11" height="11" fill="#fc8d59" rx="2"><title>2023-01-17: 19 commits</title></rect>
  <rect x="72" y="62" width="11" height="11" fill="#fc8d59" rx="2"><title>2023-01-18: 19 commits</title></rect>
  <rect x="72" y="76" width="11" height="11" fill="#d7301f" rx="2"><title>2023-01-19: 21 commits</title></rect>
  <rect x="72" y="90" width="11" height="11" fill="#fc8d59" rx="2"><title>2023-01-20: 19 commits</title></rect>
  <rect x="72" y="104" width="11" height="11" fill="#fdcc8a" rx="2"><title>2023-01-21: 15 commits</title></rect>
  <rect x="86" y="20" width="11" height="11" fill="#fef0d9" rx="2"><title>2023-01-22: 9 commits</title></rect>
  <rect x="86" y="34" width="11" height="11" fill="#fef0d9" rx="2"><title>2023-01-23: 10 commits</title></rect>
  <rect x="86" y="48" width="11" height="11" fill="#fef0d9" rx="2"><title>2023-01-24: 14 commits</title></rect>
  <rect x="86" y="62" width="11" height="11" fill="#fdcc8a" rx="2"><title>2023-01-25: 16 commits</title></rect>
  <rect x="86" y="76" width="11" height="11" fill="#d7301f" rx="2"><title>2023-01-26: 20 commits</title></rect>
  <rect x="86" y="90" width="11" height="11" fill="#d7301f" rx="2"><title>2023-01-27: 21 commits</title></rect>
  <rect x="86" y="104" width="11" height="11" fill="#fef0d9" rx="2"><title>2023-01-28: 12 commits</title></rect>
  <rect x="100" y="20" width="11" height="11" fill="#fef0d9" rx="2"><title>2023-01-29: 11 commits</title></rect>
  <rect x="100" y="34" width="11" height="11" fill="#fdcc8a" rx="2"><title>2023-01-30: 15 commits</title></rect>
  <rect x="100" y="48" width="11" height="11" fill="#fdcc8a" rx="2"><title>2023-01-31: 17 commits</title></rect>
  <rect x="100" y="62" width="11" height="11" fill="#fc8d59" rx="2"><title>2023-02-01: 18 commits</title></rect>
  <rect x="100" y="76" width="11" height="11" fill="#d7301f" rx="2"><title>2023-02-02: 21 commits</title></rect>
  <rect x="100" y="90" width="11" height="11" fill="#fdcc8a" rx="2"><title>2023-02-03: 17 commits</title></rect>
  <rect x="100" y="104" width="11" height="11" fill="#fef0d9" rx="2"><title>2023-02-04: 13 commits</title></rect>
  <rect x="114" y="20" width="11" height="11" fill="#fef0d9" rx="2"><title>2023-02-05: 10 commits</title></rect>
  <rect x="114" y="34" width="11" height="11" fill="#fc8d59" rx="2"><title>2023-02-06: 18 commits</title></rect>
  <rect x="114" y="48" width="11" height="11" fill="#d7301f" rx="2"><title>2023-02-07: 20 commits</title></rect>
  <rect x="114" y="62" width="11" height="11" fill="#fdcc8a" rx="2"><title>2023-02-08: 16 commits</title></rect>
  <rect x="114" y="76" width="11" height="11" fill="#fc8d59" rx="2"><title>2023-02-09: 19 commits</title></rect>
  <rect x="114" y="90" width="11" height="11" fill="#fdcc8a" rx="2"><title>2023-02-10: 17 commits</title></rect>
  <rect x="114" y="104" width="11" height="11" fill="#fef0d9" rx="2"><title>2023-02-11: 7 commits</title></rect>
  <rect x="128" y="20" width="11" height="11" fill="#fef0d9" rx="2"><title>2023-02-12: 8 commits</title></rect>
  <rect x="128" y="34" width="11" height="11" fill="#fdcc8a" rx="2"><title>2023-02-13: 16 commits</title></rect>
  <rect x="128" y="48" width="11" height="11" fill="#d7301f" rx="2"><title>2023-02-14: 20 commits</title></rect>
  <rect x="128" y="62" width="11" height="11" fill="#fc8d59" rx="2"><title>2023-02-15: 19 commits</title></rect>
  <rect x="128" y="76" width="11" height="11" fill="#d7301f" rx="2"><title>2023-02-16: 20 commits</title></rect>
  <rect x="128" y="90" width="11" height="11" fill="#d7301f" rx="2"><title>2023-02-17: 20 commits</title></rect>
  <rect x="128" y="104" width="11" height="11" fill="#fef0d9" rx="2"><title>2023-02-18: 12 commits</title></rect>
  <rect x="142" y="20" width="11" height="11" fill="#fef0d9" rx="2"><title>2023-02-19: 10 commits</title></rect>
  <rect x="142" y="34" width="11" height="11" fill="#fc8d59" rx="2"><title>2023-02-20: 19 commits</title></rect>
  <rect x="142" y="48" width="11" height="11" fill="#d7301f" rx="2"><title>2023-02-21: 23 commits</title></rect>
  <rect x="142" y="62" width="11" height="11" fill="#d7301f" rx="2"><title>2023-02-22: 21 commits</title></rect>
  <rect x="142" y="76" width="11" height="11" fill="#d7301f" rx="2"><title>2023-02-23: 20 commits</title></rect>
  <rect x="142" y="90" width="11" height="11" fill="#fc8d59" rx="2"><title>2023-02-24: 18 commits</title></rect>
  <rect x="142" y="104" width="11" height="11" fill="#fef0d9" rx="2"><title>2023-02-25: 14 commits</title></rect>
  <rect x="156" y="20" width="11" height="11" fill="#fef0d9" rx="2"><title>2023-02-26: 13 commits</title></rect>
  <rect x="156" y="34" width="11" height="11" fill="#fdcc8a" rx="2"><title>2023-02-27: 17 commits</title></rect>
  <rect x="156" y="48" width="11" height="11" fill="#fdcc8a" rx="2"><title>2023-02-28: 16 commits</title></rect>
  <rect x="156" y="62" width="11" height="11" fill="#fc8d59" rx="2"><title>2023-03-01: 18 commits</title></rect>
  <rect x="156" y="76" width="11" height="11" fill="#fc8d59" rx="2"><title>2023-03-02: 19 commits</title></rect>
  <rect x="156" y="90" width="11" height="11" fill="#fc8d59" rx="2"><title>2023-03-03: 19 commits</title></rect>
  <rect x="156" y="104" width="11" height="11" fill="#fef0d9" rx="2"><title>2023-03-04: 2 commits</title></rect>
  <rect x="170" y="20" width="11" height="11" fill="#fef0d9" rx="2"><title>2023-03-05: 10 commits</title></rect>
  <rect x="170" y="34" width="11" height="11" fill="#fdcc8a" rx="2"><title>2023-03-06: 17 commits</title></rect>
  <rect x="170" y="48" width="11" height="11" fill="#fdcc8a" rx="2"><title>2023-03-07: 15 commits</title></rect>
  <rect x="170" y="62" width="11" height="11" fill="#fc8d59" rx="2"><title>2023-03-08: 19 commits</title></rect>
  <rect x="170" y="76" width="11" height="11" fill="#fc8d59" rx="2"><title>2023-03-09: 18 commits</title></rect>
  <rect x="170" y="90" width="11" height="11" fill="#fef0d9" rx="2"><title>2023-03-10: 14 commits</title></rect>
  <rect x="170" y="104" width="11" height="11" fill="#fef0d9" rx="2"><title>2023-03-11: 9 commits</title></rect>
  <rect x="184" y="20" width="11" height="11" fill="#fef0d9" rx="2"><title>2023-03-12: 11 commits</title></rect>
  <rect x="184" y="34" width="11" height="11" fill="#fc8d59" rx="2"><title>2023-03-13: 19 commits</title></rect>
  <rect x="184" y="48" width="11" height="11" fill="#fdcc8a" rx="2"><title>2023-03-14: 16 commits</title></rect>
  <rect x="184" y="62" width="11" height="11" fill="#d7301f" rx="2"><title>2023-03-15: 20 commits</title></rect>
  <rect x="184" y="76" width="11" height="11" fill="#d7301f" rx="2"><title>2023-03-16: 20 commits</title></rect>
  <rect x="184" y="90" width="11" height="11" fill="#d7301f" rx="2"><title>2023-03-17: 20 commits</title></rect>
  <rect x="184" y="104" width="11" height="11" fill="#fef0d9" rx="2"><title>2023-03-18: 14 commits</title></rect>
  <rect x="198" y="20" width="11" height="11" fill="#fef0d9" rx="2"><title>2023-03-19: 6 commits</title></rect>
  <rect x="198" y="34" width="11" height="11" fill="#fdcc8a" rx="2"><title>2023-03-20: 17 commits</title></rect>
  <rect x="198" y="48" width="11" height="11" fill="#d7301f" rx="2"><title>2023-03-21: 23 commits</title></rect>
  <rect x="198" y="62" width="11" height="11" fill="#d7301f" rx="2"><title>2023-03-22: 21 commits</title></rect>
  <rect x="198" y="76" width="11" height="11" fill="#fc8d59" rx="2"><title>2023-03-23: 19 commits</title></rect>
  <rect x="198" y="90" width="11" height="11" fill="#fdcc8a" rx="2"><title>2023-03-24: 16 commits</title></rect>
  <rect x="198" y="104" width="11" height="11" fill="#fef0d9" rx="2"><title>2023-03-25: 13 commits</title></rect>
  <rect x="198" y="20" width="11" height="11" fill="#fef0d9" rx="2"><title>2023-03-26: 4 commits</title></rect>
  <rect x="212" y="34" width="11" height="11" fill="#fef0d9" rx="2"><title>2023-03-27: 14 commits</title></rect>
  <rect x="212" y="48" width="11" height="11" fill="#fdcc8a" rx="2"><title>2023-03-28: 17 commits</title></rect>
  <rect x="212" y="62" width="11" height="11" fill="#d7301f" rx="2"><title>2023-03-29: 20 commits</title></rect>
  <rect x="212" y="76" width="11" height="11" fill="#d7301f" rx="2"><title>2023-03-30: 22 commits</title></rect>
  <rect x="212" y="90" width="11" height="11" fill="#fdcc8a" rx="2"><title>2023-03-31: 17 commits</title></rect>
  <rect x="212" y="104" width="11" height="11" fill="#fdcc8a" rx="2"><title>2023-04-01: 15 commits</title></rect>
  <rect x="212" y="20" width="11" height="11" fill="#fdcc8a" rx="2"><title>2023-04-02: 16 commits</title></rect>
  <rect x="226" y="34" width="11" height="11" fill="#d7301f" rx="2"><title>2023-04-03: 21 commits</title></rect>
  <rect x="226" y="48" width="11" height="11" fill="#d7301f" rx="2"><title>2023-04-04: 20 commits</title></rect>
  <rect x="226" y="62" width="11" height="11" fill="#fc8d59" rx="2"><title>2023-04-05: 18 commits</title></rect>
  <rect x="226" y="76" width="11" height="11" fill="#fc8d59" rx="2"><title>2023-04-06: 18 commits</title></rect>
  <rect x="226" y="90" width="11" height="11" fill="#fc8d59" rx="2"><title>2023-04-07: 18 commits</title></rect>
  <rect x="226" y="104" width="11" height="11" fill="#fef0d9" rx="2"><title>2023-04-08: 12 commits</title></rect>
  <rect x="226" y="20" width="11" height="11" fill="#fef0d9" rx="2"><title>2023-04-09: 10 commits</title></rect>
  <rect x="240" y="34" width="11" height="11" fill="#fdcc8a" rx="2"><title>2023-04-10: 17 commits</title></rect>
  <rect x="240" y="48" width="11" height="11" fill="#fdcc8a" rx="2"><title>2023-04-11: 17 commits</title></rect>
  <rect x="240" y="62" width="11" height="11" fill="#fc8d59" rx="2"><title>2023-04-12: 18 commits</title></rect>
  <rect x="240" y="76" width="11" height="11" fill="#fef0d9" rx="2"><title>2023-04-13: 9 commits</title></rect>
  <rect x="240" y="90" width="11" height="11" fill="#161b22" rx="2"><title>2023-04-14: 0 commits</title></rect>
  <rect x="240" y="104" width="11" height="11" fill="#fef0d9" rx="2"><title>2023-04-15: 2 commits</title></rect>
  <rect x="240" y="20" width="11" height="11" fill="#fef0d9" rx="2"><title>2023-04-16: 1 commits</title></rect>
  <rect x="254" y="34" width="11" height="11" fill="#161b22" rx="2"><title>2023-04-17: 0 commits</title></rect>
  <rect x="254" y="48" width="11" height="11" fill="#fef0d9" rx="2"><title>2023-04-18: 13 commits</title></rect>
  <rect x="254" y="62" width="11" height="11" fill="#fef0d9" rx="2"><title>2023-04-19: 14 commits</title></rect>
  <rect x="254" y="76" width="11" height="11" fill="#fdcc8a" rx="2"><title>2023-04-20: 15 commits</title></rect>
  <rect x="254" y="90" width="11" height="11" fill="#fdcc8a" rx="2"><title>2023-04-21: 17 commits</title></rect>
  <rect x="254" y="104" width="11" height="11" fill="#fef0d9" rx="2"><title>2023-04-22: 13 commits</title></rect>
  <rect x="254" y="20" width="11" height="11" fill="#fef0d9" rx="2"><title>2023-04-23: 8 commits</title></rect>
  <rect x="268" y="34" width="11" height="11" fill="#fdcc8a" rx="2"><title>2023-04-24: 17 commits</title></rect>
  <rect x="268" y="48" width="11" height="11" fill="#fc8d59" rx="2"><title>2023-04-25: 18 commits</title></rect>
  <rect x="268" y="62" width="11" height="11" fill="#d7301f" rx="2"><title>2023-04-26: 20 commits</title></rect>
  <rect x="268" y="76" width="11" height="11" fill="#d7301f" rx="2"><title>2023-04-27: 21 commits</title></rect>
  <rect x="268" y="90" width="11" height="11" fill="#fc8d59" rx="2"><title>2023-04-28: 19 commits</title></rect>
  <rect x="268" y="104" width="11" height="11" fill="#fdcc8a" rx="2"><title>2023-04-29: 17 commits</title></rect>
  <rect x="268" y="20" width="11" height="11" fill="#fdcc8a" rx="2"><title>2023-04-30: 15 commits</title></rect>
  <rect x="282" y="34" width="11" height="11" fill="#fef0d9" rx="2"><title>2023-05-01: 10 commits</title></rect>
  <rect x="282" y="48" width="11" height="11" fill="#fc8d59" rx="2"><title>2023-05-02: 18 commits</title></rect>
  <rect x="282" y="62" width="11" height="11" fill="#d7301f" rx="2"><title>2023-05-03: 20 commits</title></rect>
  <rect x="282" y="76" width="11" height="11" fill="#fc8d59" rx="2"><title>2023-05-04: 18 commits</title></rect>
  <rect x="282" y="90" width="11" height="11" fill="#fdcc8a" rx="2"><title>2023-05-05: 17 commits</title></rect>
  <rect x="282" y="104" width="11" height="11" fill="#fef0d9" rx="2"><title>2023-05-06: 14 commits</title></rect>
  <rect x="282" y="20" width="11" height="11" fill="#fdcc8a" rx="2"><title>2023-05-07: 17 commits</title></rect>
  <rect x="296" y="34" width="11" height="11" fill="#fc8d59" rx="2"><title>2023-05-08: 18 commits</title></rect>
  <rect x="296" y="48" width="11" height="11" fill="#fc8d59" rx="2"><title>2023-05-09: 19 commits</title></rect>
  <rect x="296" y="62" width="11" height="11" fill="#d7301f" rx="2"><title>2023-05-10: 20 commits</title></rect>
  <rect x="296" y="76" width="11" height="11" fill="#d7301f" rx="2"><title>2023-05-11: 20 commits</title></rect>
  <rect x="296" y="90" width="11" height="11" fill="#fc8d59" rx="2"><title>2023-05-12: 19 commits</title></rect>
  <rect x="296" y="104" width="11" height="11" fill="#fef0d9" rx="2"><title>2023-05-13: 14 commits</title></rect>
  <rect x="296" y="20" width="11" height="11" fill="#fef0d9" rx="2"><title>2023-05-14: 14 commits</title></rect>
  <rect x="310" y="34" width="11" height="11" fill="#fdcc8a" rx="2"><title>2023-05-15: 17 commits</title></rect>
  <rect x="310" y="48" width="11" height="11" fill="#d7301f" rx="2"><title>2023-05-16: 20 commits</title></rect>
  <rect x="310" y="62" width="11" height="11" fill="#d7301f" rx="2"><title>2023-05-17: 20 commits</title></rect>
  <rect x="310" y="76" width="11" height="11" fill="#fc8d59" rx="2"><title>2023-05-18: 19 commits</title></rect>
  <rect x="310" y="90" width="11" height="11" fill="#fc8d59" rx="2"><title>2023-05-19: 18 commits</title></rect>
  <rect x="310" y="104" width="11" height="11" fill="#fef0d9" rx="2"><title>2023-05-20: 13 commits</title></rect>
  <rect x="310" y="20" width="11" height="11" fill="#fef0d9" rx="2"><title>2023-05-21: 14 commits</title></rect>
  <rect x="324" y="34" width="11" height="11" fill="#fc8d59" rx="2"><title>2023-05-22: 18 commits</title></rect>
  <rect x="324" y="48" width="11" height="11" fill="#fdcc8a" rx="2"><title>2023-05-23: 17 commits</title></rect>
  <rect x="324" y="62" width="11" height="11" fill="#fdcc8a" rx="2"><title>2023-05-24: 16 commits</title></rect>
  <rect x="324" y="76" width="11" height="11" fill="#d7301f" rx="2"><title>2023-05-25: 20 commits</title></rect>
  <rect x="324" y="90" width="11" height="11" fill="#fc8d59" rx="2"><title>2023-05-26: 19 commits</title></rect>
  <rect x="324" y="104" width="11" height="11" fill="#fef0d9" rx="2"><title>2023-05-27: 14 commits</title></rect>
  <rect x="324" y="20" width="11" height="11" fill="#fef0d9" rx="2"><title>2023-05-28: 12 commits</title></rect>
  <rect x="338" y="34" width="11" height="11" fill="#fdcc8a" rx="2"><title>2023-05-29: 15 commits</title></rect>
  <rect x="338" y="48" width="11" height="11" fill="#d7301f" rx="2"><title>2023-05-30: 21 commits</title></rect>
  <rect x="338" y="62" width="11" height="11" fill="#fc8d59" rx="2"><title>2023-05-31: 19 commits</title></rect>
  <rect x="338" y="76" width="11" height="11" fill="#fef0d9" rx="2"><title>2023-06-01: 10 commits</title></rect>
  <rect x="338" y="90" width="11" height="11" fill="#fdcc8a" rx="2"><title>2023-06-02: 15 commits</title></rect>
  <rect x="338" y="104" width="11" height="11" fill="#fef0d9" rx="2"><title>2023-06-03: 12 commits</title></rect>
  <rect x="338" y="20" width="11" height="11" fill="#fef0d9" rx="2"><title>2023-06-04: 10 commits</title></rect>
  <rect x="352" y="34" width="11" height="11" fill="#fef0d9" rx="2"><title>2023-06-05: 10 commits</title></rect>
  <rect x="352" y="48" width="11" height="11" fill="#fc8d59" rx="2"><title>2023-06-06: 18 commits</title></rect>
  <rect x="352" y="62" width="11" height="11" fill="#d7301f" rx="2"><title>2023-06-07: 21 commits</title></rect>
  <rect x="352" y="76" width="11" height="11" fill="#fc8d59" rx="2"><title>2023-06-08: 19 commits</title></rect>
  <rect x="352" y="90" width="11" height="11" fill="#fc8d59" rx="2"><title>2023-06-09: 19 commits</title></rect>
  <rect x="352" y="104" width="11" height="11" fill="#fdcc8a" rx="2"><title>2023-06-10: 16 commits</title></rect>
  <rect x="352" y="20" width="11" height="11" fill="#fdcc8a" rx="2"><title>2023-06-11: 15 commits</title></rect>
  <rect x="366" y="34" width="11" height="11" fill="#fc8d59" rx="2"><title>2023-06-12: 18 commits</title></rect>
  <rect x="366" y="48" width="11" height="11" fill="#fdcc8a" rx="2"><title>2023-06-13: 16 commits</title></rect>
  <rect x="366" y="62" width="11" height="11" fill="#fc8d59" rx="2"><title>2023-06-14: 18 commits</title></rect>
  <rect x="366" y="76" width="11" height="11" fill="#fc8d59" rx="2"><title>2023-06-15: 18 commits</title></rect>
  <rect x="366" y="90" width="11" height="11" fill="#d7301f" rx="2"><title>2023-06-16: 21 commits</title></rect>
  <rect x="366" y="104" width="11" height="11" fill="#fdcc8a" rx="2"><title>2023-06-17: 16 commits</title></rect>
  <rect x="366" y="20" width="11" height="11" fill="#fef0d9" rx="2"><title>2023-06-18: 13 commits</title></rect>
  <rect x="380" y="34" width="11" height="11" fill="#fc8d59" rx="2"><title>2023-06-19: 19 commits</title></rect>
  <rect x="380" y="48" width="11" height="11" fill="#fc8d59" rx="2"><title>2023-06-20: 18 commits</title></rect>
  <rect x="380" y="62" width="11" height="11" fill="#fc8d59" rx="2"><title>2023-06-21: 18 commits</title></rect>
  <rect x="380" y="76" width="11" height="11" fill="#d7301f" rx="2"><title>2023-06-22: 20 commits</title></rect>
  <rect x="380" y="90" width="11" height="11" fill="#fdcc8a" rx="2"><title>2023-06-23: 17 commits</title></rect>
  <rect x="380" y="104" width="11" height="11" fill="#fef0d9" rx="2"><title>2023-06-24: 11 commits</title></rect>
  <rect x="380" y="20" width="11" height="11" fill="#fef0d9" rx="2"><title>2023-06-25: 7 commits</title></rect>
  <rect x="394" y="34" width="11" height="11" fill="#fdcc8a" rx="2"><title>2023-06-26: 17 commits</title></rect>
  <rect x="394" y="48" width="11" height="11" fill="#fdcc8a" rx="2"><title>2023-06-27: 16 commits</title></rect>
  <rect x="394" y="62" width="11" height="11" fill="#fdcc8a" rx="2"><title>2023-06-28: 15 commits</title></rect>
  <rect x="394" y="76" width="11" height="11" fill="#fef0d9" rx="2"><title>2023-06-29: 14 commits</title></rect>
  <rect x="394" y="90" width="11" height="11" fill="#fc8d59" rx="2"><title>2023-06-30: 18 commits</title></rect>
  <rect x="394" y="104" width="11" height="11" fill="#fdcc8a" rx="2"><title>2023-07-01: 16 commits</title></rect>
  <rect x="394" y="20" width="11" height="11" fill="#fdcc8a" rx="2"><title>2023-07-02: 16 commits</title></rect>
  <rect x="408" y="34" width="11" height="11" fill="#fc8d59" rx="2"><title>2023-07-03: 19 commits</title></rect>
  <rect x="408" y="48" width="11" height="11" fill="#fdcc8a" rx="2"><title>2023-07-04: 17 commits</title></rect>
  <rect x="408" y="62" width="11" height="11" fill="#fc8d59" rx="2"><title>2023-07-05: 18 commits</title></rect>
  <rect x="408" y="76" width="11" height="11" fill="#fdcc8a" rx="2"><title>2023-07-06: 17 commits</title></rect>
  <rect x="408" y="90" width="11" height="11" fill="#fc8d59" rx="2"><title>2023-07-07: 18 commits</title></rect>
  <rect x="408" y="104" width="11" height="11" fill="#fef0d9" rx="2"><title>2023-07-08: 13 commits</title></rect>
  <rect x="408" y="20" width="11" height="11" fill="#fef0d9" rx="2"><title>2023-07-09: 13 commits</title></rect>
  <rect x="422" y="34" width="11" height="11" fill="#fdcc8a" rx="2"><title>2023-07-10: 15 commits</title></rect>
  <rect x="422" y="48" width="11" height="11" fill="#fdcc8a" rx="2"><title>2023-07-11: 16 commits</title></rect>
  <rect x="422" y="62" width="11" height="11" fill="#fc8d59" rx="2"><title>2023-07-12: 19 commits</title></rect>
  <rect x="422" y="76" width="11" height="11" fill="#fdcc8a" rx="2"><title>2023-07-13: 16 commits</title></rect>
  <rect x="422" y="90" width="11" height="11" fill="#fc8d59" rx="2"><title>2023-07-14: 18 commits</title></rect>
  <rect x="422" y="104" width="11" height="11" fill="#fdcc8a" rx="2"><title>2023-07-15: 15 commits</title></rect>
  <rect x="422" y="20" width="11" height="11" fill="#fdcc8a" rx="2"><title>2023-07-16: 15 commits</title></rect>
  <rect x="436" y="34" width="11" height="11" fill="#fc8d59" rx="2"><title>2023-07-17: 18 commits</title></rect>
  <rect x="436" y="48" width="11" height="11" fill="#fdcc8a" rx="2"><title>2023-07-18: 16 commits</title></rect>
  <rect x="436" y="62" width="11" height="11" fill="#fdcc8a" rx="2"><title>2023-07-19: 16 commits</title></rect>
  <rect x="436" y="76" width="11" height="11" fill="#fc8d59" rx="2"><title>2023-07-20: 18 commits</title></rect>
  <rect x="436" y="90" width="11" height="11" fill="#fc8d59" rx="2"><title>2023-07-21: 18 commits</title></rect>
  <rect x="436" y="104" width="11" height="11" fill="#fdcc8a" rx="2"><title>2023-07-22: 15 commits</title></rect>
  <rect x="436" y="20" width="11" height="11" fill="#fef0d9" rx="2"><title>2023-07-23: 14 commits</title></rect>
  <rect x="450" y="34" width="11" height="11" fill="#fdcc8a" rx="2"><title>2023-07-24: 17 commits</title></rect>
  <rect x="450" y="48" width="11" height="11" fill="#fdcc8a" rx="2"><title>2023-07-25: 17 commits</title></rect>
  <rect x="450" y="62" width="11" height="11" fill="#fdcc8a" rx="2"><title>2023-07-26: 16 commits</title></rect>
  <rect x="450" y="76" width="11" height="11" fill="#fdcc8a" rx="2"><title>2023-07-27: 17 commits</title></rect>
  <rect x="450" y="90" width="11" height="11" fill="#fdcc8a" rx="2"><title>2023-07-28: 17 commits</title></rect>
  <rect x="450" y="104" width="11" height="11" fill="#fdcc8a" rx="2"><title>2023-07-29: 17 commits</title></rect>
  <rect x="450" y="20" width="11" height="11" fill="#fef0d9" rx="2"><title>2023-07-30: 12 commits</title></rect>
  <rect x="464" y="34" width="11" height="11" fill="#fdcc8a" rx="2"><title>2023-07-31: 15 commits</title></rect>
  <rect x="464" y="48" width="11" height="11" fill="#fc8d59" rx="2"><title>2023-08-01: 18 commits</title></rect>
  <rect x="464" y="62" width="11" height="11" fill="#fdcc8a" rx="2"><title>2023-08-02: 16 commits</title></rect>
  <rect x="464" y="76" width="11" height="11" fill="#fdcc8a" rx="2"><title>2023-08-03: 15 commits</title></rect>
  <rect x="464" y="90" width="11" height="11" fill="#d7301f" rx="2"><title>2023-08-04: 21 commits</title></rect>
  <rect x="464" y="104" width="11" height="11" fill="#fef0d9" rx="2"><title>2023-08-05: 13 commits</title></rect>
  <rect x="464" y="20" width="11" height="11" fill="#fef0d9" rx="2"><title>2023-08-06: 1 commits</title></rect>
  <rect x="478" y="34" width="11" height="11" fill="#161b22" rx="2"><title>2023-08-07: 0 commits</title></rect>
  <rect x="478" y="48" width="11" height="11" fill="#161b22" rx="2"><title>2023-08-08: 0 commits</title></rect>
  <rect x="478" y="62" width="11" height="11" fill="#161b22" rx="2"><title>2023-08-09: 0 commits</title></rect>
  <rect x="478" y="76" width="11" height="11" fill="#161b22" rx="2"><title>2023-08-10: 0 commits</title></rect>
  <rect x="478" y="90" width="11" height="11" fill="#161b22" rx="2"><title>2023-08-11: 0 commits</title></rect>
  <rect x="478" y="104" width="11" height="11" fill="#161b22" rx="2"><title>2023-08-12: 0 commits</title></rect>
  <rect x="478" y="20" width="11" height="11" fill="#161b22" rx="2"><title>2023-08-13: 0 commits</title></rect>
  <rect x="492" y="34" width="11" height="11" fill="#161b22" rx="2"><title>2023-08-14: 0 commits</title></rect>
  <rect x="492" y="48" width="11" height="11" fill="#161b22" rx="2"><title>2023-08-15: 0 commits</title></rect>
  <rect x="492" y="62" width="11" height="11" fill="#fef0d9" rx="2"><title>2023-08-16: 8 commits</title></rect>
  <rect x="492" y="76" width="11" height="11" fill="#fef0d9" rx="2"><title>2023-08-17: 7 commits</title></rect>
  <rect x="492" y="90" width="11" height="11" fill="#fef0d9" rx="2"><title>2023-08-18: 12 commits</title></rect>
  <rect x="492" y="104" width="11" height="11" fill="#fef0d9" rx="2"><title>2023-08-19: 9 commits</title></rect>
  <rect x="492" y="20" width="11" height="11" fill="#fef0d9" rx="2"><title>2023-08-20: 9 commits</title></rect>
  <rect x="506" y="34" width="11" height="11" fill="#fef0d9" rx="2"><title>2023-08-21: 13 commits</title></rect>
  <rect x="506" y="48" width="11" height="11" fill="#fc8d59" rx="2"><title>2023-08-22: 19 commits</title></rect>
  <rect x="506" y="62" width="11" height="11" fill="#fc8d59" rx="2"><title>2023-08-23: 19 commits</title></rect>
  <rect x="506" y="76" width="11" height="11" fill="#fdcc8a" rx="2"><title>2023-08-24: 16 commits</title></rect>
  <rect x="506" y="90" width="11" height="11" fill="#fdcc8a" rx="2"><title>2023-08-25: 17 commits</title></rect>
  <rect x="506" y="104" width="11" height="11" fill="#fef0d9" rx="2"><title>2023-08-26: 13 commits</title></rect>
  <rect x="506" y="20" width="11" height="11" fill="#fef0d9" rx="2"><title>2023-08-27: 9 commits</title></rect>
  <rect x="520" y="34" width="11" height="11" fill="#fdcc8a" rx="2"><title>2023-08-28: 15 commits</title></rect>
  <rect x="520" y="48" width="11" height="11" fill="#fc8d59" rx="2"><title>2023-08-29: 18 commits</title></rect>
  <rect x="520" y="62" width="11" height="11" fill="#fdcc8a" rx="2"><title>2023-08-30: 17 commits</title></rect>
  <rect x="520" y="76" width="11" height="11" fill="#fdcc8a" rx="2"><title>2023-08-31: 17 commits</title></rect>
  <rect x="520" y="90" width="11" height="11" fill="#d7301f" rx="2"><title>2023-09-01: 20 commits</title></rect>
  <rect x="520" y="104" width="11" height="11" fill="#fef0d9" rx="2"><title>2023-09-02: 13 commits</title></rect>
  <rect x="520" y="20" width="11" height="11" fill="#fef0d9" rx="2"><title>2023-09-03: 5 commits</title></rect>
  <rect x="534" y="34" width="11" height="11" fill="#fc8d59" rx="2"><title>2023-09-04: 18 commits</title></rect>
  <rect x="534" y="48" width="11" height="11" fill="#fdcc8a" rx="2"><title>2023-09-05: 17 commits</title></rect>
  <rect x="534" y="62" width="11" height="11" fill="#fc8d59" rx="2"><title>2023-09-06: 19 commits</title></rect>
  <rect x="534" y="76" width="11" height="11" fill="#fdcc8a" rx="2"><title>2023-09-07: 17 commits</title></rect>
  <rect x="534" y="90" width="11" height="11" fill="#fdcc8a" rx="2"><title>2023-09-08: 17 commits</title></rect>
  <rect x="534" y="104" width="11" height="11" fill="#fef0d9" rx="2"><title>2023-09-09: 12 commits</title></rect>
  <rect x="534" y="20" width="11" height="11" fill="#fef0d9" rx="2"><title>2023-09-10: 3 commits</title></rect>
  <rect x="548" y="34" width="11" height="11" fill="#d7301f" rx="2"><title>2023-09-11: 20 commits</title></rect>
  <rect x="548" y="48" width="11" height="11" fill="#fdcc8a" rx="2"><title>2023-09-12: 17 commits</title></rect>
  <rect x="548" y="62" width="11" height="11" fill="#fc8d59" rx="2"><title>2023-09-13: 18 commits</title></rect>
  <rect x="548" y="76" width="11" height="11" fill="#fc8d59" rx="2"><title>2023-09-14: 18 commits</title></rect>
  <rect x="548" y="90" width="11" height="11" fill="#fc8d59" rx="2"><title>2023-09-15: 19 commits</title></rect>
  <rect x="548" y="104" width="11" height="11" fill="#fef0d9" rx="2"><title>2023-09-16: 13 commits</title></rect>
  <rect x="548" y="20" width="11" height="11" fill="#fc8d59" rx="2"><title>2023-09-17: 19 commits</title></rect>
  <rect x="562" y="34" width="11" height="11" fill="#fc8d59" rx="2"><title>2023-09-18: 19 commits</title></rect>
  <rect x="562" y="48" width="11" height="11" fill="#fc8d59" rx="2"><title>2023-09-19: 18 commits</title></rect>
  <rect x="562" y="62" width="11" height="11" fill="#fdcc8a" rx="2"><title>2023-09-20: 17 commits</title></rect>
  <rect x="562" y="76" width="11" height="11" fill="#d7301f" rx="2"><title>2023-09-21: 21 commits</title></rect>
  <rect x="562" y="90" width="11" height="11" fill="#fdcc8a" rx="2"><title>2023-09-22: 17 commits</title></rect>
  <rect x="562" y="104" width="11" height="11" fill="#fef0d9" rx="2"><title>2023-09-23: 6 commits</title></rect>
  <rect x="562" y="20" width="11" height="11" fill="#fef0d9" rx="2"><title>2023-09-24: 10 commits</title></rect>
  <rect x="576" y="34" width="11" height="11" fill="#fdcc8a" rx="2"><title>2023-09-25: 15 commits</title></rect>
  <rect x="576" y="48" width="11" height="11" fill="#fef0d9" rx="2"><title>2023-09-26: 12 commits</title></rect>
  <rect x="576" y="62" width="11" height="11" fill="#fef0d9" rx="2"><title>2023-09-27: 12 commits</title></rect>
  <rect x="576" y="76" width="11" height="11" fill="#fef0d9" rx="2"><title>2023-09-28: 14 commits</title></rect>
  <rect x="576" y="90" width="11" height="11" fill="#fdcc8a" rx="2"><title>2023-09-29: 17 commits</title></rect>
  <rect x="576" y="104" width="11" height="11" fill="#fef0d9" rx="2"><title>2023-09-30: 7 commits</title></rect>
  <rect x="576" y="20" width="11" height="11" fill="#fef0d9" rx="2"><title>2023-10-01: 8 commits</title></rect>
  <rect x="590" y="34" width="11" height="11" fill="#fdcc8a" rx="2"><title>2023-10-02: 15 commits</title></rect>
  <rect x="590" y="48" width="11" height="11" fill="#fdcc8a" rx="2"><title>2023-10-03: 16 commits</title></rect>
  <rect x="590" y="62" width="11" height="11" fill="#fc8d59" rx="2"><title>2023-10-04: 18 commits</title></rect>
  <rect x="590" y="76" width="11" height="11" fill="#fc8d59" rx="2"><title>2023-10-05: 18 commits</title></rect>
  <rect x="590" y="90" width="11" height="11" fill="#fdcc8a" rx="2"><title>2023-10-06: 17 commits</title></rect>
  <rect x="590" y="104" width="11" height="11" fill="#fef0d9" rx="2"><title>2023-10-07: 13 commits</title></rect>
  <rect x="590" y="20" width="11" height="11" fill="#fef0d9" rx="2"><title>2023-10-08: 10 commits</title></rect>
  <rect x="604" y="34" width="11" height="11" fill="#fef0d9" rx="2"><title>2023-10-09: 14 commits</title></rect>
  <rect x="604" y="48" width="11" height="11" fill="#fdcc8a" rx="2"><title>2023-10-10: 15 commits</title></rect>
  <rect x="604" y="62" width="11" height="11" fill="#d7301f" rx="2"><title>2023-10-11: 21 commits</title></rect>
  <rect x="604" y="76" width="11" height="11" fill="#fdcc8a" rx="2"><title>2023-10-12: 17 commits</title></rect>
  <rect x="604" y="90" width="11" height="11" fill="#fdcc8a" rx="2"><title>2023-10-13: 17 commits</title></rect>
  <rect x="604" y="104" width="11" height="11" fill="#fef0d9" rx="2"><title>2023-10-14: 12 commits</title></rect>
  <rect x="604" y="20" width="11" height="11" fill="#fdcc8a" rx="2"><title>2023-10-15: 15 commits</title></rect>
  <rect x="618" y="34" width="11" height="11" fill="#fdcc8a" rx="2"><title>2023-10-16: 17 commits</title></rect>
  <rect x="618" y="48" width="11" height="11" fill="#fdcc8a" rx="2"><title>2023-10-17: 15 commits</title></rect>
  <rect x="618" y="62" width="11" height="11" fill="#fdcc8a" rx="2"><title>2023-10-18: 17 commits</title></rect>
  <rect x="618" y="76" width="11" height="11" fill="#fc8d59" rx="2"><title>2023-10-19: 19 commits</title></rect>
  <rect x="618" y="90" width="11" height="11" fill="#fdcc8a" rx="2"><title>2023-10-20: 17 commits</title></rect>
  <rect x="618" y="104" width="11" height="11" fill="#fdcc8a" rx="2"><title>2023-10-21: 16 commits</title></rect>
  <rect x="618" y="20" width="11" height="11" fill="#fef0d9" rx="2"><title>2023-10-22: 10 commits</title></rect>
  <rect x="632" y="34" width="11" height="11" fill="#fdcc8a" rx="2"><title>2023-10-23: 16 commits</title></rect>
  <rect x="632" y="48" width="11" height="11" fill="#fef0d9" rx="2"><title>2023-10-24: 14 commits</title></rect>
  <rect x="632" y="62" width="11" height="11" fill="#fdcc8a" rx="2"><title>2023-10-25: 17 commits</title></rect>
  <rect x="632" y="76" width="11" height="11" fill="#fc8d59" rx="2"><title>2023-10-26: 18 commits</title></rect>
  <rect x="632" y="90" width="11" height="11" fill="#fdcc8a" rx="2"><title>2023-10-27: 16 commits</title></rect>
  <rect x="632" y="104" width="11" height="11" fill="#fef0d9" rx="2"><title>2023-10-28: 13 commits</title></rect>
  <rect x="646" y="20" width="11" height="11" fill="#fdcc8a" rx="2"><title>2023-10-29: 15 commits</title></rect>
  <rect x="646" y="34" width="11" height="11" fill="#fef0d9" rx="2"><title>2023-10-30: 13 commits</title></rect>
  <rect x="646" y="48" width="11" height="11" fill="#fdcc8a" rx="2"><title>2023-10-31: 17 commits</title></rect>
  <rect x="646" y="62" width="11" height="11" fill="#fdcc8a" rx="2"><title>2023-11-01: 17 commits</title></rect>
  <rect x="646" y="76" width="11" height="11" fill="#fc8d59" rx="2"><title>2023-11-02: 19 commits</title></rect>
  <rect x="646" y="90" width="11" height="11" fill="#fdcc8a" rx="2"><title>2023-11-03: 16 commits</title></rect>
  <rect x="646" y="104" width="11" height="11" fill="#fef0d9" rx="2"><title>2023-11-04: 12 commits</title></rect>
  <rect x="660" y="20" width="11" height="11" fill="#fef0d9" rx="2"><title>2023-11-05: 13 commits</title></rect>
  <rect x="660" y="34" width="11" height="11" fill="#fc8d59" rx="2"><title>2023-11-06: 18 commits</title></rect>
  <rect x="660" y="48" width="11" height="11" fill="#fc8d59" rx="2"><title>2023-11-07: 18 commits</title></rect>
  <rect x="660" y="62" width="11" height="11" fill="#fdcc8a" rx="2"><title>2023-11-08: 16 commits</title></rect>
  <rect x="660" y="76" width="11" height="11" fill="#fc8d59" rx="2"><title>2023-11-09: 18 commits</title></rect>
  <rect x="660" y="90" width="11" height="11" fill="#fdcc8a" rx="2"><title>2023-11-10: 17 commits</title></rect>
  <rect x="660" y="104" width="11" height="11" fill="#d7301f" rx="2"><title>2023-11-11: 20 commits</title></rect>
  <rect x="674" y="20" width="11" height="11" fill="#d7301f" rx="2"><title>2023-11-12: 20 commits</title></rect>
  <rect x="674" y="34" width="11" height="11" fill="#fc8d59" rx="2"><title>2023-11-13: 19 commits</title></rect>
  <rect x="674" y="48" width="11" height="11" fill="#fc8d59" rx="2"><title>2023-11-14: 19 commits</title></rect>
  <rect x="674" y="62" width="11" height="11" fill="#fc8d59" rx="2"><title>2023-11-15: 18 commits</title></rect>
  <rect x="674" y="76" width="11" height="11" fill="#d7301f" rx="2"><title>2023-11-16: 20 commits</title></rect>
  <rect x="674" y="90" width="11" height="11" fill="#d7301f" rx="2"><title>2023-11-17: 21 commits</title></rect>
  <rect x="674" y="104" width="11" height="11" fill="#fc8d59" rx="2"><title>2023-11-18: 18 commits</title></rect>
  <rect x="688" y="20" width="11" height="11" fill="#fdcc8a" rx="2"><title>2023-11-19: 17 commits</title></rect>
  <rect x="688" y="34" width="11" height="11" fill="#d7301f" rx="2"><title>2023-11-20: 21 commits</title></rect>
  <rect x="688" y="48" width="11" height="11" fill="#fc8d59" rx="2"><title>2023-11-21: 19 commits</title></rect>
  <rect x="688" y="62" width="11" height="11" fill="#fc8d59" rx="2"><title>2023-11-22: 19 commits</title></rect>
  <rect x="688" y="76" width="11" height="11" fill="#fdcc8a" rx="2"><title>2023-11-23: 17 commits</title></rect>
  <rect x="688" y="90" width="11" height="11" fill="#d7301f" rx="2"><title>2023-11-24: 21 commits</title></rect>
  <rect x="688" y="104" width="11" height="11" fill="#fdcc8a" rx="2"><title>2023-11-25: 17 commits</title></rect>
  <rect x="702" y="20" width="11" height="11" fill="#fef0d9" rx="2"><title>2023-11-26: 14 commits</title></rect>
  <rect x="702" y="34" width="11" height="11" fill="#fdcc8a" rx="2"><title>2023-11-27: 17 commits</title></rect>
  <rect x="702" y="48" width="11" height="11" fill="#d7301f" rx="2"><title>2023-11-28: 20 commits</title></rect>
  <rect x="702" y="62" width="11" height="11" fill="#d7301f" rx="2"><title>2023-11-29: 21 commits</title></rect>
  <rect x="702" y="76" width="11" height="11" fill="#fc8d59" rx="2"><title>2023-11-30: 18 commits</title></rect>
  <rect x="702" y="90" width="11" height="11" fill="#fef0d9" rx="2"><title>2023-12-01: 14 commits</title></rect>
  <rect x="702" y="104" width="11" height="11" fill="#fef0d9" rx="2"><title>2023-12-02: 5 commits</title></rect>
  <rect x="716" y="20" width="11" height="11" fill="#fef0d9" rx="2"><title>2023-12-03: 10 commits</title></rect>
  <rect x="716" y="34" width="11" height="11" fill="#fc8d59" rx="2"><title>2023-12-04: 18 commits</title></rect>
  <rect x="716" y="48" width="11" height="11" fill="#d7301f" rx="2"><title>2023-12-05: 20 commits</title></rect>
  <rect x="716" y="62" width="11" height="11" fill="#d7301f" rx="2"><title>2023-12-06: 21 commits</title></rect>
  <rect x="716" y="76" width="11" height="11" fill="#d7301f" rx="2"><title>2023-12-07: 21 commits</title></rect>
  <rect x="716" y="90" width="11" height="11" fill="#d7301f" rx="2"><title>2023-12-08: 20 commits</title></rect>
  <rect x="716" y="104" width="11" height="11" fill="#fc8d59" rx="2"><title>2023-12-09: 18 commits</title></rect>
  <rect x="730" y="20" width="11" height="11" fill="#fc8d59" rx="2"><title>2023-12-10: 19 commits</title></rect>
  <rect x="730" y="34" width="11" height="11" fill="#fc8d59" rx="2"><title>2023-12-11: 19 commits</title></rect>
  <rect x="730" y="48" width="11" height="11" fill="#d7301f" rx="2"><title>2023-12-12: 20 commits</title></rect>
  <rect x="730" y="62" width="11" height="11" fill="#d7301f" rx="2"><title>2023-12-13: 20 commits</title></rect>
  <rect x="730" y="76" width="11" height="11" fill="#d7301f" rx="2"><title>2023-12-14: 22 commits</title></rect>
  <rect x="730" y="90" width="11" height="11" fill="#d7301f" rx="2"><title>2023-12-15: 20 commits</title></rect>
  <rect x="730" y="104" width="11" height="11" fill="#d7301f" rx="2"><title>2023-12-16: 20 commits</title></rect>
  <rect x="744" y="20" width="11" height="11" fill="#fdcc8a" rx="2"><title>2023-12-17: 17 commits</title></rect>
  <rect x="744" y="34" width="11" height="11" fill="#d7301f" rx="2"><title>2023-12-18: 20 commits</title></rect>
  <rect x="744" y="48" width="11" height="11" fill="#fc8d59" rx="2"><title>2023-12-19: 19 commits</title></rect>
  <rect x="744" y="62" width="11" height="11" fill="#fdcc8a" rx="2"><title>2023-12-20: 16 commits</title></rect>
  <rect x="744" y="76" width="11" height="11" fill="#fc8d59" rx="2"><title>2023-12-21: 19 commits</title></rect>
  <rect x="744" y="90" width="11" height="11" fill="#fdcc8a" rx="2"><title>2023-12-22: 17 commits</title></rect>
  <rect x="744" y="104" width="11" height="11" fill="#fdcc8a" rx="2"><title>2023-12-23: 15 commits</title></rect>
  <rect x="758" y="20" width="11" height="11" fill="#fef0d9" rx="2"><title>2023-12-24: 11 commits</title></rect>
  <rect x="758" y="34" width="11" height="11" fill="#fef0d9" rx="2"><title>2023-12-25: 12 commits</title></rect>
  <rect x="758" y="48" width="11" height="11" fill="#fef0d9" rx="2"><title>2023-12-26: 14 commits</title></rect>
  <rect x="758" y="62" width="11" height="11" fill="#fdcc8a" rx="2"><title>2023-12-27: 16 commits</title></rect>
  <rect x="758" y="76" width="11" height="11" fill="#fc8d59" rx="2"><title>2023-12-28: 18 commits</title></rect>
  <rect x="758" y="90" width="11" height="11" fill="#fdcc8a" rx="2"><title>2023-12-29: 16 commits</title></rect>
  <rect x="758" y="104" width="11" height="11" fill="#fef0d9" rx="2"><title>2023-12-30: 6 commits</title></rect>
  <text x="30" y="133" class="title">2023 - 5,622 data updates</text>
  <text x="632" y="133" class="legend">Less</text>
  <rect x="662" y="123" width="11" height="11" fill="#161b22" rx="2"/>
  <rect x="676" y="123" width="11" height="11" fill="#fef0d9" rx="2"/>
  <rect x="690" y="123" width="11" height="11" fill="#fdcc8a" rx="2"/>
  <rect x="704" y="123" width="11" height="11" fill="#fc8d59" rx="2"/>
  <rect x="718" y="123" width="11" height="11" fill="#d7301f" rx="2"/>
  <text x="737" y="133" class="legend">More</text>
</svg>