<svg width="782" height="148" xmlns="http://www.w3.org/2000/svg">
  <style>
    .month { font: 10px sans-serif; fill: #8b949e; }
    .day { font: 10px sans-serif; fill: #8b949e; }
    .title { font: bold 14px sans-serif; fill: #c9d1d9; }
    .legend { font: 10px sans-serif; fill: #8b949e; }
  </style>
  <rect width="100%" height="100%" fill="#0d1117"/>
  <text x="0" y="29" class="day">Mon</text>
  <text x="0" y="57" class="day">Wed</text>
  <text x="0" y="85" class="day">Fri</text>
  <text x="0" y="113" class="day">Sun</text>
  <text x="30" y="15" class="month">Jan</text>
  <text x="100" y="15" class="month">Feb</text>
  <text x="156" y="15" class="month">Mar</text>
  <text x="212" y="15" class="month">Apr</text>
  <text x="282" y="15" class="month">May</text>
  <text x="338" y="15" class="month">Jun</text>
  <text x="394" y="15" class="month">Jul</text>
  <text x="464" y="15" class="month">Aug</text>
  <text x="520" y="15" class="month">Sep</text>
  <text x="590" y="15" class="month">Oct</text>
  <text x="646" y="15" class="month">Nov</text>
  <text x="702" y="15" class="month">Dec</text>
  <rect x="30" y="20" width="11" height="11" fill="#fef0d9" rx="2"><title>2023-12-31: 9 commits</title></rect>
  <rect x="30" y="34" width="11" height="11" fill="#fef0d9" rx="2"><title>2024-01-01: 8 commits</title></rect>
  <rect x="30" y="48" width="11" height="11" fill="#fef0d9" rx="2"><title>2024-01-02: 7 commits</title></rect>
  <rect x="30" y="62" width="11" height="11" fill="#fef0d9" rx="2"><title>2024-01-03: 12 commits</title></rect>
  <rect x="30" y="76" width="11" height="11" fill="#fdcc8a" rx="2"><title>2024-01-04: 17 commits</title></rect>
  <rect x="30" y="90" width="11" height="11" fill="#d7301f" rx="2"><title>2024-01-05: 20 commits</title></rect>
  <rect x="30" y="104" width="11" height="11" fill="#fdcc8a" rx="2"><title>2024-01-06: 15 commits</title></rect>
  <rect x="44" y="20" width="11" height="11" fill="#fdcc8a" rx="2"><title>2024-01-07: 15 commits</title></rect>
  <rect x="44" y="34" width="11" height="11" fill="#fef0d9" rx="2"><title>2024-01-08: 13 commits</title></rect>
  <rect x="44" y="48" width="11" height="11" fill="#fef0d9" rx="2"><title>2024-01-09: 14 commits</title></rect>
  <rect x="44" y="62" width="11" height="11" fill="#fdcc8a" rx="2"><title>2024-01-10: 15 commits</title></rect>
  <rect x="44" y="76" width="11" height="11" fill="#d7301f" rx="2"><title>2024-01-11: 20 commits</title></rect>
  <rect x="44" y="90" width="11" height="11" fill="#fc8d59" rx="2"><title>2024-01-12: 18 commits</title></rect>
  <rect x="44" y="104" width="11" height="11" fill="#fef0d9" rx="2"><title>2024-01-13: 11 commits</title></rect>
  <rect x="58" y="20" width="11" height="11" fill="#fef0d9" rx="2"><title>2024-01-14: 14 commits</title></rect>
  <rect x="58" y="34" width="11" height="11" fill="#d7301f" rx="2"><title>2024-01-15: 19 commits</title></rect>
  <rect x="58" y="48" width="11" height="11" fill="#d7301f" rx="2"><title>2024-01-16: 19 commits</title></rect>
  <rect x="58" y="62" width="11" height="11" fill="#d7301f" rx="2"><title>2024-01-17: 20 commits</title></rect>
  <rect x="58" y="76" width="11" height="11" fill="#d7301f" rx="2"><title>2024-01-18: 20 commits</title></rect>
  <rect x="58" y="90" width="11" height="11" fill="#d7301f" rx="2"><title>2024-01-19: 19 commits</title></rect>
  <rect x="58" y="104" width="11" height="11" fill="#fef0d9" rx="2"><title>2024-01-20: 6 commits</title></rect>
  <rect x="72" y="20" width="11" height="11" fill="#fef0d9" rx="2"><title>2024-01-21: 8 commits</title></rect>
  <rect x="72" y="34" width="11" height="11" fill="#fef0d9" rx="2"><title>2024-01-22: 10 commits</title></rect>
  <rect x="72" y="48" width="11" height="11" fill="#fdcc8a" rx="2"><title>2024-01-23: 15 commits</title></rect>
  <rect x="72" y="62" width="11" height="11" fill="#fef0d9" rx="2"><title>2024-01-24: 14 commits</title></rect>
  <rect x="72" y="76" width="11" height="11" fill="#d7301f" rx="2"><title>2024-01-25: 20 commits</title></rect>
  <rect x="72" y="90" width="11" height="11" fill="#d7301f" rx="2"><title>2024-01-26: 19 commits</title></rect>
  <rect x="72" y="104" width="11" height="11" fill="#fdcc8a" rx="2"><title>2024-01-27: 15 commits</title></rect>
  <rect x="86" y="20" width="11" height="11" fill="#fef0d9" rx="2"><title>2024-01-28: 12 commits</title></rect>
  <rect x="86" y="34" width="11" height="11" fill="#fc8d59" rx="2"><title>2024-01-29: 18 commits</title></rect>
  <rect x="86" y="48" width="11" height="11" fill="#d7301f" rx="2"><title>2024-01-30: 20 commits</title></rect>
  <rect x="86" y="62" width="11" height="11" fill="#fdcc8a" rx="2"><title>2024-01-31: 17 commits</title></rect>
  <rect x="86" y="76" width="11" height="11" fill="#fdcc8a" rx="2"><title>2024-02-01: 16 commits</title></rect>
  <rect x="86" y="90" width="11" height="11" fill="#fc8d59" rx="2"><title>2024-02-02: 18 commits</title></rect>
  <rect x="86" y="104" width="11" height="11" fill="#fef0d9" rx="2"><title>2024-02-03: 12 commits</title></rect>
  <rect x="100" y="20" width="11" height="11" fill="#fef0d9" rx="2"><title>2024-02-04: 1 commits</title></rect>
  <rect x="100" y="34" width="11" height="11" fill="#fef0d9" rx="2"><title>2024-02-05: 13 commits</title></rect>
  <rect x="100" y="48" width="11" height="11" fill="#fc8d59" rx="2"><title>2024-02-06: 18 commits</title></rect>
  <rect x="100" y="62" width="11" height="11" fill="#d7301f" rx="2"><title>2024-02-07: 19 commits</title></rect>
  <rect x="100" y="76" width="11" height="11" fill="#fdcc8a" rx="2"><title>2024-02-08: 15 commits</title></rect>
  <rect x="100" y="90" width="11" height="11" fill="#fdcc8a" rx="2"><title>2024-02-09: 15 commits</title></rect>
  <rect x="100" y="104" width="11" height="11" fill="#fef0d9" rx="2"><title>2024-02-10: 10 commits</title></rect>
  <rect x="114" y="20" width="11" height="11" fill="#fef0d9" rx="2"><title>2024-02-11: 3 commits</title></rect>
  <rect x="114" y="34" width="11" height="11" fill="#fdcc8a" rx="2"><title>2024-02-12: 15 commits</title></rect>
  <rect x="114" y="48" width="11" height="11" fill="#d7301f" rx="2"><title>2024-02-13: 19 commits</title></rect>
  <rect x="114" y="62" width="11" height="11" fill="#d7301f" rx="2"><title>2024-02-14: 19 commits</title></rect>
  <rect x="114" y="76" width="11" height="11" fill="#d7301f" rx="2"><title>2024-02-15: 19 commits</title></rect>
  <rect x="114" y="90" width="11" height="11" fill="#d7301f" rx="2"><title>2024-02-16: 20 commits</title></rect>
  <rect x="114" y="104" width="11" height="11" fill="#fef0d9" rx="2"><title>2024-02-17: 14 commits</title></rect>
  <rect x="128" y="20" width="11" height="11" fill="#fef0d9" rx="2"><title>2024-02-18: 14 commits</title></rect>
  <rect x="128" y="34" width="11" height="11" fill="#fdcc8a" rx="2"><title>2024-02-19: 16 commits</title></rect>
  <rect x="128" y="48" width="11" height="11" fill="#fef0d9" rx="2"><title>2024-02-20: 14 commits</title></rect>
  <rect x="128" y="62" width="11" height="11" fill="#fdcc8a" rx="2"><title>2024-02-21: 16 commits</title></rect>
  <rect x="128" y="76" width="11" height="11" fill="#fdcc8a" rx="2"><title>2024-02-22: 17 commits</title></rect>
  <rect x="128" y="90" width="11" height="11" fill="#fdcc8a" rx="2"><title>2024-02-23: 16 commits</title></rect>
  <rect x="128" y="104" width="11" height="11" fill="#fef0d9" rx="2"><title>2024-02-24: 2 commits</title></rect>
  <rect x="142" y="20" width="11" height="11" fill="#fef0d9" rx="2"><title>2024-02-25: 6 commits</title></rect>
  <rect x="142" y="34" width="11" height="11" fill="#fdcc8a" rx="2"><title>2024-02-26: 15 commits</title></rect>
  <rect x="142" y="48" width="11" height="11" fill="#d7301f" rx="2"><title>2024-02-27: 20 commits</title></rect>
  <rect x="142" y="62" width="11" height="11" fill="#fef0d9" rx="2"><title>2024-02-28: 14 commits</title></rect>
  <rect x="142" y="76" width="11" height="11" fill="#d7301f" rx="2"><title>2024-02-29: 19 commits</title></rect>
  <rect x="142" y="90" width="11" height="11" fill="#fdcc8a" rx="2"><title>2024-03-01: 16 commits</title></rect>
  <rect x="142" y="104" width="11" height="11" fill="#fef0d9" rx="2"><title>2024-03-02: 7 commits</title></rect>
  <rect x="156" y="20" width="11" height="11" fill="#fef0d9" rx="2"><title>2024-03-03: 5 commits</title></rect>
  <rect x="156" y="34" width="11" height="11" fill="#fdcc8a" rx="2"><title>2024-03-04: 17 commits</title></rect>
  <rect x="156" y="48" width="11" height="11" fill="#d7301f" rx="2"><title>2024-03-05: 19 commits</title></rect>
  <rect x="156" y="62" width="11" height="11" fill="#fdcc8a" rx="2"><title>2024-03-06: 17 commits</title></rect>
  <rect x="156" y="76" width="11" height="11" fill="#fc8d59" rx="2"><title>2024-03-07: 18 commits</title></rect>
  <rect x="156" y="90" width="11" height="11" fill="#fdcc8a" rx="2"><title>2024-03-08: 16 commits</title></rect>
  <rect x="156" y="104" width="11" height="11" fill="#fef0d9" rx="2"><title>2024-03-09: 9 commits</title></rect>
  <rect x="170" y="20" width="11" height="11" fill="#fef0d9" rx="2"><title>2024-03-10: 3 commits</title></rect>
  <rect x="170" y="34" width="11" height="11" fill="#fef0d9" rx="2"><title>2024-03-11: 9 commits</title></rect>
  <rect x="170" y="48" width="11" height="11" fill="#fdcc8a" rx="2"><title>2024-03-12: 16 commits</title></rect>
  <rect x="170" y="62" width="11" height="11" fill="#d7301f" rx="2"><title>2024-03-13: 19 commits</title></rect>
  <rect x="170" y="76" width="11" height="11" fill="#fdcc8a" rx="2"><title>2024-03-14: 16 commits</title></rect>
  <rect x="170" y="90" width="11" height="11" fill="#fef0d9" rx="2"><title>2024-03-15: 14 commits</title></rect>
  <rect x="170" y="104" width="11" height="11" fill="#fef0d9" rx="2"><title>2024-03-16: 7 commits</title></rect>
  <rect x="184" y="20" width="11" height="11" fill="#fef0d9" rx="2"><title>2024-03-17: 7 commits</title></rect>
  <rect x="184" y="34" width="11" height="11" fill="#fdcc8a" rx="2"><title>2024-03-18: 17 commits</title></rect>
  <rect x="184" y="48" width="11" height="11" fill="#fdcc8a" rx="2"><title>2024-03-19: 17 commits</title></rect>
  <rect x="184" y="62" width="11" height="11" fill="#d7301f" rx="2"><title>2024-03-20: 22 commits</title></rect>
  <rect x="184" y="76" width="11" height="11" fill="#d7301f" rx="2"><title>2024-03-21: 19 commits</title></rect>
  <rect x="184" y="90" width="11" height="11" fill="#d7301f" rx="2"><title>2024-03-22: 20 commits</title></rect>
  <rect x="184" y="104" width="11" height="11" fill="#fef0d9" rx="2"><title>2024-03-23: 9 commits</title></rect>
  <rect x="198" y="20" width="11" height="11" fill="#fef0d9" rx="2"><title>2024-03-24: 1 commits</title></rect>
  <rect x="198" y="34" width="11" height="11" fill="#fef0d9" rx="2"><title>2024-03-25: 12 commits</title></rect>
  <rect x="198" y="48" width="11" height="11" fill="#fdcc8a" rx="2"><title>2024-03-26: 15 commits</title></rect>
  <rect x="198" y="62" width="11" height="11" fill="#fdcc8a" rx="2"><title>2024-03-27: 15 commits</title></rect>
  <rect x="198" y="76" width="11" height="11" fill="#fdcc8a" rx="2"><title>2024-03-28: 17 commits</title></rect>
  <rect x="198" y="90" width="11" height="11" fill="#fdcc8a" rx="2"><title>2024-03-29: 17 commits</title></rect>
  <rect x="198" y="104" width="11" height="11" fill="#fef0d9" rx="2"><title>2024-03-30: 8 commits</title></rect>
  <rect x="198" y="20" width="11" height="11" fill="#fef0d9" rx="2"><title>2024-03-31: 1 commits</title></rect>
  <rect x="212" y="34" width="11" height="11" fill="#fef0d9" rx="2"><title>2024-04-01: 13 commits</title></rect>
  <rect x="212" y="48" width="11" height="11" fill="#d7301f" rx="2"><title>2024-04-02: 19 commits</title></rect>
  <rect x="212" y="62" width="11" height="11" fill="#fdcc8a" rx="2"><title>2024-04-03: 17 commits</title></rect>
  <rect x="212" y="76" width="11" height="11" fill="#fc8d59" rx="2"><title>2024-04-04: 18 commits</title></rect>
  <rect x="212" y="90" width="11" height="11" fill="#fdcc8a" rx="2"><title>2024-04-05: 17 commits</title></rect>
  <rect x="212" y="104" width="11" height="11" fill="#fdcc8a" rx="2"><title>2024-04-06: 16 commits</title></rect>
  <rect x="212" y="20" width="11" height="11" fill="#fdcc8a" rx="2"><title>2024-04-07: 16 commits</title></rect>
  <rect x="226" y="34" width="11" height="11" fill="#fc8d59" rx="2"><title>2024-04-08: 18 commits</title></rect>
  <rect x="226" y="48" width="11" height="11" fill="#fdcc8a" rx="2"><title>2024-04-09: 16 commits</title></rect>
  <rect x="226" y="62" width="11" height="11" fill="#fc8d59" rx="2"><title>2024-04-10: 18 commits</title></rect>
  <rect x="226" y="76" width="11" height="11" fill="#fc8d59" rx="2"><title>2024-04-11: 18 commits</title></rect>
  <rect x="226" y="90" width="11" height="11" fill="#d7301f" rx="2"><title>2024-04-12: 19 commits</title></rect>
  <rect x="226" y="104" width="11" height="11" fill="#fc8d59" rx="2"><title>2024-04-13: 18 commits</title></rect>
  <rect x="226" y="20" width="11" height="11" fill="#fdcc8a" rx="2"><title>2024-04-14: 16 commits</title></rect>
  <rect x="240" y="34" width="11" height="11" fill="#fdcc8a" rx="2"><title>2024-04-15: 17 commits</title></rect>
  <rect x="240" y="48" width="11" height="11" fill="#d7301f" rx="2"><title>2024-04-16: 19 commits</title></rect>
  <rect x="240" y="62" width="11" height="11" fill="#fdcc8a" rx="2"><title>2024-04-17: 17 commits</title></rect>
  <rect x="240" y="76" width="11" height="11" fill="#d7301f" rx="2"><title>2024-04-18: 19 commits</title></rect>
  <rect x="240" y="90" width="11" height="11" fill="#d7301f" rx="2"><title>2024-04-19: 19 commits</title></rect>
  <rect x="240" y="104" width="11" height="11" fill="#fdcc8a" rx="2"><title>2024-04-20: 15 commits</title></rect>
  <rect x="240" y="20" width="11" height="11" fill="#fdcc8a" rx="2"><title>2024-04-21: 15 commits</title></rect>
  <rect x="254" y="34" width="11" height="11" fill="#fc8d59" rx="2"><title>2024-04-22: 18 commits</title></rect>
  <rect x="254" y="48" width="11" height="11" fill="#fc8d59" rx="2"><title>2024-04-23: 18 commits</title></rect>
  <rect x="254" y="62" width="11" height="11" fill="#d7301f" rx="2"><title>2024-04-24: 20 commits</title></rect>
  <rect x="254" y="76" width="11" height="11" fill="#fc8d59" rx="2"><title>2024-04-25: 18 commits</title></rect>
  <rect x="254" y="90" width="11" height="11" fill="#fc8d59" rx="2"><title>2024-04-26: 18 commits</title></rect>
  <rect x="254" y="104" width="11" height="11" fill="#fdcc8a" rx="2"><title>2024-04-27: 17 commits</title></rect>
  <rect x="254" y="20" width="11" height="11" fill="#fef0d9" rx="2"><title>2024-04-28: 12 commits</title></rect>
  <rect x="268" y="34" width="11" height="11" fill="#fdcc8a" rx="2"><title>2024-04-29: 16 commits</title></rect>
  <rect x="268" y="48" width="11" height="11" fill="#fc8d59" rx="2"><title>2024-04-30: 18 commits</title></rect>
  <rect x="268" y="62" width="11" height="11" fill="#fef0d9" rx="2"><title>2024-05-01: 13 commits</title></rect>
  <rect x="268" y="76" width="11" height="11" fill="#fef0d9" rx="2"><title>2024-05-02: 6 commits</title></rect>
  <rect x="268" y="90" width="11" height="11" fill="#fef0d9" rx="2"><title>2024-05-03: 2 commits</title></rect>
  <rect x="268" y="104" width="11" height="11" fill="#fef0d9" rx="2"><title>2024-05-04: 12 commits</title></rect>
  <rect x="268" y="20" width="11" height="11" fill="#fef0d9" rx="2"><title>2024-05-05: 7 commits</title></rect>
  <rect x="282" y="34" width="11" height="11" fill="#fef0d9" rx="2"><title>2024-05-06: 8 commits</title></rect>
  <rect x="282" y="48" width="11" height="11" fill="#fdcc8a" rx="2"><title>2024-05-07: 17 commits</title></rect>
  <rect x="282" y="62" width="11" height="11" fill="#fdcc8a" rx="2"><title>2024-05-08: 16 commits</title></rect>
  <rect x="282" y="76" width="11" height="11" fill="#fdcc8a" rx="2"><title>2024-05-09: 17 commits</title></rect>
  <rect x="282" y="90" width="11" height="11" fill="#fef0d9" rx="2"><title>2024-05-10: 14 commits</title></rect>
  <rect x="282" y="104" width="11" height="11" fill="#fc8d59" rx="2"><title>2024-05-11: 18 commits</title></rect>
  <rect x="282" y="20" width="11" height="11" fill="#fef0d9" rx="2"><title>2024-05-12: 11 commits</title></rect>
  <rect x="296" y="34" width="11" height="11" fill="#fdcc8a" rx="2"><title>2024-05-13: 15 commits</title></rect>
  <rect x="296" y="48" width="11" height="11" fill="#d7301f" rx="2"><title>2024-05-14: 20 commits</title></rect>
  <rect x="296" y="62" width="11" height="11" fill="#fc8d59" rx="2"><title>2024-05-15: 18 commits</title></rect>
  <rect x="296" y="76" width="11" height="11" fill="#fdcc8a" rx="2"><title>2024-05-16: 17 commits</title></rect>
  <rect x="296" y="90" width="11" height="11" fill="#fc8d59" rx="2"><title>2024-05-17: 18 commits</title></rect>
  <rect x="296" y="104" width="11" height="11" fill="#d7301f" rx="2"><title>2024-05-18: 19 commits</title></rect>
  <rect x="296" y="20" width="11" height="11" fill="#fdcc8a" rx="2"><title>2024-05-19: 17 commits</title></rect>
  <rect x="310" y="34" width="11" height="11" fill="#fc8d59" rx="2"><title>2024-05-20: 18 commits</title></rect>
  <rect x="310" y="48" width="11" height="11" fill="#fc8d59" rx="2"><title>2024-05-21: 18 commits</title></rect>
  <rect x="310" y="62" width="11" height="11" fill="#fdcc8a" rx="2"><title>2024-05-22: 15 commits</title></rect>
  <rect x="310" y="76" width="11" height="11" fill="#d7301f" rx="2"><title>2024-05-23: 19 commits</title></rect>
  <rect x="310" y="90" width="11" height="11" fill="#d7301f" rx="2"><title>2024-05-24: 20 commits</title></rect>
  <rect x="310" y="104" width="11" height="11" fill="#fdcc8a" rx="2"><title>2024-05-25: 17 commits</title></rect>
  <rect x="310" y="20" width="11" height="11" fill="#fef0d9" rx="2"><title>2024-05-26: 11 commits</title></rect>
  <rect x="324" y="34" width="11" height="11" fill="#fc8d59" rx="2"><title>2024-05-27: 18 commits</title></rect>
  <rect x="324" y="48" width="11" height="11" fill="#fc8d59" rx="2"><title>2024-05-28: 18 commits</title></rect>
  <rect x="324" y="62" width="11" height="11" fill="#fdcc8a" rx="2"><title>2024-05-29: 16 commits</title></rect>
  <rect x="324" y="76" width="11" height="11" fill="#fc8d59" rx="2"><title>2024-05-30: 18 commits</title></rect>
  <rect x="324" y="90" width="11" height="11" fill="#fdcc8a" rx="2"><title>2024-05-31: 16 commits</title></rect>
  <rect x="324" y="104" width="11" height="11" fill="#fef0d9" rx="2"><title>2024-06-01: 10 commits</title></rect>
  <rect x="324" y="20" width="11" height="11" fill="#fef0d9" rx="2"><title>2024-06-02: 8 commits</title></rect>
  <rect x="338" y="34" width="11" height="11" fill="#fef0d9" rx="2"><title>2024-06-03: 14 commits</title></rect>
  <rect x="338" y="48" width="11" height="11" fill="#fdcc8a" rx="2"><title>2024-06-04: 17 commits</title></rect>
  <rect x="338" y="62" width="11" height="11" fill="#d7301f" rx="2"><title>2024-06-05: 19 commits</title></rect>
  <rect x="338" y="76" width="11" height="11" fill="#fdcc8a" rx="2"><title>2024-06-06: 16 commits</title></rect>
  <rect x="338" y="90" width="11" height="11" fill="#d7301f" rx="2"><title>2024-06-07: 19 commits</title></rect>
  <rect x="338" y="104" width="11" height="11" fill="#fef0d9" rx="2"><title>2024-06-08: 13 commits</title></rect>
  <rect x="338" y="20" width="11" height="11" fill="#fef0d9" rx="2"><title>2024-06-09: 9 commits</title></rect>
  <rect x="352" y="34" width="11" height="11" fill="#fef0d9" rx="2"><title>2024-06-10: 13 commits</title></rect>
  <rect x="352" y="48" width="11" height="11" fill="#fdcc8a" rx="2"><title>2024-06-11: 16 commits</title></rect>
  <rect x="352" y="62" width="11" height="11" fill="#fdcc8a" rx="2"><title>2024-06-12: 16 commits</title></rect>
  <rect x="352" y="76" width="11" height="11" fill="#fc8d59" rx="2"><title>2024-06-13: 18 commits</title></rect>
  <rect x="352" y="90" width="11" height="11" fill="#d7301f" rx="2"><title>2024-06-14: 19 commits</title></rect>
  <rect x="352" y="104" width="11" height="11" fill="#fef0d9" rx="2"><title>2024-06-15: 10 commits</title></rect>
  <rect x="352" y="20" width="11" height="11" fill="#fef0d9" rx="2"><title>2024-06-16: 4 commits</title></rect>
  <rect x="366" y="34" width="11" height="11" fill="#fdcc8a" rx="2"><title>2024-06-17: 16 commits</title></rect>
  <rect x="366" y="48" width="11" height="11" fill="#fdcc8a" rx="2"><title>2024-06-18: 16 commits</title></rect>
  <rect x="366" y="62" width="11" height="11" fill="#fef0d9" rx="2"><title>2024-06-19: 14 commits</title></rect>
  <rect x="366" y="76" width="11" height="11" fill="#fdcc8a" rx="2"><title>2024-06-20: 17 commits</title></rect>
  <rect x="366" y="90" width="11" height="11" fill="#fdcc8a" rx="2"><title>2024-06-21: 15 commits</title></rect>
  <rect x="366" y="104" width="11" height="11" fill="#fef0d9" rx="2"><title>2024-06-22: 7 commits</title></rect>
  <rect x="366" y="20" width="11" height="11" fill="#fef0d9" rx="2"><title>2024-06-23: 4 commits</title></rect>
  <rect x="380" y="34" width="11" height="11" fill="#fef0d9" rx="2"><title>2024-06-24: 3 commits</title></rect>
  <rect x="380" y="48" width="11" height="11" fill="#fdcc8a" rx="2"><title>2024-06-25: 17 commits</title></rect>
  <rect x="380" y="62" width="11" height="11" fill="#fdcc8a" rx="2"><title>2024-06-26: 17 commits</title></rect>
  <rect x="380" y="76" width="11" height="11" fill="#fdcc8a" rx="2"><title>2024-06-27: 16 commits</title></rect>
  <rect x="380" y="90" width="11" height="11" fill="#fef0d9" rx="2"><title>2024-06-28: 14 commits</title></rect>
  <rect x="380" y="104" width="11" height="11" fill="#fef0d9" rx="2"><title>2024-06-29: 5 commits</title></rect>
  <rect x="380" y="20" width="11" height="11" fill="#fef0d9" rx="2"><title>2024-06-30: 5 commits</title></rect>
  <rect x="394" y="34" width="11" height="11" fill="#fef0d9" rx="2"><title>2024-07-01: 14 commits</title></rect>
  <rect x="394" y="48" width="11" height="11" fill="#fdcc8a" rx="2"><title>2024-07-02: 15 commits</title></rect>
  <rect x="394" y="62" width="11" height="11" fill="#fdcc8a" rx="2"><title>2024-07-03: 15 commits</title></rect>
  <rect x="394" y="76" width="11" height="11" fill="#fdcc8a" rx="2"><title>2024-07-04: 17 commits</title></rect>
  <rect x="394" y="90" width="11" height="11" fill="#fef0d9" rx="2"><title>2024-07-05: 14 commits</title></rect>
  <rect x="394" y="104" width="11" height="11" fill="#fef0d9" rx="2"><title>2024-07-06: 12 commits</title></rect>
  <rect x="394" y="20" width="11" height="11" fill="#fef0d9" rx="2"><title>2024-07-07: 10 commits</title></rect>
  <rect x="408" y="34" width="11" height="11" fill="#fc8d59" rx="2"><title>2024-07-08: 18 commits</title></rect>
  <rect x="408" y="48" width="11" height="11" fill="#fef0d9" rx="2"><title>2024-07-09: 14 commits</title></rect>
  <rect x="408" y="62" width="11" height="11" fill="#d7301f" rx="2"><title>2024-07-10: 19 commits</title></rect>
  <rect x="408" y="76" width="11" height="11" fill="#fc8d59" rx="2"><title>2024-07-11: 18 commits</title></rect>
  <rect x="408" y="90" width="11" height="11" fill="#fdcc8a" rx="2"><title>2024-07-12: 17 commits</title></rect>
  <rect x="408" y="104" width="11" height="11" fill="#fef0d9" rx="2"><title>2024-07-13: 10 commits</title></rect>
  <rect x="408" y="20" width="11" height="11" fill="#fef0d9" rx="2"><title>2024-07-14: 11 commits</title></rect>
  <rect x="422" y="34" width="11" height="11" fill="#fdcc8a" rx="2"><title>2024-07-15: 15 commits</title></rect>
  <rect x="422" y="48" width="11" height="11" fill="#fdcc8a" rx="2"><title>2024-07-16: 15 commits</title></rect>
  <rect x="422" y="62" width="11" height="11" fill="#fdcc8a" rx="2"><title>2024-07-17: 15 commits</title></rect>
  <rect x="422" y="76" width="11" height="11" fill="#fef0d9" rx="2"><title>2024-07-18: 14 commits</title></rect>
  <rect x="422" y="90" width="11" height="11" fill="#fef0d9" rx="2"><title>2024-07-19: 11 commits</title></rect>
  <rect x="422" y="104" width="11" height="11" fill="#fef0d9" rx="2"><title>2024-07-20: 8 commits</title></rect>
  <rect x="422" y="20" width="11" height="11" fill="#161b22" rx="2"><title>2024-07-21: 0 commits</title></rect>
  <rect x="436" y="34" width="11" height="11" fill="#fef0d9" rx="2"><title>2024-07-22: 11 commits</title></rect>
  <rect x="436" y="48" width="11" height="11" fill="#fef0d9" rx="2"><title>2024-07-23: 11 commits</title></rect>
  <rect x="436" y="62" width="11" height="11" fill="#fdcc8a" rx="2"><title>2024-07-24: 15 commits</title></rect>
  <rect x="436" y="76" width="11" height="11" fill="#fef0d9" rx="2"><title>2024-07-25: 14 commits</title></rect>
  <rect x="436" y="90" width="11" height="11" fill="#fdcc8a" rx="2"><title>2024-07-26: 17 commits</title></rect>
  <rect x="436" y="104" width="11" height="11" fill="#fef0d9" rx="2"><title>2024-07-27: 6 commits</title></rect>
  <rect x="436" y="20" width="11" height="11" fill="#fef0d9" rx="2"><title>2024-07-28: 5 commits</title></rect>
  <rect x="450" y="34" width="11" height="11" fill="#fdcc8a" rx="2"><title>2024-07-29: 16 commits</title></rect>
  <rect x="450" y="48" width="11" height="11" fill="#fdcc8a" rx="2"><title>2024-07-30: 15 commits</title></rect>
  <rect x="450" y="62" width="11" height="11" fill="#fdcc8a" rx="2"><title>2024-07-31: 16 commits</title></rect>
  <rect x="450" y="76" width="11" height="11" fill="#fdcc8a" rx="2"><title>2024-08-01: 16 commits</title></rect>
  <rect x="450" y="90" width="11" height="11" fill="#fdcc8a" rx="2"><title>2024-08-02: 16 commits</title></rect>
  <rect x="450" y="104" width="11" height="11" fill="#fef0d9" rx="2"><title>2024-08-03: 10 commits</title></rect>
  <rect x="450" y="20" width="11" height="11" fill="#fef0d9" rx="2"><title>2024-08-04: 10 commits</title></rect>
  <rect x="464" y="34" width="11" height="11" fill="#fdcc8a" rx="2"><title>2024-08-05: 15 commits</title></rect>
  <rect x="464" y="48" width="11" height="11" fill="#fdcc8a" rx="2"><title>2024-08-06: 17 commits</title></rect>
  <rect x="464" y="62" width="11" height="11" fill="#fdcc8a" rx="2"><title>2024-08-07: 17 commits</title></rect>
  <rect x="464" y="76" width="11" height="11" fill="#fdcc8a" rx="2"><title>2024-08-08: 17 commits</title></rect>
  <rect x="464" y="90" width="11" height="11" fill="#fc8d59" rx="2"><title>2024-08-09: 18 commits</title></rect>
  <rect x="464" y="104" width="11" height="11" fill="#fdcc8a" rx="2"><title>2024-08-10: 17 commits</title></rect>
  <rect x="464" y="20" width="11" height="11" fill="#fef0d9" rx="2"><title>2024-08-11: 13 commits</title></rect>
  <rect x="478" y="34" width="11" height="11" fill="#fc8d59" rx="2"><title>2024-08-12: 18 commits</title></rect>
  <rect x="478" y="48" width="11" height="11" fill="#d7301f" rx="2"><title>2024-08-13: 21 commits</title></rect>
  <rect x="478" y="62" width="11" height="11" fill="#d7301f" rx="2"><title>2024-08-14: 20 commits</title></rect>
  <rect x="478" y="76" width="11" height="11" fill="#fef0d9" rx="2"><title>2024-08-15: 13 commits</title></rect>
  <rect x="478" y="90" width="11" height="11" fill="#fdcc8a" rx="2"><title>2024-08-16: 16 commits</title></rect>
  <rect x="478" y="104" width="11" height="11" fill="#fc8d59" rx="2"><title>2024-08-17: 18 commits</title></rect>
  <rect x="478" y="20" width="11" height="11" fill="#fef0d9" rx="2"><title>2024-08-18: 13 commits</title></rect>
  <rect x="492" y="34" width="11" height="11" fill="#fc8d59" rx="2"><title>2024-08-19: 18 commits</title></rect>
  <rect x="492" y="48" width="11" height="11" fill="#fc8d59" rx="2"><title>2024-08-20: 18 commits</title></rect>
  <rect x="492" y="62" width="11" height="11" fill="#fc8d59" rx="2"><title>2024-08-21: 18 commits</title></rect>
  <rect x="492" y="76" width="11" height="11" fill="#fc8d59" rx="2"><title>2024-08-22: 18 commits</title></rect>
  <rect x="492" y="90" width="11" height="11" fill="#fdcc8a" rx="2"><title>2024-08-23: 17 commits</title></rect>
  <rect x="492" y="104" width="11" height="11" fill="#fef0d9" rx="2"><title>2024-08-24: 14 commits</title></rect>
  <rect x="492" y="20" width="11" height="11" fill="#d7301f" rx="2"><title>2024-08-25: 19 commits</title></rect>
  <rect x="506" y="34" width="11" height="11" fill="#d7301f" rx="2"><title>2024-08-26: 20 commits</title></rect>
  <rect x="506" y="48" width="11" height="11" fill="#fc8d59" rx="2"><title>2024-08-27: 18 commits</title></rect>
  <rect x="506" y="62" width="11" height="11" fill="#fef0d9" rx="2"><title>2024-08-28: 6 commits</title></rect>
  <rect x="506" y="76" width="11" height="11" fill="#fef0d9" rx="2"><title>2024-08-29: 14 commits</title></rect>
  <rect x="506" y="90" width="11" height="11" fill="#fdcc8a" rx="2"><title>2024-08-30: 17 commits</title></rect>
  <rect x="506" y="104" width="11" height="11" fill="#fdcc8a" rx="2"><title>2024-08-31: 17 commits</title></rect>
  <rect x="506" y="20" width="11" height="11" fill="#fdcc8a" rx="2"><title>2024-09-01: 16 commits</title></rect>
  <rect x="520" y="34" width="11" height="11" fill="#fdcc8a" rx="2"><title>2024-09-02: 15 commits</title></rect>
  <rect x="520" y="48" width="11" height="11" fill="#fdcc8a" rx="2"><title>2024-09-03: 16 commits</title></rect>
  <rect x="520" y="62" width="11" height="11" fill="#d7301f" rx="2"><title>2024-09-04: 21 commits</title></rect>
  <rect x="520" y="76" width="11" height="11" fill="#fdcc8a" rx="2"><title>2024-09-05: 17 commits</title></rect>
  <rect x="520" y="90" width="11" height="11" fill="#d7301f" rx="2"><title>2024-09-06: 20 commits</title></rect>
  <rect x="520" y="104" width="11" height="11" fill="#fef0d9" rx="2"><title>2024-09-07: 14 commits</title></rect>
  <rect x="520" y="20" width="11" height="11" fill="#fef0d9" rx="2"><title>2024-09-08: 14 commits</title></rect>
  <rect x="534" y="34" width="11" height="11" fill="#d7301f" rx="2"><title>2024-09-09: 19 commits</title></rect>
  <rect x="534" y="48" width="11" height="11" fill="#fdcc8a" rx="2"><title>2024-09-10: 17 commits</title></rect>
  <rect x="534" y="62" width="11" height="11" fill="#fdcc8a" rx="2"><title>2024-09-11: 17 commits</title></rect>
  <rect x="534" y="76" width="11" height="11" fill="#d7301f" rx="2"><title>2024-09-12: 19 commits</title></rect>
  <rect x="534" y="90" width="11" height="11" fill="#d7301f" rx="2"><title>2024-09-13: 21 commits</title></rect>
  <rect x="534" y="104" width="11" height="11" fill="#fef0d9" rx="2"><title>2024-09-14: 10 commits</title></rect>
  <rect x="534" y="20" width="11" height="11" fill="#fef0d9" rx="2"><title>2024-09-15: 12 commits</title></rect>
  <rect x="548" y="34" width="11" height="11" fill="#fdcc8a" rx="2"><title>2024-09-16: 17 commits</title></rect>
  <rect x="548" y="48" width="11" height="11" fill="#fdcc8a" rx="2"><title>2024-09-17: 17 commits</title></rect>
  <rect x="548" y="62" width="11" height="11" fill="#d7301f" rx="2"><title>2024-09-18: 20 commits</title></rect>
  <rect x="548" y="76" width="11" height="11" fill="#fdcc8a" rx="2"><title>2024-09-19: 15 commits</title></rect>
  <rect x="548" y="90" width="11" height="11" fill="#d7301f" rx="2"><title>2024-09-20: 19 commits</title></rect>
  <rect x="548" y="104" width="11" height="11" fill="#fef0d9" rx="2"><title>2024-09-21: 11 commits</title></rect>
  <rect x="548" y="20" width="11" height="11" fill="#fef0d9" rx="2"><title>2024-09-22: 13 commits</title></rect>
  <rect x="562" y="34" width="11" height="11" fill="#fdcc8a" rx="2"><title>2024-09-23: 17 commits</title></rect>
  <rect x="562" y="48" width="11" height="11" fill="#fdcc8a" rx="2"><title>2024-09-24: 15 commits</title></rect>
  <rect x="562" y="62" width="11" height="11" fill="#fc8d59" rx="2"><title>2024-09-25: 18 commits</title></rect>
  <rect x="562" y="76" width="11" height="11" fill="#d7301f" rx="2"><title>2024-09-26: 19 commits</title></rect>
  <rect x="562" y="90" width="11" height="11" fill="#fdcc8a" rx="2"><title>2024-09-27: 15 commits</title></rect>
  <rect x="562" y="104" width="11" height="11" fill="#fc8d59" rx="2"><title>2024-09-28: 18 commits</title></rect>
  <rect x="562" y="20" width="11" height="11" fill="#fef0d9" rx="2"><title>2024-09-29: 14 commits</title></rect>
  <rect x="576" y="34" width="11" height="11" fill="#fdcc8a" rx="2"><title>2024-09-30: 16 commits</title></rect>
  <rect x="576" y="48" width="11" height="11" fill="#fdcc8a" rx="2"><title>2024-10-01: 17 commits</title></rect>
  <rect x="576" y="62" width="11" height="11" fill="#fdcc8a" rx="2"><title>2024-10-02: 17 commits</title></rect>
  <rect x="576" y="76" width="11" height="11" fill="#fc8d59" rx="2"><title>2024-10-03: 18 commits</title></rect>
  <rect x="576" y="90" width="11" height="11" fill="#d7301f" rx="2"><title>2024-10-04: 19 commits</title></rect>
  <rect x="576" y="104" width="11" height="11" fill="#fdcc8a" rx="2"><title>2024-10-05: 15 commits</title></rect>
  <rect x="576" y="20" width="11" height="11" fill="#fef0d9" rx="2"><title>2024-10-06: 9 commits</title></rect>
  <rect x="590" y="34" width="11" height="11" fill="#fdcc8a" rx="2"><title>2024-10-07: 17 commits</title></rect>
  <rect x="590" y="48" width="11" height="11" fill="#fdcc8a" rx="2"><title>2024-10-08: 16 commits</title></rect>
  <rect x="590" y="62" width="11" height="11" fill="#fef0d9" rx="2"><title>2024-10-09: 2 commits</title></rect>
  <rect x="590" y="76" width="11" height="11" fill="#161b22" rx="2"><title>2024-10-10: 0 commits</title></rect>
  <rect x="590" y="90" width="11" height="11" fill="#161b22" rx="2"><title>2024-10-11: 0 commits</title></rect>
  <rect x="590" y="104" width="11" height="11" fill="#161b22" rx="2"><title>2024-10-12: 0 commits</title></rect>
  <rect x="590" y="20" width="11" height="11" fill="#fef0d9" rx="2"><title>2024-10-13: 4 commits</title></rect>
  <rect x="604" y="34" width="11" height="11" fill="#fdcc8a" rx="2"><title>2024-10-14: 16 commits</title></rect>
  <rect x="604" y="48" width="11" height="11" fill="#fef0d9" rx="2"><title>2024-10-15: 14 commits</title></rect>
  <rect x="604" y="62" width="11" height="11" fill="#fef0d9" rx="2"><title>2024-10-16: 13 commits</title></rect>
  <rect x="604" y="76" width="11" height="11" fill="#fc8d59" rx="2"><title>2024-10-17: 18 commits</title></rect>
  <rect x="604" y="90" width="11" height="11" fill="#fdcc8a" rx="2"><title>2024-10-18: 17 commits</title></rect>
  <rect x="604" y="104" width="11" height="11" fill="#fdcc8a" rx="2"><title>2024-10-19: 15 commits</title></rect>
  <rect x="604" y="20" width="11" height="11" fill="#fef0d9" rx="2"><title>2024-10-20: 14 commits</title></rect>
  <rect x="618" y="34" width="11" height="11" fill="#fdcc8a" rx="2"><title>2024-10-21: 17 commits</title></rect>
  <rect x="618" y="48" width="11" height="11" fill="#d7301f" rx="2"><title>2024-10-22: 21 commits</title></rect>
  <rect x="618" y="62" width="11" height="11" fill="#d7301f" rx="2"><title>2024-10-23: 20 commits</title></rect>
  <rect x="618" y="76" width="11" height="11" fill="#d7301f" rx="2"><title>2024-10-24: 21 commits</title></rect>
  <rect x="618" y="90" width="11" height="11" fill="#d7301f" rx="2"><title>2024-10-25: 22 commits</title></rect>
  <rect x="618" y="104" width="11" height="11" fill="#fc8d59" rx="2"><title>2024-10-26: 18 commits</title></rect>
  <rect x="632" y="20" width="11" height="11" fill="#fc8d59" rx="2"><title>2024-10-27: 18 commits</title></rect>
  <rect x="632" y="34" width="11" height="11" fill="#fdcc8a" rx="2"><title>2024-10-28: 16 commits</title></rect>
  <rect x="632" y="48" width="11" height="11" fill="#d7301f" rx="2"><title>2024-10-29: 19 commits</title></rect>
  <rect x="632" y="62" width="11" height="11" fill="#fc8d59" rx="2"><title>2024-10-30: 18 commits</title></rect>
  <rect x="632" y="76" width="11" height="11" fill="#d7301f" rx="2"><title>2024-10-31: 20 commits</title></rect>
  <rect x="632" y="90" width="11" height="11" fill="#fc8d59" rx="2"><title>2024-11-01: 18 commits</title></rect>
  <rect x="632" y="104" width="11" height="11" fill="#d7301f" rx="2"><title>2024-11-02: 19 commits</title></rect>
  <rect x="646" y="20" width="11" height="11" fill="#fdcc8a" rx="2"><title>2024-11-03: 17 commits</title></rect>
  <rect x="646" y="34" width="11" height="11" fill="#d7301f" rx="2"><title>2024-11-04: 20 commits</title></rect>
  <rect x="646" y="48" width="11" height="11" fill="#d7301f" rx="2"><title>2024-11-05: 19 commits</title></rect>
  <rect x="646" y="62" width="11" height="11" fill="#d7301f" rx="2"><title>2024-11-06: 21 commits</title></rect>
  <rect x="646" y="76" width="11" height="11" fill="#d7301f" rx="2"><title>2024-11-07: 20 commits</title></rect>
  <rect x="646" y="90" width="11" height="11" fill="#fdcc8a" rx="2"><title>2024-11-08: 16 commits</title></rect>
  <rect x="646" y="104" width="11" height="11" fill="#fdcc8a" rx="2"><title>2024-11-09: 15 commits</title></rect>
  <rect x="660" y="20" width="11" height="11" fill="#fdcc8a" rx="2"><title>2024-11-10: 15 commits</title></rect>
  <rect x="660" y="34" width="11" height="11" fill="#d7301f" rx="2"><title>2024-11-11: 20 commits</title></rect>
  <rect x="660" y="48" width="11" height="11" fill="#d7301f" rx="2"><title>2024-11-12: 19 commits</title></rect>
  <rect x="660" y="62" width="11" height="11" fill="#d7301f" rx="2"><title>2024-11-13: 21 commits</title></rect>
  <rect x="660" y="76" width="11" height="11" fill="#d7301f" rx="2"><title>2024-11-14: 22 commits</title></rect>
  <rect x="660" y="90" width="11" height="11" fill="#d7301f" rx="2"><title>2024-11-15: 20 commits</title></rect>
  <rect x="660" y="104" width="11" height="11" fill="#fdcc8a" rx="2"><title>2024-11-16: 17 commits</title></rect>
  <rect x="674" y="20" width="11" height="11" fill="#d7301f" rx="2"><title>2024-11-17: 19 commits</title></rect>
  <rect x="674" y="34" width="11" height="11" fill="#d7301f" rx="2"><title>2024-11-18: 22 commits</title></rect>
  <rect x="674" y="48" width="11" height="11" fill="#d7301f" rx="2"><title>2024-11-19: 19 commits</title></rect>
  <rect x="674" y="62" width="11" height="11" fill="#d7301f" rx="2"><title>2024-11-20: 21 commits</title></rect>
  <rect x="674" y="76" width="11" height="11" fill="#fdcc8a" rx="2"><title>2024-11-21: 16 commits</title></rect>
  <rect x="674" y="90" width="11" height="11" fill="#d7301f" rx="2"><title>2024-11-22: 20 commits</title></rect>
  <rect x="674" y="104" width="11" height="11" fill="#fef0d9" rx="2"><title>2024-11-23: 9 commits</title></rect>
  <rect x="688" y="20" width="11" height="11" fill="#fef0d9" rx="2"><title>2024-11-24: 14 commits</title></rect>
  <rect x="688" y="34" width="11" height="11" fill="#fdcc8a" rx="2"><title>2024-11-25: 17 commits</title></rect>
  <rect x="688" y="48" width="11" height="11" fill="#d7301f" rx="2"><title>2024-11-26: 19 commits</title></rect>
  <rect x="688" y="62" width="11" height="11" fill="#d7301f" rx="2"><title>2024-11-27: 20 commits</title></rect>
  <rect x="688" y="76" width="11" height="11" fill="#d7301f" rx="2"><title>2024-11-28: 19 commits</title></rect>
  <rect x="688" y="90" width="11" height="11" fill="#d7301f" rx="2"><title>2024-11-29: 19 commits</title></rect>
  <rect x="688" y="104" width="11" height="11" fill="#fdcc8a" rx="2"><title>2024-11-30: 17 commits</title></rect>
  <rect x="702" y="20" width="11" height="11" fill="#fdcc8a" rx="2"><title>2024-12-01: 17 commits</title></rect>
  <rect x="702" y="34" width="11" height="11" fill="#fc8d59" rx="2"><title>2024-12-02: 18 commits</title></rect>
  <rect x="702" y="48" width="11" height="11" fill="#d7301f" rx="2"><title>2024-12-03: 20 commits</title></rect>
  <rect x="702" y="62" width="11" height="11" fill="#d7301f" rx="2"><title>2024-12-04: 20 commits</title></rect>
  <rect x="702" y="76" width="11" height="11" fill="#d7301f" rx="2"><title>2024-12-05: 19 commits</title></rect>
  <rect x="702" y="90" width="11" height="11" fill="#d7301f" rx="2"><title>2024-12-06: 20 commits</title></rect>
  <rect x="702" y="104" width="11" height="11" fill="#d7301f" rx="2"><title>2024-12-07: 19 commits</title></rect>
  <rect x="716" y="20" width="11" height="11" fill="#fdcc8a" rx="2"><title>2024-12-08: 16 commits</title></rect>
  <rect x="716" y="34" width="11" height="11" fill="#d7301f" rx="2"><title>2024-12-09: 19 commits</title></rect>
  <rect x="716" y="48" width="11" height="11" fill="#fdcc8a" rx="2"><title>2024-12-10: 17 commits</title></rect>
  <rect x="716" y="62" width="11" height="11" fill="#fc8d59" rx="2"><title>2024-12-11: 18 commits</title></rect>
  <rect x="716" y="76" width="11" height="11" fill="#d7301f" rx="2"><title>2024-12-12: 20 commits</title></rect>
  <rect x="716" y="90" width="11" height="11" fill="#d7301f" rx="2"><title>2024-12-13: 19 commits</title></rect>
  <rect x="716" y="104" width="11" height="11" fill="#fef0d9" rx="2"><title>2024-12-14: 10 commits</title></rect>
  <rect x="730" y="20" width="11" height="11" fill="#fef0d9" rx="2"><title>2024-12-15: 6 commits</title></rect>
  <rect x="730" y="34" width="11" height="11" fill="#fdcc8a" rx="2"><title>2024-12-16: 17 commits</title></rect>
  <rect x="730" y="48" width="11" height="11" fill="#fdcc8a" rx="2"><title>2024-12-17: 17 commits</title></rect>
  <rect x="730" y="62" width="11" height="11" fill="#d7301f" rx="2"><title>2024-12-18: 20 commits</title></rect>
  <rect x="730" y="76" width="11" height="11" fill="#d7301f" rx="2"><title>2024-12-19: 19 commits</title></rect>
  <rect x="730" y="90" width="11" height="11" fill="#d7301f" rx="2"><title>2024-12-20: 21 commits</title></rect>
  <rect x="730" y="104" width="11" height="11" fill="#fef0d9" rx="2"><title>2024-12-21: 10 commits</title></rect>
  <rect x="744" y="20" width="11" height="11" fill="#fef0d9" rx="2"><title>2024-12-22: 12 commits</title></rect>
  <rect x="744" y="34" width="11" height="11" fill="#fdcc8a" rx="2"><title>2024-12-23: 17 commits</title></rect>
  <rect x="744" y="48" width="11" height="11" fill="#fef0d9" rx="2"><title>2024-12-24: 11 commits</title></rect>
  <rect x="744" y="62" width="11" height="11" fill="#fef0d9" rx="2"><title>2024-12-25: 13 commits</title></rect>
  <rect x="744" y="76" width="11" height="11" fill="#fef0d9" rx="2"><title>2024-12-26: 8 commits</title></rect>
  <rect x="744" y="90" width="11" height="11" fill="#fef0d9" rx="2"><title>2024-12-27: 6 commits</title></rect>
  <rect x="744" y="104" width="11" height="11" fill="#fef0d9" rx="2"><title>2024-12-28: 3 commits</title></rect>
  <rect x="758" y="20" width="11" height="11" fill="#fef0d9" rx="2"><title>2024-12-29: 8 commits</title></rect>
  <rect x="758" y="34" width="11" height="11" fill="#fef0d9" rx="2"><title>2024-12-30: 12 commits</title></rect>
  <text x="30" y="133" class="title">2024 - 5,527 data updates</text>
  <text x="632" y="133" class="legend">Less</text>
  <rect x="662" y="123" width="11" height="11" fill="#161b22" rx="2"/>
  <rect x="676" y="123" width="11" height="11" fill="#fef0d9" rx="2"/>
  <rect x="690" y="123" width="11" height="11" fill="#fdcc8a" rx="2"/>
  <rect x="704" y="123" width="11" height="11" fill="#fc8d59" rx="2"/>
  <rect x="718" y="123" width="11" height="11" fill="#d7301f" rx="2"/>
  <text x="737" y="133" class="legend">More</text>
</svg>