<svg width="782" height="148" xmlns="http://www.w3.org/2000/svg">
  <style>
    .month { font: 10px sans-serif; fill: #8b949e; }
    .day { font: 10px sans-serif; fill: #8b949e; }
    .title { font: bold 14px sans-serif; fill: #c9d1d9; }
    .legend { font: 10px sans-serif; fill: #8b949e; }
  </style>
  <rect width="100%" height="100%" fill="#0d1117"/>
  <text x="0" y="29" class="day">Mon</text>
  <text x="0" y="57" class="day">Wed</text>
  <text x="0" y="85" class="day">Fri</text>
  <text x="0" y="113" class="day">Sun</text>
  <text x="30" y="15" class="month">Jan</text>
  <text x="100" y="15" class="month">Feb</text>
  <text x="156" y="15" class="month">Mar</text>
  <text x="212" y="15" class="month">Apr</text>
  <text x="282" y="15" class="month">May</text>
  <text x="338" y="15" class="month">Jun</text>
  <text x="394" y="15" class="month">Jul</text>
  <text x="464" y="15" class="month">Aug</text>
  <text x="520" y="15" class="month">Sep</text>
  <text x="576" y="15" class="month">Oct</text>
  <text x="646" y="15" class="month">Nov</text>
  <text x="702" y="15" class="month">Dec</text>
  <rect x="30" y="76" width="11" height="11" fill="#161b22" rx="2"><title>2020-12-31: 0 commits</title></rect>
  <rect x="30" y="90" width="11" height="11" fill="#161b22" rx="2"><title>2021-01-01: 0 commits</title></rect>
  <rect x="30" y="104" width="11" height="11" fill="#161b22" rx="2"><title>2021-01-02: 0 commits</title></rect>
  <rect x="44" y="20" width="11" height="11" fill="#161b22" rx="2"><title>2021-01-03: 0 commits</title></rect>
  <rect x="44" y="34" width="11" height="11" fill="#161b22" rx="2"><title>2021-01-04: 0 commits</title></rect>
  <rect x="44" y="48" width="11" height="11" fill="#161b22" rx="2"><title>2021-01-05: 0 commits</title></rect>
  <rect x="44" y="62" width="11" height="11" fill="#161b22" rx="2"><title>2021-01-06: 0 commits</title></rect>
  <rect x="44" y="76" width="11" height="11" fill="#161b22" rx="2"><title>2021-01-07: 0 commits</title></rect>
  <rect x="44" y="90" width="11" height="11" fill="#161b22" rx="2"><title>2021-01-08: 0 commits</title></rect>
  <rect x="44" y="104" width="11" height="11" fill="#161b22" rx="2"><title>2021-01-09: 0 commits</title></rect>
  <rect x="58" y="20" width="11" height="11" fill="#161b22" rx="2"><title>2021-01-10: 0 commits</title></rect>
  <rect x="58" y="34" width="11" height="11" fill="#161b22" rx="2"><title>2021-01-11: 0 commits</title></rect>
  <rect x="58" y="48" width="11" height="11" fill="#161b22" rx="2"><title>2021-01-12: 0 commits</title></rect>
  <rect x="58" y="62" width="11" height="11" fill="#161b22" rx="2"><title>2021-01-13: 0 commits</title></rect>
  <rect x="58" y="76" width="11" height="11" fill="#161b22" rx="2"><title>2021-01-14: 0 commits</title></rect>
  <rect x="58" y="90" width="11" height="11" fill="#161b22" rx="2"><title>2021-01-15: 0 commits</title></rect>
  <rect x="58" y="104" width="11" height="11" fill="#161b22" rx="2"><title>2021-01-16: 0 commits</title></rect>
  <rect x="72" y="20" width="11" height="11" fill="#161b22" rx="2"><title>2021-01-17: 0 commits</title></rect>
  <rect x="72" y="34" width="11" height="11" fill="#161b22" rx="2"><title>2021-01-18: 0 commits</title></rect>
  <rect x="72" y="48" width="11" height="11" fill="#161b22" rx="2"><title>2021-01-19: 0 commits</title></rect>
  <rect x="72" y="62" width="11" height="11" fill="#161b22" rx="2"><title>2021-01-20: 0 commits</title></rect>
  <rect x="72" y="76" width="11" height="11" fill="#161b22" rx="2"><title>2021-01-21: 0 commits</title></rect>
  <rect x="72" y="90" width="11" height="11" fill="#161b22" rx="2"><title>2021-01-22: 0 commits</title></rect>
  <rect x="72" y="104" width="11" height="11" fill="#161b22" rx="2"><title>2021-01-23: 0 commits</title></rect>
  <rect x="86" y="20" width="11" height="11" fill="#161b22" rx="2"><title>2021-01-24: 0 commits</title></rect>
  <rect x="86" y="34" width="11" height="11" fill="#161b22" rx="2"><title>2021-01-25: 0 commits</title></rect>
  <rect x="86" y="48" width="11" height="11" fill="#161b22" rx="2"><title>2021-01-26: 0 commits</title></rect>
  <rect x="86" y="62" width="11" height="11" fill="#161b22" rx="2"><title>2021-01-27: 0 commits</title></rect>
  <rect x="86" y="76" width="11" height="11" fill="#161b22" rx="2"><title>2021-01-28: 0 commits</title></rect>
  <rect x="86" y="90" width="11" height="11" fill="#161b22" rx="2"><title>2021-01-29: 0 commits</title></rect>
  <rect x="86" y="104" width="11" height="11" fill="#161b22" rx="2"><title>2021-01-30: 0 commits</title></rect>
  <rect x="100" y="20" width="11" height="11" fill="#161b22" rx="2"><title>2021-01-31: 0 commits</title></rect>
  <rect x="100" y="34" width="11" height="11" fill="#161b22" rx="2"><title>2021-02-01: 0 commits</title></rect>
  <rect x="100" y="48" width="11" height="11" fill="#161b22" rx="2"><title>2021-02-02: 0 commits</title></rect>
  <rect x="100" y="62" width="11" height="11" fill="#161b22" rx="2"><title>2021-02-03: 0 commits</title></rect>
  <rect x="100" y="76" width="11" height="11" fill="#161b22" rx="2"><title>2021-02-04: 0 commits</title></rect>
  <rect x="100" y="90" width="11" height="11" fill="#161b22" rx="2"><title>2021-02-05: 0 commits</title></rect>
  <rect x="100" y="104" width="11" height="11" fill="#161b22" rx="2"><title>2021-02-06: 0 commits</title></rect>
  <rect x="114" y="20" width="11" height="11" fill="#161b22" rx="2"><title>2021-02-07: 0 commits</title></rect>
  <rect x="114" y="34" width="11" height="11" fill="#161b22" rx="2"><title>2021-02-08: 0 commits</title></rect>
  <rect x="114" y="48" width="11" height="11" fill="#161b22" rx="2"><title>2021-02-09: 0 commits</title></rect>
  <rect x="114" y="62" width="11" height="11" fill="#161b22" rx="2"><title>2021-02-10: 0 commits</title></rect>
  <rect x="114" y="76" width="11" height="11" fill="#161b22" rx="2"><title>2021-02-11: 0 commits</title></rect>
  <rect x="114" y="90" width="11" height="11" fill="#161b22" rx="2"><title>2021-02-12: 0 commits</title></rect>
  <rect x="114" y="104" width="11" height="11" fill="#161b22" rx="2"><title>2021-02-13: 0 commits</title></rect>
  <rect x="128" y="20" width="11" height="11" fill="#161b22" rx="2"><title>2021-02-14: 0 commits</title></rect>
  <rect x="128" y="34" width="11" height="11" fill="#161b22" rx="2"><title>2021-02-15: 0 commits</title></rect>
  <rect x="128" y="48" width="11" height="11" fill="#161b22" rx="2"><title>2021-02-16: 0 commits</title></rect>
  <rect x="128" y="62" width="11" height="11" fill="#161b22" rx="2"><title>2021-02-17: 0 commits</title></rect>
  <rect x="128" y="76" width="11" height="11" fill="#161b22" rx="2"><title>2021-02-18: 0 commits</title></rect>
  <rect x="128" y="90" width="11" height="11" fill="#161b22" rx="2"><title>2021-02-19: 0 commits</title></rect>
  <rect x="128" y="104" width="11" height="11" fill="#161b22" rx="2"><title>2021-02-20: 0 commits</title></rect>
  <rect x="142" y="20" width="11" height="11" fill="#161b22" rx="2"><title>2021-02-21: 0 commits</title></rect>
  <rect x="142" y="34" width="11" height="11" fill="#161b22" rx="2"><title>2021-02-22: 0 commits</title></rect>
  <rect x="142" y="48" width="11" height="11" fill="#161b22" rx="2"><title>2021-02-23: 0 commits</title></rect>
  <rect x="142" y="62" width="11" height="11" fill="#161b22" rx="2"><title>2021-02-24: 0 commits</title></rect>
  <rect x="142" y="76" width="11" height="11" fill="#161b22" rx="2"><title>2021-02-25: 0 commits</title></rect>
  <rect x="142" y="90" width="11" height="11" fill="#161b22" rx="2"><title>2021-02-26: 0 commits</title></rect>
  <rect x="142" y="104" width="11" height="11" fill="#161b22" rx="2"><title>2021-02-27: 0 commits</title></rect>
  <rect x="156" y="20" width="11" height="11" fill="#161b22" rx="2"><title>2021-02-28: 0 commits</title></rect>
  <rect x="156" y="34" width="11" height="11" fill="#161b22" rx="2"><title>2021-03-01: 0 commits</title></rect>
  <rect x="156" y="48" width="11" height="11" fill="#161b22" rx="2"><title>2021-03-02: 0 commits</title></rect>
  <rect x="156" y="62" width="11" height="11" fill="#161b22" rx="2"><title>2021-03-03: 0 commits</title></rect>
  <rect x="156" y="76" width="11" height="11" fill="#161b22" rx="2"><title>2021-03-04: 0 commits</title></rect>
  <rect x="156" y="90" width="11" height="11" fill="#161b22" rx="2"><title>2021-03-05: 0 commits</title></rect>
  <rect x="156" y="104" width="11" height="11" fill="#161b22" rx="2"><title>2021-03-06: 0 commits</title></rect>
  <rect x="170" y="20" width="11" height="11" fill="#161b22" rx="2"><title>2021-03-07: 0 commits</title></rect>
  <rect x="170" y="34" width="11" height="11" fill="#161b22" rx="2"><title>2021-03-08: 0 commits</title></rect>
  <rect x="170" y="48" width="11" height="11" fill="#161b22" rx="2"><title>2021-03-09: 0 commits</title></rect>
  <rect x="170" y="62" width="11" height="11" fill="#161b22" rx="2"><title>2021-03-10: 0 commits</title></rect>
  <rect x="170" y="76" width="11" height="11" fill="#161b22" rx="2"><title>2021-03-11: 0 commits</title></rect>
  <rect x="170" y="90" width="11" height="11" fill="#161b22" rx="2"><title>2021-03-12: 0 commits</title></rect>
  <rect x="170" y="104" width="11" height="11" fill="#161b22" rx="2"><title>2021-03-13: 0 commits</title></rect>
  <rect x="184" y="20" width="11" height="11" fill="#161b22" rx="2"><title>2021-03-14: 0 commits</title></rect>
  <rect x="184" y="34" width="11" height="11" fill="#161b22" rx="2"><title>2021-03-15: 0 commits</title></rect>
  <rect x="184" y="48" width="11" height="11" fill="#161b22" rx="2"><title>2021-03-16: 0 commits</title></rect>
  <rect x="184" y="62" width="11" height="11" fill="#161b22" rx="2"><title>2021-03-17: 0 commits</title></rect>
  <rect x="184" y="76" width="11" height="11" fill="#161b22" rx="2"><title>2021-03-18: 0 commits</title></rect>
  <rect x="184" y="90" width="11" height="11" fill="#161b22" rx="2"><title>2021-03-19: 0 commits</title></rect>
  <rect x="184" y="104" width="11" height="11" fill="#161b22" rx="2"><title>2021-03-20: 0 commits</title></rect>
  <rect x="198" y="20" width="11" height="11" fill="#161b22" rx="2"><title>2021-03-21: 0 commits</title></rect>
  <rect x="198" y="34" width="11" height="11" fill="#161b22" rx="2"><title>2021-03-22: 0 commits</title></rect>
  <rect x="198" y="48" width="11" height="11" fill="#161b22" rx="2"><title>2021-03-23: 0 commits</title></rect>
  <rect x="198" y="62" width="11" height="11" fill="#161b22" rx="2"><title>2021-03-24: 0 commits</title></rect>
  <rect x="198" y="76" width="11" height="11" fill="#161b22" rx="2"><title>2021-03-25: 0 commits</title></rect>
  <rect x="198" y="90" width="11" height="11" fill="#161b22" rx="2"><title>2021-03-26: 0 commits</title></rect>
  <rect x="198" y="104" width="11" height="11" fill="#161b22" rx="2"><title>2021-03-27: 0 commits</title></rect>
  <rect x="198" y="20" width="11" height="11" fill="#161b22" rx="2"><title>2021-03-28: 0 commits</title></rect>
  <rect x="212" y="34" width="11" height="11" fill="#161b22" rx="2"><title>2021-03-29: 0 commits</title></rect>
  <rect x="212" y="48" width="11" height="11" fill="#161b22" rx="2"><title>2021-03-30: 0 commits</title></rect>
  <rect x="212" y="62" width="11" height="11" fill="#161b22" rx="2"><title>2021-03-31: 0 commits</title></rect>
  <rect x="212" y="76" width="11" height="11" fill="#161b22" rx="2"><title>2021-04-01: 0 commits</title></rect>
  <rect x="212" y="90" width="11" height="11" fill="#161b22" rx="2"><title>2021-04-02: 0 commits</title></rect>
  <rect x="212" y="104" width="11" height="11" fill="#161b22" rx="2"><title>2021-04-03: 0 commits</title></rect>
  <rect x="212" y="20" width="11" height="11" fill="#161b22" rx="2"><title>2021-04-04: 0 commits</title></rect>
  <rect x="226" y="34" width="11" height="11" fill="#161b22" rx="2"><title>2021-04-05: 0 commits</title></rect>
  <rect x="226" y="48" width="11" height="11" fill="#161b22" rx="2"><title>2021-04-06: 0 commits</title></rect>
  <rect x="226" y="62" width="11" height="11" fill="#161b22" rx="2"><title>2021-04-07: 0 commits</title></rect>
  <rect x="226" y="76" width="11" height="11" fill="#161b22" rx="2"><title>2021-04-08: 0 commits</title></rect>
  <rect x="226" y="90" width="11" height="11" fill="#161b22" rx="2"><title>2021-04-09: 0 commits</title></rect>
  <rect x="226" y="104" width="11" height="11" fill="#161b22" rx="2"><title>2021-04-10: 0 commits</title></rect>
  <rect x="226" y="20" width="11" height="11" fill="#161b22" rx="2"><title>2021-04-11: 0 commits</title></rect>
  <rect x="240" y="34" width="11" height="11" fill="#161b22" rx="2"><title>2021-04-12: 0 commits</title></rect>
  <rect x="240" y="48" width="11" height="11" fill="#161b22" rx="2"><title>2021-04-13: 0 commits</title></rect>
  <rect x="240" y="62" width="11" height="11" fill="#161b22" rx="2"><title>2021-04-14: 0 commits</title></rect>
  <rect x="240" y="76" width="11" height="11" fill="#161b22" rx="2"><title>2021-04-15: 0 commits</title></rect>
  <rect x="240" y="90" width="11" height="11" fill="#161b22" rx="2"><title>2021-04-16: 0 commits</title></rect>
  <rect x="240" y="104" width="11" height="11" fill="#161b22" rx="2"><title>2021-04-17: 0 commits</title></rect>
  <rect x="240" y="20" width="11" height="11" fill="#161b22" rx="2"><title>2021-04-18: 0 commits</title></rect>
  <rect x="254" y="34" width="11" height="11" fill="#161b22" rx="2"><title>2021-04-19: 0 commits</title></rect>
  <rect x="254" y="48" width="11" height="11" fill="#161b22" rx="2"><title>2021-04-20: 0 commits</title></rect>
  <rect x="254" y="62" width="11" height="11" fill="#161b22" rx="2"><title>2021-04-21: 0 commits</title></rect>
  <rect x="254" y="76" width="11" height="11" fill="#161b22" rx="2"><title>2021-04-22: 0 commits</title></rect>
  <rect x="254" y="90" width="11" height="11" fill="#161b22" rx="2"><title>2021-04-23: 0 commits</title></rect>
  <rect x="254" y="104" width="11" height="11" fill="#161b22" rx="2"><title>2021-04-24: 0 commits</title></rect>
  <rect x="254" y="20" width="11" height="11" fill="#161b22" rx="2"><title>2021-04-25: 0 commits</title></rect>
  <rect x="268" y="34" width="11" height="11" fill="#161b22" rx="2"><title>2021-04-26: 0 commits</title></rect>
  <rect x="268" y="48" width="11" height="11" fill="#161b22" rx="2"><title>2021-04-27: 0 commits</title></rect>
  <rect x="268" y="62" width="11" height="11" fill="#161b22" rx="2"><title>2021-04-28: 0 commits</title></rect>
  <rect x="268" y="76" width="11" height="11" fill="#161b22" rx="2"><title>2021-04-29: 0 commits</title></rect>
  <rect x="268" y="90" width="11" height="11" fill="#161b22" rx="2"><title>2021-04-30: 0 commits</title></rect>
  <rect x="268" y="104" width="11" height="11" fill="#161b22" rx="2"><title>2021-05-01: 0 commits</title></rect>
  <rect x="268" y="20" width="11" height="11" fill="#161b22" rx="2"><title>2021-05-02: 0 commits</title></rect>
  <rect x="282" y="34" width="11" height="11" fill="#161b22" rx="2"><title>2021-05-03: 0 commits</title></rect>
  <rect x="282" y="48" width="11" height="11" fill="#161b22" rx="2"><title>2021-05-04: 0 commits</title></rect>
  <rect x="282" y="62" width="11" height="11" fill="#161b22" rx="2"><title>2021-05-05: 0 commits</title></rect>
  <rect x="282" y="76" width="11" height="11" fill="#161b22" rx="2"><title>2021-05-06: 0 commits</title></rect>
  <rect x="282" y="90" width="11" height="11" fill="#161b22" rx="2"><title>2021-05-07: 0 commits</title></rect>
  <rect x="282" y="104" width="11" height="11" fill="#161b22" rx="2"><title>2021-05-08: 0 commits</title></rect>
  <rect x="282" y="20" width="11" height="11" fill="#161b22" rx="2"><title>2021-05-09: 0 commits</title></rect>
  <rect x="296" y="34" width="11" height="11" fill="#161b22" rx="2"><title>2021-05-10: 0 commits</title></rect>
  <rect x="296" y="48" width="11" height="11" fill="#161b22" rx="2"><title>2021-05-11: 0 commits</title></rect>
  <rect x="296" y="62" width="11" height="11" fill="#161b22" rx="2"><title>2021-05-12: 0 commits</title></rect>
  <rect x="296" y="76" width="11" height="11" fill="#161b22" rx="2"><title>2021-05-13: 0 commits</title></rect>
  <rect x="296" y="90" width="11" height="11" fill="#161b22" rx="2"><title>2021-05-14: 0 commits</title></rect>
  <rect x="296" y="104" width="11" height="11" fill="#161b22" rx="2"><title>2021-05-15: 0 commits</title></rect>
  <rect x="296" y="20" width="11" height="11" fill="#161b22" rx="2"><title>2021-05-16: 0 commits</title></rect>
  <rect x="310" y="34" width="11" height="11" fill="#161b22" rx="2"><title>2021-05-17: 0 commits</title></rect>
  <rect x="310" y="48" width="11" height="11" fill="#161b22" rx="2"><title>2021-05-18: 0 commits</title></rect>
  <rect x="310" y="62" width="11" height="11" fill="#161b22" rx="2"><title>2021-05-19: 0 commits</title></rect>
  <rect x="310" y="76" width="11" height="11" fill="#161b22" rx="2"><title>2021-05-20: 0 commits</title></rect>
  <rect x="310" y="90" width="11" height="11" fill="#161b22" rx="2"><title>2021-05-21: 0 commits</title></rect>
  <rect x="310" y="104" width="11" height="11" fill="#161b22" rx="2"><title>2021-05-22: 0 commits</title></rect>
  <rect x="310" y="20" width="11" height="11" fill="#161b22" rx="2"><title>2021-05-23: 0 commits</title></rect>
  <rect x="324" y="34" width="11" height="11" fill="#161b22" rx="2"><title>2021-05-24: 0 commits</title></rect>
  <rect x="324" y="48" width="11" height="11" fill="#161b22" rx="2"><title>2021-05-25: 0 commits</title></rect>
  <rect x="324" y="62" width="11" height="11" fill="#161b22" rx="2"><title>2021-05-26: 0 commits</title></rect>
  <rect x="324" y="76" width="11" height="11" fill="#161b22" rx="2"><title>2021-05-27: 0 commits</title></rect>
  <rect x="324" y="90" width="11" height="11" fill="#161b22" rx="2"><title>2021-05-28: 0 commits</title></rect>
  <rect x="324" y="104" width="11" height="11" fill="#161b22" rx="2"><title>2021-05-29: 0 commits</title></rect>
  <rect x="324" y="20" width="11" height="11" fill="#161b22" rx="2"><title>2021-05-30: 0 commits</title></rect>
  <rect x="338" y="34" width="11" height="11" fill="#161b22" rx="2"><title>2021-05-31: 0 commits</title></rect>
  <rect x="338" y="48" width="11" height="11" fill="#161b22" rx="2"><title>2021-06-01: 0 commits</title></rect>
  <rect x="338" y="62" width="11" height="11" fill="#161b22" rx="2"><title>2021-06-02: 0 commits</title></rect>
  <rect x="338" y="76" width="11" height="11" fill="#161b22" rx="2"><title>2021-06-03: 0 commits</title></rect>
  <rect x="338" y="90" width="11" height="11" fill="#161b22" rx="2"><title>2021-06-04: 0 commits</title></rect>
  <rect x="338" y="104" width="11" height="11" fill="#161b22" rx="2"><title>2021-06-05: 0 commits</title></rect>
  <rect x="338" y="20" width="11" height="11" fill="#161b22" rx="2"><title>2021-06-06: 0 commits</title></rect>
  <rect x="352" y="34" width="11" height="11" fill="#161b22" rx="2"><title>2021-06-07: 0 commits</title></rect>
  <rect x="352" y="48" width="11" height="11" fill="#161b22" rx="2"><title>2021-06-08: 0 commits</title></rect>
  <rect x="352" y="62" width="11" height="11" fill="#161b22" rx="2"><title>2021-06-09: 0 commits</title></rect>
  <rect x="352" y="76" width="11" height="11" fill="#161b22" rx="2"><title>2021-06-10: 0 commits</title></rect>
  <rect x="352" y="90" width="11" height="11" fill="#161b22" rx="2"><title>2021-06-11: 0 commits</title></rect>
  <rect x="352" y="104" width="11" height="11" fill="#161b22" rx="2"><title>2021-06-12: 0 commits</title></rect>
  <rect x="352" y="20" width="11" height="11" fill="#161b22" rx="2"><title>2021-06-13: 0 commits</title></rect>
  <rect x="366" y="34" width="11" height="11" fill="#161b22" rx="2"><title>2021-06-14: 0 commits</title></rect>
  <rect x="366" y="48" width="11" height="11" fill="#161b22" rx="2"><title>2021-06-15: 0 commits</title></rect>
  <rect x="366" y="62" width="11" height="11" fill="#161b22" rx="2"><title>2021-06-16: 0 commits</title></rect>
  <rect x="366" y="76" width="11" height="11" fill="#161b22" rx="2"><title>2021-06-17: 0 commits</title></rect>
  <rect x="366" y="90" width="11" height="11" fill="#161b22" rx="2"><title>2021-06-18: 0 commits</title></rect>
  <rect x="366" y="104" width="11" height="11" fill="#161b22" rx="2"><title>2021-06-19: 0 commits</title></rect>
  <rect x="366" y="20" width="11" height="11" fill="#161b22" rx="2"><title>2021-06-20: 0 commits</title></rect>
  <rect x="380" y="34" width="11" height="11" fill="#161b22" rx="2"><title>2021-06-21: 0 commits</title></rect>
  <rect x="380" y="48" width="11" height="11" fill="#161b22" rx="2"><title>2021-06-22: 0 commits</title></rect>
  <rect x="380" y="62" width="11" height="11" fill="#161b22" rx="2"><title>2021-06-23: 0 commits</title></rect>
  <rect x="380" y="76" width="11" height="11" fill="#161b22" rx="2"><title>2021-06-24: 0 commits</title></rect>
  <rect x="380" y="90" width="11" height="11" fill="#161b22" rx="2"><title>2021-06-25: 0 commits</title></rect>
  <rect x="380" y="104" width="11" height="11" fill="#161b22" rx="2"><title>2021-06-26: 0 commits</title></rect>
  <rect x="380" y="20" width="11" height="11" fill="#161b22" rx="2"><title>2021-06-27: 0 commits</title></rect>
  <rect x="394" y="34" width="11" height="11" fill="#161b22" rx="2"><title>2021-06-28: 0 commits</title></rect>
  <rect x="394" y="48" width="11" height="11" fill="#161b22" rx="2"><title>2021-06-29: 0 commits</title></rect>
  <rect x="394" y="62" width="11" height="11" fill="#161b22" rx="2"><title>2021-06-30: 0 commits</title></rect>
  <rect x="394" y="76" width="11" height="11" fill="#161b22" rx="2"><title>2021-07-01: 0 commits</title></rect>
  <rect x="394" y="90" width="11" height="11" fill="#161b22" rx="2"><title>2021-07-02: 0 commits</title></rect>
  <rect x="394" y="104" width="11" height="11" fill="#161b22" rx="2"><title>2021-07-03: 0 commits</title></rect>
  <rect x="394" y="20" width="11" height="11" fill="#161b22" rx="2"><title>2021-07-04: 0 commits</title></rect>
  <rect x="408" y="34" width="11" height="11" fill="#161b22" rx="2"><title>2021-07-05: 0 commits</title></rect>
  <rect x="408" y="48" width="11" height="11" fill="#161b22" rx="2"><title>2021-07-06: 0 commits</title></rect>
  <rect x="408" y="62" width="11" height="11" fill="#161b22" rx="2"><title>2021-07-07: 0 commits</title></rect>
  <rect x="408" y="76" width="11" height="11" fill="#161b22" rx="2"><title>2021-07-08: 0 commits</title></rect>
  <rect x="408" y="90" width="11" height="11" fill="#161b22" rx="2"><title>2021-07-09: 0 commits</title></rect>
  <rect x="408" y="104" width="11" height="11" fill="#161b22" rx="2"><title>2021-07-10: 0 commits</title></rect>
  <rect x="408" y="20" width="11" height="11" fill="#161b22" rx="2"><title>2021-07-11: 0 commits</title></rect>
  <rect x="422" y="34" width="11" height="11" fill="#161b22" rx="2"><title>2021-07-12: 0 commits</title></rect>
  <rect x="422" y="48" width="11" height="11" fill="#161b22" rx="2"><title>2021-07-13: 0 commits</title></rect>
  <rect x="422" y="62" width="11" height="11" fill="#161b22" rx="2"><title>2021-07-14: 0 commits</title></rect>
  <rect x="422" y="76" width="11" height="11" fill="#161b22" rx="2"><title>2021-07-15: 0 commits</title></rect>
  <rect x="422" y="90" width="11" height="11" fill="#161b22" rx="2"><title>2021-07-16: 0 commits</title></rect>
  <rect x="422" y="104" width="11" height="11" fill="#161b22" rx="2"><title>2021-07-17: 0 commits</title></rect>
  <rect x="422" y="20" width="11" height="11" fill="#161b22" rx="2"><title>2021-07-18: 0 commits</title></rect>
  <rect x="436" y="34" width="11" height="11" fill="#161b22" rx="2"><title>2021-07-19: 0 commits</title></rect>
  <rect x="436" y="48" width="11" height="11" fill="#161b22" rx="2"><title>2021-07-20: 0 commits</title></rect>
  <rect x="436" y="62" width="11" height="11" fill="#161b22" rx="2"><title>2021-07-21: 0 commits</title></rect>
  <rect x="436" y="76" width="11" height="11" fill="#161b22" rx="2"><title>2021-07-22: 0 commits</title></rect>
  <rect x="436" y="90" width="11" height="11" fill="#161b22" rx="2"><title>2021-07-23: 0 commits</title></rect>
  <rect x="436" y="104" width="11" height="11" fill="#161b22" rx="2"><title>2021-07-24: 0 commits</title></rect>
  <rect x="436" y="20" width="11" height="11" fill="#161b22" rx="2"><title>2021-07-25: 0 commits</title></rect>
  <rect x="450" y="34" width="11" height="11" fill="#161b22" rx="2"><title>2021-07-26: 0 commits</title></rect>
  <rect x="450" y="48" width="11" height="11" fill="#161b22" rx="2"><title>2021-07-27: 0 commits</title></rect>
  <rect x="450" y="62" width="11" height="11" fill="#161b22" rx="2"><title>2021-07-28: 0 commits</title></rect>
  <rect x="450" y="76" width="11" height="11" fill="#161b22" rx="2"><title>2021-07-29: 0 commits</title></rect>
  <rect x="450" y="90" width="11" height="11" fill="#161b22" rx="2"><title>2021-07-30: 0 commits</title></rect>
  <rect x="450" y="104" width="11" height="11" fill="#161b22" rx="2"><title>2021-07-31: 0 commits</title></rect>
  <rect x="450" y="20" width="11" height="11" fill="#161b22" rx="2"><title>2021-08-01: 0 commits</title></rect>
  <rect x="464" y="34" width="11" height="11" fill="#161b22" rx="2"><title>2021-08-02: 0 commits</title></rect>
  <rect x="464" y="48" width="11" height="11" fill="#161b22" rx="2"><title>2021-08-03: 0 commits</title></rect>
  <rect x="464" y="62" width="11" height="11" fill="#161b22" rx="2"><title>2021-08-04: 0 commits</title></rect>
  <rect x="464" y="76" width="11" height="11" fill="#161b22" rx="2"><title>2021-08-05: 0 commits</title></rect>
  <rect x="464" y="90" width="11" height="11" fill="#161b22" rx="2"><title>2021-08-06: 0 commits</title></rect>
  <rect x="464" y="104" width="11" height="11" fill="#161b22" rx="2"><title>2021-08-07: 0 commits</title></rect>
  <rect x="464" y="20" width="11" height="11" fill="#161b22" rx="2"><title>2021-08-08: 0 commits</title></rect>
  <rect x="478" y="34" width="11" height="11" fill="#161b22" rx="2"><title>2021-08-09: 0 commits</title></rect>
  <rect x="478" y="48" width="11" height="11" fill="#161b22" rx="2"><title>2021-08-10: 0 commits</title></rect>
  <rect x="478" y="62" width="11" height="11" fill="#161b22" rx="2"><title>2021-08-11: 0 commits</title></rect>
  <rect x="478" y="76" width="11" height="11" fill="#161b22" rx="2"><title>2021-08-12: 0 commits</title></rect>
  <rect x="478" y="90" width="11" height="11" fill="#161b22" rx="2"><title>2021-08-13: 0 commits</title></rect>
  <rect x="478" y="104" width="11" height="11" fill="#161b22" rx="2"><title>2021-08-14: 0 commits</title></rect>
  <rect x="478" y="20" width="11" height="11" fill="#161b22" rx="2"><title>2021-08-15: 0 commits</title></rect>
  <rect x="492" y="34" width="11" height="11" fill="#161b22" rx="2"><title>2021-08-16: 0 commits</title></rect>
  <rect x="492" y="48" width="11" height="11" fill="#161b22" rx="2"><title>2021-08-17: 0 commits</title></rect>
  <rect x="492" y="62" width="11" height="11" fill="#161b22" rx="2"><title>2021-08-18: 0 commits</title></rect>
  <rect x="492" y="76" width="11" height="11" fill="#161b22" rx="2"><title>2021-08-19: 0 commits</title></rect>
  <rect x="492" y="90" width="11" height="11" fill="#161b22" rx="2"><title>2021-08-20: 0 commits</title></rect>
  <rect x="492" y="104" width="11" height="11" fill="#161b22" rx="2"><title>2021-08-21: 0 commits</title></rect>
  <rect x="492" y="20" width="11" height="11" fill="#161b22" rx="2"><title>2021-08-22: 0 commits</title></rect>
  <rect x="506" y="34" width="11" height="11" fill="#161b22" rx="2"><title>2021-08-23: 0 commits</title></rect>
  <rect x="506" y="48" width="11" height="11" fill="#161b22" rx="2"><title>2021-08-24: 0 commits</title></rect>
  <rect x="506" y="62" width="11" height="11" fill="#161b22" rx="2"><title>2021-08-25: 0 commits</title></rect>
  <rect x="506" y="76" width="11" height="11" fill="#161b22" rx="2"><title>2021-08-26: 0 commits</title></rect>
  <rect x="506" y="90" width="11" height="11" fill="#161b22" rx="2"><title>2021-08-27: 0 commits</title></rect>
  <rect x="506" y="104" width="11" height="11" fill="#161b22" rx="2"><title>2021-08-28: 0 commits</title></rect>
  <rect x="506" y="20" width="11" height="11" fill="#161b22" rx="2"><title>2021-08-29: 0 commits</title></rect>
  <rect x="520" y="34" width="11" height="11" fill="#161b22" rx="2"><title>2021-08-30: 0 commits</title></rect>
  <rect x="520" y="48" width="11" height="11" fill="#161b22" rx="2"><title>2021-08-31: 0 commits</title></rect>
  <rect x="520" y="62" width="11" height="11" fill="#161b22" rx="2"><title>2021-09-01: 0 commits</title></rect>
  <rect x="520" y="76" width="11" height="11" fill="#161b22" rx="2"><title>2021-09-02: 0 commits</title></rect>
  <rect x="520" y="90" width="11" height="11" fill="#161b22" rx="2"><title>2021-09-03: 0 commits</title></rect>
  <rect x="520" y="104" width="11" height="11" fill="#161b22" rx="2"><title>2021-09-04: 0 commits</title></rect>
  <rect x="520" y="20" width="11" height="11" fill="#161b22" rx="2"><title>2021-09-05: 0 commits</title></rect>
  <rect x="534" y="34" width="11" height="11" fill="#161b22" rx="2"><title>2021-09-06: 0 commits</title></rect>
  <rect x="534" y="48" width="11" height="11" fill="#161b22" rx="2"><title>2021-09-07: 0 commits</title></rect>
  <rect x="534" y="62" width="11" height="11" fill="#161b22" rx="2"><title>2021-09-08: 0 commits</title></rect>
  <rect x="534" y="76" width="11" height="11" fill="#161b22" rx="2"><title>2021-09-09: 0 commits</title></rect>
  <rect x="534" y="90" width="11" height="11" fill="#161b22" rx="2"><title>2021-09-10: 0 commits</title></rect>
  <rect x="534" y="104" width="11" height="11" fill="#161b22" rx="2"><title>2021-09-11: 0 commits</title></rect>
  <rect x="534" y="20" width="11" height="11" fill="#161b22" rx="2"><title>2021-09-12: 0 commits</title></rect>
  <rect x="548" y="34" width="11" height="11" fill="#161b22" rx="2"><title>2021-09-13: 0 commits</title></rect>
  <rect x="548" y="48" width="11" height="11" fill="#161b22" rx="2"><title>2021-09-14: 0 commits</title></rect>
  <rect x="548" y="62" width="11" height="11" fill="#161b22" rx="2"><title>2021-09-15: 0 commits</title></rect>
  <rect x="548" y="76" width="11" height="11" fill="#161b22" rx="2"><title>2021-09-16: 0 commits</title></rect>
  <rect x="548" y="90" width="11" height="11" fill="#161b22" rx="2"><title>2021-09-17: 0 commits</title></rect>
  <rect x="548" y="104" width="11" height="11" fill="#161b22" rx="2"><title>2021-09-18: 0 commits</title></rect>
  <rect x="548" y="20" width="11" height="11" fill="#161b22" rx="2"><title>2021-09-19: 0 commits</title></rect>
  <rect x="562" y="34" width="11" height="11" fill="#161b22" rx="2"><title>2021-09-20: 0 commits</title></rect>
  <rect x="562" y="48" width="11" height="11" fill="#161b22" rx="2"><title>2021-09-21: 0 commits</title></rect>
  <rect x="562" y="62" width="11" height="11" fill="#161b22" rx="2"><title>2021-09-22: 0 commits</title></rect>
  <rect x="562" y="76" width="11" height="11" fill="#161b22" rx="2"><title>2021-09-23: 0 commits</title></rect>
  <rect x="562" y="90" width="11" height="11" fill="#161b22" rx="2"><title>2021-09-24: 0 commits</title></rect>
  <rect x="562" y="104" width="11" height="11" fill="#161b22" rx="2"><title>2021-09-25: 0 commits</title></rect>
  <rect x="562" y="20" width="11" height="11" fill="#161b22" rx="2"><title>2021-09-26: 0 commits</title></rect>
  <rect x="576" y="34" width="11" height="11" fill="#161b22" rx="2"><title>2021-09-27: 0 commits</title></rect>
  <rect x="576" y="48" width="11" height="11" fill="#161b22" rx="2"><title>2021-09-28: 0 commits</title></rect>
  <rect x="576" y="62" width="11" height="11" fill="#161b22" rx="2"><title>2021-09-29: 0 commits</title></rect>
  <rect x="576" y="76" width="11" height="11" fill="#161b22" rx="2"><title>2021-09-30: 0 commits</title></rect>
  <rect x="576" y="90" width="11" height="11" fill="#161b22" rx="2"><title>2021-10-01: 0 commits</title></rect>
  <rect x="576" y="104" width="11" height="11" fill="#161b22" rx="2"><title>2021-10-02: 0 commits</title></rect>
  <rect x="576" y="20" width="11" height="11" fill="#161b22" rx="2"><title>2021-10-03: 0 commits</title></rect>
  <rect x="590" y="34" width="11" height="11" fill="#161b22" rx="2"><title>2021-10-04: 0 commits</title></rect>
  <rect x="590" y="48" width="11" height="11" fill="#161b22" rx="2"><title>2021-10-05: 0 commits</title></rect>
  <rect x="590" y="62" width="11" height="11" fill="#161b22" rx="2"><title>2021-10-06: 0 commits</title></rect>
  <rect x="590" y="76" width="11" height="11" fill="#161b22" rx="2"><title>2021-10-07: 0 commits</title></rect>
  <rect x="590" y="90" width="11" height="11" fill="#161b22" rx="2"><title>2021-10-08: 0 commits</title></rect>
  <rect x="590" y="104" width="11" height="11" fill="#161b22" rx="2"><title>2021-10-09: 0 commits</title></rect>
  <rect x="590" y="20" width="11" height="11" fill="#161b22" rx="2"><title>2021-10-10: 0 commits</title></rect>
  <rect x="604" y="34" width="11" height="11" fill="#161b22" rx="2"><title>2021-10-11: 0 commits</title></rect>
  <rect x="604" y="48" width="11" height="11" fill="#161b22" rx="2"><title>2021-10-12: 0 commits</title></rect>
  <rect x="604" y="62" width="11" height="11" fill="#161b22" rx="2"><title>2021-10-13: 0 commits</title></rect>
  <rect x="604" y="76" width="11" height="11" fill="#161b22" rx="2"><title>2021-10-14: 0 commits</title></rect>
  <rect x="604" y="90" width="11" height="11" fill="#161b22" rx="2"><title>2021-10-15: 0 commits</title></rect>
  <rect x="604" y="104" width="11" height="11" fill="#161b22" rx="2"><title>2021-10-16: 0 commits</title></rect>
  <rect x="604" y="20" width="11" height="11" fill="#161b22" rx="2"><title>2021-10-17: 0 commits</title></rect>
  <rect x="618" y="34" width="11" height="11" fill="#161b22" rx="2"><title>2021-10-18: 0 commits</title></rect>
  <rect x="618" y="48" width="11" height="11" fill="#161b22" rx="2"><title>2021-10-19: 0 commits</title></rect>
  <rect x="618" y="62" width="11" height="11" fill="#161b22" rx="2"><title>2021-10-20: 0 commits</title></rect>
  <rect x="618" y="76" width="11" height="11" fill="#161b22" rx="2"><title>2021-10-21: 0 commits</title></rect>
  <rect x="618" y="90" width="11" height="11" fill="#161b22" rx="2"><title>2021-10-22: 0 commits</title></rect>
  <rect x="618" y="104" width="11" height="11" fill="#161b22" rx="2"><title>2021-10-23: 0 commits</title></rect>
  <rect x="618" y="20" width="11" height="11" fill="#161b22" rx="2"><title>2021-10-24: 0 commits</title></rect>
  <rect x="632" y="34" width="11" height="11" fill="#161b22" rx="2"><title>2021-10-25: 0 commits</title></rect>
  <rect x="632" y="48" width="11" height="11" fill="#161b22" rx="2"><title>2021-10-26: 0 commits</title></rect>
  <rect x="632" y="62" width="11" height="11" fill="#161b22" rx="2"><title>2021-10-27: 0 commits</title></rect>
  <rect x="632" y="76" width="11" height="11" fill="#161b22" rx="2"><title>2021-10-28: 0 commits</title></rect>
  <rect x="632" y="90" width="11" height="11" fill="#161b22" rx="2"><title>2021-10-29: 0 commits</title></rect>
  <rect x="632" y="104" width="11" height="11" fill="#161b22" rx="2"><title>2021-10-30: 0 commits</title></rect>
  <rect x="646" y="20" width="11" height="11" fill="#161b22" rx="2"><title>2021-10-31: 0 commits</title></rect>
  <rect x="646" y="34" width="11" height="11" fill="#161b22" rx="2"><title>2021-11-01: 0 commits</title></rect>
  <rect x="646" y="48" width="11" height="11" fill="#161b22" rx="2"><title>2021-11-02: 0 commits</title></rect>
  <rect x="646" y="62" width="11" height="11" fill="#161b22" rx="2"><title>2021-11-03: 0 commits</title></rect>
  <rect x="646" y="76" width="11" height="11" fill="#161b22" rx="2"><title>2021-11-04: 0 commits</title></rect>
  <rect x="646" y="90" width="11" height="11" fill="#161b22" rx="2"><title>2021-11-05: 0 commits</title></rect>
  <rect x="646" y="104" width="11" height="11" fill="#161b22" rx="2"><title>2021-11-06: 0 commits</title></rect>
  <rect x="660" y="20" width="11" height="11" fill="#161b22" rx="2"><title>2021-11-07: 0 commits</title></rect>
  <rect x="660" y="34" width="11" height="11" fill="#161b22" rx="2"><title>2021-11-08: 0 commits</title></rect>
  <rect x="660" y="48" width="11" height="11" fill="#161b22" rx="2"><title>2021-11-09: 0 commits</title></rect>
  <rect x="660" y="62" width="11" height="11" fill="#161b22" rx="2"><title>2021-11-10: 0 commits</title></rect>
  <rect x="660" y="76" width="11" height="11" fill="#161b22" rx="2"><title>2021-11-11: 0 commits</title></rect>
  <rect x="660" y="90" width="11" height="11" fill="#161b22" rx="2"><title>2021-11-12: 0 commits</title></rect>
  <rect x="660" y="104" width="11" height="11" fill="#161b22" rx="2"><title>2021-11-13: 0 commits</title></rect>
  <rect x="674" y="20" width="11" height="11" fill="#161b22" rx="2"><title>2021-11-14: 0 commits</title></rect>
  <rect x="674" y="34" width="11" height="11" fill="#161b22" rx="2"><title>2021-11-15: 0 commits</title></rect>
  <rect x="674" y="48" width="11" height="11" fill="#161b22" rx="2"><title>2021-11-16: 0 commits</title></rect>
  <rect x="674" y="62" width="11" height="11" fill="#161b22" rx="2"><title>2021-11-17: 0 commits</title></rect>
  <rect x="674" y="76" width="11" height="11" fill="#161b22" rx="2"><title>2021-11-18: 0 commits</title></rect>
  <rect x="674" y="90" width="11" height="11" fill="#161b22" rx="2"><title>2021-11-19: 0 commits</title></rect>
  <rect x="674" y="104" width="11" height="11" fill="#161b22" rx="2"><title>2021-11-20: 0 commits</title></rect>
  <rect x="688" y="20" width="11" height="11" fill="#161b22" rx="2"><title>2021-11-21: 0 commits</title></rect>
  <rect x="688" y="34" width="11" height="11" fill="#161b22" rx="2"><title>2021-11-22: 0 commits</title></rect>
  <rect x="688" y="48" width="11" height="11" fill="#161b22" rx="2"><title>2021-11-23: 0 commits</title></rect>
  <rect x="688" y="62" width="11" height="11" fill="#161b22" rx="2"><title>2021-11-24: 0 commits</title></rect>
  <rect x="688" y="76" width="11" height="11" fill="#161b22" rx="2"><title>2021-11-25: 0 commits</title></rect>
  <rect x="688" y="90" width="11" height="11" fill="#161b22" rx="2"><title>2021-11-26: 0 commits</title></rect>
  <rect x="688" y="104" width="11" height="11" fill="#161b22" rx="2"><title>2021-11-27: 0 commits</title></rect>
  <rect x="702" y="20" width="11" height="11" fill="#161b22" rx="2"><title>2021-11-28: 0 commits</title></rect>
  <rect x="702" y="34" width="11" height="11" fill="#161b22" rx="2"><title>2021-11-29: 0 commits</title></rect>
  <rect x="702" y="48" width="11" height="11" fill="#161b22" rx="2"><title>2021-11-30: 0 commits</title></rect>
  <rect x="702" y="62" width="11" height="11" fill="#161b22" rx="2"><title>2021-12-01: 0 commits</title></rect>
  <rect x="702" y="76" width="11" height="11" fill="#161b22" rx="2"><title>2021-12-02: 0 commits</title></rect>
  <rect x="702" y="90" width="11" height="11" fill="#161b22" rx="2"><title>2021-12-03: 0 commits</title></rect>
  <rect x="702" y="104" width="11" height="11" fill="#161b22" rx="2"><title>2021-12-04: 0 commits</title></rect>
  <rect x="716" y="20" width="11" height="11" fill="#161b22" rx="2"><title>2021-12-05: 0 commits</title></rect>
  <rect x="716" y="34" width="11" height="11" fill="#161b22" rx="2"><title>2021-12-06: 0 commits</title></rect>
  <rect x="716" y="48" width="11" height="11" fill="#161b22" rx="2"><title>2021-12-07: 0 commits</title></rect>
  <rect x="716" y="62" width="11" height="11" fill="#161b22" rx="2"><title>2021-12-08: 0 commits</title></rect>
  <rect x="716" y="76" width="11" height="11" fill="#161b22" rx="2"><title>2021-12-09: 0 commits</title></rect>
  <rect x="716" y="90" width="11" height="11" fill="#161b22" rx="2"><title>2021-12-10: 0 commits</title></rect>
  <rect x="716" y="104" width="11" height="11" fill="#161b22" rx="2"><title>2021-12-11: 0 commits</title></rect>
  <rect x="730" y="20" width="11" height="11" fill="#161b22" rx="2"><title>2021-12-12: 0 commits</title></rect>
  <rect x="730" y="34" width="11" height="11" fill="#161b22" rx="2"><title>2021-12-13: 0 commits</title></rect>
  <rect x="730" y="48" width="11" height="11" fill="#161b22" rx="2"><title>2021-12-14: 0 commits</title></rect>
  <rect x="730" y="62" width="11" height="11" fill="#161b22" rx="2"><title>2021-12-15: 0 commits</title></rect>
  <rect x="730" y="76" width="11" height="11" fill="#161b22" rx="2"><title>2021-12-16: 0 commits</title></rect>
  <rect x="730" y="90" width="11" height="11" fill="#161b22" rx="2"><title>2021-12-17: 0 commits</title></rect>
  <rect x="730" y="104" width="11" height="11" fill="#161b22" rx="2"><title>2021-12-18: 0 commits</title></rect>
  <rect x="744" y="20" width="11" height="11" fill="#fef0d9" rx="2"><title>2021-12-19: 1 commits</title></rect>
  <rect x="744" y="34" width="11" height="11" fill="#fef0d9" rx="2"><title>2021-12-20: 6 commits</title></rect>
  <rect x="744" y="48" width="11" height="11" fill="#fef0d9" rx="2"><title>2021-12-21: 6 commits</title></rect>
  <rect x="744" y="62" width="11" height="11" fill="#fef0d9" rx="2"><title>2021-12-22: 6 commits</title></rect>
  <rect x="744" y="76" width="11" height="11" fill="#fef0d9" rx="2"><title>2021-12-23: 6 commits</title></rect>
  <rect x="744" y="90" width="11" height="11" fill="#fef0d9" rx="2"><title>2021-12-24: 6 commits</title></rect>
  <rect x="744" y="104" width="11" height="11" fill="#fef0d9" rx="2"><title>2021-12-25: 6 commits</title></rect>
  <rect x="758" y="20" width="11" height="11" fill="#fef0d9" rx="2"><title>2021-12-26: 6 commits</title></rect>
  <rect x="758" y="34" width="11" height="11" fill="#fef0d9" rx="2"><title>2021-12-27: 6 commits</title></rect>
  <rect x="758" y="48" width="11" height="11" fill="#fef0d9" rx="2"><title>2021-12-28: 6 commits</title></rect>
  <rect x="758" y="62" width="11" height="11" fill="#d7301f" rx="2"><title>2021-12-29: 8 commits</title></rect>
  <rect x="758" y="76" width="11" height="11" fill="#d7301f" rx="2"><title>2021-12-30: 20 commits</title></rect>
  <text x="30" y="133" class="title">2021 - 102 data updates</text>
  <text x="632" y="133" class="legend">Less</text>
  <rect x="662" y="123" width="11" height="11" fill="#161b22" rx="2"/>
  <rect x="676" y="123" width="11" height="11" fill="#fef0d9" rx="2"/>
  <rect x="690" y="123" width="11" height="11" fill="#fdcc8a" rx="2"/>
  <rect x="704" y="123" width="11" height="11" fill="#fc8d59" rx="2"/>
  <rect x="718" y="123" width="11" height="11" fill="#d7301f" rx="2"/>
  <text x="737" y="133" class="legend">More</text>
</svg>