<svg width="782" height="148" xmlns="http://www.w3.org/2000/svg">
  <style>
    .month { font: 10px sans-serif; fill: #8b949e; }
    .day { font: 10px sans-serif; fill: #8b949e; }
    .title { font: bold 14px sans-serif; fill: #c9d1d9; }
    .legend { font: 10px sans-serif; fill: #8b949e; }
  </style>
  <rect width="100%" height="100%" fill="#0d1117"/>
  <text x="0" y="29" class="day">Mon</text>
  <text x="0" y="57" class="day">Wed</text>
  <text x="0" y="85" class="day">Fri</text>
  <text x="0" y="113" class="day">Sun</text>
  <text x="30" y="15" class="month">Jan</text>
  <text x="100" y="15" class="month">Feb</text>
  <text x="156" y="15" class="month">Mar</text>
  <text x="212" y="15" class="month">Apr</text>
  <text x="282" y="15" class="month">May</text>
  <text x="338" y="15" class="month">Jun</text>
  <text x="394" y="15" class="month">Jul</text>
  <text x="464" y="15" class="month">Aug</text>
  <text x="520" y="15" class="month">Sep</text>
  <text x="576" y="15" class="month">Oct</text>
  <text x="646" y="15" class="month">Nov</text>
  <text x="702" y="15" class="month">Dec</text>
  <rect x="30" y="48" width="11" height="11" fill="#fef0d9" rx="2"><title>2024-12-31: 14 commits</title></rect>
  <rect x="30" y="62" width="11" height="11" fill="#fef0d9" rx="2"><title>2025-01-01: 14 commits</title></rect>
  <rect x="30" y="76" width="11" height="11" fill="#fef0d9" rx="2"><title>2025-01-02: 8 commits</title></rect>
  <rect x="30" y="90" width="11" height="11" fill="#fdcc8a" rx="2"><title>2025-01-03: 17 commits</title></rect>
  <rect x="30" y="104" width="11" height="11" fill="#fef0d9" rx="2"><title>2025-01-04: 8 commits</title></rect>
  <rect x="44" y="20" width="11" height="11" fill="#fef0d9" rx="2"><title>2025-01-05: 5 commits</title></rect>
  <rect x="44" y="34" width="11" height="11" fill="#fef0d9" rx="2"><title>2025-01-06: 3 commits</title></rect>
  <rect x="44" y="48" width="11" height="11" fill="#161b22" rx="2"><title>2025-01-07: 0 commits</title></rect>
  <rect x="44" y="62" width="11" height="11" fill="#fef0d9" rx="2"><title>2025-01-08: 12 commits</title></rect>
  <rect x="44" y="76" width="11" height="11" fill="#fef0d9" rx="2"><title>2025-01-09: 14 commits</title></rect>
  <rect x="44" y="90" width="11" height="11" fill="#fdcc8a" rx="2"><title>2025-01-10: 16 commits</title></rect>
  <rect x="44" y="104" width="11" height="11" fill="#fef0d9" rx="2"><title>2025-01-11: 13 commits</title></rect>
  <rect x="58" y="20" width="11" height="11" fill="#fef0d9" rx="2"><title>2025-01-12: 6 commits</title></rect>
  <rect x="58" y="34" width="11" height="11" fill="#fef0d9" rx="2"><title>2025-01-13: 11 commits</title></rect>
  <rect x="58" y="48" width="11" height="11" fill="#fc8d59" rx="2"><title>2025-01-14: 18 commits</title></rect>
  <rect x="58" y="62" width="11" height="11" fill="#fdcc8a" rx="2"><title>2025-01-15: 15 commits</title></rect>
  <rect x="58" y="76" width="11" height="11" fill="#fc8d59" rx="2"><title>2025-01-16: 18 commits</title></rect>
  <rect x="58" y="90" width="11" height="11" fill="#fc8d59" rx="2"><title>2025-01-17: 18 commits</title></rect>
  <rect x="58" y="104" width="11" height="11" fill="#fef0d9" rx="2"><title>2025-01-18: 14 commits</title></rect>
  <rect x="72" y="20" width="11" height="11" fill="#fdcc8a" rx="2"><title>2025-01-19: 16 commits</title></rect>
  <rect x="72" y="34" width="11" height="11" fill="#fc8d59" rx="2"><title>2025-01-20: 18 commits</title></rect>
  <rect x="72" y="48" width="11" height="11" fill="#d7301f" rx="2"><title>2025-01-21: 20 commits</title></rect>
  <rect x="72" y="62" width="11" height="11" fill="#fdcc8a" rx="2"><title>2025-01-22: 17 commits</title></rect>
  <rect x="72" y="76" width="11" height="11" fill="#d7301f" rx="2"><title>2025-01-23: 19 commits</title></rect>
  <rect x="72" y="90" width="11" height="11" fill="#fdcc8a" rx="2"><title>2025-01-24: 16 commits</title></rect>
  <rect x="72" y="104" width="11" height="11" fill="#fef0d9" rx="2"><title>2025-01-25: 11 commits</title></rect>
  <rect x="86" y="20" width="11" height="11" fill="#fef0d9" rx="2"><title>2025-01-26: 12 commits</title></rect>
  <rect x="86" y="34" width="11" height="11" fill="#fc8d59" rx="2"><title>2025-01-27: 18 commits</title></rect>
  <rect x="86" y="48" width="11" height="11" fill="#fc8d59" rx="2"><title>2025-01-28: 18 commits</title></rect>
  <rect x="86" y="62" width="11" height="11" fill="#fc8d59" rx="2"><title>2025-01-29: 18 commits</title></rect>
  <rect x="86" y="76" width="11" height="11" fill="#fc8d59" rx="2"><title>2025-01-30: 18 commits</title></rect>
  <rect x="86" y="90" width="11" height="11" fill="#d7301f" rx="2"><title>2025-01-31: 20 commits</title></rect>
  <rect x="86" y="104" width="11" height="11" fill="#d7301f" rx="2"><title>2025-02-01: 19 commits</title></rect>
  <rect x="100" y="20" width="11" height="11" fill="#fef0d9" rx="2"><title>2025-02-02: 8 commits</title></rect>
  <rect x="100" y="34" width="11" height="11" fill="#fc8d59" rx="2"><title>2025-02-03: 18 commits</title></rect>
  <rect x="100" y="48" width="11" height="11" fill="#fc8d59" rx="2"><title>2025-02-04: 18 commits</title></rect>
  <rect x="100" y="62" width="11" height="11" fill="#d7301f" rx="2"><title>2025-02-05: 19 commits</title></rect>
  <rect x="100" y="76" width="11" height="11" fill="#d7301f" rx="2"><title>2025-02-06: 19 commits</title></rect>
  <rect x="100" y="90" width="11" height="11" fill="#d7301f" rx="2"><title>2025-02-07: 21 commits</title></rect>
  <rect x="100" y="104" width="11" height="11" fill="#fef0d9" rx="2"><title>2025-02-08: 14 commits</title></rect>
  <rect x="114" y="20" width="11" height="11" fill="#fdcc8a" rx="2"><title>2025-02-09: 16 commits</title></rect>
  <rect x="114" y="34" width="11" height="11" fill="#fdcc8a" rx="2"><title>2025-02-10: 17 commits</title></rect>
  <rect x="114" y="48" width="11" height="11" fill="#d7301f" rx="2"><title>2025-02-11: 20 commits</title></rect>
  <rect x="114" y="62" width="11" height="11" fill="#fc8d59" rx="2"><title>2025-02-12: 18 commits</title></rect>
  <rect x="114" y="76" width="11" height="11" fill="#fdcc8a" rx="2"><title>2025-02-13: 16 commits</title></rect>
  <rect x="114" y="90" width="11" height="11" fill="#fc8d59" rx="2"><title>2025-02-14: 18 commits</title></rect>
  <rect x="114" y="104" width="11" height="11" fill="#fdcc8a" rx="2"><title>2025-02-15: 15 commits</title></rect>
  <rect x="128" y="20" width="11" height="11" fill="#fef0d9" rx="2"><title>2025-02-16: 8 commits</title></rect>
  <rect x="128" y="34" width="11" height="11" fill="#fef0d9" rx="2"><title>2025-02-17: 14 commits</title></rect>
  <rect x="128" y="48" width="11" height="11" fill="#fdcc8a" rx="2"><title>2025-02-18: 16 commits</title></rect>
  <rect x="128" y="62" width="11" height="11" fill="#fdcc8a" rx="2"><title>2025-02-19: 17 commits</title></rect>
  <rect x="128" y="76" width="11" height="11" fill="#d7301f" rx="2"><title>2025-02-20: 19 commits</title></rect>
  <rect x="128" y="90" width="11" height="11" fill="#fdcc8a" rx="2"><title>2025-02-21: 16 commits</title></rect>
  <rect x="128" y="104" width="11" height="11" fill="#fef0d9" rx="2"><title>2025-02-22: 13 commits</title></rect>
  <rect x="142" y="20" width="11" height="11" fill="#fdcc8a" rx="2"><title>2025-02-23: 16 commits</title></rect>
  <rect x="142" y="34" width="11" height="11" fill="#fdcc8a" rx="2"><title>2025-02-24: 17 commits</title></rect>
  <rect x="142" y="48" width="11" height="11" fill="#fc8d59" rx="2"><title>2025-02-25: 18 commits</title></rect>
  <rect x="142" y="62" width="11" height="11" fill="#d7301f" rx="2"><title>2025-02-26: 21 commits</title></rect>
  <rect x="142" y="76" width="11" height="11" fill="#d7301f" rx="2"><title>2025-02-27: 19 commits</title></rect>
  <rect x="142" y="90" width="11" height="11" fill="#fc8d59" rx="2"><title>2025-02-28: 18 commits</title></rect>
  <rect x="142" y="104" width="11" height="11" fill="#fef0d9" rx="2"><title>2025-03-01: 8 commits</title></rect>
  <rect x="156" y="20" width="11" height="11" fill="#fc8d59" rx="2"><title>2025-03-02: 18 commits</title></rect>
  <rect x="156" y="34" width="11" height="11" fill="#fdcc8a" rx="2"><title>2025-03-03: 17 commits</title></rect>
  <rect x="156" y="48" width="11" height="11" fill="#fc8d59" rx="2"><title>2025-03-04: 18 commits</title></rect>
  <rect x="156" y="62" width="11" height="11" fill="#fc8d59" rx="2"><title>2025-03-05: 18 commits</title></rect>
  <rect x="156" y="76" width="11" height="11" fill="#d7301f" rx="2"><title>2025-03-06: 19 commits</title></rect>
  <rect x="156" y="90" width="11" height="11" fill="#fdcc8a" rx="2"><title>2025-03-07: 17 commits</title></rect>
  <rect x="156" y="104" width="11" height="11" fill="#fdcc8a" rx="2"><title>2025-03-08: 16 commits</title></rect>
  <rect x="170" y="20" width="11" height="11" fill="#fef0d9" rx="2"><title>2025-03-09: 12 commits</title></rect>
  <rect x="170" y="34" width="11" height="11" fill="#fef0d9" rx="2"><title>2025-03-10: 14 commits</title></rect>
  <rect x="170" y="48" width="11" height="11" fill="#fef0d9" rx="2"><title>2025-03-11: 11 commits</title></rect>
  <rect x="170" y="62" width="11" height="11" fill="#fef0d9" rx="2"><title>2025-03-12: 14 commits</title></rect>
  <rect x="170" y="76" width="11" height="11" fill="#d7301f" rx="2"><title>2025-03-13: 20 commits</title></rect>
  <rect x="170" y="90" width="11" height="11" fill="#d7301f" rx="2"><title>2025-03-14: 19 commits</title></rect>
  <rect x="170" y="104" width="11" height="11" fill="#fef0d9" rx="2"><title>2025-03-15: 14 commits</title></rect>
  <rect x="184" y="20" width="11" height="11" fill="#fef0d9" rx="2"><title>2025-03-16: 8 commits</title></rect>
  <rect x="184" y="34" width="11" height="11" fill="#fdcc8a" rx="2"><title>2025-03-17: 17 commits</title></rect>
  <rect x="184" y="48" width="11" height="11" fill="#fc8d59" rx="2"><title>2025-03-18: 18 commits</title></rect>
  <rect x="184" y="62" width="11" height="11" fill="#d7301f" rx="2"><title>2025-03-19: 20 commits</title></rect>
  <rect x="184" y="76" width="11" height="11" fill="#fdcc8a" rx="2"><title>2025-03-20: 16 commits</title></rect>
  <rect x="184" y="90" width="11" height="11" fill="#fc8d59" rx="2"><title>2025-03-21: 18 commits</title></rect>
  <rect x="184" y="104" width="11" height="11" fill="#fdcc8a" rx="2"><title>2025-03-22: 17 commits</title></rect>
  <rect x="198" y="20" width="11" height="11" fill="#fdcc8a" rx="2"><title>2025-03-23: 15 commits</title></rect>
  <rect x="198" y="34" width="11" height="11" fill="#fdcc8a" rx="2"><title>2025-03-24: 17 commits</title></rect>
  <rect x="198" y="48" width="11" height="11" fill="#fdcc8a" rx="2"><title>2025-03-25: 15 commits</title></rect>
  <rect x="198" y="62" width="11" height="11" fill="#d7301f" rx="2"><title>2025-03-26: 21 commits</title></rect>
  <rect x="198" y="76" width="11" height="11" fill="#fc8d59" rx="2"><title>2025-03-27: 18 commits</title></rect>
  <rect x="198" y="90" width="11" height="11" fill="#fdcc8a" rx="2"><title>2025-03-28: 17 commits</title></rect>
  <rect x="198" y="104" width="11" height="11" fill="#fc8d59" rx="2"><title>2025-03-29: 18 commits</title></rect>
  <rect x="198" y="20" width="11" height="11" fill="#fdcc8a" rx="2"><title>2025-03-30: 16 commits</title></rect>
  <rect x="212" y="34" width="11" height="11" fill="#fdcc8a" rx="2"><title>2025-03-31: 17 commits</title></rect>
  <rect x="212" y="48" width="11" height="11" fill="#d7301f" rx="2"><title>2025-04-01: 19 commits</title></rect>
  <rect x="212" y="62" width="11" height="11" fill="#d7301f" rx="2"><title>2025-04-02: 20 commits</title></rect>
  <rect x="212" y="76" width="11" height="11" fill="#fc8d59" rx="2"><title>2025-04-03: 18 commits</title></rect>
  <rect x="212" y="90" width="11" height="11" fill="#fdcc8a" rx="2"><title>2025-04-04: 16 commits</title></rect>
  <rect x="212" y="104" width="11" height="11" fill="#fdcc8a" rx="2"><title>2025-04-05: 17 commits</title></rect>
  <rect x="212" y="20" width="11" height="11" fill="#fef0d9" rx="2"><title>2025-04-06: 10 commits</title></rect>
  <rect x="226" y="34" width="11" height="11" fill="#fdcc8a" rx="2"><title>2025-04-07: 17 commits</title></rect>
  <rect x="226" y="48" width="11" height="11" fill="#d7301f" rx="2"><title>2025-04-08: 19 commits</title></rect>
  <rect x="226" y="62" width="11" height="11" fill="#fc8d59" rx="2"><title>2025-04-09: 18 commits</title></rect>
  <rect x="226" y="76" width="11" height="11" fill="#d7301f" rx="2"><title>2025-04-10: 20 commits</title></rect>
  <rect x="226" y="90" width="11" height="11" fill="#d7301f" rx="2"><title>2025-04-11: 19 commits</title></rect>
  <rect x="226" y="104" width="11" height="11" fill="#fdcc8a" rx="2"><title>2025-04-12: 15 commits</title></rect>
  <rect x="226" y="20" width="11" height="11" fill="#fef0d9" rx="2"><title>2025-04-13: 10 commits</title></rect>
  <rect x="240" y="34" width="11" height="11" fill="#fc8d59" rx="2"><title>2025-04-14: 18 commits</title></rect>
  <rect x="240" y="48" width="11" height="11" fill="#fc8d59" rx="2"><title>2025-04-15: 18 commits</title></rect>
  <rect x="240" y="62" width="11" height="11" fill="#fdcc8a" rx="2"><title>2025-04-16: 17 commits</title></rect>
  <rect x="240" y="76" width="11" height="11" fill="#fdcc8a" rx="2"><title>2025-04-17: 17 commits</title></rect>
  <rect x="240" y="90" width="11" height="11" fill="#fef0d9" rx="2"><title>2025-04-18: 7 commits</title></rect>
  <rect x="240" y="104" width="11" height="11" fill="#fef0d9" rx="2"><title>2025-04-19: 6 commits</title></rect>
  <rect x="240" y="20" width="11" height="11" fill="#161b22" rx="2"><title>2025-04-20: 0 commits</title></rect>
  <rect x="254" y="34" width="11" height="11" fill="#fef0d9" rx="2"><title>2025-04-21: 2 commits</title></rect>
  <rect x="254" y="48" width="11" height="11" fill="#fef0d9" rx="2"><title>2025-04-22: 11 commits</title></rect>
  <rect x="254" y="62" width="11" height="11" fill="#fef0d9" rx="2"><title>2025-04-23: 14 commits</title></rect>
  <rect x="254" y="76" width="11" height="11" fill="#fc8d59" rx="2"><title>2025-04-24: 18 commits</title></rect>
  <rect x="254" y="90" width="11" height="11" fill="#d7301f" rx="2"><title>2025-04-25: 19 commits</title></rect>
  <rect x="254" y="104" width="11" height="11" fill="#fef0d9" rx="2"><title>2025-04-26: 12 commits</title></rect>
  <rect x="254" y="20" width="11" height="11" fill="#fef0d9" rx="2"><title>2025-04-27: 12 commits</title></rect>
  <rect x="268" y="34" width="11" height="11" fill="#fdcc8a" rx="2"><title>2025-04-28: 17 commits</title></rect>
  <rect x="268" y="48" width="11" height="11" fill="#d7301f" rx="2"><title>2025-04-29: 19 commits</title></rect>
  <rect x="268" y="62" width="11" height="11" fill="#fdcc8a" rx="2"><title>2025-04-30: 16 commits</title></rect>
  <rect x="268" y="76" width="11" height="11" fill="#fef0d9" rx="2"><title>2025-05-01: 8 commits</title></rect>
  <rect x="268" y="90" width="11" height="11" fill="#fef0d9" rx="2"><title>2025-05-02: 5 commits</title></rect>
  <rect x="268" y="104" width="11" height="11" fill="#fef0d9" rx="2"><title>2025-05-03: 6 commits</title></rect>
  <rect x="268" y="20" width="11" height="11" fill="#fef0d9" rx="2"><title>2025-05-04: 6 commits</title></rect>
  <rect x="282" y="34" width="11" height="11" fill="#fef0d9" rx="2"><title>2025-05-05: 11 commits</title></rect>
  <rect x="282" y="48" width="11" height="11" fill="#fdcc8a" rx="2"><title>2025-05-06: 17 commits</title></rect>
  <rect x="282" y="62" width="11" height="11" fill="#fdcc8a" rx="2"><title>2025-05-07: 17 commits</title></rect>
  <rect x="282" y="76" width="11" height="11" fill="#fdcc8a" rx="2"><title>2025-05-08: 16 commits</title></rect>
  <rect x="282" y="90" width="11" height="11" fill="#fdcc8a" rx="2"><title>2025-05-09: 15 commits</title></rect>
  <rect x="282" y="104" width="11" height="11" fill="#fef0d9" rx="2"><title>2025-05-10: 13 commits</title></rect>
  <rect x="282" y="20" width="11" height="11" fill="#fdcc8a" rx="2"><title>2025-05-11: 15 commits</title></rect>
  <rect x="296" y="34" width="11" height="11" fill="#fdcc8a" rx="2"><title>2025-05-12: 17 commits</title></rect>
  <rect x="296" y="48" width="11" height="11" fill="#fef0d9" rx="2"><title>2025-05-13: 14 commits</title></rect>
  <rect x="296" y="62" width="11" height="11" fill="#fef0d9" rx="2"><title>2025-05-14: 14 commits</title></rect>
  <rect x="296" y="76" width="11" height="11" fill="#fef0d9" rx="2"><title>2025-05-15: 12 commits</title></rect>
  <rect x="296" y="90" width="11" height="11" fill="#fdcc8a" rx="2"><title>2025-05-16: 17 commits</title></rect>
  <rect x="296" y="104" width="11" height="11" fill="#fdcc8a" rx="2"><title>2025-05-17: 17 commits</title></rect>
  <rect x="296" y="20" width="11" height="11" fill="#fef0d9" rx="2"><title>2025-05-18: 9 commits</title></rect>
  <rect x="310" y="34" width="11" height="11" fill="#fdcc8a" rx="2"><title>2025-05-19: 17 commits</title></rect>
  <rect x="310" y="48" width="11" height="11" fill="#fdcc8a" rx="2"><title>2025-05-20: 17 commits</title></rect>
  <rect x="310" y="62" width="11" height="11" fill="#fdcc8a" rx="2"><title>2025-05-21: 17 commits</title></rect>
  <rect x="310" y="76" width="11" height="11" fill="#fdcc8a" rx="2"><title>2025-05-22: 17 commits</title></rect>
  <rect x="310" y="90" width="11" height="11" fill="#fdcc8a" rx="2"><title>2025-05-23: 17 commits</title></rect>
  <rect x="310" y="104" width="11" height="11" fill="#fef0d9" rx="2"><title>2025-05-24: 10 commits</title></rect>
  <rect x="310" y="20" width="11" height="11" fill="#fef0d9" rx="2"><title>2025-05-25: 6 commits</title></rect>
  <rect x="324" y="34" width="11" height="11" fill="#fdcc8a" rx="2"><title>2025-05-26: 17 commits</title></rect>
  <rect x="324" y="48" width="11" height="11" fill="#d7301f" rx="2"><title>2025-05-27: 19 commits</title></rect>
  <rect x="324" y="62" width="11" height="11" fill="#fdcc8a" rx="2"><title>2025-05-28: 16 commits</title></rect>
  <rect x="324" y="76" width="11" height="11" fill="#fdcc8a" rx="2"><title>2025-05-29: 16 commits</title></rect>
  <rect x="324" y="90" width="11" height="11" fill="#fdcc8a" rx="2"><title>2025-05-30: 16 commits</title></rect>
  <rect x="324" y="104" width="11" height="11" fill="#fdcc8a" rx="2"><title>2025-05-31: 15 commits</title></rect>
  <rect x="324" y="20" width="11" height="11" fill="#fdcc8a" rx="2"><title>2025-06-01: 17 commits</title></rect>
  <rect x="338" y="34" width="11" height="11" fill="#d7301f" rx="2"><title>2025-06-02: 20 commits</title></rect>
  <rect x="338" y="48" width="11" height="11" fill="#d7301f" rx="2"><title>2025-06-03: 21 commits</title></rect>
  <rect x="338" y="62" width="11" height="11" fill="#d7301f" rx="2"><title>2025-06-04: 19 commits</title></rect>
  <rect x="338" y="76" width="11" height="11" fill="#fdcc8a" rx="2"><title>2025-06-05: 16 commits</title></rect>
  <rect x="338" y="90" width="11" height="11" fill="#fdcc8a" rx="2"><title>2025-06-06: 16 commits</title></rect>
  <rect x="338" y="104" width="11" height="11" fill="#fdcc8a" rx="2"><title>2025-06-07: 15 commits</title></rect>
  <rect x="338" y="20" width="11" height="11" fill="#fef0d9" rx="2"><title>2025-06-08: 13 commits</title></rect>
  <rect x="352" y="34" width="11" height="11" fill="#fef0d9" rx="2"><title>2025-06-09: 9 commits</title></rect>
  <rect x="352" y="48" width="11" height="11" fill="#fdcc8a" rx="2"><title>2025-06-10: 15 commits</title></rect>
  <rect x="352" y="62" width="11" height="11" fill="#fc8d59" rx="2"><title>2025-06-11: 18 commits</title></rect>
  <rect x="352" y="76" width="11" height="11" fill="#fdcc8a" rx="2"><title>2025-06-12: 17 commits</title></rect>
  <rect x="352" y="90" width="11" height="11" fill="#d7301f" rx="2"><title>2025-06-13: 21 commits</title></rect>
  <rect x="352" y="104" width="11" height="11" fill="#fdcc8a" rx="2"><title>2025-06-14: 17 commits</title></rect>
  <rect x="352" y="20" width="11" height="11" fill="#fdcc8a" rx="2"><title>2025-06-15: 17 commits</title></rect>
  <rect x="366" y="34" width="11" height="11" fill="#fdcc8a" rx="2"><title>2025-06-16: 17 commits</title></rect>
  <rect x="366" y="48" width="11" height="11" fill="#fdcc8a" rx="2"><title>2025-06-17: 16 commits</title></rect>
  <rect x="366" y="62" width="11" height="11" fill="#fdcc8a" rx="2"><title>2025-06-18: 17 commits</title></rect>
  <rect x="366" y="76" width="11" height="11" fill="#d7301f" rx="2"><title>2025-06-19: 19 commits</title></rect>
  <rect x="366" y="90" width="11" height="11" fill="#fef0d9" rx="2"><title>2025-06-20: 14 commits</title></rect>
  <rect x="366" y="104" width="11" height="11" fill="#fef0d9" rx="2"><title>2025-06-21: 8 commits</title></rect>
  <rect x="366" y="20" width="11" height="11" fill="#fef0d9" rx="2"><title>2025-06-22: 13 commits</title></rect>
  <rect x="380" y="34" width="11" height="11" fill="#d7301f" rx="2"><title>2025-06-23: 19 commits</title></rect>
  <rect x="380" y="48" width="11" height="11" fill="#fdcc8a" rx="2"><title>2025-06-24: 17 commits</title></rect>
  <rect x="380" y="62" width="11" height="11" fill="#d7301f" rx="2"><title>2025-06-25: 19 commits</title></rect>
  <rect x="380" y="76" width="11" height="11" fill="#d7301f" rx="2"><title>2025-06-26: 19 commits</title></rect>
  <rect x="380" y="90" width="11" height="11" fill="#d7301f" rx="2"><title>2025-06-27: 20 commits</title></rect>
  <rect x="380" y="104" width="11" height="11" fill="#fef0d9" rx="2"><title>2025-06-28: 8 commits</title></rect>
  <rect x="380" y="20" width="11" height="11" fill="#fef0d9" rx="2"><title>2025-06-29: 2 commits</title></rect>
  <rect x="394" y="34" width="11" height="11" fill="#fef0d9" rx="2"><title>2025-06-30: 11 commits</title></rect>
  <rect x="394" y="48" width="11" height="11" fill="#fef0d9" rx="2"><title>2025-07-01: 12 commits</title></rect>
  <rect x="394" y="62" width="11" height="11" fill="#fef0d9" rx="2"><title>2025-07-02: 12 commits</title></rect>
  <rect x="394" y="76" width="11" height="11" fill="#fdcc8a" rx="2"><title>2025-07-03: 15 commits</title></rect>
  <rect x="394" y="90" width="11" height="11" fill="#fdcc8a" rx="2"><title>2025-07-04: 16 commits</title></rect>
  <rect x="394" y="104" width="11" height="11" fill="#fef0d9" rx="2"><title>2025-07-05: 11 commits</title></rect>
  <rect x="394" y="20" width="11" height="11" fill="#fef0d9" rx="2"><title>2025-07-06: 12 commits</title></rect>
  <rect x="408" y="34" width="11" height="11" fill="#fef0d9" rx="2"><title>2025-07-07: 12 commits</title></rect>
  <rect x="408" y="48" width="11" height="11" fill="#fdcc8a" rx="2"><title>2025-07-08: 17 commits</title></rect>
  <rect x="408" y="62" width="11" height="11" fill="#fef0d9" rx="2"><title>2025-07-09: 14 commits</title></rect>
  <rect x="408" y="76" width="11" height="11" fill="#d7301f" rx="2"><title>2025-07-10: 19 commits</title></rect>
  <rect x="408" y="90" width="11" height="11" fill="#fef0d9" rx="2"><title>2025-07-11: 11 commits</title></rect>
  <rect x="408" y="104" width="11" height="11" fill="#fef0d9" rx="2"><title>2025-07-12: 10 commits</title></rect>
  <rect x="408" y="20" width="11" height="11" fill="#fef0d9" rx="2"><title>2025-07-13: 11 commits</title></rect>
  <rect x="422" y="34" width="11" height="11" fill="#fef0d9" rx="2"><title>2025-07-14: 14 commits</title></rect>
  <rect x="422" y="48" width="11" height="11" fill="#fdcc8a" rx="2"><title>2025-07-15: 15 commits</title></rect>
  <rect x="422" y="62" width="11" height="11" fill="#fdcc8a" rx="2"><title>2025-07-16: 15 commits</title></rect>
  <rect x="422" y="76" width="11" height="11" fill="#fc8d59" rx="2"><title>2025-07-17: 18 commits</title></rect>
  <rect x="422" y="90" width="11" height="11" fill="#fc8d59" rx="2"><title>2025-07-18: 18 commits</title></rect>
  <rect x="422" y="104" width="11" height="11" fill="#fef0d9" rx="2"><title>2025-07-19: 11 commits</title></rect>
  <rect x="422" y="20" width="11" height="11" fill="#fef0d9" rx="2"><title>2025-07-20: 2 commits</title></rect>
  <rect x="436" y="34" width="11" height="11" fill="#fef0d9" rx="2"><title>2025-07-21: 12 commits</title></rect>
  <rect x="436" y="48" width="11" height="11" fill="#fef0d9" rx="2"><title>2025-07-22: 11 commits</title></rect>
  <rect x="436" y="62" width="11" height="11" fill="#fef0d9" rx="2"><title>2025-07-23: 14 commits</title></rect>
  <rect x="436" y="76" width="11" height="11" fill="#fdcc8a" rx="2"><title>2025-07-24: 15 commits</title></rect>
  <rect x="436" y="90" width="11" height="11" fill="#fdcc8a" rx="2"><title>2025-07-25: 17 commits</title></rect>
  <rect x="436" y="104" width="11" height="11" fill="#fdcc8a" rx="2"><title>2025-07-26: 15 commits</title></rect>
  <rect x="436" y="20" width="11" height="11" fill="#fef0d9" rx="2"><title>2025-07-27: 6 commits</title></rect>
  <rect x="450" y="34" width="11" height="11" fill="#fef0d9" rx="2"><title>2025-07-28: 14 commits</title></rect>
  <rect x="450" y="48" width="11" height="11" fill="#fdcc8a" rx="2"><title>2025-07-29: 15 commits</title></rect>
  <rect x="450" y="62" width="11" height="11" fill="#fef0d9" rx="2"><title>2025-07-30: 14 commits</title></rect>
  <rect x="450" y="76" width="11" height="11" fill="#fef0d9" rx="2"><title>2025-07-31: 13 commits</title></rect>
  <rect x="450" y="90" width="11" height="11" fill="#fdcc8a" rx="2"><title>2025-08-01: 16 commits</title></rect>
  <rect x="450" y="104" width="11" height="11" fill="#fef0d9" rx="2"><title>2025-08-02: 7 commits</title></rect>
  <rect x="450" y="20" width="11" height="11" fill="#fef0d9" rx="2"><title>2025-08-03: 7 commits</title></rect>
  <rect x="464" y="34" width="11" height="11" fill="#fef0d9" rx="2"><title>2025-08-04: 13 commits</title></rect>
  <rect x="464" y="48" width="11" height="11" fill="#fef0d9" rx="2"><title>2025-08-05: 11 commits</title></rect>
  <rect x="464" y="62" width="11" height="11" fill="#fef0d9" rx="2"><title>2025-08-06: 8 commits</title></rect>
  <rect x="464" y="76" width="11" height="11" fill="#fdcc8a" rx="2"><title>2025-08-07: 16 commits</title></rect>
  <rect x="464" y="90" width="11" height="11" fill="#fdcc8a" rx="2"><title>2025-08-08: 16 commits</title></rect>
  <rect x="464" y="104" width="11" height="11" fill="#fef0d9" rx="2"><title>2025-08-09: 10 commits</title></rect>
  <rect x="464" y="20" width="11" height="11" fill="#fef0d9" rx="2"><title>2025-08-10: 2 commits</title></rect>
  <rect x="478" y="34" width="11" height="11" fill="#fdcc8a" rx="2"><title>2025-08-11: 16 commits</title></rect>
  <rect x="478" y="48" width="11" height="11" fill="#d7301f" rx="2"><title>2025-08-12: 19 commits</title></rect>
  <rect x="478" y="62" width="11" height="11" fill="#fdcc8a" rx="2"><title>2025-08-13: 16 commits</title></rect>
  <rect x="478" y="76" width="11" height="11" fill="#fdcc8a" rx="2"><title>2025-08-14: 16 commits</title></rect>
  <rect x="478" y="90" width="11" height="11" fill="#fdcc8a" rx="2"><title>2025-08-15: 15 commits</title></rect>
  <rect x="478" y="104" width="11" height="11" fill="#fef0d9" rx="2"><title>2025-08-16: 12 commits</title></rect>
  <rect x="478" y="20" width="11" height="11" fill="#fef0d9" rx="2"><title>2025-08-17: 13 commits</title></rect>
  <rect x="492" y="34" width="11" height="11" fill="#fef0d9" rx="2"><title>2025-08-18: 8 commits</title></rect>
  <rect x="492" y="48" width="11" height="11" fill="#fef0d9" rx="2"><title>2025-08-19: 14 commits</title></rect>
  <rect x="492" y="62" width="11" height="11" fill="#fdcc8a" rx="2"><title>2025-08-20: 15 commits</title></rect>
  <rect x="492" y="76" width="11" height="11" fill="#fef0d9" rx="2"><title>2025-08-21: 12 commits</title></rect>
  <rect x="492" y="90" width="11" height="11" fill="#fc8d59" rx="2"><title>2025-08-22: 18 commits</title></rect>
  <rect x="492" y="104" width="11" height="11" fill="#fdcc8a" rx="2"><title>2025-08-23: 16 commits</title></rect>
  <rect x="492" y="20" width="11" height="11" fill="#fdcc8a" rx="2"><title>2025-08-24: 17 commits</title></rect>
  <rect x="506" y="34" width="11" height="11" fill="#d7301f" rx="2"><title>2025-08-25: 20 commits</title></rect>
  <rect x="506" y="48" width="11" height="11" fill="#d7301f" rx="2"><title>2025-08-26: 19 commits</title></rect>
  <rect x="506" y="62" width="11" height="11" fill="#d7301f" rx="2"><title>2025-08-27: 19 commits</title></rect>
  <rect x="506" y="76" width="11" height="11" fill="#fdcc8a" rx="2"><title>2025-08-28: 16 commits</title></rect>
  <rect x="506" y="90" width="11" height="11" fill="#fdcc8a" rx="2"><title>2025-08-29: 17 commits</title></rect>
  <rect x="506" y="104" width="11" height="11" fill="#fdcc8a" rx="2"><title>2025-08-30: 17 commits</title></rect>
  <rect x="506" y="20" width="11" height="11" fill="#fc8d59" rx="2"><title>2025-08-31: 18 commits</title></rect>
  <rect x="520" y="34" width="11" height="11" fill="#fdcc8a" rx="2"><title>2025-09-01: 16 commits</title></rect>
  <rect x="520" y="48" width="11" height="11" fill="#fdcc8a" rx="2"><title>2025-09-02: 17 commits</title></rect>
  <rect x="520" y="62" width="11" height="11" fill="#fdcc8a" rx="2"><title>2025-09-03: 16 commits</title></rect>
  <rect x="520" y="76" width="11" height="11" fill="#fdcc8a" rx="2"><title>2025-09-04: 16 commits</title></rect>
  <rect x="520" y="90" width="11" height="11" fill="#fdcc8a" rx="2"><title>2025-09-05: 17 commits</title></rect>
  <rect x="520" y="104" width="11" height="11" fill="#fef0d9" rx="2"><title>2025-09-06: 13 commits</title></rect>
  <rect x="520" y="20" width="11" height="11" fill="#fef0d9" rx="2"><title>2025-09-07: 11 commits</title></rect>
  <rect x="534" y="34" width="11" height="11" fill="#fc8d59" rx="2"><title>2025-09-08: 18 commits</title></rect>
  <rect x="534" y="48" width="11" height="11" fill="#d7301f" rx="2"><title>2025-09-09: 20 commits</title></rect>
  <rect x="534" y="62" width="11" height="11" fill="#fdcc8a" rx="2"><title>2025-09-10: 15 commits</title></rect>
  <rect x="534" y="76" width="11" height="11" fill="#d7301f" rx="2"><title>2025-09-11: 19 commits</title></rect>
  <rect x="534" y="90" width="11" height="11" fill="#d7301f" rx="2"><title>2025-09-12: 19 commits</title></rect>
  <rect x="534" y="104" width="11" height="11" fill="#fef0d9" rx="2"><title>2025-09-13: 10 commits</title></rect>
  <rect x="534" y="20" width="11" height="11" fill="#fef0d9" rx="2"><title>2025-09-14: 11 commits</title></rect>
  <rect x="548" y="34" width="11" height="11" fill="#fdcc8a" rx="2"><title>2025-09-15: 16 commits</title></rect>
  <rect x="548" y="48" width="11" height="11" fill="#fdcc8a" rx="2"><title>2025-09-16: 16 commits</title></rect>
  <rect x="548" y="62" width="11" height="11" fill="#fdcc8a" rx="2"><title>2025-09-17: 16 commits</title></rect>
  <rect x="548" y="76" width="11" height="11" fill="#fdcc8a" rx="2"><title>2025-09-18: 16 commits</title></rect>
  <rect x="548" y="90" width="11" height="11" fill="#fc8d59" rx="2"><title>2025-09-19: 18 commits</title></rect>
  <rect x="548" y="104" width="11" height="11" fill="#d7301f" rx="2"><title>2025-09-20: 19 commits</title></rect>
  <rect x="548" y="20" width="11" height="11" fill="#fdcc8a" rx="2"><title>2025-09-21: 15 commits</title></rect>
  <rect x="562" y="34" width="11" height="11" fill="#d7301f" rx="2"><title>2025-09-22: 20 commits</title></rect>
  <rect x="562" y="48" width="11" height="11" fill="#fdcc8a" rx="2"><title>2025-09-23: 17 commits</title></rect>
  <rect x="562" y="62" width="11" height="11" fill="#fdcc8a" rx="2"><title>2025-09-24: 15 commits</title></rect>
  <rect x="562" y="76" width="11" height="11" fill="#fdcc8a" rx="2"><title>2025-09-25: 17 commits</title></rect>
  <rect x="562" y="90" width="11" height="11" fill="#fdcc8a" rx="2"><title>2025-09-26: 17 commits</title></rect>
  <rect x="562" y="104" width="11" height="11" fill="#fef0d9" rx="2"><title>2025-09-27: 14 commits</title></rect>
  <rect x="562" y="20" width="11" height="11" fill="#fef0d9" rx="2"><title>2025-09-28: 14 commits</title></rect>
  <rect x="576" y="34" width="11" height="11" fill="#d7301f" rx="2"><title>2025-09-29: 21 commits</title></rect>
  <rect x="576" y="48" width="11" height="11" fill="#d7301f" rx="2"><title>2025-09-30: 19 commits</title></rect>
  <rect x="576" y="62" width="11" height="11" fill="#fc8d59" rx="2"><title>2025-10-01: 18 commits</title></rect>
  <rect x="576" y="76" width="11" height="11" fill="#fc8d59" rx="2"><title>2025-10-02: 18 commits</title></rect>
  <rect x="576" y="90" width="11" height="11" fill="#fdcc8a" rx="2"><title>2025-10-03: 15 commits</title></rect>
  <rect x="576" y="104" width="11" height="11" fill="#fdcc8a" rx="2"><title>2025-10-04: 17 commits</title></rect>
  <rect x="576" y="20" width="11" height="11" fill="#d7301f" rx="2"><title>2025-10-05: 19 commits</title></rect>
  <rect x="590" y="34" width="11" height="11" fill="#d7301f" rx="2"><title>2025-10-06: 19 commits</title></rect>
  <rect x="590" y="48" width="11" height="11" fill="#d7301f" rx="2"><title>2025-10-07: 20 commits</title></rect>
  <rect x="590" y="62" width="11" height="11" fill="#d7301f" rx="2"><title>2025-10-08: 19 commits</title></rect>
  <rect x="590" y="76" width="11" height="11" fill="#d7301f" rx="2"><title>2025-10-09: 21 commits</title></rect>
  <rect x="590" y="90" width="11" height="11" fill="#d7301f" rx="2"><title>2025-10-10: 19 commits</title></rect>
  <rect x="590" y="104" width="11" height="11" fill="#d7301f" rx="2"><title>2025-10-11: 19 commits</title></rect>
  <rect x="590" y="20" width="11" height="11" fill="#d7301f" rx="2"><title>2025-10-12: 19 commits</title></rect>
  <rect x="604" y="34" width="11" height="11" fill="#d7301f" rx="2"><title>2025-10-13: 20 commits</title></rect>
  <rect x="604" y="48" width="11" height="11" fill="#d7301f" rx="2"><title>2025-10-14: 21 commits</title></rect>
  <rect x="604" y="62" width="11" height="11" fill="#fc8d59" rx="2"><title>2025-10-15: 18 commits</title></rect>
  <rect x="604" y="76" width="11" height="11" fill="#d7301f" rx="2"><title>2025-10-16: 21 commits</title></rect>
  <rect x="604" y="90" width="11" height="11" fill="#d7301f" rx="2"><title>2025-10-17: 19 commits</title></rect>
  <rect x="604" y="104" width="11" height="11" fill="#d7301f" rx="2"><title>2025-10-18: 20 commits</title></rect>
  <rect x="604" y="20" width="11" height="11" fill="#fdcc8a" rx="2"><title>2025-10-19: 15 commits</title></rect>
  <rect x="618" y="34" width="11" height="11" fill="#fdcc8a" rx="2"><title>2025-10-20: 17 commits</title></rect>
  <rect x="618" y="48" width="11" height="11" fill="#d7301f" rx="2"><title>2025-10-21: 20 commits</title></rect>
  <rect x="618" y="62" width="11" height="11" fill="#d7301f" rx="2"><title>2025-10-22: 21 commits</title></rect>
  <rect x="618" y="76" width="11" height="11" fill="#d7301f" rx="2"><title>2025-10-23: 19 commits</title></rect>
  <rect x="618" y="90" width="11" height="11" fill="#d7301f" rx="2"><title>2025-10-24: 21 commits</title></rect>
  <rect x="618" y="104" width="11" height="11" fill="#fdcc8a" rx="2"><title>2025-10-25: 17 commits</title></rect>
  <rect x="632" y="20" width="11" height="11" fill="#fc8d59" rx="2"><title>2025-10-26: 18 commits</title></rect>
  <rect x="632" y="34" width="11" height="11" fill="#d7301f" rx="2"><title>2025-10-27: 19 commits</title></rect>
  <rect x="632" y="48" width="11" height="11" fill="#d7301f" rx="2"><title>2025-10-28: 20 commits</title></rect>
  <rect x="632" y="62" width="11" height="11" fill="#d7301f" rx="2"><title>2025-10-29: 19 commits</title></rect>
  <rect x="632" y="76" width="11" height="11" fill="#fc8d59" rx="2"><title>2025-10-30: 18 commits</title></rect>
  <rect x="632" y="90" width="11" height="11" fill="#fc8d59" rx="2"><title>2025-10-31: 18 commits</title></rect>
  <rect x="632" y="104" width="11" height="11" fill="#fdcc8a" rx="2"><title>2025-11-01: 17 commits</title></rect>
  <rect x="646" y="20" width="11" height="11" fill="#fef0d9" rx="2"><title>2025-11-02: 14 commits</title></rect>
  <rect x="646" y="34" width="11" height="11" fill="#fc8d59" rx="2"><title>2025-11-03: 18 commits</title></rect>
  <rect x="646" y="48" width="11" height="11" fill="#d7301f" rx="2"><title>2025-11-04: 21 commits</title></rect>
  <rect x="646" y="62" width="11" height="11" fill="#d7301f" rx="2"><title>2025-11-05: 19 commits</title></rect>
  <rect x="646" y="76" width="11" height="11" fill="#fc8d59" rx="2"><title>2025-11-06: 18 commits</title></rect>
  <rect x="646" y="90" width="11" height="11" fill="#d7301f" rx="2"><title>2025-11-07: 20 commits</title></rect>
  <rect x="646" y="104" width="11" height="11" fill="#fef0d9" rx="2"><title>2025-11-08: 14 commits</title></rect>
  <rect x="660" y="20" width="11" height="11" fill="#fc8d59" rx="2"><title>2025-11-09: 18 commits</title></rect>
  <rect x="660" y="34" width="11" height="11" fill="#fef0d9" rx="2"><title>2025-11-10: 14 commits</title></rect>
  <rect x="660" y="48" width="11" height="11" fill="#fdcc8a" rx="2"><title>2025-11-11: 16 commits</title></rect>
  <rect x="660" y="62" width="11" height="11" fill="#fdcc8a" rx="2"><title>2025-11-12: 17 commits</title></rect>
  <rect x="660" y="76" width="11" height="11" fill="#fef0d9" rx="2"><title>2025-11-13: 14 commits</title></rect>
  <rect x="660" y="90" width="11" height="11" fill="#d7301f" rx="2"><title>2025-11-14: 21 commits</title></rect>
  <rect x="660" y="104" width="11" height="11" fill="#fc8d59" rx="2"><title>2025-11-15: 18 commits</title></rect>
  <rect x="674" y="20" width="11" height="11" fill="#fef0d9" rx="2"><title>2025-11-16: 14 commits</title></rect>
  <rect x="674" y="34" width="11" height="11" fill="#fc8d59" rx="2"><title>2025-11-17: 18 commits</title></rect>
  <rect x="674" y="48" width="11" height="11" fill="#d7301f" rx="2"><title>2025-11-18: 20 commits</title></rect>
  <rect x="674" y="62" width="11" height="11" fill="#d7301f" rx="2"><title>2025-11-19: 21 commits</title></rect>
  <rect x="674" y="76" width="11" height="11" fill="#fdcc8a" rx="2"><title>2025-11-20: 17 commits</title></rect>
  <rect x="674" y="90" width="11" height="11" fill="#fdcc8a" rx="2"><title>2025-11-21: 17 commits</title></rect>
  <rect x="674" y="104" width="11" height="11" fill="#fef0d9" rx="2"><title>2025-11-22: 14 commits</title></rect>
  <rect x="688" y="20" width="11" height="11" fill="#fef0d9" rx="2"><title>2025-11-23: 11 commits</title></rect>
  <rect x="688" y="34" width="11" height="11" fill="#fdcc8a" rx="2"><title>2025-11-24: 17 commits</title></rect>
  <rect x="688" y="48" width="11" height="11" fill="#d7301f" rx="2"><title>2025-11-25: 21 commits</title></rect>
  <rect x="688" y="62" width="11" height="11" fill="#d7301f" rx="2"><title>2025-11-26: 19 commits</title></rect>
  <rect x="688" y="76" width="11" height="11" fill="#fc8d59" rx="2"><title>2025-11-27: 18 commits</title></rect>
  <rect x="688" y="90" width="11" height="11" fill="#d7301f" rx="2"><title>2025-11-28: 19 commits</title></rect>
  <rect x="688" y="104" width="11" height="11" fill="#fef0d9" rx="2"><title>2025-11-29: 5 commits</title></rect>
  <rect x="702" y="20" width="11" height="11" fill="#fef0d9" rx="2"><title>2025-11-30: 4 commits</title></rect>
  <rect x="702" y="34" width="11" height="11" fill="#fef0d9" rx="2"><title>2025-12-01: 7 commits</title></rect>
  <rect x="702" y="48" width="11" height="11" fill="#fdcc8a" rx="2"><title>2025-12-02: 16 commits</title></rect>
  <rect x="702" y="62" width="11" height="11" fill="#fef0d9" rx="2"><title>2025-12-03: 12 commits</title></rect>
  <rect x="702" y="76" width="11" height="11" fill="#fdcc8a" rx="2"><title>2025-12-04: 15 commits</title></rect>
  <rect x="702" y="90" width="11" height="11" fill="#fdcc8a" rx="2"><title>2025-12-05: 16 commits</title></rect>
  <rect x="702" y="104" width="11" height="11" fill="#fef0d9" rx="2"><title>2025-12-06: 8 commits</title></rect>
  <rect x="716" y="20" width="11" height="11" fill="#fef0d9" rx="2"><title>2025-12-07: 5 commits</title></rect>
  <rect x="716" y="34" width="11" height="11" fill="#fdcc8a" rx="2"><title>2025-12-08: 16 commits</title></rect>
  <rect x="716" y="48" width="11" height="11" fill="#fdcc8a" rx="2"><title>2025-12-09: 17 commits</title></rect>
  <rect x="716" y="62" width="11" height="11" fill="#d7301f" rx="2"><title>2025-12-10: 21 commits</title></rect>
  <rect x="716" y="76" width="11" height="11" fill="#d7301f" rx="2"><title>2025-12-11: 19 commits</title></rect>
  <rect x="716" y="90" width="11" height="11" fill="#d7301f" rx="2"><title>2025-12-12: 20 commits</title></rect>
  <rect x="716" y="104" width="11" height="11" fill="#fdcc8a" rx="2"><title>2025-12-13: 15 commits</title></rect>
  <rect x="730" y="20" width="11" height="11" fill="#fdcc8a" rx="2"><title>2025-12-14: 16 commits</title></rect>
  <rect x="730" y="34" width="11" height="11" fill="#fc8d59" rx="2"><title>2025-12-15: 18 commits</title></rect>
  <rect x="730" y="48" width="11" height="11" fill="#fc8d59" rx="2"><title>2025-12-16: 18 commits</title></rect>
  <rect x="730" y="62" width="11" height="11" fill="#fc8d59" rx="2"><title>2025-12-17: 18 commits</title></rect>
  <rect x="730" y="76" width="11" height="11" fill="#fc8d59" rx="2"><title>2025-12-18: 18 commits</title></rect>
  <rect x="730" y="90" width="11" height="11" fill="#fc8d59" rx="2"><title>2025-12-19: 18 commits</title></rect>
  <rect x="730" y="104" width="11" height="11" fill="#fef0d9" rx="2"><title>2025-12-20: 10 commits</title></rect>
  <rect x="744" y="20" width="11" height="11" fill="#fef0d9" rx="2"><title>2025-12-21: 13 commits</title></rect>
  <rect x="744" y="34" width="11" height="11" fill="#fef0d9" rx="2"><title>2025-12-22: 14 commits</title></rect>
  <rect x="744" y="48" width="11" height="11" fill="#fef0d9" rx="2"><title>2025-12-23: 12 commits</title></rect>
  <rect x="744" y="62" width="11" height="11" fill="#fc8d59" rx="2"><title>2025-12-24: 18 commits</title></rect>
  <rect x="744" y="76" width="11" height="11" fill="#fef0d9" rx="2"><title>2025-12-25: 10 commits</title></rect>
  <rect x="744" y="90" width="11" height="11" fill="#fef0d9" rx="2"><title>2025-12-26: 9 commits</title></rect>
  <rect x="744" y="104" width="11" height="11" fill="#d7301f" rx="2"><title>2025-12-27: 19 commits</title></rect>
  <rect x="758" y="20" width="11" height="11" fill="#fef0d9" rx="2"><title>2025-12-28: 12 commits</title></rect>
  <rect x="758" y="34" width="11" height="11" fill="#fdcc8a" rx="2"><title>2025-12-29: 15 commits</title></rect>
  <rect x="758" y="48" width="11" height="11" fill="#fdcc8a" rx="2"><title>2025-12-30: 17 commits</title></rect>
  <text x="30" y="133" class="title">2025 - 5,616 data updates</text>
  <text x="632" y="133" class="legend">Less</text>
  <rect x="662" y="123" width="11" height="11" fill="#161b22" rx="2"/>
  <rect x="676" y="123" width="11" height="11" fill="#fef0d9" rx="2"/>
  <rect x="690" y="123" width="11" height="11" fill="#fdcc8a" rx="2"/>
  <rect x="704" y="123" width="11" height="11" fill="#fc8d59" rx="2"/>
  <rect x="718" y="123" width="11" height="11" fill="#d7301f" rx="2"/>
  <text x="737" y="133" class="legend">More</text>
</svg>