<svg width="782" height="220" xmlns="http://www.w3.org/2000/svg">
  <style>
    .axis { font: 10px sans-serif; fill: #8b949e; }
    .label { font: 10px sans-serif; fill: #c9d1d9; paint-order: stroke; stroke: #0d1117; stroke-width: 3px; }
    .title { font: bold 14px sans-serif; fill: #c9d1d9; }
  </style>
  <rect width="100%" height="100%" fill="#0d1117"/>
  <line x1="40" y1="180" x2="722" y2="180" stroke="#30363d"/>
  <text x="34" y="183" text-anchor="end" class="axis">0%</text>
  <line x1="40" y1="142.5" x2="722" y2="142.5" stroke="#21262d"/>
  <text x="34" y="145.5" text-anchor="end" class="axis">25%</text>
  <line x1="40" y1="105" x2="722" y2="105" stroke="#21262d"/>
  <text x="34" y="108" text-anchor="end" class="axis">50%</text>
  <line x1="40" y1="67.5" x2="722" y2="67.5" stroke="#21262d"/>
  <text x="34" y="70.5" text-anchor="end" class="axis">75%</text>
  <line x1="40" y1="30" x2="722" y2="30" stroke="#21262d"/>
  <text x="34" y="33" text-anchor="end" class="axis">100%</text>
  <text x="52.2" y="194" text-anchor="middle" class="axis">2022</text>
  <text x="198.3" y="194" text-anchor="middle" class="axis">2023</text>
  <text x="344.5" y="194" text-anchor="middle" class="axis">2024</text>
  <text x="490.6" y="194" text-anchor="middle" class="axis">2025</text>
  <text x="636.8" y="194" text-anchor="middle" class="axis">2026</text>
  <polyline points="40,160.9 52.2,134.9 64.4,141.3 76.5,136 88.7,88.1" fill="none" stroke-width="2" stroke="#d95926"/>
  <polyline points="149.6,30 161.8,83.6 174,133 186.1,131.8 198.3,127.3 210.5,120.1 222.7,106.6 234.9,105.5" fill="none" stroke-width="2" stroke="#d95926"/>
  <polyline points="307.9,74.4 320.1,120.5 332.3,116.8 344.5,116.4 356.6,112.1 368.8,112.6 381,34.8" fill="none" stroke-width="2" stroke="#d95926"/>
  <polyline points="454.1,128 466.3,136.4 478.4,122.7 490.6,117.8 502.8,111.6 515,115.6 527.1,121.2" fill="none" stroke-width="2" stroke="#d95926"/>
  <polyline points="600.2,134.9 612.4,121.6 624.6,120.7 636.8,107.8 648.9,109.5 661.1,106.6 673.3,112.2" fill="none" stroke-width="2" stroke="#d95926"/>
  <polyline points="40,139.4 52.2,127.8 64.4,142.6 76.5,133.7 88.7,132.8 100.9,122.5 113.1,125.1 125.3,138 137.4,128.5 149.6,119.8 161.8,135.4 174,120.3 186.1,125.1 198.3,126.8 210.5,114.5 222.7,110.7 234.9,125.9 247,133.3 259.2,125.8 271.4,133.6 283.6,141.1 295.8,115.1 307.9,120.2 320.1,111.6 332.3,103.6 344.5,100.3 356.6,112.4 368.8,114.2 381,120.3 393.2,123.9 405.4,116.3 417.5,110.2 429.7,114.5 441.9,125 454.1,127 466.3,123.4 478.4,110.8 490.6,114.2 502.8,105.6 515,105.7 527.1,115 539.3,120.1 551.5,119.7 563.7,118 575.9,142.6 588,122.3 600.2,126.3 612.4,112.9 624.6,104.1 636.8,105 648.9,99.5 661.1,101.3 673.3,102.1 685.5,121.4 697.6,121.7 709.8,115.2 722,110" fill="none" stroke-width="2" stroke="#3987e5"/>
  <circle cx="40" cy="160.9" r="4" stroke="#0d1117" stroke-width="1.5" fill="#d95926"><title>2021-12: heating 13% on time (2339 estimates)</title></circle>
  <circle cx="52.2" cy="134.9" r="4" stroke="#0d1117" stroke-width="1.5" fill="#d95926"><title>2022-01: heating 30% on time (3821 estimates)</title></circle>
  <circle cx="64.4" cy="141.3" r="4" stroke="#0d1117" stroke-width="1.5" fill="#d95926"><title>2022-02: heating 26% on time (5017 estimates)</title></circle>
  <circle cx="76.5" cy="136" r="4" stroke="#0d1117" stroke-width="1.5" fill="#d95926"><title>2022-03: heating 29% on time (3536 estimates)</title></circle>
  <circle cx="88.7" cy="88.1" r="4" stroke="#0d1117" stroke-width="1.5" fill="#d95926"><title>2022-04: heating 61% on time (31 estimates)</title></circle>
  <circle cx="149.6" cy="30" r="4" stroke="#0d1117" stroke-width="1.5" fill="#d95926"><title>2022-09: heating 100% on time (23 estimates)</title></circle>
  <circle cx="161.8" cy="83.6" r="4" stroke="#0d1117" stroke-width="1.5" fill="#d95926"><title>2022-10: heating 64% on time (126 estimates)</title></circle>
  <circle cx="174" cy="133" r="4" stroke="#0d1117" stroke-width="1.5" fill="#d95926"><title>2022-11: heating 31% on time (5023 estimates)</title></circle>
  <circle cx="186.1" cy="131.8" r="4" stroke="#0d1117" stroke-width="1.5" fill="#d95926"><title>2022-12: heating 32% on time (2983 estimates)</title></circle>
  <circle cx="198.3" cy="127.3" r="4" stroke="#0d1117" stroke-width="1.5" fill="#d95926"><title>2023-01: heating 35% on time (1798 estimates)</title></circle>
  <circle cx="210.5" cy="120.1" r="4" stroke="#0d1117" stroke-width="1.5" fill="#d95926"><title>2023-02: heating 40% on time (2464 estimates)</title></circle>
  <circle cx="222.7" cy="106.6" r="4" stroke="#0d1117" stroke-width="1.5" fill="#d95926"><title>2023-03: heating 49% on time (1954 estimates)</title></circle>
  <circle cx="234.9" cy="105.5" r="4" stroke="#0d1117" stroke-width="1.5" fill="#d95926"><title>2023-04: heating 50% on time (624 estimates)</title></circle>
  <circle cx="307.9" cy="74.4" r="4" stroke="#0d1117" stroke-width="1.5" fill="#d95926"><title>2023-10: heating 70% on time (250 estimates)</title></circle>
  <circle cx="320.1" cy="120.5" r="4" stroke="#0d1117" stroke-width="1.5" fill="#d95926"><title>2023-11: heating 40% on time (4510 estimates)</title></circle>
  <circle cx="332.3" cy="116.8" r="4" stroke="#0d1117" stroke-width="1.5" fill="#d95926"><title>2023-12: heating 42% on time (4531 estimates)</title></circle>
  <circle cx="344.5" cy="116.4" r="4" stroke="#0d1117" stroke-width="1.5" fill="#d95926"><title>2024-01: heating 42% on time (2423 estimates)</title></circle>
  <circle cx="356.6" cy="112.1" r="4" stroke="#0d1117" stroke-width="1.5" fill="#d95926"><title>2024-02: heating 45% on time (2001 estimates)</title></circle>
  <circle cx="368.8" cy="112.6" r="4" stroke="#0d1117" stroke-width="1.5" fill="#d95926"><title>2024-03: heating 45% on time (1284 estimates)</title></circle>
  <circle cx="381" cy="34.8" r="4" stroke="#0d1117" stroke-width="1.5" fill="#d95926"><title>2024-04: heating 97% on time (31 estimates)</title></circle>
  <circle cx="429.7" cy="38.6" r="4" stroke="#0d1117" stroke-width="1.5" fill="#d95926"><title>2024-08: heating 94% on time (35 estimates)</title></circle>
  <circle cx="454.1" cy="128" r="4" stroke="#0d1117" stroke-width="1.5" fill="#d95926"><title>2024-10: heating 35% on time (1545 estimates)</title></circle>
  <circle cx="466.3" cy="136.4" r="4" stroke="#0d1117" stroke-width="1.5" fill="#d95926"><title>2024-11: heating 29% on time (4832 estimates)</title></circle>
  <circle cx="478.4" cy="122.7" r="4" stroke="#0d1117" stroke-width="1.5" fill="#d95926"><title>2024-12: heating 38% on time (2753 estimates)</title></circle>
  <circle cx="490.6" cy="117.8" r="4" stroke="#0d1117" stroke-width="1.5" fill="#d95926"><title>2025-01: heating 41% on time (2945 estimates)</title></circle>
  <circle cx="502.8" cy="111.6" r="4" stroke="#0d1117" stroke-width="1.5" fill="#d95926"><title>2025-02: heating 46% on time (1559 estimates)</title></circle>
  <circle cx="515" cy="115.6" r="4" stroke="#0d1117" stroke-width="1.5" fill="#d95926"><title>2025-03: heating 43% on time (3057 estimates)</title></circle>
  <circle cx="527.1" cy="121.2" r="4" stroke="#0d1117" stroke-width="1.5" fill="#d95926"><title>2025-04: heating 39% on time (1952 estimates)</title></circle>
  <circle cx="600.2" cy="134.9" r="4" stroke="#0d1117" stroke-width="1.5" fill="#d95926"><title>2025-10: heating 30% on time (1919 estimates)</title></circle>
  <circle cx="612.4" cy="121.6" r="4" stroke="#0d1117" stroke-width="1.5" fill="#d95926"><title>2025-11: heating 39% on time (2256 estimates)</title></circle>
  <circle cx="624.6" cy="120.7" r="4" stroke="#0d1117" stroke-width="1.5" fill="#d95926"><title>2025-12: heating 40% on time (2052 estimates)</title></circle>
  <circle cx="636.8" cy="107.8" r="4" stroke="#0d1117" stroke-width="1.5" fill="#d95926"><title>2026-01: heating 48% on time (3889 estimates)</title></circle>
  <circle cx="648.9" cy="109.5" r="4" stroke="#0d1117" stroke-width="1.5" fill="#d95926"><title>2026-02: heating 47% on time (2847 estimates)</title></circle>
  <circle cx="661.1" cy="106.6" r="4" stroke="#0d1117" stroke-width="1.5" fill="#d95926"><title>2026-03: heating 49% on time (3047 estimates)</title></circle>
  <circle cx="673.3" cy="112.2" r="4" stroke="#0d1117" stroke-width="1.5" fill="#d95926"><title>2026-04: heating 45% on time (573 estimates)</title></circle>
  <circle cx="40" cy="139.4" r="4" stroke="#0d1117" stroke-width="1.5" fill="#3987e5"><title>2021-12: hot water 27% on time (887 estimates)</title></circle>
  <circle cx="52.2" cy="127.8" r="4" stroke="#0d1117" stroke-width="1.5" fill="#3987e5"><title>2022-01: hot water 35% on time (2496 estimates)</title></circle>
  <circle cx="64.4" cy="142.6" r="4" stroke="#0d1117" stroke-width="1.5" fill="#3987e5"><title>2022-02: hot water 25% on time (3658 estimates)</title></circle>
  <circle cx="76.5" cy="133.7" r="4" stroke="#0d1117" stroke-width="1.5" fill="#3987e5"><title>2022-03: hot water 31% on time (2377 estimates)</title></circle>
  <circle cx="88.7" cy="132.8" r="4" stroke="#0d1117" stroke-width="1.5" fill="#3987e5"><title>2022-04: hot water 31% on time (2982 estimates)</title></circle>
  <circle cx="100.9" cy="122.5" r="4" stroke="#0d1117" stroke-width="1.5" fill="#3987e5"><title>2022-05: hot water 38% on time (2069 estimates)</title></circle>
  <circle cx="113.1" cy="125.1" r="4" stroke="#0d1117" stroke-width="1.5" fill="#3987e5"><title>2022-06: hot water 37% on time (1933 estimates)</title></circle>
  <circle cx="125.3" cy="138" r="4" stroke="#0d1117" stroke-width="1.5" fill="#3987e5"><title>2022-07: hot water 28% on time (5071 estimates)</title></circle>
  <circle cx="137.4" cy="128.5" r="4" stroke="#0d1117" stroke-width="1.5" fill="#3987e5"><title>2022-08: hot water 34% on time (2058 estimates)</title></circle>
  <circle cx="149.6" cy="119.8" r="4" stroke="#0d1117" stroke-width="1.5" fill="#3987e5"><title>2022-09: hot water 40% on time (3913 estimates)</title></circle>
  <circle cx="161.8" cy="135.4" r="4" stroke="#0d1117" stroke-width="1.5" fill="#3987e5"><title>2022-10: hot water 30% on time (4412 estimates)</title></circle>
  <circle cx="174" cy="120.3" r="4" stroke="#0d1117" stroke-width="1.5" fill="#3987e5"><title>2022-11: hot water 40% on time (4828 estimates)</title></circle>
  <circle cx="186.1" cy="125.1" r="4" stroke="#0d1117" stroke-width="1.5" fill="#3987e5"><title>2022-12: hot water 37% on time (1711 estimates)</title></circle>
  <circle cx="198.3" cy="126.8" r="4" stroke="#0d1117" stroke-width="1.5" fill="#3987e5"><title>2023-01: hot water 35% on time (1424 estimates)</title></circle>
  <circle cx="210.5" cy="114.5" r="4" stroke="#0d1117" stroke-width="1.5" fill="#3987e5"><title>2023-02: hot water 44% on time (2182 estimates)</title></circle>
  <circle cx="222.7" cy="110.7" r="4" stroke="#0d1117" stroke-width="1.5" fill="#3987e5"><title>2023-03: hot water 46% on time (2084 estimates)</title></circle>
  <circle cx="234.9" cy="125.9" r="4" stroke="#0d1117" stroke-width="1.5" fill="#3987e5"><title>2023-04: hot water 36% on time (2254 estimates)</title></circle>
  <circle cx="247" cy="133.3" r="4" stroke="#0d1117" stroke-width="1.5" fill="#3987e5"><title>2023-05: hot water 31% on time (6389 estimates)</title></circle>
  <circle cx="259.2" cy="125.8" r="4" stroke="#0d1117" stroke-width="1.5" fill="#3987e5"><title>2023-06: hot water 36% on time (3266 estimates)</title></circle>
  <circle cx="271.4" cy="133.6" r="4" stroke="#0d1117" stroke-width="1.5" fill="#3987e5"><title>2023-07: hot water 31% on time (3445 estimates)</title></circle>
  <circle cx="283.6" cy="141.1" r="4" stroke="#0d1117" stroke-width="1.5" fill="#3987e5"><title>2023-08: hot water 26% on time (3310 estimates)</title></circle>
  <circle cx="295.8" cy="115.1" r="4" stroke="#0d1117" stroke-width="1.5" fill="#3987e5"><title>2023-09: hot water 43% on time (2663 estimates)</title></circle>
  <circle cx="307.9" cy="120.2" r="4" stroke="#0d1117" stroke-width="1.5" fill="#3987e5"><title>2023-10: hot water 40% on time (2465 estimates)</title></circle>
  <circle cx="320.1" cy="111.6" r="4" stroke="#0d1117" stroke-width="1.5" fill="#3987e5"><title>2023-11: hot water 46% on time (3641 estimates)</title></circle>
  <circle cx="332.3" cy="103.6" r="4" stroke="#0d1117" stroke-width="1.5" fill="#3987e5"><title>2023-12: hot water 51% on time (3428 estimates)</title></circle>
  <circle cx="344.5" cy="100.3" r="4" stroke="#0d1117" stroke-width="1.5" fill="#3987e5"><title>2024-01: hot water 53% on time (1556 estimates)</title></circle>
  <circle cx="356.6" cy="112.4" r="4" stroke="#0d1117" stroke-width="1.5" fill="#3987e5"><title>2024-02: hot water 45% on time (2061 estimates)</title></circle>
  <circle cx="368.8" cy="114.2" r="4" stroke="#0d1117" stroke-width="1.5" fill="#3987e5"><title>2024-03: hot water 44% on time (1513 estimates)</title></circle>
  <circle cx="381" cy="120.3" r="4" stroke="#0d1117" stroke-width="1.5" fill="#3987e5"><title>2024-04: hot water 40% on time (3993 estimates)</title></circle>
  <circle cx="393.2" cy="123.9" r="4" stroke="#0d1117" stroke-width="1.5" fill="#3987e5"><title>2024-05: hot water 37% on time (3460 estimates)</title></circle>
  <circle cx="405.4" cy="116.3" r="4" stroke="#0d1117" stroke-width="1.5" fill="#3987e5"><title>2024-06: hot water 42% on time (1953 estimates)</title></circle>
  <circle cx="417.5" cy="110.2" r="4" stroke="#0d1117" stroke-width="1.5" fill="#3987e5"><title>2024-07: hot water 47% on time (2107 estimates)</title></circle>
  <circle cx="429.7" cy="114.5" r="4" stroke="#0d1117" stroke-width="1.5" fill="#3987e5"><title>2024-08: hot water 44% on time (4894 estimates)</title></circle>
  <circle cx="441.9" cy="125" r="4" stroke="#0d1117" stroke-width="1.5" fill="#3987e5"><title>2024-09: hot water 37% on time (3035 estimates)</title></circle>
  <circle cx="454.1" cy="127" r="4" stroke="#0d1117" stroke-width="1.5" fill="#3987e5"><title>2024-10: hot water 35% on time (3171 estimates)</title></circle>
  <circle cx="466.3" cy="123.4" r="4" stroke="#0d1117" stroke-width="1.5" fill="#3987e5"><title>2024-11: hot water 38% on time (3753 estimates)</title></circle>
  <circle cx="478.4" cy="110.8" r="4" stroke="#0d1117" stroke-width="1.5" fill="#3987e5"><title>2024-12: hot water 46% on time (1937 estimates)</title></circle>
  <circle cx="490.6" cy="114.2" r="4" stroke="#0d1117" stroke-width="1.5" fill="#3987e5"><title>2025-01: hot water 44% on time (2355 estimates)</title></circle>
  <circle cx="502.8" cy="105.6" r="4" stroke="#0d1117" stroke-width="1.5" fill="#3987e5"><title>2025-02: hot water 50% on time (1328 estimates)</title></circle>
  <circle cx="515" cy="105.7" r="4" stroke="#0d1117" stroke-width="1.5" fill="#3987e5"><title>2025-03: hot water 50% on time (2514 estimates)</title></circle>
  <circle cx="527.1" cy="115" r="4" stroke="#0d1117" stroke-width="1.5" fill="#3987e5"><title>2025-04: hot water 43% on time (2345 estimates)</title></circle>
  <circle cx="539.3" cy="120.1" r="4" stroke="#0d1117" stroke-width="1.5" fill="#3987e5"><title>2025-05: hot water 40% on time (2474 estimates)</title></circle>
  <circle cx="551.5" cy="119.7" r="4" stroke="#0d1117" stroke-width="1.5" fill="#3987e5"><title>2025-06: hot water 40% on time (3204 estimates)</title></circle>
  <circle cx="563.7" cy="118" r="4" stroke="#0d1117" stroke-width="1.5" fill="#3987e5"><title>2025-07: hot water 41% on time (1984 estimates)</title></circle>
  <circle cx="575.9" cy="142.6" r="4" stroke="#0d1117" stroke-width="1.5" fill="#3987e5"><title>2025-08: hot water 25% on time (5217 estimates)</title></circle>
  <circle cx="588" cy="122.3" r="4" stroke="#0d1117" stroke-width="1.5" fill="#3987e5"><title>2025-09: hot water 38% on time (3301 estimates)</title></circle>
  <circle cx="600.2" cy="126.3" r="4" stroke="#0d1117" stroke-width="1.5" fill="#3987e5"><title>2025-10: hot water 36% on time (3951 estimates)</title></circle>
  <circle cx="612.4" cy="112.9" r="4" stroke="#0d1117" stroke-width="1.5" fill="#3987e5"><title>2025-11: hot water 45% on time (1779 estimates)</title></circle>
  <circle cx="624.6" cy="104.1" r="4" stroke="#0d1117" stroke-width="1.5" fill="#3987e5"><title>2025-12: hot water 51% on time (1303 estimates)</title></circle>
  <circle cx="636.8" cy="105" r="4" stroke="#0d1117" stroke-width="1.5" fill="#3987e5"><title>2026-01: hot water 50% on time (3124 estimates)</title></circle>
  <circle cx="648.9" cy="99.5" r="4" stroke="#0d1117" stroke-width="1.5" fill="#3987e5"><title>2026-02: hot water 54% on time (2089 estimates)</title></circle>
  <circle cx="661.1" cy="101.3" r="4" stroke="#0d1117" stroke-width="1.5" fill="#3987e5"><title>2026-03: hot water 52% on time (2588 estimates)</title></circle>
  <circle cx="673.3" cy="102.1" r="4" fill="#0d1117" stroke-width="2" stroke="#3987e5"><title>2026-04: hot water 52% on time (3065 estimates, provisional)</title></circle>
  <circle cx="685.5" cy="121.4" r="4" stroke="#0d1117" stroke-width="1.5" fill="#3987e5"><title>2026-05: hot water 39% on time (4164 estimates)</title></circle>
  <circle cx="697.6" cy="121.7" r="4" stroke="#0d1117" stroke-width="1.5" fill="#3987e5"><title>2026-06: hot water 39% on time (2098 estimates)</title></circle>
  <circle cx="709.8" cy="115.2" r="4" fill="#0d1117" stroke-width="2" stroke="#3987e5"><title>2026-07: hot water 43% on time (1891 estimates, provisional)</title></circle>
  <circle cx="722" cy="110" r="4" fill="#0d1117" stroke-width="2" stroke="#3987e5"><title>2026-08: hot water 47% on time (2718 estimates, provisional)</title></circle>
  <text x="731" y="113" class="label">ACC</text>
  <rect x="442" y="8" width="10" height="10" rx="2" fill="#d95926"/>
  <text x="456" y="16" class="axis">heating (INC)</text>
  <rect x="542" y="8" width="10" height="10" rx="2" fill="#3987e5"/>
  <text x="556" y="16" class="axis">hot water (ACC)</text>
  <circle cx="647" cy="13" r="4" fill="#0d1117" stroke-width="2" stroke="#8b949e"/>
  <text x="656" y="16" class="axis">provisional</text>
  <text x="40" y="212" class="title">Share of posted restore estimates met on time</text>
</svg>